<?xml version="1.0" encoding="utf-8"?>
<!-- Generator: Adobe Illustrator 21.0.0, SVG Export Plug-In . SVG Version: 6.00 Build 0)  -->
<svg version="1.1" id="Layer_1" xmlns="http://www.w3.org/2000/svg" xmlns:xlink="http://www.w3.org/1999/xlink" x="0px" y="0px"
	 viewBox="0 0 160 145" style="enable-background:new 0 0 160 145;" xml:space="preserve">
<style type="text/css">
	.st0{fill:#CB5990;}
	.st1{fill:#FFFFFF;}
	.st2{fill:#12B6BF;}
	.st3{fill:url(#SVGID_1_);}
	.st4{fill:#455BA8;}
	.st5{fill:#326EB6;}
	.st6{fill:#DD5968;}
	.st7{fill:#EF537A;}
	.st8{fill:url(#SVGID_2_);}
	.st9{fill:url(#SVGID_3_);}
	.st10{fill:url(#SVGID_4_);}
	.st11{fill:url(#SVGID_5_);}
	.st12{fill:#F16443;}
	.st13{fill:url(#SVGID_6_);}
	.st14{fill:#F68E3F;}
	.st15{fill:url(#SVGID_7_);}
	.st16{fill:url(#SVGID_8_);}
	.st17{fill:url(#SVGID_9_);}
	.st18{fill:url(#SVGID_10_);}
	.st19{fill:url(#SVGID_11_);}
	.st20{fill:url(#SVGID_12_);}
	.st21{fill:url(#SVGID_13_);}
	.st22{fill:url(#SVGID_14_);}
	.st23{fill:url(#SVGID_15_);}
	.st24{fill:url(#SVGID_16_);}
	.st25{fill:url(#SVGID_17_);}
	.st26{fill:#3DB66D;}
	.st27{fill:url(#SVGID_18_);}
	.st28{fill:url(#SVGID_19_);}
	.st29{fill:url(#SVGID_20_);}
	.st30{fill:url(#SVGID_21_);}
	.st31{fill:url(#SVGID_22_);}
	.st32{fill:url(#SVGID_23_);}
	.st33{fill:url(#SVGID_24_);}
	.st34{fill:url(#SVGID_25_);}
	.st35{fill:url(#SVGID_26_);}
	.st36{fill:url(#SVGID_27_);}
	.st37{fill:url(#SVGID_28_);}
	.st38{fill:url(#SVGID_29_);}
	.st39{fill:url(#SVGID_30_);}
	.st40{fill:url(#SVGID_31_);}
	.st41{fill:url(#SVGID_32_);}
	.st42{fill:url(#SVGID_33_);}
	.st43{fill:url(#SVGID_34_);}
	.st44{fill:url(#SVGID_35_);}
	.st45{fill:url(#SVGID_36_);}
	.st46{fill:url(#SVGID_37_);}
	.st47{fill:url(#SVGID_38_);}
	.st48{fill:url(#SVGID_39_);}
	.st49{fill:url(#SVGID_40_);}
	.st50{fill:url(#SVGID_41_);}
	.st51{fill:url(#SVGID_42_);}
	.st52{fill:url(#SVGID_43_);}
	.st53{fill:url(#SVGID_44_);}
	.st54{fill:url(#SVGID_45_);}
	.st55{fill:url(#SVGID_46_);}
	.st56{fill:url(#SVGID_47_);}
	.st57{fill:url(#SVGID_48_);}
	.st58{fill:url(#SVGID_49_);}
	.st59{fill:url(#SVGID_50_);}
	.st60{fill:url(#SVGID_51_);}
	.st61{fill:url(#SVGID_52_);}
	.st62{fill:url(#SVGID_53_);}
	.st63{fill:url(#SVGID_54_);}
	.st64{fill:url(#SVGID_55_);}
	.st65{fill:url(#SVGID_56_);}
	.st66{fill:url(#SVGID_57_);}
	.st67{fill:url(#SVGID_58_);}
	.st68{fill:url(#SVGID_59_);}
	.st69{fill:url(#SVGID_60_);}
	.st70{fill:url(#SVGID_61_);}
	.st71{fill:url(#SVGID_62_);}
	.st72{fill:url(#SVGID_63_);}
	.st73{fill:url(#SVGID_64_);}
	.st74{fill:url(#SVGID_65_);}
	.st75{fill:url(#SVGID_66_);}
	.st76{fill:url(#SVGID_67_);}
	.st77{fill:url(#SVGID_68_);}
	.st78{fill:url(#SVGID_69_);}
	.st79{fill:url(#SVGID_70_);}
	.st80{fill:url(#SVGID_71_);}
	.st81{fill:url(#SVGID_72_);}
	.st82{fill:url(#SVGID_73_);}
	.st83{fill:url(#SVGID_74_);}
	.st84{fill:url(#SVGID_75_);}
	.st85{fill:url(#SVGID_76_);}
	.st86{fill:url(#SVGID_77_);}
	.st87{fill:url(#SVGID_78_);}
	.st88{fill:url(#SVGID_79_);}
	.st89{fill:url(#SVGID_80_);}
	.st90{fill:url(#SVGID_81_);}
	.st91{fill:url(#SVGID_82_);}
	.st92{fill:url(#SVGID_83_);}
	.st93{fill:url(#SVGID_84_);}
	.st94{fill:url(#SVGID_85_);}
	.st95{fill:url(#SVGID_86_);}
	.st96{fill:url(#SVGID_87_);}
	.st97{fill:url(#SVGID_88_);}
	.st98{fill:url(#SVGID_89_);}
	.st99{fill:url(#SVGID_90_);}
	.st100{fill:url(#SVGID_91_);}
	.st101{fill:url(#SVGID_92_);}
	.st102{fill:url(#SVGID_93_);}
	.st103{fill:url(#SVGID_94_);}
	.st104{fill:url(#SVGID_95_);}
	.st105{fill:url(#SVGID_96_);}
	.st106{fill:url(#SVGID_97_);}
	.st107{fill:url(#SVGID_98_);}
	.st108{fill:url(#SVGID_99_);}
	.st109{fill:url(#SVGID_100_);}
	.st110{fill:url(#SVGID_101_);}
	.st111{fill:url(#SVGID_102_);}
	.st112{fill:url(#SVGID_103_);}
	.st113{fill:url(#SVGID_104_);}
	.st114{fill:url(#SVGID_105_);}
	.st115{fill:url(#SVGID_106_);}
	.st116{fill:url(#SVGID_107_);}
	.st117{fill:url(#SVGID_108_);}
	.st118{fill:url(#SVGID_109_);}
	.st119{fill:url(#SVGID_110_);}
	.st120{fill:url(#SVGID_111_);}
	.st121{fill:url(#SVGID_112_);}
	.st122{fill:url(#SVGID_113_);}
	.st123{fill:url(#SVGID_114_);}
	.st124{fill:url(#SVGID_115_);}
	.st125{fill:url(#SVGID_116_);}
	.st126{fill:url(#SVGID_117_);}
	.st127{fill:url(#SVGID_118_);}
	.st128{fill:url(#SVGID_119_);}
	.st129{fill:url(#SVGID_120_);}
	.st130{fill:url(#SVGID_121_);}
	.st131{fill:url(#SVGID_122_);}
	.st132{fill:url(#SVGID_123_);}
	.st133{fill:url(#SVGID_124_);}
	.st134{fill:url(#SVGID_125_);}
	.st135{fill:url(#SVGID_126_);}
	.st136{fill:url(#SVGID_127_);}
	.st137{fill:#184054;}
	.st138{fill:url(#SVGID_128_);}
	.st139{fill:url(#SVGID_129_);}
	.st140{fill:url(#SVGID_130_);}
	.st141{fill:url(#SVGID_131_);}
	.st142{fill:url(#SVGID_132_);}
	.st143{fill:url(#SVGID_133_);}
	.st144{fill:url(#SVGID_134_);}
	.st145{fill:url(#SVGID_135_);}
	.st146{fill:url(#SVGID_136_);}
	.st147{fill:url(#SVGID_137_);}
	.st148{fill:url(#SVGID_138_);}
	.st149{fill:url(#SVGID_139_);}
	.st150{fill:url(#SVGID_140_);}
	.st151{fill:url(#SVGID_141_);}
	.st152{fill:url(#SVGID_142_);}
	.st153{fill:url(#SVGID_143_);}
	.st154{fill:url(#SVGID_144_);}
	.st155{fill:url(#SVGID_145_);}
	.st156{fill:url(#SVGID_146_);}
	.st157{fill:url(#SVGID_147_);}
	.st158{fill:url(#SVGID_148_);}
	.st159{fill:url(#SVGID_149_);}
	.st160{fill:url(#SVGID_150_);}
	.st161{fill:url(#SVGID_151_);}
	.st162{fill:url(#SVGID_152_);}
	.st163{fill:url(#SVGID_153_);}
	.st164{fill:url(#SVGID_154_);}
	.st165{fill:url(#SVGID_155_);}
	.st166{fill:url(#SVGID_156_);}
	.st167{fill:url(#SVGID_157_);}
	.st168{fill:url(#SVGID_158_);}
	.st169{fill:url(#SVGID_159_);}
	.st170{fill:url(#SVGID_160_);}
	.st171{fill:url(#SVGID_161_);}
	.st172{fill:url(#SVGID_162_);}
	.st173{fill:url(#SVGID_163_);}
	.st174{fill:url(#SVGID_164_);}
	.st175{fill:url(#SVGID_165_);}
	.st176{fill:url(#SVGID_166_);}
	.st177{fill:url(#SVGID_167_);}
	.st178{fill:url(#SVGID_168_);}
	.st179{fill:url(#SVGID_169_);}
	.st180{fill:url(#SVGID_170_);}
	.st181{fill:url(#SVGID_171_);}
	.st182{fill:url(#SVGID_172_);}
	.st183{fill:url(#SVGID_173_);}
	.st184{fill:url(#SVGID_174_);}
	.st185{fill:url(#SVGID_175_);}
	.st186{fill:url(#SVGID_176_);}
	.st187{fill:url(#SVGID_177_);}
	.st188{fill:url(#SVGID_178_);}
	.st189{fill:url(#SVGID_179_);}
	.st190{fill:url(#SVGID_180_);}
	.st191{fill:url(#SVGID_181_);}
	.st192{fill:url(#SVGID_182_);}
	.st193{fill:url(#SVGID_183_);}
	.st194{fill:url(#SVGID_184_);}
	.st195{fill:url(#SVGID_185_);}
	.st196{fill:url(#SVGID_186_);}
	.st197{fill:url(#SVGID_187_);}
	.st198{fill:url(#SVGID_188_);}
	.st199{fill:url(#SVGID_189_);}
	.st200{fill:url(#SVGID_190_);}
	.st201{fill:url(#SVGID_191_);}
	.st202{fill:url(#SVGID_192_);}
	.st203{fill:url(#SVGID_193_);}
	.st204{fill:url(#SVGID_194_);}
	.st205{fill:url(#SVGID_195_);}
	.st206{fill:url(#SVGID_196_);}
	.st207{fill:url(#SVGID_197_);}
	.st208{fill:url(#SVGID_198_);}
	.st209{fill:url(#SVGID_199_);}
	.st210{fill:url(#SVGID_200_);}
	.st211{fill:url(#SVGID_201_);}
	.st212{fill:url(#SVGID_202_);}
	.st213{fill:url(#SVGID_203_);}
	.st214{fill:url(#SVGID_204_);}
	.st215{fill:url(#SVGID_205_);}
	.st216{fill:url(#SVGID_206_);}
	.st217{fill:url(#SVGID_207_);}
	.st218{fill:url(#SVGID_208_);}
	.st219{fill:#969697;}
	.st220{fill:url(#SVGID_209_);}
	.st221{fill:url(#SVGID_210_);}
	.st222{fill:url(#SVGID_211_);}
	.st223{fill:url(#SVGID_212_);}
	.st224{fill:url(#SVGID_213_);}
	.st225{fill:url(#SVGID_214_);}
	.st226{fill:url(#SVGID_215_);}
	.st227{fill:url(#SVGID_216_);}
	.st228{fill:url(#SVGID_217_);}
	.st229{fill:url(#SVGID_218_);}
	.st230{fill:url(#SVGID_219_);}
	.st231{fill:url(#SVGID_220_);}
	.st232{fill:url(#SVGID_221_);}
	.st233{fill:url(#SVGID_222_);}
	.st234{fill:url(#SVGID_223_);}
	.st235{fill:url(#SVGID_224_);}
	.st236{fill:url(#SVGID_225_);}
	.st237{fill:url(#SVGID_226_);}
	.st238{fill:url(#SVGID_227_);}
	.st239{fill:url(#SVGID_228_);}
	.st240{fill:url(#SVGID_229_);}
	.st241{fill:url(#SVGID_230_);}
	.st242{fill:url(#SVGID_231_);}
	.st243{fill:url(#SVGID_232_);}
	.st244{fill:url(#SVGID_233_);}
	.st245{fill:url(#SVGID_234_);}
	.st246{fill:url(#SVGID_235_);}
	.st247{fill:url(#SVGID_236_);}
	.st248{fill:url(#SVGID_237_);}
	.st249{fill:url(#SVGID_238_);}
	.st250{fill:url(#SVGID_239_);}
	.st251{fill:url(#SVGID_240_);}
	.st252{fill:url(#SVGID_241_);}
	.st253{fill:url(#SVGID_242_);}
	.st254{fill:url(#SVGID_243_);}
	.st255{fill:url(#SVGID_244_);}
	.st256{fill:url(#SVGID_245_);}
	.st257{fill:url(#SVGID_246_);}
	.st258{fill:url(#SVGID_247_);}
	.st259{fill:url(#SVGID_248_);}
	.st260{fill:url(#SVGID_249_);}
	.st261{fill:url(#SVGID_250_);}
	.st262{fill:url(#SVGID_251_);}
	.st263{fill:url(#SVGID_252_);}
	.st264{fill:url(#SVGID_253_);}
	.st265{fill:url(#SVGID_254_);}
	.st266{fill:url(#SVGID_255_);}
	.st267{fill:url(#SVGID_256_);}
	.st268{fill:url(#SVGID_257_);}
	.st269{fill:url(#SVGID_258_);}
	.st270{fill:url(#SVGID_259_);}
	.st271{fill:url(#SVGID_260_);}
	.st272{fill:url(#SVGID_261_);}
	.st273{fill:url(#SVGID_262_);}
	.st274{fill:url(#SVGID_263_);}
	.st275{fill:url(#SVGID_264_);}
	.st276{fill:url(#SVGID_265_);}
	.st277{fill:url(#SVGID_266_);}
	.st278{fill:url(#SVGID_267_);}
	.st279{fill:#F69474;}
	.st280{fill:#F27350;}
	.st281{fill:url(#SVGID_268_);}
	.st282{fill:url(#SVGID_269_);}
	.st283{fill:url(#SVGID_270_);}
	.st284{fill:url(#SVGID_271_);}
	.st285{fill:url(#SVGID_272_);}
	.st286{fill:url(#SVGID_273_);}
	.st287{fill:url(#SVGID_274_);}
	.st288{fill:url(#SVGID_275_);}
	.st289{fill:url(#SVGID_276_);}
	.st290{fill:url(#SVGID_277_);}
	.st291{fill:url(#SVGID_278_);}
	.st292{fill:url(#SVGID_279_);}
	.st293{fill:url(#SVGID_280_);}
	.st294{fill:url(#SVGID_281_);}
	.st295{fill:url(#SVGID_282_);}
	.st296{fill:url(#SVGID_283_);}
	.st297{fill:url(#SVGID_284_);}
	.st298{fill:url(#SVGID_285_);}
	.st299{fill:url(#SVGID_286_);}
	.st300{fill:url(#SVGID_287_);}
	.st301{fill:url(#SVGID_288_);}
	.st302{fill:url(#SVGID_289_);}
	.st303{fill:url(#SVGID_290_);}
	.st304{fill:url(#SVGID_291_);}
	.st305{fill:url(#SVGID_292_);}
	.st306{fill:url(#SVGID_293_);}
</style>
<g>
	<path d="M59.1,79.3C59.1,79.3,59.1,79.3,59.1,79.3C59.1,79.3,59.1,79.3,59.1,79.3S59.1,79.3,59.1,79.3z"/>
	<path d="M59.1,79.3L59.1,79.3L59.1,79.3C59.1,79.3,59.1,79.3,59.1,79.3z"/>
	<path d="M59.1,79.3C59.1,79.3,59.1,79.3,59.1,79.3C59.1,79.3,59.1,79.3,59.1,79.3L59.1,79.3C59.1,79.3,59.1,79.3,59.1,79.3z"/>
	<linearGradient id="SVGID_1_" gradientUnits="userSpaceOnUse" x1="24.1515" y1="72.5" x2="135.8485" y2="72.5">
		<stop  offset="0" style="stop-color:#ED2F66"/>
		<stop  offset="1" style="stop-color:#F8A131"/>
	</linearGradient>
	<path class="st3" d="M130.3,56.1c-2.1-5.2-5.7-10-10-14.3c-1.1-1.1-2.2-2.1-3.4-3.1c0.1,0,0.3-0.1,0.4-0.3c0.8-1.5,1.3-3.1,1.6-4.7
		c0.3-1.6,0.5-3.3,0.6-5c0.1-1.8,0.1-3.7-0.1-5.5c-0.1-0.9-0.3-1.9-0.7-2.8c-0.2-0.5-0.4-1-0.8-1.4c-0.2-0.2-0.5-0.4-0.8-0.6
		c-0.3-0.2-0.7-0.3-1-0.3c-0.6,0-1.1,0.2-1.5,0.4c-0.4,0.2-0.7,0.5-1,0.7c-0.6,0.5-1.1,1.1-1.5,1.7c-0.9,1.2-1.7,2.4-2.4,3.7
		c-0.5,0.9-0.9,1.7-1.2,2.7c-0.1,0.2-0.2,0.3-0.2,0.5l0,0c-0.1,0.2-0.1,0.3-0.1,0.5c0,0.1-0.1,0.3-0.1,0.4c-0.2,0.6-0.4,1.3-0.6,2
		c0,0,0,0.1,0,0.1c-0.1,0.4-0.3,0.9-0.4,1.3c-0.5-0.3-1-0.5-1.5-0.7c-2.8-1.3-5.8-2.5-8.9-3.3c-1.5-0.4-3.1-0.8-4.7-1.1
		c-1.6-0.3-3.2-0.5-4.8-0.7c-6.4-0.6-12.9-0.1-19.1,1.3c-3.1,0.7-6.2,1.7-9.1,2.9c-0.5,0.2-1,0.4-1.5,0.6c0.4-1.3,0.6-2.7,0.8-4.2
		c0.2-1.8,0.2-3.6,0-5.4c0-0.5-0.1-1-0.2-1.5c-0.1-0.5-0.2-1.1-0.5-1.6c-0.1-0.3-0.3-0.6-0.5-0.9c-0.2-0.3-0.6-0.6-1-0.8
		c-0.2-0.1-0.5-0.1-0.7-0.1c-0.2,0-0.4,0-0.6,0c-0.4,0.1-0.7,0.2-1,0.4c-0.5,0.3-1,0.7-1.4,1c-0.4,0.4-0.7,0.7-1.1,1.1
		c-0.6,0.8-1.2,1.6-1.7,2.4c-0.8,1.4-1.5,2.9-2.1,4.3c-0.6,1.5-1.1,2.9-1.5,4.4c-0.5,1.5-0.9,3-1.3,4.5c-0.4,1.5-0.7,3-1,4.6
		c0,0.1,0,0.2,0.1,0.3c-0.2,0.2-0.4,0.3-0.6,0.5c-0.6,0.5-1.1,1-1.7,1.5c-0.3,0.3-0.6,0.5-0.8,0.8c-0.1,0.1-0.3,0.3-0.4,0.4
		c-0.1,0.1-0.3,0.3-0.4,0.4c-1.1,1.1-2,2.2-2.9,3.4c-1.8,2.3-3.4,4.8-4.8,7.3c-1.4,2.5-2.6,5-3.6,7.6c-1.4,3.6-2.5,7.3-3.2,11
		c-0.7,3.8-1,7.6-0.7,11.5c0.2,3.8,1,7.7,2.4,11.3c1.3,3.6,3.2,7.1,5.5,10.2c2.3,3.1,5,5.9,8,8.4c1.5,1.2,3,2.4,4.6,3.5
		c1.6,1.1,3.3,2.1,5,3c6.8,3.8,14.3,6.3,22,7.5c7.7,1.2,15.6,1,23.2-0.9c0.9-0.2,1.9-0.5,2.8-0.8c0.9-0.3,1.9-0.6,2.8-0.9
		c1.8-0.7,3.6-1.4,5.4-2.2c3.5-1.6,6.9-3.6,10-5.9c3.1-2.3,6-4.9,8.6-7.8c1.3-1.4,2.5-2.9,3.6-4.5c0.3-0.4,0.6-0.8,0.8-1.2
		c0.3-0.4,0.5-0.8,0.8-1.2c0.5-0.8,1-1.6,1.4-2.5c0.9-1.7,1.7-3.5,2.2-5.3C137.8,78,136,70.6,130.3,56.1z"/>
	<linearGradient id="SVGID_2_" gradientUnits="userSpaceOnUse" x1="25.8027" y1="77.0654" x2="133.7412" y2="77.0654">
		<stop  offset="0" style="stop-color:#0EB5BF"/>
		<stop  offset="1" style="stop-color:#B0D57B"/>
	</linearGradient>
	<path class="st8" d="M133.5,86.6c0,0.1,0,0.1,0,0.2c-2.3,0-4.6-0.1-6.9-0.2c-1.3,0-2.5-0.1-3.9,0c-0.7,0-1.3,0.1-2,0.2
		c-0.7,0.1-1.4,0.3-2,0.7c-0.4,0.2-0.8,0.5-1.2,0.9c0,0.1-0.1,0.1-0.1,0.2c0,0,0,0.1-0.1,0.1l0,0l0,0l0,0l0,0l0,0.1
		c0,0.1,0,0.1-0.1,0.1c0,0.1-0.1,0.2-0.1,0.3c0,0.2,0,0.5,0.1,0.8c0.1,0.2,0.2,0.4,0.3,0.6c0.3,0.3,0.5,0.4,0.7,0.6
		c0.2,0.1,0.4,0.2,0.6,0.3c0.4,0.2,0.8,0.3,1.2,0.4c0.8,0.2,1.6,0.4,2.4,0.5c0.2,0,0.4,0.1,0.6,0.1c0.3,0.1,0.5,0.1,0.8,0.2
		c0.5,0.1,1,0.2,1.5,0.2c2.3,0.3,4.5,0.6,6.7,0.5c-0.2,0.7-0.5,1.5-0.7,2.2c0,0,0,0,0-0.1c0,0-0.1-0.1-0.1-0.1c-0.5,0-1,0-1.5,0
		c-0.5,0-1-0.1-1.4-0.1c-0.9-0.1-1.9-0.2-2.8-0.3c-0.9-0.1-1.9-0.2-2.8-0.3c-0.5,0-1,0-1.5,0c-0.5,0-1,0.1-1.6,0.2
		c-0.3,0.1-0.7,0.2-1,0.5c-0.1,0.1-0.2,0.1-0.3,0.2c0,0-0.1,0.1-0.1,0.1c0,0,0,0-0.1,0.1l0,0l0,0l0,0l0,0c0,0-0.1,0.1-0.1,0.2
		c0,0.1-0.1,0.2-0.1,0.3c0,0.2,0,0.5,0.1,0.7c0.1,0.2,0.2,0.4,0.3,0.5c0.1,0.1,0.2,0.2,0.3,0.3c0.2,0.1,0.4,0.2,0.5,0.3
		c0.3,0.2,0.7,0.3,1,0.4c0.6,0.2,1.2,0.3,1.8,0.4c0.6,0.1,1.2,0.2,1.8,0.3c1.9,0.3,3.9,0.6,5.8,0.3c-0.2,0.3-0.3,0.6-0.5,0.9
		c-0.4,0.7-0.9,1.4-1.4,2.1c-0.5,0.7-1,1.4-1.5,2c-2.1,2.7-4.4,5.2-7,7.5c-2.6,2.3-5.3,4.3-8.3,6.1c-2.9,1.8-6,3.3-9.3,4.6
		c-0.8,0.3-1.6,0.6-2.4,0.9l-0.6,0.2l-0.3,0.1l-0.1,0l-0.2,0c-0.4,0.1-0.8,0.3-1.2,0.4c-1.7,0.5-3.3,0.9-5,1.2
		c-3.4,0.6-6.8,0.9-10.3,0.9c-7.5,0-15.1-1.4-22.2-4c-3.5-1.3-7-2.9-10.2-4.9c-3.2-1.9-6.3-4.1-9.1-6.6c-2.8-2.5-5.3-5.3-7.4-8.4
		c-0.7-1-1.3-2-1.8-3c1.9,0.3,3.9,0,5.8-0.3c0.6-0.1,1.2-0.2,1.8-0.3c0.6-0.1,1.2-0.3,1.8-0.4c0.3-0.1,0.6-0.2,1-0.4
		c0.2-0.1,0.3-0.2,0.5-0.3c0.1-0.1,0.2-0.2,0.3-0.3c0.1-0.1,0.2-0.3,0.3-0.5c0.1-0.2,0.1-0.5,0.1-0.7c0-0.1,0-0.2-0.1-0.3
		c0-0.1-0.1-0.2-0.1-0.2l0,0l0,0l0,0l0,0c0,0,0-0.1-0.1-0.1c0-0.1-0.1-0.1-0.1-0.1c-0.1-0.1-0.2-0.2-0.3-0.2
		c-0.4-0.3-0.7-0.4-1.1-0.5c-0.6-0.2-1.1-0.2-1.6-0.2c-0.5,0-1,0-1.5,0c-1,0.1-1.9,0.2-2.9,0.3c-0.9,0.1-1.9,0.2-2.8,0.3
		c-0.5,0-0.9,0.1-1.4,0.1c-0.5,0-1,0-1.5,0c-0.1,0-0.1,0-0.1,0.1c0,0,0,0.1,0,0.1c0,0,0,0,0,0c-0.3-0.7-0.6-1.5-0.8-2.2
		c2.3,0.1,4.5-0.1,6.8-0.5c0.5-0.1,1-0.1,1.5-0.2c0.3,0,0.5-0.1,0.8-0.2c0.2,0,0.4-0.1,0.6-0.1c0.8-0.1,1.6-0.3,2.4-0.5
		c0.4-0.1,0.8-0.2,1.2-0.4c0.2-0.1,0.4-0.2,0.7-0.3c0.2-0.1,0.5-0.3,0.7-0.6c0.1-0.1,0.3-0.3,0.3-0.6c0.1-0.2,0.1-0.5,0.1-0.8
		c0-0.1-0.1-0.2-0.1-0.3c0,0,0-0.1-0.1-0.1l0-0.1l0,0l0,0l0,0l0,0c0,0,0-0.1-0.1-0.1c0-0.1-0.1-0.1-0.1-0.2
		c-0.4-0.4-0.8-0.7-1.2-0.9c-0.7-0.3-1.4-0.5-2-0.7c-0.7-0.1-1.3-0.2-2-0.2c-1.3-0.1-2.6,0-3.9,0c-2.4,0.1-4.7,0.3-7.2,0.2
		c-0.1-0.9-0.2-1.7-0.3-2.6l0.5-0.1l0.8-0.1c3.1,0.1,6.1-0.3,9.2-0.7c1.6-0.2,3.1-0.5,4.7-0.8c0.1,0,0.1,0,0.2,0
		c0.8-0.2,1.5-0.3,2.3-0.5c0.4-0.1,0.8-0.2,1.1-0.4c0.2-0.1,0.4-0.2,0.6-0.3c0.2-0.1,0.4-0.3,0.6-0.5c0.1-0.1,0.2-0.2,0.2-0.4
		c0.1-0.1,0.2-0.3,0.2-0.5c0.1-0.3,0.1-0.6,0-0.8c0-0.1-0.1-0.2-0.1-0.3c0,0-0.1-0.1-0.1-0.2l-0.1-0.1c-0.1-0.1-0.2-0.3-0.3-0.4
		c-0.2-0.2-0.4-0.4-0.7-0.6c-0.4-0.3-0.8-0.5-1.2-0.6c-0.4-0.2-0.8-0.3-1.2-0.4c-0.8-0.2-1.6-0.3-2.4-0.4c-1.6-0.2-3.2-0.2-4.7-0.2
		c-1.6,0-3.1,0-4.7,0h-2.4c-0.8,0-1.6,0-2.4,0c0,0,0,0,0,0c0.2-1.6,0.5-3.3,0.8-4.9c0.7-3,1.6-6,2.7-8.9c1.1-2.9,2.5-5.7,4-8.4
		c1.6-2.7,3.3-5.2,5.3-7.6c0.5-0.6,1-1.2,1.5-1.7c0.1-0.1,0.3-0.3,0.4-0.4l0.2-0.2l0.2-0.2c0.3-0.3,0.6-0.5,0.9-0.8
		c1.1-1,2.3-2,3.5-3c4.9-3.8,10.3-6.8,16.2-8.9c5.8-2.1,12-3.2,18.2-3.3c3.1-0.1,6.2,0.1,9.3,0.5c0.8,0.1,1.5,0.2,2.3,0.4l0.6,0.1
		l0.6,0.1c0.4,0.1,0.8,0.2,1.1,0.3c1.5,0.4,3,0.8,4.5,1.3c3.2,1.1,6.4,2.5,9.4,4.1c0,0.1,0.1,0.1,0.2,0.1c0,0,0.1,0,0.1,0
		c2.3,1.3,4.6,2.8,6.7,4.4c15.6,11.8,18.3,32.6,19,36.7c-0.9,0-1.8,0.1-2.4,0.1H129c-1.6,0-3.1,0-4.7,0c-1.6,0-3.1,0.1-4.7,0.2
		c-0.8,0.1-1.6,0.2-2.4,0.4c-0.4,0.1-0.8,0.2-1.2,0.4c-0.4,0.2-0.8,0.4-1.2,0.6c-0.2,0.2-0.5,0.4-0.7,0.6c-0.1,0.1-0.2,0.3-0.3,0.4
		l-0.1,0.1c0,0.1-0.1,0.1-0.1,0.2c0,0.1-0.1,0.2-0.1,0.3c-0.1,0.2-0.1,0.5,0,0.8c0.1,0.2,0.1,0.3,0.2,0.5c0.1,0.1,0.1,0.3,0.2,0.4
		c0.2,0.3,0.4,0.4,0.6,0.5c0.2,0.1,0.4,0.2,0.6,0.3c0.4,0.2,0.8,0.3,1.1,0.4c0.8,0.2,1.5,0.4,2.3,0.5c0.1,0,0.1,0,0.2,0
		c1.6,0.3,3.1,0.6,4.7,0.8c3.1,0.4,6.2,0.9,9.2,0.7l0.8,0.1l0.2,0C133.7,84.9,133.6,85.7,133.5,86.6z"/>
	<path class="st14" d="M121.3,89.5c-0.1,0-0.2,0-0.3-0.1c0.1,0,0.1,0,0.2,0C121.3,89.5,121.3,89.5,121.3,89.5z"/>
	<path class="st1" d="M54.8,41.8l0,0.2l0,0.2l0,0.3c0,0.2,0,0.4,0,0.6l0.1,0.3c0,0.2,0.1,0.3,0.1,0.5c0,0.1,0.1,0.3,0.1,0.4
		c0,0.1,0.1,0.3,0.1,0.4c0.1,0.1,0.2,0.2,0.2,0.3c0,0,0.1,0.1,0.1,0.1c0.1,0.3,0.2,0.5,0.3,0.5c0,0,0,0,0,0c0,0,0,0,0,0c0,0,0,0,0,0
		c0,0,0-0.1,0.1-0.1c0,0,0,0,0,0v0c0,0,0,0.1,0,0.1l0,0c0,0,0,0,0,0c0,0,0,0,0,0l0,0c0,0,0,0,0,0c0,0,0,0,0,0c0,0,0,0,0,0
		c0,0-0.1,0,0,0c0,0,0,0,0.1,0c0,0,0,0,0,0h0c0,0,0,0,0,0c0,0,0,0,0.1,0c0,0,0.1,0,0.1,0c0,0,0,0,0,0c0.1,0,0.1,0,0.1,0c0,0,0,0,0,0
		c0,0,0,0,0,0c0,0,0,0,0,0c0.1-0.1,0.2-0.2,0.2-0.4c0-0.1,0.1-0.2,0.1-0.3c0-0.1,0-0.2,0-0.4s0-0.3,0-0.4c0-0.1,0-0.3,0-0.4
		c0-0.1,0-0.3,0.1-0.5c0-0.2,0-0.3,0-0.5c0-0.2,0-0.4,0-0.6c0-0.2-0.1-0.4-0.1-0.6c0-0.2,0-0.4,0.1-0.6c0-0.1,0-0.2,0.1-0.3
		c0-0.1,0-0.2,0-0.3c0-0.2-0.1-0.4-0.1-0.6c0-0.2,0-0.4,0-0.6c0-0.2,0-0.4,0-0.6l0-0.3c0-0.1,0-0.2,0-0.3c0,0,0,0,0,0c0,0,0,0,0,0
		c0,0,0,0,0,0c0,0,0,0,0,0c0,0,0,0,0,0l0,0c0,0,0,0-0.1,0c-0.1,0-0.1,0-0.2,0c-0.1,0-0.1,0-0.1,0c0,0,0,0,0,0l0,0c0,0-0.4,0-0.3,0
		c-0.1,0-0.2,0-0.2,0c-0.1,0-0.1,0-0.2,0c-0.1,0-0.1,0-0.1,0c0,0,0,0,0,0c0,0,0,0,0,0c0,0-0.1,0.1-0.1,0.1c-0.1,0.1-0.1,0.2-0.1,0.3
		c-0.1,0.2-0.1,0.4-0.2,0.5c0,0.2-0.1,0.4-0.1,0.5c0,0.2,0,0.4,0,0.5c0,0.2,0,0.3,0,0.5l-0.1,0.5c0,0.2,0,0.3,0,0.5
		C54.8,41.5,54.8,41.7,54.8,41.8z M56.4,40.4c0,0.1,0,0.2,0,0.3c0,0.1,0,0.2-0.1,0.3c0,0,0,0.1,0,0.1c0-0.4,0-0.8,0-1.1
		C56.4,40.1,56.4,40.2,56.4,40.4z M56.4,39.1c0,0.1,0,0.2,0,0.3c0-0.1,0-0.3,0-0.4L56.4,39.1z M56.1,45.6
		C56.1,45.6,56.1,45.6,56.1,45.6C56.1,45.6,56.1,45.6,56.1,45.6C56.1,45.6,56.1,45.6,56.1,45.6z"/>
	<path class="st1" d="M59.8,41.8l0,0.2l0,0.2l0,0.3c0,0.2,0,0.4,0,0.6l0.1,0.3c0,0.2,0.1,0.3,0.1,0.5c0,0.1,0.1,0.3,0.1,0.4
		c0,0.1,0.1,0.3,0.1,0.4c0.1,0.1,0.2,0.3,0.2,0.3c0,0,0.1,0.1,0.1,0.1c0.1,0.3,0.2,0.5,0.3,0.5c0,0,0,0,0,0c0,0,0,0,0,0c0,0,0,0,0,0
		c0,0,0-0.1,0.1-0.1c0,0,0,0,0,0s0,0,0,0c0,0,0,0.1,0,0.1h0c0,0,0,0,0,0c0,0,0,0,0,0l0,0c0,0,0,0,0,0c0,0,0,0,0,0c0,0,0,0,0,0
		c0,0-0.1,0,0,0c0,0,0,0,0.1,0c0,0,0,0,0,0h0c0,0,0,0,0,0c0,0,0,0,0.1,0c0,0,0.1,0,0.1,0c0,0,0,0,0,0c0.1,0,0.1,0,0.1,0c0,0,0,0,0,0
		c0,0,0,0,0,0c0,0,0,0,0,0c0.1-0.1,0.2-0.2,0.2-0.4c0-0.1,0.1-0.2,0.1-0.3c0-0.1,0-0.2,0-0.4c0-0.1,0-0.3,0-0.4c0-0.1,0-0.3,0-0.4
		c0-0.2,0-0.3,0.1-0.5c0-0.2,0-0.3,0-0.5c0-0.2,0-0.4,0-0.6c0-0.2-0.1-0.4-0.1-0.6c0-0.2,0-0.4,0.1-0.6c0-0.1,0-0.2,0.1-0.3
		c0-0.1,0-0.2,0-0.3c0-0.2-0.1-0.4-0.1-0.6c0-0.2,0-0.4,0-0.6c0-0.2,0-0.4,0-0.6l0-0.3c0-0.1,0-0.2-0.1-0.3c0,0,0,0,0,0c0,0,0,0,0,0
		c0,0,0,0,0,0c0,0,0,0,0,0c0,0,0,0,0,0l0,0c0,0,0,0-0.1,0c-0.1,0-0.1,0-0.2,0c0,0-0.1,0-0.1,0c0,0,0,0,0,0l0,0c0,0-0.4,0-0.3,0
		c-0.1,0-0.2,0-0.2,0c-0.1,0-0.1,0-0.2,0c-0.1,0-0.1,0-0.1,0c0,0,0,0,0,0c0,0,0,0,0,0c-0.1,0-0.1,0.1-0.1,0.1
		c-0.1,0.1-0.1,0.2-0.1,0.3c-0.1,0.2-0.1,0.4-0.2,0.5c0,0.2-0.1,0.4-0.1,0.5c0,0.2,0,0.4,0,0.5c0,0.2,0,0.3,0,0.5l-0.1,0.5
		c0,0.2,0,0.3,0,0.5C59.8,41.5,59.8,41.6,59.8,41.8z M61.4,40.3c0,0.1,0,0.2,0,0.3c0,0.1,0,0.2,0,0.3c0,0,0,0.1,0,0.1
		c0-0.4,0-0.8,0-1.2C61.4,40.1,61.4,40.2,61.4,40.3z M61.4,39.1c0,0.1,0,0.2,0,0.3c0-0.1,0-0.3,0-0.4L61.4,39.1z M61.1,45.6
		C61.1,45.6,61.1,45.6,61.1,45.6C61.1,45.6,61.1,45.6,61.1,45.6C61.1,45.6,61.1,45.6,61.1,45.6z"/>
	<path class="st1" d="M65.5,42.2l0,0.2l0,0.2l0,0.3c0,0.2,0,0.4,0,0.6l0.1,0.4c0,0.2,0.1,0.3,0.1,0.5c0,0.1,0.1,0.3,0.1,0.4
		c0,0.1,0.1,0.3,0.1,0.4c0.1,0.1,0.2,0.2,0.2,0.3c0,0,0.1,0.1,0.1,0.1c0.1,0.3,0.2,0.5,0.3,0.5c0,0,0,0,0,0c0,0,0,0,0,0c0,0,0,0,0,0
		c0,0,0-0.1,0.1-0.1c0,0,0,0,0,0c0,0,0,0,0,0c0,0,0,0.1,0,0.1v0c0,0,0,0,0,0c0,0,0,0,0,0l0,0c0,0,0,0,0,0c0,0,0,0,0,0c0,0,0,0,0,0
		c0,0,0,0,0,0c0,0,0,0,0.1,0c0,0,0,0,0,0l0,0c0,0,0,0,0,0c0,0,0,0,0.1,0c0,0,0.1,0,0.1,0c0,0,0,0,0,0c0.1,0,0.1,0,0.1,0c0,0,0,0,0,0
		c0,0,0,0,0,0c0,0,0,0,0,0c0.1-0.1,0.2-0.2,0.2-0.4c0-0.1,0.1-0.2,0.1-0.3c0-0.1,0-0.2,0-0.4c0-0.1,0-0.3,0-0.4c0-0.1,0-0.3,0-0.4
		c0-0.1,0-0.3,0.1-0.5c0-0.2,0-0.3,0-0.5c0-0.2,0-0.4,0-0.6c0-0.2-0.1-0.4-0.1-0.6c0-0.2,0-0.4,0.1-0.6c0-0.1,0-0.2,0.1-0.3
		c0-0.1,0-0.2,0-0.3c0-0.2-0.1-0.4-0.1-0.6c0-0.2,0-0.4,0-0.6c0-0.2,0-0.4,0-0.6l0-0.3c0-0.1,0-0.2-0.1-0.3c0,0,0,0,0,0c0,0,0,0,0,0
		c0,0,0,0,0,0c0,0,0,0,0,0c0,0,0,0,0,0l0,0c0,0,0,0-0.1,0c-0.1,0-0.1,0-0.2,0c0,0-0.1,0-0.1,0c0,0,0,0,0,0l0,0c-0.1,0-0.4,0-0.3,0
		c-0.1,0-0.2,0-0.2,0c-0.1,0-0.1,0-0.2,0c-0.1,0-0.1,0-0.1,0c0,0,0,0,0,0c0,0,0,0,0,0c-0.1,0-0.1,0.1-0.1,0.1
		c-0.1,0.1-0.1,0.2-0.1,0.3c-0.1,0.2-0.1,0.4-0.2,0.5c0,0.2-0.1,0.4-0.1,0.5c0,0.2,0,0.4,0,0.5c0,0.2,0,0.3,0,0.5l-0.1,0.5
		c0,0.2,0,0.3,0,0.5C65.4,42,65.5,42.1,65.5,42.2z M67.1,40.8c0,0.1,0,0.2,0,0.3c0,0.1,0,0.2-0.1,0.3c0,0,0,0.1,0,0.1
		c0-0.4,0-0.8,0-1.1C67.1,40.5,67.1,40.7,67.1,40.8z M67,39.6c0,0.1,0,0.2,0,0.3c0-0.1,0-0.3,0-0.4L67,39.6z M66.8,46.1
		C66.8,46.1,66.8,46.1,66.8,46.1C66.8,46.1,66.8,46.1,66.8,46.1C66.8,46.1,66.8,46.1,66.8,46.1z"/>
	<path class="st1" d="M49.7,41.9l0,0.2l0,0.2l0,0.3c0,0.2,0,0.4,0,0.6l0.1,0.3c0,0.2,0.1,0.3,0.1,0.5c0,0.1,0.1,0.3,0.1,0.4
		c0,0.1,0.1,0.3,0.1,0.4c0.1,0.1,0.2,0.2,0.2,0.3c0,0,0.1,0.1,0.1,0.1c0.1,0.3,0.2,0.5,0.3,0.5c0,0,0,0,0,0c0,0,0,0,0,0c0,0,0,0,0,0
		c0,0,0-0.1,0.1-0.1c0,0,0,0,0,0v0c0,0,0,0.1,0,0.1l0,0c0,0,0,0,0,0c0,0,0,0,0,0l0,0c0,0,0,0,0,0c0,0,0,0,0,0c0,0,0,0,0,0
		c0,0,0,0,0,0c0,0,0,0,0.1,0c0,0,0,0,0,0h0c0,0,0,0,0,0c0,0,0,0,0.1,0c0,0,0.1,0,0.1,0c0,0,0,0,0,0c0.1,0,0.1,0,0.1,0c0,0,0,0,0,0
		c0,0,0,0,0,0c0,0,0,0,0,0c0.1-0.1,0.2-0.2,0.2-0.4c0-0.1,0.1-0.2,0.1-0.3c0-0.1,0-0.2,0-0.4c0-0.1,0-0.3,0-0.4c0-0.1,0-0.3,0-0.4
		c0-0.2,0-0.3,0-0.5c0-0.2,0-0.3,0-0.5c0-0.2,0-0.4,0-0.6c0-0.2-0.1-0.4-0.1-0.6c0-0.2,0-0.4,0.1-0.6c0-0.1,0-0.2,0.1-0.3
		c0-0.1,0-0.2,0-0.3c0-0.2-0.1-0.4-0.1-0.6c0-0.2,0-0.4,0-0.6c0-0.2,0-0.4,0-0.6l0-0.3c0-0.1,0-0.2-0.1-0.3c0,0,0,0,0,0c0,0,0,0,0,0
		c0,0,0,0,0,0c0,0,0,0,0,0c0,0,0,0,0,0l0,0c0,0,0,0-0.1,0c-0.1,0-0.1,0-0.2,0c-0.1,0-0.1,0-0.1,0c0,0,0,0,0,0l0,0c0,0-0.4,0-0.3,0
		c-0.1,0-0.2,0-0.2,0c-0.1,0-0.1,0-0.2,0c-0.1,0-0.1,0-0.1,0c0,0,0,0,0,0c0,0,0,0,0,0c0,0-0.1,0.1-0.1,0.1c-0.1,0.1-0.1,0.2-0.1,0.3
		c-0.1,0.2-0.1,0.4-0.2,0.5c0,0.2-0.1,0.4-0.1,0.5c0,0.2,0,0.4,0,0.5c0,0.2,0,0.3,0,0.5L49.6,41c0,0.2,0,0.3,0,0.5
		C49.6,41.7,49.7,41.8,49.7,41.9z M51.3,40.5c0,0.1,0,0.2,0,0.3c0,0.1,0,0.2,0,0.3c0,0,0,0.1,0,0.1c0-0.4,0-0.8,0-1.1
		C51.2,40.2,51.3,40.3,51.3,40.5z M51.2,39.2c0,0.1,0,0.2,0,0.3c0-0.1,0-0.3,0-0.4L51.2,39.2z"/>
	<linearGradient id="SVGID_3_" gradientUnits="userSpaceOnUse" x1="42.8732" y1="61.495" x2="74.7488" y2="61.495">
		<stop  offset="0" style="stop-color:#EF537A"/>
		<stop  offset="1" style="stop-color:#4A3D97"/>
	</linearGradient>
	<path class="st9" d="M51.9,74.9c1,0.5,2,0.8,3.1,1c1,0.2,2.1,0.3,3.2,0.3c1.4,0,2.8-0.2,4.2-0.5c0.7-0.1,1.5-0.3,2.2-0.6
		c0.4-0.2,0.9-0.4,1.3-0.6c1.5-0.7,2.9-1.5,4.2-2.6c0.8-0.7,1.6-1.5,2.2-2.3c0.3-0.4,0.6-0.9,0.9-1.4c0.1-0.3,0.3-0.6,0.4-0.9
		c0.1-0.2,0.2-0.3,0.2-0.5c0.6-1.3,1-2.6,1.1-4c0.1-1.4,0-2.7-0.3-4c-0.1-0.6-0.3-1.3-0.5-1.9c-0.1-0.2-0.1-0.3-0.2-0.5
		c-0.1-0.1-0.1-0.3-0.2-0.4c-0.1-0.3-0.2-0.6-0.4-0.9c-0.9-2-2.2-3.8-3.9-5.2c-1.6-1.4-3.6-2.5-5.7-3c-2.1-0.5-4.3-0.6-6.4-0.2
		c-0.1,0-0.2,0-0.3,0c-0.7,0.1-1.4,0.2-2,0.4c-0.6,0.1-1.2,0.3-1.8,0.5c-0.6,0.2-1.2,0.4-1.8,0.7l0.1,0c-1.3,0.5-2.5,1.3-3.4,2.4
		c-0.3,0.3-0.7,0.7-0.9,1.1c-0.3,0.3-0.6,0.6-0.9,0.9c-0.7,0.8-1.4,1.7-1.9,2.7c-0.5,1-0.9,2-1.1,3.1c-0.4,2.2-0.2,4.5,0.5,6.5
		c0.7,2.1,1.8,4,3.2,5.7C48.2,72.6,49.9,74,51.9,74.9z"/>
	<linearGradient id="SVGID_4_" gradientUnits="userSpaceOnUse" x1="44.249" y1="62.6024" x2="45.2148" y2="62.6024">
		<stop  offset="0" style="stop-color:#EF537A"/>
		<stop  offset="1" style="stop-color:#4A3D97"/>
	</linearGradient>
	<path class="st10" d="M44.6,63.9c-0.4-1.5-0.4-3-0.2-4.5c0,0.5,0,1.1,0,1.6c0,0.4,0,0.7,0.1,1.1c0,0.4,0.1,0.7,0.1,1.1
		c0.1,0.9,0.3,1.8,0.6,2.7C45,65.2,44.7,64.5,44.6,63.9z"/>
	<path class="st1" d="M46.1,64.4c-0.2-0.7-0.3-1.4-0.4-2.1c-0.1-0.7-0.1-1.4-0.1-2.2c0-1.4,0.2-2.9,0.7-4.2c0.3-0.8,0.6-1.5,1-2.2
		c0.2-0.2,0.3-0.3,0.5-0.5c1.5-1.4,3.2-2.5,5-3.4c1.8-0.9,3.7-1.5,5.7-1.7c2-0.2,4,0,5.8,0.6c1.9,0.6,3.6,1.7,5,3.1
		c0.7,0.7,1.3,1.4,1.8,2.3c0.9,1.4,1.5,3,1.8,4.6c0.3,1.8,0.4,3.6,0.1,5.4c-0.1,0.9-0.4,1.8-0.7,2.6c-0.2,0.4-0.3,0.8-0.5,1.2
		c-0.2,0.4-0.5,0.7-0.7,1.1c-1.1,1.4-2.5,2.5-4.1,3.4c-1.6,0.9-3.3,1.6-5,2c-0.8,0.2-1.7,0.3-2.5,0.4c-0.4,0-0.8-0.1-1.2-0.1
		c-0.7-0.1-1.4-0.2-2-0.4c-0.2,0-0.3-0.1-0.5-0.1l-0.5-0.1c-0.3-0.1-0.7-0.2-1-0.3c-1.3-0.5-2.6-1.2-3.6-2c-1.1-0.9-2-2-2.8-3.2
		C47,67.1,46.4,65.8,46.1,64.4z"/>
	<path d="M68.8,54.1L68.8,54.1C68.8,54.1,68.9,54.1,68.8,54.1L68.8,54.1z"/>
	<path d="M67,53.1C67,53.1,67,53.1,67,53.1C66.8,52.9,66.6,52.9,67,53.1z"/>
	<path class="st4" d="M52.1,68.1c1.1,1,2.3,1.9,3.7,2.4c1.4,0.5,2.9,0.7,4.4,0.6c1.5-0.1,3-0.5,4.3-1.1c1.4-0.6,2.6-1.5,3.7-2.7
		c1.1-1.2,1.9-2.6,2.4-4.2c0.5-1.6,0.5-3.3,0.2-4.9c-0.1-0.4-0.2-0.7-0.3-1.1c-0.1-0.6-0.3-1.1-0.6-1.6c-0.3-0.5-0.6-0.9-1-1.3
		l-0.1-0.1c-0.4-0.3-0.7-0.5-1.1-0.7c-0.2-0.1-0.5-0.2-0.7-0.3c0,0,0,0-0.1,0c-0.3-0.2-0.2-0.1,0.1,0c0.1,0,0.1-0.1,0-0.2
		c-1.1-0.9-2.2-1.6-3.5-2.1c-1.3-0.5-2.7-0.6-4-0.6c-1.3,0.1-2.7,0.4-3.9,1c-1.2,0.5-2.4,1.3-3.4,2.2c-1,0.9-1.8,2-2.5,3.2
		c-0.6,1.2-1,2.6-1,4c0,1.4,0.3,2.8,1,4C50.3,65.9,51.1,67.1,52.1,68.1z"/>
	<path class="st1" d="M65.7,57.8c0,0,1.9,1.2,1.9,3.3c0,1.6-0.9,2.6-2.3,3.2c-1.8,0.8-4.1,0-4.6-2.3C60,58.3,63.1,56.4,65.7,57.8z"
		/>
	<path class="st1" d="M60.3,64.5c0,0,0.9,0.5,0.9,1.5c0,0.7-0.4,1.2-1,1.4c-0.8,0.4-1.8,0-2.1-1C57.7,64.7,59.1,63.9,60.3,64.5z"/>
	<path class="st1" d="M97.3,41.8l0,0.2l0,0.2l0,0.3c0,0.2,0,0.4,0,0.6l0.1,0.3c0,0.2,0.1,0.3,0.1,0.5c0,0.1,0.1,0.3,0.1,0.4
		c0,0.1,0.1,0.3,0.1,0.4c0.1,0.1,0.2,0.2,0.2,0.3c0,0,0.1,0.1,0.1,0.1c0.1,0.3,0.2,0.5,0.3,0.5c0,0,0,0,0,0c0,0,0,0,0,0c0,0,0,0,0,0
		c0,0,0-0.1,0.1-0.1c0,0,0,0,0,0v0c0,0,0,0.1,0,0.1v0c0,0,0,0,0,0c0,0,0,0,0,0l0,0c0,0,0,0,0,0c0,0,0,0,0,0c0,0,0,0,0,0c0,0,0,0,0,0
		c0,0,0,0,0.1,0c0,0,0,0,0,0h0c0,0,0,0,0,0c0,0,0,0,0.1,0c0,0,0.1,0,0.1,0c0,0,0,0,0,0c0.1,0,0.1,0,0.1,0c0,0,0,0,0,0c0,0,0,0,0,0
		c0,0,0,0,0,0c0.1-0.1,0.2-0.2,0.2-0.4c0-0.1,0.1-0.2,0.1-0.3c0-0.1,0-0.2,0-0.4c0-0.1,0-0.3,0-0.4c0-0.1,0-0.3,0-0.4
		c0-0.1,0-0.3,0.1-0.5c0-0.2,0-0.3,0-0.5c0-0.2,0-0.4,0-0.6c0-0.2-0.1-0.4-0.1-0.6c0-0.2,0-0.4,0.1-0.6c0-0.1,0-0.2,0.1-0.3
		c0-0.1,0-0.2,0-0.3c0-0.2-0.1-0.4-0.1-0.6c0-0.2,0-0.4,0-0.6c0-0.2,0-0.4,0-0.6l0-0.3c0-0.1,0-0.2-0.1-0.3c0,0,0,0,0,0c0,0,0,0,0,0
		c0,0,0,0,0,0c0,0,0,0,0,0c0,0,0,0,0,0l0,0c0,0,0,0-0.1,0c-0.1,0-0.1,0-0.2,0c0,0-0.1,0-0.1,0c0,0,0,0,0,0l0,0c-0.1,0-0.4,0-0.3,0
		c-0.1,0-0.2,0-0.2,0c-0.1,0-0.1,0-0.2,0c-0.1,0-0.1,0-0.1,0c0,0,0,0,0,0c0,0,0,0,0,0c-0.1,0-0.1,0.1-0.1,0.1
		c-0.1,0.1-0.1,0.2-0.1,0.3c-0.1,0.2-0.1,0.4-0.2,0.5c0,0.2-0.1,0.4-0.1,0.5c0,0.2,0,0.4,0,0.5c0,0.2,0,0.3,0,0.5l-0.1,0.5
		c0,0.2,0,0.3,0,0.5C97.3,41.5,97.3,41.7,97.3,41.8z M99,40.4c0,0.1,0,0.2,0,0.3c0,0.1,0,0.2-0.1,0.3c0,0,0,0.1,0,0.1
		c0-0.4,0-0.8,0-1.1C98.9,40.1,98.9,40.2,99,40.4z M98.9,39.1c0,0.1,0,0.2,0,0.3c0-0.1,0-0.3,0-0.4L98.9,39.1z M98.6,45.6
		C98.6,45.6,98.6,45.6,98.6,45.6C98.6,45.6,98.6,45.6,98.6,45.6C98.6,45.6,98.6,45.6,98.6,45.6z"/>
	<path class="st1" d="M102.3,41.8l0,0.2l0,0.2l0,0.3c0,0.2,0,0.4,0,0.6l0.1,0.3c0,0.2,0.1,0.3,0.1,0.5c0,0.1,0.1,0.3,0.1,0.4
		c0,0.1,0.1,0.3,0.1,0.4c0.1,0.1,0.2,0.3,0.2,0.3c0,0,0.1,0.1,0.1,0.1c0.1,0.3,0.2,0.5,0.3,0.5c0,0,0,0,0,0c0,0,0,0,0,0c0,0,0,0,0,0
		c0,0,0-0.1,0.1-0.1c0,0,0,0,0,0c0,0,0,0,0,0c0,0,0,0.1,0,0.1h0c0,0,0,0,0,0c0,0,0,0,0,0l0,0c0,0,0,0,0,0c0,0,0,0,0,0c0,0,0,0,0,0
		c0,0-0.1,0,0,0c0,0,0,0,0.1,0c0,0,0,0,0,0h0c0,0,0,0,0,0c0,0,0,0,0.1,0c0,0,0.1,0,0.1,0c0,0,0,0,0,0c0.1,0,0.1,0,0.1,0c0,0,0,0,0,0
		c0,0,0,0,0,0c0,0,0,0,0,0c0.1-0.1,0.2-0.2,0.2-0.4c0-0.1,0.1-0.2,0.1-0.3c0-0.1,0-0.2,0-0.4c0-0.1,0-0.3,0-0.4c0-0.1,0-0.3,0-0.4
		c0-0.2,0-0.3,0.1-0.5c0-0.2,0-0.3,0-0.5c0-0.2,0-0.4,0-0.6c0-0.2-0.1-0.4-0.1-0.6c0-0.2,0-0.4,0.1-0.6c0-0.1,0-0.2,0.1-0.3
		c0-0.1,0-0.2,0-0.3c0-0.2-0.1-0.4-0.1-0.6c0-0.2,0-0.4,0-0.6c0-0.2,0-0.4,0-0.6l0-0.3c0-0.1,0-0.2-0.1-0.3c0,0,0,0,0,0c0,0,0,0,0,0
		c0,0,0,0,0,0c0,0,0,0,0,0c0,0,0,0,0,0l0,0c0,0,0,0-0.1,0c-0.1,0-0.1,0-0.2,0c-0.1,0-0.1,0-0.1,0c0,0,0,0,0,0l0,0c0,0-0.4,0-0.3,0
		c-0.1,0-0.2,0-0.2,0c-0.1,0-0.1,0-0.2,0c-0.1,0-0.1,0-0.1,0c0,0,0,0,0,0c0,0,0,0,0,0c0,0-0.1,0.1-0.1,0.1c-0.1,0.1-0.1,0.2-0.1,0.3
		c-0.1,0.2-0.1,0.4-0.2,0.5c0,0.2-0.1,0.4-0.1,0.5c0,0.2,0,0.4,0,0.5c0,0.2,0,0.3,0,0.5l-0.1,0.5c0,0.2,0,0.3,0,0.5
		C102.3,41.5,102.3,41.6,102.3,41.8z M103.9,40.3c0,0.1,0,0.2,0,0.3c0,0.1,0,0.2-0.1,0.3c0,0,0,0.1,0,0.1c0-0.4,0-0.8,0-1.2
		C103.9,40.1,103.9,40.2,103.9,40.3z M103.9,39.1c0,0.1,0,0.2,0,0.3c0-0.1,0-0.3,0-0.4L103.9,39.1z M103.6,45.6
		C103.6,45.6,103.6,45.6,103.6,45.6C103.6,45.6,103.6,45.6,103.6,45.6C103.6,45.6,103.6,45.6,103.6,45.6z"/>
	<path class="st1" d="M108,42.2l0,0.2l0,0.2l0,0.3c0,0.2,0,0.4,0,0.6l0.1,0.4c0,0.2,0.1,0.3,0.1,0.5c0,0.1,0.1,0.3,0.1,0.4
		c0,0.1,0.1,0.3,0.1,0.4c0.1,0.1,0.2,0.2,0.2,0.3c0,0,0.1,0.1,0.1,0.1c0.1,0.3,0.2,0.5,0.3,0.5c0,0,0,0,0,0c0,0,0,0,0,0c0,0,0,0,0,0
		c0,0,0-0.1,0.1-0.1c0,0,0,0,0,0c0,0,0,0,0,0c0,0,0,0.1,0,0.1l0,0c0,0,0,0,0,0c0,0,0,0,0,0l0,0c0,0,0,0,0,0c0,0,0,0,0,0c0,0,0,0,0,0
		c0,0-0.1,0,0,0c0,0,0,0,0.1,0c0,0,0,0,0,0l0,0c0,0,0,0,0,0c0,0,0,0,0.1,0c0,0,0.1,0,0.1,0c0,0,0,0,0,0c0.1,0,0.1,0,0.1,0
		c0,0,0,0,0,0c0,0,0,0,0,0c0,0,0,0,0,0c0.1-0.1,0.2-0.2,0.2-0.4c0-0.1,0.1-0.2,0.1-0.3c0-0.1,0-0.2,0-0.4c0-0.1,0-0.3,0-0.4
		c0-0.1,0-0.3,0-0.4c0-0.1,0-0.3,0.1-0.5c0-0.2,0-0.3,0-0.5c0-0.2,0-0.4,0-0.6c0-0.2-0.1-0.4-0.1-0.6c0-0.2,0-0.4,0.1-0.6
		c0-0.1,0-0.2,0.1-0.3c0-0.1,0-0.2,0-0.3c0-0.2-0.1-0.4-0.1-0.6c0-0.2,0-0.4,0-0.6c0-0.2,0-0.4,0-0.6l0-0.3c0-0.1,0-0.2,0-0.3
		c0,0,0,0,0,0c0,0,0,0,0,0c0,0,0,0,0,0c0,0,0,0,0,0c0,0,0,0,0,0l0,0c0,0,0,0-0.1,0c-0.1,0-0.1,0-0.2,0c0,0-0.1,0-0.1,0c0,0,0,0,0,0
		l0,0c-0.1,0-0.4,0-0.3,0c-0.1,0-0.2,0-0.2,0c-0.1,0-0.1,0-0.2,0c-0.1,0-0.1,0-0.1,0c0,0,0,0,0,0c0,0,0,0,0,0c0,0-0.1,0.1-0.1,0.1
		c-0.1,0.1-0.1,0.2-0.1,0.3c-0.1,0.2-0.1,0.4-0.2,0.5c0,0.2-0.1,0.4-0.1,0.5c0,0.2,0,0.4,0,0.5c0,0.2,0,0.3,0,0.5l-0.1,0.5
		c0,0.2,0,0.3,0,0.5C108,42,108,42.1,108,42.2z M109.6,40.8c0,0.1,0,0.2,0,0.3c0,0.1,0,0.2-0.1,0.3c0,0,0,0.1,0,0.1
		c0-0.4,0-0.8,0-1.1C109.6,40.5,109.6,40.7,109.6,40.8z M109.5,39.6c0,0.1,0,0.2,0,0.3c0-0.1,0-0.3,0-0.4L109.5,39.6z M109.3,46.1
		C109.3,46.1,109.3,46.1,109.3,46.1C109.3,46.1,109.3,46.1,109.3,46.1C109.3,46.1,109.3,46.1,109.3,46.1z"/>
	<path class="st1" d="M92.2,41.9l0,0.2l0,0.2l0,0.3c0,0.2,0,0.4,0,0.6l0.1,0.3c0,0.2,0.1,0.3,0.1,0.5c0,0.1,0.1,0.3,0.1,0.4
		c0,0.1,0.1,0.3,0.1,0.4c0.1,0.1,0.2,0.2,0.2,0.3c0,0,0.1,0.1,0.1,0.1c0.1,0.3,0.2,0.5,0.3,0.5c0,0,0,0,0,0c0,0,0,0,0,0c0,0,0,0,0,0
		c0,0,0-0.1,0.1-0.1c0,0,0,0,0,0c0,0,0,0,0,0c0,0,0,0.1,0,0.1l0,0c0,0,0,0,0,0c0,0,0,0,0,0l0,0c0,0,0,0,0,0c0,0,0,0,0,0c0,0,0,0,0,0
		c0,0-0.1,0,0,0c0,0,0,0,0.1,0c0,0,0,0,0,0h0c0,0,0,0,0,0c0,0,0,0,0.1,0c0,0,0.1,0,0.1,0c0,0,0,0,0,0c0.1,0,0.1,0,0.1,0c0,0,0,0,0,0
		c0,0,0,0,0,0c0,0,0,0,0,0c0.1-0.1,0.2-0.2,0.2-0.4c0-0.1,0.1-0.2,0.1-0.3c0-0.1,0-0.2,0-0.4c0-0.1,0-0.3,0-0.4c0-0.1,0-0.3,0-0.4
		c0-0.2,0-0.3,0-0.5c0-0.2,0-0.3,0-0.5c0-0.2,0-0.4,0-0.6c0-0.2-0.1-0.4-0.1-0.6c0-0.2,0-0.4,0.1-0.6c0-0.1,0-0.2,0.1-0.3
		c0-0.1,0-0.2,0-0.3c0-0.2-0.1-0.4-0.1-0.6c0-0.2,0-0.4,0-0.6c0-0.2,0-0.4,0-0.6l0-0.3c0-0.1,0-0.2-0.1-0.3c0,0,0,0,0,0c0,0,0,0,0,0
		c0,0,0,0,0,0c0,0,0,0,0,0c0,0,0,0,0,0l0,0c0,0,0,0-0.1,0c-0.1,0-0.1,0-0.2,0c0,0-0.1,0-0.1,0c0,0,0,0,0,0l0,0c-0.1,0-0.4,0-0.3,0
		c-0.1,0-0.2,0-0.2,0c-0.1,0-0.1,0-0.2,0c-0.1,0-0.1,0-0.1,0c0,0,0,0,0,0c0,0,0,0,0,0c0,0-0.1,0.1-0.1,0.1c-0.1,0.1-0.1,0.2-0.1,0.3
		c-0.1,0.2-0.1,0.4-0.2,0.5c0,0.2-0.1,0.4-0.1,0.5c0,0.2,0,0.4,0,0.5c0,0.2,0,0.3,0,0.5L92.2,41c0,0.2,0,0.3,0,0.5
		C92.2,41.7,92.2,41.8,92.2,41.9z M93.8,40.5c0,0.1,0,0.2,0,0.3c0,0.1,0,0.2,0,0.3c0,0,0,0.1,0,0.1c0-0.4,0-0.8,0-1.1
		C93.7,40.2,93.8,40.3,93.8,40.5z M93.7,39.2c0,0.1,0,0.2,0,0.3c0-0.1,0-0.3,0-0.4L93.7,39.2z"/>
	<linearGradient id="SVGID_5_" gradientUnits="userSpaceOnUse" x1="85.3871" y1="61.495" x2="117.2646" y2="61.495">
		<stop  offset="0" style="stop-color:#EF537A"/>
		<stop  offset="1" style="stop-color:#4A3D97"/>
	</linearGradient>
	<path class="st11" d="M114.7,69.7c0.3-0.4,0.6-0.9,0.9-1.4c0.1-0.3,0.3-0.6,0.4-0.9c0.1-0.2,0.2-0.3,0.2-0.5c0.6-1.3,0.9-2.6,1.1-4
		c0.1-1.4,0-2.7-0.3-4c-0.1-0.6-0.3-1.3-0.5-1.9c-0.1-0.2-0.1-0.3-0.2-0.5c-0.1-0.1-0.1-0.3-0.2-0.4c-0.1-0.3-0.3-0.6-0.4-0.9
		c-0.9-2-2.2-3.8-3.9-5.2c-1.6-1.4-3.6-2.5-5.7-3c-2.1-0.5-4.3-0.6-6.4-0.2c-0.1,0-0.2,0-0.3,0c-0.7,0.1-1.4,0.2-2,0.4
		c-0.6,0.1-1.2,0.3-1.8,0.5c-0.6,0.2-1.2,0.4-1.8,0.7l0.1,0c-1.3,0.5-2.5,1.3-3.4,2.4c-0.3,0.3-0.7,0.7-0.9,1.1
		c-0.3,0.3-0.6,0.6-0.9,0.9c-0.7,0.8-1.4,1.7-1.9,2.7c-0.5,1-0.9,2-1.1,3.1c-0.4,2.2-0.2,4.5,0.5,6.5c0.7,2.1,1.8,4,3.2,5.7
		c1.4,1.6,3.2,3,5.1,3.9c1,0.5,2,0.8,3.1,1c1,0.2,2.1,0.3,3.2,0.3c1.4,0,2.8-0.2,4.2-0.5c0.7-0.1,1.5-0.3,2.2-0.6
		c0.4-0.2,0.9-0.4,1.3-0.6c1.5-0.7,2.9-1.5,4.2-2.6C113.3,71.3,114,70.6,114.7,69.7z"/>
	<linearGradient id="SVGID_6_" gradientUnits="userSpaceOnUse" x1="86.7631" y1="62.6024" x2="87.7299" y2="62.6024">
		<stop  offset="0" style="stop-color:#EF537A"/>
		<stop  offset="1" style="stop-color:#4A3D97"/>
	</linearGradient>
	<path class="st13" d="M87.1,63.9c-0.4-1.5-0.4-3-0.2-4.5c0,0.5,0,1.1,0,1.6c0,0.4,0,0.7,0.1,1.1c0,0.4,0.1,0.7,0.1,1.1
		c0.1,0.9,0.3,1.8,0.6,2.7C87.5,65.2,87.3,64.5,87.1,63.9z"/>
	<path class="st1" d="M109.4,72.3c-1.6,0.9-3.3,1.6-5,2c-0.8,0.2-1.7,0.3-2.5,0.4c-0.4,0-0.8-0.1-1.2-0.1c-0.7-0.1-1.4-0.2-2-0.4
		c-0.2,0-0.3-0.1-0.5-0.1l-0.5-0.1c-0.3-0.1-0.7-0.2-1-0.3c-1.3-0.5-2.6-1.2-3.6-2c-1.1-0.9-2-2-2.8-3.2c-0.7-1.2-1.3-2.6-1.6-4
		c-0.2-0.7-0.3-1.4-0.4-2.1c-0.1-0.7-0.1-1.4-0.1-2.2c0-1.4,0.2-2.9,0.7-4.2c0.3-0.8,0.6-1.5,1-2.2c0.2-0.2,0.3-0.3,0.5-0.5
		c1.5-1.4,3.2-2.5,5-3.4c1.8-0.9,3.7-1.5,5.7-1.7c2-0.2,4,0,5.8,0.6c1.9,0.6,3.6,1.7,5,3.1c0.7,0.7,1.3,1.4,1.8,2.3
		c0.9,1.4,1.5,3,1.8,4.6c0.3,1.8,0.4,3.6,0.1,5.4c-0.1,0.9-0.4,1.8-0.7,2.6c-0.2,0.4-0.3,0.8-0.5,1.2c-0.2,0.4-0.5,0.7-0.7,1.1
		C112.4,70.3,111,71.4,109.4,72.3z"/>
	<path d="M111.3,54.1L111.3,54.1C111.4,54.1,111.4,54.1,111.3,54.1L111.3,54.1z"/>
	<path class="st4" d="M113,57.1c-0.1-0.6-0.3-1.1-0.6-1.6c-0.3-0.5-0.6-0.9-1-1.3l-0.1-0.1c-0.4-0.3-0.7-0.5-1.1-0.7
		c-0.2-0.1-0.5-0.2-0.7-0.3c0,0,0,0-0.1,0c-0.3-0.2-0.2-0.1,0.1,0c0.1,0,0.1-0.1,0-0.2c-1-0.9-2.2-1.6-3.5-2.1
		c-1.3-0.5-2.7-0.6-4-0.6c-1.3,0.1-2.7,0.4-3.9,1c-1.2,0.5-2.4,1.3-3.4,2.2c-1,0.9-1.8,2-2.5,3.2c-0.6,1.2-1,2.6-1,4
		c0,1.4,0.3,2.8,1,4c0.6,1.2,1.4,2.4,2.4,3.3c1.1,1,2.3,1.9,3.7,2.4c1.4,0.5,2.9,0.7,4.4,0.6c1.5-0.1,3-0.5,4.3-1.1
		c1.4-0.6,2.6-1.5,3.7-2.7c1.1-1.2,1.9-2.6,2.4-4.2c0.5-1.6,0.5-3.3,0.2-4.9C113.2,57.8,113.1,57.5,113,57.1z"/>
	<path class="st1" d="M102.7,67.5c-0.8,0.4-1.8,0-2.1-1c-0.4-1.7,1-2.5,2.2-1.9c0,0,0.9,0.5,0.9,1.5
		C103.7,66.7,103.3,67.2,102.7,67.5z"/>
	<path class="st1" d="M107.9,64.3c-1.8,0.8-4.1,0-4.6-2.3c-0.8-3.7,2.3-5.6,4.9-4.3c0,0,1.9,1.2,1.9,3.3
		C110.2,62.7,109.2,63.7,107.9,64.3z"/>
	<path d="M109.5,53.1C109.5,53.1,109.5,53.1,109.5,53.1C109.3,52.9,109.1,52.9,109.5,53.1z"/>
	<g>
		<g>
			<path class="st0" d="M119.9,97C119.9,97,119.9,97,119.9,97c-0.2-0.1-0.3-0.1-0.3-0.2c0,0-0.1,0-0.1-0.1c0,0,0,0,0.1-0.1
				c0.1-0.1,0.2-0.1,0.3-0.2C119.8,96.6,119.8,96.8,119.9,97z"/>
			<path class="st0" d="M119.4,96.7C119.4,96.7,119.4,96.7,119.4,96.7C119.4,96.7,119.4,96.7,119.4,96.7z"/>
			<path class="st0" d="M56.6,96.3c0.4,1.7,3.1,0.5,1.6-1.2C57.6,94.4,56.4,95.4,56.6,96.3z"/>
			<path class="st0" d="M63,95.8c0.4,1.7,3.1,0.5,1.6-1.2C64,93.9,62.8,95,63,95.8z"/>
			<path class="st0" d="M59.5,103c0.4,1.7,3.1,0.5,1.6-1.2C60.4,101.1,59.2,102.2,59.5,103z"/>
			<path class="st0" d="M66.4,100.6c0.4,1.7,3.1,0.5,1.6-1.2C67.3,98.6,66.1,99.7,66.4,100.6z"/>
			<path class="st0" d="M52.2,101.2c0.4,1.7,3.1,0.5,1.6-1.2C53.1,99.3,51.9,100.4,52.2,101.2z"/>
			<path class="st0" d="M101.4,94c0.2-0.8-1-1.9-1.6-1.2C98.3,94.4,100.9,95.7,101.4,94z"/>
			<path class="st0" d="M95,93.5c0.2-0.8-1-1.9-1.6-1.2C91.9,93.9,94.6,95.2,95,93.5z"/>
			<path class="st0" d="M98.5,100.7c0.2-0.8-1-1.9-1.6-1.2C95.5,101.2,98.1,102.4,98.5,100.7z"/>
			<path class="st0" d="M91.6,98.2c0.2-0.8-1-1.9-1.6-1.2C88.6,98.7,91.2,100,91.6,98.2z"/>
			<path class="st0" d="M105.8,98.9c0.2-0.8-1-1.9-1.6-1.2C102.8,99.3,105.4,100.6,105.8,98.9z"/>
		</g>
	</g>
	<linearGradient id="SVGID_7_" gradientUnits="userSpaceOnUse" x1="46.8762" y1="92.1925" x2="112.1473" y2="92.1925">
		<stop  offset="0" style="stop-color:#ED2F66"/>
		<stop  offset="1" style="stop-color:#F8A131"/>
	</linearGradient>
	<path class="st15" d="M111.8,97.7c-0.8,1.7-1.7,3.4-2.8,5c-0.5,0.8-1.1,1.6-1.7,2.3c-0.3,0.4-0.6,0.7-1,1c-0.2,0.2-0.3,0.3-0.5,0.4
		c-0.1,0.1-0.2,0.1-0.3,0.2c-0.1,0.1-0.2,0.1-0.3,0.2c-1.5,1.1-3.3,1.8-5.1,2.2c-1.8,0.4-3.6,0.5-5.2,0.2c-0.6-0.1-1.1-0.2-1.7-0.4
		c-0.5-0.2-1.1-0.4-1.6-0.6c-1.1-0.5-2.1-1.1-3.1-1.8c-1-0.7-1.9-1.6-2.7-2.5c-0.8-1-1.6-2-2.3-3.2c-1.3-2.3-2.3-4.9-3-7.6
		c-0.7-2.5-1.1-5.1-1.4-7.7c0,0,0,0,0,0c1-2,3.6-7.6,3.4-10.6c-0.3-5.1-3.7-2.3-3.7,4c-0.7-7.1-4-8.5-4.5-3.7
		c-0.3,3.1,2.4,7.3,3.9,10c-0.2,2.1-0.5,4.3-0.8,6.4c-0.4,2.5-1,4.9-1.8,7.2c-0.9,2.5-2.3,4.7-3.9,6.5c-0.8,0.9-1.8,1.7-2.7,2.4
		c-0.5,0.3-1,0.7-1.5,1c-0.3,0.1-0.5,0.3-0.8,0.4c-0.1,0.1-0.3,0.1-0.4,0.2l-0.1,0l-0.1,0l-0.2,0.1c-1.8,0.8-3.6,1.2-5.5,1.3
		c-1.9,0.1-3.8-0.1-5.6-0.8c-0.4-0.2-0.9-0.4-1.3-0.6c-0.4-0.2-0.8-0.5-1.2-0.8c-0.8-0.6-1.5-1.4-2.1-2.3c-1.3-1.7-2.2-3.8-2.7-6.1
		c-0.1-0.5-0.5-0.5-0.5-0.1c0.1,2,0.7,4.1,1.8,6.1c0.5,1,1.2,1.9,2,2.7c0.4,0.4,0.8,0.8,1.2,1.1c0.2,0.2,0.5,0.3,0.7,0.5
		c0.1,0.1,0.3,0.2,0.4,0.2c0.1,0.1,0.2,0.1,0.4,0.2c1,0.5,2,0.8,3,1c1,0.2,2,0.3,3,0.3c2,0,3.8-0.4,5.5-0.9c0.6-0.2,1.2-0.4,1.7-0.7
		c0.6-0.3,1.1-0.5,1.7-0.9c1.1-0.6,2.1-1.4,3.1-2.2c1-0.9,1.9-1.9,2.7-2.9s1.5-2.3,2.1-3.6c1.2-2.5,2-5.3,2.5-8.1
		c0.1-0.4,0.1-0.9,0.2-1.3c0.1,0.4,0.1,0.8,0.2,1.1c0.6,2.6,1.4,5.2,2.6,7.5c0.6,1.3,1.4,2.5,2.2,3.6c0.8,1.1,1.8,2.1,2.8,3
		c1,0.9,2.1,1.6,3.2,2.2c0.6,0.3,1.1,0.6,1.7,0.8c0.3,0.1,0.6,0.2,0.9,0.3c0.1,0,0.3,0.1,0.4,0.1l0.1,0l0.1,0l0.2,0.1
		c2,0.5,4,0.6,6,0.3c1.9-0.3,3.9-0.9,5.6-1.9c0.4-0.3,0.9-0.5,1.3-0.8c0.4-0.3,0.8-0.7,1.2-1c0.7-0.8,1.4-1.6,2-2.5
		c1.2-1.8,2.1-4,2.8-6.3C112.3,97.6,112,97.3,111.8,97.7z"/>
</g>
</svg>
