<?xml version="1.0" encoding="utf-8"?>
<!-- Generator: Adobe Illustrator 21.0.0, SVG Export Plug-In . SVG Version: 6.00 Build 0)  -->
<svg version="1.1" id="Layer_1" xmlns="http://www.w3.org/2000/svg" xmlns:xlink="http://www.w3.org/1999/xlink" x="0px" y="0px"
	 viewBox="0 0 160 145" style="enable-background:new 0 0 160 145;" xml:space="preserve">
<style type="text/css">
	.st0{fill:#CB5990;}
	.st1{fill:#FFFFFF;}
	.st2{fill:#12B6BF;}
	.st3{fill:url(#SVGID_1_);}
	.st4{fill:#455BA8;}
	.st5{fill:#326EB6;}
	.st6{fill:#DD5968;}
	.st7{fill:#EF537A;}
	.st8{fill:url(#SVGID_2_);}
	.st9{fill:url(#SVGID_3_);}
	.st10{fill:url(#SVGID_4_);}
	.st11{fill:url(#SVGID_5_);}
	.st12{fill:#F16443;}
	.st13{fill:url(#SVGID_6_);}
	.st14{fill:#F68E3F;}
	.st15{fill:url(#SVGID_7_);}
	.st16{fill:url(#SVGID_8_);}
	.st17{fill:url(#SVGID_9_);}
	.st18{fill:url(#SVGID_10_);}
	.st19{fill:url(#SVGID_11_);}
	.st20{fill:url(#SVGID_12_);}
	.st21{fill:url(#SVGID_13_);}
	.st22{fill:url(#SVGID_14_);}
	.st23{fill:url(#SVGID_15_);}
	.st24{fill:url(#SVGID_16_);}
	.st25{fill:url(#SVGID_17_);}
	.st26{fill:#3DB66D;}
	.st27{fill:url(#SVGID_18_);}
	.st28{fill:url(#SVGID_19_);}
	.st29{fill:url(#SVGID_20_);}
	.st30{fill:url(#SVGID_21_);}
	.st31{fill:url(#SVGID_22_);}
	.st32{fill:url(#SVGID_23_);}
	.st33{fill:url(#SVGID_24_);}
	.st34{fill:url(#SVGID_25_);}
	.st35{fill:url(#SVGID_26_);}
	.st36{fill:url(#SVGID_27_);}
	.st37{fill:url(#SVGID_28_);}
	.st38{fill:url(#SVGID_29_);}
	.st39{fill:url(#SVGID_30_);}
	.st40{fill:url(#SVGID_31_);}
	.st41{fill:url(#SVGID_32_);}
	.st42{fill:url(#SVGID_33_);}
	.st43{fill:url(#SVGID_34_);}
	.st44{fill:url(#SVGID_35_);}
	.st45{fill:url(#SVGID_36_);}
	.st46{fill:url(#SVGID_37_);}
	.st47{fill:url(#SVGID_38_);}
	.st48{fill:url(#SVGID_39_);}
	.st49{fill:url(#SVGID_40_);}
	.st50{fill:url(#SVGID_41_);}
	.st51{fill:url(#SVGID_42_);}
	.st52{fill:url(#SVGID_43_);}
	.st53{fill:url(#SVGID_44_);}
	.st54{fill:url(#SVGID_45_);}
	.st55{fill:url(#SVGID_46_);}
	.st56{fill:url(#SVGID_47_);}
	.st57{fill:url(#SVGID_48_);}
	.st58{fill:url(#SVGID_49_);}
	.st59{fill:url(#SVGID_50_);}
	.st60{fill:url(#SVGID_51_);}
	.st61{fill:url(#SVGID_52_);}
	.st62{fill:url(#SVGID_53_);}
	.st63{fill:url(#SVGID_54_);}
	.st64{fill:url(#SVGID_55_);}
	.st65{fill:url(#SVGID_56_);}
	.st66{fill:url(#SVGID_57_);}
	.st67{fill:url(#SVGID_58_);}
	.st68{fill:url(#SVGID_59_);}
	.st69{fill:url(#SVGID_60_);}
	.st70{fill:url(#SVGID_61_);}
	.st71{fill:url(#SVGID_62_);}
	.st72{fill:url(#SVGID_63_);}
	.st73{fill:url(#SVGID_64_);}
	.st74{fill:url(#SVGID_65_);}
	.st75{fill:url(#SVGID_66_);}
	.st76{fill:url(#SVGID_67_);}
	.st77{fill:url(#SVGID_68_);}
	.st78{fill:url(#SVGID_69_);}
	.st79{fill:url(#SVGID_70_);}
	.st80{fill:url(#SVGID_71_);}
	.st81{fill:url(#SVGID_72_);}
	.st82{fill:url(#SVGID_73_);}
	.st83{fill:url(#SVGID_74_);}
	.st84{fill:url(#SVGID_75_);}
	.st85{fill:url(#SVGID_76_);}
	.st86{fill:url(#SVGID_77_);}
	.st87{fill:url(#SVGID_78_);}
	.st88{fill:url(#SVGID_79_);}
	.st89{fill:url(#SVGID_80_);}
	.st90{fill:url(#SVGID_81_);}
	.st91{fill:url(#SVGID_82_);}
	.st92{fill:url(#SVGID_83_);}
	.st93{fill:url(#SVGID_84_);}
	.st94{fill:url(#SVGID_85_);}
	.st95{fill:url(#SVGID_86_);}
	.st96{fill:url(#SVGID_87_);}
	.st97{fill:url(#SVGID_88_);}
	.st98{fill:url(#SVGID_89_);}
	.st99{fill:url(#SVGID_90_);}
	.st100{fill:url(#SVGID_91_);}
	.st101{fill:url(#SVGID_92_);}
	.st102{fill:url(#SVGID_93_);}
	.st103{fill:url(#SVGID_94_);}
	.st104{fill:url(#SVGID_95_);}
	.st105{fill:url(#SVGID_96_);}
	.st106{fill:url(#SVGID_97_);}
	.st107{fill:url(#SVGID_98_);}
	.st108{fill:url(#SVGID_99_);}
	.st109{fill:url(#SVGID_100_);}
	.st110{fill:url(#SVGID_101_);}
	.st111{fill:url(#SVGID_102_);}
	.st112{fill:url(#SVGID_103_);}
	.st113{fill:url(#SVGID_104_);}
	.st114{fill:url(#SVGID_105_);}
	.st115{fill:url(#SVGID_106_);}
	.st116{fill:url(#SVGID_107_);}
	.st117{fill:url(#SVGID_108_);}
	.st118{fill:url(#SVGID_109_);}
	.st119{fill:url(#SVGID_110_);}
	.st120{fill:url(#SVGID_111_);}
	.st121{fill:url(#SVGID_112_);}
	.st122{fill:url(#SVGID_113_);}
	.st123{fill:url(#SVGID_114_);}
	.st124{fill:url(#SVGID_115_);}
	.st125{fill:url(#SVGID_116_);}
	.st126{fill:url(#SVGID_117_);}
	.st127{fill:url(#SVGID_118_);}
	.st128{fill:url(#SVGID_119_);}
	.st129{fill:url(#SVGID_120_);}
	.st130{fill:url(#SVGID_121_);}
	.st131{fill:url(#SVGID_122_);}
	.st132{fill:url(#SVGID_123_);}
	.st133{fill:url(#SVGID_124_);}
	.st134{fill:url(#SVGID_125_);}
	.st135{fill:url(#SVGID_126_);}
	.st136{fill:url(#SVGID_127_);}
	.st137{fill:#184054;}
	.st138{fill:url(#SVGID_128_);}
	.st139{fill:url(#SVGID_129_);}
	.st140{fill:url(#SVGID_130_);}
	.st141{fill:url(#SVGID_131_);}
	.st142{fill:url(#SVGID_132_);}
	.st143{fill:url(#SVGID_133_);}
	.st144{fill:url(#SVGID_134_);}
	.st145{fill:url(#SVGID_135_);}
	.st146{fill:url(#SVGID_136_);}
	.st147{fill:url(#SVGID_137_);}
	.st148{fill:url(#SVGID_138_);}
	.st149{fill:url(#SVGID_139_);}
	.st150{fill:url(#SVGID_140_);}
	.st151{fill:url(#SVGID_141_);}
	.st152{fill:url(#SVGID_142_);}
	.st153{fill:url(#SVGID_143_);}
	.st154{fill:url(#SVGID_144_);}
	.st155{fill:url(#SVGID_145_);}
	.st156{fill:url(#SVGID_146_);}
	.st157{fill:url(#SVGID_147_);}
	.st158{fill:url(#SVGID_148_);}
	.st159{fill:url(#SVGID_149_);}
	.st160{fill:url(#SVGID_150_);}
	.st161{fill:url(#SVGID_151_);}
	.st162{fill:url(#SVGID_152_);}
	.st163{fill:url(#SVGID_153_);}
	.st164{fill:url(#SVGID_154_);}
	.st165{fill:url(#SVGID_155_);}
	.st166{fill:url(#SVGID_156_);}
	.st167{fill:url(#SVGID_157_);}
	.st168{fill:url(#SVGID_158_);}
	.st169{fill:url(#SVGID_159_);}
	.st170{fill:url(#SVGID_160_);}
	.st171{fill:url(#SVGID_161_);}
	.st172{fill:url(#SVGID_162_);}
	.st173{fill:url(#SVGID_163_);}
	.st174{fill:url(#SVGID_164_);}
	.st175{fill:url(#SVGID_165_);}
	.st176{fill:url(#SVGID_166_);}
	.st177{fill:url(#SVGID_167_);}
	.st178{fill:url(#SVGID_168_);}
	.st179{fill:url(#SVGID_169_);}
	.st180{fill:url(#SVGID_170_);}
	.st181{fill:url(#SVGID_171_);}
	.st182{fill:url(#SVGID_172_);}
	.st183{fill:url(#SVGID_173_);}
	.st184{fill:url(#SVGID_174_);}
	.st185{fill:url(#SVGID_175_);}
	.st186{fill:url(#SVGID_176_);}
	.st187{fill:url(#SVGID_177_);}
	.st188{fill:url(#SVGID_178_);}
	.st189{fill:url(#SVGID_179_);}
	.st190{fill:url(#SVGID_180_);}
	.st191{fill:url(#SVGID_181_);}
	.st192{fill:url(#SVGID_182_);}
	.st193{fill:url(#SVGID_183_);}
	.st194{fill:url(#SVGID_184_);}
	.st195{fill:url(#SVGID_185_);}
	.st196{fill:url(#SVGID_186_);}
	.st197{fill:url(#SVGID_187_);}
	.st198{fill:url(#SVGID_188_);}
	.st199{fill:url(#SVGID_189_);}
	.st200{fill:url(#SVGID_190_);}
	.st201{fill:url(#SVGID_191_);}
	.st202{fill:url(#SVGID_192_);}
	.st203{fill:url(#SVGID_193_);}
	.st204{fill:url(#SVGID_194_);}
	.st205{fill:url(#SVGID_195_);}
	.st206{fill:url(#SVGID_196_);}
	.st207{fill:url(#SVGID_197_);}
	.st208{fill:url(#SVGID_198_);}
	.st209{fill:url(#SVGID_199_);}
	.st210{fill:url(#SVGID_200_);}
	.st211{fill:url(#SVGID_201_);}
	.st212{fill:url(#SVGID_202_);}
	.st213{fill:url(#SVGID_203_);}
	.st214{fill:url(#SVGID_204_);}
	.st215{fill:url(#SVGID_205_);}
	.st216{fill:url(#SVGID_206_);}
	.st217{fill:url(#SVGID_207_);}
	.st218{fill:url(#SVGID_208_);}
	.st219{fill:#969697;}
	.st220{fill:url(#SVGID_209_);}
	.st221{fill:url(#SVGID_210_);}
	.st222{fill:url(#SVGID_211_);}
	.st223{fill:url(#SVGID_212_);}
	.st224{fill:url(#SVGID_213_);}
	.st225{fill:url(#SVGID_214_);}
	.st226{fill:url(#SVGID_215_);}
	.st227{fill:url(#SVGID_216_);}
	.st228{fill:url(#SVGID_217_);}
	.st229{fill:url(#SVGID_218_);}
	.st230{fill:url(#SVGID_219_);}
	.st231{fill:url(#SVGID_220_);}
	.st232{fill:url(#SVGID_221_);}
	.st233{fill:url(#SVGID_222_);}
	.st234{fill:url(#SVGID_223_);}
	.st235{fill:url(#SVGID_224_);}
	.st236{fill:url(#SVGID_225_);}
	.st237{fill:url(#SVGID_226_);}
	.st238{fill:url(#SVGID_227_);}
	.st239{fill:url(#SVGID_228_);}
	.st240{fill:url(#SVGID_229_);}
	.st241{fill:url(#SVGID_230_);}
	.st242{fill:url(#SVGID_231_);}
	.st243{fill:url(#SVGID_232_);}
	.st244{fill:url(#SVGID_233_);}
	.st245{fill:url(#SVGID_234_);}
	.st246{fill:url(#SVGID_235_);}
	.st247{fill:url(#SVGID_236_);}
	.st248{fill:url(#SVGID_237_);}
	.st249{fill:url(#SVGID_238_);}
	.st250{fill:url(#SVGID_239_);}
	.st251{fill:url(#SVGID_240_);}
	.st252{fill:url(#SVGID_241_);}
	.st253{fill:url(#SVGID_242_);}
	.st254{fill:url(#SVGID_243_);}
	.st255{fill:url(#SVGID_244_);}
	.st256{fill:url(#SVGID_245_);}
	.st257{fill:url(#SVGID_246_);}
	.st258{fill:url(#SVGID_247_);}
	.st259{fill:url(#SVGID_248_);}
	.st260{fill:url(#SVGID_249_);}
	.st261{fill:url(#SVGID_250_);}
	.st262{fill:url(#SVGID_251_);}
	.st263{fill:url(#SVGID_252_);}
	.st264{fill:url(#SVGID_253_);}
	.st265{fill:url(#SVGID_254_);}
	.st266{fill:url(#SVGID_255_);}
	.st267{fill:url(#SVGID_256_);}
	.st268{fill:url(#SVGID_257_);}
	.st269{fill:url(#SVGID_258_);}
	.st270{fill:url(#SVGID_259_);}
	.st271{fill:url(#SVGID_260_);}
	.st272{fill:url(#SVGID_261_);}
	.st273{fill:url(#SVGID_262_);}
	.st274{fill:url(#SVGID_263_);}
	.st275{fill:url(#SVGID_264_);}
	.st276{fill:url(#SVGID_265_);}
	.st277{fill:url(#SVGID_266_);}
	.st278{fill:url(#SVGID_267_);}
	.st279{fill:#F69474;}
	.st280{fill:#F27350;}
	.st281{fill:url(#SVGID_268_);}
	.st282{fill:url(#SVGID_269_);}
	.st283{fill:url(#SVGID_270_);}
	.st284{fill:url(#SVGID_271_);}
	.st285{fill:url(#SVGID_272_);}
	.st286{fill:url(#SVGID_273_);}
	.st287{fill:url(#SVGID_274_);}
	.st288{fill:url(#SVGID_275_);}
	.st289{fill:url(#SVGID_276_);}
	.st290{fill:url(#SVGID_277_);}
	.st291{fill:url(#SVGID_278_);}
	.st292{fill:url(#SVGID_279_);}
	.st293{fill:url(#SVGID_280_);}
	.st294{fill:url(#SVGID_281_);}
	.st295{fill:url(#SVGID_282_);}
	.st296{fill:url(#SVGID_283_);}
	.st297{fill:url(#SVGID_284_);}
	.st298{fill:url(#SVGID_285_);}
	.st299{fill:url(#SVGID_286_);}
	.st300{fill:url(#SVGID_287_);}
	.st301{fill:url(#SVGID_288_);}
	.st302{fill:url(#SVGID_289_);}
	.st303{fill:url(#SVGID_290_);}
	.st304{fill:url(#SVGID_291_);}
	.st305{fill:url(#SVGID_292_);}
	.st306{fill:url(#SVGID_293_);}
</style>
<g>
	<path class="st4" d="M144.4,90.8c-0.1-0.3-0.2-0.6-0.4-0.8c-0.3-0.5-0.8-0.9-1.2-1.2c-0.6-0.5-1.3-0.9-2-1.2
		c0.4-0.2,0.8-0.3,1.3-0.5c0.4-0.2,0.9-0.5,1.2-0.8c0.4-0.3,0.8-0.7,1-1.3c0.1-0.1,0.1-0.3,0.1-0.4c0-0.1,0-0.1,0-0.2
		c0,0,0-0.1,0-0.1c0,0,0-0.1,0-0.1c0-0.3-0.1-0.6-0.2-0.8c-0.2-0.5-0.6-0.9-1-1.2c-0.4-0.3-0.9-0.5-1.3-0.7
		c-0.4-0.1-0.8-0.2-1.1-0.3c0,0,0,0,0.1-0.1c0.3-0.3,0.6-0.6,0.9-1c0.3-0.4,0.5-0.8,0.6-1.3c0.1-0.5,0.1-0.9,0.1-1.4
		c0-0.2-0.1-0.5-0.2-0.7c0-0.1,0-0.1-0.1-0.2c0-0.1,0-0.1-0.1-0.2c-0.1-0.1-0.1-0.2-0.2-0.3c-0.3-0.4-0.7-0.7-1.1-0.8
		c-0.4-0.1-0.9-0.2-1.3-0.2c-0.9,0-1.7,0.3-2.5,0.6c-0.7,0.3-1.4,0.5-2.1,0.7l-0.3-2.1c-0.1-0.8-0.2-1.6-0.3-2.3
		c-0.2-1.6-0.4-3.1-0.6-4.7c-0.5-3.1-1-6.2-1.7-9.3c-1.3-6.2-3-12.3-5-18.3c-0.5-1.5-1.1-3-1.6-4.5c-0.6-1.5-1.1-3-1.7-4.4
		c-0.6-1.5-1.2-2.9-1.9-4.4c-0.2-0.4-0.3-0.7-0.5-1.1c-0.1-0.2-0.2-0.4-0.3-0.5c-0.1-0.2-0.2-0.3-0.4-0.5c-0.1-0.1-0.2-0.2-0.3-0.3
		c0,0,0,0-0.1,0l0,0c0,0,0,0-0.1,0c0,0-0.1,0-0.1,0c0,0,0,0,0,0l0,0c-0.1,0-0.1,0-0.2,0.1c-0.2,0.1-0.4,0.2-0.5,0.4
		c-0.3,0.3-0.5,0.6-0.8,1c-0.4,0.7-0.8,1.4-1.1,2.2c-0.3,0.7-0.6,1.5-0.9,2.2c-0.5,1.5-1,3.1-1.5,4.6c-0.9,3.1-1.7,6.2-2.4,9.4
		c-0.4,1.6-0.5,2.7-0.6,3.3c-0.8-0.3-4.1-0.8-9.1-1.2c-2.9-0.2-6.3-0.4-10.1-0.5c-3.8-0.1-8-0.1-12.4-0.1
		c-8.8,0.1-16.7,0.6-22.4,1.1c-4.5,0.4-7.6,0.8-8.7,1c0-0.1,0-0.4,0-0.8c-0.1-0.8-0.3-2.2-0.7-4.3c-0.4-1.9-0.8-3.8-1.3-5.7
		c-0.5-1.9-1-3.8-1.5-5.7c-0.3-0.9-0.6-1.9-0.9-2.8c-0.3-0.9-0.7-1.9-1.2-2.8c-0.3-0.5-0.5-0.9-0.9-1.4c-0.2-0.2-0.4-0.5-0.8-0.7
		c-0.1-0.1-0.2-0.1-0.3-0.2c-0.1,0-0.1,0-0.2-0.1c0,0-0.1,0-0.1,0l-0.1,0c0,0-0.1,0-0.2,0c-0.1,0-0.1,0-0.2,0c-0.1,0-0.1,0-0.2,0
		c-0.1,0-0.1,0-0.2,0c0,0-0.1,0-0.1,0c0,0-0.1,0-0.1,0c-0.1,0-0.1,0.1-0.2,0.1c-0.2,0.1-0.3,0.2-0.3,0.3c-0.2,0.2-0.3,0.3-0.3,0.4
		c-0.1,0.1-0.2,0.3-0.2,0.4c-0.1,0.2-0.3,0.5-0.4,0.7c-0.2,0.5-0.5,0.9-0.7,1.4c-0.8,1.8-1.6,3.6-2.3,5.4c-0.7,1.8-1.4,3.7-2.1,5.5
		c-1.4,3.7-2.6,7.5-3.7,11.3c-2.1,7.7-3.7,15.5-4.6,23.5l0,0.2c0,0.1,0,0.2,0,0.3c0,0.2,0,0.3,0,0.4l0,0.7c0,0.4,0,0.8-0.1,1.2
		c0,0,0,0,0,0c-0.1-0.1-0.2-0.1-0.3-0.2c-0.1,0-0.1-0.1-0.2-0.1l-0.1-0.1l-0.1,0l-0.1,0l-0.1,0l-0.1,0L24,74.1
		c-0.1,0-0.3-0.1-0.4-0.1c-0.3-0.1-0.5-0.1-0.8-0.2c-0.5-0.1-1.1-0.2-1.7-0.1c-0.3,0-0.6,0.1-1,0.2c-0.3,0.1-0.7,0.2-1,0.5
		c-0.3,0.2-0.7,0.5-0.9,0.9c-0.1,0.1-0.1,0.2-0.2,0.3c0,0-0.1,0.1-0.1,0.1c0,0-0.1,0.1-0.1,0.2l0,0.1l0,0l0,0l0,0.1
		c0,0.1-0.1,0.2-0.1,0.3c-0.1,0.4-0.2,0.8-0.2,1.3c0,0.4,0.1,0.9,0.2,1.2c0.2,0.8,0.6,1.4,1,1.9c0.1,0.1,0.2,0.3,0.4,0.4
		c-0.1,0-0.1,0-0.2,0.1c-0.5,0.2-1,0.4-1.5,0.8c-0.3,0.2-0.5,0.4-0.8,0.7c-0.2,0.3-0.5,0.6-0.7,0.9c-0.2,0.4-0.3,0.8-0.4,1.2
		c0,0.1,0,0.2,0,0.3c0,0,0,0.1,0,0.2l0,0.1l0,0.1l0,0.1c0,0,0,0.1,0,0.1c0,0.1,0,0.1,0,0.2c0,0.1,0,0.3,0.1,0.4
		c0.1,0.5,0.4,0.9,0.6,1.2c0.3,0.3,0.5,0.5,0.8,0.7c0.5,0.4,1,0.6,1.5,0.8c0.2,0.1,0.3,0.1,0.5,0.2c-0.3,0.3-0.5,0.5-0.8,0.9
		c-0.3,0.4-0.6,1-0.8,1.6c-0.2,0.6-0.2,1.3-0.1,1.9c0,0.3,0.1,0.6,0.2,0.9c0.1,0.3,0.3,0.6,0.5,0.9c0.2,0.3,0.4,0.5,0.7,0.7
		c0.3,0.2,0.5,0.4,0.8,0.5c0.1,0.1,0.3,0.1,0.4,0.1c-0.1,0.2-0.2,0.3-0.3,0.5c-0.3,0.5-0.5,1-0.6,1.7c0,0.3-0.1,0.7,0,1
		c0,0.4,0.1,0.7,0.3,1c0,0.1,0.1,0.2,0.1,0.2c0,0,0,0.1,0.1,0.1l0,0.1l0,0.1l0,0.1l0,0l0,0l0.1,0.1c0.1,0.1,0.1,0.2,0.2,0.2
		c0.3,0.3,0.6,0.5,0.9,0.7c0.3,0.2,0.6,0.3,0.9,0.3c0.3,0.1,0.6,0.1,0.9,0.1c0.5,0,1-0.1,1.5-0.3c0.5-0.1,0.9-0.3,1.3-0.5
		c0.8-0.4,1.6-0.9,2.3-1.4c0,0,0,0,0,0c0.1,1,0.2,2,0.5,3c0.2,1,0.5,2,1,2.9c0.2,0.5,0.5,0.9,0.8,1.4l0.2,0.3l0.2,0.3
		c0.1,0.2,0.3,0.4,0.4,0.6c0.6,0.8,1.2,1.5,1.8,2.2c0.2,0.2,0.3,0.3,0.5,0.5c0.2,0.2,0.4,0.3,0.5,0.5c0.4,0.3,0.7,0.6,1.1,0.9
		c1.5,1.1,3.1,2,4.8,2.8c1.6,0.8,3.3,1.4,5,2c1.7,0.6,3.4,1.1,5.1,1.5c3.4,0.9,6.9,1.4,10.4,1.9c1.7,0.2,3.5,0.4,5.2,0.5
		c0.9,0.1,1.7,0.1,2.6,0.2l1.3,0.1l0.7,0l0.7,0c1.8,0.1,3.5,0.1,5.2,0.1c1.7,0,3.5,0,5.2,0c1.7,0,3.5,0,5.2-0.1c0.9,0,1.7,0,2.6-0.1
		c0.9,0,1.7-0.1,2.6-0.1c3.5-0.2,6.9-0.6,10.4-1.1c3.5-0.5,6.9-1.1,10.3-2c1.7-0.4,3.4-1,5-1.5c1.6-0.6,3.3-1.2,4.9-2
		c1.6-0.8,3.1-1.7,4.6-2.8c0.4-0.3,0.7-0.6,1.1-0.9c0.2-0.1,0.3-0.3,0.5-0.5c0.2-0.2,0.3-0.3,0.5-0.5c0.6-0.7,1.2-1.4,1.7-2.2
		c0.1-0.2,0.3-0.4,0.4-0.6l0.2-0.3c0.1-0.1,0.1-0.2,0.2-0.3c0.3-0.4,0.5-0.9,0.7-1.3c0.4-0.9,0.7-1.8,0.9-2.7
		c0.2-0.9,0.3-1.9,0.4-2.8c0-0.3,0-0.6,0.1-0.9c0.2,0.2,0.4,0.4,0.7,0.6c0.7,0.6,1.5,1.1,2.4,1.4c0.4,0.2,0.9,0.3,1.3,0.4
		c0.5,0.1,0.9,0.2,1.4,0.1c0.5,0,1-0.1,1.5-0.4c0.2-0.2,0.5-0.4,0.6-0.7c0,0,0-0.1,0.1-0.1c0,0,0-0.1,0.1-0.1c0-0.1,0,0,0-0.1l0-0.1
		c0-0.1,0.1-0.2,0.1-0.4c0.2-0.5,0.3-1,0.3-1.5c0-0.5-0.1-1.1-0.3-1.6c-0.2-0.5-0.4-0.9-0.8-1.3c-0.2-0.3-0.5-0.5-0.7-0.7
		c0.5,0,1,0,1.4-0.1c0.5-0.1,1.1-0.2,1.6-0.4c0.3-0.1,0.5-0.3,0.8-0.5c0.2-0.2,0.5-0.4,0.6-0.7c0.2-0.3,0.3-0.6,0.4-0.9
		c0.1-0.3,0.1-0.6,0.1-0.9C144.6,91.4,144.5,91.1,144.4,90.8z"/>
	<polygon points="142.7,84.2 142.7,84.2 142.7,84.2 142.7,84.2 142.7,84.2 	"/>
	<linearGradient id="SVGID_1_" gradientUnits="userSpaceOnUse" x1="120.1786" y1="25.0406" x2="120.2022" y2="25.0406">
		<stop  offset="0" style="stop-color:#ED2F66"/>
		<stop  offset="1" style="stop-color:#F8A131"/>
	</linearGradient>
	<path class="st3" d="M120.2,25C120.2,25,120.2,25,120.2,25L120.2,25C120.2,25,120.2,25,120.2,25C120.2,25,120.2,25,120.2,25z"/>
	<path d="M26,76.2C26,76.2,26,76.2,26,76.2L26,76.2C26,76.2,26,76.2,26,76.2C26,76.2,26,76.2,26,76.2z"/>
	<path class="st7" d="M142.9,91.7c0,0.2,0,0.3-0.1,0.5c0,0.1-0.1,0.2-0.2,0.3c-0.1,0.2-0.4,0.4-0.7,0.5c-0.3,0.1-0.7,0.2-1.1,0.3
		c-0.4,0-0.9,0.1-1.3,0c-0.9,0-1.8-0.2-2.8-0.4c-0.5-0.1-0.9-0.3-1.3-0.4c-0.1,0-0.2-0.1-0.3-0.1c-0.1,0-0.2-0.1-0.2-0.1
		c0,0,0,0,0,0c0,0,0,0,0.1,0.1c0,0,0.1,0.1,0.1,0.2c0,0,0,0,0,0.1c-0.2-0.1-0.3-0.1-0.5-0.2l0,0c-0.1,0-0.1,0-0.2,0
		c-0.1,0-0.2,0-0.3,0c-0.1,0-0.1,0-0.2,0.1c-0.1,0-0.1,0.1-0.2,0.1c0,0-0.1,0.1-0.1,0.2c0,0.1,0,0.2,0,0.3c0,0.2,0.1,0.3,0.1,0.3
		c0,0.1,0.1,0.1,0.1,0.1c0.1,0.1,0.1,0.1,0.1,0.1c0.1,0.1,0.2,0.1,0.2,0.1c0.2,0.1,0.3,0.2,0.5,0.2c0,0,0,0,0,0c-0.1,0-0.1,0-0.1,0
		c0,0,0,0,0,0l-0.4-0.1c0.4,0.2,0.8,0.3,1.2,0.5c0.4,0.2,0.8,0.3,1.1,0.5c0.7,0.4,1.4,0.8,2,1.2c0.6,0.5,1,1,1.2,1.6
		c0.1,0.3,0.1,0.6,0.1,0.9c0,0.3-0.1,0.7-0.2,1c0,0,0,0.1,0,0.1l0,0.1l0,0c0,0,0,0,0,0c0,0,0,0,0,0c0,0,0,0,0,0c0,0-0.1,0.1-0.2,0.1
		c-0.2,0.1-0.5,0.2-0.8,0.2c-0.3,0-0.7,0-1-0.1c-0.4-0.1-0.7-0.2-1-0.4c-1.4-0.6-2.6-1.6-3.5-2.9c-0.3-0.4-0.9-0.6-1.3-0.3
		c-0.3,0.2-0.4,0.5-0.4,0.9v0l0,0.2l0,0.2c0,0.2,0,0.3,0,0.5c0,0.3,0,0.6,0,1c0,0.6-0.1,1.3-0.2,1.9c-0.2,1.2-0.5,2.5-0.9,3.6
		c-0.2,0.6-0.5,1.1-0.8,1.6c-0.3,0.5-0.7,1-1,1.5c-0.4,0.5-0.7,1-1.1,1.4c-0.2,0.2-0.4,0.4-0.6,0.6c-0.2,0.2-0.4,0.4-0.7,0.6
		c-1.8,1.5-3.9,2.7-6,3.6c-1.1,0.5-2.1,0.9-3.2,1.3c-1.1,0.4-2.2,0.7-3.3,1.1c-3.8,1.1-7.7,1.9-11.6,2.4c-2,0.3-3.9,0.5-5.9,0.7
		c-1,0.1-2,0.2-3,0.3l-1.5,0.1l-0.7,0l-0.7,0c-2,0.1-4,0.1-5.9,0.1c-2,0-4,0-6,0c-2,0-4,0-6-0.1c-0.5,0-1,0-1.5,0l-0.7,0l-0.7,0
		c-1-0.1-2-0.1-3-0.2c-4-0.3-7.9-0.8-11.8-1.5c-3.9-0.7-7.8-1.7-11.5-3.1c-1.9-0.7-3.7-1.5-5.4-2.5c-0.9-0.5-1.7-1.1-2.5-1.7
		c-0.4-0.3-0.8-0.6-1.1-1c-0.4-0.3-0.7-0.7-1-1.1c-0.3-0.4-0.6-0.8-0.9-1.2c-0.1-0.2-0.3-0.4-0.4-0.6c-0.1-0.2-0.3-0.4-0.4-0.6
		c-0.5-0.8-0.9-1.8-1.2-2.7c-0.3-1-0.5-2-0.6-3c-0.1-0.5-0.1-1-0.1-1.6c0-0.1,0-0.2,0-0.3c0.1-0.1,0.2-0.3,0.3-0.4l-0.4-0.2
		c0-0.2,0-0.5,0-0.7l0,0c0-0.4-0.2-0.7-0.6-0.7c-0.2,0-0.4,0.1-0.5,0.2c-0.1,0.2-0.3,0.3-0.5,0.5l-0.4-0.2l0,0.2l0,0.2l0,0.1
		c-0.3,0.3-0.6,0.5-0.9,0.8c-0.6,0.5-1.3,0.9-2,1.2c-0.7,0.3-1.5,0.6-2.2,0.6c-0.3,0-0.7,0-0.9-0.2c-0.1-0.1-0.2-0.1-0.3-0.2
		c0,0-0.1-0.1-0.1-0.2c0-0.1-0.1-0.1-0.1-0.2c-0.1-0.3-0.2-0.6-0.1-0.9c0-0.3,0.2-0.7,0.4-1c0.3-0.5,0.6-0.9,1-1.4
		c0.1,0,0.2,0,0.3,0c0.9-0.2,1.8-0.5,2.6-0.9c0.4-0.2,0.8-0.4,1.2-0.7c0.4-0.3,0.8-0.6,1.1-1l0,0c0.5-0.5,0.5-1.4,0-2
		c-0.3-0.3-0.7-0.5-1.1-0.4c-0.2,0-0.4,0.1-0.5,0.1c-0.1,0-0.3,0.1-0.4,0.1c-0.2,0.1-0.5,0.2-0.7,0.3c-0.4,0.2-0.8,0.5-1.2,0.7
		c-0.8,0.5-1.5,1.1-2.2,1.7c-0.2,0-0.4,0-0.7,0c-0.4-0.1-0.7-0.2-0.9-0.4c-0.3-0.2-0.4-0.4-0.6-0.8c-0.1-0.3-0.2-0.7-0.1-1
		c0.1-0.7,0.5-1.4,1.1-1.9c0.4-0.4,0.8-0.7,1.3-1c0.9,0.1,1.9,0.2,2.8,0.1c0.5,0,1-0.1,1.5-0.2c0.5-0.1,1.1-0.3,1.7-0.7l0,0
		c0.7-0.4,0.9-1.3,0.5-2c-0.2-0.5-0.7-0.7-1.1-0.7c-0.6,0-1.1,0-1.7,0.1c-0.9,0.1-1.7,0.4-2.5,0.7c-0.5,0.2-1,0.4-1.5,0.7
		c-0.7-0.1-1.4-0.3-2.1-0.6c-0.4-0.2-0.8-0.4-1.1-0.6c-0.3-0.2-0.6-0.5-0.6-0.8c0-0.1,0-0.1,0-0.2c0,0,0-0.1,0-0.1c0,0,0,0,0-0.1
		c0,0,0-0.1,0-0.1c0-0.2,0.1-0.3,0.2-0.5c0.2-0.3,0.4-0.6,0.8-0.8c0.3-0.2,0.7-0.4,1.1-0.6c0.4-0.1,0.8-0.3,1.2-0.4
		c0.2,0,0.4-0.1,0.6-0.1c0.5,0.3,1,0.5,1.6,0.6c0.5,0.2,1.1,0.3,1.7,0.3c0.3,0,0.6,0,0.9,0c0.3,0,0.7-0.1,1.1-0.3l0,0
		c0.7-0.3,1.1-1.3,0.8-2.1c-0.2-0.6-0.7-0.9-1.2-1c-1-0.1-1.9-0.1-2.9,0c-0.5,0-1.1,0.1-1.6,0.2c-0.2-0.1-0.3-0.2-0.5-0.3
		c-0.4-0.2-0.7-0.5-1-0.8c-0.3-0.3-0.5-0.6-0.7-1c-0.1-0.4-0.2-0.7-0.1-1.1c0-0.1,0-0.2,0.1-0.3c0,0,0-0.1,0.1-0.1
		c0-0.1,0-0.1,0.1-0.1c0.1-0.2,0.2-0.3,0.3-0.4c0.3-0.2,0.6-0.4,1-0.4c0.4-0.1,0.8,0,1.2,0c0.4,0.1,0.8,0.2,1.2,0.3
		c0.1,0,0.2,0.1,0.3,0.1c0.1,0,0.2,0.1,0.2,0.1c0.2,0.1,0.4,0.2,0.6,0.4c0.2,0.1,0.4,0.3,0.7,0.4c0.1,0.1,0.3,0.1,0.4,0.1
		c0.2,0,0.3,0,0.5,0c0.2,0,0.4-0.1,0.5-0.2c0.1-0.1,0.2-0.2,0.2-0.3c0.1-0.1,0.1-0.2,0.1-0.2c0.1-0.3,0.2-0.6,0.2-0.8
		c0.1-0.5,0.1-1,0.1-1.5c0-0.5,0-1,0-1.5c0-0.1,0-0.2,0-0.3l0-0.3l0.1-0.7l0.2-1.4c0.1-1,0.3-1.9,0.4-2.9c0.3-1.9,0.6-3.8,0.9-5.7
		c0.7-3.8,1.5-7.5,2.5-11.3c1-3.7,2.1-7.4,3.4-11c0.3-0.9,0.6-1.8,1-2.7c0.3-0.9,0.7-1.8,1-2.7c0.7-1.8,1.4-3.6,2.1-5.3
		c0.4-0.9,0.8-1.7,1.2-2.6c0.2-0.4,0.4-0.8,0.7-1.2c0.1-0.1,0.1-0.2,0.2-0.2c0,0,0,0,0,0c0.2,0.1,0.3,0.2,0.5,0.3
		c0.3,0.3,0.5,0.7,0.8,1.1c0.2,0.4,0.4,0.8,0.6,1.2c0.4,0.9,0.7,1.7,1.1,2.6c0.6,1.8,1.2,3.6,1.7,5.5c0.5,1.8,1,3.7,1.5,5.6
		c0.9,3.7,1.6,6.1,2,6.6c0,0,0,0,0,0c-0.2,0.1-0.3,0.1-0.3,0.2c0,0.6,14.2,0,31.7-0.3c4.4-0.1,8.5-0.1,12.3-0.1
		c3.8,0,7.2,0,10.1,0.1c5,0.1,8.3,0.1,9.1,0c0,0.1,0,0.1,0,0.2c0.1,0.4,0.3-0.1,0.7-1.6c0.7-2.8,1.5-5.6,2.4-8.5
		c0.4-1.4,0.9-2.9,1.4-4.3c0.5-1.4,1-2.9,1.6-4.3c0.3-0.7,0.6-1.4,1-2c0.2-0.3,0.4-0.6,0.6-0.9c0.1-0.2,0.3-0.3,0.4-0.5
		c0,0.1,0.1,0.1,0.1,0.2c0.1,0.2,0.2,0.3,0.2,0.5c0.3,0.7,0.6,1.4,0.9,2.1c0.6,1.4,1.2,2.9,1.7,4.4c0.6,1.5,1.1,3,1.6,4.6
		c2.2,6.1,4,12.5,5.5,19.2c0.7,3.3,1.3,6.7,1.9,10.1c0.3,1.7,0.5,3.4,0.7,5.2l0.1,0.6c0,0.2,0.1,0.5,0.1,0.7l0.2,1.3l0.4,2.6
		c0.1,0.9,0.9,1.5,1.7,1.3c0.1,0,0.1,0,0.2,0l0,0c0.4-0.1,0.8-0.3,1.2-0.4c0.4-0.1,0.8-0.3,1.2-0.4l0.3-0.1c0.1,0,0.2-0.1,0.2-0.1
		c0.2-0.1,0.3-0.1,0.5-0.1c0.3-0.1,0.6-0.1,0.9-0.1c0.3,0,0.5,0,0.7,0.1c0.1,0,0.1,0.1,0.2,0.1c0,0,0.1,0.1,0.1,0.1c0,0,0,0,0,0.1
		c0,0,0,0,0,0l0,0l0,0l0,0c0,0,0,0,0,0l0,0l0,0c0,0,0,0.1,0,0.1c0,0.1,0,0.1,0,0.2c0,0.2,0,0.4,0,0.6c-0.1,0.4-0.4,0.9-0.9,1.4
		c-0.5,0.5-1.1,0.9-1.7,1.2c-0.1,0-0.1,0.1-0.2,0.1c0,0-0.1,0-0.1,0c-0.5,0-0.9,0.1-1.4,0.2c-0.5,0.1-0.9,0.2-1.4,0.5l0,0
		c0,0-0.1,0.1-0.1,0.1c-0.1,0.2-0.3,0.4-0.3,0.7c0,0.1,0,0.3,0.1,0.5c0.1,0.2,0.2,0.3,0.3,0.3c0.2,0.1,0.5,0.1,0.7,0.1
		c0.2,0,0.4,0,0.7-0.1c0.7-0.1,1.3-0.3,1.9-0.6c0.7,0,1.4,0,2.1,0.1c0.4,0.1,0.8,0.2,1.1,0.3c0.3,0.1,0.7,0.3,0.9,0.4
		c0.1,0.1,0.2,0.2,0.3,0.2c0.1,0.1,0.1,0.1,0.1,0.2c0,0.1,0,0.1,0,0.2l0,0v0l0,0c0,0,0,0,0,0c0,0.1-0.2,0.3-0.5,0.5
		c-0.3,0.2-0.6,0.4-0.9,0.6c-0.7,0.4-1.5,0.7-2.3,0.9c-0.5,0.1-1,0.2-1.6,0.3c-0.1,0-0.3,0-0.4-0.1c-0.5-0.1-1-0.1-1.6-0.1
		c-0.3,0-0.5,0-0.8,0.1c-0.1,0-0.3,0.1-0.4,0.2c-0.1,0-0.2,0.1-0.2,0.2c-0.1,0.1-0.1,0.2-0.2,0.3c0,0,0,0,0,0.1c0,0.1,0,0.2,0,0.4
		c0,0.1,0.1,0.2,0.2,0.3c0.1,0.2,0.3,0.2,0.4,0.3c0.3,0.1,0.5,0.2,0.8,0.2c0.5,0.1,1,0,1.4,0c0.3,0,0.6,0,0.8-0.1
		c0.7,0.1,1.4,0.3,2.1,0.6c0.9,0.3,1.7,0.7,2.4,1.2c0.3,0.3,0.6,0.5,0.8,0.8c0.1,0.1,0.1,0.3,0.2,0.4c0,0.1,0,0.1,0,0.2
		c0,0,0,0.1,0,0.1L142.9,91.7L142.9,91.7L142.9,91.7L142.9,91.7C142.9,91.7,142.9,91.7,142.9,91.7L142.9,91.7z"/>
	<linearGradient id="SVGID_2_" gradientUnits="userSpaceOnUse" x1="115.5551" y1="37.2762" x2="120.275" y2="37.2762">
		<stop  offset="0" style="stop-color:#ED2F66"/>
		<stop  offset="1" style="stop-color:#F8A131"/>
	</linearGradient>
	<path class="st8" d="M115.7,46.8c0.2,0,0.6-1,1.1-2.7c0.5-1.7,1-4.1,1.6-6.8l1.4-6.8l0.4-2c0.1-0.5,0.1-0.8,0.1-0.8
		c-0.1-0.1-0.3,0.1-0.6,0.6c-0.3,0.4-0.6,1.1-0.9,2c-0.6,1.7-1.3,4.1-1.8,6.8c-0.6,2.7-1,5.1-1.2,6.9
		C115.5,45.7,115.5,46.8,115.7,46.8z"/>
	<linearGradient id="SVGID_3_" gradientUnits="userSpaceOnUse" x1="40.8395" y1="37.2762" x2="45.5597" y2="37.2762">
		<stop  offset="0" style="stop-color:#ED2F66"/>
		<stop  offset="1" style="stop-color:#F8A131"/>
	</linearGradient>
	<path class="st9" d="M41.4,30.6l1.4,6.8c0.6,2.7,1.1,5.1,1.6,6.8c0.5,1.7,0.9,2.8,1.1,2.7c0.2,0,0.1-1.2-0.1-2.9
		c-0.2-1.8-0.6-4.2-1.2-6.9c-0.6-2.7-1.2-5.1-1.8-6.8c-0.3-0.8-0.6-1.5-0.9-2c-0.3-0.4-0.5-0.6-0.6-0.6c-0.1,0.1,0,0.3,0.1,0.8
		L41.4,30.6z"/>
	<linearGradient id="SVGID_4_" gradientUnits="userSpaceOnUse" x1="40.5797" y1="41.3239" x2="43.3065" y2="41.3239">
		<stop  offset="0" style="stop-color:#ED2F66"/>
		<stop  offset="1" style="stop-color:#F8A131"/>
	</linearGradient>
	<path class="st10" d="M41.6,41.4c0.4,1.7,0.7,3.2,1,4.3c0.3,1.1,0.4,1.8,0.6,1.8c0.1,0,0.2-0.7,0.1-1.9c-0.1-1.2-0.4-2.7-0.8-4.4
		c-0.4-1.7-0.8-3.2-1.1-4.3c-0.3-1.1-0.6-1.8-0.7-1.7c-0.1,0-0.1,0.8,0.1,1.9C40.9,38.2,41.2,39.7,41.6,41.4z"/>
	<linearGradient id="SVGID_5_" gradientUnits="userSpaceOnUse" x1="117.8083" y1="41.3239" x2="120.5352" y2="41.3239">
		<stop  offset="0" style="stop-color:#ED2F66"/>
		<stop  offset="1" style="stop-color:#F8A131"/>
	</linearGradient>
	<path class="st11" d="M118.6,41.2c-0.4,1.7-0.6,3.3-0.8,4.4c-0.1,1.2-0.1,1.9,0.1,1.9c0.1,0,0.3-0.7,0.6-1.8c0.3-1.1,0.6-2.6,1-4.3
		c0.4-1.7,0.7-3.3,0.9-4.4c0.2-1.1,0.2-1.9,0.1-1.9c-0.1,0-0.4,0.6-0.7,1.7C119.4,37.9,119,39.5,118.6,41.2z"/>
	<path class="st4" d="M39.7,86.5c0.3-0.3-0.5-2.3-1.8-4.4c-1.3-2.1-2.6-3.6-2.9-3.3c-0.3,0.3,0.5,2.3,1.8,4.4
		C38.1,85.3,39.4,86.8,39.7,86.5z"/>
	<path class="st4" d="M37.9,88.5c0.2-0.4-1.2-1.9-3-3.3c-1.8-1.4-3.5-2.2-3.6-1.8c-0.2,0.4,1.2,1.9,3,3.3
		C36.1,88.1,37.8,88.9,37.9,88.5z"/>
	<path class="st4" d="M32.8,89.3c-1.4-0.5-2.6-0.6-2.6-0.3c0,0.3,1.1,0.9,2.5,1.4c1.4,0.5,2.6,0.6,2.6,0.3
		C35.4,90.4,34.3,89.8,32.8,89.3z"/>
	<path class="st4" d="M121.5,86.5c0.3,0.3,1.6-1.2,2.9-3.3c1.3-2.1,2.1-4.1,1.8-4.4c-0.3-0.3-1.6,1.2-2.9,3.3
		C122,84.2,121.2,86.2,121.5,86.5z"/>
	<path class="st4" d="M129.9,83.4c-0.2-0.4-1.8,0.4-3.6,1.8c-1.8,1.4-3.2,2.9-3,3.3c0.2,0.4,1.8-0.4,3.6-1.8
		C128.7,85.3,130,83.8,129.9,83.4z"/>
	<path class="st4" d="M128.3,89.3c-1.4,0.5-2.5,1.1-2.5,1.4c0,0.3,1.2,0.2,2.6-0.3c1.4-0.5,2.5-1.1,2.5-1.4
		C130.9,88.8,129.8,88.9,128.3,89.3z"/>
	<path class="st2" d="M50.7,94.3c0-0.3,0-0.6,0-1c-0.1-0.7-0.2-1.4-0.4-2c-0.2-0.6-0.5-1.2-0.9-1.6c-0.3-0.5-0.7-0.9-1.1-1.2
		c-0.4-0.4-0.8-0.7-1.2-0.9c-0.5-0.3-1-0.5-1.5-0.6c-1-0.2-1.9,0-2.7,0.2c-0.2,0.1-0.4,0.2-0.7,0.2c-0.2,0.1-0.4,0.2-0.6,0.3
		c-0.4,0.2-0.8,0.5-1.2,0.8c-0.7,0.6-1.4,1.4-1.9,2.3c-0.5,0.9-0.9,1.9-1.1,3c-0.2,1.1-0.2,2.2,0,3.3c0.1,0.5,0.2,1,0.4,1.5
		c0.1,0.2,0.2,0.5,0.3,0.7l0.1,0.2l0,0.1l0,0.1c0.1,0.1,0.1,0.2,0.2,0.3c0.5,0.9,1.1,1.6,1.7,2.1c0.7,0.5,1.4,0.9,2.1,1
		c1.4,0.4,2.8,0.2,4.1-0.2c1.3-0.5,2.4-1.3,3.2-2.5c0.4-0.6,0.8-1.2,1-1.9c0-0.1,0.1-0.2,0.1-0.3l0-0.1l0-0.1
		c0.1-0.2,0.1-0.4,0.1-0.5c0.1-0.4,0.1-0.7,0.1-1.1C50.9,95.7,50.8,95,50.7,94.3C50.7,94.4,50.7,94.4,50.7,94.3z M44.1,88.9
		C44,88.9,44,88.9,44.1,88.9C44,88.9,44,88.9,44.1,88.9C44,88.9,44,88.9,44.1,88.9z M39.5,92c0.1-0.1,0.1-0.2,0.2-0.3
		c0,0.1,0,0.2,0,0.3c0.1,0.7,0.2,1.4,0.3,2.1c0.2,1.4,0.5,2.7,0.9,4.1c0.1,0.3,0.2,0.6,0.2,0.9c-0.1-0.3-0.2-0.5-0.3-0.8
		c-0.3-0.8-0.5-1.5-0.7-2.3C39.9,94.5,39.7,93.2,39.5,92C39.5,92,39.5,92,39.5,92z M39.3,99.2c0-0.1-0.1-0.2-0.1-0.3l-0.1-0.1
		L39,98.7c-0.1-0.2-0.1-0.4-0.2-0.6c-0.1-0.4-0.2-0.8-0.3-1.2c-0.1-0.8-0.1-1.7,0-2.5c0.1-0.3,0.1-0.5,0.2-0.8c0,0.1,0,0.1,0,0.2
		c0.1,0.6,0.2,1.2,0.3,1.8c0.2,1.1,0.4,2,0.5,2.7c0.1,0.7,0.2,1.3,0.3,1.7c0,0.1,0,0.2,0,0.3C39.7,99.9,39.5,99.5,39.3,99.2z
		 M42.3,101.8c-0.6-0.2-1.2-0.5-1.7-0.9c-0.2-0.2-0.4-0.4-0.6-0.6c0-0.1,0-0.3,0-0.5c0-0.4,0-0.9-0.1-1.6c0,0.1,0.1,0.3,0.1,0.4
		c0.1,0.4,0.3,0.9,0.5,1.3c0.1,0.2,0.2,0.4,0.3,0.6c0.1,0.2,0.3,0.4,0.5,0.6c0,0,0.1,0.1,0.1,0.1c0.2,0.1,0.4,0,0.5-0.2
		c0.2,0.3,0.3,0.5,0.5,0.8C42.5,101.8,42.4,101.8,42.3,101.8z M43.7,100.8c-0.4-0.3-0.7-0.9-0.9-1.4c0-0.1-0.1-0.1-0.1-0.2l0-0.1
		l0,0l0-0.1c0-0.2-0.1-0.3-0.1-0.5c-0.1-0.3-0.2-0.6-0.2-0.8c-0.1-0.8-0.1-1.6-0.3-2.4c0,0,0,0,0,0c0,0.1,0.1,0.3,0.1,0.4l0.2,0.7
		l0.1,0.3c0,0.1,0.1,0.2,0.1,0.3c0,0,0,0,0,0.1l0,0l0.4,1.4c0.1,0.5,0.3,0.9,0.5,1.4c0.2,0.4,0.3,0.8,0.5,1.3
		C43.8,101,43.8,100.9,43.7,100.8z M44.8,98.8c-0.2-0.4-0.3-0.9-0.5-1.3l-0.4-1.4c0-0.1-0.1-0.2-0.1-0.3l-0.1-0.3l-0.2-0.6
		c-0.1-0.4-0.3-0.8-0.4-1.3c-0.2-0.8-0.4-1.7-0.6-2.5c-0.1-0.4-0.1-0.8-0.1-1.1c0-0.1,0-0.1,0-0.2c0,0,0,0,0,0c0,0,0.1,0.1,0.2,0.1
		c0.2,0.2,0.3,0.5,0.5,0.8c0.2,0.5,0.4,1,0.6,1.6c0,0.1,0,0.1,0,0.2c0.1,0.3,0.1,0.6,0.2,0.8c0,0.1,0.1,0.3,0.1,0.4l0.1,0.2
		c0,0.1,0,0.1,0.1,0.2l0.2,0.6c0,0.2,0.1,0.4,0.1,0.5c0.2,0.8,0.3,1.6,0.4,2.4c0.1,0.4,0.1,0.8,0.1,1.2c0,0.2,0,0.4,0,0.6
		c0,0,0,0.1,0,0.1C45,99.4,44.9,99.1,44.8,98.8z M49.1,95.1c-0.1,0.5-0.1,0.9-0.2,1.4c0-0.8-0.1-1.5-0.3-2.3c-0.2-1-0.4-1.9-0.7-2.9
		c-0.1-0.4-0.2-0.7-0.3-1c0.6,0.6,1,1.2,1.3,1.9C49.2,93.1,49.2,94,49.1,95.1z"/>
	<path class="st2" d="M122.9,94.3c0-0.3,0-0.6,0-1c-0.1-0.7-0.2-1.4-0.4-2c-0.2-0.6-0.5-1.2-0.9-1.6c-0.3-0.5-0.7-0.9-1.1-1.2
		c-0.4-0.4-0.8-0.7-1.2-0.9c-0.5-0.3-1-0.5-1.5-0.6c-1-0.2-1.9,0-2.7,0.2c-0.2,0.1-0.4,0.1-0.7,0.2c-0.2,0.1-0.4,0.2-0.6,0.3
		c-0.4,0.2-0.8,0.5-1.2,0.8c-0.7,0.6-1.4,1.4-1.9,2.3c-0.5,0.9-0.9,1.9-1.1,3c-0.2,1.1-0.2,2.2,0,3.3c0.1,0.5,0.2,1,0.4,1.5
		c0.1,0.2,0.2,0.5,0.3,0.7l0.1,0.2l0,0.1l0,0.1c0.1,0.1,0.1,0.2,0.2,0.3c0.5,0.9,1.1,1.6,1.7,2.1c0.7,0.5,1.4,0.9,2.1,1
		c1.4,0.4,2.8,0.2,4.1-0.2c1.3-0.5,2.4-1.3,3.2-2.5c0.4-0.6,0.8-1.2,1-1.9c0-0.1,0.1-0.2,0.1-0.3l0-0.1l0-0.1
		c0.1-0.2,0.1-0.4,0.1-0.5c0.1-0.4,0.1-0.7,0.1-1.1C123.1,95.7,123,95,122.9,94.3C122.9,94.4,122.9,94.4,122.9,94.3z M116.3,88.9
		C116.3,88.9,116.2,88.9,116.3,88.9C116.2,88.9,116.2,88.9,116.3,88.9C116.2,88.9,116.2,88.9,116.3,88.9z M111.7,92
		c0.1-0.1,0.1-0.2,0.2-0.3c0,0.1,0,0.2,0,0.3c0.1,0.7,0.2,1.4,0.3,2.1c0.2,1.4,0.5,2.7,0.9,4.1c0.1,0.3,0.2,0.6,0.2,0.9
		c-0.1-0.3-0.2-0.5-0.3-0.8c-0.3-0.8-0.5-1.5-0.7-2.3C112.1,94.5,111.9,93.2,111.7,92C111.7,92,111.7,92,111.7,92z M111.5,99.2
		c0-0.1-0.1-0.2-0.1-0.3l-0.1-0.1l-0.1-0.1c-0.1-0.2-0.1-0.4-0.2-0.6c-0.1-0.4-0.2-0.8-0.3-1.2c-0.1-0.8-0.1-1.7,0.1-2.5
		c0.1-0.3,0.1-0.5,0.2-0.8c0,0.1,0,0.1,0,0.2c0.1,0.6,0.2,1.2,0.3,1.8c0.2,1.1,0.4,2,0.5,2.7c0.1,0.7,0.2,1.3,0.3,1.7
		c0,0.1,0,0.2,0,0.3C111.9,99.9,111.7,99.5,111.5,99.2z M114.5,101.8c-0.6-0.2-1.2-0.5-1.7-0.9c-0.2-0.2-0.4-0.4-0.6-0.6
		c0-0.1,0-0.3,0-0.5c0-0.4,0-0.9-0.1-1.6c0,0.1,0.1,0.3,0.1,0.4c0.1,0.4,0.3,0.9,0.5,1.3c0.1,0.2,0.2,0.4,0.3,0.6
		c0.1,0.2,0.3,0.4,0.5,0.6c0,0,0.1,0.1,0.1,0.1c0.2,0.1,0.4,0,0.5-0.2c0.2,0.3,0.3,0.5,0.5,0.8C114.7,101.8,114.6,101.8,114.5,101.8
		z M115.9,100.8c-0.4-0.4-0.7-0.9-0.9-1.4c0-0.1-0.1-0.1-0.1-0.2l0-0.1l0,0l0-0.1c0-0.2-0.1-0.3-0.1-0.5c-0.1-0.3-0.2-0.6-0.2-0.8
		c-0.1-0.8-0.1-1.6-0.3-2.4c0,0,0,0,0,0c0,0.1,0.1,0.3,0.1,0.4l0.2,0.7l0.1,0.3c0,0.1,0.1,0.2,0.1,0.3c0,0,0,0,0,0.1l0,0l0.4,1.4
		c0.1,0.5,0.3,0.9,0.5,1.4c0.2,0.4,0.3,0.8,0.5,1.3C116,101,116,100.9,115.9,100.8z M117,98.8c-0.2-0.4-0.3-0.9-0.4-1.3l-0.4-1.4
		c0-0.1-0.1-0.2-0.1-0.3l-0.1-0.3l-0.2-0.6c-0.1-0.4-0.3-0.8-0.4-1.3c-0.2-0.8-0.4-1.7-0.6-2.5c-0.1-0.4-0.1-0.8-0.1-1.1
		c0-0.1,0-0.1,0-0.2c0,0,0,0,0,0c0,0,0.1,0.1,0.2,0.1c0.2,0.2,0.3,0.5,0.5,0.8c0.2,0.5,0.4,1,0.6,1.6c0,0.1,0,0.1,0,0.2
		c0.1,0.3,0.1,0.6,0.2,0.8c0,0.1,0.1,0.3,0.1,0.4l0.1,0.2c0,0.1,0,0.1,0.1,0.2l0.2,0.6c0,0.2,0.1,0.4,0.1,0.5
		c0.2,0.8,0.3,1.6,0.4,2.4c0.1,0.4,0.1,0.8,0.1,1.2c0,0.2,0,0.4,0,0.6c0,0,0,0.1,0,0.1C117.2,99.4,117.1,99.1,117,98.8z M121.3,95.1
		c-0.1,0.5-0.1,0.9-0.2,1.4c0-0.8-0.1-1.5-0.3-2.3c-0.2-1-0.4-1.9-0.7-2.9c-0.1-0.4-0.2-0.7-0.3-1c0.6,0.6,1,1.2,1.3,1.9
		C121.4,93.1,121.4,94,121.3,95.1z"/>
	<g>
		<linearGradient id="SVGID_6_" gradientUnits="userSpaceOnUse" x1="74.0786" y1="98.6965" x2="75.5736" y2="98.6965">
			<stop  offset="0" style="stop-color:#0EB5BF"/>
			<stop  offset="1" style="stop-color:#B0D57B"/>
		</linearGradient>
		<path class="st13" d="M74.3,97.2c-0.1,0.3-0.2,0.6-0.2,0.9c0,0.2,0,0.4,0,0.6c0,0.1,0,0.1,0,0.2c0,0.3,0,0.6,0.1,0.9
			c0,0.1,0.1,0.3,0.1,0.4c0,0.1,0.1,0.2,0.1,0.3c0,0,0,0,0,0.1c0,0,0,0,0,0c0,0.1,0.1,0.1,0.1,0.2c0.1,0.1,0.1,0.1,0.2,0.1
			c0,0,0,0,0.1,0c0.2,0,0.4-0.2,0.5-0.5c0.1-0.3,0.2-0.8,0.3-1.3c0-0.5,0-1.1-0.1-1.5c-0.1-0.2-0.1-0.4-0.2-0.5
			c-0.1-0.1-0.1-0.2-0.2-0.3c0,0,0,0,0,0c-0.1-0.1-0.2-0.2-0.3-0.2c-0.1,0-0.2,0.1-0.3,0.3C74.4,96.9,74.3,97.1,74.3,97.2z"/>
		<linearGradient id="SVGID_7_" gradientUnits="userSpaceOnUse" x1="61.8635" y1="98.6963" x2="63.3637" y2="98.6963">
			<stop  offset="0" style="stop-color:#0EB5BF"/>
			<stop  offset="1" style="stop-color:#B0D57B"/>
		</linearGradient>
		<path class="st15" d="M62.9,96.8C62.9,96.8,62.9,96.8,62.9,96.8c-0.1-0.2-0.2-0.3-0.3-0.3c-0.1,0-0.2,0-0.3,0.2
			c-0.1,0.1-0.1,0.2-0.2,0.4C62,97.3,62,97.6,61.9,98c0,0.2,0,0.4,0,0.6c0,0.1,0,0.1,0,0.2c0,0.3,0,0.6,0.1,0.9
			c0,0.2,0.1,0.3,0.1,0.4c0,0.1,0.1,0.2,0.1,0.4c0,0,0,0,0,0.1c0,0,0,0,0,0c0,0.1,0.1,0.1,0.1,0.2c0.1,0.1,0.1,0.1,0.2,0.1
			c0,0,0,0,0.1,0c0.2,0.1,0.4-0.1,0.5-0.4c0.2-0.3,0.3-0.7,0.3-1.2c0.1-0.5,0-1.1-0.1-1.5c0-0.2-0.1-0.4-0.2-0.6
			C63,97,63,96.9,62.9,96.8z"/>
		<linearGradient id="SVGID_8_" gradientUnits="userSpaceOnUse" x1="67.9835" y1="98.6963" x2="69.4835" y2="98.6963">
			<stop  offset="0" style="stop-color:#0EB5BF"/>
			<stop  offset="1" style="stop-color:#B0D57B"/>
		</linearGradient>
		<path class="st16" d="M69,96.8C69,96.8,69,96.8,69,96.8c-0.1-0.2-0.2-0.3-0.3-0.3c-0.1,0-0.2,0-0.3,0.2c-0.1,0.1-0.1,0.2-0.2,0.4
			c-0.1,0.2-0.2,0.5-0.2,0.9c0,0.2,0,0.4,0,0.6c0,0.1,0,0.1,0,0.2c0,0.3,0,0.6,0.1,0.9c0,0.2,0.1,0.3,0.1,0.4c0,0.1,0.1,0.2,0.1,0.4
			c0,0,0,0,0,0.1c0,0,0,0,0,0c0,0.1,0.1,0.1,0.1,0.2c0.1,0.1,0.1,0.1,0.2,0.1c0,0,0,0,0.1,0c0.2,0.1,0.4-0.1,0.5-0.4
			c0.2-0.3,0.3-0.7,0.3-1.2c0.1-0.5,0-1.1-0.1-1.5c0-0.2-0.1-0.4-0.2-0.6C69.2,97,69.1,96.9,69,96.8z"/>
		<linearGradient id="SVGID_9_" gradientUnits="userSpaceOnUse" x1="70.914" y1="104.5634" x2="72.4147" y2="104.5634">
			<stop  offset="0" style="stop-color:#0EB5BF"/>
			<stop  offset="1" style="stop-color:#B0D57B"/>
		</linearGradient>
		<path class="st17" d="M72.1,103.1c-0.1-0.2-0.1-0.3-0.2-0.4c0,0,0,0,0,0c-0.1-0.2-0.2-0.2-0.3-0.3c-0.1,0-0.2,0-0.3,0.2
			c-0.1,0.1-0.1,0.2-0.2,0.4c-0.1,0.2-0.2,0.5-0.2,0.9c0,0.2,0,0.4,0,0.6c0,0.1,0,0.1,0,0.2c0,0.3,0,0.6,0.1,0.9
			c0,0.2,0.1,0.3,0.1,0.4c0,0.1,0.1,0.2,0.1,0.4c0,0,0,0,0,0.1c0,0,0,0,0,0c0,0.1,0.1,0.1,0.1,0.2c0.1,0.1,0.1,0.1,0.2,0.1
			c0,0,0,0,0.1,0c0.2,0.1,0.4-0.1,0.5-0.4c0.2-0.3,0.3-0.7,0.3-1.2c0.1-0.5,0-1.1-0.1-1.5C72.3,103.4,72.2,103.2,72.1,103.1z"/>
		<linearGradient id="SVGID_10_" gradientUnits="userSpaceOnUse" x1="65.3416" y1="104.5634" x2="66.8422" y2="104.5634">
			<stop  offset="0" style="stop-color:#0EB5BF"/>
			<stop  offset="1" style="stop-color:#B0D57B"/>
		</linearGradient>
		<path class="st18" d="M66.4,102.7C66.4,102.7,66.4,102.7,66.4,102.7c-0.1-0.2-0.2-0.3-0.3-0.3c-0.1,0-0.2,0-0.3,0.2
			c-0.1,0.1-0.1,0.2-0.2,0.4c-0.1,0.2-0.2,0.5-0.2,0.9c0,0.2,0,0.4,0,0.6c0,0.1,0,0.1,0,0.2c0,0.3,0,0.6,0.1,0.9
			c0,0.2,0.1,0.3,0.1,0.4c0,0.1,0.1,0.2,0.1,0.4c0,0,0,0,0,0.1c0,0,0,0,0,0c0,0.1,0.1,0.1,0.1,0.2c0.1,0.1,0.1,0.1,0.2,0.1
			c0,0,0,0,0.1,0c0.2,0.1,0.4-0.1,0.5-0.4c0.2-0.3,0.3-0.7,0.3-1.2c0.1-0.5,0-1.1-0.1-1.5c0-0.2-0.1-0.4-0.2-0.6
			C66.5,102.9,66.5,102.8,66.4,102.7z"/>
		<linearGradient id="SVGID_11_" gradientUnits="userSpaceOnUse" x1="99.2106" y1="97.9526" x2="100.7055" y2="97.9526">
			<stop  offset="0" style="stop-color:#0EB5BF"/>
			<stop  offset="1" style="stop-color:#B0D57B"/>
		</linearGradient>
		<path class="st19" d="M99.3,99.1c0,0.1,0.1,0.3,0.1,0.4c0,0.1,0.1,0.2,0.1,0.3c0,0,0,0,0,0.1c0,0,0,0,0,0c0,0.1,0.1,0.1,0.1,0.2
			c0.1,0.1,0.1,0.1,0.2,0.1c0,0,0,0,0.1,0c0.2,0,0.4-0.2,0.5-0.5c0.1-0.3,0.2-0.8,0.3-1.3c0-0.5,0-1.1-0.1-1.5
			c-0.1-0.2-0.1-0.4-0.2-0.5c-0.1-0.1-0.1-0.2-0.2-0.3c0,0,0,0,0,0c-0.1-0.1-0.2-0.2-0.3-0.2c-0.1,0-0.2,0.1-0.3,0.3
			c-0.1,0.1-0.1,0.3-0.2,0.5c-0.1,0.3-0.2,0.6-0.2,0.9c0,0.2,0,0.4,0,0.6c0,0.1,0,0.1,0,0.2C99.2,98.6,99.2,98.9,99.3,99.1z"/>
		<linearGradient id="SVGID_12_" gradientUnits="userSpaceOnUse" x1="86.9954" y1="97.9528" x2="88.4958" y2="97.9528">
			<stop  offset="0" style="stop-color:#0EB5BF"/>
			<stop  offset="1" style="stop-color:#B0D57B"/>
		</linearGradient>
		<path class="st20" d="M87,98.1c0,0.3,0,0.6,0.1,0.9c0,0.2,0.1,0.3,0.1,0.4c0,0.1,0.1,0.2,0.1,0.4c0,0,0,0,0,0.1c0,0,0,0,0,0
			c0,0.1,0.1,0.1,0.1,0.2c0.1,0.1,0.1,0.1,0.2,0.1c0,0,0,0,0.1,0c0.2,0.1,0.4-0.1,0.5-0.4c0.2-0.3,0.3-0.7,0.3-1.2
			c0.1-0.5,0-1.1-0.1-1.5c0-0.2-0.1-0.4-0.2-0.6c-0.1-0.2-0.1-0.3-0.2-0.4c0,0,0,0,0,0c-0.1-0.2-0.2-0.2-0.3-0.3
			c-0.1,0-0.2,0-0.3,0.2c-0.1,0.1-0.1,0.2-0.2,0.4c-0.1,0.2-0.2,0.5-0.2,0.9c0,0.2,0,0.4,0,0.6C87,97.9,87,98,87,98.1z"/>
		<linearGradient id="SVGID_13_" gradientUnits="userSpaceOnUse" x1="93.1152" y1="97.9527" x2="94.6158" y2="97.9527">
			<stop  offset="0" style="stop-color:#0EB5BF"/>
			<stop  offset="1" style="stop-color:#B0D57B"/>
		</linearGradient>
		<path class="st21" d="M93.4,99.7C93.4,99.7,93.4,99.7,93.4,99.7C93.4,99.8,93.4,99.8,93.4,99.7c0.1,0.2,0.1,0.2,0.1,0.3
			c0.1,0.1,0.1,0.1,0.2,0.1c0,0,0,0,0.1,0c0.2,0.1,0.4-0.1,0.5-0.4c0.2-0.3,0.3-0.7,0.3-1.2c0.1-0.5,0-1.1-0.1-1.5
			c0-0.2-0.1-0.4-0.2-0.6c-0.1-0.2-0.1-0.3-0.2-0.4c0,0,0,0,0,0c-0.1-0.2-0.2-0.2-0.3-0.3c-0.1,0-0.2,0-0.3,0.2
			c-0.1,0.1-0.1,0.2-0.2,0.4c-0.1,0.2-0.2,0.5-0.2,0.9c0,0.2,0,0.4,0,0.6c0,0.1,0,0.1,0,0.2c0,0.3,0,0.6,0.1,0.9
			c0,0.2,0.1,0.3,0.1,0.4C93.3,99.5,93.3,99.6,93.4,99.7z"/>
		<linearGradient id="SVGID_14_" gradientUnits="userSpaceOnUse" x1="96.0464" y1="103.8197" x2="97.5463" y2="103.8197">
			<stop  offset="0" style="stop-color:#0EB5BF"/>
			<stop  offset="1" style="stop-color:#B0D57B"/>
		</linearGradient>
		<path class="st22" d="M96.3,105.6C96.3,105.6,96.3,105.6,96.3,105.6C96.3,105.6,96.3,105.6,96.3,105.6c0.1,0.2,0.1,0.2,0.1,0.3
			c0.1,0.1,0.1,0.1,0.2,0.1c0,0,0,0,0.1,0c0.2,0.1,0.4-0.1,0.5-0.4c0.2-0.3,0.3-0.7,0.3-1.2c0.1-0.5,0-1.1-0.1-1.5
			c0-0.2-0.1-0.4-0.2-0.6c-0.1-0.2-0.1-0.3-0.2-0.4c0,0,0,0,0,0c-0.1-0.2-0.2-0.2-0.3-0.3c-0.1,0-0.2,0-0.3,0.2
			c-0.1,0.1-0.1,0.2-0.2,0.4c-0.1,0.2-0.2,0.5-0.2,0.9c0,0.2,0,0.4,0,0.6c0,0.1,0,0.1,0,0.2c0,0.3,0,0.6,0.1,0.9
			c0,0.2,0.1,0.3,0.1,0.4C96.2,105.3,96.3,105.5,96.3,105.6z"/>
		<linearGradient id="SVGID_15_" gradientUnits="userSpaceOnUse" x1="90.4737" y1="103.8197" x2="91.9739" y2="103.8197">
			<stop  offset="0" style="stop-color:#0EB5BF"/>
			<stop  offset="1" style="stop-color:#B0D57B"/>
		</linearGradient>
		<path class="st23" d="M90.7,105.6C90.7,105.6,90.8,105.6,90.7,105.6C90.8,105.6,90.8,105.6,90.7,105.6c0.1,0.2,0.1,0.2,0.1,0.3
			c0.1,0.1,0.1,0.1,0.2,0.1c0,0,0,0,0.1,0c0.2,0.1,0.4-0.1,0.5-0.4c0.2-0.3,0.3-0.7,0.3-1.2c0.1-0.5,0-1.1-0.1-1.5
			c0-0.2-0.1-0.4-0.2-0.6c-0.1-0.2-0.1-0.3-0.2-0.4c0,0,0,0,0,0c-0.1-0.2-0.2-0.2-0.3-0.3c-0.1,0-0.2,0-0.3,0.2
			c-0.1,0.1-0.1,0.2-0.2,0.4c-0.1,0.2-0.2,0.5-0.2,0.9c0,0.2,0,0.4,0,0.6c0,0.1,0,0.1,0,0.2c0,0.3,0,0.6,0.1,0.9
			c0,0.2,0.1,0.3,0.1,0.4C90.7,105.3,90.7,105.5,90.7,105.6z"/>
	</g>
	<path class="st4" d="M140,101.9C140,101.9,140,101.9,140,101.9L140,101.9z"/>
	<path class="st4" d="M118.4,71.7c1-1.7,1.7-3.5,2.2-5.4c0.3,0,0.6,0.1,0.8,0.1l0,0c0.1,0,0.1,0,0.2,0l0.2,0l0.1,0c0,0,0.1,0,0.2,0
		c0,0,0.1,0,0.2,0l0.1,0c0,0,0.1,0,0.1,0c0,0,0,0,0.1,0c0,0,0.1,0,0.1,0c0.1,0,0,0,0.2-0.1c0.2-0.1,0.3-0.3,0.4-0.4
		c0.1-0.1,0.4-0.9,0.2-1.4c-0.2-0.4-0.2-0.4-0.3-0.6c-0.1-0.1-0.3-0.3-0.3-0.2c0,0-0.1,0-0.1-0.1c0,0-0.1,0-0.1-0.1l0,0
		c0,0-0.1,0-0.1,0c-0.1,0-0.1,0-0.1,0l-0.1,0l-0.1,0c-0.1,0-0.2,0-0.2,0c-0.2,0-0.5-0.1-0.7-0.1c-0.1,0-0.1,0-0.2,0
		c0.2-0.2,0.3-0.5,0.2-0.8c-0.1-0.4-0.4-0.7-0.8-0.7c-0.5,0-1.1,0-1.6,0c-0.2-0.1-0.4-0.1-0.7-0.2c-0.6-0.1-1.2-0.2-1.8-0.3
		c-1.2-0.1-2.5-0.2-3.7-0.2c-2.5-0.1-5.1,0-7.8,0.1c-2.7,0.1-5.4,0.4-8.1,0.6l-8.3,0.8l0,0c-0.8,0.1-1.4,0.8-1.3,1.7
		c0,0.6,0.4,1.1,0.9,1.3c0,0,0,0,0,0l0,0c-0.6,0.3-0.8,1.1-0.4,1.7c0.2,0.5,0.7,0.7,1.2,0.6c0.1,0,0.2,0,0.3-0.1c0,0.1,0,0.3,0,0.4
		c0.1,0.8,0.4,1.7,0.8,2.5c0.7,1.6,1.9,3.1,3.1,4.4c1.3,1.3,2.8,2.3,4.3,3c0.8,0.4,1.6,0.7,2.4,0.9c0.4,0.1,0.8,0.2,1.2,0.2
		c0.1,0,0.2,0,0.3,0l0.3,0l0.6,0.1c2.1,0.2,4.2,0.1,6.2-0.3c2-0.4,4-1.3,5.8-2.6C115.8,75.3,117.3,73.6,118.4,71.7z"/>
	<path class="st4" d="M110.8,62.3c-0.4,0.1-0.8,0.1-1.2,0.2c-0.4,0-0.8,0-1.2,0C109.2,62.4,110,62.3,110.8,62.3z"/>
	<path class="st1" d="M108.4,72.4c0.1-0.6,0.2-1.1,0.3-1.7c0.1-1.2,0.2-2.4,0.2-3.7c0-0.5,0-1,0-1.5c0.6,0,1.2,0,1.8,0
		c1.3,0,2.6,0.1,3.9,0.1c-0.3,0.8-0.7,1.8-1.3,2.8c-0.7,1.3-1.7,2.7-3.2,3.8c-0.6,0.5-1.2,0.9-1.9,1.2
		C108.2,73.1,108.3,72.7,108.4,72.4z"/>
	<path class="st4" d="M107.4,72.1C107.4,72.1,107.4,72.1,107.4,72.1c-0.1,0.5-0.2,0.9-0.3,1.3C107.2,73,107.3,72.5,107.4,72.1z"/>
	<path class="st1" d="M106.5,65.5c-0.2,0.8-0.3,1.5-0.4,2.3c0,0.3-0.1,0.6-0.1,1l-0.5-2.2c-0.1-0.4-0.2-0.7-0.2-1.1
		C105.7,65.5,106.1,65.5,106.5,65.5z"/>
	<path class="st4" d="M104.1,72.2c0.2,0.3,0.4,0.5,0.6,0.8c0,0,0,0,0,0.1c0.1,0.4,0.3,0.8,0.5,1.2c-0.1,0-0.2,0-0.3,0
		c0-0.1-0.1-0.1-0.1-0.2c-0.2-0.3-0.4-0.7-0.5-1c-0.3-0.6-0.5-1.2-0.6-1.8C103.7,71.6,103.9,71.9,104.1,72.2z"/>
	<path class="st1" d="M99.2,66c0.3-0.1,0.6-0.1,0.9-0.2c0.7-0.1,1.4-0.1,2.1-0.2c0,0.2,0,0.4,0.1,0.6c0,0.4,0,0.8,0.1,1.4
		c0.1,1,0.2,2.2,0.5,3.6c0.2,0.7,0.3,1.4,0.6,2.2c0.1,0.3,0.2,0.5,0.4,0.8c-0.7,0-1.4-0.2-2.1-0.4c-0.9-0.3-1.7-0.8-2.3-1.4
		c-0.7-0.6-1.2-1.3-1.6-2c-0.4-0.7-0.7-1.5-0.9-2.2c-0.2-0.6-0.3-1.2-0.4-1.7C97.5,66.4,98.4,66.2,99.2,66z"/>
	<path class="st1" d="M103.4,78.5c-0.4,0-0.8,0-1.2-0.1c-0.2,0-0.4,0-0.6-0.1c-0.2,0-0.4,0-0.6-0.1c-0.8-0.1-1.6-0.4-2.3-0.7
		c-1.5-0.6-2.9-1.6-4.2-2.7c-1.3-1.1-2.4-2.4-3.3-3.9c-0.4-0.7-0.8-1.5-1.1-2.4c-0.1-0.3-0.2-0.6-0.2-0.9c1.9-0.3,3.8-0.7,5.7-1
		c0,0.6,0.1,1.2,0.2,1.9c0.2,0.8,0.4,1.7,0.8,2.6c0.4,0.9,1,1.8,1.8,2.6c0.8,0.8,1.8,1.4,2.9,1.9c1.1,0.4,2.3,0.6,3.5,0.6
		c1.2,0,2.4-0.3,3.5-0.8c1.1-0.4,2-1.1,2.8-1.8c0.8-0.7,1.5-1.5,2-2.3c0.5-0.8,1-1.6,1.3-2.4c0.6-1.4,0.8-2.6,0.9-3.4
		c0.2,0,0.5,0,0.7,0.1c1.2,0.1,2.5,0.2,3.7,0.4c-0.6,1.5-1.3,2.9-2,4.2c-0.9,1.6-2,3.1-3.4,4.4c-1.5,1.3-3.2,2.3-5.1,2.9
		C107.4,78.3,105.4,78.5,103.4,78.5z"/>
	<path class="st2" d="M37,60.5c1.5,0,2.9-0.2,4.3-0.5c1.4-0.3,2.8-0.6,4.3-0.9c3.2-0.5,6.4-0.6,9.7-0.9c2.7-0.2,5.4-0.4,8.1-0.5
		c2.7-0.1,5.3,0.1,8.1,0.8c0.3,0.1,0.4-0.6,0.2-0.8c-2.1-2-14.9-4.7-30.2-0.6c-1.6,0.4-3.2,1.1-4.7,1.9C36.1,59.2,36.3,60.5,37,60.5
		z"/>
	<path class="st2" d="M87.3,58.9c2.6-0.9,5.1-1.3,7.7-1.5c2.6-0.2,5.1-0.2,7.8-0.2c3.1-0.1,6.3-0.3,9.3,0c1.4,0.1,2.8,0.3,4.2,0.5
		c1.4,0.2,2.7,0.3,4.2,0.1c0.6,0,0.7-1.3,0.2-1.6c-1.5-0.7-3.1-1.2-4.7-1.5c-14.9-2.7-27,1.2-28.9,3.3C86.8,58.3,87,59,87.3,58.9z"
		/>
	<path class="st4" d="M65.1,78.3c1.7-1.3,3.2-3,4.3-4.9c1-1.7,1.7-3.5,2.2-5.4c0.3,0,0.6,0.1,0.8,0.2l0,0c0.1,0,0.1,0,0.2,0l0.2,0
		l0.1,0c0,0,0.1,0,0.2,0c0,0,0.1,0,0.2,0l0.1,0c0,0,0.1,0,0.1,0c0,0,0,0,0.1,0c0,0,0.1,0,0.1,0c0.1,0,0,0,0.2-0.1
		c0.2-0.1,0.3-0.3,0.4-0.4c0.1-0.1,0.4-0.9,0.2-1.4c-0.2-0.4-0.2-0.4-0.3-0.6c-0.1-0.1-0.3-0.3-0.3-0.2c0,0-0.1,0-0.1-0.1
		c0,0-0.1,0-0.1-0.1l0,0c0,0-0.1,0-0.1,0c-0.1,0-0.1,0-0.1,0l-0.1,0l-0.1,0c-0.1,0-0.2,0-0.2,0c-0.2,0-0.5-0.1-0.7-0.1
		c-0.1,0-0.1,0-0.2,0c0.2-0.2,0.3-0.5,0.2-0.8c-0.1-0.4-0.4-0.7-0.8-0.7c-0.5,0-1.1,0-1.6,0c-0.2-0.1-0.4-0.1-0.7-0.2
		c-0.6-0.1-1.2-0.2-1.8-0.3c-1.2-0.1-2.5-0.2-3.7-0.2c-2.5-0.1-5.1,0-7.8,0.1c-2.7,0.1-5.4,0.4-8.1,0.6l-8.3,0.8l0,0
		c-0.8,0.1-1.4,0.8-1.3,1.7c0,0.6,0.4,1.1,0.9,1.3c0,0,0,0,0,0l0,0c-0.6,0.3-0.8,1.1-0.4,1.7c0.2,0.5,0.7,0.7,1.2,0.6
		c0.1,0,0.2,0,0.3-0.1c0,0.1,0,0.3,0,0.4c0.1,0.8,0.4,1.7,0.8,2.5c0.7,1.6,1.9,3.1,3.1,4.4c1.3,1.3,2.8,2.3,4.3,3
		c0.8,0.4,1.6,0.7,2.4,0.9c0.4,0.1,0.8,0.2,1.2,0.2c0.1,0,0.2,0,0.3,0l0.3,0l0.6,0.1c2.1,0.2,4.2,0.1,6.2-0.3
		C61.3,80.4,63.3,79.6,65.1,78.3z"/>
	<path class="st4" d="M61.8,64c-0.4,0.1-0.8,0.1-1.2,0.2c-0.4,0-0.8,0-1.2,0C60.2,64.1,61,64,61.8,64z"/>
	<path class="st1" d="M59.4,74.1c0.1-0.6,0.2-1.1,0.3-1.7c0.1-1.2,0.2-2.4,0.2-3.7c0-0.5,0-1,0-1.5c0.6,0,1.2,0,1.8,0
		c1.3,0,2.6,0.1,3.9,0.1c-0.3,0.8-0.7,1.8-1.3,2.8c-0.7,1.3-1.7,2.7-3.2,3.8c-0.6,0.5-1.2,0.9-1.9,1.2
		C59.2,74.8,59.3,74.4,59.4,74.1z"/>
	<path class="st4" d="M58.4,73.8C58.4,73.8,58.4,73.8,58.4,73.8c-0.1,0.5-0.2,0.9-0.3,1.3C58.2,74.7,58.3,74.3,58.4,73.8z"/>
	<path class="st1" d="M57.5,67.2c-0.2,0.8-0.3,1.5-0.4,2.3c0,0.3-0.1,0.6-0.1,1l-0.5-2.2c-0.1-0.4-0.2-0.7-0.2-1.1
		C56.7,67.2,57.1,67.2,57.5,67.2z"/>
	<path class="st4" d="M55.1,73.9c0.2,0.3,0.4,0.5,0.6,0.8c0,0,0,0,0,0.1c0.1,0.4,0.3,0.8,0.5,1.2c-0.1,0-0.2,0-0.3,0
		c0-0.1-0.1-0.1-0.1-0.2c-0.2-0.3-0.4-0.7-0.5-1c-0.3-0.6-0.5-1.2-0.6-1.8C54.8,73.3,54.9,73.6,55.1,73.9z"/>
	<path class="st1" d="M50.2,67.7c0.3-0.1,0.6-0.1,0.9-0.2c0.7-0.1,1.4-0.1,2.1-0.2c0,0.2,0,0.4,0.1,0.6c0,0.4,0,0.8,0.1,1.4
		c0.1,1,0.2,2.2,0.5,3.6c0.2,0.7,0.3,1.4,0.6,2.2c0.1,0.3,0.2,0.5,0.4,0.8c-0.7,0-1.4-0.2-2.1-0.4c-0.9-0.3-1.7-0.8-2.3-1.4
		c-0.7-0.6-1.2-1.3-1.6-2c-0.4-0.7-0.7-1.5-0.9-2.2c-0.2-0.6-0.3-1.2-0.4-1.7C48.5,68.1,49.4,67.9,50.2,67.7z"/>
	<path class="st1" d="M54.4,80.2c-0.4,0-0.8,0-1.2-0.1c-0.2,0-0.4,0-0.6-0.1c-0.2,0-0.4,0-0.6-0.1c-0.8-0.1-1.6-0.4-2.3-0.7
		c-1.5-0.6-2.9-1.6-4.2-2.7c-1.3-1.1-2.4-2.4-3.3-3.9c-0.4-0.7-0.8-1.5-1.1-2.4c-0.1-0.3-0.2-0.6-0.2-0.9c1.9-0.3,3.8-0.7,5.7-1
		c0,0.6,0.1,1.2,0.2,1.9c0.2,0.8,0.4,1.7,0.8,2.6c0.4,0.9,1,1.8,1.8,2.6c0.8,0.8,1.8,1.4,2.9,1.9c1.1,0.4,2.3,0.6,3.5,0.6
		c1.2,0,2.4-0.3,3.5-0.8c1.1-0.4,2-1.1,2.8-1.8c0.8-0.7,1.5-1.5,2-2.3c0.5-0.8,1-1.6,1.3-2.4c0.6-1.4,0.8-2.6,0.9-3.4
		c0.2,0,0.5,0,0.7,0.1c1.2,0.1,2.5,0.2,3.7,0.4c-0.6,1.5-1.3,2.9-2,4.2c-0.9,1.6-2,3.1-3.4,4.4c-1.5,1.3-3.2,2.3-5.1,2.9
		C58.4,80,56.4,80.2,54.4,80.2z"/>
	<linearGradient id="SVGID_16_" gradientUnits="userSpaceOnUse" x1="57.4846" y1="88.1972" x2="105.0284" y2="88.1972">
		<stop  offset="0" style="stop-color:#0EB5BF"/>
		<stop  offset="1" style="stop-color:#B0D57B"/>
	</linearGradient>
	<path class="st24" d="M105,99.5c-0.1,0-0.4,0.7-1,2c-0.3,0.6-0.6,1.4-1.1,2.3c-0.4,0.9-1,1.8-1.7,2.8c-0.7,0.9-1.6,1.9-2.7,2.5
		c-0.6,0.3-1.2,0.6-1.8,0.7c-0.7,0.2-1.3,0.2-2.1,0.2c-0.7,0-1.5-0.1-2.2-0.3c-0.4-0.1-0.8-0.2-1.1-0.3c-0.2-0.1-0.4-0.1-0.6-0.2
		l-0.3-0.1c-0.1,0-0.2-0.1-0.3-0.1c-1.5-0.6-2.8-1.6-3.9-3c-1.1-1.4-1.9-3-2.4-4.6c-0.6-1.6-0.9-3.3-1.2-4.9
		c-0.3-1.6-0.4-3.2-0.5-4.7c-0.1-1-0.1-2-0.2-2.9c0-0.4,0-0.8,0-1.2c0-0.1,0-0.1,0-0.2c-0.1-2.4-0.1-4.4-0.1-5.8l0-0.5l0-0.4
		c0,0,0-0.1,0-0.1c0.8-2.6,1.5-5.2,2.2-7.9c0.3-1.3,0.6-2.7,0.8-4c0.1-0.7,0.2-1.4,0.1-2.1c0-0.4-0.1-0.7-0.2-1.1
		c-0.1-0.2-0.1-0.4-0.3-0.5c-0.1-0.2-0.3-0.3-0.4-0.4c-0.1,0-0.2,0-0.2,0l0,0c-0.3,0.2-0.6,0.4-0.8,0.7c-0.2,0.3-0.4,0.6-0.6,0.9
		c-0.3,0.6-0.5,1.3-0.7,2c-0.2,0.9-0.4,1.8-0.6,2.7c-0.1-0.4-0.2-0.8-0.3-1.2c-0.1-0.5-0.3-1-0.5-1.5c-0.2-0.5-0.4-1-0.6-1.5
		c-0.1-0.2-0.3-0.5-0.5-0.7c-0.2-0.2-0.4-0.5-0.7-0.7C78.4,65.1,78.2,65,78,65c-0.1,0-0.3,0-0.4,0.1c-0.1,0.1-0.2,0.2-0.3,0.3
		c-0.2,0.2-0.2,0.4-0.3,0.6l0,0.1l0,0l0,0.1c0,0.1,0,0.2,0,0.2c0,0.6,0,1.2,0.1,1.7c0.1,0.5,0.2,1.1,0.3,1.6
		c0.3,1.1,0.6,2.3,0.9,3.4l1,3.3c0.2,0.7,0.4,1.3,0.6,1.9c0.2,0.6,0.4,1.2,0.7,1.8l0,0.1l0,0.1c0,0.1,0.1,0.1,0.1,0.2
		c0,0.1,0,0.2,0,0.3l0,0.4l0,0.5c0,1.4,0,3.4-0.1,5.8c0,0.1,0,0.1,0,0.2c0,0.4,0,0.8,0,1.2c0,0.9-0.1,1.9-0.2,2.9
		c-0.1,1.5-0.3,3-0.5,4.7c-0.3,1.6-0.6,3.3-1.2,4.9c-0.6,1.6-1.3,3.3-2.4,4.6c-1.1,1.4-2.4,2.4-3.9,3c-0.1,0-0.2,0.1-0.3,0.1
		l-0.3,0.1c-0.2,0.1-0.4,0.1-0.6,0.2c-0.4,0.1-0.8,0.2-1.1,0.3c-0.8,0.2-1.5,0.3-2.2,0.3c-0.7,0-1.4-0.1-2.1-0.2
		c-0.7-0.2-1.3-0.4-1.8-0.7c-1.1-0.6-2-1.6-2.7-2.5c-0.7-0.9-1.2-1.9-1.7-2.8c-0.4-0.9-0.8-1.7-1.1-2.3c-0.6-1.3-0.9-2-1-2
		c-0.1,0,0,0.8,0.3,2.2c0.2,0.7,0.4,1.5,0.8,2.5c0.4,1,0.9,2,1.6,3.1c0.4,0.6,0.8,1.1,1.3,1.6c0.5,0.5,1.1,1,1.7,1.5
		c0.7,0.4,1.4,0.8,2.2,1c0.8,0.2,1.6,0.3,2.5,0.4c0.8,0,1.7-0.1,2.6-0.3c0.4-0.1,0.9-0.2,1.3-0.3c0.2-0.1,0.4-0.1,0.6-0.2l0.3-0.1
		c0.1,0,0.2-0.1,0.3-0.1c0.9-0.3,1.7-0.8,2.5-1.4c0.8-0.6,1.5-1.3,2.2-2.1c1.3-1.6,2.1-3.4,2.7-5.2c0.4-1.1,0.6-2.2,0.9-3.3
		c0.2,1.1,0.5,2.2,0.9,3.3c0.6,1.8,1.5,3.6,2.7,5.2c0.6,0.8,1.4,1.5,2.2,2.1c0.8,0.6,1.6,1,2.5,1.4c0.1,0,0.2,0.1,0.3,0.1l0.3,0.1
		c0.2,0.1,0.4,0.1,0.6,0.2c0.4,0.1,0.9,0.2,1.3,0.3c0.9,0.2,1.7,0.3,2.6,0.3c0.8,0,1.7-0.1,2.5-0.4c0.8-0.2,1.5-0.6,2.2-1
		c0.7-0.4,1.2-0.9,1.7-1.5c0.5-0.5,0.9-1.1,1.3-1.6c0.7-1.1,1.2-2.2,1.6-3.1c0.4-1,0.6-1.8,0.8-2.5C105,100.4,105.1,99.6,105,99.5z"
		/>
	<path class="st4" d="M81.6,80c0-0.1,0-0.2-0.1-0.3c0-0.1,0-0.2-0.1-0.4c-0.2-1-0.5-1.9-0.8-2.8l-0.9-2.7c-0.3-0.9-0.6-1.8-0.9-2.7
		c-0.3-0.9-0.5-1.8-0.7-2.7c-0.1-0.5-0.1-0.9-0.2-1.3c0-0.2,0-0.4,0-0.6l0-0.1l0-0.1l0,0l0,0c0.1,0.1,0.2,0.2,0.3,0.3
		c0.2,0.3,0.4,0.7,0.6,1.1c0.4,0.8,0.6,1.7,0.9,2.6c0.2,0.9,0.4,1.8,0.6,2.8c0.1,0.4,0.4,0.6,0.7,0.5c0.3-0.1,0.5-0.3,0.5-0.6v0
		c0.1-0.8,0.2-1.7,0.4-2.5c0.2-1,0.4-1.9,0.7-2.9c0.2-0.5,0.3-0.9,0.6-1.3c0.1-0.2,0.2-0.3,0.4-0.5c0,0,0,0,0,0
		c0.1,0.2,0.1,0.5,0.1,0.8c0,0.6,0,1.3-0.1,2c-0.2,1.3-0.5,2.7-0.8,4.1C82.5,75.2,81.9,77.7,81.6,80C81.7,80,81.6,80,81.6,80z"/>
</g>
</svg>
