<?xml version="1.0" encoding="utf-8"?>
<!-- Generator: Adobe Illustrator 21.0.0, SVG Export Plug-In . SVG Version: 6.00 Build 0)  -->
<svg version="1.1" id="Layer_1" xmlns="http://www.w3.org/2000/svg" xmlns:xlink="http://www.w3.org/1999/xlink" x="0px" y="0px"
	 viewBox="0 0 160 145" style="enable-background:new 0 0 160 145;" xml:space="preserve">
<style type="text/css">
	.st0{fill:#CB5990;}
	.st1{fill:#FFFFFF;}
	.st2{fill:#12B6BF;}
	.st3{fill:url(#SVGID_1_);}
	.st4{fill:#455BA8;}
	.st5{fill:#326EB6;}
	.st6{fill:#DD5968;}
	.st7{fill:#EF537A;}
	.st8{fill:url(#SVGID_2_);}
	.st9{fill:url(#SVGID_3_);}
	.st10{fill:url(#SVGID_4_);}
	.st11{fill:url(#SVGID_5_);}
	.st12{fill:#F16443;}
	.st13{fill:url(#SVGID_6_);}
	.st14{fill:#F68E3F;}
	.st15{fill:url(#SVGID_7_);}
	.st16{fill:url(#SVGID_8_);}
	.st17{fill:url(#SVGID_9_);}
	.st18{fill:url(#SVGID_10_);}
	.st19{fill:url(#SVGID_11_);}
	.st20{fill:url(#SVGID_12_);}
	.st21{fill:url(#SVGID_13_);}
	.st22{fill:url(#SVGID_14_);}
	.st23{fill:url(#SVGID_15_);}
	.st24{fill:url(#SVGID_16_);}
	.st25{fill:url(#SVGID_17_);}
	.st26{fill:#3DB66D;}
	.st27{fill:url(#SVGID_18_);}
	.st28{fill:url(#SVGID_19_);}
	.st29{fill:url(#SVGID_20_);}
	.st30{fill:url(#SVGID_21_);}
	.st31{fill:url(#SVGID_22_);}
	.st32{fill:url(#SVGID_23_);}
	.st33{fill:url(#SVGID_24_);}
	.st34{fill:url(#SVGID_25_);}
	.st35{fill:url(#SVGID_26_);}
	.st36{fill:url(#SVGID_27_);}
	.st37{fill:url(#SVGID_28_);}
	.st38{fill:url(#SVGID_29_);}
	.st39{fill:url(#SVGID_30_);}
	.st40{fill:url(#SVGID_31_);}
	.st41{fill:url(#SVGID_32_);}
	.st42{fill:url(#SVGID_33_);}
	.st43{fill:url(#SVGID_34_);}
	.st44{fill:url(#SVGID_35_);}
	.st45{fill:url(#SVGID_36_);}
	.st46{fill:url(#SVGID_37_);}
	.st47{fill:url(#SVGID_38_);}
	.st48{fill:url(#SVGID_39_);}
	.st49{fill:url(#SVGID_40_);}
	.st50{fill:url(#SVGID_41_);}
	.st51{fill:url(#SVGID_42_);}
	.st52{fill:url(#SVGID_43_);}
	.st53{fill:url(#SVGID_44_);}
	.st54{fill:url(#SVGID_45_);}
	.st55{fill:url(#SVGID_46_);}
	.st56{fill:url(#SVGID_47_);}
	.st57{fill:url(#SVGID_48_);}
	.st58{fill:url(#SVGID_49_);}
	.st59{fill:url(#SVGID_50_);}
	.st60{fill:url(#SVGID_51_);}
	.st61{fill:url(#SVGID_52_);}
	.st62{fill:url(#SVGID_53_);}
	.st63{fill:url(#SVGID_54_);}
	.st64{fill:url(#SVGID_55_);}
	.st65{fill:url(#SVGID_56_);}
	.st66{fill:url(#SVGID_57_);}
	.st67{fill:url(#SVGID_58_);}
	.st68{fill:url(#SVGID_59_);}
	.st69{fill:url(#SVGID_60_);}
	.st70{fill:url(#SVGID_61_);}
	.st71{fill:url(#SVGID_62_);}
	.st72{fill:url(#SVGID_63_);}
	.st73{fill:url(#SVGID_64_);}
	.st74{fill:url(#SVGID_65_);}
	.st75{fill:url(#SVGID_66_);}
	.st76{fill:url(#SVGID_67_);}
	.st77{fill:url(#SVGID_68_);}
	.st78{fill:url(#SVGID_69_);}
	.st79{fill:url(#SVGID_70_);}
	.st80{fill:url(#SVGID_71_);}
	.st81{fill:url(#SVGID_72_);}
	.st82{fill:url(#SVGID_73_);}
	.st83{fill:url(#SVGID_74_);}
	.st84{fill:url(#SVGID_75_);}
	.st85{fill:url(#SVGID_76_);}
	.st86{fill:url(#SVGID_77_);}
	.st87{fill:url(#SVGID_78_);}
	.st88{fill:url(#SVGID_79_);}
	.st89{fill:url(#SVGID_80_);}
	.st90{fill:url(#SVGID_81_);}
	.st91{fill:url(#SVGID_82_);}
	.st92{fill:url(#SVGID_83_);}
	.st93{fill:url(#SVGID_84_);}
	.st94{fill:url(#SVGID_85_);}
	.st95{fill:url(#SVGID_86_);}
	.st96{fill:url(#SVGID_87_);}
	.st97{fill:url(#SVGID_88_);}
	.st98{fill:url(#SVGID_89_);}
	.st99{fill:url(#SVGID_90_);}
	.st100{fill:url(#SVGID_91_);}
	.st101{fill:url(#SVGID_92_);}
	.st102{fill:url(#SVGID_93_);}
	.st103{fill:url(#SVGID_94_);}
	.st104{fill:url(#SVGID_95_);}
	.st105{fill:url(#SVGID_96_);}
	.st106{fill:url(#SVGID_97_);}
	.st107{fill:url(#SVGID_98_);}
	.st108{fill:url(#SVGID_99_);}
	.st109{fill:url(#SVGID_100_);}
	.st110{fill:url(#SVGID_101_);}
	.st111{fill:url(#SVGID_102_);}
	.st112{fill:url(#SVGID_103_);}
	.st113{fill:url(#SVGID_104_);}
	.st114{fill:url(#SVGID_105_);}
	.st115{fill:url(#SVGID_106_);}
	.st116{fill:url(#SVGID_107_);}
	.st117{fill:url(#SVGID_108_);}
	.st118{fill:url(#SVGID_109_);}
	.st119{fill:url(#SVGID_110_);}
	.st120{fill:url(#SVGID_111_);}
	.st121{fill:url(#SVGID_112_);}
	.st122{fill:url(#SVGID_113_);}
	.st123{fill:url(#SVGID_114_);}
	.st124{fill:url(#SVGID_115_);}
	.st125{fill:url(#SVGID_116_);}
	.st126{fill:url(#SVGID_117_);}
	.st127{fill:url(#SVGID_118_);}
	.st128{fill:url(#SVGID_119_);}
	.st129{fill:url(#SVGID_120_);}
	.st130{fill:url(#SVGID_121_);}
	.st131{fill:url(#SVGID_122_);}
	.st132{fill:url(#SVGID_123_);}
	.st133{fill:url(#SVGID_124_);}
	.st134{fill:url(#SVGID_125_);}
	.st135{fill:url(#SVGID_126_);}
	.st136{fill:url(#SVGID_127_);}
	.st137{fill:#184054;}
	.st138{fill:url(#SVGID_128_);}
	.st139{fill:url(#SVGID_129_);}
	.st140{fill:url(#SVGID_130_);}
	.st141{fill:url(#SVGID_131_);}
	.st142{fill:url(#SVGID_132_);}
	.st143{fill:url(#SVGID_133_);}
	.st144{fill:url(#SVGID_134_);}
	.st145{fill:url(#SVGID_135_);}
	.st146{fill:url(#SVGID_136_);}
	.st147{fill:url(#SVGID_137_);}
	.st148{fill:url(#SVGID_138_);}
	.st149{fill:url(#SVGID_139_);}
	.st150{fill:url(#SVGID_140_);}
	.st151{fill:url(#SVGID_141_);}
	.st152{fill:url(#SVGID_142_);}
	.st153{fill:url(#SVGID_143_);}
	.st154{fill:url(#SVGID_144_);}
	.st155{fill:url(#SVGID_145_);}
	.st156{fill:url(#SVGID_146_);}
	.st157{fill:url(#SVGID_147_);}
	.st158{fill:url(#SVGID_148_);}
	.st159{fill:url(#SVGID_149_);}
	.st160{fill:url(#SVGID_150_);}
	.st161{fill:url(#SVGID_151_);}
	.st162{fill:url(#SVGID_152_);}
	.st163{fill:url(#SVGID_153_);}
	.st164{fill:url(#SVGID_154_);}
	.st165{fill:url(#SVGID_155_);}
	.st166{fill:url(#SVGID_156_);}
	.st167{fill:url(#SVGID_157_);}
	.st168{fill:url(#SVGID_158_);}
	.st169{fill:url(#SVGID_159_);}
	.st170{fill:url(#SVGID_160_);}
	.st171{fill:url(#SVGID_161_);}
	.st172{fill:url(#SVGID_162_);}
	.st173{fill:url(#SVGID_163_);}
	.st174{fill:url(#SVGID_164_);}
	.st175{fill:url(#SVGID_165_);}
	.st176{fill:url(#SVGID_166_);}
	.st177{fill:url(#SVGID_167_);}
	.st178{fill:url(#SVGID_168_);}
	.st179{fill:url(#SVGID_169_);}
	.st180{fill:url(#SVGID_170_);}
	.st181{fill:url(#SVGID_171_);}
	.st182{fill:url(#SVGID_172_);}
	.st183{fill:url(#SVGID_173_);}
	.st184{fill:url(#SVGID_174_);}
	.st185{fill:url(#SVGID_175_);}
	.st186{fill:url(#SVGID_176_);}
	.st187{fill:url(#SVGID_177_);}
	.st188{fill:url(#SVGID_178_);}
	.st189{fill:url(#SVGID_179_);}
	.st190{fill:url(#SVGID_180_);}
	.st191{fill:url(#SVGID_181_);}
	.st192{fill:url(#SVGID_182_);}
	.st193{fill:url(#SVGID_183_);}
	.st194{fill:url(#SVGID_184_);}
	.st195{fill:url(#SVGID_185_);}
	.st196{fill:url(#SVGID_186_);}
	.st197{fill:url(#SVGID_187_);}
	.st198{fill:url(#SVGID_188_);}
	.st199{fill:url(#SVGID_189_);}
	.st200{fill:url(#SVGID_190_);}
	.st201{fill:url(#SVGID_191_);}
	.st202{fill:url(#SVGID_192_);}
	.st203{fill:url(#SVGID_193_);}
	.st204{fill:url(#SVGID_194_);}
	.st205{fill:url(#SVGID_195_);}
	.st206{fill:url(#SVGID_196_);}
	.st207{fill:url(#SVGID_197_);}
	.st208{fill:url(#SVGID_198_);}
	.st209{fill:url(#SVGID_199_);}
	.st210{fill:url(#SVGID_200_);}
	.st211{fill:url(#SVGID_201_);}
	.st212{fill:url(#SVGID_202_);}
	.st213{fill:url(#SVGID_203_);}
	.st214{fill:url(#SVGID_204_);}
	.st215{fill:url(#SVGID_205_);}
	.st216{fill:url(#SVGID_206_);}
	.st217{fill:url(#SVGID_207_);}
	.st218{fill:url(#SVGID_208_);}
	.st219{fill:#969697;}
	.st220{fill:url(#SVGID_209_);}
	.st221{fill:url(#SVGID_210_);}
	.st222{fill:url(#SVGID_211_);}
	.st223{fill:url(#SVGID_212_);}
	.st224{fill:url(#SVGID_213_);}
	.st225{fill:url(#SVGID_214_);}
	.st226{fill:url(#SVGID_215_);}
	.st227{fill:url(#SVGID_216_);}
	.st228{fill:url(#SVGID_217_);}
	.st229{fill:url(#SVGID_218_);}
	.st230{fill:url(#SVGID_219_);}
	.st231{fill:url(#SVGID_220_);}
	.st232{fill:url(#SVGID_221_);}
	.st233{fill:url(#SVGID_222_);}
	.st234{fill:url(#SVGID_223_);}
	.st235{fill:url(#SVGID_224_);}
	.st236{fill:url(#SVGID_225_);}
	.st237{fill:url(#SVGID_226_);}
	.st238{fill:url(#SVGID_227_);}
	.st239{fill:url(#SVGID_228_);}
	.st240{fill:url(#SVGID_229_);}
	.st241{fill:url(#SVGID_230_);}
	.st242{fill:url(#SVGID_231_);}
	.st243{fill:url(#SVGID_232_);}
	.st244{fill:url(#SVGID_233_);}
	.st245{fill:url(#SVGID_234_);}
	.st246{fill:url(#SVGID_235_);}
	.st247{fill:url(#SVGID_236_);}
	.st248{fill:url(#SVGID_237_);}
	.st249{fill:url(#SVGID_238_);}
	.st250{fill:url(#SVGID_239_);}
	.st251{fill:url(#SVGID_240_);}
	.st252{fill:url(#SVGID_241_);}
	.st253{fill:url(#SVGID_242_);}
	.st254{fill:url(#SVGID_243_);}
	.st255{fill:url(#SVGID_244_);}
	.st256{fill:url(#SVGID_245_);}
	.st257{fill:url(#SVGID_246_);}
	.st258{fill:url(#SVGID_247_);}
	.st259{fill:url(#SVGID_248_);}
	.st260{fill:url(#SVGID_249_);}
	.st261{fill:url(#SVGID_250_);}
	.st262{fill:url(#SVGID_251_);}
	.st263{fill:url(#SVGID_252_);}
	.st264{fill:url(#SVGID_253_);}
	.st265{fill:url(#SVGID_254_);}
	.st266{fill:url(#SVGID_255_);}
	.st267{fill:url(#SVGID_256_);}
	.st268{fill:url(#SVGID_257_);}
	.st269{fill:url(#SVGID_258_);}
	.st270{fill:url(#SVGID_259_);}
	.st271{fill:url(#SVGID_260_);}
	.st272{fill:url(#SVGID_261_);}
	.st273{fill:url(#SVGID_262_);}
	.st274{fill:url(#SVGID_263_);}
	.st275{fill:url(#SVGID_264_);}
	.st276{fill:url(#SVGID_265_);}
	.st277{fill:url(#SVGID_266_);}
	.st278{fill:url(#SVGID_267_);}
	.st279{fill:#F69474;}
	.st280{fill:#F27350;}
	.st281{fill:url(#SVGID_268_);}
	.st282{fill:url(#SVGID_269_);}
	.st283{fill:url(#SVGID_270_);}
	.st284{fill:url(#SVGID_271_);}
	.st285{fill:url(#SVGID_272_);}
	.st286{fill:url(#SVGID_273_);}
	.st287{fill:url(#SVGID_274_);}
	.st288{fill:url(#SVGID_275_);}
	.st289{fill:url(#SVGID_276_);}
	.st290{fill:url(#SVGID_277_);}
	.st291{fill:url(#SVGID_278_);}
	.st292{fill:url(#SVGID_279_);}
	.st293{fill:url(#SVGID_280_);}
	.st294{fill:url(#SVGID_281_);}
	.st295{fill:url(#SVGID_282_);}
	.st296{fill:url(#SVGID_283_);}
	.st297{fill:url(#SVGID_284_);}
	.st298{fill:url(#SVGID_285_);}
	.st299{fill:url(#SVGID_286_);}
	.st300{fill:url(#SVGID_287_);}
	.st301{fill:url(#SVGID_288_);}
	.st302{fill:url(#SVGID_289_);}
	.st303{fill:url(#SVGID_290_);}
	.st304{fill:url(#SVGID_291_);}
	.st305{fill:url(#SVGID_292_);}
	.st306{fill:url(#SVGID_293_);}
</style>
<g>
	<path class="st4" d="M134.9,56.3c-0.2-2.3-0.7-4.5-1.2-6.6c-0.5-2.1-1.1-4.1-1.7-6c-0.4-1.3-0.8-2.6-1.3-3.9
		c-0.2-0.6-0.5-1.3-0.8-1.9c-0.1-0.2-0.2-0.3-0.2-0.5l-0.2-0.4l-0.5-0.9c-1.3-2.4-2.6-4.8-4-7.1c-1.4-2.4-2.8-4.7-4.6-6.9
		c-1.7-2.2-3.7-4.2-5.9-5.8c-0.2-0.1-0.3-0.2-0.5-0.2c-0.1-0.3-0.3-0.3-0.4,0c0,0-0.1,0-0.1,0.1c-0.2,0.1-0.2,0.3-0.1,0.5
		c0,0.1,0,0.1,0,0.2c0,0.1-0.1,0.2-0.1,0.3c-0.2,0.8-0.3,1.7-0.5,2.5l-0.6-0.1c0,1.1-0.1,2.2-0.2,3.2c0,0.1-0.1,0.2-0.1,0.3
		c-0.3,1.2-0.7,2.4-1.1,3.7c-0.7,2.4-1.5,4.8-2.4,7.2c-0.9,2.4-1.8,4.7-2.9,7c-0.5,1.1-1.1,2.3-1.8,3.4c-0.6,1.1-1.3,2.2-2.1,3.2
		c-0.1,0.2-0.2,0.3-0.3,0.5c-0.5,0-1.1,0-1.6,0c-2.5,0-5-0.1-7.3-0.1c0,0,0,0,0-0.1c-0.4,0-0.8,0-1.2,0.1c-5.3-0.1-10.5,0-15.8,0.1
		c-2.8,0.1-5.6,0.2-8.5,0.4c-1.4,0.1-2.8,0.2-4.2,0.4c-0.3,0-0.7,0.1-1,0.1c0-0.1-0.1-0.1-0.1-0.1c-0.1-0.1-0.2-0.2-0.3-0.3
		c-0.1-0.1-0.2-0.2-0.3-0.4c-0.2-0.3-0.4-0.5-0.6-0.8c-0.4-0.5-0.7-1.1-1.1-1.7c-0.7-1.1-1.3-2.3-2-3.5c-1.3-2.3-2.4-4.7-3.5-7.1
		c-0.6-1.4-1.2-2.8-1.8-4.2c-0.1-0.3-0.1-0.6-0.2-1l-0.2,0c-1.3-3.2-2.4-6.5-3.3-10c-0.1-0.5-0.5-0.6-0.6-0.4c0-0.1-0.1-0.1-0.3-0.1
		c-0.5,0-1.1,0.2-1.6,0.4c-0.5,0.2-1,0.5-1.5,0.8c-0.9,0.6-1.8,1.4-2.6,2.3c-1.6,1.7-2.9,3.7-4.2,5.6l-0.5,0.7L37,29.6l0,0.1l0,0
		l-0.1,0.1l-0.2,0.4c-0.3,0.5-0.6,1.1-0.9,1.6c-0.6,1.1-1.1,2.1-1.5,3.2c-0.2,0.4-0.3,0.8-0.5,1.2c-0.4-0.3-0.9-0.4-1.4-0.3
		c-0.3,0.1-0.5,0.2-0.8,0.4c-0.2,0.2-0.4,0.5-0.5,0.8c-0.1,0.3-0.1,0.6-0.1,0.9c0,0.3,0.1,0.5,0.2,0.7c0.2,0.4,0.5,0.8,0.7,1.1
		c0.1,0.1,0.2,0.2,0.3,0.3c-0.1,0.3-0.2,0.7-0.4,1c-0.1,0.4-0.3,0.8-0.4,1.3c0,0,0,0,0,0c-0.5-0.3-1-0.5-1.6-0.4
		c-0.3,0-0.5,0.1-0.8,0.2c-0.3,0.1-0.6,0.3-0.8,0.6c-0.2,0.2-0.5,0.6-0.6,1c0,0.2-0.1,0.4,0,0.6c0,0.2,0.1,0.4,0.1,0.5
		c0.1,0.3,0.3,0.5,0.5,0.7c0.2,0.2,0.4,0.4,0.6,0.5c0.4,0.3,0.8,0.5,1.2,0.7c-0.1,0.4-0.2,0.8-0.3,1.3c-0.2-0.2-0.5-0.4-0.9-0.5
		c-0.3-0.1-0.7-0.2-1.2-0.1c-0.4,0-0.9,0.2-1.3,0.4c-0.4,0.2-0.8,0.6-1,1c-0.2,0.4-0.4,0.8-0.4,1.2c-0.1,0.4,0,0.8,0,1.2
		c0.1,0.7,0.5,1.4,0.8,1.9c0.2,0.4,0.5,0.7,0.8,1c0.1,0.1,0.2,0.1,0.3,0.2c0,0,0.1,0.1,0.1,0.1l0.1,0.1l0,0l0,0h0l0,0l0,0
		c0.2,0.1,0.4,0.2,0.6,0.3c0.2,0.1,0.5,0.2,0.8,0.3c0,0.4-0.1,0.7-0.1,1.1l-0.4,3.8c-0.1,1.3-0.2,2.6-0.1,3.9c0,0.2,0,0.3,0,0.5
		l0,0.2l0,0.1l0,0.1c0,0.3,0.1,0.7,0.1,1c0.1,0.7,0.4,1.3,0.9,1.9c0.2,0.3,0.5,0.5,0.8,0.7c0.3,0.2,0.7,0.4,1,0.5
		c0.3,0.1,0.7,0.2,1,0.2c0.3,0.1,0.7,0.1,0.9,0.2l0,0c0,0,0,0,0,0c1.2,0.2,2.4,0.4,3.5,0.6c0.3,0,0.9,0.2,1,0.3
		c0.2,0.2,1.1,0.7,1.1,0.6c0,0,0,0,0,0c0,0.1,0,0.2,0,0.4c0,1.1,0,2.6,0.1,4.7c0,1,0.1,2.2,0.3,3.6c0.1,1.4,0.4,2.8,0.6,4.2
		c0.2,1.4,0.5,2.9,0.7,4.3c0.2,1.6,0.6,3.3,0.9,5c0.2,0.8,0.5,2.1,0.9,3.6c0.4,1.6,1.1,3.5,1.9,5.7c0.4,1.1,0.9,2.2,1.4,3.4l0.8,1.8
		l0.8,1.9c0.6,1.3,1.2,2.7,2,4.2c0.8,1.5,1.8,3,2.9,4.4c0.6,0.7,1.2,1.4,1.8,2c0.2,0.2,0.3,0.3,0.5,0.5l0.1,0.1l0,0l0,0l0.1,0.1
		c0.1,0.1,0.2,0.2,0.3,0.2c0.2,0.1,0.3,0.2,0.4,0.2c0.2,0.1,0.5,0.2,0.7,0.3c0.2,0.1,0.4,0.2,0.7,0.3c0.9,0.4,1.7,0.7,2.5,1.1
		c0.8,0.3,1.7,0.7,2.6,1c1.8,0.7,3.7,1.4,5.8,2c1.9,0.5,3.9,1.1,6,1.5c2,0.4,4.1,0.8,6.3,1.1c1.1,0.1,2.1,0.2,3.2,0.3
		c0.5,0,1.1,0.1,1.6,0.1c0.3,0,0.6,0,0.8,0h0.4l0.2,0l0.2,0c1.2-0.1,2.3-0.2,3.4-0.4c1.1-0.2,2.2-0.4,3.2-0.7
		c2.1-0.5,4.2-1.1,6.3-1.8c2.3-0.8,4.5-1.6,6.7-2.6c1-0.5,2.1-0.9,3.2-1.6c0.3-0.2,0.5-0.3,0.8-0.5c0.3-0.2,0.5-0.4,0.8-0.7
		c0.4-0.4,0.9-0.8,1.3-1.2c0.8-0.8,1.6-1.7,2.4-2.7c0.7-1,1.4-2,1.9-2.9c1.1-2,2-3.8,2.9-5.5c0.9-1.8,1.8-3.7,2.5-5.6
		c0.7-2,1.3-4,1.7-5.8c0.4-1.9,0.7-3.6,1.1-5.3c0.3-1.8,0.5-3.5,0.7-5.1c0.2-1.6,0.3-3.1,0.5-4.5c0.2-1.4,0.4-2.7,0.6-4
		c0.1-0.7,0.2-1.3,0.2-1.9l0.1-0.9l0-0.2l0-0.2l0-0.1l0-0.4c0.1-1.1,0.1-2.1,0.2-3.1c0.1-1.8,0.2-3.3,0.2-4.3c0-0.5,0-0.9-0.1-1.1
		c0,0,0,0,0,0c0.8-0.2,1.2,0,2.6-0.9c1-0.6,2.1-0.9,3.1-1.6c0.5-0.4,0.9-0.8,1.3-1.3l0.1-0.2c0,0,0.1-0.1,0.2-0.3
		c0.1-0.2,0.2-0.4,0.3-0.6c0.1-0.4,0.2-0.7,0.3-1c0.1-0.6,0.1-1.2,0.1-1.8C135,57.5,135,56.9,134.9,56.3z M29.6,48.7
		c-0.4,1.8-0.6,3.6-0.8,5.3c-0.1,0-0.3-0.1-0.4-0.1c-0.1,0-0.2-0.1-0.2-0.1L28,53.7l0,0l0,0l0,0l0,0c0,0,0,0,0,0l0,0
		c-0.3-0.2-0.5-0.4-0.8-0.7c-0.4-0.4-0.7-0.9-0.9-1.5c-0.2-0.6-0.2-1.2,0-1.7c0.1-0.3,0.3-0.5,0.5-0.7c0.2-0.2,0.5-0.4,0.8-0.5
		C28.3,48.3,29,48.4,29.6,48.7C29.6,48.6,29.7,48.6,29.6,48.7C29.7,48.6,29.6,48.6,29.6,48.7z M30.6,44.9c-0.1,0.3-0.2,0.6-0.3,0.9
		c-0.1-0.1-0.3-0.1-0.4-0.2c-0.4-0.2-0.7-0.4-1-0.7c-0.1-0.1-0.2-0.3-0.2-0.5c0-0.2,0-0.4,0.1-0.5c0.1-0.2,0.3-0.3,0.5-0.5
		c0.2-0.1,0.4-0.2,0.6-0.3c0.4-0.1,0.8-0.2,1.3-0.2C31.1,43.5,30.8,44.2,30.6,44.9z M32.6,39c-0.1-0.1-0.1-0.2-0.2-0.3
		c-0.2-0.3-0.3-0.6-0.3-1c0-0.3,0.2-0.7,0.5-0.9c0.2-0.2,0.5-0.2,0.8-0.2C33.2,37.5,32.9,38.2,32.6,39z"/>
	<path class="st26" d="M133.2,60.1c-0.1,0.3-0.1,0.5-0.3,0.7c-0.2,0.2-0.3,0.4-0.5,0.6c-0.7,0.8-1.6,1.6-2.6,2.1
		c-1,0.5-2.6,1-3.7,1.2c-0.3,0.1-0.1,0.6,0.3,0.8c-0.1,0.2-0.3,0.6-0.4,1.1c-0.3,1-0.6,2.4-0.8,4.3c-0.1,0.9-0.3,2-0.4,3.1l0,0.4
		l0,0.1l0,0l0,0l0,0.2l-0.1,0.8c-0.1,0.6-0.2,1.2-0.3,1.8c-0.2,1.3-0.4,2.7-0.6,4.3c-0.2,1.6-0.3,3.2-0.5,4.8
		c-0.2,1.6-0.4,3.3-0.6,4.9c-0.3,1.8-0.6,3.6-1,5.5c-0.4,1.8-0.8,3.6-1.5,5.4c-0.7,1.8-1.5,3.7-2.5,5.7c-1,2-2,4.1-3,5.8
		c-0.5,0.9-1.1,1.8-1.7,2.5c-0.6,0.8-1.4,1.6-2.1,2.4c-0.4,0.4-0.8,0.8-1.2,1.2c-0.4,0.4-0.9,0.7-1.5,1c-1,0.6-2.1,1.1-3.3,1.5
		c-2.2,0.9-4.4,1.7-6.6,2.4c-2,0.6-4.1,1.1-6.2,1.6c-1,0.2-2.1,0.4-3.1,0.6c-1,0.1-2.1,0.3-3.2,0.3c-2.1,0-4.2-0.2-6.3-0.5
		c-2.1-0.3-4.1-0.7-6-1.2c-2-0.5-3.9-1-5.8-1.6c-1.8-0.5-3.5-1.2-5.3-1.9c-1.7-0.7-3.6-1.5-5.2-2.2c-0.2-0.1-0.4-0.2-0.6-0.3
		c-0.2-0.1-0.4-0.2-0.5-0.3c0,0-0.1,0-0.1-0.1l0,0c0,0,0,0,0,0l0,0l0,0c-0.1,0,0.1-0.1,0.1,0h0l-0.1-0.1l-0.2-0.2
		c-0.1-0.1-0.3-0.3-0.4-0.5c-0.6-0.6-1.1-1.3-1.6-1.9c-0.5-0.6-0.9-1.3-1.3-1.9c-0.4-0.6-0.7-1.2-1.1-1.9c-0.7-1.3-1.2-2.6-1.8-3.9
		l-0.8-2l-0.4-1l-0.4-0.9c-0.5-1.1-0.9-2.2-1.3-3.3c-0.8-2.1-1.4-3.9-1.8-5.4c-0.4-1.5-0.7-2.7-0.9-3.5c-0.4-1.7-0.7-3.3-1-4.9
		c-0.3-1.7-0.6-3.3-0.9-4.7c-0.3-1.4-0.5-2.6-0.8-3.8c-0.2-1.1-0.4-2.2-0.5-3.2c-0.3-2-0.6-3.7-1-4.9c-0.3-1.2-0.6-1.8-0.8-1.8
		c0,0-0.1,0-0.1,0.1c-0.3-0.1-1.6-0.6-1.8-0.7c-1.1-0.4-2.3-0.7-3.5-1.1c-0.2-0.1-0.4-0.1-0.5-0.2c-0.2,0-0.3-0.1-0.4-0.1
		c-0.3-0.1-0.5-0.1-0.7-0.2c-0.4-0.1-0.7-0.3-0.9-0.4c-0.2-0.2-0.4-0.4-0.5-0.7c-0.1-0.3-0.3-0.7-0.3-1.1c0-0.2-0.1-0.4-0.1-0.6
		l0-0.1l0,0l0-0.1l0-0.2l0-0.3c0-0.5-0.1-0.9-0.1-1.4c0-0.9,0-1.9,0.1-2.9l0.1-1.1l0-0.5l0-0.5c0.1-0.7,0.1-1.4,0.2-2.1
		c0-0.1,0-0.2,0-0.3c0.1,0,0.1,0,0.2,0c0.5-0.1,0.9-0.2,1.3-0.4c0.4-0.2,0.8-0.5,1.1-0.9s0.4-0.8,0.4-1.3c0-0.4-0.1-0.9-0.3-1.2
		c-0.1-0.1-0.3-0.2-0.4-0.1c-0.2,0-0.3,0.2-0.3,0.3c0,0.3-0.1,0.6-0.1,0.8c-0.1,0.2-0.2,0.4-0.3,0.6c-0.1,0.2-0.3,0.3-0.5,0.5
		c-0.2,0.1-0.4,0.3-0.7,0.4c-0.1,0-0.1,0-0.2,0.1c0.1-0.9,0.2-1.7,0.3-2.5c0.2-1.4,0.4-2.7,0.7-4.1c0.3,0.1,0.6,0.1,0.9,0.1
		c0.3,0,0.7,0,1-0.1c0.3-0.1,0.7-0.3,0.9-0.5c0.3-0.2,0.4-0.6,0.5-0.9c0.1-0.3,0.1-0.6,0-0.9c0-0.1-0.2-0.2-0.4-0.2
		c-0.2,0-0.4,0-0.4,0.1c-0.1,0.2-0.2,0.4-0.4,0.5c-0.1,0.1-0.2,0.2-0.3,0.3c-0.1,0.1-0.1,0.1-0.2,0.2c-0.1,0.1-0.3,0.1-0.5,0.1
		c-0.3,0-0.6,0-0.9,0c0.1-0.3,0.2-0.6,0.2-0.9c0.1-0.3,0.2-0.7,0.3-1l0.3-1c0.2-0.7,0.5-1.5,0.7-2.2c0.4,0.2,0.8,0.3,1.3,0.4
		c0.3,0,0.6,0,0.9-0.1c0.3-0.1,0.5-0.3,0.7-0.4c0.4-0.4,0.6-0.8,0.8-1.3c0-0.2-0.5-0.4-0.7-0.4c-0.4,0.2-0.7,0.4-0.9,0.6
		c-0.2,0.2-0.4,0.3-0.6,0.3c-0.2,0.1-0.6,0-0.9-0.1c-0.1,0-0.2-0.1-0.2-0.1c0.4-1.1,0.8-2.2,1.2-3.2c0.9-2.1,1.9-4.2,3.1-6.2
		l0.9-1.5c0.3-0.5,0.6-1,1-1.5c0.6-1,1.3-1.9,2-2.9c0.7-0.9,1.5-1.8,2.3-2.7c0.4-0.4,0.9-0.8,1.3-1.2c0.4-0.3,0.8-0.5,1.2-0.7
		c0,0.1,0,0.1,0,0.2c-0.1,0-0.2,0.2-0.3,0.5c-0.4,3.7-0.1,7.5,0.4,11.3c0.5,4.1,1.2,8.2,2.4,12.2c0.5,1.6,1.1,3.2,1.7,4.8
		c0.3,0.8,0.6,1.6,1,2.3c0.3,0.7,0.6,1.4,0.8,2.1c-0.8,0.3-1.5,0.6-2.3,0.9c-0.8,0.4-1.6,0.8-2.4,1.2c-0.8,0.4-1.5,0.9-2.2,1.5
		c-0.7,0.5-1.4,1.1-2,1.8C44,59.2,44,59.2,44,59.3c0,0.1,0,0.1,0,0.2c0.1,0.1,0.2,0.1,0.3,0c1.3-0.9,2.7-1.7,4.3-2.5
		c0.8-0.4,1.6-0.8,2.4-1.2c0.4-0.2,0.8-0.4,1.3-0.5c0.2-0.1,0.4-0.2,0.6-0.3l0.3-0.1l0.3-0.1l0.1,0c0.5-0.2,0.7-0.6,0.6-1.1
		c-0.2-0.8-0.5-1.5-0.8-2.2l-0.9-2.1c-0.6-1.4-1.1-2.7-1.5-3.9c-1.2-3.9-1.8-8-2.3-12.1c-0.3-2.5-0.5-5-0.7-7.5
		c0.1,0.7,0.3,1.3,0.4,2c0.2,1.2,0.5,2.3,0.8,3.5c0.1,0.6,0.3,1.2,0.4,1.8c0.1,0.3,0.1,0.6,0.2,0.9l0.2,0.9c0.7,2.3,1.5,4.7,2.4,6.9
		s2,4.5,3.3,6.6c0.2,0.4,0.5,0.8,0.7,1.2c0.1,0.2,0.3,0.4,0.4,0.6l0.2,0.3l0.1,0.2l0.1,0.2l0,0c0.3,0.5,1,0.6,1.6,0.4
		c0.2-0.1,0.5-0.2,0.7-0.2c0.3-0.1,0.6-0.1,0.8-0.2c0.6-0.1,1.2-0.2,1.8-0.3c1.2-0.2,2.5-0.3,3.7-0.4c1.7-0.1,3.4-0.2,5.2-0.3
		c0.5,1.4,0.9,2.8,1.3,4.2c0.2,0.8,0.4,1.7,0.6,2.5c0.2,0.8,0.4,1.7,0.5,2.5c0,0.1,0.2,0.3,0.5,0.3c0.2,0,0.5,0,0.6-0.2
		c0.4-0.8,0.5-1.7,0.4-2.5c-0.1-0.8-0.3-1.6-0.6-2.4c-0.5-1.5-1-3-1.6-4.4c0.2,0,0.5,0,0.7,0c1.1,0,2.2-0.1,3.3-0.1
		c0.2,0.6,0.4,1.1,0.5,1.7c0.5,2.1,0.9,4.2,1.2,6.2l0.4,3.1c0.1,1,0.3,2.1,0.4,3.1c0,0.2,0.2,0.3,0.5,0.4c0.2,0,0.5,0,0.6-0.2
		c0.4-1,0.5-2,0.5-3c0-1-0.2-2-0.4-3c-0.4-2.1-0.8-4.2-1.4-6.3c-0.2-0.7-0.4-1.4-0.7-2.1c1,0,1.9,0,2.9-0.1c0.5,1.6,1.1,3.1,1.4,4.5
		c0.5,2.3,0.7,4.5,1,6.8c0.2,2.3,0.4,4.6,0.7,6.9c0,0.4,0.9,0.6,1,0.1c0.4-1,0.5-2.1,0.5-3.2c0-1.1-0.2-2.2-0.3-3.2
		c-0.3-2.3-0.7-4.6-1.2-6.9c-0.4-1.7-0.9-3.4-1.4-5c1.2,0,2.4,0,3.6,0c0.4,1.4,0.8,2.7,1,3.9c0.3,2.3,0.4,4.6,0.6,7
		c0.1,2.3,0.2,4.7,0.5,7c0,0.4,0.9,0.5,1,0.1c0.7-2.1,0.5-4.3,0.3-6.4c-0.2-2.3-0.4-4.7-0.8-7c-0.3-1.5-0.6-3-1-4.5
		c0.2,0,0.3,0,0.5,0c0.8,0,1.7,0,2.5,0c0.1,0.3,0.1,0.5,0.2,0.8c0.5,2.1,0.8,4.2,1.1,6.3c0.1,1,0.2,2.1,0.3,3.1
		c0.1,1,0.1,2.1-0.1,3.1c0,0.2,0.1,0.4,0.3,0.5c0.2,0.1,0.5,0.1,0.6-0.1c0.3-0.5,0.6-1,0.7-1.5c0.1-0.5,0.2-1,0.2-1.6
		c0-1-0.1-2.1-0.2-3c-0.3-2.2-0.8-4.3-1.3-6.3c-0.1-0.4-0.2-0.8-0.3-1.2c1.3,0,2.6,0,3.9,0c0.2,1.3,0.4,2.6,0.6,4l0.3,2.7l0.2,1.3
		c0,0.4,0.1,0.9,0.1,1.3c0,0.2,0.2,0.3,0.4,0.4c0.2,0.1,0.5,0,0.6-0.1c0.2-0.4,0.4-0.9,0.5-1.3c0.1-0.4,0.1-0.9,0.1-1.3
		c0-0.9-0.2-1.7-0.3-2.5c-0.3-1.4-0.5-2.9-0.8-4.3c1.5,0,3.1,0.1,4.6,0.1c0.8,0,1.6,0.1,2.3,0.1c0.8,0,1.5,0.1,2.3,0.2l0,0
		c0.2,0,0.4-0.1,0.5-0.3c1.8-5.3,3.3-10.6,4.3-16.1c0.5-2.7,0.9-5.5,1.2-8.3c0-0.4,0.1-0.7,0.1-1.1c0-0.1,0-0.1,0-0.2
		c0,0.5,0,1,0.1,1.6c0.1,3.2,0.3,6.5,0.1,9.4c-0.2,2.7-0.5,5.4-0.8,8.2c-0.2,1.4-0.4,2.7-0.6,4.1c-0.2,1.4-0.4,2.7-0.6,4.1v0
		c0,0.2,0.1,0.3,0.3,0.4c0.3,0.1,0.6,0.2,0.9,0.3c0.3,0.1,0.6,0.3,0.8,0.5c0.6,0.3,1.1,0.7,1.6,1.1c1,0.8,2,1.7,2.9,2.6
		c0.2,0.3,0.5,0.4,0.7,0.3c0.2,0,0.3-0.3,0.1-0.6c-0.7-1.2-1.6-2.3-2.7-3.2c-0.5-0.5-1.1-0.9-1.7-1.3c-0.3-0.2-0.6-0.4-1-0.6
		c-0.1,0-0.2-0.1-0.3-0.1l0.3-2.4c0.5-4,1-8,1.2-12c0.2-3.3,0.2-6.6,0.1-9.9c-0.1-1.6-0.1-3.2-0.3-4.9c0-0.4-0.1-0.8-0.1-1.2
		c0-0.1,0.1-0.2,0.1-0.4l-0.1,0c0-0.3-0.1-0.6-0.1-0.8c-0.1-0.5-0.2-1.1-0.3-1.6c1.5,1.6,2.9,3.3,4.2,5c1.5,1.9,2.9,3.9,4.2,6
		c1.4,2.3,2.8,4.6,4.1,7l1,1.8l0.5,0.9l0.1,0.2l0.1,0.2c0.1,0.1,0.1,0.3,0.2,0.4c0.6,1.1,1,2.4,1.5,3.6c0.7,2.1,1.4,4.2,1.9,6.3
		c0.5,2.1,1,4.2,1.3,6.4c0.1,1.1,0.2,2.1,0.2,3.2C133.4,59,133.3,59.6,133.2,60.1z"/>
	<polygon points="27.9,53.7 27.9,53.7 27.9,53.7 	"/>
	<linearGradient id="SVGID_1_" gradientUnits="userSpaceOnUse" x1="107.6394" y1="41.0222" x2="109.2502" y2="41.0222">
		<stop  offset="0" style="stop-color:#EF537A"/>
		<stop  offset="1" style="stop-color:#4A3D97"/>
	</linearGradient>
	<path class="st3" d="M108.1,41.9c0.4-1,0.8-2,1.2-3.1c-0.2,0.8-0.5,1.6-0.8,2.4c-0.2,0.7-0.5,1.3-0.8,2
		C107.8,42.8,107.9,42.3,108.1,41.9z"/>
	<linearGradient id="SVGID_2_" gradientUnits="userSpaceOnUse" x1="106.1376" y1="47.8576" x2="107.0859" y2="47.8576">
		<stop  offset="0" style="stop-color:#EF537A"/>
		<stop  offset="1" style="stop-color:#4A3D97"/>
	</linearGradient>
	<path class="st8" d="M107.1,47.2c-0.1,0.4-0.3,0.8-0.4,1.3c-0.2,0-0.4,0-0.5,0C106.5,48,106.8,47.6,107.1,47.2z"/>
	<linearGradient id="SVGID_3_" gradientUnits="userSpaceOnUse" x1="102.4851" y1="46.0971" x2="105.8336" y2="46.0971">
		<stop  offset="0" style="stop-color:#EF537A"/>
		<stop  offset="1" style="stop-color:#4A3D97"/>
	</linearGradient>
	<path class="st9" d="M105.8,43.9c-0.5,1.4-0.9,2.8-1.3,4.2c-0.1,0.1-0.2,0.2-0.3,0.3c-0.2,0-0.5,0-0.7,0c-0.4,0-0.7,0-1.1,0
		C103.8,46.9,104.9,45.4,105.8,43.9z"/>
	<linearGradient id="SVGID_4_" gradientUnits="userSpaceOnUse" x1="57.7546" y1="48.9261" x2="59.4561" y2="48.9261">
		<stop  offset="0" style="stop-color:#EF537A"/>
		<stop  offset="1" style="stop-color:#4A3D97"/>
	</linearGradient>
	<path class="st10" d="M58,48.4c0.5,0.4,1,0.7,1.5,1.1c0,0-0.1,0-0.1,0c-0.2,0.1-0.4,0.1-0.6,0.2c0,0,0,0,0,0l-0.3-0.4
		c-0.2-0.3-0.3-0.5-0.5-0.8c0-0.1-0.1-0.1-0.1-0.2C57.8,48.3,57.9,48.3,58,48.4z"/>
	<path d="M38.7,70.6L38.7,70.6C38.7,70.6,38.7,70.6,38.7,70.6L38.7,70.6z"/>
	<g>
		<linearGradient id="SVGID_5_" gradientUnits="userSpaceOnUse" x1="69.1613" y1="106.7126" x2="70.7289" y2="106.7126">
			<stop  offset="0" style="stop-color:#F05B42"/>
			<stop  offset="1" style="stop-color:#F9A54F"/>
		</linearGradient>
		<path class="st11" d="M70,104.9c-0.1,0-0.3,0-0.4,0.1c-0.1,0.1-0.2,0.3-0.3,0.5c-0.1,0.4-0.2,0.8-0.2,1.1c0,0.4,0,0.7,0.1,1
			c0,0.2,0.1,0.4,0.2,0.6c0.1,0.2,0.2,0.3,0.3,0.4c0,0,0,0,0.1,0l0,0h0h0c0,0,0.1,0,0.1,0c0.1,0,0.1,0,0.2-0.1
			c0.1-0.1,0.2-0.2,0.3-0.4c0.2-0.3,0.2-0.8,0.3-1.2c0-0.2,0-0.4,0-0.6c0,0,0-0.1,0-0.2l0-0.1c0,0,0-0.1,0-0.1
			c0-0.1-0.1-0.2-0.1-0.2c0,0,0,0-0.1,0c0,0,0,0,0,0s0,0,0,0c0,0,0,0,0-0.1C70.4,105.3,70.3,104.9,70,104.9z"/>
		<linearGradient id="SVGID_6_" gradientUnits="userSpaceOnUse" x1="74.8941" y1="105.7676" x2="76.4622" y2="105.7676">
			<stop  offset="0" style="stop-color:#F05B42"/>
			<stop  offset="1" style="stop-color:#F9A54F"/>
		</linearGradient>
		<path class="st13" d="M75.8,103.9c-0.1,0-0.3,0-0.4,0.1c-0.1,0.1-0.2,0.3-0.3,0.5c-0.1,0.4-0.2,0.8-0.2,1.1c0,0.4,0,0.7,0.1,1
			c0,0.2,0.1,0.4,0.2,0.6c0.1,0.2,0.2,0.3,0.4,0.4c0,0,0,0,0.1,0l0,0h0l0,0c0,0,0.1,0,0.1,0c0.1,0,0.1-0.1,0.2-0.1
			c0.1-0.1,0.2-0.2,0.3-0.4c0.2-0.3,0.2-0.8,0.3-1.2c0-0.2,0-0.4,0-0.6c0,0,0-0.1,0-0.1l0-0.1c0,0,0-0.1,0-0.1
			c0-0.1-0.1-0.2-0.1-0.2c0,0,0,0-0.1,0c0,0,0,0,0,0h0c0,0,0,0,0-0.1C76.2,104.3,76,104,75.8,103.9z"/>
		<linearGradient id="SVGID_7_" gradientUnits="userSpaceOnUse" x1="71.9494" y1="113.2377" x2="73.8073" y2="113.2377">
			<stop  offset="0" style="stop-color:#F05B42"/>
			<stop  offset="1" style="stop-color:#F9A54F"/>
		</linearGradient>
		<path class="st15" d="M73,111c-0.2-0.1-0.3,0-0.5,0.1c-0.2,0.1-0.3,0.4-0.3,0.6c-0.1,0.4-0.2,0.9-0.2,1.3c0,0.4,0,0.8,0.1,1.2
			c0,0.2,0.1,0.5,0.2,0.7c0.1,0.2,0.3,0.4,0.4,0.5c0,0,0,0,0.1,0l0,0l0,0h0c0,0,0.1,0,0.1,0c0.1,0,0.2-0.1,0.2-0.1
			c0.1-0.1,0.3-0.3,0.4-0.5c0.2-0.4,0.3-0.9,0.3-1.4c0-0.2,0-0.5,0-0.7c0-0.1,0-0.1,0-0.2l0-0.1c0,0,0-0.1,0-0.1
			c0-0.1-0.1-0.2-0.1-0.3c0,0,0,0-0.1,0c0,0,0,0,0,0c0,0,0,0,0,0c0,0,0,0,0-0.1C73.5,111.6,73.3,111.1,73,111z"/>
		<linearGradient id="SVGID_8_" gradientUnits="userSpaceOnUse" x1="77.6709" y1="110.616" x2="79.3949" y2="110.616">
			<stop  offset="0" style="stop-color:#F05B42"/>
			<stop  offset="1" style="stop-color:#F9A54F"/>
		</linearGradient>
		<path class="st16" d="M78.6,108.6c-0.1,0-0.3,0-0.5,0.1c-0.1,0.1-0.2,0.3-0.3,0.5c-0.1,0.4-0.2,0.8-0.2,1.2c0,0.4,0,0.8,0.1,1.1
			c0,0.2,0.1,0.5,0.2,0.7c0.1,0.2,0.2,0.4,0.4,0.4c0,0,0,0,0.1,0l0,0h0h0c0,0,0.1,0,0.1,0c0.1,0,0.1-0.1,0.2-0.1
			c0.1-0.1,0.2-0.3,0.3-0.5c0.2-0.4,0.3-0.8,0.3-1.3c0-0.2,0-0.4,0-0.7c0-0.1,0-0.1,0-0.2l0-0.1c0,0,0-0.1,0-0.1
			c0-0.1-0.1-0.2-0.1-0.3c0,0,0,0-0.1,0c0,0,0,0,0,0c0,0,0,0,0,0c0,0,0,0,0-0.1C79.1,109.1,78.9,108.7,78.6,108.6z"/>
		<linearGradient id="SVGID_9_" gradientUnits="userSpaceOnUse" x1="66.3345" y1="113.965" x2="68.1923" y2="113.965">
			<stop  offset="0" style="stop-color:#F05B42"/>
			<stop  offset="1" style="stop-color:#F9A54F"/>
		</linearGradient>
		<path class="st17" d="M67.4,111.8c-0.2,0-0.3,0-0.5,0.1c-0.2,0.1-0.3,0.4-0.3,0.6c-0.1,0.4-0.2,0.9-0.2,1.3c0,0.4,0,0.8,0.1,1.2
			c0,0.2,0.1,0.5,0.2,0.7c0.1,0.2,0.3,0.4,0.4,0.5c0,0,0,0,0.1,0l0,0h0h0c0,0,0.1,0,0.1,0c0.1,0,0.2-0.1,0.2-0.1
			c0.1-0.1,0.3-0.3,0.4-0.5c0.2-0.4,0.3-0.9,0.3-1.4c0-0.2,0-0.5,0-0.7c0-0.1,0-0.1,0-0.2l0-0.1c0,0,0-0.1,0-0.1
			c0-0.1-0.1-0.2-0.1-0.3c0,0,0,0-0.1,0c0,0,0,0,0,0s0,0,0,0c0,0,0,0,0-0.1C67.8,112.3,67.7,111.9,67.4,111.8z"/>
		<linearGradient id="SVGID_10_" gradientUnits="userSpaceOnUse" x1="99.8025" y1="104.9784" x2="101.3689" y2="104.9784">
			<stop  offset="0" style="stop-color:#F05B42"/>
			<stop  offset="1" style="stop-color:#F9A54F"/>
		</linearGradient>
		<path class="st18" d="M100.1,104C100,104,100,104,100.1,104c-0.1,0.1-0.1,0.1-0.2,0.2c0,0,0,0.1,0,0.1l0,0.1c0,0,0,0.1,0,0.1
			c0,0.2,0,0.4,0,0.6c0,0.4,0.1,0.8,0.3,1.2c0.1,0.2,0.2,0.3,0.3,0.4c0.1,0,0.1,0.1,0.2,0.1c0,0,0.1,0,0.1,0l0,0h0l0,0c0,0,0,0,0,0
			c0.1,0,0.3-0.2,0.4-0.4c0.1-0.2,0.1-0.4,0.2-0.6c0-0.3,0.1-0.6,0.1-1c0-0.4,0-0.7-0.2-1.1c-0.1-0.2-0.2-0.4-0.3-0.5
			c-0.1-0.1-0.3-0.2-0.4-0.1C100.2,103.2,100.1,103.6,100.1,104C100.1,103.9,100.1,103.9,100.1,104C100.1,104,100.1,104,100.1,104
			C100.1,104,100.1,104,100.1,104z"/>
		<linearGradient id="SVGID_11_" gradientUnits="userSpaceOnUse" x1="94.0674" y1="104.0311" x2="95.6339" y2="104.0311">
			<stop  offset="0" style="stop-color:#F05B42"/>
			<stop  offset="1" style="stop-color:#F9A54F"/>
		</linearGradient>
		<path class="st19" d="M94.3,103C94.3,103,94.3,103,94.3,103c-0.1,0.1-0.1,0.2-0.2,0.2c0,0,0,0.1,0,0.1l0,0.1c0,0,0,0.1,0,0.2
			c0,0.2,0,0.4,0,0.6c0,0.4,0.1,0.8,0.3,1.2c0.1,0.2,0.2,0.3,0.3,0.4c0.1,0,0.1,0.1,0.2,0.1c0,0,0.1,0,0.1,0h0h0l0,0c0,0,0,0,0,0
			c0.1,0,0.3-0.2,0.4-0.4c0.1-0.2,0.1-0.4,0.2-0.6c0-0.3,0.1-0.6,0.1-1c0-0.4,0-0.7-0.2-1.1c-0.1-0.2-0.2-0.4-0.3-0.5
			c-0.1-0.1-0.3-0.2-0.4-0.1C94.5,102.3,94.4,102.6,94.3,103C94.3,103,94.3,103,94.3,103L94.3,103C94.3,103,94.3,103,94.3,103z"/>
		<linearGradient id="SVGID_12_" gradientUnits="userSpaceOnUse" x1="96.7196" y1="111.5009" x2="98.5786" y2="111.5009">
			<stop  offset="0" style="stop-color:#F05B42"/>
			<stop  offset="1" style="stop-color:#F9A54F"/>
		</linearGradient>
		<path class="st20" d="M97,110.3C97,110.3,97,110.3,97,110.3c-0.1,0.1-0.2,0.2-0.2,0.3c0,0,0,0.1,0,0.1l0,0.1c0,0.1,0,0.1,0,0.2
			c0,0.2,0,0.5,0,0.7c0,0.5,0.1,1,0.3,1.4c0.1,0.2,0.2,0.4,0.4,0.5c0.1,0.1,0.1,0.1,0.2,0.1c0,0,0.1,0,0.1,0h0h0l0,0c0,0,0,0,0.1,0
			c0.2-0.1,0.3-0.2,0.4-0.5c0.1-0.2,0.2-0.5,0.2-0.7c0.1-0.4,0.1-0.7,0.1-1.2c0-0.4,0-0.9-0.2-1.3c-0.1-0.2-0.2-0.4-0.3-0.6
			c-0.2-0.1-0.3-0.2-0.5-0.1c-0.3,0.1-0.5,0.5-0.5,0.9C97,110.3,97,110.3,97,110.3C97,110.3,97,110.3,97,110.3
			C97,110.3,97,110.3,97,110.3z"/>
		<linearGradient id="SVGID_13_" gradientUnits="userSpaceOnUse" x1="91.133" y1="108.8828" x2="92.8571" y2="108.8828">
			<stop  offset="0" style="stop-color:#F05B42"/>
			<stop  offset="1" style="stop-color:#F9A54F"/>
		</linearGradient>
		<path class="st21" d="M91.4,107.8C91.4,107.8,91.4,107.8,91.4,107.8c-0.1,0.1-0.2,0.2-0.2,0.3c0,0,0,0.1,0,0.1l0,0.1
			c0,0.1,0,0.1,0,0.2c0,0.2,0,0.5,0,0.7c0,0.4,0.1,0.9,0.3,1.3c0.1,0.2,0.2,0.3,0.3,0.5c0.1,0.1,0.1,0.1,0.2,0.1c0,0,0.1,0,0.1,0
			l0,0h0l0,0c0,0,0,0,0.1,0c0.2,0,0.3-0.2,0.4-0.4c0.1-0.2,0.2-0.4,0.2-0.7c0.1-0.3,0.1-0.7,0.1-1.1c0-0.4,0-0.8-0.2-1.2
			c-0.1-0.2-0.2-0.4-0.3-0.5c-0.1-0.1-0.3-0.2-0.5-0.1C91.6,106.9,91.5,107.3,91.4,107.8C91.4,107.7,91.4,107.7,91.4,107.8
			C91.4,107.8,91.4,107.8,91.4,107.8C91.4,107.8,91.4,107.8,91.4,107.8z"/>
		<linearGradient id="SVGID_14_" gradientUnits="userSpaceOnUse" x1="102.3358" y1="112.2304" x2="104.1957" y2="112.2304">
			<stop  offset="0" style="stop-color:#F05B42"/>
			<stop  offset="1" style="stop-color:#F9A54F"/>
		</linearGradient>
		<path class="st22" d="M102.6,111.1C102.6,111.1,102.6,111.1,102.6,111.1c-0.1,0.1-0.2,0.2-0.2,0.3c0,0,0,0.1,0,0.1l0,0.1
			c0,0.1,0,0.1,0,0.2c0,0.2,0,0.5,0,0.7c0,0.5,0.1,1,0.3,1.4c0.1,0.2,0.2,0.4,0.4,0.5c0.1,0.1,0.1,0.1,0.2,0.1c0,0,0.1,0,0.1,0h0
			l0,0l0,0c0,0,0,0,0.1,0c0.2,0,0.3-0.2,0.4-0.5c0.1-0.2,0.2-0.5,0.2-0.7c0.1-0.4,0.1-0.7,0.1-1.2c0-0.4,0-0.9-0.2-1.3
			c-0.1-0.2-0.2-0.4-0.3-0.6c-0.1-0.1-0.3-0.2-0.5-0.1c-0.3,0.1-0.5,0.5-0.5,0.9C102.7,111,102.7,111,102.6,111.1
			C102.7,111,102.7,111,102.6,111.1C102.7,111,102.7,111,102.6,111.1z"/>
		<linearGradient id="SVGID_15_" gradientUnits="userSpaceOnUse" x1="56.06" y1="119.352" x2="56.0638" y2="119.352">
			<stop  offset="0" style="stop-color:#F05B42"/>
			<stop  offset="1" style="stop-color:#F9A54F"/>
		</linearGradient>
		<path class="st23" d="M56.1,119.4L56.1,119.4C56.1,119.4,56.1,119.4,56.1,119.4C56.1,119.4,56.1,119.4,56.1,119.4z"/>
	</g>
	<path d="M37.6,70L37.6,70L37.6,70L37.6,70l0-0.1C37.6,69.9,37.6,69.9,37.6,70L37.6,70z"/>
	<path d="M37.6,69.9L37.6,69.9C37.6,69.9,37.6,69.9,37.6,69.9z"/>
	<linearGradient id="SVGID_16_" gradientUnits="userSpaceOnUse" x1="94.5523" y1="68.8763" x2="105.5642" y2="68.8763">
		<stop  offset="0" style="stop-color:#EF537A"/>
		<stop  offset="1" style="stop-color:#4A3D97"/>
	</linearGradient>
	<path class="st24" d="M95.2,65.9c-1,1.3-0.7,2.8,0.2,4.1c0.5,0.6,1.1,1.2,1.8,1.6c0.7,0.4,1.4,0.7,2.2,0.9c0.5,0.1,1,0.2,1.5,0.1
		c0.5,0,1-0.2,1.5-0.4c0.9-0.4,1.6-1.1,2.1-1.9c0.5-0.8,0.8-1.6,1-2.4c0.2-0.8,0.2-1.7,0.1-2.5c0-0.3-0.9-0.4-1-0.1
		c-0.4,0.7-0.6,1.3-0.8,2c-0.2,0.6-0.3,1.3-0.6,1.8c-0.3,0.6-0.7,1.2-1.2,1.5c-0.5,0.4-1,0.6-1.7,0.6c-0.5,0-1.1-0.1-1.7-0.4
		c-0.6-0.3-1.1-0.7-1.5-1.2c-0.9-1-1.3-2.3-1.3-3.7C95.7,65.7,95.3,65.7,95.2,65.9z"/>
	<linearGradient id="SVGID_17_" gradientUnits="userSpaceOnUse" x1="64.2888" y1="68.8763" x2="75.2997" y2="68.8763">
		<stop  offset="0" style="stop-color:#EF537A"/>
		<stop  offset="1" style="stop-color:#4A3D97"/>
	</linearGradient>
	<path class="st25" d="M64.9,65.9c-1,1.3-0.7,2.8,0.2,4.1c0.5,0.6,1.1,1.2,1.8,1.6c0.7,0.4,1.4,0.7,2.2,0.9c0.5,0.1,1,0.2,1.5,0.1
		c0.5,0,1-0.2,1.5-0.4c0.9-0.4,1.6-1.1,2.1-1.9c0.5-0.8,0.8-1.6,1-2.4c0.2-0.8,0.2-1.7,0.1-2.5c0-0.3-0.9-0.4-1-0.1
		c-0.4,0.7-0.6,1.3-0.8,2c-0.2,0.6-0.3,1.3-0.6,1.8c-0.3,0.6-0.7,1.2-1.2,1.5c-0.5,0.4-1.1,0.6-1.7,0.6c-0.5,0-1.1-0.1-1.7-0.4
		c-0.6-0.3-1.1-0.7-1.5-1.2c-0.9-1-1.3-2.3-1.3-3.7C65.5,65.7,65,65.7,64.9,65.9z"/>
	<linearGradient id="SVGID_18_" gradientUnits="userSpaceOnUse" x1="63.1535" y1="99.3804" x2="106.8778" y2="99.3804">
		<stop  offset="0" style="stop-color:#EF537A"/>
		<stop  offset="1" style="stop-color:#4A3D97"/>
	</linearGradient>
	<path class="st27" d="M63.3,114.9c-0.1,0-0.2,0.1-0.1,0.4c0.2,0.7,0.4,1.4,0.7,2.1c0.3,0.7,0.8,1.4,1.4,2c0.6,0.6,1.3,1.1,2.2,1.5
		c0.3,0.1,0.6,0.3,0.9,0.4c-0.1,0.1,0.2,0.3,1,0.4c1,0.1,2.1,0.2,3.1,0.1c1.1-0.1,2.1-0.2,3.2-0.5c1-0.3,2.1-0.7,3-1.3
		c0.9-0.6,1.8-1.3,2.5-2c0.7-0.8,1.4-1.6,2-2.5c0.6-0.9,1-1.8,1.4-2.7c0.8-1.9,1.3-3.8,1.7-5.8c0.1-0.7,0.3-1.5,0.4-2.2
		c0,0.2,0,0.5,0.1,0.7c0.2,1.8,0.6,3.6,1.1,5.4c0.3,0.9,0.6,1.7,1.1,2.6c0.4,0.8,1,1.6,1.6,2.4c0.6,0.7,1.3,1.4,2.1,2s1.7,1,2.6,1.4
		c0.9,0.3,1.8,0.5,2.8,0.7c0.9,0.1,1.9,0.1,2.8,0.1c0.7-0.1,1-0.2,0.9-0.4c0.3-0.1,0.6-0.2,0.8-0.3c0.8-0.3,1.5-0.8,2-1.3
		c0.6-0.5,1-1.1,1.4-1.7c0.3-0.6,0.6-1.2,0.8-1.9c0.1-0.3,0-0.4-0.1-0.4c-0.1,0-0.3,0.2-0.4,0.5c-0.3,0.7-0.7,1.4-1.3,2
		c-0.5,0.6-1.1,1.1-1.8,1.5c-0.7,0.4-1.5,0.6-2.3,0.7c-0.8,0.1-1.6,0.1-2.4-0.1c-1.6-0.3-3-1-4.3-1.9c-1.3-0.9-2.4-2-3.3-3.3
		c-0.9-1.3-1.6-2.7-1.8-4.2c-0.3-1.5-0.7-3.1-1-4.6c-0.1-0.4-0.2-0.7-0.2-1.1c0-0.3,0-0.5-0.1-0.8c-0.1-1.5-0.1-3.1-0.1-4.7
		c0-1.8,0.5-7.1,0.6-8.7c0.4-0.5,0.7-1,1-1.5c0.3-0.5,0.5-0.9,0.8-1.4c0.1-0.2,0.2-0.5,0.4-0.8c0.1-0.2,0.2-0.5,0.3-0.8
		c0.2-0.6,0.4-1.1,0.5-1.7c0.1-0.6,0.2-1.2,0.3-1.8c0.1-0.6,0.1-1.2,0.1-1.9c0-0.3,0-0.7-0.2-1.1c-0.1-0.2-0.1-0.4-0.3-0.7
		c-0.1-0.1-0.2-0.3-0.3-0.4c-0.1-0.1-0.3-0.3-0.6-0.3l-0.1,0c0,0,0,0,0,0c-0.3-0.1-0.5-0.1-0.8,0c-0.3,0.1-0.5,0.2-0.6,0.3
		c-0.3,0.2-0.5,0.5-0.7,0.7c-0.3,0.4-0.5,0.8-0.6,1.2c-0.2,0.6-0.4,1.2-0.5,1.7c-0.3-0.7-0.6-1.5-1.1-2.1c-0.3-0.4-0.6-0.7-1.1-1
		c-0.2-0.1-0.5-0.3-0.9-0.3c-0.2,0-0.4,0-0.6,0c-0.2,0-0.4,0.1-0.5,0.3c-0.3,0.2-0.4,0.5-0.5,0.8c-0.1,0.3-0.1,0.5-0.2,0.7
		c0,0.5,0,0.9,0,1.4c0,0.2,0.1,0.4,0.1,0.7c0,0.1,0,0.2,0.1,0.3l0.1,0.3c0.1,0.4,0.2,0.9,0.3,1.3c0.3,0.8,0.6,1.7,1,2.5
		c0.4,0.8,0.8,1.6,1.2,2.3c0.3,0.5,0.6,0.9,0.9,1.4c0,1.7,0.1,7.6,0,9.6c-0.1,1.7-0.2,3.4-0.5,5.1c0,0.3-0.1,0.6-0.1,0.8
		c-0.1,0.4-0.2,0.8-0.4,1.2c-0.5,1.6-1.1,3.3-1.5,4.9c-0.4,1.6-1.3,3.1-2.4,4.4c-1.1,1.3-2.5,2.4-4,3.3c-1.5,0.9-3.2,1.6-5,1.8
		c-0.9,0.1-1.8,0.1-2.7-0.1c-0.9-0.2-1.7-0.5-2.5-1c-0.7-0.5-1.4-1.1-1.9-1.8c-0.5-0.7-0.9-1.5-1.3-2.3
		C63.6,115.1,63.4,114.9,63.3,114.9z M87.2,90.5C87.2,90.5,87.2,90.5,87.2,90.5c0,0.1,0,0.1,0,0.2C87.2,90.6,87.2,90.6,87.2,90.5z"
		/>
	<path class="st7" d="M64,82.9c-0.2-0.1-0.4-0.1-0.6-0.2c-0.8-0.2-1.7-0.3-2.7-0.2c-0.5,0.1-1,0.2-1.4,0.4c-0.4,0.2-0.8,0.4-1.2,0.7
		c-0.4,0.3-0.8,0.6-1.1,0.9c-0.3,0.4-0.7,0.8-0.9,1.2c-0.3,0.5-0.4,1-0.5,1.5c0,0.2-0.1,0.5-0.1,0.7c0,0,0,0,0,0
		c-0.2,0.5-0.3,1-0.2,1.6c0,0.3,0,0.6,0.1,0.8c0,0.1,0.1,0.3,0.1,0.4l0,0.1l0,0.1c0,0.1,0.1,0.1,0.1,0.2c0.2,0.5,0.5,1,0.9,1.5
		c0.8,0.9,1.8,1.5,3,1.9c1.2,0.4,2.6,0.5,3.9,0.2c0.7-0.1,1.4-0.4,2-0.8c0.7-0.4,1.3-0.9,1.8-1.6c0.1-0.1,0.1-0.2,0.2-0.2l0-0.1
		l0-0.1l0.1-0.1c0.1-0.2,0.2-0.4,0.3-0.5c0.2-0.4,0.3-0.8,0.4-1.2c0.2-0.8,0.3-1.7,0.1-2.5c-0.2-0.8-0.5-1.6-1-2.3
		c-0.5-0.7-1.1-1.3-1.8-1.8c-0.4-0.2-0.7-0.4-1.1-0.6C64.4,83,64.2,82.9,64,82.9z M58.3,85.7c-0.3,0.7-0.6,1.4-0.7,2.2
		c-0.1,0.6-0.3,1.2-0.3,1.8c-0.1-0.4-0.1-0.7-0.2-1.1c-0.1-0.8,0-1.5,0.3-2.2c0.3-0.6,0.8-1.1,1.3-1.5
		C58.5,85.2,58.4,85.5,58.3,85.7z M62.2,83.9C62.2,83.9,62.2,83.9,62.2,83.9C62.2,83.9,62.1,83.9,62.2,83.9
		C62.2,83.9,62.2,83.9,62.2,83.9z M61,91.5c-0.1,0.2-0.2,0.4-0.3,0.6c0,0,0-0.1,0-0.1c0-0.1,0-0.3,0.1-0.4c0-0.3,0.1-0.6,0.2-0.9
		c0.1-0.6,0.3-1.2,0.5-1.8c0-0.1,0.1-0.3,0.1-0.4l0.2-0.4c0-0.1,0-0.1,0.1-0.2l0.1-0.2c0-0.1,0.1-0.2,0.1-0.3
		c0.1-0.2,0.1-0.4,0.2-0.6c0,0,0-0.1,0-0.1c0.2-0.4,0.4-0.8,0.6-1.2c0.2-0.2,0.3-0.5,0.5-0.6c0.1-0.1,0.1-0.1,0.2-0.1c0,0,0,0,0,0
		c0,0,0,0.1,0,0.1c0,0.2-0.1,0.5-0.1,0.8c-0.2,0.6-0.4,1.3-0.6,1.9c-0.1,0.3-0.3,0.6-0.4,1L62.2,89l-0.1,0.3c0,0.1-0.1,0.2-0.1,0.3
		l-0.5,1C61.4,90.8,61.2,91.2,61,91.5z M63.1,91.7L63.1,91.7c-0.1,0.1-0.1,0.2-0.1,0.2c-0.3,0.4-0.6,0.8-0.9,1.1
		c-0.1,0.1-0.2,0.1-0.2,0.1c0.2-0.3,0.4-0.6,0.5-1c0.2-0.4,0.4-0.7,0.5-1.1l0.5-1.1l0,0c0,0,0,0,0,0c0-0.1,0.1-0.1,0.1-0.2l0.1-0.2
		l0.2-0.5c0-0.1,0.1-0.2,0.1-0.3c0,0,0,0,0,0c-0.1,0.6-0.3,1.2-0.3,1.9c-0.1,0.2-0.2,0.4-0.3,0.6C63.3,91.4,63.2,91.5,63.1,91.7
		L63.1,91.7L63.1,91.7z M65,93.1c-0.5,0.3-1.1,0.5-1.7,0.7c-0.1,0-0.1,0-0.2,0c0.2-0.2,0.4-0.4,0.5-0.6c0.1,0.1,0.3,0.2,0.5,0.1
		c0,0,0.1,0,0.1-0.1c0.2-0.1,0.4-0.3,0.5-0.4c0.1-0.2,0.3-0.3,0.4-0.5c0.2-0.3,0.4-0.6,0.5-1c0-0.1,0.1-0.2,0.1-0.3
		c-0.1,0.5-0.1,1-0.2,1.2c0,0.2,0,0.3,0,0.4C65.4,92.8,65.2,93,65,93.1z M66.7,89c0.1-0.4,0.2-0.9,0.3-1.3c0,0,0-0.1,0-0.1
		c0.1,0.2,0.1,0.4,0.2,0.6c0.1,0.6,0.1,1.3,0,1.9c-0.1,0.3-0.2,0.6-0.3,0.9c-0.1,0.1-0.1,0.3-0.2,0.4l-0.1,0.1l-0.1,0.1
		c0,0.1-0.1,0.1-0.1,0.2c-0.2,0.3-0.4,0.5-0.7,0.7c0-0.1,0-0.1,0.1-0.2c0.1-0.3,0.2-0.7,0.3-1.3C66.3,90.5,66.5,89.8,66.7,89z
		 M65.8,87.8c0.1-0.5,0.3-1,0.4-1.6c0-0.1,0-0.1,0-0.2c0.1,0.1,0.1,0.2,0.2,0.3c0,0,0,0,0,0c-0.2,0.9-0.5,1.9-0.9,2.9
		c-0.2,0.6-0.4,1.2-0.7,1.8c-0.1,0.2-0.2,0.4-0.3,0.6c0.1-0.2,0.2-0.5,0.3-0.7C65.2,89.9,65.5,88.8,65.8,87.8z"/>
	<path class="st4" d="M114.4,79.5c-0.4-0.2-0.7-0.4-1.1-0.6c-0.2-0.1-0.4-0.2-0.6-0.2c-0.2-0.1-0.4-0.1-0.6-0.2
		c-0.8-0.2-1.7-0.3-2.7-0.2c-0.5,0.1-1,0.2-1.4,0.4c-0.4,0.2-0.8,0.4-1.2,0.7c-0.4,0.3-0.8,0.6-1.1,0.9c-0.4,0.4-0.7,0.8-0.9,1.2
		c-0.3,0.5-0.4,1-0.5,1.5c0,0.2-0.1,0.5-0.1,0.7c0,0,0,0,0,0c-0.2,0.5-0.3,1-0.2,1.6c0,0.3,0,0.6,0.1,0.8c0,0.1,0.1,0.3,0.1,0.4
		l0,0.1l0,0.1c0,0.1,0.1,0.1,0.1,0.2c0.2,0.5,0.5,1,0.9,1.5c0.8,0.9,1.8,1.5,3,1.9c1.2,0.4,2.6,0.5,3.9,0.2c0.7-0.1,1.4-0.4,2-0.8
		c0.7-0.4,1.3-0.9,1.8-1.6c0.1-0.1,0.1-0.2,0.2-0.2l0-0.1l0-0.1l0.1-0.1c0.1-0.2,0.2-0.4,0.3-0.5c0.2-0.4,0.3-0.8,0.4-1.2
		c0.2-0.8,0.3-1.7,0.1-2.5c-0.2-0.8-0.5-1.6-1-2.3C115.7,80.6,115.1,80,114.4,79.5z M107,81.5c-0.3,0.7-0.6,1.4-0.7,2.2
		c-0.1,0.6-0.3,1.2-0.3,1.8c-0.1-0.4-0.1-0.7-0.2-1.1c-0.1-0.8,0-1.5,0.3-2.2c0.3-0.6,0.8-1.1,1.3-1.5C107.2,81,107.1,81.2,107,81.5
		z M113.5,86.7c0.4-1.1,0.7-2.1,1-3.1c0.1-0.5,0.3-1,0.4-1.6c0-0.1,0-0.1,0-0.2c0.1,0.1,0.1,0.2,0.2,0.3c0,0,0,0,0,0
		c-0.2,0.9-0.5,1.9-0.9,2.9C114.1,85.6,113.8,86.2,113.5,86.7c0,0.3-0.1,0.5-0.3,0.7C113.3,87.2,113.4,86.9,113.5,86.7z M110.9,79.7
		C110.9,79.7,110.8,79.7,110.9,79.7C110.8,79.7,110.8,79.7,110.9,79.7C110.8,79.7,110.8,79.7,110.9,79.7z M109.7,87.3
		c-0.1,0.2-0.2,0.4-0.3,0.6c0,0,0-0.1,0-0.1c0-0.1,0-0.3,0.1-0.4c0-0.3,0.1-0.6,0.2-0.9c0.1-0.6,0.3-1.2,0.5-1.8
		c0-0.1,0.1-0.3,0.1-0.4l0.2-0.4c0-0.1,0-0.1,0.1-0.2l0.1-0.2c0-0.1,0.1-0.2,0.1-0.3c0.1-0.2,0.1-0.4,0.2-0.6c0,0,0-0.1,0-0.1
		c0.2-0.4,0.4-0.8,0.6-1.2c0.2-0.2,0.3-0.5,0.5-0.6c0.1-0.1,0.1-0.1,0.2-0.1c0,0,0,0,0,0c0,0,0,0.1,0,0.1c0,0.2-0.1,0.5-0.1,0.8
		c-0.2,0.6-0.4,1.3-0.6,1.9c-0.1,0.3-0.3,0.6-0.4,1l-0.2,0.5l-0.1,0.3c0,0.1-0.1,0.2-0.1,0.3l-0.5,1C110,86.6,109.9,86.9,109.7,87.3
		z M111.8,87.5L111.8,87.5c-0.1,0.1-0.1,0.2-0.1,0.2c-0.3,0.4-0.6,0.8-0.9,1.1c-0.1,0.1-0.2,0.1-0.2,0.1c0.2-0.3,0.4-0.6,0.5-1
		c0.2-0.4,0.4-0.7,0.5-1.1l0.5-1.1l0,0c0,0,0,0,0,0c0-0.1,0.1-0.1,0.1-0.2l0.1-0.2l0.2-0.5c0-0.1,0.1-0.2,0.1-0.3c0,0,0,0,0,0
		c-0.1,0.6-0.3,1.2-0.3,1.9c-0.1,0.2-0.2,0.4-0.3,0.6C111.9,87.2,111.9,87.3,111.8,87.5L111.8,87.5L111.8,87.5z M113.7,88.9
		c-0.5,0.3-1.1,0.5-1.7,0.7c-0.1,0-0.1,0-0.2,0c0.2-0.2,0.4-0.4,0.5-0.6c0.1,0.1,0.3,0.2,0.5,0.1c0,0,0.1,0,0.1-0.1
		c0.2-0.1,0.4-0.3,0.5-0.4c0.1-0.2,0.3-0.3,0.4-0.5c0.2-0.3,0.4-0.6,0.5-1c0-0.1,0.1-0.2,0.1-0.3c-0.1,0.5-0.1,1-0.2,1.2
		c0,0.2,0,0.3,0,0.4C114.1,88.6,113.9,88.7,113.7,88.9z M115.9,85.8c-0.1,0.3-0.2,0.6-0.3,0.9c-0.1,0.1-0.1,0.3-0.2,0.4l-0.1,0.1
		l-0.1,0.1c0,0.1-0.1,0.1-0.1,0.2c-0.2,0.3-0.4,0.5-0.7,0.7c0-0.1,0-0.1,0.1-0.2c0.1-0.3,0.2-0.7,0.3-1.3c0.2-0.6,0.4-1.2,0.6-2.1
		c0.1-0.4,0.2-0.9,0.3-1.3c0,0,0-0.1,0-0.1c0.1,0.2,0.1,0.4,0.2,0.6C116,84.5,116,85.2,115.9,85.8z"/>
</g>
</svg>
