<?xml version="1.0" encoding="utf-8"?>
<!-- Generator: Adobe Illustrator 21.0.0, SVG Export Plug-In . SVG Version: 6.00 Build 0)  -->
<svg version="1.1" id="Layer_1" xmlns="http://www.w3.org/2000/svg" xmlns:xlink="http://www.w3.org/1999/xlink" x="0px" y="0px"
	 viewBox="0 0 160 145" style="enable-background:new 0 0 160 145;" xml:space="preserve">
<style type="text/css">
	.st0{fill:#CB5990;}
	.st1{fill:#FFFFFF;}
	.st2{fill:#12B6BF;}
	.st3{fill:url(#SVGID_1_);}
	.st4{fill:#455BA8;}
	.st5{fill:#326EB6;}
	.st6{fill:#DD5968;}
	.st7{fill:#EF537A;}
	.st8{fill:url(#SVGID_2_);}
	.st9{fill:url(#SVGID_3_);}
	.st10{fill:url(#SVGID_4_);}
	.st11{fill:url(#SVGID_5_);}
	.st12{fill:#F16443;}
	.st13{fill:url(#SVGID_6_);}
	.st14{fill:#F68E3F;}
	.st15{fill:url(#SVGID_7_);}
	.st16{fill:url(#SVGID_8_);}
	.st17{fill:url(#SVGID_9_);}
	.st18{fill:url(#SVGID_10_);}
	.st19{fill:url(#SVGID_11_);}
	.st20{fill:url(#SVGID_12_);}
	.st21{fill:url(#SVGID_13_);}
	.st22{fill:url(#SVGID_14_);}
	.st23{fill:url(#SVGID_15_);}
	.st24{fill:url(#SVGID_16_);}
	.st25{fill:url(#SVGID_17_);}
	.st26{fill:#3DB66D;}
	.st27{fill:url(#SVGID_18_);}
	.st28{fill:url(#SVGID_19_);}
	.st29{fill:url(#SVGID_20_);}
	.st30{fill:url(#SVGID_21_);}
	.st31{fill:url(#SVGID_22_);}
	.st32{fill:url(#SVGID_23_);}
	.st33{fill:url(#SVGID_24_);}
	.st34{fill:url(#SVGID_25_);}
	.st35{fill:url(#SVGID_26_);}
	.st36{fill:url(#SVGID_27_);}
	.st37{fill:url(#SVGID_28_);}
	.st38{fill:url(#SVGID_29_);}
	.st39{fill:url(#SVGID_30_);}
	.st40{fill:url(#SVGID_31_);}
	.st41{fill:url(#SVGID_32_);}
	.st42{fill:url(#SVGID_33_);}
	.st43{fill:url(#SVGID_34_);}
	.st44{fill:url(#SVGID_35_);}
	.st45{fill:url(#SVGID_36_);}
	.st46{fill:url(#SVGID_37_);}
	.st47{fill:url(#SVGID_38_);}
	.st48{fill:url(#SVGID_39_);}
	.st49{fill:url(#SVGID_40_);}
	.st50{fill:url(#SVGID_41_);}
	.st51{fill:url(#SVGID_42_);}
	.st52{fill:url(#SVGID_43_);}
	.st53{fill:url(#SVGID_44_);}
	.st54{fill:url(#SVGID_45_);}
	.st55{fill:url(#SVGID_46_);}
	.st56{fill:url(#SVGID_47_);}
	.st57{fill:url(#SVGID_48_);}
	.st58{fill:url(#SVGID_49_);}
	.st59{fill:url(#SVGID_50_);}
	.st60{fill:url(#SVGID_51_);}
	.st61{fill:url(#SVGID_52_);}
	.st62{fill:url(#SVGID_53_);}
	.st63{fill:url(#SVGID_54_);}
	.st64{fill:url(#SVGID_55_);}
	.st65{fill:url(#SVGID_56_);}
	.st66{fill:url(#SVGID_57_);}
	.st67{fill:url(#SVGID_58_);}
	.st68{fill:url(#SVGID_59_);}
	.st69{fill:url(#SVGID_60_);}
	.st70{fill:url(#SVGID_61_);}
	.st71{fill:url(#SVGID_62_);}
	.st72{fill:url(#SVGID_63_);}
	.st73{fill:url(#SVGID_64_);}
	.st74{fill:url(#SVGID_65_);}
	.st75{fill:url(#SVGID_66_);}
	.st76{fill:url(#SVGID_67_);}
	.st77{fill:url(#SVGID_68_);}
	.st78{fill:url(#SVGID_69_);}
	.st79{fill:url(#SVGID_70_);}
	.st80{fill:url(#SVGID_71_);}
	.st81{fill:url(#SVGID_72_);}
	.st82{fill:url(#SVGID_73_);}
	.st83{fill:url(#SVGID_74_);}
	.st84{fill:url(#SVGID_75_);}
	.st85{fill:url(#SVGID_76_);}
	.st86{fill:url(#SVGID_77_);}
	.st87{fill:url(#SVGID_78_);}
	.st88{fill:url(#SVGID_79_);}
	.st89{fill:url(#SVGID_80_);}
	.st90{fill:url(#SVGID_81_);}
	.st91{fill:url(#SVGID_82_);}
	.st92{fill:url(#SVGID_83_);}
	.st93{fill:url(#SVGID_84_);}
	.st94{fill:url(#SVGID_85_);}
	.st95{fill:url(#SVGID_86_);}
	.st96{fill:url(#SVGID_87_);}
	.st97{fill:url(#SVGID_88_);}
	.st98{fill:url(#SVGID_89_);}
	.st99{fill:url(#SVGID_90_);}
	.st100{fill:url(#SVGID_91_);}
	.st101{fill:url(#SVGID_92_);}
	.st102{fill:url(#SVGID_93_);}
	.st103{fill:url(#SVGID_94_);}
	.st104{fill:url(#SVGID_95_);}
	.st105{fill:url(#SVGID_96_);}
	.st106{fill:url(#SVGID_97_);}
	.st107{fill:url(#SVGID_98_);}
	.st108{fill:url(#SVGID_99_);}
	.st109{fill:url(#SVGID_100_);}
	.st110{fill:url(#SVGID_101_);}
	.st111{fill:url(#SVGID_102_);}
	.st112{fill:url(#SVGID_103_);}
	.st113{fill:url(#SVGID_104_);}
	.st114{fill:url(#SVGID_105_);}
	.st115{fill:url(#SVGID_106_);}
	.st116{fill:url(#SVGID_107_);}
	.st117{fill:url(#SVGID_108_);}
	.st118{fill:url(#SVGID_109_);}
	.st119{fill:url(#SVGID_110_);}
	.st120{fill:url(#SVGID_111_);}
	.st121{fill:url(#SVGID_112_);}
	.st122{fill:url(#SVGID_113_);}
	.st123{fill:url(#SVGID_114_);}
	.st124{fill:url(#SVGID_115_);}
	.st125{fill:url(#SVGID_116_);}
	.st126{fill:url(#SVGID_117_);}
	.st127{fill:url(#SVGID_118_);}
	.st128{fill:url(#SVGID_119_);}
	.st129{fill:url(#SVGID_120_);}
	.st130{fill:url(#SVGID_121_);}
	.st131{fill:url(#SVGID_122_);}
	.st132{fill:url(#SVGID_123_);}
	.st133{fill:url(#SVGID_124_);}
	.st134{fill:url(#SVGID_125_);}
	.st135{fill:url(#SVGID_126_);}
	.st136{fill:url(#SVGID_127_);}
	.st137{fill:#184054;}
	.st138{fill:url(#SVGID_128_);}
	.st139{fill:url(#SVGID_129_);}
	.st140{fill:url(#SVGID_130_);}
	.st141{fill:url(#SVGID_131_);}
	.st142{fill:url(#SVGID_132_);}
	.st143{fill:url(#SVGID_133_);}
	.st144{fill:url(#SVGID_134_);}
	.st145{fill:url(#SVGID_135_);}
	.st146{fill:url(#SVGID_136_);}
	.st147{fill:url(#SVGID_137_);}
	.st148{fill:url(#SVGID_138_);}
	.st149{fill:url(#SVGID_139_);}
	.st150{fill:url(#SVGID_140_);}
	.st151{fill:url(#SVGID_141_);}
	.st152{fill:url(#SVGID_142_);}
	.st153{fill:url(#SVGID_143_);}
	.st154{fill:url(#SVGID_144_);}
	.st155{fill:url(#SVGID_145_);}
	.st156{fill:url(#SVGID_146_);}
	.st157{fill:url(#SVGID_147_);}
	.st158{fill:url(#SVGID_148_);}
	.st159{fill:url(#SVGID_149_);}
	.st160{fill:url(#SVGID_150_);}
	.st161{fill:url(#SVGID_151_);}
	.st162{fill:url(#SVGID_152_);}
	.st163{fill:url(#SVGID_153_);}
	.st164{fill:url(#SVGID_154_);}
	.st165{fill:url(#SVGID_155_);}
	.st166{fill:url(#SVGID_156_);}
	.st167{fill:url(#SVGID_157_);}
	.st168{fill:url(#SVGID_158_);}
	.st169{fill:url(#SVGID_159_);}
	.st170{fill:url(#SVGID_160_);}
	.st171{fill:url(#SVGID_161_);}
	.st172{fill:url(#SVGID_162_);}
	.st173{fill:url(#SVGID_163_);}
	.st174{fill:url(#SVGID_164_);}
	.st175{fill:url(#SVGID_165_);}
	.st176{fill:url(#SVGID_166_);}
	.st177{fill:url(#SVGID_167_);}
	.st178{fill:url(#SVGID_168_);}
	.st179{fill:url(#SVGID_169_);}
	.st180{fill:url(#SVGID_170_);}
	.st181{fill:url(#SVGID_171_);}
	.st182{fill:url(#SVGID_172_);}
	.st183{fill:url(#SVGID_173_);}
	.st184{fill:url(#SVGID_174_);}
	.st185{fill:url(#SVGID_175_);}
	.st186{fill:url(#SVGID_176_);}
	.st187{fill:url(#SVGID_177_);}
	.st188{fill:url(#SVGID_178_);}
	.st189{fill:url(#SVGID_179_);}
	.st190{fill:url(#SVGID_180_);}
	.st191{fill:url(#SVGID_181_);}
	.st192{fill:url(#SVGID_182_);}
	.st193{fill:url(#SVGID_183_);}
	.st194{fill:url(#SVGID_184_);}
	.st195{fill:url(#SVGID_185_);}
	.st196{fill:url(#SVGID_186_);}
	.st197{fill:url(#SVGID_187_);}
	.st198{fill:url(#SVGID_188_);}
	.st199{fill:url(#SVGID_189_);}
	.st200{fill:url(#SVGID_190_);}
	.st201{fill:url(#SVGID_191_);}
	.st202{fill:url(#SVGID_192_);}
	.st203{fill:url(#SVGID_193_);}
	.st204{fill:url(#SVGID_194_);}
	.st205{fill:url(#SVGID_195_);}
	.st206{fill:url(#SVGID_196_);}
	.st207{fill:url(#SVGID_197_);}
	.st208{fill:url(#SVGID_198_);}
	.st209{fill:url(#SVGID_199_);}
	.st210{fill:url(#SVGID_200_);}
	.st211{fill:url(#SVGID_201_);}
	.st212{fill:url(#SVGID_202_);}
	.st213{fill:url(#SVGID_203_);}
	.st214{fill:url(#SVGID_204_);}
	.st215{fill:url(#SVGID_205_);}
	.st216{fill:url(#SVGID_206_);}
	.st217{fill:url(#SVGID_207_);}
	.st218{fill:url(#SVGID_208_);}
	.st219{fill:#969697;}
	.st220{fill:url(#SVGID_209_);}
	.st221{fill:url(#SVGID_210_);}
	.st222{fill:url(#SVGID_211_);}
	.st223{fill:url(#SVGID_212_);}
	.st224{fill:url(#SVGID_213_);}
	.st225{fill:url(#SVGID_214_);}
	.st226{fill:url(#SVGID_215_);}
	.st227{fill:url(#SVGID_216_);}
	.st228{fill:url(#SVGID_217_);}
	.st229{fill:url(#SVGID_218_);}
	.st230{fill:url(#SVGID_219_);}
	.st231{fill:url(#SVGID_220_);}
	.st232{fill:url(#SVGID_221_);}
	.st233{fill:url(#SVGID_222_);}
	.st234{fill:url(#SVGID_223_);}
	.st235{fill:url(#SVGID_224_);}
	.st236{fill:url(#SVGID_225_);}
	.st237{fill:url(#SVGID_226_);}
	.st238{fill:url(#SVGID_227_);}
	.st239{fill:url(#SVGID_228_);}
	.st240{fill:url(#SVGID_229_);}
	.st241{fill:url(#SVGID_230_);}
	.st242{fill:url(#SVGID_231_);}
	.st243{fill:url(#SVGID_232_);}
	.st244{fill:url(#SVGID_233_);}
	.st245{fill:url(#SVGID_234_);}
	.st246{fill:url(#SVGID_235_);}
	.st247{fill:url(#SVGID_236_);}
	.st248{fill:url(#SVGID_237_);}
	.st249{fill:url(#SVGID_238_);}
	.st250{fill:url(#SVGID_239_);}
	.st251{fill:url(#SVGID_240_);}
	.st252{fill:url(#SVGID_241_);}
	.st253{fill:url(#SVGID_242_);}
	.st254{fill:url(#SVGID_243_);}
	.st255{fill:url(#SVGID_244_);}
	.st256{fill:url(#SVGID_245_);}
	.st257{fill:url(#SVGID_246_);}
	.st258{fill:url(#SVGID_247_);}
	.st259{fill:url(#SVGID_248_);}
	.st260{fill:url(#SVGID_249_);}
	.st261{fill:url(#SVGID_250_);}
	.st262{fill:url(#SVGID_251_);}
	.st263{fill:url(#SVGID_252_);}
	.st264{fill:url(#SVGID_253_);}
	.st265{fill:url(#SVGID_254_);}
	.st266{fill:url(#SVGID_255_);}
	.st267{fill:url(#SVGID_256_);}
	.st268{fill:url(#SVGID_257_);}
	.st269{fill:url(#SVGID_258_);}
	.st270{fill:url(#SVGID_259_);}
	.st271{fill:url(#SVGID_260_);}
	.st272{fill:url(#SVGID_261_);}
	.st273{fill:url(#SVGID_262_);}
	.st274{fill:url(#SVGID_263_);}
	.st275{fill:url(#SVGID_264_);}
	.st276{fill:url(#SVGID_265_);}
	.st277{fill:url(#SVGID_266_);}
	.st278{fill:url(#SVGID_267_);}
	.st279{fill:#F69474;}
	.st280{fill:#F27350;}
	.st281{fill:url(#SVGID_268_);}
	.st282{fill:url(#SVGID_269_);}
	.st283{fill:url(#SVGID_270_);}
	.st284{fill:url(#SVGID_271_);}
	.st285{fill:url(#SVGID_272_);}
	.st286{fill:url(#SVGID_273_);}
	.st287{fill:url(#SVGID_274_);}
	.st288{fill:url(#SVGID_275_);}
	.st289{fill:url(#SVGID_276_);}
	.st290{fill:url(#SVGID_277_);}
	.st291{fill:url(#SVGID_278_);}
	.st292{fill:url(#SVGID_279_);}
	.st293{fill:url(#SVGID_280_);}
	.st294{fill:url(#SVGID_281_);}
	.st295{fill:url(#SVGID_282_);}
	.st296{fill:url(#SVGID_283_);}
	.st297{fill:url(#SVGID_284_);}
	.st298{fill:url(#SVGID_285_);}
	.st299{fill:url(#SVGID_286_);}
	.st300{fill:url(#SVGID_287_);}
	.st301{fill:url(#SVGID_288_);}
	.st302{fill:url(#SVGID_289_);}
	.st303{fill:url(#SVGID_290_);}
	.st304{fill:url(#SVGID_291_);}
	.st305{fill:url(#SVGID_292_);}
	.st306{fill:url(#SVGID_293_);}
</style>
<g>
	<linearGradient id="SVGID_1_" gradientUnits="userSpaceOnUse" x1="14.2212" y1="72.5" x2="145.7788" y2="72.5">
		<stop  offset="0" style="stop-color:#F05B42"/>
		<stop  offset="1" style="stop-color:#F9A54F"/>
	</linearGradient>
	<path class="st3" d="M145.4,75c-2.1-1.5-10.1,3-12.9,4.1c6.1-4,13.5-11.6,9.4-14c-2.3-1.4-8.9,4.7-11.2,5.9
		c2.2-2,11.7-9.7,8.8-12.3c-2.3-3.1-9.5,3.4-9.5,3.4c0.5-8.5-7.7-47-14.6-45.5c-3.4,0.7-7.1,16.6-9.8,25.8
		c-19.1-1.2-31.4,0.8-48.8,3.9c-0.6-6.8-7-24.9-11-25c-2.9-0.1-11.3,18.5-12.6,25.3c-1.1,6-3.7,19.3-4.2,26.5
		c-2.3-1.8-7.7-7.5-10.2-6.4c-4.2,2,2.9,6.9,6.9,13.4c-2.8-1.8-8-5-10.7-3.4c0,0-5,2.7,8,11.4c-13-5.6-11.2,3.8,2.9,6.9
		c-0.6,1.6-0.7,3.6-0.5,5.9c0.1-0.1,0.1-0.1,0.2-0.1c0.3-0.2,0.6-0.3,0.9-0.3c0.3-0.1,0.6,0,0.9,0c0.6,0.1,1,0.3,1.4,0.6
		c0,0,0,0,0,0.1c0,0,0,0,0,0c0,0,0,0,0.1,0c0,0,0.1,0,0.2,0c0.1,0.1,0.3,0.1,0.4,0.2c0,0,0.1,0.1,0.1,0.1c0,0,0,0,0,0.1l0,0
		c0.1,0.1,0.1,0.1,0.1,0.2c0.1,0.3,0.2,0.6,0.2,0.9c0,0.1,0,0.2,0,0.2c0,0.1,0,0.2-0.1,0.2c0,0.1-0.1,0.3-0.2,0.4
		c-0.2,0.3-0.4,0.5-0.7,0.7c-0.3,0.2-0.6,0.3-1,0.4c-0.1,0-0.2,0-0.3,0c-0.1,0-0.2,0-0.3,0c-0.2,0-0.4,0-0.5,0
		c-0.3,0-0.7-0.1-0.9-0.3c1.1,5.5,3.7,11.4,6.5,14.3c12.5,14.1,73.9,11.5,89.8,3.4c16.2-8.2,11.5-26.6,11.3-36.4
		C133.7,85.5,148.4,77.1,145.4,75z"/>
	<path class="st2" d="M103.5,109.4c0-0.1,0-0.3,0.1-0.5c0,0,0-0.1,0.1-0.1l0,0c0,0,0,0,0-0.1c0,0,0,0,0.1-0.1
		c0.1-0.1,0.2-0.1,0.3-0.1c0.1,0,0.2,0.1,0.2,0.2c0,0,0,0,0,0s0,0,0,0c0,0-0.1-0.1,0-0.1c0.3-0.1,0.6-0.1,0.8,0
		c0.3,0.1,0.4,0.3,0.5,0.5c0.1,0.2,0.2,0.4,0.2,0.7c0,0.2,0,0.5-0.1,0.7c-0.1,0.2-0.2,0.3-0.4,0.4c-0.1,0.1-0.2,0.1-0.4,0.1
		c-0.1,0-0.2,0-0.3,0c-0.2-0.1-0.4-0.2-0.6-0.3c-0.2-0.1-0.3-0.3-0.3-0.4c-0.1-0.1-0.1-0.3-0.2-0.4c0,0,0-0.1,0-0.1c0,0,0-0.1,0-0.1
		C103.5,109.5,103.5,109.4,103.5,109.4z"/>
	<path class="st4" d="M112.3,42.5c0.6-2,0.9-3.9,1.3-5.9c0.2-1,0.4-1.9,0.6-2.9c0.1-0.5,0.2-1,0.4-1.5c0.1-0.2,0.1-0.5,0.2-0.7
		c0.1-0.2,0.2-0.5,0.3-0.7l0-0.1c0.1-0.1,0.2-0.3,0.3-0.4c0.1-0.1,0.2-0.3,0.4-0.4c0.1-0.1,0.3-0.2,0.5-0.3s0.4-0.1,0.7-0.1
		c0.2,0,0.5,0.1,0.6,0.2c0.2,0.1,0.3,0.2,0.4,0.3c0.2,0.2,0.4,0.3,0.5,0.5c0.1,0.2,0.3,0.3,0.4,0.5c0.4,0.7,0.7,1.3,0.9,1.9
		c0.5,1.3,0.8,2.6,1.2,3.8c0.3,1.2,0.6,2.4,0.7,3.6c0.1,1.2,0.2,2.4-0.1,3.6c-0.1,0.3-0.3,0.4-0.5,0.3c-0.2,0-0.5-0.2-0.5-0.4
		c-0.2-1.3-0.5-2.5-0.7-3.8c-0.3-1.3-0.5-2.5-0.8-3.8c-0.3-1.3-0.6-2.5-1.1-3.7c-0.1-0.3-0.3-0.6-0.4-0.9c-0.1-0.3-0.3-0.5-0.5-0.7
		c-0.1-0.1-0.2-0.1-0.2-0.1c0,0,0,0,0,0c0,0,0,0,0,0c0,0-0.1,0.1-0.2,0.2c-0.1,0.1-0.1,0.2-0.2,0.3v0c-0.3,0.8-0.6,1.8-0.8,2.8
		c-0.2,1-0.4,2-0.6,3c-0.4,2-1,3.9-2.3,5.5C112.7,42.8,112.2,42.7,112.3,42.5z"/>
	<path class="st4" d="M100,54.7c0-0.3,0.1-0.5,0.1-0.8c0-0.3,0.1-0.5,0.1-0.8c0-0.1,0-0.2,0.2-0.3c0,0,0,0,0.1,0c0,0,0,0,0.1,0
		c0,0,0,0,0.1,0c0.1,0,0.1,0.1,0.2,0.2c0.1,0.2,0.1,0.3,0.2,0.5c0,0.2,0.1,0.3,0.1,0.5c0.1,0.3,0.1,0.6,0.1,0.9
		c0.1,0.6,0.1,1.2,0.2,1.8c0.2,1.2,0.4,2.4,0.7,3.6c0.2,0.6,0.4,1.2,0.6,1.7c0.2,0.6,0.5,1.1,0.8,1.6c0.1,0.1,0.2,0.2,0.3,0.3
		c0,0.1,0.1,0.1,0.1,0.2c0,0.1,0.1,0.1,0.2,0.2c0.2,0.2,0.4,0.4,0.7,0.6c0.5,0.4,1,0.7,1.5,0.8c0.6,0.2,1.2,0.1,1.7-0.2
		c0.5-0.3,1.1-0.7,1.5-1.3c0.4-0.5,0.8-1.1,1.2-1.8c0.3-0.6,0.6-1.3,0.8-2c0.4-1.2,0.7-2.5,0.8-3.8c0.1-0.6,0.1-1.2,0.2-1.8
		c0-0.6,0-1.2-0.1-1.7c-0.1-0.2,0.1-0.4,0.3-0.5c0.2-0.1,0.5,0,0.7,0.2c0.4,0.7,0.6,1.4,0.7,2.2c0.1,0.8,0.1,1.5,0,2.3
		c-0.2,1.5-0.6,3-1.2,4.5c-0.3,0.7-0.7,1.4-1.1,2.1c-0.5,0.7-1,1.3-1.6,1.9c-0.3,0.3-0.7,0.5-1.1,0.8c-0.4,0.2-0.9,0.4-1.4,0.4
		c-0.5,0.1-1.1,0-1.6-0.1c-0.5-0.1-0.9-0.4-1.3-0.6c-0.6-0.4-1.1-0.8-1.5-1.2c-0.2-0.2-0.5-0.5-0.7-0.8c-0.2-0.3-0.4-0.6-0.6-0.9
		c-0.7-1.2-1.1-2.4-1.4-3.6c-0.3-1.2-0.5-2.4-0.5-3.6C99.9,55.8,99.9,55.2,100,54.7z"/>
	<path class="st4" d="M100,111.3c0.1,0.2,0.2,0.4,0.2,0.7c0,0.2,0,0.5-0.1,0.7c-0.1,0.2-0.2,0.3-0.4,0.4c-0.1,0.1-0.2,0.1-0.4,0.1
		c-0.1,0-0.2,0-0.4,0c-0.2-0.1-0.4-0.2-0.5-0.3c-0.2-0.1-0.3-0.3-0.3-0.4c-0.1-0.1-0.1-0.3-0.2-0.4c0,0,0-0.1,0-0.1c0,0,0-0.1,0-0.1
		c0-0.1,0-0.1,0-0.2c0-0.1,0-0.3,0.1-0.5c0,0,0.1-0.1,0.1-0.1l0,0c0,0,0,0,0,0c0,0,0,0,0.1-0.1c0.1-0.1,0.2-0.1,0.3-0.1
		c0.1,0,0.2,0.1,0.2,0.2c0,0,0,0,0,0s0,0,0,0c0,0-0.1-0.1,0-0.1c0.3-0.1,0.6-0.1,0.8,0C99.7,110.9,99.9,111.1,100,111.3z"/>
	<path class="st4" d="M97.1,105.4c0-0.1,0-0.3,0.1-0.5c0,0,0.1-0.1,0.1-0.1l0,0c0,0,0,0,0-0.1c0,0,0,0,0.1-0.1
		c0.1-0.1,0.2-0.1,0.3-0.1c0.1,0,0.2,0.1,0.2,0.2c0,0,0,0,0,0c0,0,0,0,0,0c0,0-0.1-0.1,0-0.1c0.3-0.1,0.6-0.1,0.8,0
		c0.3,0.1,0.4,0.3,0.5,0.5c0.1,0.2,0.2,0.4,0.2,0.7c0,0.2,0,0.5-0.1,0.7c-0.1,0.2-0.2,0.3-0.4,0.4c-0.1,0.1-0.2,0.1-0.4,0.1
		c-0.1,0-0.2,0-0.3,0c-0.2-0.1-0.4-0.2-0.6-0.3c-0.1-0.1-0.3-0.3-0.3-0.4c-0.1-0.1-0.1-0.3-0.2-0.4c0,0,0-0.1,0-0.1c0,0,0-0.1,0-0.1
		C97.1,105.6,97.1,105.5,97.1,105.4z"/>
	<path class="st4" d="M81,106.5c0.1-0.1,0.2-0.3,0.4-0.3c0.2-0.1,0.4-0.1,0.6-0.1c0.4,0.1,0.6,0.3,0.6,0.5c0,0,0,0,0,0c0,0,0,0,0,0
		c0,0,0,0,0,0c0,0,0.1,0,0.1,0c0.1,0,0.1,0.1,0.2,0.2c0,0,0,0,0,0.1l0,0.1c0,0,0,0.1,0,0.1c0,0.1,0,0.3,0,0.4c0,0.3-0.1,0.6-0.4,0.8
		c-0.1,0.1-0.3,0.2-0.4,0.3c-0.1,0-0.2,0.1-0.3,0.1c0,0-0.1,0-0.1,0h0h0l0,0c0,0-0.1,0-0.1,0c-0.2,0-0.4-0.1-0.5-0.3
		c-0.1-0.1-0.2-0.3-0.2-0.4c-0.1-0.2-0.1-0.4-0.1-0.7C80.8,107,80.9,106.7,81,106.5z"/>
	<path class="st4" d="M79.3,112.4c0.1-0.1,0.2-0.3,0.4-0.3c0.2-0.1,0.4-0.1,0.6-0.1c0.4,0.1,0.6,0.3,0.6,0.5c0,0,0,0,0,0l0,0
		c0,0,0,0,0,0c0,0,0.1,0,0.1,0c0.1,0,0.1,0.1,0.2,0.2c0,0,0,0,0,0.1l0,0c0,0,0,0.1,0,0.1c0,0.1,0,0.3,0,0.4c0,0.1,0,0.1,0,0.2
		c0,0.1,0,0.1-0.1,0.2c-0.1,0.1-0.1,0.3-0.3,0.4c-0.1,0.1-0.2,0.2-0.4,0.3c-0.1,0-0.2,0.1-0.3,0.1c0,0-0.1,0-0.1,0h0l0,0l0,0
		c0,0,0,0-0.1,0c-0.2,0-0.4-0.1-0.5-0.3c-0.1-0.1-0.2-0.3-0.2-0.4c-0.1-0.2-0.1-0.4-0.1-0.7C79.1,112.9,79.2,112.7,79.3,112.4z"/>
	<path class="st4" d="M58.8,49.8c1.9,0.1,3.8,0.5,5.5,1c1.7,0.5,3.3,1.1,4.7,1.9c0.1,0.1,0.2,0.1,0.3,0.2c0,0,0.1,0,0.1,0
		c0,0,0.2,0.1,0.5,0.2c0.2,0.1,0.6,0.2,0.9,0.5c1,0.6,2,1.2,2.9,2c0.2,0.2,0.4,0.4,0.6,0.6c0.1,0.1,0.2,0.2,0.3,0.3l0.1,0.1l0.1,0.1
		l0.1,0.2c0.3,0.5,0.6,1,0.8,1.5c0.4,1,0.7,2.1,0.8,3.1c0.1,1.1,0.1,2.2,0.1,3.2c0,0.5-0.1,1.1-0.2,1.6c-0.1,0.5-0.2,1.1-0.3,1.6
		c-0.3,1.1-0.7,2.1-1.2,3.1c-1,2-2.6,3.7-4.5,5.1c-1.9,1.4-4.2,2.4-6.6,3c-1.2,0.3-2.5,0.5-3.7,0.5c-0.2,0-0.3,0-0.5,0
		c-0.2,0-0.3,0-0.5,0c-0.3,0-0.6,0-0.9,0c-0.6,0-1.3-0.1-1.9-0.2c-1.2-0.2-2.5-0.5-3.6-0.9c-1.2-0.4-2.3-1-3.3-1.6
		c-2-1.3-3.6-3.1-4.7-5c-1.6-2.8-2.4-6.2-2-9.6c0.2-1.7,0.7-3.5,1.5-5.1c0.2-0.4,0.4-0.8,0.7-1.2c0.2-0.4,0.5-0.8,0.8-1.2
		c0.6-0.7,1.3-1.4,2-2c1.5-1.2,3.4-2.1,5.4-2.6C54.8,49.7,56.9,49.6,58.8,49.8z"/>
	<path class="st2" d="M37,99.7c0,0.1,0,0.2,0,0.2c0,0.1,0,0.2-0.1,0.2c0,0.1-0.1,0.3-0.2,0.4c-0.2,0.3-0.4,0.5-0.7,0.7
		c-0.3,0.2-0.6,0.3-1,0.4c-0.1,0-0.2,0-0.3,0c-0.1,0-0.2,0-0.3,0c-0.2,0-0.4,0-0.5,0c-0.3,0-0.7-0.1-1-0.3c-0.3-0.2-0.6-0.4-0.7-0.7
		c-0.3-0.4-0.4-0.9-0.4-1.4c0-0.3,0.1-0.5,0.3-0.8c0-0.1,0.1-0.1,0.1-0.2c0-0.1,0.1-0.1,0.2-0.2c0.1-0.1,0.2-0.2,0.4-0.3
		c0.3-0.2,0.6-0.3,0.9-0.3c0.3,0,0.6,0,0.9,0c0.6,0.1,1,0.3,1.4,0.6c0,0,0,0,0,0.1c0,0,0,0,0,0c0,0,0,0,0.1,0c0,0,0.1,0,0.2,0
		c0.2,0.1,0.3,0.1,0.4,0.2c0,0,0.1,0.1,0.1,0.1c0,0,0,0,0,0.1l0,0c0.1,0.1,0.1,0.1,0.1,0.2C37,99.1,37,99.4,37,99.7z"/>
	<path class="st4" d="M37.7,52.7c-0.1,0-0.1,0-0.2-0.1c0,0-0.1-0.1-0.1-0.2c-0.1-0.7,0-1.3,0-1.9c0.1-0.6,0.1-1.2,0.3-1.9
		c0.2-1.2,0.5-2.4,0.8-3.6c0.3-1.2,0.7-2.4,1.1-3.6c0.4-1.2,0.9-2.4,1.6-3.6c0.3-0.4,0.5-0.9,0.8-1.3c0.3-0.4,0.7-0.8,1.1-1.2
		c0,0,0.1-0.1,0.1-0.1c0.4-0.3,1.1-0.2,1.4,0.1l0,0c0.5,0.5,0.8,1,1,1.6c0.3,0.5,0.5,1.1,0.7,1.6c0.4,1.1,0.6,2.1,0.9,3.2
		c0.3,1.4,0.6,2.8,0.7,4.2c0.1,1.4,0.1,2.8-0.3,4.2c-0.1,0.6-1,0.4-1-0.1c-0.3-2.4-0.6-4.7-1-7.1c-0.2-1.2-0.5-2.3-0.8-3.5
		c-0.2-0.6-0.4-1.1-0.6-1.7c-0.1-0.3-0.3-0.6-0.5-0.9c-0.3,0.3-0.5,0.6-0.8,0.9c-0.4,0.5-0.7,1-1,1.6c-0.5,0.9-0.9,2-1.3,3.2
		c-0.3,1.1-0.6,2.3-0.9,3.5c-0.3,1.2-0.5,2.3-0.8,3.4c-0.2,0.5-0.3,1.1-0.5,1.6c-0.2,0.5-0.4,1-0.5,1.6
		C37.9,52.6,37.8,52.7,37.7,52.7z"/>
	<path class="st2" d="M43.7,92.8c0,0.1,0,0.2,0,0.2c0,0.1,0,0.2-0.1,0.2c0,0.1-0.1,0.3-0.2,0.4c-0.2,0.3-0.4,0.5-0.7,0.7
		c-0.3,0.2-0.6,0.3-1,0.4c-0.1,0-0.2,0-0.3,0c-0.1,0-0.2,0-0.3,0c-0.2,0-0.4,0-0.5,0c-0.3,0-0.7-0.2-1-0.3c-0.3-0.2-0.6-0.4-0.7-0.7
		c-0.3-0.4-0.4-0.9-0.4-1.4c0-0.3,0.1-0.5,0.2-0.8c0,0,0.1-0.1,0.1-0.2c0-0.1,0.1-0.1,0.1-0.2c0.1-0.1,0.2-0.2,0.4-0.3
		c0.3-0.2,0.6-0.3,0.9-0.3c0.3-0.1,0.6,0,0.9,0c0.6,0.1,1,0.3,1.4,0.6c0,0,0,0,0,0.1c0,0,0,0,0,0c0,0,0,0,0.1,0c0,0,0.1,0,0.2,0
		c0.1,0.1,0.3,0.1,0.4,0.2c0,0,0.1,0.1,0.1,0.1c0,0,0,0,0,0.1l0,0c0.1,0.1,0.1,0.1,0.1,0.2C43.7,92.2,43.7,92.5,43.7,92.8z"/>
	<path class="st2" d="M47,86.1c0,0.1,0,0.2,0,0.2c0,0.1,0,0.2-0.1,0.2c0,0.1-0.1,0.3-0.2,0.4c-0.2,0.3-0.4,0.5-0.7,0.7
		c-0.3,0.2-0.6,0.3-1,0.4c-0.1,0-0.2,0-0.3,0c-0.1,0-0.2,0-0.3,0c-0.2,0-0.3,0-0.5,0c-0.3,0-0.7-0.1-1-0.3c-0.3-0.2-0.6-0.4-0.7-0.7
		c-0.3-0.4-0.4-0.9-0.4-1.4c0-0.3,0.1-0.5,0.2-0.8c0,0,0.1-0.1,0.1-0.2c0-0.1,0.1-0.1,0.1-0.2c0.1-0.1,0.2-0.2,0.4-0.3
		c0.3-0.2,0.6-0.3,0.9-0.3c0.3,0,0.6,0,0.9,0c0.6,0.1,1,0.3,1.4,0.6c0,0,0,0,0,0.1c0,0,0,0,0,0c0,0,0,0,0.1,0c0,0,0.1,0,0.2,0
		c0.1,0.1,0.3,0.1,0.4,0.2c0,0,0.1,0.1,0.1,0.1c0,0,0,0,0,0.1l0,0c0.1,0.1,0.1,0.1,0.1,0.2C46.9,85.5,47,85.8,47,86.1z"/>
	<path class="st2" d="M46.2,81.7c-0.3-0.2-0.6-0.4-0.7-0.7c-0.3-0.4-0.4-0.9-0.4-1.4c0-0.3,0.1-0.5,0.2-0.8c0,0,0.1-0.1,0.1-0.2
		c0-0.1,0.1-0.1,0.1-0.2c0.1-0.1,0.2-0.2,0.4-0.3c0.3-0.2,0.6-0.3,0.9-0.3c0.3,0,0.6,0,0.9,0c0.6,0.1,1,0.3,1.4,0.6c0,0,0,0,0,0.1
		c0,0,0,0,0,0s0,0,0.1,0c0,0,0.1,0,0.2,0c0.2,0.1,0.3,0.1,0.4,0.2c0,0,0.1,0.1,0.1,0.1c0,0,0,0,0,0l0,0c0.1,0.1,0.1,0.1,0.1,0.2
		c0.1,0.3,0.2,0.6,0.2,0.9c0,0.1,0,0.2,0,0.2c0,0.1,0,0.2,0,0.2C50.1,80.7,50,80.9,50,81c-0.2,0.3-0.4,0.5-0.7,0.7
		c-0.3,0.2-0.6,0.3-1,0.4c-0.1,0-0.2,0-0.3,0c-0.1,0-0.2,0-0.3,0c-0.2,0-0.4,0-0.5,0C46.9,82,46.5,81.9,46.2,81.7z"/>
	<path class="st7" d="M74.1,109.2c0.1-0.1,0.2-0.3,0.4-0.3c0.2-0.1,0.4-0.1,0.6-0.1c0.4,0.1,0.6,0.3,0.6,0.5c0,0,0,0,0,0
		c0,0,0,0,0,0s0,0,0,0c0,0,0.1,0,0.1,0c0.1,0,0.1,0.1,0.2,0.2c0,0,0,0,0,0.1c0,0,0,0,0,0.1c0,0,0,0.1,0,0.1c0,0.1,0,0.3,0,0.4
		c0,0.3-0.1,0.6-0.4,0.8c-0.1,0.1-0.3,0.2-0.4,0.3c-0.1,0-0.2,0.1-0.3,0.1c0,0-0.1,0-0.1,0h0h0l0,0c0,0,0,0-0.1,0
		c-0.2,0-0.4-0.1-0.5-0.3c-0.1-0.1-0.2-0.3-0.2-0.4c-0.1-0.2-0.1-0.4-0.1-0.7C73.8,109.7,73.9,109.4,74.1,109.2z"/>
	<g>
		<path class="st7" d="M73.6,95.8c-0.3-1.4-0.5-2.9-0.5-4.4c0-0.9,0-1.8,0-2.6c1.4,1.2,2.4,2.8,2.8,4.8c0.3,1.9-0.3,3.6-1.5,5.1
			C74,97.8,73.8,96.8,73.6,95.8z"/>
		<path class="st7" d="M65.6,102.9c-0.1-0.2-0.2-0.4-0.3-0.6c-0.4-0.8-0.7-1.7-0.9-2.6c-0.4-1.8-0.5-3.7-0.4-5.5
			c0.1-1.9,0.3-3.7,0.7-5.5c0.2-0.8,0.4-1.6,0.6-2.5c1.9,0.1,3.8,0.6,5.4,1.3c-0.2,0.8-0.3,1.7-0.5,2.5c-0.5,2.5-1.2,4.9-2,7.3
			c-0.5,1.3-1,2.6-1.6,3.8C66.4,101.7,66,102.3,65.6,102.9z"/>
		<path class="st7" d="M57.9,103.5c-0.9-0.2-1.7-0.5-2.5-0.9c0-0.1,0-0.2,0-0.3c-0.1-0.8-0.1-1.7,0-2.5c0-1.7,0.2-3.4,0.3-5
			c0.1-1.7,0.3-3.4,0.5-5c0.1-0.6,0.1-1.3,0.2-1.9c2.1-0.9,4.5-1.5,6.9-1.6c-0.1,0.5-0.3,1.1-0.4,1.6c-0.8,3.4-1.6,6.7-2.6,10
			c-0.5,1.6-1,3.3-1.7,4.8C58.3,102.8,58.1,103.2,57.9,103.5z"/>
		<path class="st7" d="M51.7,98.8c-0.6-1.2-1-2.4-1.1-3.4c0.3-0.5,0.6-1.1,0.9-1.6c0.8-1.4,1.7-2.9,2.7-4.3c0,0,0,0,0.1-0.1
			c-0.1,1.5-0.3,2.9-0.4,4.4c-0.1,1.6-0.2,3.2-0.3,4.8c0,0.8,0,1.6,0,2.4c0,0,0,0.1,0,0.1C52.8,100.5,52.1,99.7,51.7,98.8z"/>
		<path class="st7" d="M59.8,103.8c0.2-0.5,0.4-0.9,0.6-1.4c0.3-0.7,0.6-1.5,0.8-2.2c0.3-0.9,0.6-1.9,0.9-2.8
			c0.1,0.8,0.2,1.6,0.3,2.4c0.2,1,0.5,2,0.9,2.9c0.2,0.4,0.3,0.7,0.6,1.1C62.5,104,61.1,104,59.8,103.8z"/>
		<path class="st7" d="M69.5,100.1c0.8-1.9,1.5-3.8,2.1-5.7c0,0,0-0.1,0-0.1c0.1,0.4,0.2,0.8,0.3,1.2c0.4,1.4,0.8,2.9,1.5,4.2
			c-1.4,1.3-3.2,2.3-5.2,3C68.6,101.9,69.1,101,69.5,100.1z"/>
	</g>
	<linearGradient id="SVGID_2_" gradientUnits="userSpaceOnUse" x1="69.9347" y1="93.0736" x2="109.5894" y2="93.0736">
		<stop  offset="0" style="stop-color:#EF537A"/>
		<stop  offset="1" style="stop-color:#4A3D97"/>
	</linearGradient>
	<path class="st8" d="M109.5,113.7c-0.2,0.6-0.6,1.2-1.1,1.7c-0.5,0.5-1.1,0.9-1.8,1.2c-1.4,0.6-2.9,0.8-4.5,0.8
		c-3.1-0.1-6.1-1.3-8.2-3.3l-0.2-0.2c-0.1-0.1-0.1-0.1-0.2-0.2c-0.1-0.1-0.2-0.3-0.3-0.4c-0.2-0.3-0.3-0.6-0.5-0.9
		c-0.3-0.6-0.5-1.3-0.7-1.9c-0.4-1.3-0.6-2.6-0.9-3.8c-0.5-2.6-0.8-5.1-1.1-7.7c-0.1-0.4-0.1-0.9-0.2-1.3c0,1.5-0.1,3-0.2,4.5
		c-0.2,2.6-0.4,5.1-0.9,7.7c-0.1,0.6-0.2,1.3-0.4,1.9c-0.2,0.6-0.3,1.3-0.6,1.9c-0.1,0.3-0.3,0.6-0.4,1c-0.1,0.2-0.2,0.3-0.3,0.5
		c-0.1,0.1-0.1,0.2-0.2,0.3c0,0-0.1,0.1-0.1,0.1l-0.1,0.1c-0.6,0.5-1.2,1-1.8,1.4c-2.4,1.4-5.6,2-8.5,1.5c-1.5-0.3-2.9-0.8-4-1.6
		c-0.6-0.4-1.1-0.9-1.5-1.4c-0.4-0.5-0.7-1.2-0.8-1.8c-0.1-0.3-0.1-0.4,0-0.6c0-0.1,0.1-0.2,0.2-0.1c0.2,0,0.4,0.3,0.6,0.7
		c0.3,0.6,0.6,1.1,1.1,1.6c0.5,0.5,1,0.9,1.7,1.2c1.2,0.6,2.7,1,4.1,1.1c1.4,0.1,2.9-0.1,4.3-0.5c1.4-0.4,2.6-1.1,3.6-1.9l0.2-0.2
		c0.1-0.1,0.1-0.1,0.2-0.2c0.1-0.1,0.2-0.2,0.3-0.3c0.2-0.3,0.3-0.5,0.4-0.8c0.3-0.6,0.4-1.2,0.6-1.8c0.3-1.2,0.6-2.5,0.8-3.8
		c0.4-2.5,0.6-5.1,0.8-7.6c0.2-3,0.2-6.4,0.2-9.9c-0.1-1.3-0.3-2.6-0.4-3.8c-0.1-1.4-0.2-2.9-0.3-4.2c-2-3-7.2-11-5.6-13.3
		c1.1-2.9,6.5-0.4,7.4,5.4c0.5-5.1,2.4-9.2,5.5-5.9c2.5,2.7-2.4,10.3-5.4,13.8c0,0.3,0,0.6,0,0.8c-0.1,2.1-0.1,4.2-0.2,6.2
		c0,0.4,0,0.8,0,1.1c0.3,3.2,0.8,6.5,1.2,9.7c0.4,2.6,0.8,5.1,1.3,7.6c0.3,1.3,0.6,2.5,1.1,3.7c0.1,0.3,0.3,0.6,0.4,0.8
		c0.1,0.3,0.3,0.5,0.5,0.7c0.2,0.2,0.5,0.4,0.7,0.6c0.3,0.2,0.5,0.4,0.8,0.6c2,1.3,4.6,2.1,7.1,2c1.2,0,2.5-0.3,3.5-0.8
		c1-0.5,1.9-1.3,2.3-2.2c0.2-0.4,0.4-0.6,0.5-0.5C109.6,113,109.7,113.3,109.5,113.7z"/>
	<g>
		<path class="st7" d="M124.7,90.6c-0.1-0.4-0.2-0.9-0.3-1.3c-0.2-1.2-0.4-2.4-0.4-3.7c0-0.8,0-1.6,0-2.3c0.9,0.9,1.5,2.1,1.7,3.4
			C125.9,88.1,125.5,89.4,124.7,90.6z"/>
		<path class="st7" d="M118.7,93.7c-0.2,0.4-0.4,0.7-0.6,1.1c-0.1,0-0.3,0.1-0.4,0.1c0-0.1-0.1-0.1-0.1-0.2
			c-0.3-0.7-0.6-1.5-0.7-2.2c-0.3-1.5-0.4-3.1-0.3-4.6c0.1-1.6,0.3-3.1,0.6-4.6c0.2-0.8,0.4-1.5,0.6-2.3c0-0.1,0.1-0.3,0.1-0.4
			c1.6,0.2,3.1,0.7,4.4,1.4c-0.1,0.8-0.3,1.7-0.5,2.5c-0.5,2.1-1,4.1-1.7,6.1C119.6,91.5,119.2,92.6,118.7,93.7z"/>
		<path class="st7" d="M111.7,94.9c0,0.1-0.1,0.2-0.1,0.2c-0.8-0.1-1.6-0.4-2.4-0.7c0-0.6,0-1.3,0-1.9c0-1.4,0.1-2.8,0.2-4.2
			c0.1-1.4,0.3-2.8,0.4-4.2c0.1-0.7,0.1-1.4,0.2-2.1c0-0.2,0-0.3,0-0.5c0,0,0,0,0.1-0.1c1.8-0.7,3.9-1,5.9-1
			c-0.2,0.7-0.4,1.4-0.5,2.1c-0.7,2.8-1.4,5.6-2.2,8.4C112.8,92.2,112.3,93.6,111.7,94.9z"/>
		<path class="st7" d="M105.4,91c-0.3-0.5-0.5-1-0.6-1.4c0.3-0.7,0.7-1.4,1.1-2.1c0.7-1.2,1.4-2.4,2.2-3.6c0,0,0,0,0-0.1
			c-0.1,1.2-0.2,2.5-0.3,3.7c-0.1,1.3-0.2,2.7-0.3,4c0,0.6,0,1.3,0,1.9C106.7,92.9,106,92,105.4,91z"/>
		<path class="st7" d="M104.5,87.5c0.1-1.8,1-3.3,2.5-4.5c-0.8,1.1-1.4,2.3-2.1,3.5C104.8,86.8,104.7,87.1,104.5,87.5z"/>
		<path class="st7" d="M113.2,95.3c0.1-0.2,0.1-0.3,0.2-0.5c0.3-0.6,0.5-1.2,0.7-1.9c0.3-0.8,0.5-1.6,0.7-2.4c0.1,0.7,0.1,1.3,0.3,2
			c0.2,0.8,0.4,1.6,0.8,2.5c0,0,0,0.1,0.1,0.1C115,95.3,114.1,95.3,113.2,95.3z"/>
		<path class="st7" d="M120.6,93.9c0.2-0.3,0.3-0.6,0.5-1c0.7-1.6,1.3-3.2,1.7-4.8c0,0,0,0,0-0.1c0.1,0.3,0.1,0.7,0.2,1
			c0.2,0.9,0.5,1.7,0.9,2.6C123,92.5,121.8,93.3,120.6,93.9z"/>
	</g>
	<path class="st1" d="M59.5,77.2c7.5-0.3,13.4-5,14.3-11.3c0.5-2.7,0.4-6-1.3-8.6c-1-1.7-4.4-3.3-4.4-3.3
		c-6.8-3.2-16.7-3.9-20.9,2.9C42.2,64.8,46.7,77.4,59.5,77.2z M52.8,60.9c0-0.3,0.1-0.5,0.1-0.8c0-0.3,0.1-0.5,0.1-0.8
		c0-0.1,0-0.2,0.2-0.3c0,0,0.1,0,0.1,0c0,0,0,0,0.1,0c0,0,0,0,0.1,0c0.1,0,0.1,0.1,0.2,0.2c0.1,0.2,0.1,0.3,0.2,0.5
		c0,0.2,0.1,0.3,0.1,0.5c0,0.3,0.1,0.6,0.1,0.9c0.1,0.6,0.1,1.2,0.2,1.8c0.2,1.2,0.4,2.4,0.7,3.6c0.2,0.6,0.4,1.2,0.6,1.7
		c0.2,0.6,0.5,1.1,0.8,1.6c0.1,0.1,0.2,0.2,0.3,0.3c0,0.1,0.1,0.1,0.1,0.2c0.1,0.1,0.1,0.1,0.2,0.2c0.2,0.2,0.4,0.4,0.7,0.6
		c0.5,0.4,1,0.7,1.5,0.8c0.6,0.2,1.2,0.1,1.7-0.2c0.5-0.3,1.1-0.7,1.5-1.3c0.4-0.5,0.8-1.1,1.2-1.8c0.3-0.6,0.6-1.3,0.8-2
		c0.4-1.2,0.7-2.5,0.8-3.8c0.1-0.6,0.1-1.2,0.2-1.8c0-0.6,0-1.2-0.1-1.7c0-0.2,0.1-0.4,0.3-0.5c0.2-0.1,0.5,0,0.7,0.2
		c0.4,0.7,0.6,1.4,0.7,2.2c0.1,0.8,0.1,1.5,0,2.3c-0.2,1.5-0.6,3-1.2,4.5c-0.3,0.7-0.7,1.4-1.2,2.1c-0.5,0.7-1,1.3-1.6,1.9
		c-0.3,0.3-0.7,0.5-1.1,0.8c-0.4,0.2-0.9,0.4-1.4,0.4c-0.5,0.1-1.1,0-1.6-0.1c-0.5-0.1-0.9-0.4-1.3-0.6c-0.6-0.4-1.1-0.8-1.5-1.2
		c-0.2-0.2-0.5-0.5-0.7-0.8c-0.2-0.3-0.4-0.6-0.6-0.9c-0.7-1.2-1.1-2.4-1.4-3.6c-0.3-1.2-0.5-2.4-0.5-3.6
		C52.7,62,52.8,61.5,52.8,60.9z"/>
	<linearGradient id="SVGID_3_" gradientUnits="userSpaceOnUse" x1="62.4418" y1="29.1033" x2="101.1932" y2="29.1033">
		<stop  offset="0" style="stop-color:#EF537A"/>
		<stop  offset="1" style="stop-color:#4A3D97"/>
	</linearGradient>
	<path class="st9" d="M64.4,41.2c3.8-0.4,24.2-3,35.5-2.4l0.1,0c0.6,0,2.6-2.2-0.4-3c-1.7-0.5-3.7-0.7-5.7-0.8
		c-0.2-0.8-0.5-1.6-0.7-2.4c-0.3-1.4-0.7-2.8-1.2-4.2c-0.9-2.8-2-5.6-3.3-8.4l0,0c-0.1-0.3-0.4-0.6-0.7-0.9
		c-0.2-0.2-0.5-0.4-0.8-0.6c-0.1-0.1-0.2-0.1-0.3-0.2c-0.5-0.4-1.2-0.7-1.8-0.9c-0.7-0.2-1.3-0.3-2-0.4c-0.7-0.1-1.3-0.1-2-0.1
		c-1.3,0-2.6,0.1-3.8,0.3c-0.6,0.1-1.3,0.2-1.9,0.2l-0.9,0.1c-0.3,0-0.6,0.1-1,0.2c-0.6,0.1-1.3,0.3-1.8,0.6c-0.6,0.3-1.1,0.6-1.5,1
		c-0.9,0.8-1.4,1.7-1.6,2.7c-0.3,1-0.4,2-0.4,3c0,1,0.1,2,0.2,3c0.3,2,0.7,3.9,1.1,5.9c0.2,1.1,0.4,1.9,0.6,2.3
		c-2.3,0.3-4.6,0.7-6.8,1.3l0,0c-0.8,0.2-1.1,1.1-0.8,2.1C62.9,40.6,63.7,41.2,64.4,41.2z"/>
</g>
</svg>
