<?xml version="1.0" encoding="utf-8"?>
<!-- Generator: Adobe Illustrator 21.0.0, SVG Export Plug-In . SVG Version: 6.00 Build 0)  -->
<svg version="1.1" id="Layer_1" xmlns="http://www.w3.org/2000/svg" xmlns:xlink="http://www.w3.org/1999/xlink" x="0px" y="0px"
	 viewBox="0 0 160 145" style="enable-background:new 0 0 160 145;" xml:space="preserve">
<style type="text/css">
	.st0{fill:#CB5990;}
	.st1{fill:#FFFFFF;}
	.st2{fill:#12B6BF;}
	.st3{fill:url(#SVGID_1_);}
	.st4{fill:#455BA8;}
	.st5{fill:#326EB6;}
	.st6{fill:#DD5968;}
	.st7{fill:#EF537A;}
	.st8{fill:url(#SVGID_2_);}
	.st9{fill:url(#SVGID_3_);}
	.st10{fill:url(#SVGID_4_);}
	.st11{fill:url(#SVGID_5_);}
	.st12{fill:#F16443;}
	.st13{fill:url(#SVGID_6_);}
	.st14{fill:#F68E3F;}
	.st15{fill:url(#SVGID_7_);}
	.st16{fill:url(#SVGID_8_);}
	.st17{fill:url(#SVGID_9_);}
	.st18{fill:url(#SVGID_10_);}
	.st19{fill:url(#SVGID_11_);}
	.st20{fill:url(#SVGID_12_);}
	.st21{fill:url(#SVGID_13_);}
	.st22{fill:url(#SVGID_14_);}
	.st23{fill:url(#SVGID_15_);}
	.st24{fill:url(#SVGID_16_);}
	.st25{fill:url(#SVGID_17_);}
	.st26{fill:#3DB66D;}
	.st27{fill:url(#SVGID_18_);}
	.st28{fill:url(#SVGID_19_);}
	.st29{fill:url(#SVGID_20_);}
	.st30{fill:url(#SVGID_21_);}
	.st31{fill:url(#SVGID_22_);}
	.st32{fill:url(#SVGID_23_);}
	.st33{fill:url(#SVGID_24_);}
	.st34{fill:url(#SVGID_25_);}
	.st35{fill:url(#SVGID_26_);}
	.st36{fill:url(#SVGID_27_);}
	.st37{fill:url(#SVGID_28_);}
	.st38{fill:url(#SVGID_29_);}
	.st39{fill:url(#SVGID_30_);}
	.st40{fill:url(#SVGID_31_);}
	.st41{fill:url(#SVGID_32_);}
	.st42{fill:url(#SVGID_33_);}
	.st43{fill:url(#SVGID_34_);}
	.st44{fill:url(#SVGID_35_);}
	.st45{fill:url(#SVGID_36_);}
	.st46{fill:url(#SVGID_37_);}
	.st47{fill:url(#SVGID_38_);}
	.st48{fill:url(#SVGID_39_);}
	.st49{fill:url(#SVGID_40_);}
	.st50{fill:url(#SVGID_41_);}
	.st51{fill:url(#SVGID_42_);}
	.st52{fill:url(#SVGID_43_);}
	.st53{fill:url(#SVGID_44_);}
	.st54{fill:url(#SVGID_45_);}
	.st55{fill:url(#SVGID_46_);}
	.st56{fill:url(#SVGID_47_);}
	.st57{fill:url(#SVGID_48_);}
	.st58{fill:url(#SVGID_49_);}
	.st59{fill:url(#SVGID_50_);}
	.st60{fill:url(#SVGID_51_);}
	.st61{fill:url(#SVGID_52_);}
	.st62{fill:url(#SVGID_53_);}
	.st63{fill:url(#SVGID_54_);}
	.st64{fill:url(#SVGID_55_);}
	.st65{fill:url(#SVGID_56_);}
	.st66{fill:url(#SVGID_57_);}
	.st67{fill:url(#SVGID_58_);}
	.st68{fill:url(#SVGID_59_);}
	.st69{fill:url(#SVGID_60_);}
	.st70{fill:url(#SVGID_61_);}
	.st71{fill:url(#SVGID_62_);}
	.st72{fill:url(#SVGID_63_);}
	.st73{fill:url(#SVGID_64_);}
	.st74{fill:url(#SVGID_65_);}
	.st75{fill:url(#SVGID_66_);}
	.st76{fill:url(#SVGID_67_);}
	.st77{fill:url(#SVGID_68_);}
	.st78{fill:url(#SVGID_69_);}
	.st79{fill:url(#SVGID_70_);}
	.st80{fill:url(#SVGID_71_);}
	.st81{fill:url(#SVGID_72_);}
	.st82{fill:url(#SVGID_73_);}
	.st83{fill:url(#SVGID_74_);}
	.st84{fill:url(#SVGID_75_);}
	.st85{fill:url(#SVGID_76_);}
	.st86{fill:url(#SVGID_77_);}
	.st87{fill:url(#SVGID_78_);}
	.st88{fill:url(#SVGID_79_);}
	.st89{fill:url(#SVGID_80_);}
	.st90{fill:url(#SVGID_81_);}
	.st91{fill:url(#SVGID_82_);}
	.st92{fill:url(#SVGID_83_);}
	.st93{fill:url(#SVGID_84_);}
	.st94{fill:url(#SVGID_85_);}
	.st95{fill:url(#SVGID_86_);}
	.st96{fill:url(#SVGID_87_);}
	.st97{fill:url(#SVGID_88_);}
	.st98{fill:url(#SVGID_89_);}
	.st99{fill:url(#SVGID_90_);}
	.st100{fill:url(#SVGID_91_);}
	.st101{fill:url(#SVGID_92_);}
	.st102{fill:url(#SVGID_93_);}
	.st103{fill:url(#SVGID_94_);}
	.st104{fill:url(#SVGID_95_);}
	.st105{fill:url(#SVGID_96_);}
	.st106{fill:url(#SVGID_97_);}
	.st107{fill:url(#SVGID_98_);}
	.st108{fill:url(#SVGID_99_);}
	.st109{fill:url(#SVGID_100_);}
	.st110{fill:url(#SVGID_101_);}
	.st111{fill:url(#SVGID_102_);}
	.st112{fill:url(#SVGID_103_);}
	.st113{fill:url(#SVGID_104_);}
	.st114{fill:url(#SVGID_105_);}
	.st115{fill:url(#SVGID_106_);}
	.st116{fill:url(#SVGID_107_);}
	.st117{fill:url(#SVGID_108_);}
	.st118{fill:url(#SVGID_109_);}
	.st119{fill:url(#SVGID_110_);}
	.st120{fill:url(#SVGID_111_);}
	.st121{fill:url(#SVGID_112_);}
	.st122{fill:url(#SVGID_113_);}
	.st123{fill:url(#SVGID_114_);}
	.st124{fill:url(#SVGID_115_);}
	.st125{fill:url(#SVGID_116_);}
	.st126{fill:url(#SVGID_117_);}
	.st127{fill:url(#SVGID_118_);}
	.st128{fill:url(#SVGID_119_);}
	.st129{fill:url(#SVGID_120_);}
	.st130{fill:url(#SVGID_121_);}
	.st131{fill:url(#SVGID_122_);}
	.st132{fill:url(#SVGID_123_);}
	.st133{fill:url(#SVGID_124_);}
	.st134{fill:url(#SVGID_125_);}
	.st135{fill:url(#SVGID_126_);}
	.st136{fill:url(#SVGID_127_);}
	.st137{fill:#184054;}
	.st138{fill:url(#SVGID_128_);}
	.st139{fill:url(#SVGID_129_);}
	.st140{fill:url(#SVGID_130_);}
	.st141{fill:url(#SVGID_131_);}
	.st142{fill:url(#SVGID_132_);}
	.st143{fill:url(#SVGID_133_);}
	.st144{fill:url(#SVGID_134_);}
	.st145{fill:url(#SVGID_135_);}
	.st146{fill:url(#SVGID_136_);}
	.st147{fill:url(#SVGID_137_);}
	.st148{fill:url(#SVGID_138_);}
	.st149{fill:url(#SVGID_139_);}
	.st150{fill:url(#SVGID_140_);}
	.st151{fill:url(#SVGID_141_);}
	.st152{fill:url(#SVGID_142_);}
	.st153{fill:url(#SVGID_143_);}
	.st154{fill:url(#SVGID_144_);}
	.st155{fill:url(#SVGID_145_);}
	.st156{fill:url(#SVGID_146_);}
	.st157{fill:url(#SVGID_147_);}
	.st158{fill:url(#SVGID_148_);}
	.st159{fill:url(#SVGID_149_);}
	.st160{fill:url(#SVGID_150_);}
	.st161{fill:url(#SVGID_151_);}
	.st162{fill:url(#SVGID_152_);}
	.st163{fill:url(#SVGID_153_);}
	.st164{fill:url(#SVGID_154_);}
	.st165{fill:url(#SVGID_155_);}
	.st166{fill:url(#SVGID_156_);}
	.st167{fill:url(#SVGID_157_);}
	.st168{fill:url(#SVGID_158_);}
	.st169{fill:url(#SVGID_159_);}
	.st170{fill:url(#SVGID_160_);}
	.st171{fill:url(#SVGID_161_);}
	.st172{fill:url(#SVGID_162_);}
	.st173{fill:url(#SVGID_163_);}
	.st174{fill:url(#SVGID_164_);}
	.st175{fill:url(#SVGID_165_);}
	.st176{fill:url(#SVGID_166_);}
	.st177{fill:url(#SVGID_167_);}
	.st178{fill:url(#SVGID_168_);}
	.st179{fill:url(#SVGID_169_);}
	.st180{fill:url(#SVGID_170_);}
	.st181{fill:url(#SVGID_171_);}
	.st182{fill:url(#SVGID_172_);}
	.st183{fill:url(#SVGID_173_);}
	.st184{fill:url(#SVGID_174_);}
	.st185{fill:url(#SVGID_175_);}
	.st186{fill:url(#SVGID_176_);}
	.st187{fill:url(#SVGID_177_);}
	.st188{fill:url(#SVGID_178_);}
	.st189{fill:url(#SVGID_179_);}
	.st190{fill:url(#SVGID_180_);}
	.st191{fill:url(#SVGID_181_);}
	.st192{fill:url(#SVGID_182_);}
	.st193{fill:url(#SVGID_183_);}
	.st194{fill:url(#SVGID_184_);}
	.st195{fill:url(#SVGID_185_);}
	.st196{fill:url(#SVGID_186_);}
	.st197{fill:url(#SVGID_187_);}
	.st198{fill:url(#SVGID_188_);}
	.st199{fill:url(#SVGID_189_);}
	.st200{fill:url(#SVGID_190_);}
	.st201{fill:url(#SVGID_191_);}
	.st202{fill:url(#SVGID_192_);}
	.st203{fill:url(#SVGID_193_);}
	.st204{fill:url(#SVGID_194_);}
	.st205{fill:url(#SVGID_195_);}
	.st206{fill:url(#SVGID_196_);}
	.st207{fill:url(#SVGID_197_);}
	.st208{fill:url(#SVGID_198_);}
	.st209{fill:url(#SVGID_199_);}
	.st210{fill:url(#SVGID_200_);}
	.st211{fill:url(#SVGID_201_);}
	.st212{fill:url(#SVGID_202_);}
	.st213{fill:url(#SVGID_203_);}
	.st214{fill:url(#SVGID_204_);}
	.st215{fill:url(#SVGID_205_);}
	.st216{fill:url(#SVGID_206_);}
	.st217{fill:url(#SVGID_207_);}
	.st218{fill:url(#SVGID_208_);}
	.st219{fill:#969697;}
	.st220{fill:url(#SVGID_209_);}
	.st221{fill:url(#SVGID_210_);}
	.st222{fill:url(#SVGID_211_);}
	.st223{fill:url(#SVGID_212_);}
	.st224{fill:url(#SVGID_213_);}
	.st225{fill:url(#SVGID_214_);}
	.st226{fill:url(#SVGID_215_);}
	.st227{fill:url(#SVGID_216_);}
	.st228{fill:url(#SVGID_217_);}
	.st229{fill:url(#SVGID_218_);}
	.st230{fill:url(#SVGID_219_);}
	.st231{fill:url(#SVGID_220_);}
	.st232{fill:url(#SVGID_221_);}
	.st233{fill:url(#SVGID_222_);}
	.st234{fill:url(#SVGID_223_);}
	.st235{fill:url(#SVGID_224_);}
	.st236{fill:url(#SVGID_225_);}
	.st237{fill:url(#SVGID_226_);}
	.st238{fill:url(#SVGID_227_);}
	.st239{fill:url(#SVGID_228_);}
	.st240{fill:url(#SVGID_229_);}
	.st241{fill:url(#SVGID_230_);}
	.st242{fill:url(#SVGID_231_);}
	.st243{fill:url(#SVGID_232_);}
	.st244{fill:url(#SVGID_233_);}
	.st245{fill:url(#SVGID_234_);}
	.st246{fill:url(#SVGID_235_);}
	.st247{fill:url(#SVGID_236_);}
	.st248{fill:url(#SVGID_237_);}
	.st249{fill:url(#SVGID_238_);}
	.st250{fill:url(#SVGID_239_);}
	.st251{fill:url(#SVGID_240_);}
	.st252{fill:url(#SVGID_241_);}
	.st253{fill:url(#SVGID_242_);}
	.st254{fill:url(#SVGID_243_);}
	.st255{fill:url(#SVGID_244_);}
	.st256{fill:url(#SVGID_245_);}
	.st257{fill:url(#SVGID_246_);}
	.st258{fill:url(#SVGID_247_);}
	.st259{fill:url(#SVGID_248_);}
	.st260{fill:url(#SVGID_249_);}
	.st261{fill:url(#SVGID_250_);}
	.st262{fill:url(#SVGID_251_);}
	.st263{fill:url(#SVGID_252_);}
	.st264{fill:url(#SVGID_253_);}
	.st265{fill:url(#SVGID_254_);}
	.st266{fill:url(#SVGID_255_);}
	.st267{fill:url(#SVGID_256_);}
	.st268{fill:url(#SVGID_257_);}
	.st269{fill:url(#SVGID_258_);}
	.st270{fill:url(#SVGID_259_);}
	.st271{fill:url(#SVGID_260_);}
	.st272{fill:url(#SVGID_261_);}
	.st273{fill:url(#SVGID_262_);}
	.st274{fill:url(#SVGID_263_);}
	.st275{fill:url(#SVGID_264_);}
	.st276{fill:url(#SVGID_265_);}
	.st277{fill:url(#SVGID_266_);}
	.st278{fill:url(#SVGID_267_);}
	.st279{fill:#F69474;}
	.st280{fill:#F27350;}
	.st281{fill:url(#SVGID_268_);}
	.st282{fill:url(#SVGID_269_);}
	.st283{fill:url(#SVGID_270_);}
	.st284{fill:url(#SVGID_271_);}
	.st285{fill:url(#SVGID_272_);}
	.st286{fill:url(#SVGID_273_);}
	.st287{fill:url(#SVGID_274_);}
	.st288{fill:url(#SVGID_275_);}
	.st289{fill:url(#SVGID_276_);}
	.st290{fill:url(#SVGID_277_);}
	.st291{fill:url(#SVGID_278_);}
	.st292{fill:url(#SVGID_279_);}
	.st293{fill:url(#SVGID_280_);}
	.st294{fill:url(#SVGID_281_);}
	.st295{fill:url(#SVGID_282_);}
	.st296{fill:url(#SVGID_283_);}
	.st297{fill:url(#SVGID_284_);}
	.st298{fill:url(#SVGID_285_);}
	.st299{fill:url(#SVGID_286_);}
	.st300{fill:url(#SVGID_287_);}
	.st301{fill:url(#SVGID_288_);}
	.st302{fill:url(#SVGID_289_);}
	.st303{fill:url(#SVGID_290_);}
	.st304{fill:url(#SVGID_291_);}
	.st305{fill:url(#SVGID_292_);}
	.st306{fill:url(#SVGID_293_);}
</style>
<g>
	<path d="M91.8,64.7c1.2-0.6,2.7-1.1,4.5-1.5c1.7-0.4,3.7-0.7,5.7-0.8c0.5,0,1,0,1.5,0l0.4,0l0.4,0c0.2,0,0.5,0,0.7,0
		c1,0.1,1.9,0.2,2.8,0.3c1.8,0.3,3.4,0.7,4.6,1.1c1.3,0.4,2.3,0.9,2.9,1.2c0.6,0.4,1,0.6,1.1,0.6c0,0,0-0.2-0.1-0.4
		c-0.1-0.2-0.3-0.5-0.6-0.7c-0.3-0.3-0.7-0.6-1.2-0.9c-0.5-0.3-1.1-0.6-1.7-0.9c-1.3-0.6-2.9-1.1-4.8-1.5c-0.9-0.2-1.9-0.3-2.9-0.5
		c-0.3,0-0.5,0-0.8-0.1c-0.1,0-0.3,0-0.4,0l-0.4,0c-0.5,0-1.1,0-1.6,0c-2.2,0.1-4.3,0.4-6.1,1c-1.8,0.5-3.4,1.3-4.6,2
		c-1.2,0.7-2.1,1.5-2.7,2c-0.6,0.6-0.8,0.9-0.8,1c0.1,0.1,0.5-0.1,1.1-0.5C89.6,65.8,90.6,65.3,91.8,64.7z"/>
	<path class="st137" d="M43.1,34c0.8-2.8,1.4-4.4,1.2-4.5c-0.2-0.1-1.2,1.4-2.3,4.1c-0.5,1.4-1.1,3-1.6,4.9c-0.5,1.9-1,3.9-1.4,6.1
		C38,49,37.7,53,37.6,55.9c0,1.5,0,2.6,0.1,3.5c0.1,0.8,0.2,1.3,0.3,1.3c0.2,0,0.4-1.8,0.8-4.6c0.4-2.8,1-6.8,1.8-11.1
		c0.4-2.1,0.8-4.2,1.3-6C42.2,37.1,42.7,35.4,43.1,34z"/>
	<path d="M115.5,36.3c0.4,1.8,0.9,3.9,1.3,6c0.8,4.3,1.4,8.2,1.8,11.1c0.4,2.8,0.6,4.6,0.8,4.6c0.1,0,0.2-0.4,0.3-1.3
		c0.1-0.8,0.1-2,0.1-3.5c-0.1-2.9-0.5-6.9-1.3-11.3c-0.4-2.2-0.9-4.2-1.4-6.1c-0.5-1.9-1.1-3.5-1.6-4.9c-1.1-2.7-2.1-4.2-2.3-4.1
		c-0.2,0.1,0.4,1.8,1.2,4.5C114.6,32.9,115,34.5,115.5,36.3z"/>
	<path d="M42.2,68.1c-0.4,0.4-0.8,0.7-1,1.1c-0.2,0.3-0.4,0.6-0.5,0.8c-0.1,0.2-0.1,0.3,0,0.4c0.1,0.1,0.4-0.3,1-0.7
		c0.6-0.5,1.5-1.1,2.7-1.6c1.2-0.6,2.7-1.2,4.4-1.7c0.9-0.3,1.8-0.5,2.7-0.7c0.2-0.1,0.5-0.1,0.7-0.2l0.4-0.1l0.4-0.1
		c0.5-0.1,1-0.1,1.5-0.2c2.1-0.2,4-0.2,5.8,0c1.8,0.2,3.4,0.5,4.7,0.9c1.3,0.4,2.3,0.8,3.1,1.1c0.7,0.3,1.1,0.4,1.2,0.3
		c0.1-0.1-0.2-0.4-0.9-0.9c-0.6-0.5-1.6-1.1-3-1.6c-1.3-0.5-3-1-4.9-1.3c-1.9-0.3-4-0.3-6.2-0.1c-0.5,0.1-1.1,0.1-1.6,0.2l-0.4,0.1
		c-0.1,0-0.3,0.1-0.4,0.1c-0.3,0.1-0.5,0.1-0.8,0.2c-1,0.3-1.9,0.5-2.8,0.9c-1.8,0.6-3.3,1.4-4.5,2.1C43.2,67.4,42.6,67.8,42.2,68.1
		z"/>
	<linearGradient id="SVGID_1_" gradientUnits="userSpaceOnUse" x1="33.1705" y1="72.5" x2="126.8295" y2="72.5">
		<stop  offset="0" style="stop-color:#EF537A"/>
		<stop  offset="1" style="stop-color:#4A3D97"/>
	</linearGradient>
	<path class="st3" d="M126.7,66.3c-0.2-3.3-0.5-6.6-1-9.9c-1-6.6-2.6-13.1-4.9-19.4c-1.1-3.2-2.4-6.2-3.9-9.3
		c-1.3-2.7-4.5-9.4-5-9.2c-0.5,0.2-2.3,1-3,1.4c-0.7,0.4-1.5,1-2.3,1.6c-0.8,0.7-1.6,1.5-2.4,2.4c-0.8,0.9-1.5,2-2.3,3.1
		c-1.5,2.3-2.8,5-3.9,7.9c-1.1,2.9-2,5.7-2.7,8.3c-0.7,2.6-1.1,5-1.4,7c-0.3,2-0.4,3.7-0.4,4.8c0,0.2,0,0.5,0,0.7
		c-1.6,0-3.1-0.1-4.7-0.1c-1.9,0-3.8,0-5.6,0c-0.9,0-1.9,0-2.8,0c-0.9,0-1.9,0.1-2.8,0.1c-3.5,0.2-7.1,0.4-10.6,0.6
		c0-0.2,0-0.4,0-0.6c-0.1-1.2-0.4-2.8-0.8-4.8c-0.5-2-1.1-4.4-2-7c-0.9-2.6-2-5.4-3.4-8.2c-1.4-2.8-3-5.4-4.6-7.6
		c-0.8-1.1-1.7-2.1-2.6-3c-0.9-0.9-1.8-1.6-2.6-2.2c-0.9-0.6-1.7-1.1-2.4-1.5c-0.8-0.4-1.4-0.6-2-0.8c-0.4-0.1-0.8-0.2-1.1-0.2
		c-0.5-0.2-1.1-0.1-1.5,0.3c-0.1,0.1-0.1,0.2-0.2,0.3c-2.4,4.4-4.2,9-5.7,13.8c-1.5,4.7-2.6,9.6-3.4,14.5
		c-0.8,5.2-1.3,10.4-1.3,15.6c0,2.6,0.1,5.2,0.3,7.8c0.1,1.3,0.2,2.6,0.4,3.9c0.1,0.7,0.2,1.3,0.3,2l0.2,1l0.1,0.5l0,0.1
		c0,0,0,0,0,0l0,0l0,0.1l0,0.2c0.7,5.1,1.5,10.3,2.7,15.4c0.6,2.5,1.3,5.1,2.1,7.6c0.8,2.5,1.8,5,3,7.3c1.2,2.4,2.7,4.6,4.4,6.7
		c1.8,2,3.8,3.8,6.2,5.2c1.2,0.7,2.4,1.2,3.7,1.7c1.3,0.4,2.6,0.8,3.9,1c0.3,0.1,0.7,0.1,1,0.1l0.1,0l0.1,0l0.1,0l0.2,0l0.5,0
		c0.7,0,1.3,0.1,2,0c1.3,0,2.7-0.1,4-0.3c1.3-0.2,2.6-0.6,3.9-1.1c0.1,0.1,0.1,0.2,0.2,0.3c0.3,0.4,0.7,0.7,1.1,1
		c0.8,0.5,1.8,0.8,2.7,1c1,0.2,1.9,0.2,2.9,0.1c0.9,0,1.8-0.1,2.6-0.1c1.1,0,2.3,0,3.4-0.1c1.1-0.1,2.3-0.2,3.4-0.4
		c1.1-0.2,2.3-0.5,3.3-1.1c0.5-0.3,1-0.6,1.5-1c0.2-0.2,0.3-0.3,0.5-0.5c0.4,0.1,0.8,0.2,1.2,0.3c1.7,0.3,3.4,0.4,5.1,0.4
		c0.9,0,1.7-0.1,2.5-0.2c0.4-0.1,0.8-0.1,1.3-0.2l0.2,0l0.1,0l0.1,0l0.3-0.1c0.2,0,0.4-0.1,0.6-0.1c1.7-0.4,3.3-1,4.8-1.8
		c1.5-0.8,2.9-1.7,4.2-2.9c1.3-1.1,2.4-2.4,3.4-3.7c1-1.4,1.9-2.8,2.6-4.3c0.8-1.5,1.4-3.1,2-4.6c1.1-3.2,1.9-6.4,2.5-9.7
		c1.1-6.6,1.5-13.2,1.8-19.9c0.1-1.6,0.2-3.3,0.2-5C126.8,69.7,126.8,68,126.7,66.3z"/>
	<linearGradient id="SVGID_2_" gradientUnits="userSpaceOnUse" x1="111.054" y1="19.6106" x2="111.2889" y2="19.6106">
		<stop  offset="0" style="stop-color:#EF537A"/>
		<stop  offset="1" style="stop-color:#4A3D97"/>
	</linearGradient>
	<path class="st8" d="M111.1,19.6c0,0,0.1-0.1,0.1-0.1C111.3,19.6,111.2,19.6,111.1,19.6L111.1,19.6
		C111.1,19.7,111.1,19.6,111.1,19.6z"/>
	<linearGradient id="SVGID_3_" gradientUnits="userSpaceOnUse" x1="109.4859" y1="21.2673" x2="111.0955" y2="21.2673">
		<stop  offset="0" style="stop-color:#EF537A"/>
		<stop  offset="1" style="stop-color:#4A3D97"/>
	</linearGradient>
	<path class="st9" d="M109.5,20.7c0.6-0.4,1.1-0.7,1.5-1c0,0.1,0.1,0.1,0.1,0.2c0,0,0,0,0,0c-0.2,0.3-0.3,0.6-0.5,1
		c-0.3,0.7-0.6,1.3-0.8,2c0,0,0-0.1,0-0.1C109.6,22.1,109.4,21.4,109.5,20.7z"/>
	<linearGradient id="SVGID_4_" gradientUnits="userSpaceOnUse" x1="107.8179" y1="23.6673" x2="108.9845" y2="23.6673">
		<stop  offset="0" style="stop-color:#EF537A"/>
		<stop  offset="1" style="stop-color:#4A3D97"/>
	</linearGradient>
	<path class="st10" d="M108.2,21.7c0,0.3,0.2,0.6,0.2,0.9c0.1,0.5,0.2,0.9,0.3,1.4c0.1,0.5,0.2,0.9,0.3,1.3c0,0,0,0,0,0
		c0,0.1,0,0.1-0.1,0.2c-0.1-0.2-0.2-0.5-0.3-0.7c-0.2-0.6-0.4-1.1-0.6-1.7c-0.1-0.4-0.2-0.7-0.3-1.1C108,22,108.1,21.9,108.2,21.7z"
		/>
	<linearGradient id="SVGID_5_" gradientUnits="userSpaceOnUse" x1="106.4226" y1="26.1745" x2="108.162" y2="26.1745">
		<stop  offset="0" style="stop-color:#EF537A"/>
		<stop  offset="1" style="stop-color:#4A3D97"/>
	</linearGradient>
	<path class="st11" d="M106.8,23.2c0,0.1,0,0.2,0,0.3c0.1,0.5,0.4,1,0.5,1.5c0.1,0.6,0.3,1.1,0.4,1.7c0.1,0.6,0.2,1.1,0.2,1.7
		c0,0,0.1,0.1,0.2,0.1c-0.1,0.2-0.1,0.5-0.2,0.7c-0.2-0.6-0.4-1.1-0.6-1.7c-0.4-1.3-0.8-2.6-0.9-3.9
		C106.5,23.4,106.7,23.3,106.8,23.2z"/>
	<linearGradient id="SVGID_6_" gradientUnits="userSpaceOnUse" x1="104.7923" y1="29.4492" x2="107.3556" y2="29.4492">
		<stop  offset="0" style="stop-color:#EF537A"/>
		<stop  offset="1" style="stop-color:#4A3D97"/>
	</linearGradient>
	<path class="st13" d="M105.4,24.8c-0.1,1,0.4,1.8,0.6,2.7c0.4,1.5,0.8,3,1.1,4.5c0,0.1,0.1,0.1,0.2,0.1c-0.1,0.7-0.3,1.4-0.4,2
		c-0.3-0.9-0.6-1.7-0.9-2.6c-0.6-1.9-1.1-3.8-1.3-5.8C105,25.4,105.2,25.1,105.4,24.8z"/>
	<linearGradient id="SVGID_7_" gradientUnits="userSpaceOnUse" x1="102.9529" y1="33.536" x2="106.3427" y2="33.536">
		<stop  offset="0" style="stop-color:#EF537A"/>
		<stop  offset="1" style="stop-color:#4A3D97"/>
	</linearGradient>
	<path class="st15" d="M103.4,27.9c0.3-0.4,0.5-0.8,0.8-1.2c-0.6,1.7,0.2,3.2,0.6,4.7c0.2,1,0.5,2,0.7,3c0.1,0.5,0.2,1,0.3,1.5
		c0.1,0.3,0.1,0.5,0.1,0.8c0,0.2,0.1,0.5,0.1,0.7c0,0.1,0.1,0.1,0.3,0.1c-0.2,1-0.3,2-0.5,3c-0.4-1.5-0.9-2.9-1.3-4.4
		c-0.7-2.5-1.3-4.9-1.6-7.4C103.1,28.3,103.2,28.1,103.4,27.9z"/>
	<linearGradient id="SVGID_8_" gradientUnits="userSpaceOnUse" x1="101.6239" y1="38.0801" x2="105.3529" y2="38.0801">
		<stop  offset="0" style="stop-color:#EF537A"/>
		<stop  offset="1" style="stop-color:#4A3D97"/>
	</linearGradient>
	<path class="st16" d="M102.1,30.2c0,1.9,0.7,3.7,1.1,5.5c0.6,2.9,1.4,5.8,2,8.7c0,0.1,0.1,0.2,0.2,0.2c-0.1,0.5-0.1,1-0.2,1.4
		c-0.1-0.3-0.2-0.6-0.3-0.9c-0.5-1.6-1-3.3-1.5-4.9c-0.4-1.5-0.8-3.1-1.1-4.6c-0.3-1.5-0.6-3-0.7-4.5
		C101.8,30.8,101.9,30.5,102.1,30.2z"/>
	<linearGradient id="SVGID_9_" gradientUnits="userSpaceOnUse" x1="100.0901" y1="42.3387" x2="104.8682" y2="42.3387">
		<stop  offset="0" style="stop-color:#EF537A"/>
		<stop  offset="1" style="stop-color:#4A3D97"/>
	</linearGradient>
	<path class="st17" d="M100.9,32.6c0,0.2-0.1,0.4-0.1,0.6c-0.1,0.8,0,1.5,0.1,2.3c0.2,1.5,0.7,2.9,1,4.3c0.7,3.2,1.6,6.4,2.3,9.6
		c0,0.2,0.3,0.3,0.5,0.3c-0.1,0.8-0.1,1.7-0.2,2.5c-0.1-0.5-0.3-0.9-0.4-1.4c-0.6-2-1.1-3.9-1.7-5.8c-1-3.4-1.9-6.9-2.5-10.4
		C100.4,33.8,100.6,33.2,100.9,32.6z"/>
	<linearGradient id="SVGID_10_" gradientUnits="userSpaceOnUse" x1="98.9345" y1="45.8414" x2="103.778" y2="45.8414">
		<stop  offset="0" style="stop-color:#EF537A"/>
		<stop  offset="1" style="stop-color:#4A3D97"/>
	</linearGradient>
	<path class="st18" d="M99.5,35.9c-0.2,2.9,1,5.7,1.6,8.4l1.4,5.7c0.5,1.9,0.9,3.8,1.2,5.7c0.1,0.3-0.2-0.4-0.3-0.8
		c-0.3-0.9-0.5-1.8-0.8-2.7c-0.5-1.7-1.1-3.5-1.6-5.2c-0.4-1.6-0.9-3.3-1.2-4.9c-0.2-0.8-0.3-1.6-0.4-2.5c-0.1-0.4-0.1-0.8-0.1-1.2
		c0-0.4-0.1-0.8,0-1.2c0,0-0.1-0.1-0.1,0c-0.1,0.1-0.2,0.3-0.2,0.4C99.1,36.9,99.3,36.4,99.5,35.9z"/>
	<linearGradient id="SVGID_11_" gradientUnits="userSpaceOnUse" x1="97.8146" y1="47.1059" x2="101.9553" y2="47.1059">
		<stop  offset="0" style="stop-color:#EF537A"/>
		<stop  offset="1" style="stop-color:#4A3D97"/>
	</linearGradient>
	<path class="st19" d="M98.6,38.2c-0.1,0.4-0.2,0.7-0.2,1.1c-0.1,0.8,0,1.6,0.1,2.4c0.2,1.6,0.8,3.1,1.1,4.6
		c0.4,1.7,0.8,3.4,1.2,5.1c0.2,0.9,0.4,1.7,0.6,2.6c0.1,0.6,0.3,1.3,0.4,1.9c-0.1,0-0.1,0-0.2,0c0.2-0.4,0-0.8-0.1-1.2
		c-0.2-0.8-0.4-1.5-0.7-2.3c-0.5-1.5-0.9-2.9-1.4-4.3c-0.4-1.3-0.8-2.7-1.1-4.1c-0.2-0.7-0.3-1.4-0.4-2.1c-0.1-0.4-0.1-0.9-0.2-1.3
		C98.1,39.9,98.4,39.1,98.6,38.2z"/>
	<linearGradient id="SVGID_12_" gradientUnits="userSpaceOnUse" x1="96.7248" y1="49.588" x2="100.1403" y2="49.588">
		<stop  offset="0" style="stop-color:#EF537A"/>
		<stop  offset="1" style="stop-color:#4A3D97"/>
	</linearGradient>
	<path class="st20" d="M96.9,43.7c0-0.1,0.1-0.3,0.1-0.4c0,0.2,0.1,0.5,0.1,0.7c0.2,1.3,0.7,2.6,1,3.8c0.3,1.4,0.7,2.8,1.1,4.2
		c0.2,0.7,0.4,1.4,0.5,2.1c0.1,0.6,0.3,1.2,0.4,1.8c0,0,0,0,0,0c-0.1,0-0.2,0-0.3,0c0.1-0.3,0-0.5-0.1-0.8c-0.2-0.5-0.3-1.1-0.5-1.6
		c-0.3-1.1-0.7-2.1-1-3.2c-0.3-1-0.6-2-0.8-2.9c-0.1-0.5-0.2-1-0.3-1.5l-0.1-0.8c0-0.3-0.1-0.5-0.2-0.8c0,0,0,0,0,0
		C96.8,44.1,96.8,43.9,96.9,43.7z"/>
	<linearGradient id="SVGID_13_" gradientUnits="userSpaceOnUse" x1="95.5351" y1="51.4047" x2="98.1215" y2="51.4047">
		<stop  offset="0" style="stop-color:#EF537A"/>
		<stop  offset="1" style="stop-color:#4A3D97"/>
	</linearGradient>
	<path class="st21" d="M96,47c0,0.1,0,0.3,0.1,0.4c0.2,0.9,0.5,1.9,0.7,2.7c0.4,1.9,0.9,3.8,1.3,5.7c-0.3,0-0.5,0-0.8,0
		c0-0.1,0-0.1-0.1-0.2c-0.1-0.3-0.2-0.7-0.3-1c-0.2-0.7-0.4-1.3-0.6-2c-0.2-0.6-0.3-1.2-0.5-1.9c-0.1-0.6-0.2-1.3-0.3-1.9
		c0,0-0.1,0-0.1,0C95.7,48.3,95.8,47.6,96,47z"/>
	<linearGradient id="SVGID_14_" gradientUnits="userSpaceOnUse" x1="94.7029" y1="53.4517" x2="95.4665" y2="53.4517">
		<stop  offset="0" style="stop-color:#EF537A"/>
		<stop  offset="1" style="stop-color:#4A3D97"/>
	</linearGradient>
	<path class="st22" d="M94.9,51.9c0.1,0.2,0.1,0.4,0.2,0.6c0.1,0.6,0.2,1.3,0.4,1.9c0,0.2,0.1,0.3,0.1,0.5c-0.1-0.2-0.2-0.3-0.2-0.5
		c-0.3-0.6-0.4-1.2-0.3-1.9c0,0-0.1,0-0.1,0c0,0-0.1,0-0.1,0C94.8,52.4,94.8,52.2,94.9,51.9z"/>
	<linearGradient id="SVGID_15_" gradientUnits="userSpaceOnUse" x1="94.1371" y1="55.6755" x2="94.1904" y2="55.6755">
		<stop  offset="0" style="stop-color:#EF537A"/>
		<stop  offset="1" style="stop-color:#4A3D97"/>
	</linearGradient>
	<path class="st23" d="M94.2,55.6c0,0,0,0.1,0,0.2c0,0,0,0-0.1,0C94.1,55.7,94.2,55.7,94.2,55.6z"/>
	<path d="M66.4,56.4C66.4,56.4,66.4,56.5,66.4,56.4C66.4,56.5,66.4,56.5,66.4,56.4C66.4,56.5,66.4,56.4,66.4,56.4z"/>
	<linearGradient id="SVGID_16_" gradientUnits="userSpaceOnUse" x1="65.0434" y1="54.3471" x2="65.6485" y2="54.3471">
		<stop  offset="0" style="stop-color:#EF537A"/>
		<stop  offset="1" style="stop-color:#4A3D97"/>
	</linearGradient>
	<path class="st24" d="M65.1,55.4c0.1-0.7,0.2-1.3,0.2-2c0-0.2,0.1-0.4,0.1-0.7c0.1,0.3,0.1,0.5,0.2,0.7c0,0-0.1,0-0.1,0
		c0,0-0.1,0-0.1,0c0.2,0.7,0.1,1.3-0.2,1.9c-0.1,0.2-0.1,0.3-0.2,0.5C65.1,55.7,65.1,55.6,65.1,55.4z"/>
	<linearGradient id="SVGID_17_" gradientUnits="userSpaceOnUse" x1="62.4186" y1="52.3045" x2="64.5042" y2="52.3045">
		<stop  offset="0" style="stop-color:#EF537A"/>
		<stop  offset="1" style="stop-color:#4A3D97"/>
	</linearGradient>
	<path class="st25" d="M63.8,48.3c0-0.1,0-0.3,0-0.4c0.2,0.7,0.4,1.3,0.6,1.9c0,0-0.1,0-0.1,0c0,0.7,0,1.3-0.1,2
		c-0.1,0.6-0.2,1.3-0.3,1.9c-0.1,0.7-0.3,1.4-0.5,2c-0.1,0.3-0.1,0.7-0.2,1c-0.3,0-0.5,0-0.8,0.1c0.2-1.9,0.6-3.8,0.9-5.6
		C63.4,50.2,63.8,49.3,63.8,48.3z"/>
	<linearGradient id="SVGID_18_" gradientUnits="userSpaceOnUse" x1="60.3622" y1="50.5581" x2="62.9307" y2="50.5581">
		<stop  offset="0" style="stop-color:#EF537A"/>
		<stop  offset="1" style="stop-color:#4A3D97"/>
	</linearGradient>
	<path class="st27" d="M62.5,44.9c0-0.2,0-0.5,0-0.7c0,0.1,0.1,0.3,0.1,0.4c0.1,0.2,0.2,0.4,0.2,0.6c0,0,0,0,0,0
		c0,0.3-0.1,0.5-0.1,0.8l-0.1,0.8c-0.1,0.5-0.1,1-0.2,1.5c-0.2,1-0.4,2-0.6,3c-0.2,1.1-0.5,2.2-0.8,3.3c-0.1,0.6-0.3,1.1-0.4,1.7
		c0,0.2-0.1,0.3-0.1,0.5c-0.1,0-0.2,0-0.2,0c0.1-0.5,0.1-1,0.2-1.5c0.1-0.7,0.2-1.5,0.4-2.2c0.3-1.5,0.5-2.9,0.8-4.4
		C62,47.6,62.4,46.3,62.5,44.9z"/>
	<linearGradient id="SVGID_19_" gradientUnits="userSpaceOnUse" x1="58.5224" y1="48.1501" x2="61.5349" y2="48.1501">
		<stop  offset="0" style="stop-color:#EF537A"/>
		<stop  offset="1" style="stop-color:#4A3D97"/>
	</linearGradient>
	<path class="st28" d="M61.5,41.7c0,0.4-0.1,0.9-0.1,1.3c-0.1,0.7-0.2,1.4-0.3,2.1c-0.2,1.4-0.5,2.8-0.8,4.2c-0.3,1.5-0.7,3-1.1,4.5
		c-0.2,0.8-0.3,1.6-0.5,2.3c-0.1,0.3-0.2,0.6-0.1,0.9c0,0,0,0-0.1,0c0.1-0.5,0.2-1.1,0.2-1.6c0.1-0.9,0.3-1.8,0.4-2.6
		c0.3-1.8,0.6-3.5,0.9-5.3c0.2-1.5,0.6-3.1,0.8-4.8c0.1-0.8,0.1-1.6-0.1-2.4c-0.1-0.4-0.2-0.8-0.3-1.1
		C60.9,40.1,61.2,40.9,61.5,41.7z"/>
	<linearGradient id="SVGID_20_" gradientUnits="userSpaceOnUse" x1="56.5961" y1="47.0889" x2="60.1361" y2="47.0889">
		<stop  offset="0" style="stop-color:#EF537A"/>
		<stop  offset="1" style="stop-color:#4A3D97"/>
	</linearGradient>
	<path class="st29" d="M60.1,38.5c-0.1-0.1-0.5,3.8-0.6,4.7c-0.2,1.7-0.5,3.4-0.9,5c-0.4,1.8-0.8,3.6-1.2,5.4
		c-0.2,0.9-0.4,1.9-0.6,2.8c-0.1,0.3-0.1,0.5-0.2,0.8c0,0-0.1,0-0.1,0c0.2-1.9,0.5-3.9,0.8-5.8l1-5.8c0.5-2.7,1.1-6,1-8.6
		C59.7,37.5,59.9,38,60.1,38.5z"/>
	<linearGradient id="SVGID_21_" gradientUnits="userSpaceOnUse" x1="55.4212" y1="43.0272" x2="58.7232" y2="43.0272">
		<stop  offset="0" style="stop-color:#EF537A"/>
		<stop  offset="1" style="stop-color:#4A3D97"/>
	</linearGradient>
	<path class="st30" d="M57.8,34.2c0-0.2-0.1-0.4-0.1-0.6c0.3,0.6,0.7,1.2,1,1.9c-0.4,3.6-1.1,7.1-1.8,10.7c-0.4,2-0.9,4-1.3,6
		c0,0,0,0.1,0,0.1c-0.1-0.4-0.1-0.9-0.2-1.3c0.1,0,0.1-0.1,0.1-0.2c0.5-3.3,1.1-6.6,1.6-9.9c0.2-1.4,0.6-2.9,0.7-4.5
		C58,35.8,58,35,57.8,34.2z"/>
	<linearGradient id="SVGID_22_" gradientUnits="userSpaceOnUse" x1="54.3756" y1="38.9306" x2="56.8899" y2="38.9306">
		<stop  offset="0" style="stop-color:#EF537A"/>
		<stop  offset="1" style="stop-color:#4A3D97"/>
	</linearGradient>
	<path class="st31" d="M56.3,31.3c0.2,0.3,0.4,0.6,0.6,0.9c0,1.5-0.2,3.1-0.4,4.6c-0.2,1.6-0.5,3.2-0.8,4.7c-0.3,1.7-0.7,3.3-1.1,5
		c-0.1-0.4-0.2-0.8-0.2-1.2c0.4-2.8,0.9-5.6,1.3-8.4C55.9,35.2,56.5,33.2,56.3,31.3z"/>
	<linearGradient id="SVGID_23_" gradientUnits="userSpaceOnUse" x1="52.8536" y1="34.5203" x2="55.3348" y2="34.5203">
		<stop  offset="0" style="stop-color:#EF537A"/>
		<stop  offset="1" style="stop-color:#4A3D97"/>
	</linearGradient>
	<path class="st32" d="M53.7,32.7c0.2-1.5,1-3.1,0.2-4.8c0.3,0.4,0.6,0.8,0.9,1.2c0.2,0.2,0.3,0.4,0.5,0.7c-0.2,2.6-0.6,5.1-1.1,7.6
		c-0.2,1.2-0.5,2.5-0.8,3.7c-0.1-0.6-0.3-1.2-0.4-1.8c-0.1-0.2-0.1-0.4-0.2-0.6c0-0.2,0-0.4,0-0.6c0-0.3,0.1-0.5,0.1-0.8
		c0.1-0.5,0.1-1,0.2-1.6C53.4,34.8,53.6,33.7,53.7,32.7z"/>
	<linearGradient id="SVGID_24_" gradientUnits="userSpaceOnUse" x1="51.3508" y1="30.5889" x2="53.2264" y2="30.5889">
		<stop  offset="0" style="stop-color:#EF537A"/>
		<stop  offset="1" style="stop-color:#4A3D97"/>
	</linearGradient>
	<path class="st33" d="M52.5,26.2c0.2,0.3,0.5,0.5,0.7,0.8c-0.1,2-0.4,4-0.9,6c-0.2,0.7-0.3,1.4-0.5,2c-0.2-0.6-0.3-1.1-0.5-1.6
		c0.2-1.5,0.5-3,0.8-4.4C52.3,28,52.7,27.1,52.5,26.2z"/>
	<linearGradient id="SVGID_25_" gradientUnits="userSpaceOnUse" x1="50.2018" y1="27.4648" x2="51.3944" y2="27.4648">
		<stop  offset="0" style="stop-color:#EF537A"/>
		<stop  offset="1" style="stop-color:#4A3D97"/>
	</linearGradient>
	<path class="st34" d="M50.3,28.2c0.1-0.6,0.2-1.2,0.3-1.8c0.1-0.5,0.4-1,0.4-1.6c0-0.1,0-0.2,0-0.3c0.1,0.1,0.3,0.3,0.4,0.4
		c0,1.4-0.3,2.7-0.7,4c-0.1,0.4-0.2,0.8-0.4,1.3c0-0.1-0.1-0.2-0.1-0.4c0,0,0,0,0-0.1C50.2,29.3,50.2,28.8,50.3,28.2z"/>
	<linearGradient id="SVGID_26_" gradientUnits="userSpaceOnUse" x1="48.9652" y1="25.0677" x2="49.8515" y2="25.0677">
		<stop  offset="0" style="stop-color:#EF537A"/>
		<stop  offset="1" style="stop-color:#4A3D97"/>
	</linearGradient>
	<path class="st35" d="M49.1,25.6c0.1-0.5,0.1-0.9,0.2-1.4c0-0.3,0.1-0.6,0.1-1c0.1,0.1,0.3,0.2,0.5,0.4c0,0.4-0.1,0.8-0.2,1.2
		c-0.1,0.6-0.3,1.2-0.5,1.7c0,0.1-0.1,0.2-0.1,0.3c0-0.1-0.1-0.2-0.1-0.4C49,26.2,49,25.9,49.1,25.6z"/>
	<linearGradient id="SVGID_27_" gradientUnits="userSpaceOnUse" x1="46.2767" y1="22.7875" x2="48.0766" y2="22.7875">
		<stop  offset="0" style="stop-color:#EF537A"/>
		<stop  offset="1" style="stop-color:#4A3D97"/>
	</linearGradient>
	<path class="st36" d="M48,22.3c0.1,0.6,0.1,1.3-0.1,1.9c-0.2-0.4-0.4-0.8-0.6-1.1c-0.2-0.4-0.4-0.8-0.7-1.1
		c-0.1-0.2-0.3-0.4-0.4-0.5C46.8,21.6,47.4,21.9,48,22.3z"/>
	<linearGradient id="SVGID_28_" gradientUnits="userSpaceOnUse" x1="34.8906" y1="72.5522" x2="125.3049" y2="72.5522">
		<stop  offset="0" style="stop-color:#3F58A6"/>
		<stop  offset="1" style="stop-color:#C9A2C8"/>
	</linearGradient>
	<path class="st37" d="M125.2,74.7c0,0.4,0,0.8-0.1,1.2l0,0.3l0,0.3l0,0.6l-0.1,2.5c-0.1,1.7-0.2,3.3-0.3,5
		c-0.2,3.3-0.6,6.6-1.1,9.9c-0.5,3.2-1.2,6.5-2.2,9.6c-1,3.1-2.3,6.1-4,8.7c-0.9,1.3-1.9,2.6-3,3.7c-1.1,1.1-2.3,2.1-3.6,2.9
		c-1.3,0.8-2.7,1.5-4.2,2c-0.7,0.2-1.5,0.5-2.2,0.6l-0.3,0.1l0,0c0,0,0,0,0,0l-0.1,0l-0.1,0c-0.2,0-0.4,0.1-0.6,0.1
		c-0.4,0.1-0.8,0.1-1.2,0.2c-1.5,0.2-3.1,0.2-4.6,0.1c-1.1-0.1-2.2-0.3-3.3-0.6c0,0-0.1,0-0.1,0c-0.1,0-0.1,0-0.2,0
		c-0.3-0.1-0.6-0.2-0.8-0.3c-1.4-0.5-2.7-1.3-3.7-2.3c-1.1-1-2-2.2-2.8-3.4c-0.7-1.3-1.3-2.7-1.8-4.1c-0.5-1.4-0.8-2.9-1.1-4.3
		c-0.5-2.6-0.8-5.3-1.1-7.9c0-2.2-0.1-4.4-0.1-6.5v0c0-0.1,0-0.2,0-0.3c0.4-0.7,0.8-1.5,1.2-2.3c0.3-0.6,0.5-1.3,0.8-1.9
		c0.1-0.3,0.2-0.7,0.3-1c0.1-0.2,0.1-0.3,0.2-0.5c0.1-0.2,0.1-0.4,0.2-0.5c0.4-1.5,0.6-2.9,0.7-4.5c0.1-0.8,0.1-1.5,0.1-2.3
		c0-0.4,0-0.8-0.1-1.2c0-0.2-0.1-0.5-0.2-0.7c-0.1-0.1-0.1-0.3-0.2-0.4c-0.1-0.1-0.1-0.2-0.2-0.3c-0.1-0.1-0.2-0.2-0.4-0.2l0,0
		c0,0,0,0-0.1,0c-0.2-0.1-0.3-0.1-0.5-0.1c-0.2,0-0.4,0-0.5,0.1c-0.3,0.1-0.5,0.3-0.6,0.4c-0.1,0.1-0.2,0.3-0.3,0.4
		c-0.1,0.1-0.2,0.3-0.2,0.4c-0.2,0.5-0.4,1-0.5,1.5c-0.2,0.7-0.3,1.4-0.5,2c-0.2-0.9-0.5-1.8-1-2.6c-0.1-0.3-0.3-0.5-0.5-0.7
		c-0.2-0.2-0.4-0.5-0.6-0.7c-0.1-0.1-0.3-0.2-0.4-0.3c-0.2-0.1-0.4-0.2-0.6-0.2c-0.2,0-0.5,0.1-0.7,0.2c-0.2,0.1-0.3,0.3-0.4,0.5
		c-0.2,0.3-0.3,0.6-0.3,0.9c-0.1,0.3-0.1,0.6-0.1,0.9c0,0.6,0,1.1,0.1,1.7c0,0.3,0.1,0.5,0.1,0.8l0.1,0.4l0.1,0.4
		c0.1,0.6,0.2,1.1,0.3,1.6c0.3,1.1,0.6,2.1,0.9,3.1c0.3,1,0.7,2,1.2,3c0.4,0.9,0.8,1.7,1.2,2.6c-0.1,0.1-0.1,0.3-0.1,0.4
		c0.2,1.9,0.3,3.8,0.5,5.8c0,1.3,0,2.5,0,3.8c0,1.7-0.1,3.3-0.3,4.9c-0.2,1.6-0.5,3.2-0.9,4.8c-0.4,1.6-1,3.1-1.8,4.5
		c-0.8,1.4-1.8,2.7-3,3.7c-1.2,1-2.7,1.8-4.2,2.3c-1.5,0.5-3.1,0.8-4.8,0.9c-0.8,0.1-1.6,0.1-2.4,0.1c-0.4,0-0.8,0-1.2,0
		c-0.2,0-0.4,0-0.6,0l0,0c0,0,0,0,0,0l-0.1,0l-0.2,0l-0.3,0c-1.6-0.2-3.2-0.6-4.7-1.2c-1.5-0.6-3-1.3-4.3-2.2
		c-1.3-0.9-2.6-2-3.7-3.2c-2.2-2.4-4-5.2-5.4-8.2c-1.4-3-2.5-6.1-3.4-9.3c-0.9-3.2-1.6-6.5-2.2-9.7c-0.6-3.3-1.1-6.6-1.5-9.9l0-0.2
		l0-0.1l0-0.1l-0.1-0.3l-0.1-0.6c-0.1-0.4-0.1-0.8-0.2-1.2c-0.1-0.8-0.2-1.6-0.3-2.5c-0.2-1.7-0.3-3.3-0.4-5
		c-0.2-3.3-0.1-6.7,0.1-10c0.4-6.6,1.4-13.2,3.1-19.7c0.8-3.2,1.8-6.4,3-9.5c1.1-2.9,2.4-5.7,3.8-8.5c0.1,0.1,0.2,0.2,0.3,0.4
		c0.2,0.3,0.4,0.7,0.6,1c0.4,0.7,0.7,1.4,1,2.1c0.6,1.5,1.2,3,1.7,4.5c1,3,1.9,6.1,2.7,9.2c0.8,3.1,1.5,6.2,2.1,9.4
		c0.6,3.2,1,6.3,1.3,9.5v0c0,0.2,0.2,0.4,0.4,0.3c7.2-0.7,14.4-1.3,21.6-1.8c3.6-0.3,7.2-0.3,10.8-0.4c3.6,0,7.2,0,10.8,0
		c3.4,0,5.7,0.3,6.4,0.2c0,0.1,0.9-8.2,1.2-10.8c0.4-2.9,0.8-5.9,1.4-8.9c0.6-3,1.2-6.1,2-9.1c0.4-1.5,0.9-3,1.4-4.5
		c0.3-0.7,0.5-1.5,0.9-2.2c0.1-0.2,0.2-0.3,0.2-0.5c2.9,4.7,5.3,9.9,7.3,15.3c2.2,6,3.8,12.2,4.9,18.7c0.5,3.2,0.9,6.5,1.1,9.7
		C125.3,68.1,125.4,71.4,125.2,74.7z"/>
	<g>
		<linearGradient id="SVGID_29_" gradientUnits="userSpaceOnUse" x1="73.3401" y1="116.3706" x2="92.3082" y2="116.3706">
			<stop  offset="0" style="stop-color:#ED2F66"/>
			<stop  offset="1" style="stop-color:#F8A131"/>
		</linearGradient>
		<path class="st38" d="M91.6,123c-0.8,0.4-1.7,0.7-2.6,1c-1,0.3-2.1,0.5-3.2,0.6c-1.1,0.1-2.2,0.2-3.3,0.3c-1.8,0.1-3.6,0.2-5.4,0
			c-0.9-0.1-1.8-0.3-2.6-0.6c-0.4-0.2-0.8-0.4-1.2-0.6c0,0,0,0,0,0c0.9-0.5,1.8-1,2.6-1.7c1.1-0.9,2-1.9,2.8-3.1
			c0.8-1.1,1.4-2.4,1.9-3.6c0.5-1.3,0.8-2.6,1.1-3.9c0.3-1.3,0.5-2.5,0.6-3.8c0.1,0.3,0.1,0.6,0.2,0.8c0.4,1.7,0.8,3.3,1.5,4.9
			c0.6,1.6,1.4,3.2,2.5,4.6c1,1.4,2.3,2.6,3.8,3.6c0.6,0.4,1.3,0.8,2,1C92.1,122.8,91.9,122.9,91.6,123z"/>
		<linearGradient id="SVGID_30_" gradientUnits="userSpaceOnUse" x1="78.6059" y1="84.9733" x2="84.3987" y2="84.9733">
			<stop  offset="0" style="stop-color:#ED2F66"/>
			<stop  offset="1" style="stop-color:#F8A131"/>
		</linearGradient>
		<path class="st39" d="M81.6,92.1c-0.2-0.7-0.4-1.4-0.6-2.1l-0.9-3.1c-0.3-1-0.6-2.1-0.9-3.1c-0.1-0.5-0.2-1-0.3-1.5l-0.1-0.4
			l-0.1-0.4c0-0.3-0.1-0.5-0.1-0.8c-0.1-0.5-0.1-1-0.1-1.4c0-0.2,0-0.3,0-0.4c0,0,0.1,0.1,0.1,0.1c0.1,0.2,0.2,0.4,0.4,0.6
			c0.4,0.8,0.8,1.8,1,2.7c0.2,1,0.4,2,0.4,3l0,0.1c0,0.5,0.4,0.9,0.9,0.9c0.4,0,0.8-0.4,0.9-0.8l0.2-1.7c0.2-1.2,0.4-2.3,0.6-3.4
			c0.1-0.6,0.3-1.1,0.5-1.6c0.1-0.2,0.2-0.5,0.3-0.7c0.1-0.1,0.1-0.1,0.2-0.2c0,0,0,0,0,0c0,0,0,0.1,0,0.1c0.1,0.1,0.1,0.3,0.1,0.4
			c0.1,0.3,0.1,0.6,0.1,1c0,0.7,0,1.3,0,2c-0.1,1.4-0.3,2.7-0.6,4c-0.1,0.3-0.1,0.7-0.2,1c-0.1,0.3-0.2,0.7-0.3,1
			c-0.2,0.7-0.4,1.3-0.6,2c-0.3,0.9-0.6,1.8-0.9,2.7C81.8,92.1,81.7,92.1,81.6,92.1C81.7,92.1,81.7,92.1,81.6,92.1z"/>
		<linearGradient id="SVGID_31_" gradientUnits="userSpaceOnUse" x1="103.6518" y1="103.9243" x2="105.5521" y2="103.9243">
			<stop  offset="0" style="stop-color:#ED2F66"/>
			<stop  offset="1" style="stop-color:#F8A131"/>
		</linearGradient>
		<path class="st40" d="M105.5,102.9l0-0.1c0,0,0-0.1,0-0.1c0-0.2-0.1-0.3-0.1-0.4c0,0,0,0-0.1,0c0,0,0,0,0,0c0,0,0,0,0,0
			c0,0,0-0.1,0-0.1c0-0.6-0.2-1.2-0.5-1.3c-0.2-0.1-0.3,0-0.5,0.2c-0.2,0.2-0.3,0.5-0.3,0.8c-0.1,0.6-0.2,1.3-0.2,1.9
			c0,0.6,0,1.2,0.1,1.7c0,0.4,0.1,0.7,0.2,1c0.1,0.3,0.3,0.6,0.4,0.6c0,0,0,0,0.1,0l0,0l0,0l0,0c0,0,0.1,0,0.1,0
			c0.1,0,0.2-0.1,0.2-0.2c0.1-0.2,0.3-0.4,0.4-0.7c0.2-0.6,0.3-1.3,0.3-1.9c0-0.3,0-0.7,0-1C105.5,103.1,105.5,103,105.5,102.9z"/>
		<linearGradient id="SVGID_32_" gradientUnits="userSpaceOnUse" x1="107.2459" y1="110.1893" x2="109.146" y2="110.1893">
			<stop  offset="0" style="stop-color:#ED2F66"/>
			<stop  offset="1" style="stop-color:#F8A131"/>
		</linearGradient>
		<path class="st41" d="M109.1,109.2l0-0.1c0,0,0-0.1,0-0.1c0-0.2-0.1-0.3-0.1-0.4c0,0,0,0-0.1,0c0,0,0,0,0,0c0,0,0,0,0,0
			c0,0,0-0.1,0-0.1c0-0.6-0.2-1.2-0.5-1.3c-0.2-0.1-0.3,0-0.5,0.2c-0.2,0.2-0.3,0.5-0.3,0.8c-0.1,0.6-0.2,1.3-0.2,1.9
			c0,0.6,0,1.2,0.1,1.7c0,0.4,0.1,0.7,0.2,1c0.1,0.3,0.3,0.6,0.4,0.6c0,0,0,0,0.1,0l0,0l0,0l0,0c0,0,0.1,0,0.1,0
			c0.1,0,0.2-0.1,0.2-0.2c0.1-0.2,0.3-0.4,0.4-0.7c0.2-0.6,0.3-1.3,0.3-1.9c0-0.3,0-0.7,0-1C109.1,109.4,109.1,109.3,109.1,109.2z"
			/>
		<linearGradient id="SVGID_33_" gradientUnits="userSpaceOnUse" x1="110.4654" y1="102.204" x2="112.3656" y2="102.204">
			<stop  offset="0" style="stop-color:#ED2F66"/>
			<stop  offset="1" style="stop-color:#F8A131"/>
		</linearGradient>
		<path class="st42" d="M112.3,101.2l0-0.1c0,0,0-0.1,0-0.1c0-0.2-0.1-0.3-0.1-0.4c0,0,0,0-0.1,0c0,0,0,0,0,0c0,0,0,0,0,0
			c0,0,0-0.1,0-0.1c0-0.6-0.2-1.2-0.5-1.3c-0.2-0.1-0.3,0-0.5,0.2c-0.2,0.2-0.3,0.5-0.3,0.8c-0.1,0.6-0.2,1.3-0.2,1.9
			c0,0.6,0,1.2,0.1,1.7c0,0.4,0.1,0.7,0.2,1c0.1,0.3,0.3,0.6,0.4,0.6c0,0,0,0,0.1,0l0,0l0,0l0,0c0,0,0.1,0,0.1,0
			c0.1,0,0.2-0.1,0.2-0.2c0.1-0.2,0.3-0.4,0.4-0.7c0.2-0.6,0.3-1.3,0.3-1.9c0-0.3,0-0.7,0-1C112.3,101.4,112.3,101.3,112.3,101.2z"
			/>
		<linearGradient id="SVGID_34_" gradientUnits="userSpaceOnUse" x1="107.1717" y1="95.9376" x2="109.0718" y2="95.9376">
			<stop  offset="0" style="stop-color:#ED2F66"/>
			<stop  offset="1" style="stop-color:#F8A131"/>
		</linearGradient>
		<path class="st43" d="M108.2,92.8c-0.2-0.1-0.3,0-0.5,0.2c-0.2,0.2-0.3,0.5-0.3,0.8c-0.1,0.6-0.2,1.3-0.2,1.9c0,0.6,0,1.2,0.1,1.7
			c0,0.4,0.1,0.7,0.2,1c0.1,0.3,0.3,0.6,0.4,0.6c0,0,0,0,0.1,0l0,0l0,0l0,0c0,0,0.1,0,0.1,0c0.1,0,0.2-0.1,0.2-0.2
			c0.1-0.2,0.3-0.4,0.4-0.7c0.2-0.6,0.3-1.3,0.3-1.9c0-0.3,0-0.7,0-1c0-0.1,0-0.2,0-0.3l0-0.1c0,0,0-0.1,0-0.1
			c0-0.2-0.1-0.3-0.1-0.4c0,0,0,0-0.1,0c0,0,0,0,0,0c0,0,0,0,0,0c0,0,0-0.1,0-0.1C108.7,93.6,108.5,93,108.2,92.8z"/>
		<linearGradient id="SVGID_35_" gradientUnits="userSpaceOnUse" x1="114.1808" y1="94.4443" x2="116.081" y2="94.4443">
			<stop  offset="0" style="stop-color:#ED2F66"/>
			<stop  offset="1" style="stop-color:#F8A131"/>
		</linearGradient>
		<path class="st44" d="M116,93.5l0-0.1c0,0,0-0.1,0-0.1c0-0.2-0.1-0.3-0.1-0.4c0,0,0,0-0.1,0c0,0,0,0,0,0c0,0,0,0,0,0
			c0,0,0-0.1,0-0.1c0-0.6-0.2-1.2-0.5-1.3c-0.2-0.1-0.3,0-0.5,0.2c-0.2,0.2-0.3,0.5-0.3,0.8c-0.1,0.6-0.2,1.3-0.2,1.9
			c0,0.6,0,1.2,0.1,1.7c0,0.4,0.1,0.7,0.2,1c0.1,0.3,0.3,0.6,0.4,0.6c0,0,0,0,0.1,0l0,0l0,0l0,0c0,0,0.1,0,0.1,0
			c0.1,0,0.2-0.1,0.2-0.2c0.1-0.2,0.3-0.4,0.4-0.7c0.2-0.6,0.3-1.3,0.3-1.9c0-0.3,0-0.7,0-1C116,93.6,116,93.5,116,93.5z"/>
		<linearGradient id="SVGID_36_" gradientUnits="userSpaceOnUse" x1="90.9834" y1="97.7069" x2="92.8834" y2="97.7069">
			<stop  offset="0" style="stop-color:#ED2F66"/>
			<stop  offset="1" style="stop-color:#F8A131"/>
		</linearGradient>
		<path class="st45" d="M92.8,96.7l0-0.1c0,0,0-0.1,0-0.1c0-0.2-0.1-0.3-0.1-0.4c0,0,0,0-0.1,0c0,0,0,0,0,0c0,0,0,0,0,0
			c0,0,0-0.1,0-0.1c0-0.6-0.2-1.2-0.5-1.3c-0.2-0.1-0.3,0-0.5,0.2c-0.2,0.2-0.3,0.5-0.3,0.8C91,96.2,91,96.9,91,97.5
			c0,0.6,0,1.2,0.1,1.7c0,0.4,0.1,0.7,0.2,1c0.1,0.3,0.3,0.6,0.4,0.6c0,0,0,0,0.1,0l0,0l0,0l0,0c0,0,0.1,0,0.1,0
			c0.1,0,0.2-0.1,0.2-0.2c0.1-0.2,0.3-0.4,0.4-0.7c0.2-0.6,0.3-1.3,0.3-1.9c0-0.3,0-0.7,0-1C92.8,96.9,92.8,96.8,92.8,96.7z"/>
		<linearGradient id="SVGID_37_" gradientUnits="userSpaceOnUse" x1="99.8412" y1="97.2272" x2="101.7413" y2="97.2272">
			<stop  offset="0" style="stop-color:#ED2F66"/>
			<stop  offset="1" style="stop-color:#F8A131"/>
		</linearGradient>
		<path class="st46" d="M100.9,94.1c-0.2-0.1-0.3,0-0.5,0.2c-0.2,0.2-0.3,0.5-0.3,0.8c-0.1,0.6-0.2,1.3-0.2,1.9c0,0.6,0,1.2,0.1,1.7
			c0,0.4,0.1,0.7,0.2,1c0.1,0.3,0.3,0.6,0.4,0.6c0,0,0,0,0.1,0l0,0l0,0l0,0c0,0,0.1,0,0.1,0c0.1,0,0.2-0.1,0.2-0.2
			c0.1-0.2,0.3-0.4,0.4-0.7c0.2-0.6,0.3-1.3,0.3-1.9c0-0.3,0-0.7,0-1c0-0.1,0-0.2,0-0.3l0-0.1c0,0,0-0.1,0-0.1
			c0-0.2-0.1-0.3-0.1-0.4c0,0,0,0-0.1,0c0,0,0,0,0,0c0,0,0,0,0,0c0,0,0-0.1,0-0.1C101.4,94.8,101.2,94.3,100.9,94.1z"/>
		<linearGradient id="SVGID_38_" gradientUnits="userSpaceOnUse" x1="99.9154" y1="111.4461" x2="101.8154" y2="111.4461">
			<stop  offset="0" style="stop-color:#ED2F66"/>
			<stop  offset="1" style="stop-color:#F8A131"/>
		</linearGradient>
		<path class="st47" d="M101.8,110.5l0-0.1c0,0,0-0.1,0-0.1c0-0.2-0.1-0.3-0.1-0.4c0,0,0,0-0.1,0c0,0,0,0,0,0c0,0,0,0,0,0
			c0,0,0-0.1,0-0.1c0-0.6-0.2-1.2-0.5-1.3c-0.2-0.1-0.3,0-0.5,0.2c-0.2,0.2-0.3,0.5-0.3,0.8c-0.1,0.6-0.2,1.3-0.2,1.9
			c0,0.6,0,1.2,0.1,1.7c0,0.4,0.1,0.7,0.2,1c0.1,0.3,0.3,0.6,0.4,0.6c0,0,0,0,0.1,0l0,0l0,0l0,0c0,0,0.1,0,0.1,0
			c0.1,0,0.2-0.1,0.2-0.2c0.1-0.2,0.3-0.4,0.4-0.7c0.2-0.6,0.3-1.3,0.3-1.9c0-0.3,0-0.7,0-1C101.8,110.6,101.8,110.5,101.8,110.5z"
			/>
		<linearGradient id="SVGID_39_" gradientUnits="userSpaceOnUse" x1="95.587" y1="105.185" x2="97.4868" y2="105.185">
			<stop  offset="0" style="stop-color:#ED2F66"/>
			<stop  offset="1" style="stop-color:#F8A131"/>
		</linearGradient>
		<path class="st48" d="M97.4,104.2l0-0.1c0,0,0-0.1,0-0.1c0-0.2-0.1-0.3-0.1-0.4c0,0,0,0-0.1,0c0,0,0,0,0,0c0,0,0,0,0,0
			c0,0,0-0.1,0-0.1c0-0.6-0.2-1.2-0.5-1.3c-0.2-0.1-0.3,0-0.5,0.2c-0.2,0.2-0.3,0.5-0.3,0.8c-0.1,0.6-0.2,1.3-0.2,1.9
			c0,0.6,0,1.2,0.1,1.7c0,0.4,0.1,0.7,0.2,1c0.1,0.3,0.3,0.6,0.4,0.6c0,0,0,0,0.1,0l0,0l0,0l0,0c0,0,0.1,0,0.1,0
			c0.1,0,0.2-0.1,0.2-0.2c0.1-0.2,0.3-0.4,0.4-0.7c0.2-0.6,0.3-1.3,0.3-1.9c0-0.3,0-0.7,0-1C97.5,104.4,97.4,104.3,97.4,104.2z"/>
		<linearGradient id="SVGID_40_" gradientUnits="userSpaceOnUse" x1="70.7095" y1="99.1342" x2="72.7765" y2="99.1342">
			<stop  offset="0" style="stop-color:#ED2F66"/>
			<stop  offset="1" style="stop-color:#F8A131"/>
		</linearGradient>
		<path class="st49" d="M72.6,98.8c-0.1-0.6-0.2-1.2-0.5-1.8c-0.1-0.3-0.3-0.6-0.5-0.8c-0.2-0.2-0.4-0.2-0.5-0.1
			c-0.3,0.2-0.4,0.8-0.3,1.4c0,0,0,0.1,0,0.1c0,0,0,0,0,0c0,0,0,0,0,0.1c0,0-0.1,0-0.1,0c0,0.1-0.1,0.2-0.1,0.4c0,0,0,0.1,0,0.1
			l0,0.1c0,0.1,0,0.2,0,0.3c0,0.3,0.1,0.7,0.1,1c0.1,0.6,0.3,1.4,0.6,1.9c0.1,0.3,0.3,0.5,0.5,0.6c0.1,0.1,0.2,0.1,0.3,0.1
			c0,0,0.1,0,0.1,0l0,0l0,0l0,0c0,0,0,0,0.1,0c0.2-0.1,0.3-0.4,0.3-0.7c0.1-0.3,0.1-0.7,0.1-1C72.8,99.9,72.7,99.4,72.6,98.8z"/>
		<linearGradient id="SVGID_41_" gradientUnits="userSpaceOnUse" x1="61.8746" y1="99.9359" x2="63.9421" y2="99.9359">
			<stop  offset="0" style="stop-color:#ED2F66"/>
			<stop  offset="1" style="stop-color:#F8A131"/>
		</linearGradient>
		<path class="st50" d="M63.9,101.3c0-0.5,0-1.1-0.1-1.7c-0.1-0.6-0.2-1.2-0.5-1.8c-0.1-0.3-0.3-0.6-0.5-0.8
			c-0.2-0.2-0.4-0.2-0.5-0.1c-0.3,0.2-0.4,0.8-0.3,1.4c0,0,0,0.1,0,0.1c0,0,0,0,0,0c0,0,0,0,0,0.1c0,0-0.1,0-0.1,0
			c0,0.1-0.1,0.2-0.1,0.4c0,0,0,0.1,0,0.1l0,0.1c0,0.1,0,0.2,0,0.3c0,0.3,0.1,0.7,0.1,1c0.1,0.6,0.3,1.4,0.6,1.9
			c0.1,0.3,0.3,0.5,0.5,0.6c0.1,0.1,0.2,0.1,0.3,0.1c0,0,0.1,0,0.1,0l0,0l0,0l0,0c0,0,0,0,0.1,0c0.2-0.1,0.3-0.4,0.3-0.7
			C63.9,102,63.9,101.6,63.9,101.3z"/>
		<linearGradient id="SVGID_42_" gradientUnits="userSpaceOnUse" x1="59.0686" y1="107.1125" x2="61.1356" y2="107.1125">
			<stop  offset="0" style="stop-color:#ED2F66"/>
			<stop  offset="1" style="stop-color:#F8A131"/>
		</linearGradient>
		<path class="st51" d="M61,106.8c-0.1-0.6-0.2-1.2-0.5-1.8c-0.1-0.3-0.3-0.6-0.5-0.8c-0.2-0.2-0.4-0.2-0.5-0.1
			c-0.3,0.2-0.4,0.8-0.3,1.4c0,0,0,0.1,0,0.1c0,0,0,0,0,0c0,0,0,0,0,0.1c0,0-0.1,0-0.1,0c0,0.1-0.1,0.2-0.1,0.4c0,0,0,0.1,0,0.1
			l0,0.1c0,0.1,0,0.2,0,0.3c0,0.3,0.1,0.7,0.1,1c0.1,0.6,0.3,1.4,0.6,1.9c0.1,0.3,0.3,0.5,0.5,0.6c0.1,0.1,0.2,0.1,0.3,0.1
			c0,0,0.1,0,0.1,0l0,0l0,0l0,0c0,0,0,0,0.1,0c0.2-0.1,0.3-0.4,0.3-0.7c0.1-0.3,0.1-0.7,0.1-1C61.1,107.9,61.1,107.4,61,106.8z"/>
		<linearGradient id="SVGID_43_" gradientUnits="userSpaceOnUse" x1="56.4153" y1="113.83" x2="58.4821" y2="113.83">
			<stop  offset="0" style="stop-color:#ED2F66"/>
			<stop  offset="1" style="stop-color:#F8A131"/>
		</linearGradient>
		<path class="st52" d="M58.3,113.5c-0.1-0.6-0.2-1.2-0.5-1.8c-0.1-0.3-0.3-0.6-0.5-0.8c-0.2-0.2-0.4-0.2-0.5-0.1
			c-0.3,0.2-0.4,0.8-0.3,1.4c0,0,0,0.1,0,0.1c0,0,0,0,0,0c0,0,0,0,0,0.1c0,0-0.1,0-0.1,0c0,0.1-0.1,0.2-0.1,0.4c0,0,0,0.1,0,0.1
			l0,0.1c0,0.1,0,0.2,0,0.3c0,0.3,0.1,0.7,0.1,1c0.1,0.6,0.3,1.4,0.6,1.9c0.1,0.3,0.3,0.5,0.5,0.6c0.1,0.1,0.2,0.1,0.3,0.1
			c0,0,0.1,0,0.1,0l0,0l0,0l0,0c0,0,0,0,0.1,0c0.2-0.1,0.3-0.4,0.3-0.7c0.1-0.3,0.1-0.7,0.1-1C58.5,114.6,58.4,114.1,58.3,113.5z"/>
		<linearGradient id="SVGID_44_" gradientUnits="userSpaceOnUse" x1="63.8506" y1="114.0172" x2="65.9175" y2="114.0172">
			<stop  offset="0" style="stop-color:#ED2F66"/>
			<stop  offset="1" style="stop-color:#F8A131"/>
		</linearGradient>
		<path class="st53" d="M65.8,113.7c-0.1-0.6-0.2-1.2-0.5-1.8c-0.1-0.3-0.3-0.6-0.5-0.8c-0.2-0.2-0.4-0.2-0.5-0.1
			c-0.3,0.2-0.4,0.8-0.3,1.4c0,0,0,0.1,0,0.1c0,0,0,0,0,0c0,0,0,0,0,0.1c0,0-0.1,0-0.1,0c0,0.1-0.1,0.2-0.1,0.4c0,0,0,0.1,0,0.1
			l0,0.1c0,0.1,0,0.2,0,0.3c0,0.3,0.1,0.7,0.1,1c0.1,0.6,0.3,1.4,0.6,1.9c0.1,0.3,0.3,0.5,0.5,0.6c0.1,0.1,0.2,0.1,0.3,0.1
			c0,0,0.1,0,0.1,0l0,0l0,0l0,0c0,0,0,0,0.1,0c0.2-0.1,0.3-0.4,0.3-0.7c0.1-0.3,0.1-0.7,0.1-1C65.9,114.8,65.9,114.3,65.8,113.7z"/>
		<linearGradient id="SVGID_45_" gradientUnits="userSpaceOnUse" x1="52.0782" y1="106.3919" x2="54.1455" y2="106.3919">
			<stop  offset="0" style="stop-color:#ED2F66"/>
			<stop  offset="1" style="stop-color:#F8A131"/>
		</linearGradient>
		<path class="st54" d="M54,106.1c-0.1-0.6-0.2-1.2-0.5-1.8c-0.1-0.3-0.3-0.6-0.5-0.8c-0.2-0.2-0.4-0.2-0.5-0.1
			c-0.3,0.2-0.4,0.8-0.3,1.4c0,0,0,0.1,0,0.1c0,0,0,0,0,0c0,0,0,0,0,0.1c0,0-0.1,0-0.1,0c0,0.1-0.1,0.2-0.1,0.4c0,0,0,0.1,0,0.1
			l0,0.1c0,0.1,0,0.2,0,0.3c0,0.3,0.1,0.7,0.1,1c0.1,0.6,0.3,1.4,0.6,1.9c0.1,0.3,0.3,0.5,0.5,0.6c0.1,0.1,0.2,0.1,0.3,0.1
			c0,0,0.1,0,0.1,0l0,0l0,0l0,0c0,0,0,0,0.1,0c0.2-0.1,0.3-0.4,0.3-0.7c0.1-0.3,0.1-0.7,0.1-1C54.1,107.2,54.1,106.6,54,106.1z"/>
		<linearGradient id="SVGID_46_" gradientUnits="userSpaceOnUse" x1="67.2315" y1="107.1978" x2="69.2985" y2="107.1978">
			<stop  offset="0" style="stop-color:#ED2F66"/>
			<stop  offset="1" style="stop-color:#F8A131"/>
		</linearGradient>
		<path class="st55" d="M69.2,106.9c-0.1-0.6-0.2-1.2-0.5-1.8c-0.1-0.3-0.3-0.6-0.5-0.8c-0.2-0.2-0.4-0.2-0.5-0.1
			c-0.3,0.2-0.4,0.8-0.3,1.4c0,0,0,0.1,0,0.1c0,0,0,0,0,0c0,0,0,0,0,0.1c0,0-0.1,0-0.1,0c0,0.1-0.1,0.2-0.1,0.4c0,0,0,0.1,0,0.1
			l0,0.1c0,0.1,0,0.2,0,0.3c0,0.3,0.1,0.7,0.1,1c0.1,0.6,0.3,1.4,0.6,1.9c0.1,0.3,0.3,0.5,0.5,0.6c0.1,0.1,0.2,0.1,0.3,0.1
			c0,0,0.1,0,0.1,0l0,0l0,0l0,0c0,0,0,0,0.1,0c0.2-0.1,0.3-0.4,0.3-0.7c0.1-0.3,0.1-0.7,0.1-1C69.3,108,69.2,107.5,69.2,106.9z"/>
		<linearGradient id="SVGID_47_" gradientUnits="userSpaceOnUse" x1="54.4349" y1="99.7163" x2="56.5021" y2="99.7163">
			<stop  offset="0" style="stop-color:#ED2F66"/>
			<stop  offset="1" style="stop-color:#F8A131"/>
		</linearGradient>
		<path class="st56" d="M56.5,101c0-0.5,0-1.1-0.1-1.7c-0.1-0.6-0.2-1.2-0.5-1.8c-0.1-0.3-0.3-0.6-0.5-0.8c-0.2-0.2-0.4-0.2-0.5-0.1
			c-0.3,0.2-0.4,0.8-0.3,1.4c0,0,0,0.1,0,0.1c0,0,0,0,0,0c0,0,0,0,0,0.1c0,0-0.1,0-0.1,0c0,0.1-0.1,0.2-0.1,0.4c0,0,0,0.1,0,0.1
			l0,0.1c0,0.1,0,0.2,0,0.3c0,0.3,0.1,0.7,0.1,1c0.1,0.6,0.3,1.4,0.6,1.9c0.1,0.3,0.3,0.5,0.5,0.6c0.1,0.1,0.2,0.1,0.3,0.1
			c0,0,0.1,0,0.1,0l0,0l0,0l0,0c0,0,0,0,0.1,0c0.2-0.1,0.3-0.4,0.3-0.7C56.5,101.8,56.5,101.4,56.5,101z"/>
		<linearGradient id="SVGID_48_" gradientUnits="userSpaceOnUse" x1="47.2834" y1="99.2484" x2="49.3506" y2="99.2484">
			<stop  offset="0" style="stop-color:#ED2F66"/>
			<stop  offset="1" style="stop-color:#F8A131"/>
		</linearGradient>
		<path class="st57" d="M49.2,98.9c-0.1-0.6-0.2-1.2-0.5-1.8c-0.1-0.3-0.3-0.6-0.5-0.8c-0.2-0.2-0.4-0.2-0.5-0.1
			c-0.3,0.2-0.4,0.8-0.3,1.4c0,0,0,0.1,0,0.1c0,0,0,0,0,0c0,0,0,0,0,0.1c0,0-0.1,0-0.1,0c0,0.1-0.1,0.2-0.1,0.4c0,0,0,0.1,0,0.1
			l0,0.1c0,0.1,0,0.2,0,0.3c0,0.3,0.1,0.7,0.1,1c0.1,0.6,0.3,1.4,0.6,1.9c0.1,0.3,0.3,0.5,0.5,0.6c0.1,0.1,0.2,0.1,0.3,0.1
			c0,0,0.1,0,0.1,0l0,0l0,0l0,0c0,0,0,0,0.1,0c0.2-0.1,0.3-0.4,0.3-0.7c0.1-0.3,0.1-0.7,0.1-1C49.3,100.1,49.3,99.5,49.2,98.9z"/>
	</g>
	<linearGradient id="SVGID_49_" gradientUnits="userSpaceOnUse" x1="40.5186" y1="78.7711" x2="73.1793" y2="78.7711">
		<stop  offset="0" style="stop-color:#EF537A"/>
		<stop  offset="1" style="stop-color:#4A3D97"/>
	</linearGradient>
	<path class="st58" d="M73.1,78.8c0-1.2-0.3-2.6-1.2-4.1c-0.4-0.7-0.9-1.4-1.5-2c-0.6-0.6-1.2-1.1-1.9-1.6c-1.4-0.9-2.9-1.6-4.4-2.1
		c-1.6-0.5-3.2-0.8-4.8-0.9c-0.8-0.1-1.6-0.1-2.4,0c-0.8,0.1-1.6,0.2-2.4,0.4c-1.6,0.4-3.1,1-4.5,1.7c-0.7,0.4-1.4,0.8-2.1,1.2
		c-0.3,0.2-0.7,0.4-1,0.7c-0.3,0.2-0.7,0.5-1,0.7c-0.4,0.3-0.7,0.6-1.1,0.8c-0.1,0.1-0.2,0.1-0.2,0.1l0,0c-0.2,0.2-0.4,0.3-0.6,0.5
		c-0.6,0.5-1.2,1.1-1.8,1.6c-0.6,0.6-1,1.2-1.2,1.7c-0.1,0.2-0.1,0.4-0.2,0.5c-0.3,0.3-0.3,0.4,0,0.4c0.2,1.5,0.8,3.1,1.8,4.5
		c0.5,0.8,1.1,1.5,1.9,2.2c0.7,0.7,1.5,1.2,2.4,1.7c0.8,0.5,1.7,0.9,2.7,1.2c0.9,0.3,1.8,0.6,2.7,0.8l0.3,0.1l0.2,0l0,0l0,0
		c0,0,0,0,0,0l0,0l0,0l0.1,0c0.2,0.1,0.5,0.1,0.7,0.1c0.5,0.1,0.9,0.1,1.4,0.2c0.9,0.1,1.8,0.1,2.6,0c1.2,0,2.3-0.2,3.4-0.3
		c1.1-0.2,2.3-0.4,3.4-0.7c1.1-0.3,2.2-0.7,3.3-1.2c1.1-0.5,2.1-1,3-1.8c0.5-0.4,0.9-0.8,1.3-1.2c0.4-0.5,0.7-1,0.9-1.6
		c0.1-0.3,0.2-0.6,0.2-0.9c0-0.1,0-0.2,0-0.2l0-0.2c0-0.1,0-0.3,0-0.4c0-0.6,0-1.2-0.1-1.8C73.1,79,73.1,78.9,73.1,78.8z"/>
	<path class="st1" d="M56.1,70.4c1.3-0.2,2.6-0.1,3.9,0.1c0.2,0,0.4,0.1,0.6,0.1c-0.6,0-1.3-0.1-1.9-0.1c-0.7,0-1.4,0-2.1,0
		c-0.8,0-1.6,0.1-2.3,0.2C54.8,70.6,55.5,70.5,56.1,70.4z"/>
	<path class="st1" d="M58.5,74.6c-0.3,1.2-0.6,2.4-0.9,3.6c0-1.2,0-2.5-0.1-3.7C57.9,74.5,58.2,74.6,58.5,74.6z"/>
	<path class="st1" d="M56.7,74.5c-0.2,1.7-0.3,3.5-0.4,5.3c0-0.2-0.1-0.4-0.1-0.6c-0.1-0.9-0.1-1.8-0.1-2.7c0-0.4,0.1-0.9,0.2-1.3
		C56.5,74.9,56.5,74.7,56.7,74.5C56.7,74.5,56.7,74.5,56.7,74.5z"/>
	<path class="st1" d="M56,74.5c0,0.1-0.1,0.1-0.1,0.2c0,0,0,0.1-0.1,0.1c0-0.1,0-0.2,0-0.3C55.8,74.5,55.9,74.5,56,74.5z"/>
	<path class="st1" d="M52.3,73.5c0.7-0.1,1.5-0.2,2.2-0.2c-0.2,0-0.3,0-0.5,0.1c-1.4,0.2-2.8,0.4-4.2,0.8c-0.2,0.1-0.5,0.1-0.7,0.2
		C50.2,74,51.2,73.7,52.3,73.5z"/>
	<path class="st1" d="M47,76c0.2-0.1,0.5-0.2,0.7-0.2c-0.2,0.9-0.4,1.9-0.3,2.9c0,1.3,0.3,2.7,0.9,4.1c0,0.1,0.1,0.1,0.1,0.2
		c-0.6-1-1-2.2-1.3-3.4C46.8,78.5,46.8,77.2,47,76z"/>
	<path class="st1" d="M42.3,77.2c0.1-0.1,0.2-0.1,0.2-0.2l0.1,0.1C42.5,77.1,42.4,77.2,42.3,77.2C42.3,77.2,42.3,77.2,42.3,77.2z"/>
	<path class="st1" d="M50.8,87.4c-0.9-0.3-1.7-0.6-2.5-1c-1.6-0.8-3.1-1.9-4.3-3.3c-1.2-1.4-2.1-3-2.8-4.7c0,0,0,0,0,0
		c0,0,0.1,0,0.1-0.1c0.6-0.2,3.1-1.1,3.6-1.5c0.4-0.2,0.9-0.3,1.3-0.5c-0.3,0.9-0.4,1.9-0.3,2.9c0.1,1.5,0.6,3,1.3,4.3
		c0.8,1.4,1.8,2.6,3,3.5c0.3,0.2,0.7,0.5,1,0.7C51.2,87.6,51,87.5,50.8,87.4z"/>
	<path class="st1" d="M59.9,86.2c-1.3,0.8-2.8,1.2-4.3,1.2c-0.3,0-0.6-0.1-0.9-0.1c-0.2,0-0.3-0.1-0.5-0.1c-0.1,0-0.1,0-0.2-0.1
		l-0.1,0l0,0c0,0,0,0,0,0l0,0l0,0l0,0l-0.1,0c-0.6-0.2-1.2-0.5-1.7-0.9c-1-0.8-1.8-1.9-2.4-3.1c-0.6-1.2-0.9-2.5-1.1-3.8
		c-0.2-1.2-0.2-2.4-0.2-3.6c0.1,0,0.3-0.1,0.4-0.1c1.3-0.4,2.6-0.6,4-0.8c0.3,0,0.7-0.1,1-0.1l0.5,0l0.1,0l0.1,0l0,0l0,0
		c0,0,0,0,0,0l0,0l0.3,0c0,0,0.1,0,0.1,0c-0.2,1.2-0.1,2.6,0,3.9c0.1,0.9,0.3,1.7,0.4,2.6c0,0.2,0.1,0.5,0.1,0.7
		c0,0.2,0.1,0.4,0.1,0.6c0.1,0.6,0.2,1.2,0.3,1.7c0.1,0.4,0.2,0.9,0.3,1.3c0.1,0.2,0.1,0.4,0.3,0.7c0,0.1,0.1,0.1,0.1,0.2
		c0.1,0.1,0.1,0.1,0.2,0.2c0.1,0.1,0.3,0.1,0.4,0.1c0.2,0,0.3-0.1,0.3-0.1l0,0l0,0c0.4-0.4,0.7-0.9,0.9-1.3c0.2-0.5,0.4-1,0.6-1.5
		c0.3-1,0.5-2,0.6-3c0.1-1,0.1-2,0.1-3c0-0.7-0.1-1.4-0.2-2c0-0.3,0-0.5,0-0.8c0.4,0.1,0.8,0.2,1.2,0.3c0.7,0.2,1.4,0.4,2,0.6l0.1,0
		l0,0l0,0l0.3,0.1l0.5,0.2l1,0.4c0,0,0,0,0.1,0c0,0,0,0.1,0,0.1c0,0.2,0,0.3,0.1,0.5c-0.1,0.7-0.2,1.4-0.4,2.2
		c-0.3,1.3-0.9,2.6-1.6,3.8C62.3,84.3,61.2,85.4,59.9,86.2z"/>
	<path class="st1" d="M63.5,84.7c-0.2,0.2-0.3,0.4-0.5,0.5C63.2,85,63.4,84.9,63.5,84.7z"/>
	<path class="st1" d="M71.8,81.3c0,0.4-0.1,0.8-0.3,1.1c-0.2,0.4-0.4,0.7-0.7,1.1c-0.7,0.7-1.5,1.4-2.4,1.9c-0.9,0.5-1.9,1-3,1.3
		c-1.2,0.4-2.4,0.8-3.7,1c0.2-0.1,0.4-0.2,0.6-0.3c0.8-0.5,1.5-1.1,2.1-1.8c0.6-0.7,1.1-1.5,1.5-2.3c0.4-0.9,0.6-1.8,0.7-2.7
		c0.1-0.9,0-1.8-0.1-2.7c0-0.2-0.1-0.4-0.1-0.7c0-0.1,0-0.1,0-0.2c0.9,0.4,1.8,0.9,2.6,1.4c0.8,0.6,2.1,1.2,3,1.9
		C71.8,80.7,71.8,81,71.8,81.3z"/>
	<path class="st4" d="M119.7,73.8c0-0.1-0.1-0.3-0.2-0.5c-0.3-0.5-0.7-1-1.4-1.5c-0.6-0.5-1.2-0.9-1.9-1.4c-0.2-0.1-0.4-0.3-0.6-0.4
		l0,0c-0.1,0-0.2-0.1-0.2-0.1c-0.4-0.2-0.7-0.5-1.1-0.7c-0.3-0.2-0.7-0.4-1-0.6c-0.3-0.2-0.7-0.4-1-0.5c-0.7-0.3-1.4-0.7-2.2-0.9
		c-1.5-0.5-3-1-4.6-1.2c-0.8-0.1-1.6-0.1-2.4-0.1c-0.8,0-1.6,0.1-2.4,0.3c-1.6,0.3-3.1,0.7-4.5,1.4c-1.4,0.6-2.8,1.4-4.1,2.5
		c-0.6,0.5-1.2,1.1-1.7,1.7c-0.5,0.6-0.9,1.3-1.3,2.1c-0.7,1.6-0.9,3-0.8,4.1c0,0.1,0,0.1,0,0.2c0,0.6,0,1.1,0.1,1.7
		c0,0.1,0,0.3,0.1,0.4l0,0.2c0,0.1,0,0.1,0,0.2c0.1,0.3,0.2,0.6,0.3,0.9c0.3,0.5,0.6,1,1.1,1.4c0.4,0.4,0.9,0.8,1.4,1.1
		c1,0.6,2,1.1,3.1,1.4c1.1,0.4,2.2,0.6,3.3,0.8c1.1,0.2,2.2,0.3,3.4,0.4c1.1,0.1,2.2,0.1,3.4,0c0.8-0.1,1.6-0.1,2.5-0.3
		c0.4-0.1,0.9-0.2,1.3-0.3c0.2-0.1,0.4-0.1,0.7-0.2l0.1,0l0,0l0,0c0,0,0,0,0,0l0,0l0,0l0.2-0.1l0.3-0.1c0.9-0.3,1.7-0.6,2.6-1
		c0.8-0.4,1.7-0.9,2.4-1.5c0.8-0.6,1.5-1.2,2.1-1.9c0.6-0.7,1.2-1.5,1.6-2.3c0.8-1.5,1.2-3.1,1.3-4.6C120,74.2,120,74.1,119.7,73.8z
		"/>
	<path class="st1" d="M117.8,72.9c0.1,0.1,0.2,0.1,0.2,0.2c0,0,0,0,0,0C118,73.1,117.9,73,117.8,72.9L117.8,72.9z"/>
	<path class="st1" d="M113.4,72.5c0.3,1.1,0.4,2.4,0.3,3.5c-0.1,1.2-0.4,2.3-0.9,3.4c0-0.1,0-0.2,0.1-0.2c0.4-1.4,0.5-2.8,0.4-4.1
		c-0.1-1-0.3-2-0.6-2.8C112.9,72.4,113.1,72.4,113.4,72.5z"/>
	<path class="st1" d="M108,70.6c1.1,0,2.1,0.2,3.2,0.5c-0.2,0-0.5-0.1-0.7-0.1c-1.4-0.2-2.8-0.3-4.1-0.3c-0.2,0-0.3,0-0.5,0
		C106.5,70.6,107.3,70.5,108,70.6z"/>
	<path class="st1" d="M100.2,68.4c1.2-0.3,2.5-0.5,3.7-0.5c0.6,0,1.2,0.1,1.9,0.1c-0.8,0-1.5,0-2.3,0.1c-0.7,0-1.3,0.1-2,0.2
		c-0.6,0.1-1.2,0.2-1.9,0.3C99.9,68.5,100.1,68.5,100.2,68.4z"/>
	<path class="st1" d="M104.8,76.4c0,0.2,0,0.4,0,0.6c-0.2-1.7-0.5-3.4-0.9-5.1c0,0,0,0,0.1,0c0.1,0.2,0.2,0.4,0.3,0.6
		c0.2,0.4,0.3,0.8,0.3,1.3C104.7,74.7,104.8,75.6,104.8,76.4z"/>
	<path class="st1" d="M104.6,71.9c0.1,0,0.1,0,0.2,0c0,0.1,0,0.2,0,0.3c0,0-0.1-0.1-0.1-0.1C104.6,72,104.6,71.9,104.6,71.9z"/>
	<path class="st1" d="M103.3,75.7c-0.4-1.1-0.8-2.3-1.2-3.4c0.3-0.1,0.6-0.1,0.9-0.2C103.1,73.3,103.2,74.5,103.3,75.7z"/>
	<path class="st1" d="M96.7,84.7c-1-0.3-2.1-0.6-3-1c-1-0.4-1.9-0.9-2.6-1.6c-0.3-0.3-0.6-0.6-0.8-1c-0.2-0.3-0.4-0.7-0.4-1.1
		c0-0.3-0.1-0.5-0.1-0.8c0.8-0.8,2-1.6,2.7-2.2c0.7-0.6,1.5-1.2,2.3-1.7c0,0.1,0,0.1,0,0.2c0,0.2-0.1,0.4-0.1,0.6
		c-0.1,0.9,0,1.8,0.2,2.6c0.2,0.9,0.5,1.7,0.9,2.5c0.4,0.8,1,1.5,1.7,2.1c0.7,0.6,1.4,1.1,2.2,1.5c0.2,0.1,0.4,0.2,0.6,0.3
		C99.2,85.2,97.9,85,96.7,84.7z"/>
	<path class="st1" d="M98.3,82.5c0.2,0.2,0.3,0.3,0.5,0.5C98.6,82.9,98.5,82.7,98.3,82.5z"/>
	<path class="st1" d="M109.6,82.8c-0.5,0.4-1,0.8-1.5,1l-0.1,0l0,0l0,0l0,0c0,0,0,0,0,0l0,0l-0.1,0c-0.1,0-0.1,0.1-0.2,0.1
		c-0.1,0.1-0.3,0.1-0.4,0.1c-0.3,0.1-0.6,0.2-0.9,0.2c-1.5,0.2-3,0-4.3-0.7c-1.3-0.6-2.5-1.6-3.5-2.8c-0.9-1.1-1.5-2.3-2-3.5
		c-0.2-0.7-0.4-1.4-0.6-2.1c0-0.2,0-0.3,0-0.5c0,0,0-0.1,0-0.1c0,0,0,0,0,0l0.9-0.5l0.5-0.3l0.2-0.1l0,0l0,0l0.1-0.1
		c0.6-0.3,1.3-0.6,1.9-0.8c0.4-0.1,0.8-0.3,1.2-0.4c0,0.2,0,0.5,0.1,0.7c0,0.7,0,1.3,0,2c0.1,1,0.2,2,0.4,2.9c0.2,1,0.5,1.9,0.9,2.9
		c0.2,0.5,0.4,0.9,0.7,1.4c0.3,0.4,0.6,0.8,1,1.2l0,0l0,0c0.1,0,0.2,0.1,0.3,0.1c0.1,0,0.3,0,0.4-0.1c0.1-0.1,0.2-0.2,0.2-0.2
		c0-0.1,0.1-0.1,0.1-0.2c0.1-0.3,0.2-0.5,0.2-0.7c0.1-0.4,0.1-0.9,0.2-1.3c0-0.5,0.1-1.1,0.2-1.7c0-0.2,0-0.4,0.1-0.6
		c0-0.2,0-0.5,0.1-0.7c0.1-0.8,0.1-1.7,0.2-2.6c0-1.3,0-2.6-0.4-3.8c0,0,0.1,0,0.1,0l0.3,0l0,0c0,0,0,0,0,0l0,0l0,0l0.1,0l0.1,0
		l0.5,0c0.3,0,0.7,0,1,0c1.3,0,2.7,0.2,3.9,0.4c0.1,0,0.3,0,0.4,0.1c0.2,1.2,0.3,2.4,0.2,3.5c-0.1,1.3-0.3,2.6-0.7,3.8
		C111.1,80.8,110.5,81.9,109.6,82.8z"/>
	<path class="st1" d="M117.1,79c-1,1.5-2.3,2.7-3.8,3.7c-0.7,0.5-1.5,0.9-2.3,1.3c-0.2,0.1-0.3,0.1-0.5,0.2c0.3-0.2,0.6-0.5,0.9-0.7
		c1.1-1,2-2.3,2.6-3.7c0.6-1.4,0.9-2.9,0.8-4.3c0-1-0.2-1.9-0.6-2.7c0.4,0.1,0.9,0.2,1.3,0.3c0.5,0.3,3.1,0.9,3.7,1.1
		c0.1,0,0.1,0,0.2,0c0,0,0,0,0,0C118.8,75.9,118.1,77.5,117.1,79z"/>
</g>
</svg>
