<?xml version="1.0" encoding="utf-8"?>
<!-- Generator: Adobe Illustrator 21.0.0, SVG Export Plug-In . SVG Version: 6.00 Build 0)  -->
<svg version="1.1" id="Layer_1" xmlns="http://www.w3.org/2000/svg" xmlns:xlink="http://www.w3.org/1999/xlink" x="0px" y="0px"
	 viewBox="0 0 160 145" style="enable-background:new 0 0 160 145;" xml:space="preserve">
<style type="text/css">
	.st0{fill:#CB5990;}
	.st1{fill:#FFFFFF;}
	.st2{fill:#12B6BF;}
	.st3{fill:url(#SVGID_1_);}
	.st4{fill:#455BA8;}
	.st5{fill:#326EB6;}
	.st6{fill:#DD5968;}
	.st7{fill:#EF537A;}
	.st8{fill:url(#SVGID_2_);}
	.st9{fill:url(#SVGID_3_);}
	.st10{fill:url(#SVGID_4_);}
	.st11{fill:url(#SVGID_5_);}
	.st12{fill:#F16443;}
	.st13{fill:url(#SVGID_6_);}
	.st14{fill:#F68E3F;}
	.st15{fill:url(#SVGID_7_);}
	.st16{fill:url(#SVGID_8_);}
	.st17{fill:url(#SVGID_9_);}
	.st18{fill:url(#SVGID_10_);}
	.st19{fill:url(#SVGID_11_);}
	.st20{fill:url(#SVGID_12_);}
	.st21{fill:url(#SVGID_13_);}
	.st22{fill:url(#SVGID_14_);}
	.st23{fill:url(#SVGID_15_);}
	.st24{fill:url(#SVGID_16_);}
	.st25{fill:url(#SVGID_17_);}
	.st26{fill:#3DB66D;}
	.st27{fill:url(#SVGID_18_);}
	.st28{fill:url(#SVGID_19_);}
	.st29{fill:url(#SVGID_20_);}
	.st30{fill:url(#SVGID_21_);}
	.st31{fill:url(#SVGID_22_);}
	.st32{fill:url(#SVGID_23_);}
	.st33{fill:url(#SVGID_24_);}
	.st34{fill:url(#SVGID_25_);}
	.st35{fill:url(#SVGID_26_);}
	.st36{fill:url(#SVGID_27_);}
	.st37{fill:url(#SVGID_28_);}
	.st38{fill:url(#SVGID_29_);}
	.st39{fill:url(#SVGID_30_);}
	.st40{fill:url(#SVGID_31_);}
	.st41{fill:url(#SVGID_32_);}
	.st42{fill:url(#SVGID_33_);}
	.st43{fill:url(#SVGID_34_);}
	.st44{fill:url(#SVGID_35_);}
	.st45{fill:url(#SVGID_36_);}
	.st46{fill:url(#SVGID_37_);}
	.st47{fill:url(#SVGID_38_);}
	.st48{fill:url(#SVGID_39_);}
	.st49{fill:url(#SVGID_40_);}
	.st50{fill:url(#SVGID_41_);}
	.st51{fill:url(#SVGID_42_);}
	.st52{fill:url(#SVGID_43_);}
	.st53{fill:url(#SVGID_44_);}
	.st54{fill:url(#SVGID_45_);}
	.st55{fill:url(#SVGID_46_);}
	.st56{fill:url(#SVGID_47_);}
	.st57{fill:url(#SVGID_48_);}
	.st58{fill:url(#SVGID_49_);}
	.st59{fill:url(#SVGID_50_);}
	.st60{fill:url(#SVGID_51_);}
	.st61{fill:url(#SVGID_52_);}
	.st62{fill:url(#SVGID_53_);}
	.st63{fill:url(#SVGID_54_);}
	.st64{fill:url(#SVGID_55_);}
	.st65{fill:url(#SVGID_56_);}
	.st66{fill:url(#SVGID_57_);}
	.st67{fill:url(#SVGID_58_);}
	.st68{fill:url(#SVGID_59_);}
	.st69{fill:url(#SVGID_60_);}
	.st70{fill:url(#SVGID_61_);}
	.st71{fill:url(#SVGID_62_);}
	.st72{fill:url(#SVGID_63_);}
	.st73{fill:url(#SVGID_64_);}
	.st74{fill:url(#SVGID_65_);}
	.st75{fill:url(#SVGID_66_);}
	.st76{fill:url(#SVGID_67_);}
	.st77{fill:url(#SVGID_68_);}
	.st78{fill:url(#SVGID_69_);}
	.st79{fill:url(#SVGID_70_);}
	.st80{fill:url(#SVGID_71_);}
	.st81{fill:url(#SVGID_72_);}
	.st82{fill:url(#SVGID_73_);}
	.st83{fill:url(#SVGID_74_);}
	.st84{fill:url(#SVGID_75_);}
	.st85{fill:url(#SVGID_76_);}
	.st86{fill:url(#SVGID_77_);}
	.st87{fill:url(#SVGID_78_);}
	.st88{fill:url(#SVGID_79_);}
	.st89{fill:url(#SVGID_80_);}
	.st90{fill:url(#SVGID_81_);}
	.st91{fill:url(#SVGID_82_);}
	.st92{fill:url(#SVGID_83_);}
	.st93{fill:url(#SVGID_84_);}
	.st94{fill:url(#SVGID_85_);}
	.st95{fill:url(#SVGID_86_);}
	.st96{fill:url(#SVGID_87_);}
	.st97{fill:url(#SVGID_88_);}
	.st98{fill:url(#SVGID_89_);}
	.st99{fill:url(#SVGID_90_);}
	.st100{fill:url(#SVGID_91_);}
	.st101{fill:url(#SVGID_92_);}
	.st102{fill:url(#SVGID_93_);}
	.st103{fill:url(#SVGID_94_);}
	.st104{fill:url(#SVGID_95_);}
	.st105{fill:url(#SVGID_96_);}
	.st106{fill:url(#SVGID_97_);}
	.st107{fill:url(#SVGID_98_);}
	.st108{fill:url(#SVGID_99_);}
	.st109{fill:url(#SVGID_100_);}
	.st110{fill:url(#SVGID_101_);}
	.st111{fill:url(#SVGID_102_);}
	.st112{fill:url(#SVGID_103_);}
	.st113{fill:url(#SVGID_104_);}
	.st114{fill:url(#SVGID_105_);}
	.st115{fill:url(#SVGID_106_);}
	.st116{fill:url(#SVGID_107_);}
	.st117{fill:url(#SVGID_108_);}
	.st118{fill:url(#SVGID_109_);}
	.st119{fill:url(#SVGID_110_);}
	.st120{fill:url(#SVGID_111_);}
	.st121{fill:url(#SVGID_112_);}
	.st122{fill:url(#SVGID_113_);}
	.st123{fill:url(#SVGID_114_);}
	.st124{fill:url(#SVGID_115_);}
	.st125{fill:url(#SVGID_116_);}
	.st126{fill:url(#SVGID_117_);}
	.st127{fill:url(#SVGID_118_);}
	.st128{fill:url(#SVGID_119_);}
	.st129{fill:url(#SVGID_120_);}
	.st130{fill:url(#SVGID_121_);}
	.st131{fill:url(#SVGID_122_);}
	.st132{fill:url(#SVGID_123_);}
	.st133{fill:url(#SVGID_124_);}
	.st134{fill:url(#SVGID_125_);}
	.st135{fill:url(#SVGID_126_);}
	.st136{fill:url(#SVGID_127_);}
	.st137{fill:#184054;}
	.st138{fill:url(#SVGID_128_);}
	.st139{fill:url(#SVGID_129_);}
	.st140{fill:url(#SVGID_130_);}
	.st141{fill:url(#SVGID_131_);}
	.st142{fill:url(#SVGID_132_);}
	.st143{fill:url(#SVGID_133_);}
	.st144{fill:url(#SVGID_134_);}
	.st145{fill:url(#SVGID_135_);}
	.st146{fill:url(#SVGID_136_);}
	.st147{fill:url(#SVGID_137_);}
	.st148{fill:url(#SVGID_138_);}
	.st149{fill:url(#SVGID_139_);}
	.st150{fill:url(#SVGID_140_);}
	.st151{fill:url(#SVGID_141_);}
	.st152{fill:url(#SVGID_142_);}
	.st153{fill:url(#SVGID_143_);}
	.st154{fill:url(#SVGID_144_);}
	.st155{fill:url(#SVGID_145_);}
	.st156{fill:url(#SVGID_146_);}
	.st157{fill:url(#SVGID_147_);}
	.st158{fill:url(#SVGID_148_);}
	.st159{fill:url(#SVGID_149_);}
	.st160{fill:url(#SVGID_150_);}
	.st161{fill:url(#SVGID_151_);}
	.st162{fill:url(#SVGID_152_);}
	.st163{fill:url(#SVGID_153_);}
	.st164{fill:url(#SVGID_154_);}
	.st165{fill:url(#SVGID_155_);}
	.st166{fill:url(#SVGID_156_);}
	.st167{fill:url(#SVGID_157_);}
	.st168{fill:url(#SVGID_158_);}
	.st169{fill:url(#SVGID_159_);}
	.st170{fill:url(#SVGID_160_);}
	.st171{fill:url(#SVGID_161_);}
	.st172{fill:url(#SVGID_162_);}
	.st173{fill:url(#SVGID_163_);}
	.st174{fill:url(#SVGID_164_);}
	.st175{fill:url(#SVGID_165_);}
	.st176{fill:url(#SVGID_166_);}
	.st177{fill:url(#SVGID_167_);}
	.st178{fill:url(#SVGID_168_);}
	.st179{fill:url(#SVGID_169_);}
	.st180{fill:url(#SVGID_170_);}
	.st181{fill:url(#SVGID_171_);}
	.st182{fill:url(#SVGID_172_);}
	.st183{fill:url(#SVGID_173_);}
	.st184{fill:url(#SVGID_174_);}
	.st185{fill:url(#SVGID_175_);}
	.st186{fill:url(#SVGID_176_);}
	.st187{fill:url(#SVGID_177_);}
	.st188{fill:url(#SVGID_178_);}
	.st189{fill:url(#SVGID_179_);}
	.st190{fill:url(#SVGID_180_);}
	.st191{fill:url(#SVGID_181_);}
	.st192{fill:url(#SVGID_182_);}
	.st193{fill:url(#SVGID_183_);}
	.st194{fill:url(#SVGID_184_);}
	.st195{fill:url(#SVGID_185_);}
	.st196{fill:url(#SVGID_186_);}
	.st197{fill:url(#SVGID_187_);}
	.st198{fill:url(#SVGID_188_);}
	.st199{fill:url(#SVGID_189_);}
	.st200{fill:url(#SVGID_190_);}
	.st201{fill:url(#SVGID_191_);}
	.st202{fill:url(#SVGID_192_);}
	.st203{fill:url(#SVGID_193_);}
	.st204{fill:url(#SVGID_194_);}
	.st205{fill:url(#SVGID_195_);}
	.st206{fill:url(#SVGID_196_);}
	.st207{fill:url(#SVGID_197_);}
	.st208{fill:url(#SVGID_198_);}
	.st209{fill:url(#SVGID_199_);}
	.st210{fill:url(#SVGID_200_);}
	.st211{fill:url(#SVGID_201_);}
	.st212{fill:url(#SVGID_202_);}
	.st213{fill:url(#SVGID_203_);}
	.st214{fill:url(#SVGID_204_);}
	.st215{fill:url(#SVGID_205_);}
	.st216{fill:url(#SVGID_206_);}
	.st217{fill:url(#SVGID_207_);}
	.st218{fill:url(#SVGID_208_);}
	.st219{fill:#969697;}
	.st220{fill:url(#SVGID_209_);}
	.st221{fill:url(#SVGID_210_);}
	.st222{fill:url(#SVGID_211_);}
	.st223{fill:url(#SVGID_212_);}
	.st224{fill:url(#SVGID_213_);}
	.st225{fill:url(#SVGID_214_);}
	.st226{fill:url(#SVGID_215_);}
	.st227{fill:url(#SVGID_216_);}
	.st228{fill:url(#SVGID_217_);}
	.st229{fill:url(#SVGID_218_);}
	.st230{fill:url(#SVGID_219_);}
	.st231{fill:url(#SVGID_220_);}
	.st232{fill:url(#SVGID_221_);}
	.st233{fill:url(#SVGID_222_);}
	.st234{fill:url(#SVGID_223_);}
	.st235{fill:url(#SVGID_224_);}
	.st236{fill:url(#SVGID_225_);}
	.st237{fill:url(#SVGID_226_);}
	.st238{fill:url(#SVGID_227_);}
	.st239{fill:url(#SVGID_228_);}
	.st240{fill:url(#SVGID_229_);}
	.st241{fill:url(#SVGID_230_);}
	.st242{fill:url(#SVGID_231_);}
	.st243{fill:url(#SVGID_232_);}
	.st244{fill:url(#SVGID_233_);}
	.st245{fill:url(#SVGID_234_);}
	.st246{fill:url(#SVGID_235_);}
	.st247{fill:url(#SVGID_236_);}
	.st248{fill:url(#SVGID_237_);}
	.st249{fill:url(#SVGID_238_);}
	.st250{fill:url(#SVGID_239_);}
	.st251{fill:url(#SVGID_240_);}
	.st252{fill:url(#SVGID_241_);}
	.st253{fill:url(#SVGID_242_);}
	.st254{fill:url(#SVGID_243_);}
	.st255{fill:url(#SVGID_244_);}
	.st256{fill:url(#SVGID_245_);}
	.st257{fill:url(#SVGID_246_);}
	.st258{fill:url(#SVGID_247_);}
	.st259{fill:url(#SVGID_248_);}
	.st260{fill:url(#SVGID_249_);}
	.st261{fill:url(#SVGID_250_);}
	.st262{fill:url(#SVGID_251_);}
	.st263{fill:url(#SVGID_252_);}
	.st264{fill:url(#SVGID_253_);}
	.st265{fill:url(#SVGID_254_);}
	.st266{fill:url(#SVGID_255_);}
	.st267{fill:url(#SVGID_256_);}
	.st268{fill:url(#SVGID_257_);}
	.st269{fill:url(#SVGID_258_);}
	.st270{fill:url(#SVGID_259_);}
	.st271{fill:url(#SVGID_260_);}
	.st272{fill:url(#SVGID_261_);}
	.st273{fill:url(#SVGID_262_);}
	.st274{fill:url(#SVGID_263_);}
	.st275{fill:url(#SVGID_264_);}
	.st276{fill:url(#SVGID_265_);}
	.st277{fill:url(#SVGID_266_);}
	.st278{fill:url(#SVGID_267_);}
	.st279{fill:#F69474;}
	.st280{fill:#F27350;}
	.st281{fill:url(#SVGID_268_);}
	.st282{fill:url(#SVGID_269_);}
	.st283{fill:url(#SVGID_270_);}
	.st284{fill:url(#SVGID_271_);}
	.st285{fill:url(#SVGID_272_);}
	.st286{fill:url(#SVGID_273_);}
	.st287{fill:url(#SVGID_274_);}
	.st288{fill:url(#SVGID_275_);}
	.st289{fill:url(#SVGID_276_);}
	.st290{fill:url(#SVGID_277_);}
	.st291{fill:url(#SVGID_278_);}
	.st292{fill:url(#SVGID_279_);}
	.st293{fill:url(#SVGID_280_);}
	.st294{fill:url(#SVGID_281_);}
	.st295{fill:url(#SVGID_282_);}
	.st296{fill:url(#SVGID_283_);}
	.st297{fill:url(#SVGID_284_);}
	.st298{fill:url(#SVGID_285_);}
	.st299{fill:url(#SVGID_286_);}
	.st300{fill:url(#SVGID_287_);}
	.st301{fill:url(#SVGID_288_);}
	.st302{fill:url(#SVGID_289_);}
	.st303{fill:url(#SVGID_290_);}
	.st304{fill:url(#SVGID_291_);}
	.st305{fill:url(#SVGID_292_);}
	.st306{fill:url(#SVGID_293_);}
</style>
<g>
	<linearGradient id="SVGID_1_" gradientUnits="userSpaceOnUse" x1="25.2258" y1="82.1668" x2="134.7742" y2="82.1668">
		<stop  offset="0" style="stop-color:#2B6BB4"/>
		<stop  offset="1" style="stop-color:#6F8EC8"/>
	</linearGradient>
	<path class="st3" d="M134.6,59.7c-1,10.9-5.7,21-10.8,30.5c-2.7,5-5.5,9.9-8.1,14.9c-2.5,4.8-5,9.6-8.1,14.1
		c-3.3,4.9-6.9,8.9-12.8,10.3c-5.5,1.3-11.4,2.2-17,2.3c-6.3,0-12.2-1.7-17.1-5.6c-4.6-3.6-8-8.4-11.3-13.2
		c-8.1-12.1-16.9-24.3-21.5-38.3C26.1,69,24.9,63,25.3,57.1c0.3-3.8,0.8-7.6,1.4-11.4c0.3-2,0.7-4,1.1-6c0.2-0.7,0.5-3.2,1.3-3.5
		c-0.5,0.2,0.9,0.6,1,0.6c0.5,0.2,1,0.5,1.5,0.9c1.2,0.9,2.2,2,3.1,3.2c1.6,2,2.9,4.2,4.6,6.1c4.7,5.3,11.3,4.9,17.8,4.8
		c8.8-0.1,17.5-0.2,26.3-0.4c4.8-0.1,9.6-0.1,14.4-0.2c2.3,0,4.7-0.1,7-0.1c1.9,0,4,0.1,5.8-0.5c3.7-1.1,6.1-4.8,8.4-7.6
		c2.9-3.5,5.8-7,8.7-10.4C133.7,40.2,135.5,50.2,134.6,59.7z"/>
	<linearGradient id="SVGID_2_" gradientUnits="userSpaceOnUse" x1="25.3836" y1="73.2862" x2="132.7515" y2="73.2862">
		<stop  offset="0" style="stop-color:#ED2F66"/>
		<stop  offset="1" style="stop-color:#F8A131"/>
	</linearGradient>
	<path class="st8" d="M124.7,32c-0.3-0.4-1.1-0.4-1.4,0c-2.7,3.3-5.5,6.5-8.2,9.8c-1.6,2-3.4,4.8-5.7,6.4
		c-0.1-12.3-7.3-24.6-18.9-29.5c-6-2.5-12.9-2.9-19.2-1.3c-6.8,1.7-12.1,5.9-16.2,11.4c-2.7,3.6-5.2,7.5-7.3,11.6
		c-1.4,2.8-2.5,5.7-2.6,8.8c0,0,0,0,0,0c-2.6-1.3-4.3-3.7-5.9-6c-1.4-2-2.8-4-4.7-5.5c-1.1-0.9-3.4-2.5-4.8-1.7
		c-0.9,0.4-1.2,1.7-1.5,2.5c-0.6,1.7-0.9,3.5-1.2,5.3c-1.5,8.5-2.6,16.9-0.7,25.4c3.5,15.6,13.3,29,22,42
		c5.6,8.4,12.5,16.8,23.2,18.4c5.4,0.8,10.9,0.1,16.3-0.8c5.4-0.9,10.3-1.8,14.3-5.8c3.9-3.9,6.7-8.8,9.3-13.6
		c2.8-5.2,5.6-10.5,8.5-15.7c5.4-9.8,10.7-20,12.3-31.2C133.8,51.9,132,40.4,124.7,32z"/>
	<linearGradient id="SVGID_3_" gradientUnits="userSpaceOnUse" x1="47.0907" y1="34.5337" x2="107.4358" y2="34.5337">
		<stop  offset="0" style="stop-color:#2B6BB4"/>
		<stop  offset="1" style="stop-color:#6F8EC8"/>
	</linearGradient>
	<path class="st9" d="M101.1,49.9c-2.2,0-4.4,0.1-6.6,0.1c-4.1,0.1-8.3,0.1-12.4,0.2c-8.5,0.1-17.1,0.2-25.6,0.4
		c-3,0-6.4,0.3-9.4-0.5c0.1-6.5,4.7-12.8,8.2-17.9c3.8-5.6,8.5-10.1,15-12.2c12-3.9,25,0.7,32,11.2c3.6,5.4,5.4,11.8,5.2,18.3
		c-0.3,0.1-0.5,0.2-0.8,0.2C104.9,50,102.9,49.8,101.1,49.9z"/>
	<linearGradient id="SVGID_4_" gradientUnits="userSpaceOnUse" x1="46.0957" y1="59.2471" x2="108.7385" y2="59.2471">
		<stop  offset="0" style="stop-color:#2B6BB4"/>
		<stop  offset="1" style="stop-color:#6F8EC8"/>
	</linearGradient>
	<path class="st10" d="M46.4,50.8c8.8,9.4,19.6,19.9,33.6,18.8c6.2-0.5,11.8-3.3,16.7-6.9c2.5-1.8,4.9-3.8,7.2-5.8
		c2.1-1.9,4.1-4,4.8-6.8c0.3-1.2-1.6-1.7-1.9-0.5c-0.7,2.8-2.9,4.7-5,6.6c-2.2,1.9-4.5,3.8-6.9,5.5c-4.8,3.3-10.3,6-16.3,6.1
		C65.7,68,55.9,58.1,47.7,49.4C46.9,48.5,45.5,49.9,46.4,50.8L46.4,50.8z"/>
	<g>
		<linearGradient id="SVGID_5_" gradientUnits="userSpaceOnUse" x1="64.5991" y1="34.4018" x2="80.7218" y2="34.4018">
			<stop  offset="0" style="stop-color:#EF537A"/>
			<stop  offset="1" style="stop-color:#4A3D97"/>
		</linearGradient>
		<path class="st11" d="M66.7,50.6c-1-12.2,4.2-24.2,13.7-31.8c1-0.8-0.4-2.2-1.4-1.4c-9.9,7.9-15.3,20.6-14.3,33.2
			C64.8,51.9,66.8,51.9,66.7,50.6L66.7,50.6z"/>
		<linearGradient id="SVGID_6_" gradientUnits="userSpaceOnUse" x1="78.8618" y1="34.8847" x2="95.3166" y2="34.8847">
			<stop  offset="0" style="stop-color:#EF537A"/>
			<stop  offset="1" style="stop-color:#4A3D97"/>
		</linearGradient>
		<path class="st13" d="M79.2,19.1c8.6,7.6,15.6,20.1,14,32c-0.2,1.2,1.7,1.8,1.9,0.5c1.7-12.6-5.3-25.7-14.5-33.9
			C79.6,16.9,78.2,18.3,79.2,19.1L79.2,19.1z"/>
		<linearGradient id="SVGID_7_" gradientUnits="userSpaceOnUse" x1="74.6268" y1="16.389" x2="84.3041" y2="16.389">
			<stop  offset="0" style="stop-color:#EF537A"/>
			<stop  offset="1" style="stop-color:#4A3D97"/>
		</linearGradient>
		<path class="st15" d="M77.9,17.3c-0.2,0.4-0.6,0.4-0.9,0.2c-0.6-0.4-0.3-1.1,0.1-1.6c0.9-1,2.5-0.9,3.7-0.7c0.3,0,1.1,0.1,1.3,0.3
			c0.1,0,0.2,0.1,0.3,0.1c-0.2,0.2-0.4,0.4-0.7,0.5c-1,0.6-3.3,1.2-3.3-0.7c-0.2,0.3-0.3,0.6-0.5,0.8c1.5-0.7,3.2-0.7,4.7,0
			c-0.1-0.5-0.1-1-0.2-1.5c-0.7,0.6-1.5,0.8-2.5,0.7c-1.3-0.1-1.3,1.9,0,2c1.5,0.1,2.7-0.4,3.8-1.3c0.5-0.4,0.3-1.3-0.2-1.5
			c-2.2-1-4.5-1-6.7,0c-0.3,0.1-0.5,0.5-0.5,0.8c0,3.6,4.1,3.8,6.5,2.3c0.9-0.6,1.9-1.5,1.4-2.8c-0.5-1.3-2.2-1.5-3.4-1.7
			c-2.5-0.4-6.6,0.6-6.1,4c0.3,2.3,3.8,3.2,4.9,1C80.1,17.1,78.4,16.1,77.9,17.3L77.9,17.3z"/>
		<linearGradient id="SVGID_8_" gradientUnits="userSpaceOnUse" x1="64.5551" y1="35.4613" x2="93.9846" y2="35.4613">
			<stop  offset="0" style="stop-color:#EF537A"/>
			<stop  offset="1" style="stop-color:#4A3D97"/>
		</linearGradient>
		<path class="st16" d="M79.3,20.1c-3.9,3.7-7.3,7.9-10.1,12.5c-0.6,1,0.7,1.8,1.5,1.2c3.5-2.9,6.9-5.9,10.1-9.2
			c-0.5-0.5-0.9-0.9-1.4-1.4c-4,5.1-8,10.2-12,15.3c-0.7,0.9,0.1,2,1.2,1.5c6.2-2.7,7.9-10.3,13.6-13.5c-0.4-0.4-0.9-0.9-1.3-1.3
			c-4.8,6.8-9.6,13.5-14.4,20.3c-0.6,0.9,0.8,2,1.5,1.2c5.5-6.8,11.1-13.6,16.6-20.4c-0.5-0.4-1-0.8-1.5-1.2
			c-4.3,6.1-8.7,12.1-13,18.2c0.6,0.3,1.1,0.7,1.7,1c3.6-5,7.7-9.6,12.2-13.7c-0.5-0.4-1-0.8-1.5-1.2c-2.9,4.8-6.1,9.5-9.5,14
			c-0.7,0.9,0.8,2,1.5,1.2c3.9-4.2,7.8-8.5,11.8-12.7c-0.5-0.4-1-0.8-1.5-1.2C82,36.6,78.4,42,74.1,46.9c-0.8,0.9,0.5,2.3,1.4,1.4
			c4.3-4.5,8.5-9,12.8-13.5c-0.5-0.4-1-0.8-1.5-1.2c-3.2,4.8-6.4,9.6-9.6,14.3c-0.7,1.1,0.9,2,1.7,1c3-4,6.5-7.5,10.3-10.7
			c-0.5-0.3-1.1-0.6-1.6-0.9c-1.4,3.6-3.3,7-5.8,10c-0.8,1,0.4,2.2,1.4,1.4c2.2-1.9,4.4-3.9,6.7-5.8c-0.5-0.4-1-0.8-1.5-1.2
			c-0.9,1.9-1.8,3.7-2.7,5.6c-0.4,0.8,0.5,1.9,1.3,1.3c1.3-0.9,2.5-1.8,3.8-2.7c-0.5-0.4-1-0.7-1.4-1.1c-0.4,1.5-1,2.9-1.9,4.3
			c-0.4,0.7,0.3,1.7,1.1,1.4c0.9-0.3,1.7-0.7,2.5-1.2c-0.5-0.2-1-0.4-1.4-0.6c0.2,0.5,0.4,1.1,0.6,1.6c0.2,0.7,1.4,1.1,1.8,0.2
			c1-2.2,2.3-4.8,2.2-7.3c-0.1-1.5-0.9-3.2-2.6-2.9c0.3,0.5,0.6,1,0.8,1.5c1.5-2.8,0.1-5.9-1.9-8c-1.6-1.6-4.5-2.2-5.4,0.5
			c0.6,0.1,1.3,0.2,1.9,0.3c0.2-4-1.1-7.7-3.7-10.6c-0.7-0.8-2.2,0.3-1.5,1.2c3.7,4.8,6,10.3,6.8,16.3c0.6-0.1,1.3-0.2,1.9-0.3
			c-0.1-0.7-0.2-1.4-0.3-2.1c-0.1-0.5-0.5-0.7-0.9-0.7c-1.1-0.1-2,0.4-2.7,1.3c-1.2,1.7-0.6,3.3-2.8,4.3c-1.8,0.8-4,1.1-5.9,1.6
			c-2,0.5-3.9,1-5.9,1.6c0.3,0.5,0.6,1.1,0.9,1.6c2.2-2,4.5-3.9,6.7-5.9c-0.5-0.5-0.9-0.9-1.4-1.4c-3.5,3.5-7.9,5.8-12.8,6.6
			c-0.8,0.1-0.9,1.1-0.4,1.6c2,2.4,5.5,1.2,8,0.5c4.3-1.2,8.6-2.3,12.8-3.5c-0.3-0.6-0.5-1.2-0.8-1.8c-2.8,1.7-5.8,3-9.1,3.7
			c0.2,0.6,0.3,1.3,0.5,1.9c3-0.9,6.1-1.7,9.1-2.6c-0.4-0.4-0.8-0.8-1.2-1.2c-1.1,2.7-6.4,1.5-8.5,1c-1.6-0.4-3.4-1-4.3-2.4
			c-0.9-1.4-1.2-3.2,0.1-4.4c-0.5-0.3-1.1-0.6-1.6-0.9c-0.4,1.4-0.8,2.9-1.2,4.3c-0.2,0.7,0.3,1.2,0.9,1.2c1.9,0.2,3.6-0.3,5.1-1.3
			c1-0.7,0.1-2.3-1-1.7c-1.1,0.7-2.4,1.5-3.8,1.8c-1,0.2-2,0-1.9-1.2c0.1-0.6,0.2-1.1,0.3-1.7c0.4-2.1,0.9-4.2,1.5-6.2
			c1.3-4.4,3.4-9,7.2-11.9c0.7-0.5,1.9-1.2,2.8-0.9c0.5,0.2,1,1,1.4,1.4c0.9,1.1,1.7,2.3,2.4,3.5c1.4,2.2,2.5,4.5,3.3,7
			c1.7,4.9,2.4,10,2.1,15.2c-0.1,1.1,1.6,1.3,1.9,0.3c0.8-2.2,1.2-4.5,1.3-6.8c-0.6,0.1-1.3,0.2-1.9,0.3c0.3,1.5,0.3,3,0,4.5
			c-0.2,1.2,1.6,1.8,1.9,0.5c0.4-1.9,0.4-3.7,0-5.5c-0.2-1.1-1.9-0.8-1.9,0.3c-0.1,2.2-0.5,4.2-1.2,6.3c0.6,0.1,1.3,0.2,1.9,0.3
			c0.3-5.3-0.4-10.7-2.1-15.7c-0.9-2.5-2-4.9-3.4-7.2c-1.1-1.9-2.6-4.5-4.4-5.7c-3.7-2.5-8.2,3.5-9.8,6.2c-2.5,4.1-3.7,8.9-4.7,13.6
			c-0.4,1.8-1.4,4.8,0.9,5.8c2.2,0.9,5.4-1,7.2-2.1c-0.3-0.6-0.7-1.1-1-1.7c-1.3,0.9-2.6,1.2-4.2,1.1c0.3,0.4,0.6,0.8,0.9,1.2
			c0.4-1.4,0.8-2.9,1.2-4.3c0.3-0.9-0.9-1.6-1.6-0.9c-1.5,1.5-1.8,3.7-0.9,5.7c0.9,2.1,2.8,3.4,4.9,4.1c3.5,1.2,10.3,2.3,12-2.1
			c0.3-0.7-0.5-1.4-1.2-1.2c-3,0.9-6.1,1.7-9.1,2.6c-1.2,0.3-0.7,2.2,0.5,1.9c3.4-0.8,6.6-2.1,9.6-3.9c0.9-0.6,0.3-2.1-0.8-1.8
			c-3.3,0.9-6.6,1.8-9.9,2.7c-2.2,0.6-7.2,3-9.1,0.8c-0.1,0.5-0.3,1.1-0.4,1.6c5.2-0.9,9.9-3.4,13.6-7.1c0.9-0.9-0.4-2.2-1.4-1.4
			c-2.2,2-4.5,3.9-6.7,5.9c-0.8,0.7,0.1,1.9,0.9,1.6c3.7-1,7.4-1.9,11-2.9c1.2-0.3,2.3-0.6,3.1-1.5c0.7-0.9,1-4.4,2.6-4.2
			c-0.3-0.2-0.6-0.5-0.9-0.7c0.1,0.7,0.2,1.4,0.3,2.1c0.2,1.1,2.1,0.8,1.9-0.3C89.5,35,87.1,29.1,83.2,24c-0.5,0.4-1,0.8-1.5,1.2
			c2.3,2.6,3.4,5.8,3.2,9.2c-0.1,1.1,1.6,1.3,1.9,0.3c0.6-1.7,2.9,1.3,3.2,1.8c0.8,1.3,1.3,2.8,0.5,4.2c-0.3,0.6,0.1,1.6,0.8,1.5
			c1.8-0.2-1.1,6.8-1.3,7.3c0.6,0.1,1.2,0.2,1.8,0.2c-0.2-0.5-0.4-1.1-0.6-1.6c-0.2-0.5-0.9-1-1.4-0.6c-0.7,0.5-1.2,0.8-2,1
			c0.4,0.5,0.7,1,1.1,1.4c0.9-1.5,1.6-3.1,2.1-4.8c0.2-0.8-0.7-1.6-1.4-1.1c-1.3,0.9-2.5,1.8-3.8,2.7c0.4,0.4,0.9,0.9,1.3,1.3
			c0.9-1.9,1.8-3.7,2.7-5.6c0.5-1-0.7-1.9-1.5-1.2c-2.2,1.9-4.4,3.9-6.7,5.8c0.5,0.5,0.9,0.9,1.4,1.4c2.7-3.3,4.8-6.9,6.3-10.9
			c0.4-1-1-1.5-1.6-0.9c-4,3.3-7.5,7-10.6,11.1c0.6,0.3,1.1,0.7,1.7,1c3.2-4.8,6.4-9.6,9.6-14.3c0.6-0.9-0.8-2-1.5-1.2
			c-4.3,4.5-8.5,9-12.8,13.5c0.5,0.5,0.9,0.9,1.4,1.4c4.4-5,8.1-10.6,11-16.7c0.4-0.9-0.7-2-1.5-1.2c-3.9,4.2-7.8,8.5-11.8,12.7
			c0.5,0.4,1,0.8,1.5,1.2c3.4-4.5,6.6-9.2,9.5-14c0.6-1-0.7-1.9-1.5-1.2c-4.7,4.2-8.9,9-12.5,14.1c-0.7,1,1,2,1.7,1
			c4.3-6.1,8.7-12.1,13-18.2c0.6-0.9-0.8-2-1.5-1.2c-5.5,6.8-11.1,13.6-16.6,20.4c0.5,0.4,1,0.8,1.5,1.2c4.8-6.8,9.6-13.5,14.4-20.3
			c0.6-0.8-0.5-1.8-1.3-1.3c-5.8,3.3-7.5,10.9-13.6,13.5c0.4,0.5,0.8,1,1.2,1.5c4-5.1,8-10.2,12-15.3c0.8-1-0.5-2.3-1.4-1.4
			c-3.2,3.2-6.6,6.3-10.1,9.2c0.5,0.4,1,0.8,1.5,1.2c2.7-4.5,6-8.5,9.8-12.1C81.6,20.6,80.3,19.3,79.3,20.1L79.3,20.1z"/>
	</g>
	<linearGradient id="SVGID_9_" gradientUnits="userSpaceOnUse" x1="116.3925" y1="48.3666" x2="127.9139" y2="48.3666">
		<stop  offset="0" style="stop-color:#0EB5BF"/>
		<stop  offset="1" style="stop-color:#B0D57B"/>
	</linearGradient>
	<path class="st17" d="M118.2,54.1c2-3.5,4-6.9,6-10.4c-0.6,0-1.1,0-1.7,0c1.6,3.1,2.7,6.4,3.5,9.8c0.3-0.4,0.6-0.8,0.9-1.2
		c-2.6,0.1-5.3,0-7.9-0.4c0.2,0.5,0.4,1,0.6,1.4c1.1-2.4,2.3-4.8,3.4-7.2c-0.6-0.2-1.2-0.3-1.8-0.5c-0.3,2.1-0.6,4.2-0.8,6.3
		c-0.1,0.9,1.1,1.2,1.7,0.7c1.6-1.4,2.4-3.2,2.6-5.2c0.1-1.1-1.7-1.3-1.9-0.3c-0.2,1.1-0.4,2.3-0.5,3.4c0.6,0,1.3,0,1.9,0
		c0-0.1,0-0.2,0-0.3c-0.1,0.3-0.2,0.6-0.3,0.9c-0.8,0.8,0.1,2.1,0.9,2.5c0.9,0.5,1.7-0.5,1.3-1.3c-1.1-2.4-2.1-4.7-3.2-7.1
		c-0.4-1-1.8-0.4-1.8,0.5c-0.2,3,0.6,5.7,2.2,8.2c0.2-0.5,0.4-1,0.6-1.4c-0.3-0.1-0.5-0.2-0.8-0.3c-0.3,0.4-0.6,0.8-0.9,1.2
		c0.7,0,1.4-0.1,2.1-0.1c1.3-0.1,1.3-2,0-2c-0.7,0-1.4,0.1-2.1,0.1c-0.6,0-1.2,0.6-0.9,1.2c0.5,1.4,1.7,2.1,3.2,1.7
		c0.6-0.2,0.9-0.9,0.6-1.4c-1.4-2.2-2.1-4.6-1.9-7.2c-0.6,0.2-1.2,0.3-1.8,0.5c1.1,2.4,2.1,4.7,3.2,7.1c0.4-0.4,0.9-0.9,1.3-1.3
		c-0.4-0.2-0.5-1.8-0.8-2.2c-0.3-0.3-0.7-0.6-1.2-0.6c-1.1,0-1.6,0.9-1.5,1.9c0.1,0.9,1.7,0.9,1.9,0c0.2-1.1,0.4-2.3,0.5-3.4
		c-0.6-0.1-1.3-0.2-1.9-0.3c-0.2,1.6-0.8,2.8-2,3.9c0.6,0.2,1.1,0.5,1.7,0.7c0.3-2.1,0.6-4.2,0.8-6.3c0.1-1-1.4-1.3-1.8-0.5
		c-1.1,2.4-2.3,4.8-3.4,7.2c-0.2,0.5-0.1,1.3,0.6,1.4c2.8,0.4,5.6,0.6,8.4,0.5c0.7,0,1.1-0.6,0.9-1.2c-0.8-3.6-2.1-7-3.7-10.3
		c-0.3-0.7-1.3-0.6-1.7,0c-2,3.5-4,6.9-6,10.4C115.9,54.2,117.6,55.1,118.2,54.1L118.2,54.1z"/>
	<linearGradient id="SVGID_10_" gradientUnits="userSpaceOnUse" x1="31.2724" y1="48.9901" x2="38.3662" y2="48.9901">
		<stop  offset="0" style="stop-color:#0EB5BF"/>
		<stop  offset="1" style="stop-color:#B0D57B"/>
	</linearGradient>
	<path class="st18" d="M33.2,52.6c0.4-2.5,0.7-5.1,1.1-7.6c-0.5,0.2-1,0.4-1.4,0.6c1.3,0.9,2.7,1.9,3.3,3.4c0.3,0.9,0.4,1.9-0.2,2.7
		c-0.5,0.6-1.4,0.8-2,0.2c-0.1,0.5-0.1,1-0.2,1.5c2.2-1.5,3.1-3.9,2.5-6.5c-0.3-1.1-2-0.8-1.9,0.3c0.1,1.3,0.4,2.5,1.1,3.6
		c0.5,0.8,2,0.5,1.8-0.5c-0.2-1.5-0.8-2.8-2.1-3.8c-0.6-0.5-1.8-0.2-1.7,0.7c0.1,1,0.4,1.8,1.2,2.6c0.8,0.7,2.2-0.2,1.5-1.2
		c-0.3-0.4-0.6-0.8-0.9-1.3c-0.5-0.8-1.8-0.5-1.8,0.5c0,1.4-0.1,2.7-0.1,4.1c0.6-0.1,1.3-0.2,1.9-0.3c-0.2-0.5-0.1-0.8,0.4-1
		c1.2-0.4,0.7-2.3-0.5-1.9c-1.5,0.5-2.3,1.9-1.8,3.4c0.3,1,1.9,0.9,1.9-0.3c0-1.4,0.1-2.7,0.1-4.1c-0.6,0.2-1.2,0.3-1.8,0.5
		c0.3,0.4,0.6,0.8,0.9,1.3c0.5-0.4,1-0.8,1.5-1.2c-0.4-0.3-0.6-0.7-0.7-1.2c-0.6,0.2-1.1,0.5-1.7,0.7c0.8,0.6,1.3,1.4,1.5,2.4
		c0.6-0.2,1.2-0.3,1.8-0.5c-0.5-0.8-0.8-1.7-0.8-2.7c-0.6,0.1-1.3,0.2-1.9,0.3c0.4,1.7-0.2,3.3-1.6,4.3c-0.5,0.3-0.7,1.1-0.2,1.5
		c2,1.7,5,0.7,5.7-1.8c1-3.4-1.9-5.9-4.4-7.6c-0.5-0.3-1.3,0-1.4,0.6c-0.4,2.5-0.7,5.1-1.1,7.6C31.1,53.3,33,53.9,33.2,52.6
		L33.2,52.6z"/>
	<g>
		<linearGradient id="SVGID_11_" gradientUnits="userSpaceOnUse" x1="111.805" y1="93.2479" x2="124.4501" y2="93.2479">
			<stop  offset="0" style="stop-color:#2B6BB4"/>
			<stop  offset="1" style="stop-color:#6F8EC8"/>
		</linearGradient>
		<path class="st19" d="M112.7,91.6c3.9,0,7.5,1.7,9.8,4.9c0.7,1,2.4,0,1.7-1c-2.7-3.7-6.9-5.8-11.5-5.8
			C111.5,89.6,111.5,91.6,112.7,91.6L112.7,91.6z"/>
		<linearGradient id="SVGID_12_" gradientUnits="userSpaceOnUse" x1="109.4616" y1="101.3732" x2="118.8459" y2="101.3732">
			<stop  offset="0" style="stop-color:#2B6BB4"/>
			<stop  offset="1" style="stop-color:#6F8EC8"/>
		</linearGradient>
		<path class="st20" d="M110,99.3c2.8,1.4,5.3,3.2,7.3,5.7c0.8,1,2.2-0.4,1.4-1.4c-2.1-2.5-4.7-4.5-7.7-6
			C109.8,97.1,108.8,98.7,110,99.3L110,99.3z"/>
		<linearGradient id="SVGID_13_" gradientUnits="userSpaceOnUse" x1="108.427" y1="108.2039" x2="113.8076" y2="108.2039">
			<stop  offset="0" style="stop-color:#2B6BB4"/>
			<stop  offset="1" style="stop-color:#6F8EC8"/>
		</linearGradient>
		<path class="st21" d="M108.6,105.8c1.1,1.9,2.3,3.9,3.4,5.8c0.6,1.1,2.3,0.1,1.7-1c-1.1-1.9-2.3-3.9-3.4-5.8
			C109.6,103.7,107.9,104.7,108.6,105.8L108.6,105.8z"/>
		<linearGradient id="SVGID_14_" gradientUnits="userSpaceOnUse" x1="33.0147" y1="92.5286" x2="47.9796" y2="92.5286">
			<stop  offset="0" style="stop-color:#2B6BB4"/>
			<stop  offset="1" style="stop-color:#6F8EC8"/>
		</linearGradient>
		<path class="st22" d="M47,88.3c-5.3,0.4-10.1,2.8-13.8,6.7c-0.8,0.9,0.5,2.3,1.4,1.4c3.3-3.5,7.6-5.7,12.4-6.1
			C48.3,90.2,48.3,88.2,47,88.3L47,88.3z"/>
		<linearGradient id="SVGID_15_" gradientUnits="userSpaceOnUse" x1="38.9906" y1="99.8927" x2="49.6203" y2="99.8927">
			<stop  offset="0" style="stop-color:#2B6BB4"/>
			<stop  offset="1" style="stop-color:#6F8EC8"/>
		</linearGradient>
		<path class="st23" d="M40.8,104.9c2-3.6,4.9-6.5,8.4-8.7c1.1-0.7,0.1-2.4-1-1.7c-3.8,2.4-6.8,5.6-9.1,9.4
			C38.5,105,40.2,106,40.8,104.9L40.8,104.9z"/>
		<linearGradient id="SVGID_16_" gradientUnits="userSpaceOnUse" x1="44.9074" y1="105.3582" x2="51.5262" y2="105.3582">
			<stop  offset="0" style="stop-color:#2B6BB4"/>
			<stop  offset="1" style="stop-color:#6F8EC8"/>
		</linearGradient>
		<path class="st24" d="M46.9,109.1c1-2.4,2.5-4.6,4.4-6.5c0.9-0.9-0.5-2.3-1.4-1.4c-2.1,2.1-3.7,4.6-4.9,7.3
			C44.5,109.7,46.4,110.2,46.9,109.1L46.9,109.1z"/>
	</g>
	<linearGradient id="SVGID_17_" gradientUnits="userSpaceOnUse" x1="74.4814" y1="38.1517" x2="85.6007" y2="38.1517">
		<stop  offset="0" style="stop-color:#F05B42"/>
		<stop  offset="1" style="stop-color:#F9A54F"/>
	</linearGradient>
	<path class="st25" d="M79.4,42.5c-1.1-1.1-1.9-2.4-2.4-3.9c-0.2-0.6-1-3.6-0.1-3.7c0.5-0.1,0.7,1.6,1.1,2.1
		c0.4,0.5,1.1,0.9,1.8,0.8c0.7,0,1.4-0.5,1.8-1.1c0.3-0.4,1.3-2.8,1.9-1.9c0.3,0.5-1.3,3.2-1.6,3.7c-0.8,1.3-1.8,2.5-2.9,3.6
		c0.5,0.1,1.1,0.3,1.6,0.4c-0.3-1.8-0.8-3.5-1.6-5.1c-0.2-0.5-1.2-0.7-1.5-0.2c-0.9,1.2-1,2.5,0,3.7c0.3,0.4,1.1,0.4,1.4,0
		c0.8-1,1.1-2,0.8-3.2c-0.1-0.7-1.2-1-1.6-0.4c-1.4,1.7-1.4,3.7,0.1,5.4c0.4,0.4,1,0.3,1.4,0c1.4-1.2,2.4-2.7,3-4.5
		c-0.6,0-1.3,0-1.9,0c0.3,0.8,0.4,1.4,0.1,2.2c-0.4,1.2,1.5,1.7,1.9,0.5c0.3-1.1,0.3-2.1-0.1-3.2c-0.4-0.9-1.5-0.9-1.9,0
		c-0.5,1.5-1.3,2.6-2.5,3.6c0.5,0,0.9,0,1.4,0c-0.7-0.7-0.7-1.8-0.1-2.6c-0.5-0.1-1.1-0.3-1.6-0.4c-0.1,0.4-0.2,0.9-0.3,1.3
		c0.5,0,0.9,0,1.4,0c-0.3-0.3-0.3-0.6,0-0.9c-0.5-0.1-1-0.1-1.5-0.2c0.7,1.5,1.1,3,1.4,4.7c0.1,0.8,1.1,0.9,1.6,0.4
		c1.5-1.4,2.7-3,3.7-4.8c0.7-1.4,1.7-3.3,1.5-4.9c-0.2-1.2-1.1-2-2.3-1.8c-0.6,0.1-1.2,0.6-1.6,1.1c-0.6,0.7-0.8,2.1-1.7,2.1
		c-0.9,0-0.7-1-1.1-1.8c-0.3-0.5-0.7-1-1.2-1.2c-1.2-0.5-2.3,0.2-2.7,1.4c-1.1,3.5,0.8,7.8,3.2,10.3C78.9,44.8,80.3,43.4,79.4,42.5
		L79.4,42.5z"/>
	<g>
		<path class="st26" d="M71.9,112.4c0,0-0.1,0.1-0.1,0.2c0,0,0,0-0.1,0c0,0-0.1,0.1-0.1,0.1c0,0-0.1,0.1-0.1,0.1c0,0,0,0.1,0,0.1
			c0,0.1,0,0.1-0.1,0.2l0,0.1c0,0.1,0,0.1,0,0.2l0,0.1l0,0.1l0,0.1c0,0,0,0.1,0,0.1c0,0.1,0,0.1,0,0.2l0,0.2c0,0.1,0,0.1,0,0.2
			c0,0.1,0,0.1,0,0.2l0,0.2c0,0.1,0,0.1,0,0.2c0,0,0,0.1,0,0.1c0,0,0,0,0,0.1c0,0,0,0,0,0c0,0,0,0,0,0c0,0,0,0,0.1,0c0,0,0,0,0,0
			c0,0,0,0,0,0c0,0,0,0,0.1,0l0.1,0l0,0l0,0c0,0,0,0,0,0c0,0,0.1,0,0.1,0c0,0,0,0,0.1,0c0,0,0,0,0.1,0c0,0,0,0,0,0c0,0,0.1,0,0.1,0
			c0,0,0,0,0,0c0,0,0,0,0,0c0,0,0,0,0,0c0,0,0,0,0,0c0,0,0,0,0,0c0,0,0,0,0,0c0,0,0,0,0.1-0.1c0,0,0,0,0-0.1c0,0,0-0.1,0.1-0.1
			c0-0.1,0-0.1,0.1-0.2l0-0.2c0-0.1,0-0.1,0.1-0.2c0,0,0-0.1,0-0.1c0,0,0-0.1,0-0.1c0-0.1-0.1-0.1,0-0.2c0-0.1,0-0.1,0.1-0.2
			c0-0.1,0-0.1,0-0.2c0-0.1,0-0.1,0-0.2c0-0.1,0-0.1,0-0.2c0-0.1,0-0.1,0-0.2l0-0.1c0,0,0-0.1,0-0.1c0,0,0-0.1-0.1-0.1
			c-0.1-0.1-0.1-0.1-0.2-0.2c0,0,0,0,0,0c0,0,0,0,0,0c0,0,0,0,0,0c0,0,0,0,0,0c0,0,0,0,0,0l0,0c0,0,0,0,0,0l0,0c0,0,0,0,0,0
			c0,0,0,0,0,0c0,0,0,0-0.1,0c0,0,0,0-0.1,0C72,112.4,72,112.4,71.9,112.4C72,112.4,72,112.4,71.9,112.4
			C72,112.4,72,112.4,71.9,112.4c0.1,0,0.1,0,0.1,0c0,0,0,0,0,0l0,0c0,0,0,0,0,0C72,112.4,72,112.4,71.9,112.4
			C71.9,112.4,71.9,112.4,71.9,112.4C71.9,112.4,71.9,112.4,71.9,112.4z M72.3,114C72.3,114.1,72.4,114.1,72.3,114
			c0,0.1,0,0.1,0,0.2c0,0,0,0.1,0,0.1c0,0,0,0.1-0.1,0.1C72.3,114.3,72.3,114.2,72.3,114z M72.2,114.7
			C72.2,114.7,72.2,114.7,72.2,114.7c0,0.1,0,0.1,0,0.1C72.2,114.8,72.2,114.7,72.2,114.7z"/>
		<path class="st26" d="M76.7,108.2c0,0-0.1,0.1-0.1,0.2c0,0,0,0-0.1,0c0,0-0.1,0.1-0.1,0.1c0,0-0.1,0.1-0.1,0.1c0,0,0,0.1,0,0.1
			c0,0.1,0,0.1-0.1,0.2l0,0.1c0,0.1,0,0.1,0,0.2l0,0.1l0,0.1l0,0.1c0,0,0,0.1,0,0.1c0,0.1,0,0.1,0,0.2l0,0.2c0,0.1,0,0.1,0,0.2
			c0,0.1,0,0.1,0,0.2l0,0.2c0,0.1,0,0.1,0,0.2c0,0,0,0.1,0,0.1c0,0,0,0,0,0.1c0,0,0,0,0,0c0,0,0,0,0,0c0,0,0,0,0.1,0c0,0,0,0,0,0
			c0,0,0,0,0,0c0,0,0,0,0.1,0l0.1,0l0,0l0,0c0,0,0,0,0,0c0,0,0.1,0,0.1,0c0,0,0,0,0.1,0c0,0,0,0,0.1,0c0,0,0,0,0,0c0,0,0.1,0,0.1,0
			c0,0,0,0,0,0c0,0,0,0,0,0c0,0,0,0,0,0c0,0,0,0,0,0c0,0,0,0,0,0c0,0,0,0,0,0c0,0,0,0,0.1-0.1c0,0,0,0,0-0.1c0,0,0-0.1,0.1-0.1
			c0-0.1,0-0.1,0.1-0.2l0-0.2c0-0.1,0.1-0.1,0.1-0.2c0,0,0-0.1,0-0.1c0,0,0-0.1,0-0.1c0-0.1-0.1-0.1,0-0.2c0-0.1,0-0.1,0.1-0.2
			c0-0.1,0-0.1,0-0.2c0-0.1,0-0.1,0-0.2c0-0.1,0-0.1,0-0.2c0-0.1,0-0.1,0-0.2l0-0.1c0,0,0-0.1,0-0.1c0,0,0-0.1-0.1-0.1
			c-0.1-0.1-0.1-0.1-0.2-0.2c0,0,0,0,0,0c0,0,0,0,0,0c0,0,0,0,0,0c0,0,0,0,0,0c0,0,0,0,0,0l0,0c0,0,0,0,0,0l0,0c0,0,0,0,0,0
			c0,0,0,0,0,0c0,0,0,0-0.1,0c0,0,0,0-0.1,0C76.8,108.2,76.8,108.2,76.7,108.2C76.8,108.2,76.8,108.2,76.7,108.2
			C76.8,108.2,76.8,108.2,76.7,108.2c0.1,0,0.1,0,0.1,0c0,0,0,0,0,0l0,0c0,0,0,0,0,0C76.8,108.2,76.8,108.2,76.7,108.2
			C76.7,108.2,76.7,108.2,76.7,108.2C76.7,108.2,76.7,108.2,76.7,108.2z M77.1,109.8C77.1,109.8,77.2,109.8,77.1,109.8
			c0,0.1,0,0.1,0,0.2c0,0,0,0.1,0,0.1c0,0,0,0.1-0.1,0.1C77.1,110.1,77.1,110,77.1,109.8z M77,110.4C77,110.5,77,110.5,77,110.4
			c0,0.1,0,0.1,0,0.1C77,110.5,77,110.5,77,110.4z"/>
		<path class="st26" d="M75.7,115.5c0,0-0.1,0.1-0.1,0.2c0,0,0,0-0.1,0c0,0-0.1,0.1-0.1,0.1c0,0-0.1,0.1-0.1,0.1c0,0,0,0.1,0,0.1
			c0,0.1,0,0.1-0.1,0.2l0,0.1c0,0.1,0,0.1,0,0.2l0,0.1l0,0.1l0,0.1c0,0,0,0.1,0,0.1c0,0.1,0,0.1,0,0.2l0,0.2c0,0.1,0,0.1,0,0.2
			c0,0.1,0,0.1,0,0.2l0,0.2c0,0.1,0,0.1,0,0.2c0,0,0,0.1,0,0.1c0,0,0,0,0,0.1c0,0,0,0,0,0c0,0,0,0,0,0c0,0,0,0,0.1,0c0,0,0,0,0,0
			c0,0,0,0,0,0c0,0,0,0,0.1,0l0.1,0l0,0l0,0c0,0,0,0,0,0c0,0,0.1,0,0.1,0c0,0,0,0,0.1,0c0,0,0,0,0.1,0c0,0,0,0,0,0c0,0,0.1,0,0.1,0
			c0,0,0,0,0,0c0,0,0,0,0,0c0,0,0,0,0,0c0,0,0,0,0,0c0,0,0,0,0,0c0,0,0,0,0,0c0,0,0,0,0.1-0.1c0,0,0,0,0-0.1c0,0,0-0.1,0.1-0.1
			c0-0.1,0-0.1,0.1-0.2l0-0.2c0-0.1,0.1-0.1,0.1-0.2c0,0,0-0.1,0-0.1c0,0,0-0.1,0-0.1c0-0.1-0.1-0.1,0-0.2c0-0.1,0-0.1,0.1-0.2
			c0-0.1,0-0.1,0-0.2c0-0.1,0-0.1,0-0.2c0-0.1,0-0.1,0-0.2c0-0.1,0-0.1,0-0.2l0-0.1c0,0,0-0.1,0-0.1c0,0,0-0.1-0.1-0.1
			c-0.1-0.1-0.1-0.1-0.2-0.2c0,0,0,0,0,0c0,0,0,0,0,0c0,0,0,0,0,0c0,0,0,0,0,0l0,0h0c0,0,0,0,0,0l0,0c0,0,0,0,0,0c0,0,0,0,0,0
			c0,0,0,0-0.1,0c0,0,0,0-0.1,0C75.8,115.5,75.7,115.5,75.7,115.5C75.7,115.5,75.7,115.5,75.7,115.5
			C75.8,115.5,75.8,115.5,75.7,115.5c0.1,0,0.1,0,0.1,0l0,0l0,0c0,0,0,0,0,0C75.8,115.6,75.7,115.5,75.7,115.5L75.7,115.5
			C75.7,115.5,75.7,115.5,75.7,115.5z M76.1,117.2C76.1,117.2,76.1,117.2,76.1,117.2c0,0.1,0,0.1,0,0.2c0,0,0,0.1,0,0.1
			c0,0,0,0.1-0.1,0.1C76.1,117.4,76.1,117.3,76.1,117.2z M76,117.8C76,117.8,76,117.8,76,117.8c0,0.1,0,0.1,0,0.1
			C76,117.9,76,117.8,76,117.8z"/>
		<path class="st26" d="M75.7,115.5L75.7,115.5C75.7,115.5,75.7,115.5,75.7,115.5C75.7,115.5,75.7,115.5,75.7,115.5z"/>
		<path class="st26" d="M85.6,107.1c0,0-0.1,0.1-0.1,0.2c0,0,0,0-0.1,0c0,0-0.1,0.1-0.1,0.1c0,0-0.1,0.1-0.1,0.1c0,0,0,0.1,0,0.1
			c0,0.1,0,0.1-0.1,0.2l0,0.1c0,0.1,0,0.1,0,0.2l0,0.1l0,0.1l0,0.1c0,0,0,0.1,0,0.1c0,0.1,0,0.1,0,0.2l0,0.2c0,0.1,0,0.1,0,0.2
			c0,0.1,0,0.1,0,0.2l0,0.2c0,0.1,0,0.1,0,0.2c0,0,0,0.1,0,0.1c0,0,0,0,0,0.1c0,0,0,0,0,0c0,0,0,0,0,0c0,0,0,0,0.1,0c0,0,0,0,0,0
			c0,0,0,0,0,0c0,0,0,0,0.1,0l0.1,0h0l0,0c0,0,0,0,0,0c0,0,0.1,0,0.1,0c0,0,0,0,0.1,0c0,0,0,0,0.1,0c0,0,0,0,0,0c0,0,0.1,0,0.1,0
			c0,0,0,0,0,0c0,0,0,0,0,0c0,0,0,0,0,0c0,0,0,0,0,0c0,0,0,0,0,0c0,0,0,0,0,0c0,0,0,0,0.1-0.1c0,0,0,0,0-0.1c0,0,0-0.1,0.1-0.1
			c0-0.1,0-0.1,0.1-0.2l0-0.2c0-0.1,0-0.1,0.1-0.2c0,0,0-0.1,0-0.1c0,0,0-0.1,0-0.1c0-0.1-0.1-0.1,0-0.2c0-0.1,0-0.1,0.1-0.2
			c0-0.1,0-0.1,0-0.2c0-0.1,0-0.1,0-0.2c0-0.1,0-0.1,0-0.2c0-0.1,0-0.1,0-0.2l0-0.1c0,0,0-0.1,0-0.1c0,0,0-0.1-0.1-0.1
			c-0.1-0.1-0.1-0.1-0.2-0.2c0,0,0,0,0,0c0,0,0,0,0,0c0,0,0,0,0,0c0,0,0,0,0,0c0,0,0,0,0,0l0,0c0,0,0,0,0,0l0,0c0,0,0,0,0,0
			c0,0,0,0,0,0c0,0,0,0-0.1,0c0,0,0,0-0.1,0C85.7,107.1,85.7,107.1,85.6,107.1C85.7,107.1,85.7,107.1,85.6,107.1
			C85.7,107.1,85.7,107.1,85.6,107.1c0.1,0,0.1,0,0.1,0c0,0,0,0,0,0l0,0c0,0,0,0,0,0C85.7,107.2,85.7,107.2,85.6,107.1L85.6,107.1
			C85.6,107.2,85.6,107.1,85.6,107.1z M86,108.8C86,108.8,86.1,108.8,86,108.8c0,0.1,0,0.1,0,0.2c0,0,0,0.1,0,0.1c0,0,0,0.1-0.1,0.1
			C86,109.1,86,108.9,86,108.8z M85.9,109.4C85.9,109.4,85.9,109.5,85.9,109.4c0,0.1,0,0.1,0,0.1C85.9,109.5,85.9,109.4,85.9,109.4z
			"/>
		<path class="st26" d="M87.6,114.6c0,0-0.1,0.1-0.1,0.2c0,0,0,0-0.1,0c0,0-0.1,0.1-0.1,0.1c0,0-0.1,0.1-0.1,0.1c0,0,0,0.1,0,0.1
			c0,0.1,0,0.1-0.1,0.2l0,0.1c0,0.1,0,0.1,0,0.2l0,0.1l0,0.1l0,0.1c0,0,0,0.1,0,0.1c0,0.1,0,0.1,0,0.2l0,0.2c0,0.1,0,0.1,0,0.2
			c0,0.1,0,0.1,0,0.2l0,0.2c0,0.1,0,0.1,0,0.2c0,0,0,0.1,0,0.1c0,0,0,0,0,0.1c0,0,0,0,0,0c0,0,0,0,0,0c0,0,0,0,0.1,0c0,0,0,0,0,0
			c0,0,0,0,0,0c0,0,0,0,0.1,0l0.1,0l0,0l0,0c0,0,0,0,0,0c0,0,0.1,0,0.1,0c0,0,0,0,0.1,0c0,0,0,0,0.1,0c0,0,0,0,0,0c0,0,0.1,0,0.1,0
			c0,0,0,0,0,0c0,0,0,0,0,0c0,0,0,0,0,0c0,0,0,0,0,0c0,0,0,0,0,0c0,0,0,0,0,0c0,0,0,0,0.1-0.1c0,0,0,0,0-0.1c0,0,0-0.1,0.1-0.1
			c0-0.1,0-0.1,0.1-0.2l0-0.2c0-0.1,0.1-0.1,0.1-0.2c0,0,0-0.1,0-0.1c0,0,0-0.1,0-0.1c0-0.1-0.1-0.1,0-0.2c0-0.1,0-0.1,0.1-0.2
			c0-0.1,0-0.1,0-0.2c0-0.1,0-0.1,0-0.2c0-0.1,0-0.1,0-0.2c0-0.1,0-0.1,0-0.2l0-0.1c0,0,0-0.1,0-0.1c0,0,0-0.1-0.1-0.1
			c-0.1-0.1-0.1-0.1-0.2-0.2c0,0,0,0,0,0c0,0,0,0,0,0c0,0,0,0,0,0c0,0,0,0,0,0c0,0,0,0,0,0l0,0c0,0,0,0,0,0l0,0c0,0,0,0,0,0
			c0,0,0,0,0,0c0,0,0,0-0.1,0c0,0,0,0-0.1,0C87.7,114.5,87.6,114.5,87.6,114.6C87.6,114.5,87.6,114.5,87.6,114.6
			C87.7,114.5,87.7,114.5,87.6,114.6c0.1,0,0.1,0,0.1,0l0,0l0,0c0,0,0,0,0,0C87.7,114.6,87.6,114.6,87.6,114.6L87.6,114.6
			C87.6,114.6,87.6,114.6,87.6,114.6z M88,116.2C88,116.2,88,116.2,88,116.2c0,0.1,0,0.1,0,0.2c0,0,0,0.1,0,0.1c0,0,0,0.1-0.1,0.1
			C88,116.5,88,116.3,88,116.2z M87.9,116.8C87.9,116.8,87.9,116.9,87.9,116.8c0,0.1,0,0.1,0,0.1C87.9,116.9,87.9,116.8,87.9,116.8z
			"/>
		<path class="st26" d="M90.7,110.5c0-0.1,0-0.1,0-0.2c0-0.1,0-0.1,0-0.2c0-0.1,0-0.1,0-0.2c0-0.1,0-0.1,0-0.2l0-0.1
			c0,0,0-0.1,0-0.1c0,0,0-0.1-0.1-0.1c-0.1-0.1-0.1-0.1-0.2-0.2c0,0,0,0,0,0c0,0,0,0,0,0c0,0,0,0,0,0c0,0,0,0,0,0c0,0,0,0,0,0l0,0
			c0,0,0,0,0,0l0,0c0,0,0,0,0,0c0,0,0,0,0,0c0,0,0,0-0.1,0c0,0,0,0-0.1,0c0,0,0,0,0,0c0,0,0,0,0,0c0,0,0,0,0,0c0,0,0,0,0,0
			c0,0,0,0,0,0l0,0c0,0,0,0,0,0c0,0-0.1,0-0.1-0.1c0,0,0,0,0,0c0,0,0,0,0,0c0,0-0.1,0.1-0.1,0.2c0,0,0,0-0.1,0c0,0-0.1,0.1-0.1,0.1
			c0,0-0.1,0.1-0.1,0.1c0,0,0,0.1,0,0.1c0,0.1,0,0.1-0.1,0.2l0,0.1c0,0.1,0,0.1,0,0.2l0,0.1l0,0.1l0,0.1c0,0,0,0.1,0,0.1
			c0,0.1,0,0.1,0,0.2l0,0.2c0,0.1,0,0.1,0,0.2c0,0.1,0,0.1,0,0.2l0,0.2c0,0.1,0,0.1,0,0.2c0,0,0,0.1,0,0.1c0,0,0,0,0,0.1
			c0,0,0,0,0,0c0,0,0,0,0,0c0,0,0,0,0.1,0c0,0,0,0,0,0c0,0,0,0,0,0c0,0,0,0,0.1,0l0.1,0l0,0l0,0c0,0,0,0,0,0c0,0,0.1,0,0.1,0
			c0,0,0,0,0.1,0c0,0,0,0,0.1,0c0,0,0,0,0,0c0,0,0.1,0,0.1,0c0,0,0,0,0,0c0,0,0,0,0,0c0,0,0,0,0,0c0,0,0,0,0,0c0,0,0,0,0,0
			c0,0,0,0,0,0c0,0,0,0,0.1-0.1c0,0,0,0,0-0.1c0,0,0-0.1,0.1-0.1c0-0.1,0-0.1,0.1-0.2l0-0.2c0-0.1,0.1-0.1,0.1-0.2c0,0,0-0.1,0-0.1
			c0,0,0-0.1,0-0.1c0-0.1-0.1-0.1,0-0.2C90.7,110.6,90.7,110.6,90.7,110.5z M90.3,111.6C90.3,111.6,90.2,111.6,90.3,111.6
			C90.3,111.6,90.3,111.5,90.3,111.6C90.3,111.5,90.3,111.5,90.3,111.6z M90.4,111.1c0,0,0,0.1-0.1,0.1c0-0.1,0-0.3,0-0.4
			c0,0,0,0,0,0.1c0,0,0,0.1,0,0.1C90.4,111.1,90.4,111.1,90.4,111.1z"/>
		<path class="st26" d="M83.4,93.1c0.4-0.7,0.7-1.5,1-2.2c0.1-0.4,0.3-0.8,0.3-1.2c0.1-0.4,0.1-0.8,0.1-1.2c0-0.4-0.1-0.7-0.3-1.1
			c-0.1-0.2-0.2-0.3-0.3-0.4c0,0-0.1-0.1-0.1-0.1c0,0-0.1-0.1-0.1-0.1c-0.1-0.1-0.1-0.1-0.2-0.2c-0.3-0.2-0.6-0.3-0.9-0.3
			c-0.3,0-0.5,0.3-0.7,0.6c-0.2,0.3-0.3,0.7-0.5,1c-0.1,0.4-0.2,0.8-0.3,1.2c-0.1,0.5-0.1,0.9-0.2,1.4c0.1,0.2,0,0.4,0,0.6
			c0,0,0,0.1,0,0.1c0,0.1,0,0.2,0,0.3c0,0.1-0.1,0.1-0.1,0c0,0,0-0.1,0-0.1c0,0-0.1,0.1-0.1,0.1c-0.1,0-0.2,0-0.2,0
			c-0.1,0-0.2,0-0.2,0c0,0,0,0,0,0c-0.1-0.1-0.3-0.1-0.4-0.3c-0.3-0.4-0.6-0.8-0.8-1.2c-0.2-0.4-0.4-0.8-0.7-1.1
			c0-0.1-0.1-0.1-0.1-0.2c0-0.1-0.1-0.1-0.1-0.2c-0.2-0.3-0.4-0.5-0.7-0.7c-0.1-0.1-0.3-0.2-0.4-0.3c-0.1-0.1-0.3-0.1-0.4-0.2
			c-0.1,0-0.2,0-0.2,0c-0.1,0-0.1,0.1-0.2,0.2c-0.1,0.1-0.2,0.3-0.2,0.4c-0.1,0.2-0.1,0.4-0.2,0.6c0,0.1,0,0.2-0.1,0.3l0,0.2l0,0
			c0,0,0,0,0,0c0,0,0,0,0,0c0,0,0,0,0,0c0,0.1,0,0.3,0.1,0.4c0.1,0.4,0.3,0.7,0.5,1.1c0.3,0.5,0.5,0.9,0.9,1.4
			c0.1,0.1,0.1,0.2,0.2,0.2c0.1,0.2,0.3,0.4,0.4,0.6c0.4,0.6,0.8,1.1,1.3,1.6c0.1,0.2,0.3,0.3,0.4,0.5c0.3,0.3,0.6,0.7,0.9,1
			c0,0,0.1,0.1,0.1,0.1c0,0.2,0,0.4,0,0.7c0,0.4,0,0.8,0,1.1c0,1.1,0,2.1,0.1,3.2c0.1,1.7,0.1,3.4,0.2,5.1c0,1.9-0.1,3.7-0.3,5.6
			c-0.1,0.9-0.3,1.8-0.5,2.7c-0.2,0.9-0.4,1.8-0.8,2.6c-0.3,0.7-0.6,1.3-1,1.9c-0.2,0.3-0.4,0.5-0.7,0.8c-0.3,0.2-0.5,0.4-0.8,0.6
			c-0.6,0.4-1.2,0.6-1.9,0.8c-0.7,0.1-1.4,0.1-2.1,0c-1.4-0.2-2.7-1-3.7-2.1c-1-1.1-1.7-2.5-1.9-4c0-0.1,0-0.1-0.1-0.2
			c0,0-0.1-0.1-0.1-0.1c-0.1,0-0.2,0-0.2,0.2c-0.1,0.7,0,1.4,0.1,2.1c0.2,0.7,0.5,1.4,0.9,2.1c0.4,0.7,1,1.3,1.7,1.8
			c0.7,0.5,1.4,0.9,2.2,1.1c0.8,0.2,1.6,0.4,2.5,0.3c0.8-0.1,1.6-0.3,2.4-0.6c0.4-0.2,0.7-0.4,1-0.6c0.3-0.2,0.6-0.5,0.9-0.8
			c0.5-0.6,1-1.2,1.3-1.8c0.5-0.9,0.8-1.8,1.1-2.7c0.3-0.9,0.5-1.9,0.7-2.8c0.1-0.8,0.2-1.6,0.3-2.4c0,0.1,0,0.1,0,0.2
			c0.1,0.4,0.1,0.7,0.2,1.1l0.1,0.5l0.1,0.5c0.2,1,0.3,2,0.6,2.9c0.3,1,0.7,1.9,1.3,2.8c0.3,0.4,0.7,0.8,1.1,1.1
			c0.4,0.3,0.9,0.6,1.4,0.7c1,0.3,2,0.3,2.9,0.2c1-0.1,1.9-0.6,2.7-1.1c0.8-0.6,1.5-1.3,2-2.2c0.5-0.8,0.9-1.8,1.1-2.8
			c0.2-1,0.1-2-0.2-3c-0.1-0.3-0.3-0.5-0.5-0.5c-0.2,0-0.3,0.2-0.2,0.5c0.2,1.6-0.2,3.1-1,4.5c-0.4,0.7-0.9,1.3-1.4,1.8
			c-0.6,0.5-1.2,1-1.9,1.2c-0.2,0.1-0.4,0.1-0.6,0.2l-0.1,0l-0.1,0l0,0c0,0,0,0,0,0l0,0l0,0c-0.1,0-0.2,0-0.3,0
			c-0.4,0.1-0.8,0.1-1.2,0c-0.8-0.1-1.5-0.3-2.1-0.8c-0.6-0.5-1.1-1.2-1.4-2.1c-0.4-0.8-0.6-1.7-0.8-2.6c-0.1-0.4-0.2-0.8-0.2-1.2
			l-0.2-1.2c-0.1-0.8-0.2-1.6-0.3-2.4c-0.2-1.6-0.3-3.1-0.4-4.7c-0.1-1.6-0.1-3.2-0.2-4.8c0-0.6,0-1.2-0.1-1.8c0-0.5,0-1-0.1-1.6
			c0-0.3,0-0.5,0-0.8l0.4-0.7C82.6,94.5,83,93.8,83.4,93.1z"/>
	</g>
	<path class="st279" d="M98.9,71C98.9,71,98.9,71.1,98.9,71c0-0.2,0.1-0.5,0.1-0.8c0.1-0.4,0.2-0.8,0.4-1.1c0.2-0.4,0.4-0.7,0.7-0.9
		c0.2-0.1,0.4-0.1,0.5-0.1c-0.1,0.1-0.2,0.2-0.3,0.4c-0.1,0.2-0.3,0.4-0.4,0.6c-0.2,0.3-0.4,0.7-0.5,1C99.3,70.4,99.1,70.7,98.9,71z
		"/>
	<path class="st279" d="M102.7,68.9c-0.1-0.1-0.2-0.2-0.3-0.3c0,0,0-0.1,0-0.1c0,0,0-0.1-0.1-0.1c0.1,0,0.1,0.1,0.2,0.1
		C102.6,68.7,102.6,68.8,102.7,68.9z"/>
	<path class="st279" d="M100.6,71.6c0-0.1,0-0.2,0.1-0.3c0,0,0,0.1,0.1,0.1C100.7,71.4,100.6,71.5,100.6,71.6z"/>
	<path class="st279" d="M100.7,70.9C100.7,70.9,100.7,70.9,100.7,70.9C100.7,70.9,100.7,70.9,100.7,70.9L100.7,70.9z"/>
	<path class="st279" d="M100.7,70.8c0-0.1,0.1-0.2,0.1-0.3c0,0,0,0,0,0c0.1-0.1,0.2-0.1,0.2-0.2c0,0,0,0.1,0,0.1
		c-0.1,0.1-0.1,0.3-0.2,0.4L100.7,70.8z"/>
	<path class="st279" d="M101.5,67.5c-0.1,0-0.1-0.1-0.2-0.1c0.1,0,0.2,0,0.3,0c0,0,0,0,0.1,0C101.6,67.4,101.6,67.4,101.5,67.5z"/>
	<path class="st279" d="M102.2,68.2C102.2,68.2,102.2,68.2,102.2,68.2C102.2,68.2,102.2,68.2,102.2,68.2c0.1,0,0.1,0,0.1,0
		C102.3,68.2,102.2,68.2,102.2,68.2z"/>
	<path class="st14" d="M60.5,85.5C60.5,85.5,60.5,85.5,60.5,85.5c0-0.1-0.1-0.1-0.1-0.2c0,0,0-0.1-0.1-0.1c0,0,0,0,0,0
		C60.4,85.3,60.5,85.4,60.5,85.5z"/>
	<polygon class="st279" points="97.8,70.5 97.8,70.5 97.8,70.5 	"/>
	<path class="st280" d="M99.9,68.6L99.9,68.6L99.9,68.6C99.9,68.6,99.9,68.6,99.9,68.6C99.9,68.6,99.9,68.6,99.9,68.6
		C99.9,68.6,99.9,68.6,99.9,68.6z"/>
	<g>
		<path class="st1" d="M100.8,85.1C100.8,85.1,100.8,85.1,100.8,85.1c-0.1-0.1-0.1-0.3-0.2-0.4c0,0,0,0,0,0c0,0,0,0.1,0.1,0.1
			C100.7,84.9,100.7,85,100.8,85.1z"/>
		<path class="st4" d="M113.2,76.8c0-0.2-0.1-0.5-0.1-0.7c-0.1-0.8-0.3-1.5-0.5-2c-0.3-0.7-0.6-1.3-1-1.7c0-0.1-0.1-0.1-0.1-0.2
			l-0.1-0.2l-0.1-0.2c-0.1-0.2-0.3-0.4-0.5-0.6c-0.6-0.8-1.4-1.4-2.2-1.9c-0.2-0.1-0.4-0.2-0.5-0.3c0.8,0.3,1.2,0.6,1.2,0.5
			c0,0-0.1-0.2-0.2-0.3c-0.2-0.2-0.5-0.4-0.9-0.6c-0.4-0.2-0.9-0.5-1.6-0.7c-0.6-0.2-1.4-0.4-2.2-0.4c-0.4,0-3.9,0.1-5,0.1
			c0,0,0,0,0.1,0c-0.1,0-0.2,0-0.3,0c0,0,0,0-0.1,0l0,0c-0.3,0-0.5,0.1-0.8,0.1c-0.1,0-0.3,0.1-0.4,0.1c-0.5,0.1-0.9,0.2-1.4,0.4
			c-0.2,0.1-0.5,0.2-0.7,0.3c-0.4,0.2-0.8,0.3-1.2,0.6c-0.2,0.1-0.4,0.2-0.6,0.3l-0.5,0.3c-1.5,0.9-2.9,2-4.1,3.3
			c-0.6,0.7-1.1,1.4-1.4,2.2c-0.2,0.4-0.4,0.8-0.5,1.2c0,0.1-0.1,0.2-0.1,0.3c0,0.1-0.1,0.2-0.1,0.3l-0.2,0.6
			c-0.2,0.8-0.4,1.6-0.6,2.5c-0.1,0.9-0.2,1.8,0,2.7c0.1,0.9,0.5,1.8,0.9,2.5c0.4,0.7,0.9,1.4,1.4,2c1,1.1,2.2,2,3.3,2.6
			c0.6,0.3,1.1,0.5,1.7,0.7c0.5,0.2,1.1,0.3,1.6,0.5c1.1,0.3,2.2,0.3,3.2,0.3c2-0.1,3.7-0.5,5.1-1.1c0.6-0.2,1.1-0.5,1.5-0.8
			c0.1,0,0.1,0,0.2-0.1l0.7-0.2c0.2-0.1,0.5-0.2,0.7-0.3c0.5-0.2,0.9-0.5,1.3-0.7c0.8-0.6,1.6-1.2,2.3-2c1.4-1.6,2.4-3.7,2.7-6
			C113.4,78.9,113.3,77.9,113.2,76.8z"/>
		<path class="st1" d="M112.2,77.8c-0.1,1-0.4,2.1-0.9,3.3c-0.5,1.2-1.3,2.4-2.2,3.6c-0.9,1.1-1.9,2.1-3.1,2.9l-0.5,0.3
			c-0.2,0.1-0.4,0.2-0.6,0.4c-0.4,0.3-1,0.5-1.6,0.8c-0.3,0.1-0.6,0.2-0.9,0.3c-0.6,0.1-1.3,0.1-2,0.1c-1.7,0-3.6-0.3-5.5-0.9
			c-0.9-0.3-1.7-0.7-2.5-1.2c-0.7-0.5-1.4-1.1-2-1.8c-1.1-1.3-1.8-3-2-4.8c-0.2-1.8,0-3.6,0.5-5.2c0.1-0.2,0.1-0.4,0.2-0.6l0.1-0.1
			c0,0,0-0.1,0.1-0.1c0-0.1,0.1-0.2,0.1-0.3c0.2-0.3,0.4-0.6,0.7-0.9c0.5-0.6,1-1,1.6-1.5c0.4-0.3,0.8-0.6,1.2-0.9
			c-0.3,0.5-0.6,1.1-0.8,1.6c0,0,0,0.1,0,0.1c-0.5,1.3-0.8,2.8-0.8,4.2c0,1.5,0.5,2.9,1,4.1c0.6,1.2,1.2,2.1,2,3
			c0.8,0.9,1.7,1.6,2.7,2.1c1,0.5,2.1,0.9,3.1,1c0,0,0,0,0,0c-0.3-0.2-0.4-0.3-0.6-0.5c-0.2-0.2-0.3-0.4-0.4-0.6c0,0,0-0.1-0.1-0.1
			c-0.1-0.1-0.2-0.3-0.3-0.4c-0.4-0.7-0.6-1.5-0.7-2.2c0-0.2-0.1-0.4-0.1-0.6c0,0,0-0.1,0-0.1c-0.3-1.6-0.5-3.2-0.6-4.8
			c-0.1-1.6-0.1-3.2,0-4.9c0.1-0.8,0.1-1.5,0.3-2.3c-0.1-0.2-0.1-0.3-0.1-0.4c0,0,0-0.1,0-0.1c0,0,0,0,0.1,0c0,0,0,0,0.1,0
			c0,0,0.1,0,0.1,0c0.1-0.3,0.2-0.6,0.3-0.9c0.2-0.4,0.3-0.9,0.7-1.3c0.1-0.2-0.3,0.3-0.1,0.2l3.5-0.1c0.2,0.3,1.3-0.1,1.4,0.2
			c1.5,0.2,2.9,0.7,4.3,1.4c0.8,0.4,1.5,1,2.1,1.7c0.3,0.3,0.6,0.7,0.8,1.1c0.3,0.4,0.5,0.8,0.7,1.2c0.1,0.2,0.2,0.4,0.3,0.6
			c0.1,0.2,0.1,0.4,0.2,0.6C112.2,75.8,112.3,76.8,112.2,77.8z"/>
		<linearGradient id="SVGID_18_" gradientUnits="userSpaceOnUse" x1="99.043" y1="76.3197" x2="99.157" y2="76.3197">
			<stop  offset="0" style="stop-color:#2B6BB4"/>
			<stop  offset="1" style="stop-color:#6F8EC8"/>
		</linearGradient>
		<path class="st27" d="M99.1,74.6C99,75.7,99,76.9,99.1,78l0-0.5c0-0.2,0-0.4,0-0.6C99.2,76.2,99.1,75.4,99.1,74.6
			C99.1,74.6,99.1,74.6,99.1,74.6z"/>
		<linearGradient id="SVGID_19_" gradientUnits="userSpaceOnUse" x1="101.351" y1="77.9237" x2="102.0974" y2="77.9237">
			<stop  offset="0" style="stop-color:#2B6BB4"/>
			<stop  offset="1" style="stop-color:#6F8EC8"/>
		</linearGradient>
		<path class="st28" d="M102.1,76.9c-0.1-0.8-0.2-1.7-0.3-2.5c0-0.2-0.1-0.4-0.1-0.6c0,0.1,0,0.3-0.1,0.4c-0.2,1.3-0.2,2.5-0.2,3.8
			c0,1.3,0.2,2.6,0.4,3.9c0.2-1,0.3-1.9,0.4-2.9c0-0.4,0-0.9,0-1.3C102.1,77.5,102.1,77.2,102.1,76.9z"/>
		<path class="st4" d="M108.3,74.1c-0.1-0.2-0.2-0.4-0.3-0.7c-0.1-0.2-0.2-0.4-0.3-0.7c-0.2-0.4-0.5-0.8-0.8-1.2
			c-0.6-0.8-1.3-1.4-2.1-1.9c-0.2-0.1-0.5-0.3-0.7-0.4c0.1,0.3,0.2,0.6,0.2,1c0.2,0.9,0.2,1.8,0.1,2.6c0,0.8-0.1,1.7-0.2,2.5
			c0,0.4-0.1,0.8,0,1.2c0,0.4,0,0.8,0,1.2c0,1.7-0.1,3.3-0.4,4.9c-0.1,0.8-0.3,1.6-0.6,2.4c-0.3,0.8-0.6,1.5-1.1,2.2
			c0.3-0.1,0.7-0.1,1-0.2c0.4-0.1,0.9-0.3,1.2-0.5c0.4-0.2,0.7-0.4,1.1-0.7c0.7-0.5,1.3-1.1,1.8-1.8c1-1.3,1.5-2.7,1.7-3.9
			c0.2-1.2,0.2-2.1,0.2-2.7C109.1,76.3,108.8,75.1,108.3,74.1z"/>
	</g>
	<g>
		<path class="st1" d="M60.1,88.1C60.1,88.1,60.1,88.1,60.1,88.1c0.1-0.1,0.1-0.3,0.2-0.4c0,0,0,0,0,0c0,0,0,0.1-0.1,0.1
			C60.1,87.9,60.1,88,60.1,88.1z"/>
		<linearGradient id="SVGID_20_" gradientUnits="userSpaceOnUse" x1="47.5222" y1="82.2768" x2="74.3135" y2="82.2768">
			<stop  offset="0" style="stop-color:#EF537A"/>
			<stop  offset="1" style="stop-color:#4A3D97"/>
		</linearGradient>
		<path class="st29" d="M47.6,83c0.3,2.3,1.3,4.4,2.7,6c0.7,0.8,1.4,1.5,2.3,2c0.4,0.3,0.9,0.5,1.3,0.7c0.2,0.1,0.5,0.2,0.7,0.3
			l0.7,0.2c0.1,0,0.1,0,0.2,0.1c0.4,0.3,1,0.5,1.5,0.8c1.3,0.6,3,1,5.1,1.1c1,0,2.1-0.1,3.2-0.3c0.6-0.1,1.1-0.3,1.6-0.5
			c0.5-0.2,1.1-0.4,1.7-0.7c1.1-0.6,2.3-1.4,3.3-2.6c0.5-0.6,1-1.2,1.4-2c0.4-0.7,0.8-1.6,0.9-2.5c0.1-0.9,0.1-1.8,0-2.7
			c-0.1-0.9-0.4-1.7-0.6-2.5l-0.2-0.6c0-0.1-0.1-0.2-0.1-0.3c0-0.1-0.1-0.2-0.1-0.3c-0.1-0.4-0.3-0.8-0.5-1.2
			c-0.4-0.8-0.9-1.5-1.4-2.2c-1.1-1.3-2.6-2.4-4.1-3.3l-0.5-0.3c-0.2-0.1-0.4-0.2-0.6-0.3c-0.4-0.2-0.8-0.4-1.2-0.6
			c-0.2-0.1-0.5-0.2-0.7-0.3c-0.4-0.2-0.9-0.3-1.4-0.4c-0.1,0-0.3-0.1-0.4-0.1c-0.3-0.1-0.5-0.1-0.8-0.1l0,0c0,0,0,0-0.1,0
			c-0.1,0-0.2,0-0.3,0c0,0,0,0,0.1,0c-1.1,0-4.6-0.2-5-0.1c-0.8,0.1-1.6,0.2-2.2,0.4c-0.6,0.2-1.1,0.4-1.6,0.7
			c-0.4,0.2-0.7,0.5-0.9,0.6c-0.2,0.2-0.3,0.3-0.2,0.3c0.1,0.1,0.4-0.1,1.2-0.5c-0.2,0.1-0.4,0.2-0.5,0.3c-0.8,0.5-1.5,1.1-2.2,1.9
			c-0.2,0.2-0.3,0.4-0.5,0.6L49.5,75l-0.1,0.2c0,0.1-0.1,0.1-0.1,0.2c-0.3,0.5-0.7,1-1,1.7c-0.2,0.6-0.4,1.3-0.5,2
			c-0.1,0.2-0.1,0.5-0.1,0.7C47.5,80.9,47.5,81.9,47.6,83z"/>
		<path class="st1" d="M48.8,78c0-0.2,0.1-0.4,0.2-0.6c0.1-0.2,0.2-0.4,0.3-0.6c0.2-0.4,0.4-0.8,0.7-1.2c0.3-0.4,0.5-0.8,0.8-1.1
			c0.6-0.7,1.3-1.2,2.1-1.7c1.3-0.8,2.8-1.2,4.3-1.4c0.1-0.3,1.2,0.1,1.4-0.2l3.5,0.1c0.2,0.2-0.3-0.3-0.1-0.2
			c0.3,0.4,0.5,0.9,0.7,1.3c0.1,0.3,0.2,0.6,0.3,0.9c0,0,0.1,0,0.1,0c0,0,0,0,0.1,0c0,0,0,0,0.1,0c0,0,0,0.1,0,0.1
			c0,0.1-0.1,0.3-0.1,0.4c0.1,0.8,0.2,1.5,0.3,2.3c0.1,1.7,0.1,3.3,0,4.9c-0.1,1.6-0.3,3.2-0.6,4.8c0,0,0,0.1,0,0.1
			c0,0.2-0.1,0.4-0.1,0.6c-0.1,0.7-0.3,1.5-0.7,2.2c-0.1,0.1-0.2,0.3-0.3,0.4c0,0,0,0.1-0.1,0.1c-0.1,0.2-0.2,0.4-0.4,0.6
			c-0.1,0.2-0.3,0.4-0.6,0.5c0,0,0,0,0,0c1.1-0.1,2.1-0.4,3.1-1c1-0.5,1.9-1.2,2.7-2.1c0.8-0.9,1.5-1.8,2-3c0.6-1.2,1-2.6,1-4.1
			c0-1.4-0.2-2.9-0.8-4.2c0,0,0-0.1,0-0.1c-0.2-0.6-0.5-1.1-0.8-1.6c0.4,0.3,0.8,0.6,1.2,0.9c0.6,0.4,1.1,0.9,1.6,1.5
			c0.2,0.3,0.5,0.6,0.7,0.9c0,0.1,0.1,0.2,0.1,0.3c0,0,0,0.1,0.1,0.1l0.1,0.1c0.1,0.2,0.1,0.4,0.2,0.6c0.5,1.6,0.7,3.5,0.5,5.2
			c-0.2,1.8-0.8,3.5-2,4.8c-0.6,0.7-1.2,1.3-2,1.8c-0.7,0.5-1.6,0.9-2.5,1.2c-1.8,0.6-3.7,0.9-5.5,0.9c-0.7,0-1.3,0-2-0.1
			c-0.3-0.1-0.6-0.2-0.9-0.3c-0.6-0.2-1.1-0.5-1.6-0.8c-0.2-0.1-0.4-0.2-0.6-0.4l-0.5-0.3c-1.2-0.8-2.3-1.8-3.1-2.9
			c-1-1.2-1.7-2.4-2.2-3.6c-0.5-1.2-0.8-2.3-0.9-3.3C48.5,79.8,48.6,78.8,48.8,78z"/>
		
			<linearGradient id="SVGID_21_" gradientUnits="userSpaceOnUse" x1="-367.7178" y1="79.3197" x2="-367.6038" y2="79.3197" gradientTransform="matrix(-1 0 0 1 -305.925 0)">
			<stop  offset="0" style="stop-color:#2B6BB4"/>
			<stop  offset="1" style="stop-color:#6F8EC8"/>
		</linearGradient>
		<path class="st30" d="M61.7,77.6c0.1,1.1,0.1,2.3,0.1,3.5l0-0.5c0-0.2,0-0.4,0-0.6C61.7,79.2,61.7,78.4,61.7,77.6
			C61.7,77.6,61.7,77.6,61.7,77.6z"/>
		
			<linearGradient id="SVGID_22_" gradientUnits="userSpaceOnUse" x1="-365.4098" y1="80.9237" x2="-364.6634" y2="80.9237" gradientTransform="matrix(-1 0 0 1 -305.925 0)">
			<stop  offset="0" style="stop-color:#2B6BB4"/>
			<stop  offset="1" style="stop-color:#6F8EC8"/>
		</linearGradient>
		<path class="st31" d="M58.8,79.9c0.1-0.8,0.2-1.7,0.3-2.5c0-0.2,0.1-0.4,0.1-0.6c0,0.1,0,0.3,0.1,0.4c0.2,1.3,0.2,2.5,0.2,3.8
			c0,1.3-0.2,2.6-0.4,3.9c-0.2-1-0.3-1.9-0.4-2.9c0-0.4,0-0.9,0-1.3C58.8,80.5,58.8,80.2,58.8,79.9z"/>
		<linearGradient id="SVGID_23_" gradientUnits="userSpaceOnUse" x1="51.6487" y1="81.3099" x2="58.6626" y2="81.3099">
			<stop  offset="0" style="stop-color:#EF537A"/>
			<stop  offset="1" style="stop-color:#4A3D97"/>
		</linearGradient>
		<path class="st32" d="M52.5,77.1c0.1-0.2,0.2-0.4,0.3-0.7c0.1-0.2,0.2-0.4,0.3-0.7c0.2-0.4,0.5-0.8,0.8-1.2
			c0.6-0.8,1.3-1.4,2.1-1.9c0.2-0.1,0.5-0.3,0.7-0.4c-0.1,0.3-0.2,0.6-0.2,1c-0.2,0.9-0.2,1.8-0.1,2.6c0,0.8,0.1,1.7,0.2,2.5
			c0,0.4,0.1,0.8,0,1.2c0,0.4,0,0.8,0,1.2c0,1.7,0.1,3.3,0.4,4.9c0.1,0.8,0.3,1.6,0.6,2.4c0.3,0.8,0.6,1.5,1.1,2.2
			c-0.3-0.1-0.7-0.1-1-0.2c-0.4-0.1-0.9-0.3-1.2-0.5c-0.4-0.2-0.7-0.4-1.1-0.7c-0.7-0.5-1.3-1.1-1.8-1.8c-1-1.3-1.5-2.7-1.7-3.9
			c-0.2-1.2-0.2-2.1-0.2-2.7C51.8,79.3,52.1,78.1,52.5,77.1z"/>
	</g>
</g>
</svg>
