<?xml version="1.0" encoding="utf-8"?>
<!-- Generator: Adobe Illustrator 21.0.0, SVG Export Plug-In . SVG Version: 6.00 Build 0)  -->
<svg version="1.1" id="Layer_1" xmlns="http://www.w3.org/2000/svg" xmlns:xlink="http://www.w3.org/1999/xlink" x="0px" y="0px"
	 viewBox="0 0 160 145" style="enable-background:new 0 0 160 145;" xml:space="preserve">
<style type="text/css">
	.st0{fill:#CB5990;}
	.st1{fill:#FFFFFF;}
	.st2{fill:#12B6BF;}
	.st3{fill:url(#SVGID_1_);}
	.st4{fill:#455BA8;}
	.st5{fill:#326EB6;}
	.st6{fill:#DD5968;}
	.st7{fill:#EF537A;}
	.st8{fill:url(#SVGID_2_);}
	.st9{fill:url(#SVGID_3_);}
	.st10{fill:url(#SVGID_4_);}
	.st11{fill:url(#SVGID_5_);}
	.st12{fill:#F16443;}
	.st13{fill:url(#SVGID_6_);}
	.st14{fill:#F68E3F;}
	.st15{fill:url(#SVGID_7_);}
	.st16{fill:url(#SVGID_8_);}
	.st17{fill:url(#SVGID_9_);}
	.st18{fill:url(#SVGID_10_);}
	.st19{fill:url(#SVGID_11_);}
	.st20{fill:url(#SVGID_12_);}
	.st21{fill:url(#SVGID_13_);}
	.st22{fill:url(#SVGID_14_);}
	.st23{fill:url(#SVGID_15_);}
	.st24{fill:url(#SVGID_16_);}
	.st25{fill:url(#SVGID_17_);}
	.st26{fill:#3DB66D;}
	.st27{fill:url(#SVGID_18_);}
	.st28{fill:url(#SVGID_19_);}
	.st29{fill:url(#SVGID_20_);}
	.st30{fill:url(#SVGID_21_);}
	.st31{fill:url(#SVGID_22_);}
	.st32{fill:url(#SVGID_23_);}
	.st33{fill:url(#SVGID_24_);}
	.st34{fill:url(#SVGID_25_);}
	.st35{fill:url(#SVGID_26_);}
	.st36{fill:url(#SVGID_27_);}
	.st37{fill:url(#SVGID_28_);}
	.st38{fill:url(#SVGID_29_);}
	.st39{fill:url(#SVGID_30_);}
	.st40{fill:url(#SVGID_31_);}
	.st41{fill:url(#SVGID_32_);}
	.st42{fill:url(#SVGID_33_);}
	.st43{fill:url(#SVGID_34_);}
	.st44{fill:url(#SVGID_35_);}
	.st45{fill:url(#SVGID_36_);}
	.st46{fill:url(#SVGID_37_);}
	.st47{fill:url(#SVGID_38_);}
	.st48{fill:url(#SVGID_39_);}
	.st49{fill:url(#SVGID_40_);}
	.st50{fill:url(#SVGID_41_);}
	.st51{fill:url(#SVGID_42_);}
	.st52{fill:url(#SVGID_43_);}
	.st53{fill:url(#SVGID_44_);}
	.st54{fill:url(#SVGID_45_);}
	.st55{fill:url(#SVGID_46_);}
	.st56{fill:url(#SVGID_47_);}
	.st57{fill:url(#SVGID_48_);}
	.st58{fill:url(#SVGID_49_);}
	.st59{fill:url(#SVGID_50_);}
	.st60{fill:url(#SVGID_51_);}
	.st61{fill:url(#SVGID_52_);}
	.st62{fill:url(#SVGID_53_);}
	.st63{fill:url(#SVGID_54_);}
	.st64{fill:url(#SVGID_55_);}
	.st65{fill:url(#SVGID_56_);}
	.st66{fill:url(#SVGID_57_);}
	.st67{fill:url(#SVGID_58_);}
	.st68{fill:url(#SVGID_59_);}
	.st69{fill:url(#SVGID_60_);}
	.st70{fill:url(#SVGID_61_);}
	.st71{fill:url(#SVGID_62_);}
	.st72{fill:url(#SVGID_63_);}
	.st73{fill:url(#SVGID_64_);}
	.st74{fill:url(#SVGID_65_);}
	.st75{fill:url(#SVGID_66_);}
	.st76{fill:url(#SVGID_67_);}
	.st77{fill:url(#SVGID_68_);}
	.st78{fill:url(#SVGID_69_);}
	.st79{fill:url(#SVGID_70_);}
	.st80{fill:url(#SVGID_71_);}
	.st81{fill:url(#SVGID_72_);}
	.st82{fill:url(#SVGID_73_);}
	.st83{fill:url(#SVGID_74_);}
	.st84{fill:url(#SVGID_75_);}
	.st85{fill:url(#SVGID_76_);}
	.st86{fill:url(#SVGID_77_);}
	.st87{fill:url(#SVGID_78_);}
	.st88{fill:url(#SVGID_79_);}
	.st89{fill:url(#SVGID_80_);}
	.st90{fill:url(#SVGID_81_);}
	.st91{fill:url(#SVGID_82_);}
	.st92{fill:url(#SVGID_83_);}
	.st93{fill:url(#SVGID_84_);}
	.st94{fill:url(#SVGID_85_);}
	.st95{fill:url(#SVGID_86_);}
	.st96{fill:url(#SVGID_87_);}
	.st97{fill:url(#SVGID_88_);}
	.st98{fill:url(#SVGID_89_);}
	.st99{fill:url(#SVGID_90_);}
	.st100{fill:url(#SVGID_91_);}
	.st101{fill:url(#SVGID_92_);}
	.st102{fill:url(#SVGID_93_);}
	.st103{fill:url(#SVGID_94_);}
	.st104{fill:url(#SVGID_95_);}
	.st105{fill:url(#SVGID_96_);}
	.st106{fill:url(#SVGID_97_);}
	.st107{fill:url(#SVGID_98_);}
	.st108{fill:url(#SVGID_99_);}
	.st109{fill:url(#SVGID_100_);}
	.st110{fill:url(#SVGID_101_);}
	.st111{fill:url(#SVGID_102_);}
	.st112{fill:url(#SVGID_103_);}
	.st113{fill:url(#SVGID_104_);}
	.st114{fill:url(#SVGID_105_);}
	.st115{fill:url(#SVGID_106_);}
	.st116{fill:url(#SVGID_107_);}
	.st117{fill:url(#SVGID_108_);}
	.st118{fill:url(#SVGID_109_);}
	.st119{fill:url(#SVGID_110_);}
	.st120{fill:url(#SVGID_111_);}
	.st121{fill:url(#SVGID_112_);}
	.st122{fill:url(#SVGID_113_);}
	.st123{fill:url(#SVGID_114_);}
	.st124{fill:url(#SVGID_115_);}
	.st125{fill:url(#SVGID_116_);}
	.st126{fill:url(#SVGID_117_);}
	.st127{fill:url(#SVGID_118_);}
	.st128{fill:url(#SVGID_119_);}
	.st129{fill:url(#SVGID_120_);}
	.st130{fill:url(#SVGID_121_);}
	.st131{fill:url(#SVGID_122_);}
	.st132{fill:url(#SVGID_123_);}
	.st133{fill:url(#SVGID_124_);}
	.st134{fill:url(#SVGID_125_);}
	.st135{fill:url(#SVGID_126_);}
	.st136{fill:url(#SVGID_127_);}
	.st137{fill:#184054;}
	.st138{fill:url(#SVGID_128_);}
	.st139{fill:url(#SVGID_129_);}
	.st140{fill:url(#SVGID_130_);}
	.st141{fill:url(#SVGID_131_);}
	.st142{fill:url(#SVGID_132_);}
	.st143{fill:url(#SVGID_133_);}
	.st144{fill:url(#SVGID_134_);}
	.st145{fill:url(#SVGID_135_);}
	.st146{fill:url(#SVGID_136_);}
	.st147{fill:url(#SVGID_137_);}
	.st148{fill:url(#SVGID_138_);}
	.st149{fill:url(#SVGID_139_);}
	.st150{fill:url(#SVGID_140_);}
	.st151{fill:url(#SVGID_141_);}
	.st152{fill:url(#SVGID_142_);}
	.st153{fill:url(#SVGID_143_);}
	.st154{fill:url(#SVGID_144_);}
	.st155{fill:url(#SVGID_145_);}
	.st156{fill:url(#SVGID_146_);}
	.st157{fill:url(#SVGID_147_);}
	.st158{fill:url(#SVGID_148_);}
	.st159{fill:url(#SVGID_149_);}
	.st160{fill:url(#SVGID_150_);}
	.st161{fill:url(#SVGID_151_);}
	.st162{fill:url(#SVGID_152_);}
	.st163{fill:url(#SVGID_153_);}
	.st164{fill:url(#SVGID_154_);}
	.st165{fill:url(#SVGID_155_);}
	.st166{fill:url(#SVGID_156_);}
	.st167{fill:url(#SVGID_157_);}
	.st168{fill:url(#SVGID_158_);}
	.st169{fill:url(#SVGID_159_);}
	.st170{fill:url(#SVGID_160_);}
	.st171{fill:url(#SVGID_161_);}
	.st172{fill:url(#SVGID_162_);}
	.st173{fill:url(#SVGID_163_);}
	.st174{fill:url(#SVGID_164_);}
	.st175{fill:url(#SVGID_165_);}
	.st176{fill:url(#SVGID_166_);}
	.st177{fill:url(#SVGID_167_);}
	.st178{fill:url(#SVGID_168_);}
	.st179{fill:url(#SVGID_169_);}
	.st180{fill:url(#SVGID_170_);}
	.st181{fill:url(#SVGID_171_);}
	.st182{fill:url(#SVGID_172_);}
	.st183{fill:url(#SVGID_173_);}
	.st184{fill:url(#SVGID_174_);}
	.st185{fill:url(#SVGID_175_);}
	.st186{fill:url(#SVGID_176_);}
	.st187{fill:url(#SVGID_177_);}
	.st188{fill:url(#SVGID_178_);}
	.st189{fill:url(#SVGID_179_);}
	.st190{fill:url(#SVGID_180_);}
	.st191{fill:url(#SVGID_181_);}
	.st192{fill:url(#SVGID_182_);}
	.st193{fill:url(#SVGID_183_);}
	.st194{fill:url(#SVGID_184_);}
	.st195{fill:url(#SVGID_185_);}
	.st196{fill:url(#SVGID_186_);}
	.st197{fill:url(#SVGID_187_);}
	.st198{fill:url(#SVGID_188_);}
	.st199{fill:url(#SVGID_189_);}
	.st200{fill:url(#SVGID_190_);}
	.st201{fill:url(#SVGID_191_);}
	.st202{fill:url(#SVGID_192_);}
	.st203{fill:url(#SVGID_193_);}
	.st204{fill:url(#SVGID_194_);}
	.st205{fill:url(#SVGID_195_);}
	.st206{fill:url(#SVGID_196_);}
	.st207{fill:url(#SVGID_197_);}
	.st208{fill:url(#SVGID_198_);}
	.st209{fill:url(#SVGID_199_);}
	.st210{fill:url(#SVGID_200_);}
	.st211{fill:url(#SVGID_201_);}
	.st212{fill:url(#SVGID_202_);}
	.st213{fill:url(#SVGID_203_);}
	.st214{fill:url(#SVGID_204_);}
	.st215{fill:url(#SVGID_205_);}
	.st216{fill:url(#SVGID_206_);}
	.st217{fill:url(#SVGID_207_);}
	.st218{fill:url(#SVGID_208_);}
	.st219{fill:#969697;}
	.st220{fill:url(#SVGID_209_);}
	.st221{fill:url(#SVGID_210_);}
	.st222{fill:url(#SVGID_211_);}
	.st223{fill:url(#SVGID_212_);}
	.st224{fill:url(#SVGID_213_);}
	.st225{fill:url(#SVGID_214_);}
	.st226{fill:url(#SVGID_215_);}
	.st227{fill:url(#SVGID_216_);}
	.st228{fill:url(#SVGID_217_);}
	.st229{fill:url(#SVGID_218_);}
	.st230{fill:url(#SVGID_219_);}
	.st231{fill:url(#SVGID_220_);}
	.st232{fill:url(#SVGID_221_);}
	.st233{fill:url(#SVGID_222_);}
	.st234{fill:url(#SVGID_223_);}
	.st235{fill:url(#SVGID_224_);}
	.st236{fill:url(#SVGID_225_);}
	.st237{fill:url(#SVGID_226_);}
	.st238{fill:url(#SVGID_227_);}
	.st239{fill:url(#SVGID_228_);}
	.st240{fill:url(#SVGID_229_);}
	.st241{fill:url(#SVGID_230_);}
	.st242{fill:url(#SVGID_231_);}
	.st243{fill:url(#SVGID_232_);}
	.st244{fill:url(#SVGID_233_);}
	.st245{fill:url(#SVGID_234_);}
	.st246{fill:url(#SVGID_235_);}
	.st247{fill:url(#SVGID_236_);}
	.st248{fill:url(#SVGID_237_);}
	.st249{fill:url(#SVGID_238_);}
	.st250{fill:url(#SVGID_239_);}
	.st251{fill:url(#SVGID_240_);}
	.st252{fill:url(#SVGID_241_);}
	.st253{fill:url(#SVGID_242_);}
	.st254{fill:url(#SVGID_243_);}
	.st255{fill:url(#SVGID_244_);}
	.st256{fill:url(#SVGID_245_);}
	.st257{fill:url(#SVGID_246_);}
	.st258{fill:url(#SVGID_247_);}
	.st259{fill:url(#SVGID_248_);}
	.st260{fill:url(#SVGID_249_);}
	.st261{fill:url(#SVGID_250_);}
	.st262{fill:url(#SVGID_251_);}
	.st263{fill:url(#SVGID_252_);}
	.st264{fill:url(#SVGID_253_);}
	.st265{fill:url(#SVGID_254_);}
	.st266{fill:url(#SVGID_255_);}
	.st267{fill:url(#SVGID_256_);}
	.st268{fill:url(#SVGID_257_);}
	.st269{fill:url(#SVGID_258_);}
	.st270{fill:url(#SVGID_259_);}
	.st271{fill:url(#SVGID_260_);}
	.st272{fill:url(#SVGID_261_);}
	.st273{fill:url(#SVGID_262_);}
	.st274{fill:url(#SVGID_263_);}
	.st275{fill:url(#SVGID_264_);}
	.st276{fill:url(#SVGID_265_);}
	.st277{fill:url(#SVGID_266_);}
	.st278{fill:url(#SVGID_267_);}
	.st279{fill:#F69474;}
	.st280{fill:#F27350;}
	.st281{fill:url(#SVGID_268_);}
	.st282{fill:url(#SVGID_269_);}
	.st283{fill:url(#SVGID_270_);}
	.st284{fill:url(#SVGID_271_);}
	.st285{fill:url(#SVGID_272_);}
	.st286{fill:url(#SVGID_273_);}
	.st287{fill:url(#SVGID_274_);}
	.st288{fill:url(#SVGID_275_);}
	.st289{fill:url(#SVGID_276_);}
	.st290{fill:url(#SVGID_277_);}
	.st291{fill:url(#SVGID_278_);}
	.st292{fill:url(#SVGID_279_);}
	.st293{fill:url(#SVGID_280_);}
	.st294{fill:url(#SVGID_281_);}
	.st295{fill:url(#SVGID_282_);}
	.st296{fill:url(#SVGID_283_);}
	.st297{fill:url(#SVGID_284_);}
	.st298{fill:url(#SVGID_285_);}
	.st299{fill:url(#SVGID_286_);}
	.st300{fill:url(#SVGID_287_);}
	.st301{fill:url(#SVGID_288_);}
	.st302{fill:url(#SVGID_289_);}
	.st303{fill:url(#SVGID_290_);}
	.st304{fill:url(#SVGID_291_);}
	.st305{fill:url(#SVGID_292_);}
	.st306{fill:url(#SVGID_293_);}
</style>
<g>
	<linearGradient id="SVGID_1_" gradientUnits="userSpaceOnUse" x1="18.2063" y1="71.9832" x2="141.7937" y2="71.9832">
		<stop  offset="0" style="stop-color:#2B6BB4"/>
		<stop  offset="1" style="stop-color:#6F8EC8"/>
	</linearGradient>
	<path class="st3" d="M141.7,101.3c-0.1-0.5-0.3-0.9-0.6-1.3c-0.2-0.4-0.5-0.7-0.8-0.9c-0.6-0.5-1.1-0.8-1.6-1.1c0,0,0,0,0,0
		c-0.7-0.3-1.4-0.5-1.9-0.6c0.1,0,0.2,0,0.2,0c0.1,0,0.3-0.1,0.5-0.1c0.3,0,0.6-0.2,0.9-0.4c0.5-0.2,1-0.5,1.5-0.9
		c0.4-0.4,0.8-0.9,1.1-1.5c0.3-0.6,0.4-1.2,0.4-1.9c0-0.7-0.2-1.3-0.6-1.9c-0.4-0.6-1-1-1.6-1.2c-0.5-0.1-1-0.2-1.5-0.1
		c0.3-0.3,0.5-0.6,0.8-0.9c0.6-0.7,1.1-1.6,1.3-2.6c0.1-0.5,0.2-1,0.2-1.6c0-0.5-0.1-1.1-0.3-1.7c-0.2-0.5-0.6-1-1.1-1.4
		c-0.5-0.3-1-0.5-1.5-0.6c-0.5-0.1-1-0.1-1.5,0c-0.5,0.1-1,0.2-1.4,0.4c-0.9,0.3-1.7,0.8-2.5,1.3c0,0,0,0,0,0
		c0.1-0.8,0.2-1.7,0.3-2.5c0.2-1.8,0.2-3.6,0.2-5.4c-0.1-3.6-0.6-7.2-1.4-10.8c-0.8-3.5-1.9-7-3-10.5c-1.2-3.5-2.5-6.9-3.8-10.3
		l-2-5.1l-1-2.6l-0.5-1.3l-0.2-0.6l-0.3-0.7c-0.7-1.7-1.3-3.4-2-5.2c-0.7-1.7-1.5-3.5-2.5-5.1c-0.5-0.8-1-1.7-1.8-2.5
		c-0.4-0.4-0.8-0.8-1.4-1.1c-0.3-0.2-0.6-0.3-1-0.4c-0.4-0.1-0.8-0.1-1.2,0c-0.4,0.1-0.7,0.3-1,0.5c-0.3,0.2-0.5,0.4-0.7,0.7
		c-0.4,0.5-0.7,0.9-0.9,1.4c-0.5,0.9-0.8,1.9-1.1,2.8c-0.6,1.9-0.9,3.8-1.1,5.7c-0.1,1-0.2,1.9-0.2,2.9c0,0.5,0,1,0,1.4v0.1
		c-1.8-0.2-3.6-0.3-5.4-0.4c-2.2-0.2-4.4-0.3-6.6-0.4c-4.4-0.2-8.8-0.3-13.2-0.2c-4.4,0.2-8.7,0.5-12.9,0.9c-4,0.4-7.9,0.8-11.7,1.3
		c0-0.2,0-0.3,0-0.5c0-0.5,0-0.9-0.1-1.4c-0.1-0.9-0.1-1.8-0.2-2.7c-0.2-1.8-0.5-3.5-1-5.3c-0.2-0.9-0.5-1.7-0.9-2.5
		c-0.2-0.4-0.4-0.8-0.6-1.2c-0.2-0.4-0.5-0.8-0.9-1.1c-0.2-0.2-0.4-0.3-0.6-0.5c-0.2-0.1-0.5-0.2-0.8-0.3c-0.3,0-0.6,0-0.8,0.1
		c-0.3,0.1-0.5,0.2-0.7,0.3c-0.4,0.3-0.8,0.6-1.1,0.9c-0.3,0.3-0.6,0.7-0.8,1c-0.8,1.2-1.5,2.4-2.1,3.7c-0.6,1.3-1.1,2.5-1.6,3.8
		c-0.5,1.3-1,2.6-1.5,3.9L41.1,34l-0.1,0.2L41,34.4l0,0.1l-0.4,1l-0.7,1.9c-2,5.1-4,10.2-5.9,15.5c-0.9,2.6-1.8,5.3-2.5,7.9
		c-0.4,1.3-0.7,2.7-1.1,4c-0.3,1.4-0.6,2.7-0.8,4.1c-0.4,2.8-0.6,5.6-0.6,8.4c0,1.4,0.1,2.8,0.2,4.2c0.1,0.7,0.2,1.4,0.3,2.1
		c0,0.2,0.1,0.4,0.1,0.5c-0.3-0.2-0.6-0.5-0.9-0.7c-0.7-0.5-1.5-1-2.3-1.3c-0.8-0.3-1.8-0.5-2.7-0.4c-0.5,0.1-1,0.2-1.4,0.5
		c-0.4,0.3-0.8,0.7-1.1,1.1c-0.3,0.5-0.4,1-0.4,1.5c0,0.5,0,1,0.1,1.5c0.2,1,0.7,1.8,1.2,2.6c0.3,0.4,0.6,0.8,0.9,1.1
		c0,0-0.1,0-0.1,0c-0.7-0.1-1.5,0-2.2,0.3c-0.3,0.2-0.7,0.4-0.9,0.7c-0.3,0.3-0.5,0.7-0.6,1c-0.3,0.8-0.3,1.6-0.1,2.3
		c0.2,0.8,0.5,1.5,1,2c0.5,0.6,1.1,1,1.7,1.3c0.1,0,0.1,0.1,0.2,0.1c-0.3,0.1-0.5,0.3-0.8,0.5c-0.8,0.5-1.5,1.1-2.1,2
		c-0.3,0.4-0.5,0.9-0.6,1.5c-0.1,0.5-0.1,1.1,0,1.6c0.1,0.5,0.4,1,0.7,1.4c0.1,0.1,0.1,0.2,0.2,0.3c0.1,0.1,0.2,0.2,0.3,0.3
		c0.2,0.2,0.4,0.4,0.6,0.5c0.4,0.3,0.9,0.4,1.4,0.5c0.5,0.1,0.9,0.1,1.4,0.2c0.9,0,1.8-0.1,2.7-0.2c0.9-0.1,1.8-0.3,2.6-0.6
		c0.8-0.2,1.5-0.4,2.2-0.7c3.1,3.5,6.6,6.5,10.4,9c2.5,1.6,6.6,3.5,10,4.9c0.1,0,0.1,0.1,0.2,0.1c0.4,0.3,0.8,0.6,1.3,0.8
		c0.5,0.2,1.1,0.4,1.7,0.6c0.6,0.2,1.2,0.3,1.7,0.5c0.6,0.2,1.3,0.4,2,0.7c0.3,0.1,0.8,0.2,1.5,0.4c0.6,0.2,1.4,0.3,2.4,0.6
		c0.5,0.1,1,0.2,1.5,0.3c0.3,0.1,0.5,0.1,0.8,0.2c0.3,0.1,0.5,0.1,0.8,0.2c0.6,0.1,1.2,0.3,1.8,0.5c0.7,0.1,1.4,0.2,2,0.3
		c0.7,0.1,1.4,0.1,2.1,0.2c0.7,0,1.4,0.1,2.1,0.3c0.7,0.1,1.5,0.3,2.3,0.3c0.8,0,1.6,0.1,2.3,0.1c0.8,0.1,1.6,0.1,2.4,0.2
		c0.8,0,1.7,0.1,2.6,0.1c1.7,0,3.4-0.1,5.2-0.3c1-0.1,1.9-0.3,2.8-0.5c0.9-0.1,1.8-0.2,2.7-0.2c0.5,0,0.9-0.1,1.4-0.2
		c0.5-0.1,0.9-0.3,1.3-0.4c0.8-0.3,1.6-0.7,2.4-0.8c0.8-0.2,1.6-0.3,2.5-0.4c0.8-0.2,1.6-0.5,2.4-0.7c0.7-0.3,1.4-0.6,2.1-0.8
		c0.7-0.3,1.4-0.5,2-0.8c0.6-0.3,1.2-0.5,1.7-0.7c0.5-0.2,1.1-0.4,1.6-0.5c0.5-0.2,1-0.4,1.5-0.6c0.4-0.2,0.8-0.4,1.1-0.6
		c0.4-0.2,0.7-0.4,0.9-0.6c2.1-1.1,4.3-2.3,5.9-3.3c2-1.2,3.8-2.6,5.6-4.2c1.7-1.5,3.2-3.3,4.4-5.3c1.1,0.4,2.2,0.7,3.3,1
		c1.2,0.3,2.4,0.5,3.6,0.5c0.6,0,1.2,0,1.8-0.1c0.6-0.1,1.2-0.3,1.7-0.8c0.1-0.1,0.2-0.2,0.4-0.3c0.1-0.1,0.1-0.1,0.2-0.2
		c0.1-0.1,0.1-0.1,0.1-0.2c0.2-0.3,0.3-0.6,0.5-0.9C141.8,102.7,141.9,102,141.7,101.3z"/>
	<path class="st26" d="M140.4,103.2c-0.1,0.1-0.2,0.2-0.2,0.3l-0.1,0.1l-0.1,0.1c0,0-0.1,0.1-0.1,0.1c-0.2,0.2-0.4,0.3-0.6,0.4
		c-0.5,0.2-1.1,0.3-1.7,0.3c-1.2,0-2.5-0.2-3.8-0.5c-0.6-0.1-1.3-0.3-1.9-0.5c-0.3-0.1-0.6-0.2-0.9-0.3c-0.3-0.1-0.6-0.2-0.9-0.3
		c-0.5-0.2-1,0-1.2,0.4l0,0c-1,1.6-2.3,3.1-3.7,4.4c-1.4,1.3-2.9,2.5-4.5,3.6c-2.9,2-6,3.6-9.3,4.9c-0.1,0-0.2,0.1-0.3,0.1
		c-0.4,0.2-0.8,0.3-1.4,0.5c-0.1,0-0.1,0-0.2,0.1c-0.4,0-0.8,0.1-0.9,0.1c-0.6,0-0.8,0.2-0.8,0.5c-0.6,0.2-1.1,0.5-1.6,0.7
		c-0.6,0.3-1.2,0.6-1.9,0.9c-0.7,0.3-1.4,0.6-2.1,0.9c-0.7,0.3-1.4,0.6-2.2,0.8c-0.8,0.2-1.6,0.3-2.5,0.5c-0.9,0.2-1.7,0.7-2.5,1
		c-0.4,0.2-0.8,0.3-1.2,0.4c-0.4,0.1-0.8,0.1-1.3,0.2c-0.9,0.1-1.8,0.1-2.8,0.2c-0.9,0.1-1.8,0.3-2.7,0.4c-1.7,0.1-3.3,0.1-4.9,0.1
		c-1.6-0.1-3.2-0.3-4.8-0.5c-0.8-0.1-1.6-0.2-2.3-0.3c-0.7-0.1-1.4-0.2-2.2-0.4c-0.7-0.2-1.5-0.3-2.2-0.4c-0.7-0.1-1.4-0.2-2-0.2
		c-0.3,0-0.6-0.1-0.9-0.1c-0.3-0.1-0.6-0.1-0.9-0.2c-0.6-0.1-1.1-0.3-1.7-0.5c-0.3-0.1-0.6-0.2-0.8-0.2c-0.1,0-0.3-0.1-0.4-0.1
		l-0.4-0.1c-0.5-0.1-1-0.2-1.4-0.3c-0.9-0.2-1.6-0.4-2.3-0.6c-0.6-0.2-1.1-0.3-1.4-0.4c-0.7-0.2-1.3-0.4-2-0.6
		c-0.7-0.2-1.3-0.3-1.9-0.4c-0.6-0.1-1.1-0.2-1.5-0.3c-0.4-0.1-0.9-0.3-1.3-0.4c-0.8-0.3-1.4-0.5-1.9-0.6c-0.3,0-0.5,0-0.6,0
		c-2.3-1.1-4.6-2.3-6.8-3.6c-4.1-2.6-7.8-5.7-11-9.4c-0.3-0.4-0.8-0.5-1.3-0.3c-0.2,0.1-0.4,0.1-0.6,0.2c-0.2,0.1-0.4,0.1-0.6,0.2
		c-0.4,0.1-0.8,0.3-1.2,0.4c-0.8,0.2-1.6,0.4-2.5,0.6c-0.8,0.1-1.6,0.2-2.4,0.2c-0.4,0-0.8,0-1.1-0.1c-0.3-0.1-0.7-0.2-0.9-0.3
		c-0.1-0.1-0.2-0.2-0.3-0.2c0,0,0-0.1-0.1-0.1c0,0,0-0.1-0.1-0.1c-0.1-0.1-0.1-0.1-0.2-0.2c-0.2-0.3-0.3-0.6-0.4-0.8
		c-0.1-0.3-0.1-0.5,0-0.8c0.1-0.3,0.2-0.6,0.4-0.8c0.4-0.6,0.9-1.1,1.6-1.5c0.7-0.4,1.4-0.7,2.1-1l0,0c0.6-0.2,0.9-0.8,0.8-1.4
		c-0.1-0.5-0.6-0.8-1-0.9c-0.5,0-1-0.1-1.5-0.3c-0.4-0.2-0.8-0.5-1.1-0.9c-0.3-0.4-0.5-0.8-0.6-1.3c-0.1-0.5-0.1-1,0-1.3
		c0.1-0.4,0.4-0.7,0.7-0.8c0.3-0.2,0.8-0.2,1.3-0.2c0.5,0.1,1,0.2,1.6,0.4c0.5,0.2,1.1,0.5,1.6,0.8l0.3-0.5c0,0,0,0,0,0
		c0.3,0.2,0.6,0.1,0.7-0.2c0.1-0.3,0.1-0.6-0.2-0.8c0,0,0,0,0,0l0.3-0.5c-1.4-0.8-2.6-1.8-3.5-3.1c-0.4-0.6-0.8-1.3-1-2
		c-0.2-0.7-0.1-1.3,0.1-1.8c0.1-0.2,0.3-0.4,0.5-0.5c0.2-0.1,0.5-0.2,0.8-0.3c0.6-0.1,1.3,0.1,2,0.3c0.7,0.3,1.4,0.7,2,1.1
		c0.7,0.5,1.3,1,1.9,1.5c0.4,0.4,1.1,0.4,1.4-0.1c0.2-0.2,0.3-0.5,0.3-0.7v0c0,0,0-0.1,0-0.1l0-0.1l0-0.1l0-0.1l0-0.1l0-0.2
		l-0.1-0.4c-0.1-0.3-0.1-0.5-0.1-0.8c-0.1-0.5-0.2-1.1-0.2-1.6c-0.1-1.1-0.2-2.2-0.3-3.3c-0.1-2.2,0-4.4,0.2-6.5
		c0.2-2.2,0.5-4.3,1-6.5c0.1-0.5,0.2-1.1,0.4-1.6c0.1-0.5,0.3-1.1,0.4-1.6c0.3-1.1,0.6-2.1,0.9-3.2c1.2-4.2,2.7-8.4,4.3-12.5
		l2.4-6.2l1.2-3.1l0.6-1.6l0.6-1.5c0.5-1.3,1-2.7,1.5-4c0.5-1.3,1-2.6,1.6-3.9c0.6-1.3,1.2-2.5,1.9-3.6c0.4-0.5,0.8-1.1,1.2-1.5
		c0.2-0.2,0.4-0.4,0.6-0.5c0.2-0.1,0.4-0.1,0.6-0.1c0.2,0,0.4,0.1,0.5,0.3c0.2,0.2,0.4,0.4,0.5,0.6c0.3,0.5,0.6,1.1,0.9,1.7
		c0.5,1.2,0.8,2.6,1.1,3.9c0.3,1.3,0.5,2.7,0.6,4.1c0.1,0.7,0.1,1.4,0.1,2.1c0,0.7,0.1,1.4,0,2.1v0c0,0.4,0.3,0.7,0.6,0.7
		c0,0,0.1,0,0.1,0c4.3-0.5,8.6-1,13-1.4c4.3-0.4,8.6-0.7,12.9-0.8c4.3-0.1,8.6,0,12.9,0.2c4.3,0.2,8.6,0.5,12.9,1
		c0.2,0,0.3-0.1,0.4-0.3c0,0,0,0,0,0c0-1.8,0.1-3.6,0.3-5.4c0.2-1.8,0.5-3.6,1-5.3c0.2-0.9,0.5-1.7,0.9-2.5c0.2-0.4,0.4-0.8,0.6-1.1
		c0.2-0.3,0.5-0.6,0.9-0.8c0.3-0.2,0.7-0.2,1.1-0.1c0.4,0.1,0.7,0.4,1,0.6c0.6,0.6,1.1,1.3,1.6,2c0.9,1.5,1.7,3.1,2.4,4.8
		c0.7,1.6,1.4,3.3,2,5l0.5,1.3l0.5,1.3l1,2.5l2,5c1.3,3.4,2.6,6.7,3.8,10.1c1.2,3.4,2.3,6.9,3.2,10.4c0.9,3.5,1.4,7.1,1.6,10.8
		c0.1,1.8,0.1,3.7-0.1,5.5c-0.1,0.9-0.2,1.8-0.3,2.7c-0.1,0.4-0.1,0.9-0.2,1.3c-0.3,0.2-0.5,0.4-0.8,0.7l0.6,0.3l0,0.2l0,0.2l0,0.1
		l0,0c0,0,0,0,0,0.1c0,0.1,0.1,0.2,0.2,0.2c0.1,0,0.1,0,0.1,0l0,0c0.1-0.1,0.3-0.3,0.4-0.4l0.5,0.2c0,0.1,0,0.1,0,0.1l0-0.1l0-0.2
		l0.1-0.3c0-0.1,0-0.2,0.1-0.4c0.3-0.2,0.6-0.5,0.9-0.7c0.7-0.5,1.4-0.9,2.2-1.2c0.8-0.3,1.6-0.5,2.4-0.4c0.4,0,0.8,0.2,1.1,0.4
		c0.3,0.2,0.6,0.5,0.8,0.8c0.2,0.3,0.3,0.8,0.3,1.2c0,0.4,0,0.8-0.1,1.2c-0.2,0.8-0.6,1.6-1.1,2.3c-0.6,0.8-1.3,1.5-2.1,2.1
		c-0.1,0-0.2,0.1-0.2,0.1c-0.6,0.2-1.1,0.5-1.7,0.8c-0.3,0.2-0.4,0.5-0.2,0.8c0.2,0.3,0.5,0.4,0.8,0.2l0,0c0.7-0.4,1.3-0.8,2-1.3
		c0.2-0.1,0.3-0.1,0.5-0.2c0.4-0.1,0.9-0.2,1.4-0.2c0.4,0,0.9,0.1,1.3,0.3c0.4,0.2,0.7,0.5,0.9,0.9c0.2,0.4,0.3,0.9,0.3,1.3
		c0,0.9-0.4,1.9-1,2.5c-0.6,0.7-1.3,1-1.8,1.2c-0.5,0.2-0.9,0.3-1.1,0.4c-0.2,0.1-0.9,0.4-0.6,0.5c0,0,0.1,0,0.2,0
		c0.1,0.1,0.2,0.2,0.3,0.2c0.1,0.1,0.3,0.2,0.6,0.4c0.3,0.2,0.7,0.4,1.3,0.7c0.5,0.3,1.1,0.8,1.7,1.5c0.4,0.5,0.6,1,0.7,1.5
		C140.8,102.2,140.7,102.7,140.4,103.2z"/>
	<path class="st5" d="M69.4,84.2c-0.4,0-0.8,0.7-0.8,1.6c0,0.9,0.4,1.7,0.8,1.7c0.4,0,0.8-0.7,0.8-1.6C70.2,85,69.8,84.2,69.4,84.2z
		"/>
	
		<ellipse transform="matrix(0.9979 -6.510675e-02 6.510675e-02 0.9979 -5.0925 4.5016)" class="st5" cx="66.5" cy="80.4" rx="0.8" ry="1.7"/>
	<path class="st5" d="M70.9,79.4c0,0.9,0.4,1.7,0.8,1.7c0.4,0,0.8-0.7,0.8-1.6c0-0.9-0.4-1.7-0.8-1.7C71.3,77.7,70.9,78.5,70.9,79.4
		z"/>
	<path class="st5" d="M77.7,79.4c0-0.9-0.4-1.7-0.8-1.7c-0.4,0-0.8,0.7-0.8,1.6c0,0.9,0.4,1.7,0.8,1.7
		C77.4,81.1,77.7,80.3,77.7,79.4z"/>
	<linearGradient id="SVGID_2_" gradientUnits="userSpaceOnUse" x1="74.1871" y1="85.5839" x2="75.7542" y2="85.5839">
		<stop  offset="0" style="stop-color:#F16870"/>
		<stop  offset="1" style="stop-color:#F49086"/>
	</linearGradient>
	<path class="st8" d="M75.8,85.6c0-0.9-0.4-1.7-0.8-1.7c-0.4,0-0.8,0.7-0.8,1.6c0,0.9,0.4,1.7,0.8,1.7
		C75.4,87.3,75.8,86.5,75.8,85.6z"/>
	<path class="st5" d="M94.5,85.6c0-0.9-0.3-1.7-0.8-1.7c-0.4,0-0.8,0.8-0.8,1.7c0,0.9,0.3,1.7,0.8,1.7
		C94.1,87.3,94.5,86.5,94.5,85.6z"/>
	
		<ellipse transform="matrix(6.351575e-02 -0.998 0.998 6.351575e-02 10.6341 171.3097)" class="st5" cx="96.6" cy="80" rx="1.7" ry="0.8"/>
	<linearGradient id="SVGID_3_" gradientUnits="userSpaceOnUse" x1="90.6166" y1="78.9857" x2="92.1837" y2="78.9857">
		<stop  offset="0" style="stop-color:#F05B42"/>
		<stop  offset="1" style="stop-color:#F9A54F"/>
	</linearGradient>
	<path class="st9" d="M92.2,79c0-0.9-0.3-1.7-0.8-1.7c-0.4,0-0.8,0.8-0.8,1.7c0,0.9,0.3,1.7,0.8,1.7C91.8,80.7,92.2,79.9,92.2,79z"
		/>
	<path class="st5" d="M86.2,77.3c-0.4,0-0.8,0.8-0.8,1.7c0,0.9,0.3,1.7,0.8,1.7c0.4,0,0.8-0.8,0.8-1.7C87,78,86.6,77.3,86.2,77.3z"
		/>
	<path class="st5" d="M88.1,87c0.4,0,0.8-0.8,0.8-1.7c0-0.9-0.3-1.7-0.8-1.7c-0.4,0-0.8,0.8-0.8,1.7C87.4,86.3,87.7,87,88.1,87z"/>
	<path class="st7" d="M115.4,30.1c-0.8-2.1-2.4-6-3.9-5.7c-2.2,0.5-3.7,13-1.9,13.3c1.4,0.3,0.9-2.9,1.5-4.2
		c0.3,0.6,0.4,3.2,1.3,3.6c1.3,0.5,1.2-2.4,1.3-3.5c0-0.2,1.2,4.6,2.3,4.4C118,37.8,116.3,32.3,115.4,30.1z"/>
	<path class="st7" d="M49.3,25.7c-1.4-0.3-2.8,3.3-3.5,5.2c-0.8,2-2.4,7-0.5,7.2c1,0.1,2.1-4.2,2.1-4c0.1,1,0,3.6,1.2,3.2
		c0.8-0.3,0.9-2.7,1.2-3.3c0.5,1.2,0,4.1,1.3,3.8C52.7,37.5,51.3,26.1,49.3,25.7z"/>
	<linearGradient id="SVGID_4_" gradientUnits="userSpaceOnUse" x1="58.0099" y1="55.8877" x2="71.8694" y2="55.8877">
		<stop  offset="0" style="stop-color:#EF537A"/>
		<stop  offset="1" style="stop-color:#4A3D97"/>
	</linearGradient>
	<path class="st10" d="M70.9,56.7c-0.4-1.1-0.9-2.2-1.5-3.2c-0.6-1-1.5-1.8-2.4-2.3c-0.5-0.3-1-0.4-1.5-0.4c-0.3,0-0.5,0-0.8,0
		c-0.1,0-0.3,0-0.4,0.1c-0.1,0-0.2,0.1-0.4,0.1c-0.8,0.3-1.6,0.7-2.4,1.2c-0.8,0.5-1.5,1.2-2,2.1c-1.1,1.6-1.8,3.8-1.3,6.1
		c0,0.1,0.2,0.1,0.2,0.1c0.6-1.9,1.5-3.7,2.6-5c0.6-0.7,1.2-1.3,1.9-1.7c0.3-0.2,0.7-0.4,1-0.5c0.2-0.1,0.4-0.1,0.5-0.1l0.1,0l0.1,0
		c0.1,0,0.2,0,0.3,0c0.7,0,1.4,0.3,2,0.9c0.6,0.6,1,1.4,1.4,2.2c0.4,0.9,0.7,1.9,0.9,3c0.1,0.7,0.1,1.3,0.8,1.7
		c0.3,0.2,0.8,0.1,1.1-0.1c0.4-0.2,0.7-0.5,0.6-0.8C71.6,58.9,71.3,57.8,70.9,56.7z"/>
	<linearGradient id="SVGID_5_" gradientUnits="userSpaceOnUse" x1="92.2595" y1="55.8877" x2="106.119" y2="55.8877">
		<stop  offset="0" style="stop-color:#EF537A"/>
		<stop  offset="1" style="stop-color:#4A3D97"/>
	</linearGradient>
	<path class="st11" d="M99.6,53.1l0.1,0c0.2,0,0.4,0.1,0.5,0.1c0.4,0.1,0.7,0.3,1,0.5c0.7,0.4,1.3,1,1.9,1.7c1.1,1.4,2,3.1,2.6,5
		c0,0.1,0.2,0,0.2-0.1c0.5-2.3-0.2-4.5-1.3-6.1c-0.6-0.8-1.3-1.5-2-2.1c-0.8-0.6-1.6-0.9-2.4-1.2c-0.1,0-0.2-0.1-0.4-0.1
		c-0.1,0-0.3-0.1-0.4-0.1c-0.3,0-0.5,0-0.8,0c-0.5,0-1.1,0.2-1.5,0.4c-1,0.5-1.8,1.3-2.4,2.3c-0.6,1-1.1,2.1-1.5,3.2
		s-0.7,2.2-0.9,3.4c-0.1,0.3,0.2,0.6,0.6,0.8c0.4,0.2,0.9,0.3,1.1,0.1c0.7-0.4,0.7-1.1,0.8-1.7c0.2-1.1,0.5-2.1,0.9-3
		c0.4-0.9,0.8-1.7,1.4-2.2c0.6-0.6,1.3-0.9,2-0.9c0.1,0,0.2,0,0.3,0L99.6,53.1z"/>
	<g>
		<path class="st7" d="M53.9,71.5c0.1-0.3,0.1-0.7,0.1-1c0,0,0,0,0,0c0-0.1,0-0.2,0-0.3c-0.2-0.3-0.5-0.5-0.7-0.8
			c-0.4-0.4-0.9-0.8-1.4-1.2c-0.1,0-0.2,0-0.3,0c-0.1,0-0.3,0.1-0.4,0.1c-0.2,0.1-0.5,0.2-0.7,0.3c-0.9,0.5-1.8,1.2-2.5,2
			c-0.9,0.9-1.7,2-2.4,3.1c0,0.1-0.1,0.1-0.1,0.2c-0.1,0.7-0.3,1.3-0.4,2c-0.4,1.8-0.9,3.6-1.5,5.4c0,0.1-0.1,0.2-0.1,0.3
			c-0.1,0.1-0.1,0.3-0.1,0.4c0,0.1-0.1,0.2-0.1,0.2c0.1,0.1,0.2,0.2,0.3,0.3c0.9,0.7,1.9,1.1,3,1.3c0.1,0,0.3,0.1,0.4,0.1
			c0-0.1,0.1-0.2,0.1-0.3c0.1-0.1,0.1-0.2,0.2-0.4c0.2-0.4,0.4-0.8,0.7-1.3c0.9-1.6,1.9-3.1,2.9-4.6c0.7-1,1.5-2,2.3-3
			C53.4,73.3,53.8,72.4,53.9,71.5z"/>
		<path class="st7" d="M55,72.3c0.1-0.1,0.1-0.1,0.2-0.2c0,0,0.1-0.1,0.1-0.1c-0.1-0.1-0.2-0.1-0.2-0.1l0,0
			c-0.1-0.1-0.3-0.5-0.6-0.9c-0.1,0.8-0.3,1.5-0.5,2.2c0.2-0.2,0.4-0.4,0.6-0.6C54.7,72.5,54.9,72.4,55,72.3z"/>
		<path class="st7" d="M47.8,83.1c-0.1,0.1-0.1,0.2-0.2,0.4c-0.1,0.1-0.1,0.2-0.1,0.3c0.2,0,0.4,0,0.6,0c0-0.1,0.1-0.2,0.1-0.2
			c0,0,0,0,0-0.1c0.1-0.1,0.1-0.3,0.2-0.4c0.5-0.8,1-1.6,1.4-2.5c0.8-1.4,1.6-2.9,2.3-4.3c-0.4,0.5-0.8,1.1-1.2,1.6
			c-1,1.4-1.9,2.9-2.8,4.4C48.1,82.5,47.9,82.8,47.8,83.1z"/>
		<path class="st7" d="M55.3,80c0.6-1.1,0.9-2.3,1-3.5c0.1-1.4-0.1-2.8-0.7-4c-0.1,0.1-0.2,0.1-0.3,0.2c-0.1,0.1-0.2,0.2-0.3,0.3
			c-0.3,0.3-0.6,0.6-0.9,0.9c-0.3,0.3-0.5,0.6-0.8,0.9c-0.3,0.6-0.5,1.2-0.8,1.8c-0.9,1.8-1.8,3.5-2.8,5.2L49,83.1l-0.2,0.4
			l-0.2,0.3c0.4,0,0.7-0.1,1.1-0.1c1.1-0.2,2.1-0.5,3.1-1.1C53.8,81.9,54.7,81.1,55.3,80z"/>
		<path class="st7" d="M55.3,71.8C55.3,71.8,55.3,71.8,55.3,71.8C55.3,71.8,55.3,71.8,55.3,71.8c0-0.1,0-0.1,0-0.1
			c-0.2-0.2-0.3-0.4-0.5-0.6c-0.1-0.1-0.2-0.2-0.3-0.3c0,0,0,0.1,0,0.1c0,0,0,0.1,0,0.1c0.1,0.1,0.2,0.2,0.3,0.3
			C55,71.4,55.1,71.6,55.3,71.8C55.3,71.8,55.3,71.8,55.3,71.8z"/>
		<path class="st7" d="M47.8,67.4c-0.6,0.1-1.2,0.3-1.8,0.6c0,0.1,0,0.1,0,0.2c0,0.2,0,0.3,0,0.5c0,0.5-0.1,1-0.1,1.5
			c-0.1,0.8-0.2,1.6-0.3,2.4c0.3-0.4,0.6-0.8,0.9-1.2c0.5-0.7,1.1-1.3,1.7-1.9c0.6-0.6,1.3-1.1,2.1-1.5c0,0,0,0,0,0
			c0.1-0.1,0.3-0.1,0.5-0.2c0.1,0,0.2-0.1,0.3-0.1c-0.1,0-0.2-0.1-0.3-0.1C49.8,67.2,48.8,67.2,47.8,67.4z"/>
		<path class="st7" d="M42.8,81.4c0.1-0.1,0.1-0.3,0.1-0.4c0,0,0-0.1,0-0.1c0.6-1.8,1.1-3.6,1.5-5.4c0-0.2,0.1-0.4,0.1-0.6
			c-0.4,0.7-0.9,1.5-1.3,2.2c-0.4,0.9-0.9,1.8-1.3,2.7C42.1,80,42,80.2,42,80.3c0,0.1-0.1,0.2-0.1,0.2c0.3,0.4,0.5,0.7,0.8,1.1
			C42.8,81.5,42.8,81.5,42.8,81.4z"/>
		<path class="st7" d="M42.9,70.7c-0.6,0.8-1.2,1.7-1.5,2.7c-0.2,0.5-0.3,1-0.4,1.5c-0.1,0.5-0.1,1.1-0.1,1.6c0,1.1,0.2,2.1,0.6,3.1
			c0.1,0.1,0.1,0.3,0.2,0.4c0-0.1,0.1-0.2,0.1-0.3c0.1-0.2,0.1-0.3,0.2-0.5c0.5-1.2,1.1-2.5,1.8-3.7c0.4-0.7,0.8-1.4,1.2-2
			c0.2-1.2,0.4-2.4,0.5-3.6c0-0.3,0.1-0.7,0.1-1c0-0.2,0-0.4,0-0.5c0-0.1,0-0.1,0-0.2c-0.2,0.1-0.3,0.2-0.5,0.3
			C44.2,69.1,43.5,69.9,42.9,70.7z"/>
		<path class="st7" d="M118.1,75.4c-0.4,0.5-0.8,1.1-1.2,1.6c-1,1.4-1.9,2.9-2.8,4.4c-0.2,0.4-0.4,0.7-0.6,1.1
			c-0.1,0.1-0.1,0.2-0.2,0.4c0,0.1-0.1,0.2-0.1,0.3c0.2,0,0.3,0.1,0.5,0.1c0.1-0.1,0.1-0.2,0.2-0.3c0-0.1,0.1-0.1,0.1-0.2
			c0-0.1,0.1-0.1,0.1-0.2c0.5-0.9,1.1-1.8,1.6-2.8C116.5,78.3,117.3,76.8,118.1,75.4z"/>
		<path class="st7" d="M111.4,69.1c0-0.1,0-0.2,0-0.3c0-0.2,0-0.4,0-0.6c0-0.1,0-0.1,0-0.2c-0.8,0.6-1.5,1.3-2.2,2.1
			c-0.6,0.8-1.2,1.7-1.5,2.7c-0.2,0.5-0.3,1-0.4,1.5c-0.1,0.5-0.1,1.1-0.1,1.6c0,0.9,0.1,1.9,0.5,2.8c0-0.1,0.1-0.2,0.1-0.3
			c0.1-0.2,0.2-0.4,0.2-0.5c0.5-1.1,1-2.1,1.6-3.1c0.4-0.7,0.8-1.4,1.2-2C111.1,71.5,111.2,70.3,111.4,69.1z"/>
		<path class="st7" d="M108.2,78.5c-0.1,0.2-0.1,0.3-0.2,0.5c0,0.1-0.1,0.2-0.1,0.3c0.2,0.4,0.5,0.9,0.8,1.2c0-0.1,0.1-0.2,0.1-0.2
			c0-0.1,0.1-0.2,0.1-0.3c0,0,0-0.1,0-0.1c0.6-1.7,1.1-3.5,1.5-5.3c0-0.2,0.1-0.4,0.1-0.6c-0.4,0.7-0.9,1.5-1.3,2.2
			C108.9,77,108.6,77.8,108.2,78.5z"/>
		<path class="st7" d="M116.1,83.1c1.1-0.2,2.1-0.6,3.1-1.1c1-0.6,1.9-1.5,2.5-2.5c0.6-1.1,0.9-2.3,1-3.5c0.1-1.5-0.1-3-0.7-4.2
			c-0.1-0.1-0.1-0.2-0.2-0.3c-0.1,0-0.1,0.1-0.2,0.1c-0.1,0.1-0.1,0.1-0.2,0.2c-0.5,0.4-0.9,0.8-1.3,1.2c-0.3,0.3-0.5,0.6-0.8,0.8
			c-0.3,0.6-0.5,1.2-0.8,1.8c-0.9,1.8-1.8,3.5-2.8,5.2l-1,1.7l-0.2,0.4l-0.2,0.3C114.9,83.2,115.5,83.2,116.1,83.1z"/>
		<path class="st7" d="M112.8,82.7c0.1-0.1,0.1-0.2,0.2-0.4c0.3-0.5,0.5-1,0.8-1.5c0.9-1.6,1.9-3.1,2.9-4.6c0.7-1,1.5-2,2.3-3
			c0.4-0.9,0.7-1.8,0.9-2.8c0.1-0.4,0.1-0.8,0.1-1.2c0,0,0-0.1,0-0.1c0-0.1,0-0.2,0-0.3c0,0,0,0,0-0.1c-0.1-0.1-0.1-0.1-0.2-0.2
			c-0.6-0.6-1.3-1.1-2-1.5c-0.1,0-0.2,0-0.3,0c-0.2,0-0.4,0.1-0.5,0.1c-0.2,0.1-0.3,0.1-0.5,0.2c-0.9,0.5-1.8,1.2-2.5,2
			c-0.9,0.9-1.7,2-2.4,3.1c0,0-0.1,0.1-0.1,0.2c-0.1,0.7-0.3,1.3-0.4,2c-0.4,1.8-0.9,3.6-1.5,5.4c0,0,0,0.1,0,0.1
			c0,0.1-0.1,0.3-0.1,0.4c0,0.1-0.1,0.2-0.1,0.2c0.2,0.3,0.5,0.5,0.8,0.7c0.8,0.6,1.8,1,2.8,1.3C112.7,82.9,112.8,82.8,112.8,82.7z"
			/>
		<path class="st7" d="M114.2,66.7c-0.8,0.2-1.6,0.5-2.3,0.9c0,0.1,0,0.1,0,0.2c0,0.2,0,0.4,0,0.6c0,0.3,0,0.6-0.1,0.9
			c-0.1,0.8-0.2,1.6-0.3,2.4c0.3-0.4,0.6-0.8,0.9-1.2c0.5-0.7,1.1-1.3,1.7-1.9c0.6-0.5,1.1-1,1.8-1.3c0.1-0.1,0.2-0.1,0.3-0.2
			c0.1,0,0.2-0.1,0.3-0.1c0.1,0,0.2-0.1,0.3-0.1C116,66.6,115.1,66.6,114.2,66.7z"/>
		<path class="st7" d="M121.2,70.6c0.1,0.1,0.2,0.2,0.2,0.3c0,0,0.1,0,0.1-0.1c-0.1-0.2-0.2-0.3-0.3-0.4c-0.2-0.2-0.3-0.4-0.5-0.6
			c-0.1-0.1-0.2-0.2-0.3-0.3c0,0.1,0,0.2,0,0.3c0,0,0,0,0,0c0,0,0,0,0,0.1c-0.1,0.8-0.3,1.7-0.5,2.4c0.2-0.2,0.4-0.4,0.6-0.6
			c0.3-0.3,0.6-0.5,0.9-0.8c-0.2-0.3-0.5-0.6-0.8-1c0.1,0.1,0.1,0.1,0.2,0.2C120.9,70.3,121.1,70.5,121.2,70.6z"/>
	</g>
	<linearGradient id="SVGID_6_" gradientUnits="userSpaceOnUse" x1="64.1926" y1="78.5065" x2="99.3378" y2="78.5065">
		<stop  offset="0" style="stop-color:#EF537A"/>
		<stop  offset="1" style="stop-color:#4A3D97"/>
	</linearGradient>
	<path class="st13" d="M64.8,90c0.6,1.4,1.7,2.7,3,3.6c0.7,0.5,1.4,0.8,2.2,1.1c0.8,0.2,1.6,0.4,2.4,0.3c0.4,0,0.8-0.1,1.2-0.1
		c0.2,0,0.4-0.1,0.6-0.1l0,0l0,0l0,0h0l0.1,0l0.1,0l0.3-0.1c0.7-0.2,1.3-0.5,1.9-0.8c0.8-0.4,1.6-1,2.3-1.7c0.7-0.7,1.2-1.4,1.7-2.3
		c0.4-0.8,0.8-1.7,1-2.6c0.2,0.6,0.4,1.2,0.7,1.7c0.4,0.9,0.9,1.7,1.6,2.5c0.6,0.8,1.4,1.4,2.2,1.9c0.7,0.4,1.4,0.7,2.2,0.9
		c0.4,0.1,0.7,0.2,1.1,0.2c0.2,0,0.4,0,0.6,0.1c0.2,0,0.4,0,0.6,0c0.8,0,1.5-0.2,2.2-0.4c0.7-0.3,1.3-0.6,1.9-1
		c1.2-0.8,2.2-1.9,3-3.1c0.8-1.2,1.5-2.6,1.8-4.2c0-0.1,0-0.2,0-0.2c0-0.1-0.1-0.1-0.1-0.1c-0.1,0-0.3,0-0.3,0.1
		c-0.7,1.1-1.3,2.1-2.1,3.1c-0.7,1-1.6,1.9-2.5,2.7c-0.9,0.8-2,1.4-3.2,1.6c-0.3,0.1-0.6,0.1-0.9,0.1c-0.1,0-0.3,0-0.4,0h0v0
		c0,0,0,0,0,0h0l0,0l-0.1,0l-0.1,0l-0.2,0c-0.6-0.1-1.2-0.2-1.7-0.5c-0.7-0.3-1.4-0.8-2-1.3c-0.6-0.6-1.1-1.2-1.5-2
		c-0.8-1.5-1.3-3.2-1.6-5c-0.1-0.9-0.2-1.8-0.2-2.7l0-1.4l0-1.4c0-1.4-0.1-2.8-0.2-4.3c0.3-0.3,0.6-0.5,0.9-0.8
		c0.3-0.3,0.6-0.7,0.9-1c0.6-0.7,1.1-1.4,1.6-2.2c0.5-0.8,1-1.6,1.4-2.4c0.2-0.4,0.4-0.9,0.5-1.3c0.2-0.5,0.3-0.9,0.3-1.5
		c0-0.5,0-1-0.1-1.5c0-0.3-0.1-0.5-0.2-0.8c-0.1-0.3-0.2-0.5-0.4-0.7c-0.2-0.2-0.5-0.4-0.7-0.5c-0.3-0.1-0.6-0.1-0.8,0
		c-0.5,0.1-1,0.3-1.3,0.6c-0.8,0.6-1.3,1.3-1.8,2.2c-0.3,0.5-0.5,1-0.6,1.6c0-0.3-0.1-0.5-0.2-0.8c-0.3-0.8-0.7-1.5-1.3-2.1
		c-0.3-0.3-0.7-0.6-1.1-0.8c-0.2-0.1-0.5-0.2-0.8-0.3c-0.3-0.1-0.6-0.1-1,0c-0.4,0.1-0.8,0.3-1.1,0.6c-0.3,0.3-0.5,0.7-0.6,1
		c-0.1,0.3-0.2,0.6-0.2,0.9c0,0.3,0,0.5,0,0.8c0,0.3,0,0.5,0.1,0.7c0,0.1,0,0.2,0.1,0.3l0.1,0.3c0.1,0.5,0.3,0.9,0.5,1.3
		c0.4,0.8,0.8,1.5,1.3,2.2c1,1.3,2,2.4,2.9,3.3c0.2,0.2,0.4,0.5,0.7,0.7c-0.2,1.3-0.3,2.5-0.3,3.8c0,0.8,0,1.7,0,2.5l0,0.6l0,0.2
		v0.1v0V82c0,0.4,0,0.8,0,1.2c-0.1,1.7-0.4,3.4-1,4.9C78.9,89.7,78,91,76.7,92c-0.5,0.4-1.1,0.7-1.7,1c-0.3,0.1-0.6,0.2-0.9,0.3
		c-0.2,0.1-0.3,0.1-0.5,0.1c-0.2,0-0.3,0.1-0.5,0.1c-1.3,0.2-2.6-0.1-3.8-0.8c-1.2-0.6-2.3-1.6-3-2.8c-0.8-1.2-1.3-2.6-1.3-4.1
		c0-0.1,0-0.1-0.1-0.2c0,0-0.1-0.1-0.2-0.1c-0.1,0-0.3,0-0.3,0.2c-0.2,0.6-0.3,1.4-0.3,2.1C64.3,88.5,64.5,89.3,64.8,90z"/>
	<linearGradient id="SVGID_7_" gradientUnits="userSpaceOnUse" x1="81.4698" y1="68.0547" x2="81.4792" y2="68.0547">
		<stop  offset="0" style="stop-color:#EF537A"/>
		<stop  offset="1" style="stop-color:#4A3D97"/>
	</linearGradient>
	<path class="st15" d="M81.5,68C81.5,68,81.5,68.1,81.5,68C81.5,68.1,81.5,68,81.5,68C81.5,68,81.5,68,81.5,68z"/>
	<path class="st1" d="M78.2,69.4c-0.6-0.6-1.1-1.4-1.5-2.2C76,65.6,76,64,76.7,64c0.1,0,0.2,0,0.2,0c0.1,0,0.1,0,0.2,0.1
		c0.7,0.4,0,2.3,1.4,5.6C78.4,69.6,78.3,69.5,78.2,69.4z"/>
	<g>
		<linearGradient id="SVGID_8_" gradientUnits="userSpaceOnUse" x1="81.8914" y1="109.2658" x2="110.2572" y2="109.2658">
			<stop  offset="0" style="stop-color:#EF537A"/>
			<stop  offset="1" style="stop-color:#4A3D97"/>
		</linearGradient>
		<path class="st16" d="M110.2,114.8c0-0.5,0-0.9,0-1.4c0-0.7,0-1.5-0.1-2.2c-0.1-2.7-0.2-5.3-0.5-7.9c-0.1-0.7-0.1-1.3-0.2-2
			c-0.1-0.4-0.1-0.9-0.2-1.3c-1,0.1-2,0.3-3,0.6c-1.2,0.3-2.4,0.8-3.7,1.2c-2.4,0.9-4.9,2-7.3,3.1c-2.4,1.1-4.8,2.2-7.1,3.2
			c-1.1,0.5-2.3,1-3.3,1.4l-1.6,0.7c-0.4,0.2-0.9,0.3-1.3,0.5c0,0,0,0.1,0,0.2c0,0.1,0.1,0.1,0.1,0.2c0,0,0,0,0,0l0,0c0,0,0,0,0,0.1
			c0,0,0.1,0,0.1,0c0,0,0,0,0,0l0,0c0,0,0,0,0,0c0.1,0,0.2,0,0.3,0c0.2,0,0.5,0.1,0.7,0.1c0.6,0.1,1.1,0.3,1.7,0.4
			c1.1,0.3,2.2,0.6,3.3,1c0.6,0.2,1.3,0.4,1.9,0.6c2.3,0.7,4.6,1.3,6.8,2c1.4,0.4,2.9,0.8,4.3,1.2c0.9,0.2,1.7,0.5,2.6,0.7
			c0.1,0,0.1,0,0.2,0c0.2,0.1,0.4,0.1,0.6,0.2c1,0.3,2,0.5,3,0.8c0.6,0.1,1.2,0.3,1.8,0.4c0.3,0.1,0.6,0.1,0.9,0.1
			c0.1,0,0.2,0,0.3,0c0-1.1,0-2.3,0-3.4C110.2,115.1,110.2,114.9,110.2,114.8z"/>
		<linearGradient id="SVGID_9_" gradientUnits="userSpaceOnUse" x1="81.8725" y1="118.913" x2="106.9125" y2="118.913">
			<stop  offset="0" style="stop-color:#EF537A"/>
			<stop  offset="1" style="stop-color:#4A3D97"/>
		</linearGradient>
		<path class="st17" d="M106.2,119.5c-1.4-0.5-2.8-1.1-4.3-1.6c-0.2-0.1-0.4-0.2-0.7-0.2c-0.8-0.3-1.5-0.6-2.3-0.8
			c-1.7-0.6-3.4-1.2-5.1-1.8c-2.3-0.8-4.5-1.6-6.7-2.3c-1.1-0.4-2.1-0.7-3.1-1c-0.5-0.1-1-0.3-1.5-0.4l0,0c0,0,0,0,0,0c0,0,0,0,0,0
			c0,0,0,0,0,0c0,0,0,0,0,0c0,0,0,0,0,0c0,0,0,0-0.1,0c0,0-0.1,0.1-0.1,0.1c-0.1,0.1-0.2,0.2-0.4,0.3c0,0,0.1,0.1,0.1,0.1
			c3.2,2,6.5,4.1,9.8,6.2c0.6,0.4,1.2,0.8,1.8,1.1c0.1,0.1,0.2,0.1,0.2,0.2c0.1,0.1,0.2,0.1,0.3,0.2c1.9,1.2,3.9,2.4,5.8,3.6
			c1,0.6,2.1,1.2,3.1,1.8c0.5,0.3,1,0.6,1.6,0.9c0.3,0.1,0.5,0.3,0.8,0.4c0.1,0.1,0.3,0.1,0.4,0.2c0.1,0,0.1,0,0.2,0.1
			c0,0,0,0,0.1,0c0.4-1.1,0.6-2.2,0.7-3.3c0.1-1.1,0.1-2.3-0.1-3.4C106.5,119.7,106.3,119.6,106.2,119.5z"/>
		<linearGradient id="SVGID_10_" gradientUnits="userSpaceOnUse" x1="53.5786" y1="108.9988" x2="80.7303" y2="108.9988">
			<stop  offset="0" style="stop-color:#EF537A"/>
			<stop  offset="1" style="stop-color:#4A3D97"/>
		</linearGradient>
		<path class="st18" d="M57,117.3c0.8-0.2,1.6-0.4,2.4-0.7c0.7-0.2,1.3-0.4,2-0.6c3.2-1,6.5-2,9.8-3c3.2-0.9,6.4-1.8,9.6-2.5
			c-0.3-0.3-0.7-0.5-1-0.7c-0.5-0.4-1.1-0.7-1.6-1c-1.1-0.7-2.2-1.3-3.3-1.9c-2.2-1.2-4.5-2.3-6.8-3.2c-2.3-1-4.7-1.8-7.1-2.5
			c-1.2-0.3-2.4-0.6-3.6-0.9c-0.6-0.1-1.2-0.2-1.8-0.3c-0.4,0-0.9-0.1-1.3-0.1c-0.1,0.8-0.2,1.7-0.3,2.6c-0.1,1.1-0.1,2.1-0.2,3.2
			c-0.1,2.2-0.1,4.5-0.1,6.7c0,0.7,0,1.5,0,2.2c0,0.5,0,0.9,0,1.4c0,0.2,0,0.4,0,0.5c0,0.5,0,0.9,0,1.4c0.3-0.1,0.7-0.1,1.1-0.2
			c0.5-0.1,0.9-0.2,1.4-0.3C56.3,117.4,56.6,117.3,57,117.3C56.9,117.3,56.9,117.3,57,117.3z"/>
		<linearGradient id="SVGID_11_" gradientUnits="userSpaceOnUse" x1="56.4794" y1="118.4463" x2="82.3111" y2="118.4463">
			<stop  offset="0" style="stop-color:#EF537A"/>
			<stop  offset="1" style="stop-color:#4A3D97"/>
		</linearGradient>
		<path class="st19" d="M81.2,111.9c0.1-0.1,0.2-0.1,0.3-0.2c0,0,0,0,0,0c0,0,0,0,0,0c0.1,0,0.2-0.1,0.3-0.2
			c0.1-0.1,0.2-0.1,0.3-0.2c0,0,0.2-1,0.2-1c-0.3,0-0.5-0.1-1.1,0.7c0,0-0.4,0.3-0.5,0.3c-0.1,0-0.1,0-0.2,0c-0.1,0-0.1,0-0.2,0
			c-0.6,0.1-1.1,0.2-1.7,0.4c-1.1,0.3-2.2,0.6-3.3,0.9c-2.1,0.7-4.3,1.4-6.4,2.2c-0.4,0.1-0.7,0.3-1.1,0.4c-1.7,0.7-3.5,1.3-5.2,2
			c-0.2,0.1-0.3,0.1-0.5,0.2c-0.6,0.2-1.1,0.5-1.7,0.7c-0.3,0.1-0.5,0.2-0.8,0.3c-1.1,0.4-2.1,0.9-3.2,1.3c-0.1,0.6-0.2,1.2-0.2,1.7
			c0,0.9,0.1,1.7,0.2,2.6c0.1,0.4,0.2,0.8,0.3,1.3c0.1,0.3,0.2,0.7,0.3,1c0,0,0,0,0.1,0c0.1,0,0.2-0.1,0.3-0.1
			c0.2-0.1,0.5-0.2,0.7-0.3c0.5-0.2,0.9-0.5,1.4-0.8c0.9-0.5,1.8-1.1,2.8-1.6c1.8-1.1,3.6-2.2,5.4-3.4c0,0,0.1,0,0.1-0.1
			c0.2-0.1,0.4-0.3,0.6-0.4c0.6-0.4,1.2-0.8,1.8-1.2C74.1,116.3,77.7,114,81.2,111.9z"/>
	</g>
</g>
</svg>
