<?xml version="1.0" encoding="utf-8"?>
<!-- Generator: Adobe Illustrator 21.0.0, SVG Export Plug-In . SVG Version: 6.00 Build 0)  -->
<svg version="1.1" id="Layer_1" xmlns="http://www.w3.org/2000/svg" xmlns:xlink="http://www.w3.org/1999/xlink" x="0px" y="0px"
	 viewBox="0 0 160 145" style="enable-background:new 0 0 160 145;" xml:space="preserve">
<style type="text/css">
	.st0{fill:#CB5990;}
	.st1{fill:#FFFFFF;}
	.st2{fill:#12B6BF;}
	.st3{fill:url(#SVGID_1_);}
	.st4{fill:#455BA8;}
	.st5{fill:#326EB6;}
	.st6{fill:#DD5968;}
	.st7{fill:#EF537A;}
	.st8{fill:url(#SVGID_2_);}
	.st9{fill:url(#SVGID_3_);}
	.st10{fill:url(#SVGID_4_);}
	.st11{fill:url(#SVGID_5_);}
	.st12{fill:#F16443;}
	.st13{fill:url(#SVGID_6_);}
	.st14{fill:#F68E3F;}
	.st15{fill:url(#SVGID_7_);}
	.st16{fill:url(#SVGID_8_);}
	.st17{fill:url(#SVGID_9_);}
	.st18{fill:url(#SVGID_10_);}
	.st19{fill:url(#SVGID_11_);}
	.st20{fill:url(#SVGID_12_);}
	.st21{fill:url(#SVGID_13_);}
	.st22{fill:url(#SVGID_14_);}
	.st23{fill:url(#SVGID_15_);}
	.st24{fill:url(#SVGID_16_);}
	.st25{fill:url(#SVGID_17_);}
	.st26{fill:#3DB66D;}
	.st27{fill:url(#SVGID_18_);}
	.st28{fill:url(#SVGID_19_);}
	.st29{fill:url(#SVGID_20_);}
	.st30{fill:url(#SVGID_21_);}
	.st31{fill:url(#SVGID_22_);}
	.st32{fill:url(#SVGID_23_);}
	.st33{fill:url(#SVGID_24_);}
	.st34{fill:url(#SVGID_25_);}
	.st35{fill:url(#SVGID_26_);}
	.st36{fill:url(#SVGID_27_);}
	.st37{fill:url(#SVGID_28_);}
	.st38{fill:url(#SVGID_29_);}
	.st39{fill:url(#SVGID_30_);}
	.st40{fill:url(#SVGID_31_);}
	.st41{fill:url(#SVGID_32_);}
	.st42{fill:url(#SVGID_33_);}
	.st43{fill:url(#SVGID_34_);}
	.st44{fill:url(#SVGID_35_);}
	.st45{fill:url(#SVGID_36_);}
	.st46{fill:url(#SVGID_37_);}
	.st47{fill:url(#SVGID_38_);}
	.st48{fill:url(#SVGID_39_);}
	.st49{fill:url(#SVGID_40_);}
	.st50{fill:url(#SVGID_41_);}
	.st51{fill:url(#SVGID_42_);}
	.st52{fill:url(#SVGID_43_);}
	.st53{fill:url(#SVGID_44_);}
	.st54{fill:url(#SVGID_45_);}
	.st55{fill:url(#SVGID_46_);}
	.st56{fill:url(#SVGID_47_);}
	.st57{fill:url(#SVGID_48_);}
	.st58{fill:url(#SVGID_49_);}
	.st59{fill:url(#SVGID_50_);}
	.st60{fill:url(#SVGID_51_);}
	.st61{fill:url(#SVGID_52_);}
	.st62{fill:url(#SVGID_53_);}
	.st63{fill:url(#SVGID_54_);}
	.st64{fill:url(#SVGID_55_);}
	.st65{fill:url(#SVGID_56_);}
	.st66{fill:url(#SVGID_57_);}
	.st67{fill:url(#SVGID_58_);}
	.st68{fill:url(#SVGID_59_);}
	.st69{fill:url(#SVGID_60_);}
	.st70{fill:url(#SVGID_61_);}
	.st71{fill:url(#SVGID_62_);}
	.st72{fill:url(#SVGID_63_);}
	.st73{fill:url(#SVGID_64_);}
	.st74{fill:url(#SVGID_65_);}
	.st75{fill:url(#SVGID_66_);}
	.st76{fill:url(#SVGID_67_);}
	.st77{fill:url(#SVGID_68_);}
	.st78{fill:url(#SVGID_69_);}
	.st79{fill:url(#SVGID_70_);}
	.st80{fill:url(#SVGID_71_);}
	.st81{fill:url(#SVGID_72_);}
	.st82{fill:url(#SVGID_73_);}
	.st83{fill:url(#SVGID_74_);}
	.st84{fill:url(#SVGID_75_);}
	.st85{fill:url(#SVGID_76_);}
	.st86{fill:url(#SVGID_77_);}
	.st87{fill:url(#SVGID_78_);}
	.st88{fill:url(#SVGID_79_);}
	.st89{fill:url(#SVGID_80_);}
	.st90{fill:url(#SVGID_81_);}
	.st91{fill:url(#SVGID_82_);}
	.st92{fill:url(#SVGID_83_);}
	.st93{fill:url(#SVGID_84_);}
	.st94{fill:url(#SVGID_85_);}
	.st95{fill:url(#SVGID_86_);}
	.st96{fill:url(#SVGID_87_);}
	.st97{fill:url(#SVGID_88_);}
	.st98{fill:url(#SVGID_89_);}
	.st99{fill:url(#SVGID_90_);}
	.st100{fill:url(#SVGID_91_);}
	.st101{fill:url(#SVGID_92_);}
	.st102{fill:url(#SVGID_93_);}
	.st103{fill:url(#SVGID_94_);}
	.st104{fill:url(#SVGID_95_);}
	.st105{fill:url(#SVGID_96_);}
	.st106{fill:url(#SVGID_97_);}
	.st107{fill:url(#SVGID_98_);}
	.st108{fill:url(#SVGID_99_);}
	.st109{fill:url(#SVGID_100_);}
	.st110{fill:url(#SVGID_101_);}
	.st111{fill:url(#SVGID_102_);}
	.st112{fill:url(#SVGID_103_);}
	.st113{fill:url(#SVGID_104_);}
	.st114{fill:url(#SVGID_105_);}
	.st115{fill:url(#SVGID_106_);}
	.st116{fill:url(#SVGID_107_);}
	.st117{fill:url(#SVGID_108_);}
	.st118{fill:url(#SVGID_109_);}
	.st119{fill:url(#SVGID_110_);}
	.st120{fill:url(#SVGID_111_);}
	.st121{fill:url(#SVGID_112_);}
	.st122{fill:url(#SVGID_113_);}
	.st123{fill:url(#SVGID_114_);}
	.st124{fill:url(#SVGID_115_);}
	.st125{fill:url(#SVGID_116_);}
	.st126{fill:url(#SVGID_117_);}
	.st127{fill:url(#SVGID_118_);}
	.st128{fill:url(#SVGID_119_);}
	.st129{fill:url(#SVGID_120_);}
	.st130{fill:url(#SVGID_121_);}
	.st131{fill:url(#SVGID_122_);}
	.st132{fill:url(#SVGID_123_);}
	.st133{fill:url(#SVGID_124_);}
	.st134{fill:url(#SVGID_125_);}
	.st135{fill:url(#SVGID_126_);}
	.st136{fill:url(#SVGID_127_);}
	.st137{fill:#184054;}
	.st138{fill:url(#SVGID_128_);}
	.st139{fill:url(#SVGID_129_);}
	.st140{fill:url(#SVGID_130_);}
	.st141{fill:url(#SVGID_131_);}
	.st142{fill:url(#SVGID_132_);}
	.st143{fill:url(#SVGID_133_);}
	.st144{fill:url(#SVGID_134_);}
	.st145{fill:url(#SVGID_135_);}
	.st146{fill:url(#SVGID_136_);}
	.st147{fill:url(#SVGID_137_);}
	.st148{fill:url(#SVGID_138_);}
	.st149{fill:url(#SVGID_139_);}
	.st150{fill:url(#SVGID_140_);}
	.st151{fill:url(#SVGID_141_);}
	.st152{fill:url(#SVGID_142_);}
	.st153{fill:url(#SVGID_143_);}
	.st154{fill:url(#SVGID_144_);}
	.st155{fill:url(#SVGID_145_);}
	.st156{fill:url(#SVGID_146_);}
	.st157{fill:url(#SVGID_147_);}
	.st158{fill:url(#SVGID_148_);}
	.st159{fill:url(#SVGID_149_);}
	.st160{fill:url(#SVGID_150_);}
	.st161{fill:url(#SVGID_151_);}
	.st162{fill:url(#SVGID_152_);}
	.st163{fill:url(#SVGID_153_);}
	.st164{fill:url(#SVGID_154_);}
	.st165{fill:url(#SVGID_155_);}
	.st166{fill:url(#SVGID_156_);}
	.st167{fill:url(#SVGID_157_);}
	.st168{fill:url(#SVGID_158_);}
	.st169{fill:url(#SVGID_159_);}
	.st170{fill:url(#SVGID_160_);}
	.st171{fill:url(#SVGID_161_);}
	.st172{fill:url(#SVGID_162_);}
	.st173{fill:url(#SVGID_163_);}
	.st174{fill:url(#SVGID_164_);}
	.st175{fill:url(#SVGID_165_);}
	.st176{fill:url(#SVGID_166_);}
	.st177{fill:url(#SVGID_167_);}
	.st178{fill:url(#SVGID_168_);}
	.st179{fill:url(#SVGID_169_);}
	.st180{fill:url(#SVGID_170_);}
	.st181{fill:url(#SVGID_171_);}
	.st182{fill:url(#SVGID_172_);}
	.st183{fill:url(#SVGID_173_);}
	.st184{fill:url(#SVGID_174_);}
	.st185{fill:url(#SVGID_175_);}
	.st186{fill:url(#SVGID_176_);}
	.st187{fill:url(#SVGID_177_);}
	.st188{fill:url(#SVGID_178_);}
	.st189{fill:url(#SVGID_179_);}
	.st190{fill:url(#SVGID_180_);}
	.st191{fill:url(#SVGID_181_);}
	.st192{fill:url(#SVGID_182_);}
	.st193{fill:url(#SVGID_183_);}
	.st194{fill:url(#SVGID_184_);}
	.st195{fill:url(#SVGID_185_);}
	.st196{fill:url(#SVGID_186_);}
	.st197{fill:url(#SVGID_187_);}
	.st198{fill:url(#SVGID_188_);}
	.st199{fill:url(#SVGID_189_);}
	.st200{fill:url(#SVGID_190_);}
	.st201{fill:url(#SVGID_191_);}
	.st202{fill:url(#SVGID_192_);}
	.st203{fill:url(#SVGID_193_);}
	.st204{fill:url(#SVGID_194_);}
	.st205{fill:url(#SVGID_195_);}
	.st206{fill:url(#SVGID_196_);}
	.st207{fill:url(#SVGID_197_);}
	.st208{fill:url(#SVGID_198_);}
	.st209{fill:url(#SVGID_199_);}
	.st210{fill:url(#SVGID_200_);}
	.st211{fill:url(#SVGID_201_);}
	.st212{fill:url(#SVGID_202_);}
	.st213{fill:url(#SVGID_203_);}
	.st214{fill:url(#SVGID_204_);}
	.st215{fill:url(#SVGID_205_);}
	.st216{fill:url(#SVGID_206_);}
	.st217{fill:url(#SVGID_207_);}
	.st218{fill:url(#SVGID_208_);}
	.st219{fill:#969697;}
	.st220{fill:url(#SVGID_209_);}
	.st221{fill:url(#SVGID_210_);}
	.st222{fill:url(#SVGID_211_);}
	.st223{fill:url(#SVGID_212_);}
	.st224{fill:url(#SVGID_213_);}
	.st225{fill:url(#SVGID_214_);}
	.st226{fill:url(#SVGID_215_);}
	.st227{fill:url(#SVGID_216_);}
	.st228{fill:url(#SVGID_217_);}
	.st229{fill:url(#SVGID_218_);}
	.st230{fill:url(#SVGID_219_);}
	.st231{fill:url(#SVGID_220_);}
	.st232{fill:url(#SVGID_221_);}
	.st233{fill:url(#SVGID_222_);}
	.st234{fill:url(#SVGID_223_);}
	.st235{fill:url(#SVGID_224_);}
	.st236{fill:url(#SVGID_225_);}
	.st237{fill:url(#SVGID_226_);}
	.st238{fill:url(#SVGID_227_);}
	.st239{fill:url(#SVGID_228_);}
	.st240{fill:url(#SVGID_229_);}
	.st241{fill:url(#SVGID_230_);}
	.st242{fill:url(#SVGID_231_);}
	.st243{fill:url(#SVGID_232_);}
	.st244{fill:url(#SVGID_233_);}
	.st245{fill:url(#SVGID_234_);}
	.st246{fill:url(#SVGID_235_);}
	.st247{fill:url(#SVGID_236_);}
	.st248{fill:url(#SVGID_237_);}
	.st249{fill:url(#SVGID_238_);}
	.st250{fill:url(#SVGID_239_);}
	.st251{fill:url(#SVGID_240_);}
	.st252{fill:url(#SVGID_241_);}
	.st253{fill:url(#SVGID_242_);}
	.st254{fill:url(#SVGID_243_);}
	.st255{fill:url(#SVGID_244_);}
	.st256{fill:url(#SVGID_245_);}
	.st257{fill:url(#SVGID_246_);}
	.st258{fill:url(#SVGID_247_);}
	.st259{fill:url(#SVGID_248_);}
	.st260{fill:url(#SVGID_249_);}
	.st261{fill:url(#SVGID_250_);}
	.st262{fill:url(#SVGID_251_);}
	.st263{fill:url(#SVGID_252_);}
	.st264{fill:url(#SVGID_253_);}
	.st265{fill:url(#SVGID_254_);}
	.st266{fill:url(#SVGID_255_);}
	.st267{fill:url(#SVGID_256_);}
	.st268{fill:url(#SVGID_257_);}
	.st269{fill:url(#SVGID_258_);}
	.st270{fill:url(#SVGID_259_);}
	.st271{fill:url(#SVGID_260_);}
	.st272{fill:url(#SVGID_261_);}
	.st273{fill:url(#SVGID_262_);}
	.st274{fill:url(#SVGID_263_);}
	.st275{fill:url(#SVGID_264_);}
	.st276{fill:url(#SVGID_265_);}
	.st277{fill:url(#SVGID_266_);}
	.st278{fill:url(#SVGID_267_);}
	.st279{fill:#F69474;}
	.st280{fill:#F27350;}
	.st281{fill:url(#SVGID_268_);}
	.st282{fill:url(#SVGID_269_);}
	.st283{fill:url(#SVGID_270_);}
	.st284{fill:url(#SVGID_271_);}
	.st285{fill:url(#SVGID_272_);}
	.st286{fill:url(#SVGID_273_);}
	.st287{fill:url(#SVGID_274_);}
	.st288{fill:url(#SVGID_275_);}
	.st289{fill:url(#SVGID_276_);}
	.st290{fill:url(#SVGID_277_);}
	.st291{fill:url(#SVGID_278_);}
	.st292{fill:url(#SVGID_279_);}
	.st293{fill:url(#SVGID_280_);}
	.st294{fill:url(#SVGID_281_);}
	.st295{fill:url(#SVGID_282_);}
	.st296{fill:url(#SVGID_283_);}
	.st297{fill:url(#SVGID_284_);}
	.st298{fill:url(#SVGID_285_);}
	.st299{fill:url(#SVGID_286_);}
	.st300{fill:url(#SVGID_287_);}
	.st301{fill:url(#SVGID_288_);}
	.st302{fill:url(#SVGID_289_);}
	.st303{fill:url(#SVGID_290_);}
	.st304{fill:url(#SVGID_291_);}
	.st305{fill:url(#SVGID_292_);}
	.st306{fill:url(#SVGID_293_);}
</style>
<g>
	<g>
		<path class="st0" d="M24.8,102.4c0,1,0.1,1.9,0.3,2.9c0.3,1.3,0.9,2.5,1.7,3.6c0.8,1.1,1.8,2.1,3,2.9c1.2,0.8,2.5,1.5,4,2.1
			c2.8,1.1,6,1.7,9.1,1.7c0.4,0,0.7,0,1.1,0c0,0,0.1,0,0.1,0c0.4,0,0.8-0.1,1.1-0.1c0.3,0,0.6-0.1,0.9-0.2c0.2,0,0.5-0.1,0.7-0.2
			c0.2,0,0.3-0.1,0.5-0.1c1.4-0.4,2.8-1,4-1.7c1.4-0.8,2.7-1.8,4-2.9c1.2-1.1,2.4-2.2,3.6-3.3c2.3-2.3,4.6-4.6,7.4-6.7
			c1.4-1,2.8-1.9,4.4-2.7c0.8-0.4,1.6-0.7,2.5-0.9c0.9-0.3,1.7-0.5,2.6-0.6c1.8-0.3,3.6-0.4,5.4-0.2c0.9,0.1,1.8,0.3,2.7,0.6
			c0.6,0.2,1.1,0.4,1.7,0.8c0,0,0.1,0.1,0.1,0.1c0.1,0.2,0.3,0.3,0.4,0.5c0,0,0.1,0.1,0.1,0.1c0.1,0,0.1,0.1,0.2,0.1
			c0,0,0.1,0,0.1,0c0,0,0.1,0,0.1,0c0,0,0,0,0,0c0,0,0,0,0,0c0,0,0,0,0,0c0,0,0.1,0,0.1,0c0,0,0.1,0,0.1,0l0,0c0,0,0.1,0,0.1,0
			c0.1,0,0.2-0.1,0.2-0.1c0.2-0.2,0.4-0.4,0.5-0.6c0.1-0.2,0.2-0.4,0.3-0.6c0,0,0,0,0,0c0,0,0,0,0-0.1c0.3-0.3,0.7-0.6,1.1-0.8
			c0.8-0.5,1.7-0.7,2.6-0.9c1.5-0.3,3-0.3,4.5-0.1c1.5,0.2,3,0.7,4.3,1.4c1.3,0.6,2.5,1.4,3.7,2.3c1.2,0.9,2.2,1.8,3.3,2.7
			c2.1,1.9,4.1,3.9,6.4,5.5c1,0.7,1.9,1.3,3,1.7c0.1,0.1,0.2,0.1,0.4,0.2c0,0,0.1,0,0.1,0c0.2,0.1,0.5,0.2,0.7,0.3
			c0.9,0.3,1.9,0.5,2.9,0.6c0.6,0,1.3,0,1.9,0c0.6,0,1.3-0.1,1.9-0.3c1.2-0.2,2.5-0.6,3.6-1.2c1.2-0.5,2.2-1.2,3.2-2
			c1-0.8,1.8-1.8,2.4-2.9c0.6-1.1,0.9-2.3,1-3.6c0.1-1.2-0.1-2.5-0.5-3.7c0-0.1,0-0.1,0-0.2c-0.7-0.8-1.6-1.6-2.6-2.4
			c0.6-2.3,1-4.7,1.2-7.2c0.2-2.6,0.2-5.2,0.1-7.7c-0.2-2.5-0.4-4.9-0.8-7.1c-0.9-6.2-2.6-12.2-4.9-18c-2.3-5.7-5.3-11.2-8.7-16.2
			c-0.3-0.7-0.5-1.5-0.8-2.3c-0.3-0.8-0.5-1.7-0.8-2.5c-0.5-1.7-1.1-3.4-1.6-5.2c-0.1-0.4-0.3-0.9-0.4-1.3l-0.2-0.7l-0.2-0.7
			c-0.3-0.9-0.6-1.8-0.9-2.8c-0.3-0.9-0.7-1.9-1.1-2.8c-0.4-0.9-1-1.9-1.6-2.8c0-0.1-0.1-0.1-0.1-0.2c0,0,0-0.1-0.1-0.1
			c-0.1-0.1-0.2-0.3-0.3-0.4c-0.1-0.1-0.2-0.2-0.3-0.3c-0.1-0.1-0.2-0.2-0.4-0.3c-0.3-0.2-0.5-0.4-0.9-0.6c-0.3-0.2-0.7-0.3-1.2-0.3
			c-0.4,0-0.9,0-1.2,0.2c-0.4,0.1-0.7,0.3-1,0.5c-0.5,0.4-0.9,0.9-1.3,1.4c-0.7,1-1.2,1.9-1.6,2.9c-0.4,1-0.8,2-1.2,2.9l-0.1,0.4
			l-0.1,0.4c-0.1,0.2-0.2,0.5-0.3,0.7c-0.2,0.5-0.4,1-0.5,1.5c-0.3,1-0.7,2-1,3c-0.3,1-0.6,2-0.9,3c-0.3,1-0.5,2-0.7,3l0,0
			c0,0,0,0.1,0,0.1c-0.5-0.1-1.1-0.2-1.7-0.4c-1.8-0.3-4.1-0.6-6.5-0.8c-2.5-0.2-5.2-0.2-8-0.2C76,33,70.9,33.5,67.2,34.1
			c-1.8,0.3-3.3,0.6-4.3,0.9c-0.4,0.1-0.8,0.2-1,0.3c-0.2-0.3-0.3-0.6-0.5-0.9c0-0.3-0.2-1-0.6-1.9c-0.8-1.9-1.5-3.9-2.4-5.9
			c-0.9-2-1.9-3.9-3.2-5.8c-0.7-0.9-1.4-1.8-2.2-2.6c-0.8-0.8-2-1.8-3.6-2c-0.4,0-0.8,0-1.2,0c-0.4,0.1-0.8,0.2-1.1,0.3
			c-0.7,0.3-1.2,0.7-1.7,1.1c-0.5,0.4-0.9,0.9-1.3,1.3c-0.4,0.5-0.7,0.9-1,1.4c-0.3,0.5-0.6,0.9-0.9,1.4l-0.2,0.4l-0.2,0.4
			c-0.1,0.2-0.3,0.5-0.4,0.7c-0.5,1-1,2-1.4,3c-0.9,2-1.6,4.1-2.3,6.2c-0.6,2.1-1.2,4.2-1.7,6.3c-0.5,2.1-0.9,4.3-1.2,6.4l0,0v0
			c-0.1,0.7,0.3,1.4,1,1.6c-0.5,0.5-0.9,1.1-1.3,1.7c-1.2,1.7-2.3,3.7-3.1,5.8c-0.9,2.1-1.5,4.2-2.1,6.3c-0.6,2.1-1,4.2-1.4,6.1
			c-0.5,2.7-1,5.3-1.2,8.1c-0.1,0.7-0.1,1.4-0.1,2c0,0.7,0,1.4,0,2c0,1.4,0,2.7,0,4.1c0.1,2.7,0.3,5.4,0.7,8.1
			c0.4,2.3,0.9,4.6,1.6,6.8c-0.2,0.3-0.3,0.6-0.4,1c-0.1,0.3-0.2,0.7-0.2,1.1c-0.2,1.3,0.2,2.6,0.9,3.7c0.7,1.2,1.7,2.2,2.9,3
			c1.1,0.8,2.3,1.4,3.6,1.9c0.1,0.1,0.3,0.1,0.4,0.2c0.7,0.2,1.5,0.4,2.3,0.6c0.3,0,0.6,0.1,0.9,0.1c0.4,0,0.8,0.1,1.3,0
			c0.7,0,1.5-0.1,2.2-0.3c0.7-0.2,1.4-0.4,2.1-0.7c1.4-0.6,2.6-1.3,3.8-2.2c1.2-0.9,2.2-1.8,3.2-2.8c1.2-1.1,2.3-2.3,3.5-3.5
			c0.6-0.6,1.2-1.2,1.8-1.7c0.2-0.1,0.3-0.3,0.5-0.4l0.2-0.2l0.2-0.2c0.3-0.3,0.7-0.5,1-0.8c1.4-1,2.8-2,4.3-2.8
			c1.5-0.8,3.1-1.6,4.8-2.2c1.7-0.6,3.4-1.1,5.2-1.3c0.9-0.1,1.8-0.1,2.8-0.1l0.2,0l0.1,0l0,0l0.1,0c0.1,0,0.2,0,0.3,0
			c0.2,0,0.5,0.1,0.7,0.1c0.5,0.1,0.9,0.2,1.3,0.3c0.8,0.2,1.5,0.5,2.2,0.8c0,0,0,0.1,0.1,0.1c0.2,0.3,0.5,0.7,0.7,1
			c0.2,0.3,0.5,0.6,0.7,0.9l0.1,0.1c0,0,0,0,0,0c-1.5-0.9-3.2-1.6-4.9-2c-0.4-0.1-0.9-0.2-1.3-0.2l0,0h0l-0.1,0l-0.2,0l-0.3,0
			c-0.2,0-0.5,0-0.7,0c-0.9,0-1.8,0.1-2.7,0.3c-1.7,0.3-3.4,0.8-5.1,1.5c-1.6,0.7-3.2,1.5-4.7,2.4c-1.5,0.9-2.9,1.9-4.2,3
			c-1.3,1.1-2.5,2.3-3.7,3.5c-1.1,1.1-2.2,2.3-3.4,3.3c-1.2,1.1-2.5,2.1-3.9,2.9c-1.4,0.8-3,1.5-4.7,1.9c-0.8,0.2-1.6,0.3-2.5,0.3
			c0,0-0.1,0-0.1,0c-0.3,0-0.5,0-0.8,0c-0.6,0-1.2-0.1-1.8-0.2c-0.2,0-0.4-0.1-0.7-0.2c-1.5-0.4-2.8-0.9-4.1-1.7
			c-1.5-0.8-2.8-1.9-3.7-3.2c-0.5-0.6-0.9-1.3-1.2-2.1c-0.3-0.7-0.4-1.5-0.4-2.3c0-0.7,0.2-1.5,0.6-2.1c0,0,0-0.1,0-0.1
			c0,0-0.3-0.4-0.1,0C26.7,99.9,25.6,101.1,24.8,102.4z"/>
	</g>
	<g>
		<path class="st1" d="M132.5,95.2c0.2,0.5,0.4,1.2,0.4,1.8c0,0.6-0.1,1.2-0.2,1.8c-0.3,1.2-1,2.3-1.8,3.2c-0.8,0.9-1.9,1.7-3,2.3
			c-1.1,0.6-2.4,1-3.7,1.1c-0.7,0-1.3,0-2-0.1c-0.2,0-0.5-0.1-0.7-0.1c-0.2,0-0.4-0.1-0.5-0.1c-0.2-0.1-0.4-0.1-0.5-0.2
			c0,0-0.1,0-0.1,0c-1.2-0.4-2.3-1.1-3.4-1.8c-1-0.7-2-1.5-2.9-2.3c-1-0.9-2-1.9-3-2.8c-0.5-0.5-1-0.9-1.5-1.3
			c-0.1-0.1-0.3-0.2-0.4-0.3l-0.2-0.2l-0.2-0.2c-0.3-0.2-0.6-0.4-0.8-0.6c-1.1-0.8-2.3-1.5-3.5-2.1c-1.2-0.6-2.4-1.1-3.7-1.5
			C99.3,91.3,98,91,96.7,91c-0.7,0-1.3,0-1.9,0.1l-0.1,0l-0.1,0l0,0l0,0l0,0c-0.1,0-0.2,0-0.2,0.1c-0.2,0-0.3,0.1-0.5,0.1
			c-0.3,0.1-0.6,0.2-0.9,0.3c-1.2,0.5-2.3,1.2-3.2,2.1c-0.1,0.1-0.1,0.1-0.2,0.2l0-0.1c0.2-0.3,0.5-0.7,0.7-1
			c0.2-0.4,0.4-0.8,0.7-1.2c0.7-0.4,1.5-0.8,2.3-1.1c0.4-0.1,0.7-0.2,1.1-0.3l0,0l0,0l0,0h0l0.1,0l0.1,0c0.1,0,0.2,0,0.3,0
			c0.2,0,0.4,0,0.6,0c0.8,0,1.5,0,2.3,0.1c1.4,0.2,2.9,0.6,4.2,1.1c1.4,0.5,2.7,1.1,3.9,1.9c1.3,0.7,2.4,1.5,3.6,2.4
			c1.1,0.9,2.2,1.9,3.2,2.8c1,0.9,1.9,1.8,2.9,2.7c1,0.8,2.1,1.6,3.2,2.2c0.7,0.4,1.3,0.7,2.1,0.9c0.2,0.1,0.4,0.1,0.5,0.2
			c0.2,0,0.3,0.1,0.5,0.1c0.2,0,0.3,0.1,0.5,0.1c0.6,0.1,1.3,0.1,1.9,0.1c0.6-0.1,1.2-0.2,1.8-0.4c1.2-0.4,2.3-1,3.3-1.8
			c1-0.8,1.8-1.8,2.3-2.9c0.3-0.6,0.5-1.2,0.6-1.8c0.1-0.6,0.1-1.2,0-1.8c-0.1-0.5-0.3-1-0.6-1.5c0-0.1,0.1-0.2,0.1-0.3c0,0,0,0,0,0
			C132.1,94.4,132.4,94.8,132.5,95.2z"/>
	</g>
	<g>
		<path class="st2" d="M109.4,16.4c0.1,0.1,0.2,0.2,0.2,0.3c0,0,0,0,0,0l-0.2-0.1C109.4,16.6,109.4,16.5,109.4,16.4z"/>
	</g>
	<g>
		<path class="st2" d="M108.5,15.7C108.5,15.8,108.5,15.8,108.5,15.7C108.5,15.8,108.5,15.8,108.5,15.7
			C108.5,15.8,108.5,15.8,108.5,15.7z"/>
	</g>
	<g>
		<path class="st2" d="M105,21.1c0.4-1.1,0.9-2.2,1.5-3.2c0.1-0.2,0.2-0.3,0.3-0.5c0,0.1,0,0.1-0.1,0.2c-0.3,0.8-0.7,1.6-1.1,2.4
			c-0.3,0.7-0.7,1.3-1,2C104.8,21.6,104.9,21.4,105,21.1z"/>
	</g>
	<g>
		<path class="st2" d="M104,31.9c0.4-1.5,0.9-3,1.3-4.6l0.2-0.5l0,0.2c-0.2,1.1-0.5,2.1-0.8,3.1c-0.3,1-0.6,2-0.9,2.9
			C103.8,32.7,103.9,32.3,104,31.9z"/>
	</g>
	<g>
		<linearGradient id="SVGID_1_" gradientUnits="userSpaceOnUse" x1="91.6758" y1="58.6842" x2="131.9445" y2="58.6842">
			<stop  offset="0" style="stop-color:#3F58A6"/>
			<stop  offset="1" style="stop-color:#C9A2C8"/>
		</linearGradient>
		<path class="st3" d="M103.9,35.9c0.2-0.2,0.3-0.4,0.5-0.7c0.3-0.5,0.5-1,0.7-1.5c0.4-1,0.7-2.1,0.9-3.2c0.3-1.1,0.5-2.1,0.7-3.2
			l0.3-1.6c0.1-0.5,0.2-1.1,0.3-1.6c0.2-0.5,0.3-1,0.5-1.5c0.2-0.5,0.3-1,0.5-1.5c0.3-1,0.7-2,1.2-2.9c0.2-0.3,0.4-0.6,0.6-0.9
			c0.2,0.3,0.4,0.6,0.6,1c0.5,0.8,0.9,1.7,1.3,2.6c0.4,0.9,0.7,1.8,1,2.7l0.5,1.4l0.2,0.7l0.1,0.3l0.1,0.3c0.6,1.9,1.2,3.7,1.9,5.5
			c0.3,0.9,0.7,1.8,1,2.7c0.3,0.7,0.6,1.5,0.9,2.2c-0.3,0-0.4,0.3-0.1,0.9c1.2,2.5,2.5,5,3.8,7.5c1.3,2.5,2.6,5,3.7,7.6
			c2.5,5.6,4.4,11.5,5.5,17.5c0.9,5,1.3,10,1,15c-0.1,2.5-0.5,5-1,7.5c-0.2,1.1-0.5,2.2-0.7,3.3c-1.4,2.5-4.3,5.6-9.2,3.6
			c-4.9-2-19.7-17.9-29.3-9.6c0.2-0.5,0.4-1,0.5-1.5c0.2-0.8,0.5-1.6,0.6-2.4c0.1-0.8,0.3-1.6,0.5-2.3c0.2-0.8,0.3-1.6,0.4-2.4
			c0.1-0.8,0.1-1.6-0.1-2.4c-0.1-0.2-0.1-0.4-0.2-0.5c1-3.1,1.6-6.4,2.2-9.7c0.9-4.3,1.9-8.5,2.8-12.7c0.8-3.5,1.5-7,2.3-10.4
			c0.4-1.7,0.9-3.4,1.4-5.1c0.3-0.8,0.6-1.7,0.9-2.5c0.2-0.4,0.3-0.8,0.5-1.2C103.7,36.4,103.8,36.1,103.9,35.9z"/>
	</g>
	<g>
		<path class="st2" d="M101.6,32.6c0,0.1-0.1,0.2-0.1,0.3c0.1-0.4,0.2-0.8,0.3-1.2c0.1-0.5,0.3-1.1,0.4-1.6c0.4-0.7,0.7-1.3,1.1-2
			c-0.1,0.4-0.2,0.8-0.4,1.1C102.5,30.3,102.1,31.5,101.6,32.6z"/>
	</g>
	<g>
		<path class="st2" d="M101.9,35.5c-0.1,0-0.1-0.1-0.2-0.1c0,0,0,0,0,0c0,0,0,0,0.1-0.1c0-0.1,0.1-0.1,0.1-0.2
			C101.9,35.3,101.9,35.4,101.9,35.5z"/>
	</g>
	<g>
		<path class="st2" d="M100.8,28.8c0.6-1.8,1.2-3.6,1.9-5.4c0.3-0.7,0.6-1.4,0.8-2.1c-0.1,0.2-0.1,0.4-0.2,0.6l-0.7,1.9l-0.2,0.5
			c-0.1,0.2-0.1,0.3-0.2,0.5c-0.1,0.3-0.2,0.7-0.3,1c-0.4,1.3-0.8,2.6-1.1,4c0,0.1,0,0.1-0.1,0.2c-0.2,0.4-0.5,0.9-0.7,1.3
			C100.3,30.5,100.5,29.6,100.8,28.8z"/>
	</g>
	<g>
		<path class="st2" d="M41,39.3c0.1-0.3,0.2-0.5,0.2-0.8c0.7-2.3,1.5-4.5,2.3-6.7c0.2-0.6,0.4-1.1,0.7-1.6c0.1-0.3,0.2-0.5,0.4-0.8
			l0.1-0.2l0,0l0,0l0-0.1l0.2-0.4c0.2-0.3,0.3-0.6,0.5-0.9c-0.6,1.5-1.2,2.9-1.7,4.4c-0.9,2.3-1.7,4.6-2.4,6.9c-0.3,1-0.6,2-0.9,3
			C40.7,41.2,40.8,40.2,41,39.3z"/>
	</g>
	<g>
		<path class="st2" d="M40.7,45.1L40.7,45.1L40.7,45.1L40.7,45.1C40.7,45.1,40.7,45.1,40.7,45.1C40.7,45.1,40.7,45.1,40.7,45.1z"/>
	</g>
	<g>
		<path class="st2" d="M39.3,38.6c0.2-0.6,0.3-1.2,0.5-1.8c0.1-0.2,0.1-0.3,0.2-0.5c0,0.1,0,0.1-0.1,0.2c-0.1,0.4-0.2,0.7-0.3,1.1
			c-0.4,1.3-0.8,2.7-1.1,4c-0.2,1.1-0.5,2.1-0.6,3.2c-0.1,0.1-0.1,0.1-0.2,0.2C38.2,42.9,38.7,40.8,39.3,38.6z"/>
	</g>
	<g>
		<path class="st4" d="M44.3,104.1c-4.6,2.5-8.3,0.7-10.4-0.5c-1.3-0.6-2.9-1.6-3.9-4.3c0,0,0-0.1,0-0.2c-0.4-2.4-0.8-4.7-1.2-7.1
			c-0.4-2.4-0.7-4.8-0.8-7.2c-0.1-1.3-0.1-2.7-0.2-4c0-0.7,0-1.3,0-2l0-1l0-1c0-1.3,0.1-2.6,0.3-3.9c0.1-1.3,0.3-2.6,0.5-3.9
			c0.4-2.2,0.8-4.3,1.3-6.4c0.5-2.1,1.2-4.2,2-6.2c0.8-2,1.7-4,2.8-5.9c0.9-1.6,2-3.2,3.3-4.6c0.1,0.3,0.4,0.5,0.7,0.5
			c0.5,0.1,1-0.3,1.1-0.8c0-0.2,0.1-0.4,0.1-0.6c0,0.2,0,0.3,0,0.5c0,0.3,0,0.6,0.1,1c0.1,0.2,0.2,0.3,0.4,0.4
			c0.2,0.1,0.4,0.1,0.6,0.1c0.2,0,0.3-0.1,0.5-0.2c0.1-0.1,0.3-0.2,0.4-0.2c0.3-0.2,0.5-0.4,0.7-0.7c0.2-0.3,0.3-0.6,0.4-0.9
			c0.2-0.6,0.4-1.2,0.5-1.8c0.1-0.6,0.2-1.2,0.3-1.8c0.2-1.2,0.4-2.4,0.6-3.6c0.2-1.2,0.5-2.4,0.8-3.6c0.1-0.6,0.3-1.2,0.5-1.8
			c0.1-0.3,0.2-0.7,0.3-1c0.6-1.6,1.2-3.1,1.9-4.7c0.5-1.2,1-2.4,1.5-3.6c0.5-1.2,1.1-2.4,1.6-3.5l0-0.1c0,0,0-0.1,0.1-0.1
			c0,0,0,0,0.1,0c0.8,0.7,1.5,1.4,2.1,2.2c1.3,1.6,2.4,3.4,3.4,5.2c1,1.8,1.8,3.8,2.7,5.6c0.2,0.5,0.5,1,0.7,1.3
			c0.2,0.5,0.4,1.1,0.6,1.7c0.3,0.8,0.7,1.6,1.1,2.5c0.8,1.7,1.7,3.4,2.6,5.1c1.8,3.5,3.7,7,5.1,10.2c1.9,4.5,3.4,9.1,4.8,13.7
			c1.3,4.1,2.4,8.2,3.6,12.3c-0.1,0.2-0.2,0.4-0.2,0.5c-0.1,0.4-0.2,0.7-0.3,1.1c-0.1,0.7-0.1,1.4,0,2c0.1,0.8,0.3,1.7,0.5,2.5
			c0.2,0.8,0.6,1.6,0.9,2.3c0.3,0.7,0.7,1.4,1.1,2.1C66,81.2,50.1,101,44.3,104.1z"/>
	</g>
	<g>
		<path class="st5" d="M82.7,78c-0.3-0.2-0.7-0.4-1.1-0.6c-0.4-0.1-0.9-0.2-1.4-0.1c-0.5,0.1-0.9,0.3-1.2,0.6c0,0,0,0,0,0
			c-0.6-3.4-1.6-6.7-2.6-10c-1.5-4.7-3.1-9.3-5-13.8c-1.6-3.7-3.3-7.3-5.2-10.8c-0.9-1.7-1.8-3.5-2.8-5.2c-0.4-0.8-0.9-1.6-1.3-2.4
			c0.2,0,0.6-0.1,0.9-0.1c1-0.1,2.5-0.3,4.4-0.4c0.5,0,1.1-0.1,1.7-0.1c-0.1,0.2-0.2,0.4-0.2,0.6c-0.1,0.2-0.1,0.4-0.2,0.6
			c-0.1,0.2-0.1,0.4-0.1,0.6c0,0.2,0,0.4-0.1,0.6L68.4,38c0,0.2-0.1,0.4,0,0.6c0,0.2,0,0.3,0,0.5l0,0.2l0,0.2l0,0.4
			c0,0.3,0,0.5,0,0.7l0.1,0.4c0,0.2,0.1,0.4,0.1,0.6c0.1,0.2,0.1,0.3,0.1,0.5c0,0.2,0.1,0.3,0.2,0.5c0.1,0.2,0.2,0.3,0.3,0.4
			c0,0,0.1,0.1,0.1,0.1c0.1,0.4,0.3,0.6,0.4,0.6c0,0,0,0,0,0c0,0,0,0,0,0c0,0,0,0,0,0c0,0,0.1-0.1,0.1-0.2c0,0,0,0,0,0c0,0,0,0,0,0
			c0,0.1,0,0.1,0.1,0.1l0,0l0,0l0,0c0,0,0,0,0,0c0,0,0,0,0,0s0,0-0.1,0c0,0-0.1,0-0.1,0c0,0,0,0,0.1,0c0,0,0,0,0.1,0l0,0
			c0,0,0,0,0,0c0,0,0.1,0,0.1,0c0,0,0.1,0,0.1,0c0,0,0,0,0.1,0c0.2,0,0.1,0,0.1,0c0,0,0,0,0,0c0,0,0,0,0,0c0,0,0,0,0,0
			c0.1-0.1,0.2-0.3,0.3-0.5c0-0.1,0.1-0.2,0.1-0.3c0-0.1,0-0.3,0-0.4c0-0.2,0-0.3,0-0.5c0-0.2,0-0.3,0.1-0.5c0-0.2,0.1-0.4,0.1-0.6
			c0-0.2,0-0.4,0.1-0.6c0-0.2,0.1-0.4,0-0.7c0-0.2-0.1-0.5-0.1-0.7c0-0.2,0.1-0.4,0.1-0.7c0-0.1,0.1-0.2,0.1-0.4c0-0.1,0-0.3,0-0.4
			c0-0.2-0.1-0.5-0.1-0.7c0-0.2,0-0.5,0.1-0.7c0-0.2,0-0.5,0-0.7l0-0.3c0,0,0,0,0-0.1c3-0.2,6.6-0.4,10.4-0.5c2.8-0.1,5.5-0.1,7.9,0
			c2,0.1,3.8,0.2,5.3,0.3c0,0,0,0.1-0.1,0.1c-0.1,0.2-0.2,0.4-0.2,0.6c-0.1,0.2-0.1,0.4-0.2,0.6c-0.1,0.2-0.1,0.4-0.1,0.6
			c0,0.2,0,0.4-0.1,0.6l-0.1,0.6c0,0.2-0.1,0.4,0,0.6c0,0.2,0,0.3,0.1,0.5l0,0.2l0,0.2l0,0.4c0,0.3,0,0.5,0,0.7l0.1,0.4
			c0,0.2,0.1,0.4,0.1,0.6c0.1,0.2,0.1,0.3,0.1,0.5c0,0.2,0.1,0.3,0.2,0.5c0.1,0.2,0.2,0.3,0.3,0.4c0,0,0.1,0.1,0.1,0.1
			c0.1,0.4,0.3,0.6,0.4,0.6c0,0,0,0,0,0c0,0,0,0,0,0c0,0,0,0,0,0c0,0,0.1-0.1,0.1-0.2c0,0,0,0,0,0c0,0,0,0,0,0c0,0.1,0,0.1,0.1,0.1
			l0,0l0,0l0,0c0,0,0,0,0,0c0,0,0,0,0,0c0,0,0,0-0.1,0c0,0-0.1,0-0.1,0c0,0,0.1,0,0.1,0c0,0,0,0,0.1,0l0,0c0,0,0,0,0.1,0
			c0,0,0.1,0,0.1,0c0,0,0.1,0,0.1,0c0,0,0,0,0.1,0c0.2,0,0.1,0,0.1,0c0,0,0,0,0,0c0,0,0,0,0,0c0,0,0,0,0,0c0.1-0.1,0.2-0.3,0.3-0.5
			c0-0.1,0.1-0.2,0.1-0.3c0-0.1,0-0.3,0-0.4c0-0.1,0-0.3,0-0.5c0-0.2,0-0.3,0.1-0.5c0-0.2,0.1-0.4,0.1-0.6c0-0.2,0-0.4,0.1-0.6
			c0-0.2,0.1-0.4,0-0.7s-0.1-0.5-0.1-0.7c0-0.2,0.1-0.4,0.1-0.7c0-0.1,0.1-0.2,0.1-0.4c0-0.1,0-0.3,0-0.4c0-0.3-0.1-0.5-0.1-0.7
			c0-0.2,0.1-0.5,0.1-0.7c0-0.2,0-0.5,0-0.7l0-0.1c1,0.1,1.9,0.3,2.6,0.4c0.1,0.1,0.1,0.2,0.3,0.3c0.1,0,0.1,0.1,0.2,0.1
			c0.1,0,0.2,0.1,0.3,0.1c0.2,0,0.4-0.1,0.5-0.1c0.1,0,0.1-0.1,0.2-0.1c0.1,0,0.2,0,0.3,0c0.1,0,0.2,0,0.3,0c0,0,0,0,0,0
			c0,0,0,0.1,0,0.1c0.1,0.1,0.2,0.3,0.3,0.4c0.1,0.1,0.2,0.2,0.4,0.2c-0.1,0.2-0.2,0.3-0.3,0.5c-0.4,0.7-0.8,1.5-1.1,2.2
			c-0.7,1.6-1.2,3.3-1.6,5c-0.9,3.5-1.4,7-2.2,10.1c-1,4.2-2.1,8.5-3.1,12.7c-0.7,3.1-1.4,6.3-1.9,9.4c-0.2-0.2-0.5-0.4-0.8-0.5
			c-0.4-0.1-0.9-0.1-1.3,0c-0.4,0.1-0.8,0.3-1.2,0.6c-0.7,0.5-1.2,1.1-1.7,1.8c-0.5,0.7-0.8,1.4-1.2,2.1c0,0,0,0,0,0l0,0.1
			c-0.2,0.5-0.3,1.1-0.5,1.7c-0.1-0.2-0.2-0.4-0.4-0.6c-0.2-0.3-0.4-0.6-0.6-0.9l-0.3-0.4l-0.2-0.2c-0.1-0.1-0.1-0.2-0.2-0.2
			C83.9,79,83.4,78.4,82.7,78z"/>
	</g>
	<g>
		<g>
			<path class="st6" d="M55.2,84.6c0-0.2,0-0.5,0-0.8c-0.1-0.5-0.2-1.1-0.5-1.6c-0.3-0.5-0.7-1-1.1-1.3c-0.4-0.4-0.9-0.7-1.4-1
				c-0.5-0.3-1-0.6-1.5-0.8c-0.6-0.3-1.2-0.4-1.8-0.5c-1.2-0.2-2.3-0.1-3.4,0.1c-0.3,0-0.5,0.1-0.8,0.2c-0.3,0.1-0.5,0.1-0.8,0.2
				c-0.5,0.2-1,0.4-1.5,0.6c-0.9,0.4-1.8,1-2.4,1.7c-0.7,0.7-1.2,1.5-1.4,2.4c-0.3,0.9-0.3,1.8,0,2.6c0.1,0.4,0.3,0.8,0.5,1.2
				c0.1,0.2,0.2,0.4,0.3,0.6l0.1,0.1l0.1,0.1l0,0.1c0.1,0.1,0.1,0.2,0.2,0.3c0.6,0.7,1.3,1.3,2.1,1.7c0.8,0.4,1.7,0.7,2.6,0.9
				c1.8,0.4,3.5,0.3,5.1,0c1.6-0.3,3-1,4-1.8c0.5-0.4,1-0.9,1.3-1.5c0-0.1,0.1-0.1,0.1-0.2l0.1-0.1l0-0.1c0.1-0.1,0.1-0.3,0.2-0.4
				c0.1-0.3,0.2-0.6,0.2-0.9C55.5,85.7,55.4,85.1,55.2,84.6C55.2,84.6,55.2,84.6,55.2,84.6z M47,79.9C47,80,46.9,80,47,79.9
				C46.9,80,46.9,80,47,79.9C46.9,79.9,46.9,79.9,47,79.9z M41.3,82.2c0.1-0.1,0.2-0.2,0.3-0.3c0,0.1,0,0.1,0,0.2
				c0.1,0.6,0.2,1.1,0.4,1.6c0.3,1.1,0.7,2.2,1.1,3.3c0.1,0.2,0.2,0.5,0.3,0.7c-0.1-0.2-0.3-0.4-0.4-0.7c-0.3-0.6-0.6-1.2-0.8-1.9
				C41.8,84.2,41.5,83.2,41.3,82.2C41.3,82.2,41.3,82.2,41.3,82.2z M41,87.9c-0.1-0.1-0.1-0.1-0.2-0.2l-0.1-0.1l-0.1-0.1
				c-0.1-0.2-0.2-0.3-0.3-0.5c-0.2-0.3-0.3-0.6-0.4-1c-0.2-0.7-0.1-1.4,0.1-2c0.1-0.2,0.2-0.4,0.3-0.6c0,0,0,0.1,0,0.2
				c0.1,0.5,0.2,1,0.3,1.4c0.2,0.9,0.5,1.6,0.6,2.2c0.2,0.6,0.3,1,0.4,1.3c0,0.1,0,0.2,0.1,0.3C41.5,88.5,41.2,88.2,41,87.9z
				 M44.8,90.1c-0.7-0.2-1.5-0.4-2.1-0.8c-0.3-0.1-0.5-0.3-0.7-0.5c0-0.1,0-0.2,0-0.4c0-0.3,0-0.7-0.1-1.3c0,0.1,0.1,0.2,0.2,0.3
				c0.2,0.3,0.4,0.7,0.6,1c0.1,0.2,0.3,0.3,0.4,0.5c0.2,0.2,0.4,0.3,0.6,0.5c0,0,0.1,0.1,0.2,0.1c0.2,0.1,0.4,0,0.6-0.1
				c0.2,0.2,0.4,0.4,0.6,0.7C45,90.2,44.9,90.1,44.8,90.1z M46.5,89.4c-0.4-0.3-0.8-0.7-1.1-1.2c0-0.1-0.1-0.1-0.1-0.2L45.2,88l0,0
				l0,0c-0.1-0.1-0.1-0.3-0.2-0.4c-0.1-0.2-0.2-0.5-0.3-0.7c-0.1-0.6-0.2-1.3-0.3-1.9c0,0,0,0,0,0c0,0.1,0.1,0.2,0.2,0.3l0.2,0.5
				l0.1,0.3c0,0.1,0.1,0.2,0.1,0.2c0,0,0,0,0,0l0,0l0.5,1.1c0.2,0.4,0.4,0.8,0.6,1.2c0.2,0.3,0.4,0.7,0.6,1
				C46.7,89.5,46.6,89.5,46.5,89.4z M47.9,87.9c-0.2-0.3-0.4-0.7-0.6-1.1l-0.5-1.1c0-0.1-0.1-0.2-0.1-0.3l-0.1-0.3l-0.2-0.5
				c-0.2-0.3-0.3-0.7-0.5-1c-0.3-0.7-0.5-1.4-0.7-2C45.1,81.3,45,81,45,80.8c0-0.1,0-0.1,0-0.1c0,0,0,0,0,0c0,0,0.1,0.1,0.2,0.1
				c0.2,0.1,0.4,0.4,0.6,0.6c0.3,0.4,0.5,0.8,0.7,1.3c0,0,0,0.1,0,0.1c0.1,0.2,0.1,0.5,0.2,0.7c0,0.1,0.1,0.2,0.1,0.3l0.1,0.2
				c0,0,0,0.1,0.1,0.2l0.2,0.5c0,0.1,0.1,0.3,0.1,0.4c0.2,0.6,0.4,1.3,0.5,1.9c0.1,0.3,0.1,0.6,0.2,0.9c0,0.2,0,0.3,0,0.4
				c0,0,0,0.1,0,0.1C48.1,88.3,48,88.1,47.9,87.9z M53.2,85.1c-0.1,0.4-0.2,0.7-0.3,1.1c-0.1-0.6-0.2-1.2-0.3-1.8
				c-0.2-0.8-0.5-1.6-0.8-2.3c-0.1-0.3-0.3-0.6-0.4-0.8c0.7,0.5,1.3,1,1.6,1.6C53.3,83.5,53.4,84.2,53.2,85.1z"/>
		</g>
	</g>
	<g>
		<g>
			<path class="st6" d="M111.9,80c-0.2,0.7-0.2,1.5,0,2.3c0.1,0.4,0.2,0.7,0.4,1.1c0.1,0.2,0.2,0.3,0.3,0.5l0.1,0.1l0,0.1l0,0.1
				c0.1,0.1,0.1,0.2,0.2,0.2c0.5,0.6,1.1,1.1,1.8,1.5c0.7,0.4,1.5,0.6,2.2,0.8c1.5,0.3,3,0.3,4.4,0c1.3-0.3,2.5-0.8,3.5-1.6
				c0.5-0.4,0.8-0.8,1.1-1.3c0-0.1,0.1-0.1,0.1-0.2l0-0.1l0-0.1c0.1-0.1,0.1-0.2,0.2-0.4c0.1-0.2,0.1-0.5,0.2-0.7c0-0.5,0-1-0.2-1.4
				c0,0,0,0,0,0c0-0.2,0-0.4,0-0.7c-0.1-0.5-0.2-0.9-0.5-1.4c-0.2-0.4-0.6-0.8-1-1.2c-0.4-0.3-0.8-0.6-1.2-0.9
				c-0.4-0.3-0.8-0.5-1.3-0.7c-0.5-0.2-1-0.4-1.6-0.4c-1-0.1-2-0.1-2.9,0.1c-0.2,0-0.5,0.1-0.7,0.1c-0.2,0.1-0.4,0.1-0.7,0.2
				c-0.4,0.1-0.9,0.3-1.3,0.5c-0.8,0.4-1.5,0.9-2.1,1.5C112.6,78.5,112.1,79.2,111.9,80z M124.3,79.2c0.3,0.6,0.4,1.2,0.2,1.9
				c-0.1,0.3-0.2,0.6-0.2,1c0-0.5-0.2-1.1-0.3-1.6c-0.2-0.7-0.4-1.3-0.7-2c-0.1-0.2-0.2-0.5-0.4-0.7C123.5,78.3,124,78.7,124.3,79.2
				z M119.1,76.8C119.1,76.8,119.1,76.8,119.1,76.8C119.1,76.8,119.1,76.8,119.1,76.8C119.1,76.8,119.1,76.8,119.1,76.8z
				 M117.5,77.5c0,0,0-0.1,0-0.1c0,0,0,0,0,0c0,0,0.1,0,0.2,0.1c0.2,0.1,0.4,0.3,0.5,0.6c0.2,0.3,0.5,0.7,0.6,1.1c0,0,0,0.1,0,0.1
				c0.1,0.2,0.1,0.4,0.2,0.6c0,0.1,0.1,0.2,0.1,0.3l0.1,0.2c0,0,0,0.1,0.1,0.1l0.2,0.4c0,0.1,0.1,0.2,0.1,0.4
				c0.2,0.6,0.3,1.1,0.4,1.7c0.1,0.3,0.1,0.5,0.1,0.8c0,0.1,0,0.3,0,0.4c0,0,0,0.1,0,0.1c-0.1-0.2-0.2-0.4-0.3-0.5
				c-0.2-0.3-0.3-0.6-0.5-0.9l-0.5-0.9c0-0.1-0.1-0.2-0.1-0.2l-0.1-0.2l-0.2-0.4c-0.1-0.3-0.3-0.6-0.4-0.9c-0.2-0.6-0.5-1.2-0.6-1.7
				C117.5,78,117.5,77.7,117.5,77.5z M117,81.3l0.2,0.5l0.1,0.2c0,0.1,0.1,0.1,0.1,0.2c0,0,0,0,0,0l0,0l0.5,1c0.2,0.3,0.3,0.7,0.5,1
				c0.2,0.3,0.3,0.6,0.6,0.9c-0.1,0-0.2-0.1-0.2-0.1c-0.4-0.2-0.7-0.6-1-1c0,0-0.1-0.1-0.1-0.2l0-0.1l0,0l0,0
				c-0.1-0.1-0.1-0.2-0.2-0.3c-0.1-0.2-0.2-0.4-0.3-0.6c-0.1-0.6-0.1-1.1-0.3-1.7c0,0,0,0,0,0C117,81.1,117,81.2,117,81.3z
				 M116.4,85.1c0.2,0.1,0.4,0,0.5-0.1c0.2,0.2,0.3,0.4,0.6,0.6c-0.1,0-0.2,0-0.2,0c-0.6-0.1-1.3-0.4-1.8-0.7
				c-0.2-0.1-0.4-0.3-0.6-0.4c0-0.1,0-0.2,0-0.3c0-0.3,0-0.6-0.1-1.1c0,0.1,0.1,0.2,0.1,0.3c0.1,0.3,0.3,0.6,0.5,0.9
				c0.1,0.2,0.2,0.3,0.4,0.4c0.1,0.1,0.3,0.3,0.5,0.4C116.3,85.1,116.4,85.1,116.4,85.1z M114.3,78.7c0.1-0.1,0.2-0.2,0.2-0.2
				c0,0.1,0,0.1,0,0.2c0.1,0.5,0.2,0.9,0.3,1.4c0.3,0.9,0.6,1.9,1,2.9c0.1,0.2,0.2,0.4,0.3,0.6c-0.1-0.2-0.2-0.4-0.4-0.6
				c-0.3-0.5-0.5-1.1-0.7-1.6C114.7,80.5,114.4,79.6,114.3,78.7C114.2,78.7,114.3,78.7,114.3,78.7z M113.3,80.3
				c0.1-0.2,0.1-0.4,0.2-0.5c0,0,0,0.1,0,0.1c0.1,0.4,0.2,0.8,0.3,1.2c0.2,0.7,0.4,1.4,0.5,1.9c0.1,0.5,0.2,0.9,0.3,1.2
				c0,0.1,0,0.2,0,0.2c-0.3-0.2-0.5-0.4-0.7-0.7c0-0.1-0.1-0.1-0.1-0.2l-0.1-0.1l-0.1-0.1c-0.1-0.1-0.2-0.3-0.2-0.4
				c-0.1-0.3-0.2-0.6-0.3-0.8C113.1,81.5,113.1,80.9,113.3,80.3z"/>
		</g>
	</g>
	<g>
		<g>
			<path class="st2" d="M96.6,35.8c0,0.1,0,0.2,0,0.3c0-0.2,0-0.3,0-0.5L96.6,35.8z"/>
		</g>
		<g>
			<path class="st2" d="M96.6,36.7c0,0.2,0.1,0.4,0.1,0.5c0,0.1,0,0.2,0,0.3c0,0.1,0,0.2-0.1,0.3c0,0.1,0,0.1-0.1,0.2
				C96.5,37.6,96.5,37.2,96.6,36.7z"/>
		</g>
		<g>
			<path class="st2" d="M70.6,35.8c0,0.1,0,0.2,0,0.3c0-0.2,0-0.3,0-0.5L70.6,35.8z"/>
		</g>
		<g>
			<path class="st2" d="M70.6,36.8c0,0.2,0.1,0.3,0.1,0.5c0,0.1,0,0.2,0,0.3c0,0.1,0,0.2-0.1,0.3c0,0.1,0,0.1-0.1,0.2
				C70.6,37.7,70.6,37.3,70.6,36.8z"/>
		</g>
		<g>
			<path class="st2" d="M85.4,47.8c0,0.2-0.1,0.4-0.1,0.5l0,0.4c0,0.2,0,0.4,0,0.6l0,0.4l0,0.2l0,0.2c0,0.1,0,0.3,0,0.5
				c0,0.2,0,0.3,0.1,0.5l0.1,0.5c0,0.2,0,0.3,0.1,0.5c0,0.2,0,0.4,0,0.6l0.1,0.6c0,0.2,0.1,0.4,0.2,0.6c0,0.1,0.1,0.2,0.1,0.3
				c0,0,0,0.1,0.1,0.1c0,0,0,0,0,0c0,0,0,0,0.1,0c0,0,0,0,0.1,0c0,0,0,0,0.1,0c0,0,0.1,0,0.1,0c0,0,0.1,0,0.1,0l0.1,0h0l0,0
				c0,0,0.1,0,0.1,0c0.1,0,0.1,0,0.2,0c0.1,0,0.1,0,0.2,0c0,0,0.1,0,0.1,0c0,0,0.1,0,0.1,0c0.1,0,0.1,0,0.1-0.1c0,0,0.1,0,0.1,0
				c0,0,0.1,0,0.1,0c0,0,0,0,0.1,0c0,0,0,0,0.1,0c0,0,0,0,0.1,0c0,0,0,0,0.1-0.1c0.1-0.1,0.1-0.1,0.1-0.2c0-0.1,0-0.1,0.1-0.2
				c0-0.1,0.1-0.2,0.1-0.3c0-0.2,0.1-0.4,0.1-0.7l0-0.7c0-0.2,0.1-0.5,0.1-0.7c0-0.1,0-0.2,0-0.4s0-0.2-0.1-0.3
				c-0.1-0.2-0.2-0.4-0.2-0.6c0-0.2,0-0.4,0-0.6c0-0.2,0-0.4-0.1-0.6c0-0.2-0.1-0.4-0.1-0.5c0-0.2-0.1-0.4-0.1-0.5
				c-0.1-0.2-0.1-0.3-0.1-0.4l-0.1-0.4c0-0.1-0.1-0.3-0.1-0.4c-0.1-0.1-0.1-0.2-0.2-0.3c-0.1-0.2-0.3-0.3-0.5-0.4c0,0,0,0,0,0
				c0,0,0,0,0,0c0,0,0,0,0,0c0,0,0,0,0,0c0,0,0,0,0,0h0c0,0,0,0,0,0l-0.1,0c0,0,0,0-0.1,0c0,0-0.1,0-0.1,0c-0.1,0-0.1,0-0.2,0
				c0,0-0.1,0-0.1,0c-0.1,0-0.1,0-0.1,0c0,0,0,0,0,0c0,0,0,0,0,0c0,0,0,0,0,0c0,0,0.1,0,0.1,0c0,0-0.1,0-0.1,0c0,0,0,0,0,0l0,0.1
				c0,0,0,0,0,0c-0.1-0.1-0.1-0.1-0.2-0.1c0,0,0,0,0,0c0,0,0,0,0,0c0,0,0,0,0,0c-0.1,0-0.1,0.2-0.1,0.6c0,0-0.1,0.1-0.1,0.1
				c-0.1,0.1-0.2,0.3-0.2,0.4c-0.1,0.2-0.1,0.3-0.1,0.5C85.4,47.5,85.4,47.6,85.4,47.8z M87.5,50.7c0,0.1,0.1,0.2,0.1,0.3
				c0,0.1,0,0.2,0,0.3c0,0.2-0.1,0.3-0.1,0.5c0-0.4,0-0.8,0-1.3C87.5,50.6,87.5,50.6,87.5,50.7z M87.5,52.4c0,0.1,0,0.2,0,0.3
				c0,0.1,0,0.1,0,0.2C87.5,52.8,87.5,52.6,87.5,52.4z"/>
		</g>
		<g>
			<path class="st2" d="M91.6,45.6c-0.1,0.1-0.2,0.3-0.2,0.4c-0.1,0.2-0.1,0.3-0.1,0.5c0,0.2,0,0.3,0,0.5c0,0.2-0.1,0.4-0.1,0.5
				l0,0.4c0,0.2,0,0.4,0,0.6l0,0.4l0,0.2l0,0.2c0,0.1,0,0.3,0,0.5c0,0.2,0,0.3,0.1,0.5l0.1,0.5c0,0.2,0.1,0.3,0.1,0.5
				c0,0.2,0,0.4,0,0.6l0.1,0.6c0,0.2,0.1,0.4,0.2,0.6c0,0.1,0.1,0.2,0.1,0.3c0,0,0,0.1,0.1,0.1c0,0,0,0,0,0c0,0,0,0,0.1,0
				c0,0,0,0,0.1,0c0,0,0,0,0.1,0c0,0,0.1,0,0.1,0c0,0,0.1,0,0.1,0l0.1,0l0,0l0,0c0,0,0.1,0,0.1,0c0.1,0,0.1,0,0.2,0
				c0.1,0,0.1,0,0.2,0c0,0,0.1,0,0.1,0c0,0,0.1,0,0.1,0c0.1,0,0.1,0,0.1-0.1c0,0,0.1,0,0.1,0c0,0,0.1,0,0.1,0c0,0,0,0,0.1,0
				c0,0,0,0,0.1,0c0,0,0,0,0.1,0c0,0,0,0,0.1-0.1c0.1-0.1,0.1-0.1,0.1-0.2c0-0.1,0-0.1,0.1-0.2c0-0.1,0.1-0.2,0.1-0.3
				c0-0.2,0-0.4,0.1-0.7l0-0.7c0-0.2,0.1-0.5,0.1-0.7c0-0.1,0-0.2,0-0.4c0-0.1,0-0.2-0.1-0.3c-0.1-0.2-0.2-0.4-0.2-0.6
				c0-0.2,0-0.4,0-0.6c0-0.2,0-0.4-0.1-0.6c0-0.2-0.1-0.4-0.1-0.5c0-0.2-0.1-0.4-0.1-0.5c-0.1-0.2-0.1-0.3-0.1-0.4l-0.1-0.4
				c0-0.1-0.1-0.3-0.1-0.4c-0.1-0.1-0.1-0.2-0.2-0.3c-0.1-0.2-0.3-0.3-0.5-0.4c0,0,0,0,0,0c0,0,0,0,0,0c0,0,0,0,0,0c0,0,0,0,0,0
				c0,0,0,0,0,0h0c0,0,0,0,0,0l-0.1,0c0,0,0,0-0.1,0c0,0-0.1,0-0.1,0c-0.1,0-0.1,0-0.2,0c0,0-0.1,0-0.1,0c-0.1,0-0.1,0-0.1,0
				c0,0,0,0,0,0c0,0,0,0,0,0c0,0,0,0,0,0c0,0,0.1,0,0.1,0c0,0-0.1,0-0.1,0c0,0,0,0,0,0l0,0.1c0,0,0,0,0,0c-0.1-0.1-0.1-0.1-0.2-0.1
				c0,0,0,0,0,0c0,0,0,0,0,0c0,0,0,0,0,0c-0.1,0-0.1,0.2-0.1,0.5C91.6,45.5,91.6,45.5,91.6,45.6z M93.4,49.8c0,0.1,0.1,0.2,0.1,0.3
				c0,0.1,0,0.2,0,0.3c0,0.2-0.1,0.3-0.1,0.5c0-0.4,0-0.8-0.1-1.3C93.3,49.7,93.3,49.8,93.4,49.8z M93.3,51.6c0,0.1,0,0.2,0,0.3
				c0,0.1,0,0.1,0,0.2C93.3,51.9,93.3,51.8,93.3,51.6z"/>
		</g>
		<g>
			<path class="st2" d="M80.4,61.6c-0.1-0.2-0.2-0.4-0.2-0.6c0-0.2,0-0.4,0-0.6c0-0.2,0-0.4-0.1-0.6c0-0.2-0.1-0.4-0.1-0.5
				c0-0.2-0.1-0.3-0.1-0.5c-0.1-0.2-0.1-0.3-0.1-0.4l-0.1-0.4c0-0.1-0.1-0.3-0.1-0.4c-0.1-0.1-0.1-0.2-0.2-0.3
				c-0.1-0.2-0.3-0.3-0.5-0.4c0,0,0,0,0,0c0,0,0,0,0,0c0,0,0,0,0,0c0,0,0,0,0,0c0,0,0,0,0,0h0c0,0,0,0,0,0l-0.1,0c0,0,0,0-0.1,0
				c0,0-0.1,0-0.1,0c-0.1,0-0.1,0-0.2,0c0,0-0.1,0-0.1,0c-0.1,0-0.1,0-0.1,0c0,0,0,0,0,0c0,0,0,0,0,0c0,0,0,0,0,0c0,0,0,0,0,0l0,0.1
				c0,0,0,0,0,0c-0.1-0.1-0.1-0.1-0.2-0.1c0,0,0,0,0,0c0,0,0,0,0,0c0,0,0,0,0,0c-0.1,0-0.1,0.2-0.1,0.6c0,0-0.1,0.1-0.1,0.1
				c-0.1,0.1-0.2,0.3-0.2,0.4c-0.1,0.2-0.1,0.3-0.1,0.5c0,0.2,0,0.3,0,0.5c0,0.2-0.1,0.4-0.1,0.5l0,0.4c0,0.2,0,0.4,0,0.6l0,0.4
				l0,0.2l0,0.2c0,0.1,0,0.3,0,0.5c0,0.2,0,0.3,0.1,0.5l0.1,0.5c0,0.2,0.1,0.3,0.1,0.5c0,0.2,0,0.4,0,0.6l0.1,0.6
				c0,0.2,0.1,0.4,0.2,0.6c0,0.1,0.1,0.2,0.1,0.3c0,0,0,0.1,0.1,0.1c0,0,0,0,0,0c0,0,0,0,0.1,0c0,0,0,0,0.1,0c0,0,0,0,0.1,0
				c0,0,0.1,0,0.1,0c0,0,0.1,0,0.1,0l0.1,0h0l0,0c0,0,0.1,0,0.1,0c0.1,0,0.1,0,0.2,0c0.1,0,0.1,0,0.2,0c0,0,0.1,0,0.1,0
				c0,0,0.1,0,0.1,0c0.1,0,0.1,0,0.1-0.1c0,0,0.1,0,0.1,0c0,0,0.1,0,0.1,0c0,0,0,0,0.1,0c0,0,0,0,0.1,0c0,0,0,0,0.1,0
				c0,0,0,0,0.1-0.1c0.1-0.1,0.1-0.1,0.1-0.2c0-0.1,0-0.1,0.1-0.2c0-0.1,0.1-0.2,0.1-0.3c0-0.2,0.1-0.4,0.1-0.7l0-0.7
				c0-0.2,0.1-0.5,0.1-0.7c0-0.1,0-0.2,0-0.4C80.4,61.8,80.4,61.7,80.4,61.6z M79.6,63.9c0,0.1,0,0.1,0,0.2c0-0.1,0-0.3,0-0.5
				C79.6,63.7,79.6,63.8,79.6,63.9z M79.7,62.5c0,0.2-0.1,0.3-0.1,0.5c0-0.4,0-0.8-0.1-1.3c0,0.1,0,0.1,0.1,0.2
				c0,0.1,0.1,0.2,0.1,0.3C79.8,62.2,79.7,62.3,79.7,62.5z"/>
		</g>
		<g>
			<path class="st2" d="M86.5,61.4c-0.1-0.2-0.2-0.4-0.2-0.6c0-0.2,0-0.4,0-0.6c0-0.2,0-0.4-0.1-0.6c0-0.2-0.1-0.4-0.1-0.5
				c0-0.2-0.1-0.4-0.2-0.5c-0.1-0.2-0.1-0.3-0.1-0.4l-0.1-0.4c0-0.1-0.1-0.3-0.1-0.4c-0.1-0.1-0.1-0.2-0.2-0.3
				c-0.1-0.2-0.3-0.3-0.5-0.4c0,0,0,0,0,0c0,0,0,0,0,0c0,0,0,0,0,0c0,0,0,0,0,0c0,0,0,0,0,0l0,0c0,0,0,0,0,0l-0.1,0c0,0,0,0-0.1,0
				c0,0-0.1,0-0.1,0c-0.1,0-0.1,0-0.2,0c0,0-0.1,0-0.1,0c0,0-0.1,0-0.1,0c0,0,0,0,0,0c0,0,0,0,0,0c0,0,0,0,0,0c0,0,0,0,0,0l0,0.1
				c0,0,0,0,0,0c-0.1-0.1-0.1-0.1-0.2-0.1c0,0,0,0,0,0c0,0,0,0,0,0c0,0,0,0,0,0c-0.1,0-0.1,0.2-0.1,0.6c0,0-0.1,0.1-0.1,0.1
				c-0.1,0.1-0.2,0.3-0.2,0.4c-0.1,0.2-0.1,0.3-0.1,0.5c0,0.2,0,0.3,0,0.5c0,0.2-0.1,0.4-0.1,0.5l0,0.4c0,0.2,0,0.4,0,0.6l0,0.4
				l0,0.2l0,0.2c0,0.1,0,0.3,0,0.5c0,0.2,0,0.3,0.1,0.5l0.1,0.5c0,0.2,0.1,0.3,0.1,0.5c0,0.2,0,0.4,0,0.6l0.1,0.6
				c0,0.2,0.1,0.4,0.2,0.6c0,0.1,0.1,0.2,0.1,0.3c0,0,0,0.1,0.1,0.1c0,0,0,0,0,0c0,0,0,0,0.1,0c0,0,0,0,0.1,0c0,0,0,0,0.1,0
				c0,0,0.1,0,0.1,0c0,0,0.1,0,0.1,0l0.1,0h0l0,0c0,0,0.1,0,0.1,0c0.1,0,0.1,0,0.2,0c0.1,0,0.1,0,0.2,0c0,0,0.1,0,0.1,0
				c0,0,0.1,0,0.1,0c0.1,0,0.1,0,0.1,0c0,0,0.1,0,0.1,0c0,0,0.1,0,0.1,0c0,0,0,0,0.1,0c0,0,0,0,0.1,0c0,0,0,0,0.1,0c0,0,0,0,0.1-0.1
				c0.1-0.1,0.1-0.1,0.1-0.2c0-0.1,0-0.1,0.1-0.2c0-0.1,0.1-0.2,0.1-0.3c0-0.2,0.1-0.4,0.1-0.7l0-0.7c0-0.2,0.1-0.5,0.1-0.7
				c0-0.1,0-0.2,0-0.4C86.5,61.7,86.5,61.5,86.5,61.4z M85.7,63.7c0,0.1,0,0.1,0,0.2c0-0.1,0-0.3,0-0.5
				C85.7,63.5,85.7,63.6,85.7,63.7z M85.8,62.3c0,0.2-0.1,0.3-0.1,0.5c0-0.4,0-0.8,0-1.3c0,0.1,0,0.1,0.1,0.2c0,0.1,0.1,0.2,0.1,0.3
				C85.8,62.1,85.8,62.2,85.8,62.3z"/>
		</g>
		<g>
			<path class="st2" d="M92.5,61.1c-0.1-0.2-0.2-0.4-0.2-0.6c0-0.2,0-0.4,0-0.6c0-0.2,0-0.4-0.1-0.6c0-0.2-0.1-0.4-0.1-0.5
				c0-0.2-0.1-0.4-0.1-0.5c-0.1-0.2-0.1-0.3-0.1-0.4l-0.1-0.4c0-0.1-0.1-0.3-0.1-0.4c-0.1-0.1-0.1-0.2-0.2-0.3
				c-0.1-0.2-0.3-0.3-0.5-0.4c0,0,0,0,0,0c0,0,0,0,0,0c0,0,0,0,0,0c0,0,0,0,0,0c0,0,0,0,0,0h0c0,0,0,0,0,0l-0.1,0c0,0,0,0-0.1,0
				c0,0-0.1,0-0.1,0c-0.1,0-0.1,0-0.2,0c0,0-0.1,0-0.1,0c0,0-0.1,0-0.1,0c0,0,0,0,0,0c0,0,0,0,0,0c0,0,0,0,0,0c0,0,0,0,0,0l0,0.1
				c0,0,0,0,0,0c-0.1-0.1-0.1-0.1-0.2-0.1c0,0,0,0,0,0c0,0,0,0,0,0c0,0,0,0,0,0c-0.1,0-0.1,0.2-0.1,0.6c0,0-0.1,0.1-0.1,0.1
				c-0.1,0.1-0.2,0.3-0.2,0.4c-0.1,0.2-0.1,0.3-0.1,0.5c0,0.2,0,0.3,0,0.5c0,0.2-0.1,0.4-0.1,0.5l0,0.4c0,0.2,0,0.4,0,0.6l0,0.4
				l0,0.2l0,0.2c0,0.1,0,0.3,0,0.5c0,0.2,0,0.3,0.1,0.5l0.1,0.5c0,0.2,0.1,0.3,0.1,0.5c0,0.2,0,0.4,0,0.6l0.1,0.6
				c0,0.2,0.1,0.4,0.2,0.6c0,0.1,0.1,0.2,0.1,0.3c0,0,0,0.1,0.1,0.1c0,0,0,0,0,0c0,0,0,0,0.1,0c0,0,0,0,0.1,0c0,0,0,0,0.1,0
				c0,0,0.1,0,0.1,0c0,0,0.1,0,0.1,0l0.1,0h0l0,0c0,0,0.1,0,0.1,0c0.1,0,0.1,0,0.2,0c0.1,0,0.1,0,0.2,0c0,0,0.1,0,0.1,0
				c0,0,0.1,0,0.1,0c0.1,0,0.1,0,0.1-0.1c0,0,0.1,0,0.1,0c0,0,0.1,0,0.1,0c0,0,0,0,0.1,0c0,0,0,0,0.1,0c0,0,0,0,0.1,0
				c0,0,0,0,0.1-0.1c0.1-0.1,0.1-0.1,0.1-0.2c0-0.1,0-0.1,0.1-0.2c0-0.1,0.1-0.2,0.1-0.3c0-0.2,0.1-0.4,0.1-0.7l0-0.7
				c0-0.2,0.1-0.5,0.1-0.7c0-0.1,0-0.2,0-0.4C92.6,61.3,92.5,61.2,92.5,61.1z M91.8,63.4c0,0.1,0,0.1,0,0.2c0-0.1,0-0.3,0-0.5
				C91.8,63.2,91.8,63.3,91.8,63.4z M91.9,61.9c0,0.2-0.1,0.3-0.1,0.5c0-0.4,0-0.8-0.1-1.3c0,0.1,0,0.1,0.1,0.2
				c0,0.1,0.1,0.2,0.1,0.3C91.9,61.7,91.9,61.8,91.9,61.9z"/>
		</g>
		<g>
			<path class="st2" d="M88.3,66.6C88.3,66.6,88.3,66.6,88.3,66.6C88.3,66.6,88.3,66.6,88.3,66.6L88.3,66.6
				C88.3,66.6,88.3,66.6,88.3,66.6L88.3,66.6c-0.1,0-0.1,0-0.1,0c0,0-0.1,0-0.1,0c-0.1,0-0.1,0-0.2,0c0,0-0.1,0-0.1,0
				c-0.1,0-0.1,0-0.1,0c0,0,0,0,0,0c0,0,0,0,0,0c0,0,0,0,0,0c0,0,0,0,0,0l0,0.1c0,0,0,0,0,0c-0.1-0.1-0.1-0.1-0.2-0.1c0,0,0,0,0,0
				c0,0,0,0,0,0c0,0,0,0,0,0c-0.1,0-0.1,0.2-0.1,0.6c0,0-0.1,0.1-0.1,0.1c-0.1,0.1-0.2,0.3-0.2,0.4C87,68,87,68.1,87,68.3
				c0,0.2,0,0.3,0,0.5c0,0.2-0.1,0.4-0.1,0.5l0,0.4c0,0.2,0,0.4,0,0.6l0,0.4l0,0.2l0,0.2c0,0.1,0,0.3,0,0.5c0,0.2,0,0.3,0.1,0.5
				l0.1,0.5c0,0.2,0.1,0.3,0.1,0.5c0,0.2,0,0.4,0,0.6l0.1,0.6c0,0.2,0.1,0.4,0.2,0.6c0,0.1,0.1,0.2,0.1,0.3c0,0,0,0.1,0.1,0.1
				c0,0,0,0,0,0c0,0,0,0,0.1,0c0,0,0,0,0.1,0c0,0,0,0,0.1,0c0,0,0.1,0,0.1,0c0,0,0.1,0,0.1,0l0.1,0l0,0h0c0,0,0.1,0,0.1,0
				c0.1,0,0.1,0,0.2,0c0.1,0,0.1,0,0.2,0c0,0,0.1,0,0.1,0c0,0,0.1,0,0.1,0c0.1,0,0.1,0,0.1-0.1c0,0,0.1,0,0.1,0c0,0,0.1,0,0.1,0
				c0,0,0,0,0.1,0c0,0,0,0,0.1,0c0,0,0,0,0.1,0c0,0,0,0,0.1-0.1c0.1-0.1,0.1-0.1,0.1-0.2c0-0.1,0-0.1,0.1-0.2c0-0.1,0.1-0.2,0.1-0.3
				c0-0.2,0-0.4,0.1-0.7l0-0.7c0-0.2,0.1-0.5,0.1-0.7c0-0.1,0-0.2,0-0.4c0-0.1,0-0.2-0.1-0.3c-0.1-0.2-0.2-0.4-0.2-0.6
				c0-0.2,0-0.4,0-0.6c0-0.2,0-0.4-0.1-0.6c0-0.2-0.1-0.4-0.1-0.5c0-0.2-0.1-0.4-0.1-0.5c-0.1-0.2-0.1-0.3-0.1-0.4l-0.1-0.4
				c0-0.1-0.1-0.3-0.1-0.4c-0.1-0.1-0.1-0.2-0.2-0.3C88.7,66.9,88.5,66.7,88.3,66.6C88.4,66.7,88.4,66.7,88.3,66.6
				C88.3,66.6,88.3,66.6,88.3,66.6C88.3,66.6,88.3,66.6,88.3,66.6z M89.1,71.7c0,0.1,0.1,0.2,0.1,0.3c0,0.1,0,0.2,0,0.3
				c0,0.2-0.1,0.3-0.1,0.5c0-0.4,0-0.8,0-1.3C89.1,71.6,89.1,71.6,89.1,71.7z M89.1,73.4c0,0.1,0,0.2,0,0.3c0,0.1,0,0.1,0,0.2
				C89.1,73.7,89.1,73.6,89.1,73.4z"/>
		</g>
		<g>
			<path class="st2" d="M83.7,75.7C83.8,75.7,83.8,75.7,83.7,75.7c0.1-0.1,0.1-0.1,0.1-0.1c0,0,0,0,0.1,0c0,0,0,0,0.1,0
				c0,0,0,0,0.1-0.1c0.1-0.1,0.1-0.1,0.1-0.2c0-0.1,0-0.1,0.1-0.2c0-0.1,0.1-0.2,0.1-0.3c0-0.2,0.1-0.4,0.1-0.7l0-0.7
				c0-0.2,0.1-0.5,0.1-0.7c0-0.1,0-0.2,0-0.4c0-0.1,0-0.2-0.1-0.3c-0.1-0.2-0.2-0.4-0.2-0.6c0-0.2,0-0.4,0-0.6c0-0.2,0-0.4-0.1-0.6
				c0-0.2-0.1-0.4-0.1-0.5c0-0.2-0.1-0.3-0.2-0.5c-0.1-0.2-0.1-0.3-0.1-0.4l-0.1-0.4c0-0.1-0.1-0.3-0.1-0.4
				c-0.1-0.1-0.1-0.2-0.2-0.3c-0.1-0.2-0.3-0.3-0.5-0.4c0,0,0,0,0,0c0,0,0,0,0,0c0,0,0,0,0,0c0,0,0,0,0,0c0,0,0,0,0,0l0,0
				c0,0,0,0,0,0l-0.1,0c0,0,0,0-0.1,0c0,0-0.1,0-0.1,0c-0.1,0-0.1,0-0.2,0c0,0-0.1,0-0.1,0c-0.1,0-0.1,0-0.1,0c0,0,0,0,0,0
				c0,0,0,0,0,0c0,0,0,0,0,0c0,0,0,0,0,0l0,0.1c0,0,0,0,0,0c-0.1-0.1-0.1-0.1-0.2-0.1c0,0,0,0,0,0c0,0,0,0,0,0c0,0,0,0,0,0
				c-0.1,0-0.1,0.2-0.1,0.6c0,0-0.1,0.1-0.1,0.1c-0.1,0.1-0.2,0.3-0.2,0.4c-0.1,0.2-0.1,0.3-0.1,0.5c0,0.2,0,0.3,0,0.5
				c0,0.2-0.1,0.4-0.1,0.5l0,0.4c0,0.2,0,0.4,0,0.6l0,0.4l0,0.2l0,0.2c0,0.1,0,0.3,0,0.5c0,0.2,0,0.3,0.1,0.5l0.1,0.5
				c0,0.2,0.1,0.3,0.1,0.5c0,0.2,0,0.4,0,0.6l0.1,0.6c0,0.2,0.1,0.4,0.2,0.6c0,0.1,0.1,0.2,0.1,0.3c0,0,0,0.1,0.1,0.1c0,0,0,0,0,0
				c0,0,0,0,0.1,0c0,0,0,0,0.1,0c0,0,0,0,0.1,0c0,0,0.1,0,0.1,0c0,0,0.1,0,0.1,0l0.1,0l0,0h0c0,0,0.1,0,0.1,0c0.1,0,0.1,0,0.2,0
				c0.1,0,0.1,0,0.2,0c0,0,0.1,0,0.1,0c0,0,0.1,0,0.1,0C83.5,75.8,83.6,75.7,83.7,75.7C83.7,75.7,83.7,75.7,83.7,75.7z M83.6,74.3
				c0,0.1,0,0.1,0,0.2c0-0.1,0-0.3,0-0.5C83.6,74.1,83.6,74.2,83.6,74.3z M83.6,72.1c0,0.1,0,0.1,0.1,0.2c0,0.1,0.1,0.2,0.1,0.3
				c0,0.1,0,0.2,0,0.3c0,0.2-0.1,0.3-0.1,0.5C83.6,73,83.6,72.6,83.6,72.1z"/>
		</g>
		<g>
			<path class="st2" d="M75.7,50.6c-0.1-0.2-0.2-0.4-0.1-0.6c0-0.2,0-0.4,0.1-0.6c0-0.2,0-0.4-0.1-0.6c0-0.2-0.1-0.4-0.1-0.5
				c0-0.2-0.1-0.4-0.1-0.5c-0.1-0.2-0.1-0.3-0.1-0.4l-0.1-0.4c0-0.1-0.1-0.3-0.1-0.4c-0.1-0.1-0.1-0.2-0.2-0.3
				c-0.1-0.2-0.3-0.3-0.5-0.4c0,0,0,0,0,0c0,0,0,0,0,0c0,0,0,0,0,0c0,0,0,0,0,0c0,0,0,0,0,0l0,0c0,0,0,0,0,0l-0.1,0c0,0,0,0-0.1,0
				c0,0-0.1,0-0.1,0c-0.1,0-0.1,0-0.2,0c0,0-0.1,0-0.1,0c0,0-0.1,0-0.1,0c0,0,0,0,0,0c0,0,0,0,0,0c0,0,0,0,0,0c0,0,0.1,0,0.1,0
				c0,0-0.1,0-0.1,0c0,0,0,0,0,0l0,0.1c0,0,0,0,0,0c-0.1-0.1-0.1-0.1-0.2-0.1c0,0,0,0,0,0c0,0,0,0,0,0c0,0,0,0,0,0
				c-0.1,0-0.1,0.2-0.1,0.6c0,0-0.1,0.1-0.1,0.1c-0.1,0.1-0.2,0.3-0.2,0.4C73,47.1,73,47.3,73,47.4c0,0.2,0,0.3-0.1,0.5
				c0,0.2-0.1,0.4-0.1,0.5l0,0.4c0,0.2,0,0.4,0,0.6l0,0.4l0,0.2l0,0.2c0,0.1,0,0.3,0,0.5c0,0.2,0,0.3,0.1,0.5l0.1,0.5
				c0,0.2,0,0.3,0,0.5c0,0.2,0,0.4,0,0.6l0.1,0.6c0,0.2,0.1,0.4,0.2,0.6c0,0.1,0.1,0.2,0.1,0.3c0,0,0,0.1,0.1,0.1c0,0,0,0,0,0
				c0,0,0,0,0.1,0c0,0,0,0,0.1,0c0,0,0,0,0.1,0c0,0,0.1,0,0.1,0c0,0,0.1,0,0.1,0l0.1,0h0l0,0c0,0,0.1,0,0.1,0c0.1,0,0.1,0,0.2,0
				c0.1,0,0.1,0,0.2,0c0,0,0.1,0,0.1,0c0,0,0.1,0,0.1,0c0.1,0,0.1,0,0.1,0c0,0,0.1,0,0.1,0c0,0,0.1,0,0.1,0c0,0,0,0,0.1,0
				c0,0,0,0,0.1,0c0,0,0,0,0.1,0c0,0,0,0,0.1-0.1c0.1-0.1,0.1-0.1,0.1-0.2c0-0.1,0-0.1,0.1-0.2c0-0.1,0.1-0.2,0.1-0.3
				c0-0.2,0.1-0.4,0.1-0.7l0-0.7c0-0.2,0.1-0.5,0.1-0.7c0-0.1,0-0.2,0-0.4C75.8,50.8,75.8,50.7,75.7,50.6z M75,52.9
				c0,0.1,0,0.1,0,0.2c0-0.1,0-0.3,0-0.5C75,52.7,75,52.8,75,52.9z M75.1,51.5c0,0.2-0.1,0.3-0.1,0.5c0-0.4,0-0.8,0-1.3
				c0,0.1,0,0.1,0.1,0.2c0,0.1,0.1,0.2,0.1,0.3C75.1,51.2,75.1,51.3,75.1,51.5z"/>
		</g>
		<g>
			<path class="st2" d="M81.5,54.5c0.1,0,0.1,0,0.1-0.1c0,0,0.1,0,0.1,0c0,0,0.1,0,0.1,0c0,0,0,0,0.1,0c0,0,0,0,0.1,0c0,0,0,0,0.1,0
				c0,0,0,0,0.1-0.1c0.1-0.1,0.1-0.1,0.1-0.2c0-0.1,0-0.1,0.1-0.2c0-0.1,0.1-0.2,0.1-0.3c0-0.2,0.1-0.4,0.1-0.7l0-0.7
				c0-0.2,0.1-0.5,0.1-0.7c0-0.1,0-0.2,0-0.4c0-0.1,0-0.2-0.1-0.3c-0.1-0.2-0.2-0.4-0.1-0.6c0-0.2,0-0.4,0.1-0.6
				c0-0.2,0-0.4-0.1-0.6c0-0.2-0.1-0.4-0.1-0.5c0-0.2-0.1-0.4-0.1-0.5c-0.1-0.2-0.1-0.3-0.1-0.4L81.8,47c0-0.1-0.1-0.3-0.1-0.4
				c-0.1-0.1-0.1-0.2-0.2-0.3c-0.1-0.2-0.3-0.3-0.5-0.4c0,0,0,0,0,0c0,0,0,0,0,0c0,0,0,0,0,0c0,0,0,0,0,0c0,0,0,0,0,0h0c0,0,0,0,0,0
				l-0.1,0c0,0,0,0-0.1,0c0,0-0.1,0-0.1,0c-0.1,0-0.1,0-0.2,0c0,0-0.1,0-0.1,0c-0.1,0-0.1,0-0.1,0c0,0,0,0,0,0c0,0,0,0,0,0
				c0,0,0,0,0,0c0,0,0,0,0,0l0,0.1c0,0,0,0,0,0c-0.1-0.1-0.1-0.1-0.2-0.1c0,0,0,0,0,0c0,0,0,0,0,0c0,0,0,0,0,0
				c-0.1,0-0.1,0.2-0.1,0.5c0,0-0.1,0.1-0.1,0.1c-0.1,0.1-0.2,0.3-0.2,0.4c-0.1,0.2-0.1,0.3-0.1,0.5c0,0.2,0,0.3-0.1,0.5
				c0,0.2-0.1,0.4-0.1,0.5l0,0.4c0,0.2,0,0.4,0,0.6l0,0.4l0,0.2l0,0.2c0,0.1,0,0.3,0,0.5c0,0.2,0,0.3,0.1,0.5l0.1,0.5
				c0,0.2,0,0.3,0,0.5c0,0.2,0,0.4,0,0.6l0.1,0.6c0,0.2,0.1,0.4,0.2,0.6c0,0.1,0.1,0.2,0.1,0.3c0,0,0,0.1,0.1,0.1c0,0,0,0,0,0
				c0,0,0,0,0.1,0c0,0,0,0,0.1,0c0,0,0,0,0.1,0c0,0,0.1,0,0.1,0c0,0,0.1,0,0.1,0l0.1,0h0l0,0c0,0,0.1,0,0.1,0c0.1,0,0.1,0,0.2,0
				c0.1,0,0.1,0,0.2,0C81.3,54.6,81.4,54.5,81.5,54.5C81.5,54.5,81.5,54.5,81.5,54.5z M81.7,51c0,0.1,0.1,0.2,0.1,0.3
				c0,0.1,0,0.2,0,0.3c0,0.2-0.1,0.3-0.1,0.5c0-0.4,0-0.8,0-1.3C81.7,50.9,81.7,50.9,81.7,51z M81.7,52.8c0,0.1,0,0.2,0,0.3
				c0,0.1,0,0.1,0,0.2C81.6,53.1,81.6,52.9,81.7,52.8z"/>
		</g>
		<g>
			<path class="st2" d="M88.7,40c0,0.1,0,0.2,0.1,0.3c0.1,0.2,0.1,0.5,0.2,0.7l0,0.7c0,0.2,0.1,0.4,0.1,0.6c0,0.1,0.1,0.2,0.1,0.3
				c0,0.1,0,0.1,0.1,0.2c0,0.1,0.1,0.1,0.1,0.2c0,0,0,0,0.1,0.1c0,0,0,0,0.1,0c0,0,0,0,0.1,0c0,0,0,0,0.1,0c0,0,0.1,0,0.1,0
				c0,0,0.1,0,0.1,0c0,0,0.1,0,0.2,0c0,0,0.1,0,0.1,0c0,0,0.1,0,0.1,0c0.1,0,0.1,0,0.2,0c0.1,0,0.1,0,0.2,0c0,0,0.1,0,0.1,0l0,0h0
				l0.1,0c0,0,0.1,0,0.1,0c0,0,0.1,0,0.1,0c0,0,0,0,0.1,0c0.1,0,0.1,0,0.1,0c0,0,0.1,0,0.1,0c0,0,0,0,0,0c0-0.1,0.1-0.1,0.1-0.1
				c0-0.1,0.1-0.2,0.1-0.3c0-0.2,0.1-0.4,0.1-0.6l0.1-0.6c0-0.2,0-0.4,0-0.6c0-0.2,0-0.3,0-0.5l0.1-0.5c0-0.2,0-0.3,0-0.5
				c0-0.2,0-0.3-0.1-0.5l0-0.2l0-0.2l0-0.4c0-0.2,0-0.4,0-0.6l-0.1-0.4c0-0.2-0.1-0.4-0.1-0.5c0-0.1-0.1-0.3-0.1-0.5
				c0-0.2-0.1-0.3-0.1-0.4c-0.1-0.1-0.2-0.3-0.3-0.4c0,0-0.1-0.1-0.1-0.1c0-0.3-0.1-0.5-0.2-0.5c0,0,0,0,0,0c0,0,0,0,0,0
				c0,0,0,0,0,0c-0.1,0-0.1,0.1-0.2,0.1c0,0,0,0,0,0l0-0.1c0,0,0,0,0,0c0,0-0.1,0-0.1,0c0,0,0.1,0,0.1,0c0,0,0,0,0,0c0,0,0,0,0,0
				c0,0,0,0,0,0c0,0,0,0-0.1,0c0,0-0.1,0-0.1,0c-0.1,0-0.1,0-0.2,0c0,0-0.1,0-0.1,0c0,0,0,0-0.1,0l-0.1,0c0,0,0,0,0,0h0c0,0,0,0,0,0
				c0,0,0,0,0,0c0,0,0,0,0,0c0,0,0,0,0,0c0,0,0,0,0,0c-0.2,0.1-0.3,0.2-0.4,0.4c-0.1,0.1-0.1,0.2-0.2,0.3c-0.1,0.1-0.1,0.2-0.1,0.4
				l0,0.4c0,0.1-0.1,0.3-0.1,0.4c0,0.2-0.1,0.3-0.1,0.5c0,0.2,0,0.3-0.1,0.5c0,0.2-0.1,0.4,0,0.6c0,0.2,0.1,0.4,0.1,0.6
				c0,0.2,0,0.4-0.1,0.6C88.7,39.7,88.7,39.8,88.7,40z M89.8,42c0-0.1,0-0.1,0-0.2c0-0.1,0-0.2,0-0.3C89.7,41.7,89.7,41.8,89.8,42z
				 M89.5,39.8c0,0,0-0.1,0.1-0.2c0,0.4,0,0.9,0.1,1.2c0-0.2-0.1-0.3-0.1-0.5c0-0.1,0-0.2-0.1-0.3C89.4,40,89.4,39.9,89.5,39.8z"/>
		</g>
		<g>
			<path class="st2" d="M77.6,43.3c0,0,0.1,0,0.1,0c0,0,0,0,0.1,0c0.1,0,0.1,0,0.1,0c0,0,0.1,0,0.1,0c0,0,0,0,0,0
				c0-0.1,0.1-0.1,0.1-0.1c0-0.1,0.1-0.2,0.1-0.3c0-0.2,0.1-0.4,0.1-0.6l0.1-0.6c0-0.2,0-0.4,0-0.6c0-0.2,0-0.3,0-0.5l0.1-0.5
				c0-0.2,0-0.3,0-0.5c0-0.2-0.1-0.3-0.1-0.5l0-0.2l0-0.2l0-0.4c0-0.2,0-0.4,0-0.6l-0.1-0.4c0-0.2-0.1-0.4-0.1-0.5
				c0-0.2-0.1-0.3-0.1-0.5c0-0.2-0.1-0.3-0.1-0.4c-0.1-0.2-0.2-0.3-0.3-0.4c0,0-0.1-0.1-0.1-0.1c0-0.3-0.1-0.5-0.2-0.5c0,0,0,0,0,0
				c0,0,0,0,0,0c0,0,0,0,0,0c-0.1,0-0.1,0.1-0.2,0.1c0,0,0,0,0,0l0-0.1c0,0,0,0,0,0c0,0-0.1,0-0.1,0c0,0,0.1,0,0.1,0c0,0,0,0,0,0
				c0,0,0,0,0,0c0,0,0,0,0,0c0,0,0,0-0.1,0c0,0-0.1,0-0.1,0c-0.1,0-0.1,0-0.2,0c0,0-0.1,0-0.1,0c0,0,0,0-0.1,0l-0.1,0c0,0,0,0,0,0h0
				c0,0,0,0,0,0c0,0,0,0,0,0c0,0,0,0,0,0c0,0,0,0,0,0c0,0,0,0,0,0c-0.2,0.1-0.3,0.2-0.4,0.4c-0.1,0.1-0.1,0.2-0.2,0.3
				c-0.1,0.1-0.1,0.2-0.1,0.4l0,0.4c0,0.1-0.1,0.3-0.1,0.4c0,0.2-0.1,0.3-0.1,0.5c0,0.2,0,0.3-0.1,0.5c0,0.2-0.1,0.4,0,0.6
				c0,0.2,0.1,0.4,0.1,0.6c0,0.2,0,0.4-0.1,0.6c0,0.1-0.1,0.2-0.1,0.3c0,0.1,0,0.2,0.1,0.3c0.1,0.2,0.1,0.5,0.2,0.7l0,0.7
				c0,0.2,0.1,0.4,0.1,0.6c0,0.1,0.1,0.2,0.1,0.3c0,0.1,0,0.1,0.1,0.2c0,0.1,0.1,0.1,0.1,0.2c0,0,0,0,0.1,0.1c0,0,0,0,0.1,0
				c0,0,0,0,0.1,0c0,0,0,0,0.1,0c0,0,0.1,0,0.1,0c0,0,0.1,0,0.1,0c0,0,0.1,0,0.2,0c0,0,0.1,0,0.1,0c0,0,0.1,0,0.1,0
				c0.1,0,0.1,0,0.2,0c0.1,0,0.1,0,0.2,0c0,0,0.1,0,0.1,0h0l0,0l0.1,0C77.5,43.3,77.5,43.3,77.6,43.3z M76.1,40.4
				c0-0.1,0-0.2-0.1-0.3c0-0.1,0-0.2,0.1-0.3c0-0.1,0-0.1,0.1-0.2c0,0.4,0,0.9,0.1,1.2C76.2,40.7,76.2,40.6,76.1,40.4z M76.4,41.8
				c0-0.1,0-0.2,0-0.3c0,0.2,0.1,0.3,0.1,0.4C76.4,41.9,76.4,41.9,76.4,41.8z"/>
		</g>
		<g>
			<path class="st2" d="M82.4,39.6c0,0.1,0,0.2,0.1,0.3c0.1,0.2,0.1,0.5,0.2,0.7l0,0.7c0,0.2,0.1,0.4,0.1,0.6c0,0.1,0.1,0.2,0.1,0.3
				c0,0.1,0,0.1,0.1,0.2c0,0.1,0.1,0.1,0.1,0.2c0,0,0,0,0.1,0.1c0,0,0,0,0.1,0c0,0,0,0,0.1,0c0,0,0,0,0.1,0c0,0,0.1,0,0.1,0
				c0,0,0.1,0,0.1,0c0,0,0.1,0,0.2,0c0,0,0.1,0,0.1,0c0,0,0.1,0,0.1,0c0.1,0,0.1,0,0.2,0c0.1,0,0.1,0,0.2,0c0,0,0.1,0,0.1,0l0,0h0
				l0.1,0c0,0,0.1,0,0.1,0c0,0,0.1,0,0.1,0c0,0,0,0,0.1,0c0.1,0,0.1,0,0.1,0c0.1,0,0.1,0,0.1,0c0,0,0,0,0,0c0-0.1,0.1-0.1,0.1-0.2
				c0-0.1,0.1-0.2,0.1-0.3c0-0.2,0.1-0.4,0.1-0.6l0.1-0.6c0-0.2,0-0.4,0-0.6c0-0.2,0-0.3,0-0.5l0.1-0.5c0-0.2,0-0.3,0-0.5
				c0-0.2,0-0.3-0.1-0.5l0-0.2l0-0.2l0-0.4c0-0.2,0-0.4,0-0.6L85.3,37c0-0.2-0.1-0.4-0.1-0.5c0-0.2-0.1-0.3-0.1-0.5
				c0-0.2-0.1-0.3-0.1-0.4c-0.1-0.1-0.2-0.3-0.3-0.4c0,0-0.1-0.1-0.1-0.1c0-0.3-0.1-0.5-0.2-0.5c0,0,0,0,0,0c0,0,0,0,0,0
				c0,0,0,0,0,0c-0.1,0-0.1,0.1-0.2,0.1c0,0,0,0,0,0l0-0.1c0,0,0,0,0,0c0,0-0.1,0-0.1,0c0,0,0.1,0,0.1,0c0,0,0,0,0,0c0,0,0,0,0,0
				c0,0,0,0,0,0c0,0,0,0-0.1,0c0,0-0.1,0-0.1,0c-0.1,0-0.1,0-0.2,0c0,0-0.1,0-0.1,0c0,0,0,0-0.1,0l-0.1,0c0,0,0,0,0,0h0c0,0,0,0,0,0
				c0,0,0,0,0,0c0,0,0,0,0,0c0,0,0,0,0,0c0,0,0,0,0,0c-0.2,0.1-0.3,0.2-0.4,0.4C83,35,83,35.1,82.9,35.2c-0.1,0.1-0.1,0.2-0.1,0.4
				l0,0.4c0,0.1-0.1,0.3-0.1,0.4c0,0.2-0.1,0.3-0.1,0.5c0,0.2,0,0.3-0.1,0.5c0,0.2-0.1,0.4,0,0.6c0,0.2,0.1,0.4,0.1,0.6
				c0,0.2,0,0.4-0.1,0.6C82.5,39.4,82.4,39.5,82.4,39.6z M83.5,41.6c0-0.1,0-0.1,0-0.2c0-0.1,0-0.2,0-0.3
				C83.5,41.3,83.5,41.5,83.5,41.6z M83.2,39.5c0,0,0-0.1,0.1-0.2c0,0.4,0,0.9,0.1,1.2c0-0.2-0.1-0.3-0.1-0.5c0-0.1,0-0.2-0.1-0.3
				C83.2,39.7,83.2,39.6,83.2,39.5z"/>
		</g>
	</g>
	<g>
		<path class="st7" d="M67.9,65.4c-0.3,0-0.5,0.1-0.6,0.4c-0.3,1.1-0.5,2-0.6,3c-0.2,0.9-0.4,1.9-0.8,2.7c-0.4,0.9-1.1,1.7-1.9,2.2
			c-0.8,0.5-1.8,0.7-2.8,0.6c-0.4,0-0.9-0.1-1.3-0.2c-0.4-0.1-0.8-0.3-1.2-0.5c-0.8-0.4-1.5-1.1-2-1.9c-0.5-0.8-0.8-1.8-0.9-2.8
			c-0.1-1,0-2,0.2-3c0.1-0.2-0.5-0.3-0.6-0.2c-0.7,0.8-1.1,1.7-1.2,2.8c-0.1,1.1,0.1,2.2,0.6,3.3c0.5,1.1,1.3,2.1,2.3,2.7
			c0.5,0.3,1,0.6,1.5,0.8c0.3,0.1,0.5,0.2,0.8,0.3l0.4,0.1l0.4,0.1c0.7,0.2,1.3,0.3,2,0.3c0.7,0,1.4-0.1,2-0.4
			c0.7-0.2,1.3-0.6,1.8-1c0.5-0.4,1-1,1.4-1.5c0.8-1.1,1.2-2.4,1.4-3.7c0.2-1.3,0.1-2.6-0.2-3.8C68.5,65.5,68.2,65.4,67.9,65.4z"/>
	</g>
	<g>
		<path class="st7" d="M101.3,65.9c-0.1-1,0-2,0.2-3c0.1-0.2-0.5-0.3-0.6-0.2c-0.7,0.8-1.1,1.7-1.2,2.8c-0.1,1.1,0.1,2.2,0.6,3.3
			c0.5,1.1,1.3,2.1,2.3,2.7c0.5,0.3,1,0.6,1.5,0.8c0.3,0.1,0.5,0.2,0.8,0.3l0.4,0.1l0.4,0.1c0.7,0.2,1.3,0.3,2,0.3
			c0.7,0,1.4-0.1,2-0.4c0.7-0.2,1.3-0.6,1.8-1c0.5-0.4,1-1,1.4-1.5c0.8-1.1,1.2-2.4,1.4-3.7c0.2-1.3,0.1-2.6-0.2-3.8
			c-0.1-0.2-0.3-0.3-0.6-0.3c-0.3,0-0.5,0.1-0.6,0.4c-0.3,1.1-0.5,2-0.6,3c-0.2,0.9-0.4,1.9-0.8,2.7c-0.4,0.9-1.1,1.7-1.9,2.2
			c-0.8,0.5-1.8,0.7-2.8,0.6c-0.4,0-0.9-0.1-1.3-0.2c-0.4-0.1-0.8-0.3-1.2-0.5c-0.8-0.4-1.5-1.1-2-1.9
			C101.7,67.9,101.4,66.9,101.3,65.9z"/>
	</g>
	<g>
		<linearGradient id="SVGID_2_" gradientUnits="userSpaceOnUse" x1="50.2401" y1="35.197" x2="57.882" y2="35.197">
			<stop  offset="0" style="stop-color:#EF537A"/>
			<stop  offset="1" style="stop-color:#4A3D97"/>
		</linearGradient>
		<path class="st8" d="M50.7,40.7c1.3,0.2,1.3-2.5,1.9-3.7c0.3,0.5,0.4,2.8,1.2,3.1c1.2,0.4,1.1-2.1,1.2-3c0-0.1,0.9,3.3,2,3.1
			c1.9-0.2,0.4-4.3-0.4-6.2c-0.8-1.8-2.9-4.4-3.4-4.4C51.9,29.8,49.1,40.4,50.7,40.7z"/>
	</g>
	<g>
		<linearGradient id="SVGID_3_" gradientUnits="userSpaceOnUse" x1="108.3523" y1="31.8709" x2="114.7484" y2="31.8709">
			<stop  offset="0" style="stop-color:#EF537A"/>
			<stop  offset="1" style="stop-color:#4A3D97"/>
		</linearGradient>
		<path class="st9" d="M109.3,36.5c0.9,0.1,1.3-2.8,1.3-2.7c0.2,0.8,0.4,3.1,1.3,2.7c0.6-0.2,0.5-2.2,0.6-2.7c0.6,1.1,0.9,3.5,2,3.3
			c1.3-0.2-3-11.2-3.8-10.6c-0.8,0.6-1.4,2.9-1.8,4.5C108.5,32.7,107.7,36.2,109.3,36.5z"/>
	</g>
	<g>
		<path class="st0" d="M134.6,96.2c0.5,1,0.8,2.1,0.9,3.2c0.1,1.2,0,2.4-0.4,3.5c-0.4,1.1-1.1,2.2-1.9,3.1c-0.8,0.9-1.8,1.7-2.9,2.3
			c-1.1,0.6-2.2,1.1-3.5,1.5c-1.2,0.4-2.5,0.6-3.7,0.7c-0.3,0-0.6,0-0.9,0c-0.3,0-0.6,0-1,0c-0.6,0-1.3-0.1-1.9-0.3
			c-0.5-0.1-1.1-0.3-1.6-0.5c-0.2-0.1-0.5-0.2-0.7-0.3c-0.2-0.1-0.3-0.1-0.5-0.2c-0.2-0.1-0.5-0.2-0.7-0.3c-1.2-0.7-2.4-1.4-3.5-2.3
			c-1.1-0.9-2.1-1.8-3.2-2.7c-2-1.8-4-3.7-6.3-5.2c-1.1-0.8-2.3-1.4-3.5-1.9c-0.6-0.2-1.2-0.5-1.9-0.6c-0.6-0.2-1.3-0.3-1.9-0.3
			c-1.3-0.1-2.6-0.1-3.9,0.2c-0.6,0.1-1.2,0.3-1.8,0.6c-0.5,0.2-2.9,1.8-3.6,2.3c-0.5-0.3-2-1-2.5-1.2c-1-0.4-2-0.6-3.1-0.7
			c-1.8-0.2-3.7,0-5.4,0.3c-0.4,0.1-0.9,0.2-1.3,0.3c-0.4,0.1-0.9,0.3-1.3,0.4c-0.8,0.3-1.7,0.7-2.5,1.1c-1.5,0.8-2.9,1.7-4.3,2.8
			c-1.3,1.1-2.6,2.2-3.8,3.4c-2.5,2.3-4.8,4.8-7.6,6.9c-1.3,1-2.7,1.9-4.2,2.6c-0.8,0.4-1.6,0.7-2.4,0.9c-0.2,0.1-0.5,0.1-0.7,0.2
			c-0.6,0.1-1.2,0.3-1.8,0.3c-0.1,0-0.2,0-0.3,0c-0.8,0.1-1.5,0.1-2.3,0.1c-0.9,0-1.7,0-2.6-0.1c-1.7-0.2-3.4-0.5-5-1
			c-1.6-0.5-3.2-1.2-4.6-2c-1.4-0.8-2.7-1.9-3.8-3.1c-1-1.2-1.8-2.7-2.1-4.2c-0.2-1.1-0.3-2.1-0.2-3.2c-5.5,10,7.1,19.6,20.1,19.1
			c0.4,0.4,0.8,0.7,1.3,1c1.2,0.9,2.5,1.7,3.9,2.5c2.8,1.5,5.9,2.6,9.2,3.5c1.6,0.4,3.3,0.8,4.9,1.1c1.6,0.3,3.3,0.5,4.9,0.6
			c0.4,0,0.8,0,1.2,0.1l1.2,0c0.8,0,1.6,0,2.3,0.1c1.5,0,3.1,0,4.5,0.1c4,0,8.1-0.1,12.1-0.5c4-0.4,8.1-1.2,12-2.4
			c1.9-0.6,3.9-1.4,5.7-2.3c1.8-0.9,3.6-2,5.2-3.2s3.2-2.6,4.6-4c1.3-1.3,2.5-2.7,3.6-4.2C130.5,113.8,141.5,104.5,134.6,96.2z"/>
	</g>
	<g>
		<linearGradient id="SVGID_4_" gradientUnits="userSpaceOnUse" x1="45.8834" y1="114.0495" x2="119.9696" y2="114.0495">
			<stop  offset="0" style="stop-color:#00A8C2"/>
			<stop  offset="8.206314e-02" style="stop-color:#09ABBF"/>
			<stop  offset="0.482" style="stop-color:#2FB6B3"/>
			<stop  offset="0.8019" style="stop-color:#47BCAB"/>
			<stop  offset="1" style="stop-color:#50BFA8"/>
		</linearGradient>
		<path class="st10" d="M113.3,120.3c-1.4,1.1-2.9,2.1-4.5,3c-1.6,0.9-3.2,1.7-4.9,2.3c-3.7,1.4-7.5,2.4-11.5,2.9
			c-3.9,0.6-7.9,0.9-11.9,0.9c-3.3,0.1-6.6,0-9.9-0.1c-0.8,0-1.6-0.1-2.4-0.2c-0.8-0.1-1.6-0.2-2.4-0.3c-1.6-0.2-3.2-0.6-4.8-0.9
			c-3.2-0.8-6.3-1.8-9.3-3.1c-1.5-0.7-3-1.4-4.4-2.2c-0.5-0.3-1-0.6-1.5-0.9c3.3-0.5,8.6-2.7,8.3-2.8c11-5.2,13.7-20.8,32.1-19.8
			c0,0-0.1,0.1-0.1,0.1c12.2-3.5,19.1,8.8,26.9,13.1c-0.1,0.1,1.2,0.7,1.3,0.6c1.6,0.7,3.5,1.2,5.6,1.2
			C117.9,116.4,115.7,118.5,113.3,120.3z"/>
	</g>
	<path class="st7" d="M95.6,105c-0.1,0.7-0.4,1.5-0.7,2.1c-0.4,0.6-0.9,1.2-1.4,1.6c-0.6,0.4-1.2,0.7-1.9,0.8c-0.7,0.1-1.3,0.1-2,0
		c-0.3-0.1-0.6-0.2-1-0.3c-0.3-0.1-0.7-0.3-0.9-0.6c-0.3-0.3-0.5-0.6-0.6-1c-0.2-0.3-0.3-0.7-0.4-1.1c-0.2-0.7-0.3-1.5-0.4-2.2
		c-0.1-0.7-0.2-1.5-0.3-2.2c-0.1-0.5-0.1-1.1-0.2-1.7c-0.1,0.5-0.1,0.9-0.2,1.4c-0.2,1.4-0.6,2.9-1.2,4.2c-0.2,0.5-0.4,1-0.7,1.5
		l-0.1,0.2c0,0.1-0.1,0.1-0.1,0.2c-0.1,0.1-0.2,0.3-0.3,0.4c-0.2,0.2-0.5,0.5-0.7,0.6c-0.5,0.3-1.1,0.5-1.7,0.6
		c-0.6,0.1-1.2,0-1.8-0.1c-1.2-0.2-2.2-0.8-3-1.8c-0.4-0.5-0.7-1-0.9-1.6c-0.2-0.6-0.2-1.2,0-1.7c0-0.1,0.1-0.1,0.2-0.1
		c0,0,0.1,0,0.1,0.1c0,0,0,0.1,0,0.1c0,0.5,0.2,1.1,0.4,1.6c0.3,0.5,0.6,0.9,1.1,1.2c0.8,0.7,1.8,1.1,2.8,1.2c0.5,0,1,0,1.5-0.1
		c0.5-0.1,0.9-0.4,1.3-0.7c0.2-0.2,0.3-0.4,0.4-0.6l0.1-0.2l0.1-0.2c0.1-0.1,0.1-0.2,0.2-0.4c0.2-0.5,0.4-1,0.6-1.6
		c0.4-1.3,0.7-2.7,0.8-4c0.2-1.4,0.2-2.8,0.3-4.2c0-1.7,0-3.5,0.2-5.2c-1.6-3-3.2-9.6-0.7-9.8c1.4-0.1,1.8,2.9,1.9,4.5
		c0.2-2.1,1.3-5.6,2.3-4.8c2.7,2.2-1.4,9-2.5,10.8c0,0.2,0,0.4,0,0.6c0,1.1,0.1,2.1,0.1,3.1c0.2,2.4,0.4,4.7,0.7,7.1
		c0.1,0.7,0.2,1.4,0.4,2.1c0.1,0.7,0.3,1.3,0.6,1.9c0.1,0.3,0.3,0.5,0.4,0.7c0.2,0.2,0.3,0.3,0.5,0.4c0.1,0,0.1,0,0.2,0.1l0.1,0
		l0.1,0c0.1,0,0.3,0.1,0.4,0.1c0.3,0.1,0.5,0.1,0.8,0.1c1,0,1.9-0.3,2.7-0.9c0.8-0.6,1.4-1.5,1.8-2.6c0.1-0.2,0.3-0.3,0.4-0.2
		C95.6,104.6,95.7,104.8,95.6,105z"/>
</g>
</svg>
