<?xml version="1.0" encoding="utf-8"?>
<!-- Generator: Adobe Illustrator 21.0.0, SVG Export Plug-In . SVG Version: 6.00 Build 0)  -->
<svg version="1.1" id="Layer_1" xmlns="http://www.w3.org/2000/svg" xmlns:xlink="http://www.w3.org/1999/xlink" x="0px" y="0px"
	 viewBox="0 0 160 145" style="enable-background:new 0 0 160 145;" xml:space="preserve">
<style type="text/css">
	.st0{fill:#CB5990;}
	.st1{fill:#FFFFFF;}
	.st2{fill:#12B6BF;}
	.st3{fill:url(#SVGID_1_);}
	.st4{fill:#455BA8;}
	.st5{fill:#326EB6;}
	.st6{fill:#DD5968;}
	.st7{fill:#EF537A;}
	.st8{fill:url(#SVGID_2_);}
	.st9{fill:url(#SVGID_3_);}
	.st10{fill:url(#SVGID_4_);}
	.st11{fill:url(#SVGID_5_);}
	.st12{fill:#F16443;}
	.st13{fill:url(#SVGID_6_);}
	.st14{fill:#F68E3F;}
	.st15{fill:url(#SVGID_7_);}
	.st16{fill:url(#SVGID_8_);}
	.st17{fill:url(#SVGID_9_);}
	.st18{fill:url(#SVGID_10_);}
	.st19{fill:url(#SVGID_11_);}
	.st20{fill:url(#SVGID_12_);}
	.st21{fill:url(#SVGID_13_);}
	.st22{fill:url(#SVGID_14_);}
	.st23{fill:url(#SVGID_15_);}
	.st24{fill:url(#SVGID_16_);}
	.st25{fill:url(#SVGID_17_);}
	.st26{fill:#3DB66D;}
	.st27{fill:url(#SVGID_18_);}
	.st28{fill:url(#SVGID_19_);}
	.st29{fill:url(#SVGID_20_);}
	.st30{fill:url(#SVGID_21_);}
	.st31{fill:url(#SVGID_22_);}
	.st32{fill:url(#SVGID_23_);}
	.st33{fill:url(#SVGID_24_);}
	.st34{fill:url(#SVGID_25_);}
	.st35{fill:url(#SVGID_26_);}
	.st36{fill:url(#SVGID_27_);}
	.st37{fill:url(#SVGID_28_);}
	.st38{fill:url(#SVGID_29_);}
	.st39{fill:url(#SVGID_30_);}
	.st40{fill:url(#SVGID_31_);}
	.st41{fill:url(#SVGID_32_);}
	.st42{fill:url(#SVGID_33_);}
	.st43{fill:url(#SVGID_34_);}
	.st44{fill:url(#SVGID_35_);}
	.st45{fill:url(#SVGID_36_);}
	.st46{fill:url(#SVGID_37_);}
	.st47{fill:url(#SVGID_38_);}
	.st48{fill:url(#SVGID_39_);}
	.st49{fill:url(#SVGID_40_);}
	.st50{fill:url(#SVGID_41_);}
	.st51{fill:url(#SVGID_42_);}
	.st52{fill:url(#SVGID_43_);}
	.st53{fill:url(#SVGID_44_);}
	.st54{fill:url(#SVGID_45_);}
	.st55{fill:url(#SVGID_46_);}
	.st56{fill:url(#SVGID_47_);}
	.st57{fill:url(#SVGID_48_);}
	.st58{fill:url(#SVGID_49_);}
	.st59{fill:url(#SVGID_50_);}
	.st60{fill:url(#SVGID_51_);}
	.st61{fill:url(#SVGID_52_);}
	.st62{fill:url(#SVGID_53_);}
	.st63{fill:url(#SVGID_54_);}
	.st64{fill:url(#SVGID_55_);}
	.st65{fill:url(#SVGID_56_);}
	.st66{fill:url(#SVGID_57_);}
	.st67{fill:url(#SVGID_58_);}
	.st68{fill:url(#SVGID_59_);}
	.st69{fill:url(#SVGID_60_);}
	.st70{fill:url(#SVGID_61_);}
	.st71{fill:url(#SVGID_62_);}
	.st72{fill:url(#SVGID_63_);}
	.st73{fill:url(#SVGID_64_);}
	.st74{fill:url(#SVGID_65_);}
	.st75{fill:url(#SVGID_66_);}
	.st76{fill:url(#SVGID_67_);}
	.st77{fill:url(#SVGID_68_);}
	.st78{fill:url(#SVGID_69_);}
	.st79{fill:url(#SVGID_70_);}
	.st80{fill:url(#SVGID_71_);}
	.st81{fill:url(#SVGID_72_);}
	.st82{fill:url(#SVGID_73_);}
	.st83{fill:url(#SVGID_74_);}
	.st84{fill:url(#SVGID_75_);}
	.st85{fill:url(#SVGID_76_);}
	.st86{fill:url(#SVGID_77_);}
	.st87{fill:url(#SVGID_78_);}
	.st88{fill:url(#SVGID_79_);}
	.st89{fill:url(#SVGID_80_);}
	.st90{fill:url(#SVGID_81_);}
	.st91{fill:url(#SVGID_82_);}
	.st92{fill:url(#SVGID_83_);}
	.st93{fill:url(#SVGID_84_);}
	.st94{fill:url(#SVGID_85_);}
	.st95{fill:url(#SVGID_86_);}
	.st96{fill:url(#SVGID_87_);}
	.st97{fill:url(#SVGID_88_);}
	.st98{fill:url(#SVGID_89_);}
	.st99{fill:url(#SVGID_90_);}
	.st100{fill:url(#SVGID_91_);}
	.st101{fill:url(#SVGID_92_);}
	.st102{fill:url(#SVGID_93_);}
	.st103{fill:url(#SVGID_94_);}
	.st104{fill:url(#SVGID_95_);}
	.st105{fill:url(#SVGID_96_);}
	.st106{fill:url(#SVGID_97_);}
	.st107{fill:url(#SVGID_98_);}
	.st108{fill:url(#SVGID_99_);}
	.st109{fill:url(#SVGID_100_);}
	.st110{fill:url(#SVGID_101_);}
	.st111{fill:url(#SVGID_102_);}
	.st112{fill:url(#SVGID_103_);}
	.st113{fill:url(#SVGID_104_);}
	.st114{fill:url(#SVGID_105_);}
	.st115{fill:url(#SVGID_106_);}
	.st116{fill:url(#SVGID_107_);}
	.st117{fill:url(#SVGID_108_);}
	.st118{fill:url(#SVGID_109_);}
	.st119{fill:url(#SVGID_110_);}
	.st120{fill:url(#SVGID_111_);}
	.st121{fill:url(#SVGID_112_);}
	.st122{fill:url(#SVGID_113_);}
	.st123{fill:url(#SVGID_114_);}
	.st124{fill:url(#SVGID_115_);}
	.st125{fill:url(#SVGID_116_);}
	.st126{fill:url(#SVGID_117_);}
	.st127{fill:url(#SVGID_118_);}
	.st128{fill:url(#SVGID_119_);}
	.st129{fill:url(#SVGID_120_);}
	.st130{fill:url(#SVGID_121_);}
	.st131{fill:url(#SVGID_122_);}
	.st132{fill:url(#SVGID_123_);}
	.st133{fill:url(#SVGID_124_);}
	.st134{fill:url(#SVGID_125_);}
	.st135{fill:url(#SVGID_126_);}
	.st136{fill:url(#SVGID_127_);}
	.st137{fill:#184054;}
	.st138{fill:url(#SVGID_128_);}
	.st139{fill:url(#SVGID_129_);}
	.st140{fill:url(#SVGID_130_);}
	.st141{fill:url(#SVGID_131_);}
	.st142{fill:url(#SVGID_132_);}
	.st143{fill:url(#SVGID_133_);}
	.st144{fill:url(#SVGID_134_);}
	.st145{fill:url(#SVGID_135_);}
	.st146{fill:url(#SVGID_136_);}
	.st147{fill:url(#SVGID_137_);}
	.st148{fill:url(#SVGID_138_);}
	.st149{fill:url(#SVGID_139_);}
	.st150{fill:url(#SVGID_140_);}
	.st151{fill:url(#SVGID_141_);}
	.st152{fill:url(#SVGID_142_);}
	.st153{fill:url(#SVGID_143_);}
	.st154{fill:url(#SVGID_144_);}
	.st155{fill:url(#SVGID_145_);}
	.st156{fill:url(#SVGID_146_);}
	.st157{fill:url(#SVGID_147_);}
	.st158{fill:url(#SVGID_148_);}
	.st159{fill:url(#SVGID_149_);}
	.st160{fill:url(#SVGID_150_);}
	.st161{fill:url(#SVGID_151_);}
	.st162{fill:url(#SVGID_152_);}
	.st163{fill:url(#SVGID_153_);}
	.st164{fill:url(#SVGID_154_);}
	.st165{fill:url(#SVGID_155_);}
	.st166{fill:url(#SVGID_156_);}
	.st167{fill:url(#SVGID_157_);}
	.st168{fill:url(#SVGID_158_);}
	.st169{fill:url(#SVGID_159_);}
	.st170{fill:url(#SVGID_160_);}
	.st171{fill:url(#SVGID_161_);}
	.st172{fill:url(#SVGID_162_);}
	.st173{fill:url(#SVGID_163_);}
	.st174{fill:url(#SVGID_164_);}
	.st175{fill:url(#SVGID_165_);}
	.st176{fill:url(#SVGID_166_);}
	.st177{fill:url(#SVGID_167_);}
	.st178{fill:url(#SVGID_168_);}
	.st179{fill:url(#SVGID_169_);}
	.st180{fill:url(#SVGID_170_);}
	.st181{fill:url(#SVGID_171_);}
	.st182{fill:url(#SVGID_172_);}
	.st183{fill:url(#SVGID_173_);}
	.st184{fill:url(#SVGID_174_);}
	.st185{fill:url(#SVGID_175_);}
	.st186{fill:url(#SVGID_176_);}
	.st187{fill:url(#SVGID_177_);}
	.st188{fill:url(#SVGID_178_);}
	.st189{fill:url(#SVGID_179_);}
	.st190{fill:url(#SVGID_180_);}
	.st191{fill:url(#SVGID_181_);}
	.st192{fill:url(#SVGID_182_);}
	.st193{fill:url(#SVGID_183_);}
	.st194{fill:url(#SVGID_184_);}
	.st195{fill:url(#SVGID_185_);}
	.st196{fill:url(#SVGID_186_);}
	.st197{fill:url(#SVGID_187_);}
	.st198{fill:url(#SVGID_188_);}
	.st199{fill:url(#SVGID_189_);}
	.st200{fill:url(#SVGID_190_);}
	.st201{fill:url(#SVGID_191_);}
	.st202{fill:url(#SVGID_192_);}
	.st203{fill:url(#SVGID_193_);}
	.st204{fill:url(#SVGID_194_);}
	.st205{fill:url(#SVGID_195_);}
	.st206{fill:url(#SVGID_196_);}
	.st207{fill:url(#SVGID_197_);}
	.st208{fill:url(#SVGID_198_);}
	.st209{fill:url(#SVGID_199_);}
	.st210{fill:url(#SVGID_200_);}
	.st211{fill:url(#SVGID_201_);}
	.st212{fill:url(#SVGID_202_);}
	.st213{fill:url(#SVGID_203_);}
	.st214{fill:url(#SVGID_204_);}
	.st215{fill:url(#SVGID_205_);}
	.st216{fill:url(#SVGID_206_);}
	.st217{fill:url(#SVGID_207_);}
	.st218{fill:url(#SVGID_208_);}
	.st219{fill:#969697;}
	.st220{fill:url(#SVGID_209_);}
	.st221{fill:url(#SVGID_210_);}
	.st222{fill:url(#SVGID_211_);}
	.st223{fill:url(#SVGID_212_);}
	.st224{fill:url(#SVGID_213_);}
	.st225{fill:url(#SVGID_214_);}
	.st226{fill:url(#SVGID_215_);}
	.st227{fill:url(#SVGID_216_);}
	.st228{fill:url(#SVGID_217_);}
	.st229{fill:url(#SVGID_218_);}
	.st230{fill:url(#SVGID_219_);}
	.st231{fill:url(#SVGID_220_);}
	.st232{fill:url(#SVGID_221_);}
	.st233{fill:url(#SVGID_222_);}
	.st234{fill:url(#SVGID_223_);}
	.st235{fill:url(#SVGID_224_);}
	.st236{fill:url(#SVGID_225_);}
	.st237{fill:url(#SVGID_226_);}
	.st238{fill:url(#SVGID_227_);}
	.st239{fill:url(#SVGID_228_);}
	.st240{fill:url(#SVGID_229_);}
	.st241{fill:url(#SVGID_230_);}
	.st242{fill:url(#SVGID_231_);}
	.st243{fill:url(#SVGID_232_);}
	.st244{fill:url(#SVGID_233_);}
	.st245{fill:url(#SVGID_234_);}
	.st246{fill:url(#SVGID_235_);}
	.st247{fill:url(#SVGID_236_);}
	.st248{fill:url(#SVGID_237_);}
	.st249{fill:url(#SVGID_238_);}
	.st250{fill:url(#SVGID_239_);}
	.st251{fill:url(#SVGID_240_);}
	.st252{fill:url(#SVGID_241_);}
	.st253{fill:url(#SVGID_242_);}
	.st254{fill:url(#SVGID_243_);}
	.st255{fill:url(#SVGID_244_);}
	.st256{fill:url(#SVGID_245_);}
	.st257{fill:url(#SVGID_246_);}
	.st258{fill:url(#SVGID_247_);}
	.st259{fill:url(#SVGID_248_);}
	.st260{fill:url(#SVGID_249_);}
	.st261{fill:url(#SVGID_250_);}
	.st262{fill:url(#SVGID_251_);}
	.st263{fill:url(#SVGID_252_);}
	.st264{fill:url(#SVGID_253_);}
	.st265{fill:url(#SVGID_254_);}
	.st266{fill:url(#SVGID_255_);}
	.st267{fill:url(#SVGID_256_);}
	.st268{fill:url(#SVGID_257_);}
	.st269{fill:url(#SVGID_258_);}
	.st270{fill:url(#SVGID_259_);}
	.st271{fill:url(#SVGID_260_);}
	.st272{fill:url(#SVGID_261_);}
	.st273{fill:url(#SVGID_262_);}
	.st274{fill:url(#SVGID_263_);}
	.st275{fill:url(#SVGID_264_);}
	.st276{fill:url(#SVGID_265_);}
	.st277{fill:url(#SVGID_266_);}
	.st278{fill:url(#SVGID_267_);}
	.st279{fill:#F69474;}
	.st280{fill:#F27350;}
	.st281{fill:url(#SVGID_268_);}
	.st282{fill:url(#SVGID_269_);}
	.st283{fill:url(#SVGID_270_);}
	.st284{fill:url(#SVGID_271_);}
	.st285{fill:url(#SVGID_272_);}
	.st286{fill:url(#SVGID_273_);}
	.st287{fill:url(#SVGID_274_);}
	.st288{fill:url(#SVGID_275_);}
	.st289{fill:url(#SVGID_276_);}
	.st290{fill:url(#SVGID_277_);}
	.st291{fill:url(#SVGID_278_);}
	.st292{fill:url(#SVGID_279_);}
	.st293{fill:url(#SVGID_280_);}
	.st294{fill:url(#SVGID_281_);}
	.st295{fill:url(#SVGID_282_);}
	.st296{fill:url(#SVGID_283_);}
	.st297{fill:url(#SVGID_284_);}
	.st298{fill:url(#SVGID_285_);}
	.st299{fill:url(#SVGID_286_);}
	.st300{fill:url(#SVGID_287_);}
	.st301{fill:url(#SVGID_288_);}
	.st302{fill:url(#SVGID_289_);}
	.st303{fill:url(#SVGID_290_);}
	.st304{fill:url(#SVGID_291_);}
	.st305{fill:url(#SVGID_292_);}
	.st306{fill:url(#SVGID_293_);}
</style>
<g>
	<linearGradient id="SVGID_1_" gradientUnits="userSpaceOnUse" x1="27.0597" y1="72.5" x2="132.9403" y2="72.5">
		<stop  offset="0" style="stop-color:#EF537A"/>
		<stop  offset="1" style="stop-color:#4A3D97"/>
	</linearGradient>
	<path class="st3" d="M132.9,41C132.9,41,132.9,41,132.9,41C132.9,41,132.9,40.9,132.9,41L132.9,41c0-0.1,0-0.2,0-0.3
		c0-0.1,0-0.2-0.1-0.3c0-0.1-0.1-0.1-0.1-0.2c-0.1-0.1-0.2-0.2-0.3-0.2c-0.1,0-0.2,0-0.3,0c-0.1,0-0.1,0.1-0.2,0.1
		c-0.1,0.1-0.1,0.1-0.2,0.2v0c-0.1,0.3-0.3,0.7-0.5,1c-0.2,0.3-0.4,0.6-0.6,0.8c-0.2,0.2-0.5,0.4-0.8,0.4c-0.3,0-0.5,0-0.7-0.2
		c-0.2-0.2-0.4-0.5-0.5-0.8c-0.1-0.3-0.1-0.6-0.1-1c0.1-0.4,0.2-0.7,0.4-1.1c0.1,0,0.2,0,0.3,0l-0.1-0.3c0.1-0.2,0.2-0.3,0.4-0.5
		c0.2-0.2,0.1-0.5,0-0.6c-0.1-0.1-0.2-0.1-0.3-0.1l0,0c-0.2,0-0.4,0-0.6,0l-0.1-0.3c-0.1,0.1-0.1,0.2-0.2,0.2c-0.1,0-0.3,0-0.4-0.1
		c-0.4-0.1-0.8-0.3-1.2-0.5c-0.3-0.3-0.6-0.6-0.8-1c-0.2-0.4-0.3-0.8-0.2-1.3c0-0.4,0.1-0.9,0.4-1.2c0.2-0.4,0.5-0.6,0.9-0.8
		c0.4-0.2,0.8-0.2,1.2-0.1c0.4,0.1,0.9,0.2,1.3,0.4v0c0.2,0.1,0.5,0,0.6-0.2c0.5-0.9,0.9-1.9,1.1-2.9c0.3-1,0.4-2,0.5-3.1
		c0.2-2.1,0.2-4.1,0.2-6.1c0-0.1,0-0.2-0.1-0.2c-0.1-0.2-0.2-0.4-0.4-0.5c-0.2-0.1-0.4-0.2-0.6-0.2c-0.4,0-0.7,0.1-1,0.2
		c-0.6,0.3-1.1,0.6-1.6,1c-1,0.7-1.8,1.6-2.7,2.4c-1.7,1.7-3.3,3.5-4.8,5.3c-1.5,1.8-3,3.7-4.5,5.6c-1.4,1.8-2.8,3.6-4.1,5.5
		c-1.6-0.7-3.3-1.2-4.9-1.7c-1.7-0.5-3.5-1-5.3-1.4c-3.5-0.8-7.1-1.4-10.7-1.9c-7.2-0.9-14.4-1.4-21.6-1.5l0,0c0,0,0,0,0,0
		l-15.1,1.3c-3.3,0.3-5.5,0.6-6,0.8c0-0.1-0.1-0.1-0.1-0.2c0-0.1-0.1-0.1-0.1-0.2c0-0.2-0.1-0.7-0.4-1.5c-0.7-1.9-1.4-3.8-2.2-5.7
		c-0.8-1.9-1.7-3.8-2.7-5.7c-0.5-0.9-1-1.9-1.6-2.8c-0.6-0.9-1.2-1.8-1.8-2.7c-0.3-0.4-0.7-0.9-1.1-1.3c-0.4-0.4-0.8-0.8-1.3-1.2
		c-0.5-0.4-1-0.7-1.6-0.9c-0.3-0.1-0.7-0.2-1.1-0.1c-0.4,0-0.8,0.2-1.1,0.3c-0.2,0.1-0.3,0.3-0.4,0.5v0c-1.1,6.1-2.1,12.5-3,19
		c-0.4,3.3-0.8,6.6-1.1,9.9c-0.3,3.3-0.5,6.7-0.7,10.1c-0.2,3.4-0.3,6.8-0.4,10.2l-0.1,5.1l0,0.6l0,0.3l0,0.2v0.2v1.3
		c0,0.9,0,1.7,0,2.6c0,1.7-0.1,3.4-0.1,5.2c0,1.7-0.1,3.5-0.1,5.2c0,1.8,0.1,3.5,0.2,5.3c0.1,1.7,0.3,3.5,0.5,5.2l0.2,1.3l0.1,0.6
		l0.1,0.6c0.1,0.9,0.2,1.7,0.3,2.6c0.2,1.7,0.5,3.5,0.9,5.2c0.4,1.7,0.8,3.4,1.4,5.1c0.6,1.7,1.3,3.3,2.2,4.8c0.9,1.5,2,2.9,3.2,4.2
		c1.2,1.2,2.6,2.3,4,3.2c1.4,0.9,2.9,1.6,4.5,2.3c0.4,0.2,0.8,0.3,1.2,0.5l1.1,0.4c0.8,0.3,1.5,0.5,2.3,0.8c3.1,1,6.2,1.8,9.3,2.5
		c3.1,0.7,6.2,1.2,9.3,1.6c6.2,0.8,12.2,1,18.1,0.7c4.7-0.2,9.3-0.9,13.9-2.1c2.3-0.6,4.5-1.4,6.7-2.4c2.2-1,4.2-2.2,6.1-3.7
		c0.9-0.8,1.8-1.6,2.7-2.5c0.8-0.9,1.6-1.8,2.3-2.8c1.5-1.9,2.8-4,3.9-6.1c2.3-4.3,3.9-9,4.9-13.7c0.5-2.4,0.9-4.8,1.1-7.2
		c0.1-0.6,0.1-1.2,0.1-1.8l0-0.4l0-0.5l0.1-0.9c0.1-1.2,0.2-2.4,0.2-3.6c0.3-4.9,0.4-9.7,0.7-14.5c0.1-1.2,0.2-2.4,0.3-3.6
		c0.1-0.6,0.1-1.2,0.2-1.8l0.1-0.9l0.1-0.5c0-0.1,0-0.3,0.1-0.4c0.2-1.2,0.4-2.4,0.7-3.6l0.7-3.6c0.5-2.4,1-4.8,1.4-7.2
		c0.2-1.2,0.4-2.4,0.6-3.6c0.1-0.6,0.2-1.2,0.2-1.9C132.9,41.7,133,41.4,132.9,41z"/>
	<path class="st4" d="M130.9,46.4c-0.4,2.1-0.8,4.2-1.2,6.4c-0.4,2.1-0.9,4.2-1.3,6.4c-0.1,0.5-0.2,1.1-0.3,1.6
		c0,0.3-0.1,0.5-0.1,0.8l0,0.2l0,0.2l0,0.4c-0.1,1.1-0.2,2.2-0.4,3.3c-0.4,4.4-0.6,8.7-0.7,13.1c-0.1,2.2-0.2,4.3-0.3,6.5l-0.1,1.6
		l-0.1,1.6c-0.1,1.1-0.2,2.1-0.3,3.2c-0.5,4.2-1.4,8.4-2.7,12.5c-1.4,4-3.2,7.9-5.6,11.3c-0.6,0.9-1.2,1.7-1.9,2.5
		c-0.3,0.4-0.7,0.8-1,1.2c-0.3,0.4-0.7,0.8-1,1.1c-1.4,1.5-3.1,2.7-4.8,3.8c-1.8,1.1-3.6,1.9-5.5,2.7c-1.9,0.7-3.9,1.3-5.9,1.8
		c-3.4,0.8-6.8,1.2-10.3,1.5c-3.5,0.2-6.9,0.3-10.4,0.1c-3.5-0.2-6.9-0.5-10.3-1c-3.4-0.5-6.8-1.1-10.1-1.9c-3.3-0.8-6.6-1.8-9.9-3
		c-1.6-0.6-3.2-1.3-4.7-2.1c-1.5-0.8-2.9-1.8-4.2-3c-1.3-1.2-2.4-2.5-3.3-3.9c-0.9-1.5-1.7-3-2.3-4.7c-0.5-1.3-0.8-2.6-1.2-3.9
		c0,0,0.1,0,0.1,0c1.5-1,2.8-2.2,3.9-3.6c1.2-1.3,2.2-2.8,3.3-4.2l3.5-4.7l1.7-2.3l0.9-1.1l0.9-1.1c1-1.3,1.9-2.6,2.8-3.9
		c0.2-0.4,0.5-0.7,0.7-1.1c1.4,0.8,3,1.4,4.6,1.7c1.8,0.3,3.6,0.3,5.4,0c0.9-0.2,1.7-0.4,2.6-0.8c0.4-0.2,0.8-0.4,1.2-0.5l0.3-0.1
		l0.3-0.2c0.2-0.1,0.4-0.2,0.6-0.3c1.5-0.9,2.9-2,4.1-3.2c1.2-1.3,2.1-2.8,2.8-4.3c0.6-1.5,1-3.1,1.2-4.7c0-0.1,0.1-0.2,0.1-0.4
		c0-0.1,0.1-0.3,0.1-0.4l0-0.1l0-0.1l0,0c0-0.1,0-0.1,0-0.2c0.1-0.6,0.1-1.1,0.1-1.7c-0.1-0.9-0.4-1.7-0.8-2.5
		c-0.5-2.1-1.4-4-2.7-5.7c-0.5-0.7-1.1-1.4-1.8-2c0.2-0.2,0.3-0.5,0.5-0.7c1.4-2.2,2.4-4.6,3.7-6.5c0.9-1.3,1.8-2.6,2.7-3.9
		c0.5-0.7,0.9-1.3,1.3-2l0.3-0.5l0.3-0.5c0.2-0.3,0.4-0.7,0.6-1c0.9-1.3,1.8-2.6,2.6-3.9c0.9-1.3,1.7-2.6,2.5-4
		c1.5,0.1,3.1,0.3,4.6,0.4c-0.1,0.1-0.1,0.2-0.1,0.2c-0.1,0.1-0.1,0.3-0.1,0.4s0,0.3-0.1,0.4c0,0.2-0.1,0.3-0.1,0.5l-0.1,0.4
		c0,0.2,0,0.4,0,0.6l0,0.4l0,0.2l0,0.2c0,0.1,0,0.3-0.1,0.5c0,0.2,0,0.3,0,0.5l0.1,0.5c0,0.2,0,0.3,0,0.5c0,0.2,0,0.4,0,0.6l0.1,0.6
		c0,0.2,0.1,0.4,0.1,0.6c0,0.1,0,0.2,0.1,0.3c0,0,0,0.1,0.1,0.1c0,0,0,0,0,0c0,0,0,0,0.1,0c0,0,0,0,0.1,0c0,0,0,0,0.1,0
		c0,0,0.1,0,0.1,0c0,0,0.1,0,0.1,0l0.1,0h0l0,0c0,0,0.1,0,0.1,0c0.1,0,0.1,0,0.2,0c0.1,0,0.1,0,0.1,0c0,0,0.1,0,0.1,0
		c0,0,0.1,0,0.1,0c0.1,0,0.1,0,0.1,0c0,0,0.1,0,0.1,0c0,0,0.1,0,0.1,0c0,0,0,0,0,0c0,0,0,0,0.1,0c0,0,0,0,0.1,0c0,0,0,0,0.1-0.1
		c0.1-0.1,0.1-0.1,0.1-0.2c0-0.1,0-0.1,0.1-0.2c0-0.1,0.1-0.2,0.1-0.3c0.1-0.2,0.1-0.4,0.1-0.6l0-0.7c0-0.2,0.1-0.4,0.1-0.7
		c0-0.1,0-0.2,0-0.3c0-0.1,0-0.2-0.1-0.3c-0.1-0.2-0.1-0.4-0.1-0.6c0-0.2,0.1-0.4,0.1-0.6c0-0.2,0-0.4,0-0.6c0-0.2-0.1-0.4-0.1-0.5
		c0-0.2-0.1-0.3-0.1-0.5c0-0.2-0.1-0.3-0.1-0.4l0-0.4c0,0,0,0,0-0.1c1.1,0.1,2.2,0.3,3.3,0.4c1.7,0.2,3.4,0.5,5.2,0.8
		c0,0.1-0.1,0.2-0.1,0.4c0,0-0.1,0.1-0.1,0.1c-0.1,0.1-0.2,0.2-0.2,0.4c-0.1,0.1-0.1,0.3-0.1,0.4c0,0.1,0,0.3-0.1,0.4
		c0,0.2-0.1,0.3-0.1,0.5l-0.1,0.4c0,0.2,0,0.4,0,0.6l0,0.4l0,0.2l0,0.2c0,0.1-0.1,0.3-0.1,0.5c0,0.2,0,0.3,0,0.5l0.1,0.5
		c0,0.2,0,0.3,0,0.5c0,0.2,0,0.4,0,0.6l0.1,0.6c0,0.2,0.1,0.4,0.1,0.6c0,0.1,0,0.2,0.1,0.3c0,0,0,0.1,0.1,0.1c0,0,0,0,0,0
		c0,0,0,0,0.1,0c0,0,0,0,0.1,0c0,0,0,0,0,0c0,0,0.1,0,0.1,0c0,0,0.1,0,0.1,0l0.1,0h0l0,0c0,0,0.1,0,0.1,0c0.1,0,0.1,0,0.2,0
		c0.1,0,0.1,0,0.1,0c0,0,0.1,0,0.1,0c0,0,0.1,0,0.1,0c0.1,0,0.1,0,0.1,0c0,0,0.1,0,0.1,0c0,0,0.1,0,0.1,0c0,0,0,0,0,0c0,0,0,0,0.1,0
		c0,0,0,0,0.1,0c0,0,0,0,0.1-0.1c0.1-0.1,0.1-0.1,0.1-0.2c0-0.1,0-0.1,0.1-0.2c0-0.1,0.1-0.2,0.1-0.3c0-0.2,0.1-0.4,0.1-0.6l0-0.7
		c0-0.2,0.1-0.4,0.1-0.7c0-0.1,0-0.2,0-0.3c0-0.1,0-0.2-0.1-0.3c-0.1-0.2-0.1-0.4-0.1-0.6c0-0.2,0.1-0.4,0.1-0.6c0-0.2,0-0.4,0-0.6
		c0-0.2-0.1-0.4-0.1-0.5c0-0.2-0.1-0.3-0.1-0.5c0-0.2-0.1-0.3-0.1-0.4l0-0.4c0-0.1,0-0.3-0.1-0.4c0-0.1-0.1-0.2-0.2-0.3c0,0,0,0,0,0
		c1.4,0.3,2.8,0.6,4.2,0.9c1.7,0.4,3.5,0.8,5.2,1.4c1.7,0.5,3.4,1.1,5,1.8c0,0,0.1,0,0.1,0c0,0.1-0.1,0.2-0.1,0.3
		c0,0.1,0,0.3-0.1,0.4c0,0.2-0.1,0.3-0.1,0.5l-0.1,0.4c0,0.2,0,0.4,0,0.6l0,0.4l0,0.2l0,0.2c0,0.1,0,0.3-0.1,0.5c0,0.2,0,0.3,0,0.5
		l0.1,0.5c0,0.2,0,0.3,0,0.5c0,0.2,0,0.4,0,0.6l0.1,0.6c0,0.2,0.1,0.4,0.1,0.6c0,0.1,0,0.2,0.1,0.3c0,0,0,0.1,0.1,0.1c0,0,0,0,0,0
		c0,0,0,0,0.1,0c0,0,0,0,0.1,0c0,0,0,0,0.1,0c0,0,0.1,0,0.1,0c0,0,0.1,0,0.1,0l0.1,0l0,0h0c0,0,0.1,0,0.1,0c0.1,0,0.1,0,0.2,0
		c0.1,0,0.1,0,0.1,0c0,0,0.1,0,0.1,0c0,0,0.1,0,0.1,0c0.1,0,0.1,0,0.1,0c0,0,0.1,0,0.1,0c0,0,0.1,0,0.1,0c0,0,0,0,0.1,0
		c0,0,0,0,0.1,0c0,0,0,0,0.1,0c0,0,0,0,0.1-0.1c0.1-0.1,0.1-0.1,0.1-0.2c0-0.1,0-0.1,0.1-0.2c0-0.1,0.1-0.2,0.1-0.3
		c0-0.2,0.1-0.4,0.1-0.6l0-0.7c0-0.2,0.1-0.4,0.1-0.7c0-0.1,0-0.2,0-0.3c0-0.1,0-0.2-0.1-0.3c-0.1-0.2-0.1-0.4-0.1-0.6
		c0-0.2,0.1-0.4,0.1-0.6c0-0.2,0-0.4,0-0.6c0-0.2-0.1-0.4-0.1-0.5c0-0.2-0.1-0.3-0.1-0.5c0-0.2-0.1-0.3-0.1-0.4l0-0.4
		c0-0.1,0-0.3-0.1-0.4c0-0.1-0.1-0.2-0.2-0.3c0-0.1-0.1-0.1-0.1-0.2c1.3-1.7,2.6-3.5,3.9-5.2c1.4-1.9,2.9-3.7,4.4-5.5
		c1.5-1.8,3.1-3.6,4.7-5.2c0.8-0.8,1.7-1.6,2.5-2.3c0.2-0.2,0.4-0.3,0.6-0.5c0.2-0.1,0.4-0.3,0.6-0.3c0,0,0,0,0.1,0
		c0,1.8,0,3.5-0.2,5.2c0,0,0,0.1,0,0.1c-0.6-4.2-11.9,10.9-12.1,14.7c0.5,1.9,2.4-0.8,3.6-2.7c-1.2,2-1.9,5.1-0.6,6.5
		c1.1,1.3,3-1.9,3.7-3.7c-0.3,1.6-1.7,6.2,0.8,7.2c1.1,0.4,2-2.2,2.7-5.7c0.2,0.2,0.5,0.3,0.8,0.4c0.3,0.1,0.6,0.1,1,0.1
		c0.3,0,0.6-0.1,0.9-0.3c0.2-0.1,0.4-0.3,0.6-0.4C131.2,44.4,131.1,45.4,130.9,46.4z"/>
	<linearGradient id="SVGID_2_" gradientUnits="userSpaceOnUse" x1="98.6509" y1="96.5692" x2="116.3601" y2="96.5692">
		<stop  offset="0" style="stop-color:#00A8C2"/>
		<stop  offset="8.206314e-02" style="stop-color:#09ABBF"/>
		<stop  offset="0.482" style="stop-color:#2FB6B3"/>
		<stop  offset="0.8019" style="stop-color:#47BCAB"/>
		<stop  offset="1" style="stop-color:#50BFA8"/>
	</linearGradient>
	<path class="st8" d="M114.7,91.9c-0.7-0.9-1.6-1.6-2.5-2.2c-0.5-0.3-1-0.5-1.5-0.7c-0.3-0.1-0.5-0.2-0.8-0.3
		c-0.3-0.1-0.6-0.2-0.8-0.2c-1.1-0.2-2.3-0.3-3.5-0.1c-0.6,0.1-1.3,0.3-1.9,0.7c-0.5,0.3-1,0.6-1.5,1c-0.5,0.4-1,0.8-1.4,1.3
		c-0.4,0.5-0.8,1.1-1.1,1.7c-0.3,0.6-0.5,1.4-0.6,2c0,0.3,0,0.7,0,1c0,0,0,0,0,0.1c-0.2,0.7-0.3,1.4-0.2,2.1c0,0.4,0.1,0.7,0.2,1.1
		c0,0.2,0.1,0.4,0.2,0.5l0,0.1l0.1,0.1c0,0.1,0.1,0.2,0.1,0.3c0.3,0.7,0.8,1.3,1.3,1.9c1.1,1.1,2.5,1.9,4.2,2.3
		c1.6,0.4,3.4,0.5,5.3,0c0.9-0.2,1.8-0.6,2.7-1.2c0.8-0.6,1.6-1.3,2.2-2.2c0.1-0.1,0.1-0.2,0.2-0.3l0.1-0.1l0.1-0.1l0.1-0.2
		c0.1-0.2,0.2-0.5,0.3-0.7c0.2-0.5,0.4-1,0.5-1.6c0.2-1.1,0.2-2.2,0-3.3C115.9,93.8,115.4,92.8,114.7,91.9z M102.4,92.8
		c-0.4,1-0.6,1.9-0.9,2.9c-0.2,0.8-0.3,1.5-0.3,2.3c-0.1-0.5-0.2-1-0.3-1.4c-0.2-1.1-0.1-2,0.3-2.9c0.4-0.8,1-1.5,1.7-2
		C102.7,92.1,102.6,92.5,102.4,92.8z M111.4,99.3c0.5-1.4,0.8-2.8,1.2-4.2c0.2-0.7,0.3-1.4,0.4-2.1c0-0.1,0-0.2,0-0.3
		c0.1,0.1,0.2,0.2,0.3,0.3c0,0,0,0,0,0c-0.2,1.2-0.5,2.5-1,3.9c-0.2,0.8-0.5,1.6-0.8,2.4c-0.1,0.3-0.3,0.6-0.4,0.9
		C111.2,99.9,111.3,99.6,111.4,99.3z M107.5,90.1C107.5,90.2,107.5,90.2,107.5,90.1C107.5,90.2,107.5,90.2,107.5,90.1
		C107.5,90.1,107.5,90.1,107.5,90.1z M107.1,98.9c-0.2,0.5-0.4,0.9-0.6,1.4c-0.1,0.3-0.3,0.5-0.4,0.8c0,0,0-0.1,0-0.1
		c0-0.2,0-0.4,0-0.6c0-0.4,0.1-0.8,0.2-1.2c0.1-0.8,0.3-1.6,0.5-2.5c0-0.2,0.1-0.4,0.1-0.6l0.2-0.6c0-0.1,0.1-0.1,0.1-0.2l0.1-0.2
		c0.1-0.1,0.1-0.3,0.1-0.4c0.1-0.3,0.2-0.6,0.2-0.9c0-0.1,0-0.1,0-0.2c0.2-0.6,0.5-1.2,0.8-1.7c0.2-0.3,0.4-0.6,0.6-0.8
		c0.1-0.1,0.2-0.1,0.2-0.2c0,0,0,0,0,0c0,0,0,0.1,0,0.2c0,0.3,0,0.7-0.1,1.1c-0.2,0.8-0.4,1.7-0.7,2.5c-0.1,0.4-0.3,0.9-0.5,1.3
		l-0.3,0.7l-0.1,0.3c0,0.1-0.1,0.2-0.1,0.3L107.1,98.9z M109.3,100.4L109.3,100.4l-0.1,0.1c0,0.1-0.1,0.1-0.1,0.2
		c-0.3,0.6-0.7,1.1-1.2,1.5c-0.1,0.1-0.2,0.1-0.3,0.2c0.3-0.4,0.5-0.9,0.7-1.3c0.2-0.5,0.4-1,0.6-1.5l0.6-1.4l0,0c0,0,0,0,0-0.1
		c0-0.1,0.1-0.2,0.1-0.3l0.1-0.3l0.3-0.7c0.1-0.1,0.1-0.3,0.2-0.4c0,0,0,0,0,0c-0.1,0.8-0.3,1.7-0.3,2.5c-0.1,0.3-0.2,0.6-0.3,0.9
		C109.4,100,109.4,100.2,109.3,100.4L109.3,100.4z M112.6,101c0,0.2,0,0.4,0,0.5c-0.2,0.2-0.5,0.4-0.8,0.6c-0.7,0.5-1.4,0.8-2.2,1
		c-0.1,0-0.2,0-0.3,0.1c0.3-0.3,0.5-0.5,0.7-0.8c0.2,0.2,0.4,0.2,0.6,0.1c0.1,0,0.1,0,0.2-0.1c0.3-0.2,0.5-0.4,0.6-0.6
		c0.2-0.2,0.3-0.4,0.4-0.7c0.3-0.4,0.5-0.9,0.6-1.3c0.1-0.1,0.1-0.3,0.2-0.4C112.7,100.1,112.6,100.6,112.6,101z M114.6,98
		c-0.1,0.4-0.2,0.8-0.4,1.2c-0.1,0.2-0.2,0.4-0.3,0.6l-0.1,0.1l-0.1,0.1c-0.1,0.1-0.1,0.2-0.2,0.3c-0.2,0.4-0.5,0.7-0.8,1
		c0-0.1,0-0.2,0.1-0.3c0.1-0.4,0.2-1,0.4-1.7c0.2-0.7,0.4-1.7,0.6-2.8c0.1-0.6,0.2-1.1,0.3-1.8c0-0.1,0-0.1,0-0.2
		c0.1,0.3,0.2,0.5,0.3,0.8C114.7,96.2,114.7,97.1,114.6,98z"/>
	<linearGradient id="SVGID_3_" gradientUnits="userSpaceOnUse" x1="40.8063" y1="97.8005" x2="58.5159" y2="97.8005">
		<stop  offset="0" style="stop-color:#0EB5BF"/>
		<stop  offset="1" style="stop-color:#B0D57B"/>
	</linearGradient>
	<path class="st9" d="M56.9,93.1c-0.7-0.9-1.6-1.6-2.5-2.2c-0.5-0.3-1-0.5-1.5-0.7c-0.3-0.1-0.5-0.2-0.8-0.3
		c-0.3-0.1-0.6-0.2-0.8-0.2c-1.1-0.2-2.3-0.3-3.5-0.1c-0.6,0.1-1.3,0.3-1.9,0.7c-0.5,0.3-1,0.6-1.5,1c-0.5,0.4-1,0.8-1.4,1.3
		c-0.4,0.5-0.8,1.1-1.1,1.7c-0.3,0.6-0.5,1.3-0.6,2c0,0.3,0,0.6,0,1c0,0,0,0,0,0.1c-0.2,0.7-0.3,1.4-0.2,2.1c0,0.4,0.1,0.7,0.2,1.1
		c0.1,0.2,0.1,0.4,0.2,0.5l0,0.1l0.1,0.1c0,0.1,0.1,0.2,0.1,0.3c0.3,0.7,0.8,1.3,1.3,1.9c1.1,1.1,2.5,1.9,4.2,2.3
		c1.6,0.4,3.4,0.5,5.3,0c0.9-0.2,1.8-0.6,2.7-1.2c0.8-0.6,1.6-1.3,2.2-2.2c0.1-0.1,0.1-0.2,0.2-0.3l0-0.1l0.1-0.1l0.1-0.2
		c0.1-0.2,0.2-0.5,0.3-0.7c0.2-0.5,0.4-1,0.5-1.6c0.2-1.1,0.2-2.2,0-3.3C58.1,95,57.5,94,56.9,93.1z M44.6,94.1
		C44.2,95,44,96,43.7,97c-0.2,0.8-0.3,1.5-0.3,2.3c-0.1-0.5-0.2-1-0.3-1.4c-0.2-1.1-0.1-2,0.3-2.9c0.4-0.8,1-1.5,1.7-2
		C44.9,93.4,44.7,93.7,44.6,94.1z M53.6,100.5c0.5-1.4,0.8-2.8,1.2-4.2c0.2-0.7,0.3-1.4,0.4-2.1c0-0.1,0-0.2,0-0.3
		c0.1,0.1,0.2,0.2,0.3,0.3c0,0,0,0,0,0c-0.2,1.2-0.5,2.5-1,3.9c-0.2,0.8-0.5,1.6-0.8,2.4c-0.1,0.3-0.3,0.6-0.4,0.9
		C53.4,101.2,53.5,100.8,53.6,100.5z M49.7,91.4C49.7,91.4,49.7,91.4,49.7,91.4C49.6,91.4,49.6,91.4,49.7,91.4
		C49.6,91.4,49.7,91.4,49.7,91.4z M49.2,100.2c-0.2,0.5-0.4,0.9-0.6,1.4c-0.1,0.3-0.3,0.5-0.4,0.8c0,0,0-0.1,0-0.1
		c0-0.2,0-0.4,0-0.6c0-0.4,0.1-0.8,0.2-1.2c0.1-0.8,0.3-1.6,0.5-2.5c0-0.2,0.1-0.4,0.1-0.6l0.2-0.6c0-0.1,0.1-0.1,0.1-0.2l0.1-0.2
		c0-0.1,0.1-0.3,0.1-0.4c0.1-0.3,0.2-0.6,0.2-0.9c0-0.1,0-0.1,0-0.2c0.2-0.6,0.5-1.2,0.8-1.7c0.2-0.3,0.4-0.6,0.6-0.8
		c0.1-0.1,0.2-0.1,0.2-0.2c0,0,0,0,0,0c0,0,0,0.1,0,0.2c0,0.3,0,0.7-0.1,1.1c-0.2,0.8-0.4,1.7-0.7,2.5c-0.2,0.4-0.3,0.9-0.5,1.3
		L50,98.1l-0.1,0.3c0,0.1-0.1,0.2-0.1,0.3L49.2,100.2z M51.4,101.6L51.4,101.6l-0.1,0.1c0,0.1-0.1,0.1-0.1,0.2
		c-0.3,0.6-0.7,1.1-1.2,1.5c-0.1,0.1-0.2,0.1-0.3,0.2c0.3-0.4,0.5-0.9,0.7-1.3c0.2-0.5,0.4-1,0.6-1.5l0.5-1.4l0,0c0,0,0,0,0-0.1
		c0-0.1,0.1-0.2,0.1-0.3l0.1-0.3l0.2-0.7c0.1-0.1,0.1-0.3,0.2-0.4c0,0,0,0,0,0c-0.1,0.8-0.3,1.7-0.3,2.5c-0.1,0.3-0.2,0.6-0.3,0.9
		C51.6,101.2,51.5,101.4,51.4,101.6L51.4,101.6z M54.8,102.3c0,0.2,0,0.4,0,0.5c-0.2,0.2-0.5,0.4-0.8,0.6c-0.7,0.5-1.4,0.8-2.2,1
		c-0.1,0-0.2,0-0.3,0.1c0.3-0.3,0.5-0.5,0.7-0.8c0.2,0.2,0.4,0.2,0.6,0.1c0.1,0,0.1,0,0.2-0.1c0.3-0.2,0.5-0.4,0.6-0.6
		c0.2-0.2,0.3-0.4,0.4-0.7c0.3-0.4,0.5-0.9,0.6-1.3c0.1-0.1,0.1-0.3,0.2-0.4C54.8,101.3,54.8,101.9,54.8,102.3z M56.7,99.2
		c-0.1,0.4-0.2,0.8-0.4,1.2c-0.1,0.2-0.2,0.4-0.3,0.6l-0.1,0.2l-0.1,0.1c-0.1,0.1-0.1,0.2-0.2,0.3c-0.2,0.4-0.5,0.7-0.8,1
		c0-0.1,0-0.2,0.1-0.3c0.1-0.4,0.2-1,0.4-1.7c0.2-0.8,0.4-1.7,0.6-2.8c0.1-0.6,0.2-1.2,0.3-1.8c0-0.1,0-0.1,0-0.2
		c0.1,0.3,0.2,0.5,0.3,0.8C56.9,97.5,56.9,98.3,56.7,99.2z"/>
	<linearGradient id="SVGID_4_" gradientUnits="userSpaceOnUse" x1="28.3262" y1="59.6399" x2="78.9908" y2="59.6399">
		<stop  offset="0" style="stop-color:#3F58A6"/>
		<stop  offset="1" style="stop-color:#C9A2C8"/>
	</linearGradient>
	<path class="st10" d="M29.3,97.4l-0.1-0.7l-0.1-0.7L29,94.8c-0.2-1.8-0.4-3.5-0.5-5.3c-0.1-1.8-0.2-3.5-0.2-5.3
		c0-1.8,0.1-3.6,0.1-5.3c0.1-1.8,0.1-3.6,0.1-5.3c0-0.9,0-1.8,0-2.7v-0.7c0-0.2,0-0.4,0-0.7l0-1.3c0.1-3.6,0.1-7.1,0.3-10.7
		c0.1-3.6,0.3-7.1,0.6-10.7c0.3-3.6,0.6-7.1,1-10.7c0.8-7.1,1.9-14.2,3.1-21.3c0.4-0.2,0.8-0.2,1.2-0.2c0.4,0.1,0.8,0.3,1.2,0.6
		c0.8,0.5,1.4,1.2,2.1,2c0.6,0.7,1.2,1.5,1.7,2.3c0.5,0.8,1.1,1.6,1.5,2.5c1,1.7,1.9,3.4,2.8,5.2c0.9,1.8,1.7,3.6,2.4,5.4
		c0.5,1.3,1,2.3,1.2,2.8l0,0h0c0,0,0,0,0,0l-0.1,0c0,0,0,0-0.1,0c0,0,0,0-0.1,0c0,0-0.1,0-0.2,0c0,0-0.1,0-0.1,0c0,0-0.1,0-0.1,0
		c0,0,0,0,0,0c0,0,0,0,0,0c0,0,0,0,0,0c0,0,0,0,0,0l0,0.1c0,0,0,0,0,0c-0.1-0.1-0.1-0.1-0.2-0.1c0,0,0,0,0,0c0,0,0,0,0,0s0,0,0,0
		c-0.1,0-0.1,0.2-0.2,0.5c0,0-0.1,0.1-0.1,0.1c-0.1,0.1-0.2,0.2-0.2,0.4c-0.1,0.1-0.1,0.3-0.1,0.4c0,0.1,0,0.3-0.1,0.4
		c0,0.2-0.1,0.3-0.1,0.5l-0.1,0.4c0,0.2,0,0.4,0,0.6l0,0.4l0,0.2l0,0.2c0,0.1-0.1,0.3-0.1,0.5c0,0.2,0,0.3,0,0.5L46,41
		c0,0.2,0,0.3,0,0.5c0,0.2,0,0.4,0,0.6l0.1,0.6c0,0.2,0.1,0.4,0.1,0.6c0,0.1,0,0.2,0.1,0.3c0,0,0,0.1,0.1,0.1c0,0,0,0,0,0
		c0,0,0,0,0.1,0c0,0,0,0,0.1,0c0,0,0,0,0.1,0c0,0,0.1,0,0.1,0c0,0,0.1,0,0.1,0l0.1,0h0h0c0,0,0.1,0,0.1,0c0.1,0,0.1,0,0.2,0
		c0.1,0,0.1,0,0.1,0c0,0,0.1,0,0.1,0c0,0,0.1,0,0.1,0c0.1,0,0.1,0,0.1,0c0,0,0.1,0,0.1,0c0,0,0.1,0,0.1,0c0,0,0,0,0,0c0,0,0,0,0.1,0
		c0,0,0,0,0.1,0c0,0,0,0,0.1-0.1c0.1-0.1,0.1-0.1,0.1-0.2c0-0.1,0-0.1,0.1-0.2c0-0.1,0.1-0.2,0.1-0.3c0-0.2,0.1-0.4,0.1-0.6l0-0.7
		c0-0.2,0.1-0.4,0.1-0.7c0-0.1,0-0.2,0-0.3c0-0.1,0-0.2-0.1-0.3c-0.1-0.2-0.1-0.4-0.1-0.6c0-0.2,0.1-0.4,0.1-0.6c0-0.2,0-0.4,0-0.6
		c0-0.2-0.1-0.4-0.1-0.5c0-0.2-0.1-0.3-0.1-0.5c0-0.2-0.1-0.3-0.1-0.4l0-0.4c0-0.1,0-0.2-0.1-0.3c0.5,0.1,1.9,0.1,4.3-0.1
		c5.1-0.3,10.3-0.6,15.5-1c0,0,0,0,0,0.1c0,0-0.1,0.1-0.1,0.1c-0.1,0.1-0.2,0.2-0.2,0.4c-0.1,0.1-0.1,0.3-0.1,0.4
		c0,0.2,0,0.3-0.1,0.4c0,0.2-0.1,0.3-0.1,0.5l0,0.4c0,0.2,0,0.4,0,0.6l0,0.4l0,0.2l0,0.2c0,0.1,0,0.3-0.1,0.5c0,0.2,0,0.3,0,0.5
		l0.1,0.5c0,0.2,0,0.3,0,0.5c0,0.2,0,0.4,0,0.6l0.1,0.6c0,0.2,0.1,0.4,0.1,0.6c0,0.1,0,0.2,0.1,0.3c0,0,0,0.1,0.1,0.1c0,0,0,0,0,0
		c0,0,0,0,0.1,0c0,0,0,0,0.1,0c0,0,0,0,0.1,0c0,0,0.1,0,0.1,0c0,0,0.1,0,0.1,0l0.1,0h0h0c0,0,0.1,0,0.1,0c0.1,0,0.1,0,0.2,0
		c0.1,0,0.1,0,0.1,0c0,0,0.1,0,0.1,0c0,0,0.1,0,0.1,0c0.1,0,0.1,0,0.1,0c0,0,0.1,0,0.1,0c0,0,0.1,0,0.1,0c0,0,0,0,0,0c0,0,0,0,0.1,0
		c0,0,0,0,0.1,0c0,0,0,0,0.1-0.1c0.1-0.1,0.1-0.1,0.1-0.2c0-0.1,0-0.1,0.1-0.2c0-0.1,0.1-0.2,0.1-0.3c0-0.2,0.1-0.4,0.1-0.6l0-0.7
		c0-0.2,0.1-0.4,0.1-0.7c0-0.1,0-0.2,0-0.3c0-0.1,0-0.2-0.1-0.3C70,39.1,69.9,39,70,38.8c0-0.2,0.1-0.4,0.1-0.6c0-0.2,0-0.4,0-0.6
		c0-0.2-0.1-0.4-0.1-0.5c0-0.2-0.1-0.3-0.1-0.5c0-0.2-0.1-0.3-0.1-0.4l0-0.4c0-0.1,0-0.3-0.1-0.4c0-0.1-0.1-0.2-0.2-0.3
		c3.2,0.1,6.4,0.2,9.6,0.5c-1.8,1.6-3.1,3.7-4.4,5.8c-0.4,0.7-0.8,1.4-1.3,2.1c-0.4,0.7-0.8,1.3-1.2,2c-0.8,1.3-1.7,2.6-2.5,4
		c-1.4,2.2-2.6,4.5-3.9,6.7c-0.3,0.4-0.5,0.8-0.8,1.3c-0.5-0.3-0.9-0.6-1.4-0.9c-1.9-1.1-4-1.7-6.1-1.9c-1.1-0.1-2.1-0.1-3.2,0
		c-1.1,0.1-2.1,0.3-3.2,0.6c-2,0.7-3.9,1.8-5.5,3.2c-1.6,1.4-3,3.2-3.9,5.2c-0.5,1-0.8,2.1-1,3.2c-0.2,1.1-0.3,2.2-0.2,3.4
		c0,0.3,0.1,0.6,0.1,0.8c0,0.1,0,0.3,0.1,0.4l0,0.2l0.1,0.2c0,0.1,0.1,0.2,0.1,0.3c0.1,1,0.2,2.1,0.5,3c0.5,1.9,1.4,3.6,2.5,5.1
		c0.9,1.1,1.9,2.1,3,3c0,0.1-0.1,0.1-0.1,0.2c-0.8,1.3-1.6,2.5-2.5,3.6c-0.6,0.7-1.2,1.5-1.9,2.2l-1.8,2.3l-3.6,4.5
		c-1.2,1.5-2.4,3-3.6,4.6c-1,1.3-2,2.7-3,4.1c-0.3-1.5-0.6-3.1-0.8-4.7C29.5,99.2,29.4,98.3,29.3,97.4z"/>
	<path class="st7" d="M34.9,42.6c2.7-0.5,2.2-5.3,2.2-6.9c0.4,1.8,1.6,5.5,3,4.4c1.5-1,1.4-4.3,0.6-6.5c0.8,2.1,2.2,5.1,3,3.4
		c0.5-3.8-8-21.5-9.1-16.7C33.9,23.3,31.9,43.1,34.9,42.6z"/>
	<linearGradient id="SVGID_5_" gradientUnits="userSpaceOnUse" x1="87.676" y1="69.0339" x2="114.2449" y2="69.0339">
		<stop  offset="0" style="stop-color:#ED2F66"/>
		<stop  offset="1" style="stop-color:#F8A131"/>
	</linearGradient>
	<path class="st11" d="M88.4,65.4C88.4,65.4,88.4,65.5,88.4,65.4c-0.1,0-0.1,0-0.1,0c0,0,0-0.1-0.1-0.1c0,0,0,0-0.1,0
		c0,0-0.1,0-0.1,0c0,0-0.1,0.1-0.1,0.1c0,0.1,0,0.1,0,0.2c0,0,0,0.1,0,0.1c0,0.1,0,0.2,0.1,0.2c0,0.1,0.1,0.3,0.2,0.4
		c0.1,0.3,0.2,0.5,0.4,0.8c0.3,0.5,0.6,1,0.9,1.5c0.6,1,1.4,1.9,2.2,2.9c0.2,0.2,0.4,0.5,0.6,0.7c0.1,0.1,0.2,0.2,0.4,0.4
		c0.1,0.1,0.1,0.1,0.3,0.2l0.2,0.2l0.2,0.2l0.2,0.1c0.1,0.1,0.3,0.2,0.4,0.3c0.3,0.2,0.6,0.4,0.9,0.5c1.2,0.6,2.5,1.1,3.8,1.4
		c2.6,0.6,5.5,0.6,8-0.3c1.3-0.4,2.5-1,3.5-1.9c1-0.8,1.9-1.8,2.5-2.9c0.5-0.8,0.8-1.8,1-2.7c0.1-0.5,0.2-1,0.2-1.5
		c0.1-0.3,0.3-0.6,0.4-0.9l-0.3-0.1c0-0.1,0-0.2,0-0.4v0c0-0.4-0.3-0.7-0.6-0.7c-0.3,0-0.5,0.2-0.6,0.4c0,0.1-0.1,0.2-0.1,0.3
		l-0.3-0.1c0,0.3,0,0.5,0,0.8c-0.4,0.8-0.9,1.6-1.4,2.3c-0.8,1-1.7,1.9-2.8,2.6c-1.1,0.7-2.3,1.1-3.5,1.3c-1.2,0.2-2.5,0.2-3.8,0.1
		c-2.5-0.3-5-1.4-7-2.9c-1-0.8-2-1.7-2.8-2.7c-0.8-1-1.5-2.2-2-3.4c-0.2-0.5-0.5-0.8-0.8-0.8c-0.3,0-0.5,0.3-0.3,0.9
		C87.9,63.9,88.1,64.7,88.4,65.4z M101.2,74.1c1.4,0.1,2.8,0,4.2-0.4c1.3-0.3,2.5-0.9,3.7-1.6c-0.5,0.4-1,0.7-1.6,1
		c-1.1,0.5-2.2,0.8-3.4,1c-1.2,0.1-2.4,0.1-3.6-0.1c0,0,0,0,0,0C100.6,74,100.9,74.1,101.2,74.1z"/>
	<linearGradient id="SVGID_6_" gradientUnits="userSpaceOnUse" x1="59.1495" y1="95.6659" x2="97.8566" y2="95.6659">
		<stop  offset="0" style="stop-color:#ED2F66"/>
		<stop  offset="1" style="stop-color:#F8A131"/>
	</linearGradient>
	<path class="st13" d="M97.6,106.6c-0.1,0-0.3,0-0.4,0.1c-0.7,1.3-1.3,2.4-2.1,3.4c-0.4,0.5-0.8,0.9-1.3,1.2c-0.5,0.4-1,0.7-1.6,0.9
		c-1.2,0.5-2.5,0.8-3.9,0.8c-0.7,0-1.4-0.1-2-0.2c-0.6-0.1-1.3-0.4-1.8-0.7c-0.7-0.5-1.4-1.1-2-1.7c-0.6-0.7-1.1-1.5-1.5-2.3
		c-0.8-1.7-1.2-3.6-1.5-5.5c-0.3-1.9-0.4-3.9-0.4-5.8c0-1.9,0-3.9,0-5.8c0.1-0.1,0.3-0.1,0.4-0.2c0.5-0.3,0.9-0.6,1.2-1
		c0.4-0.4,0.7-0.7,1.1-1.1c0.2-0.2,0.3-0.4,0.5-0.6c0.2-0.2,0.3-0.4,0.4-0.6l0.1-0.1l0.2-0.4l0.3-0.4c0.2-0.3,0.3-0.6,0.5-0.8
		c0.3-0.6,0.7-1.2,0.9-1.8c0.3-0.6,0.6-1.3,0.8-2c0.1-0.3,0.2-0.7,0.3-1.1c0.1-0.4,0.2-0.8,0.2-1.2c0-0.2,0-0.5,0-0.7
		c0-0.3-0.1-0.5-0.2-0.9c-0.1-0.3-0.4-0.6-0.6-0.8c0,0-0.1-0.1-0.1-0.1l-0.1,0l0,0L85.1,77c-0.1-0.1-0.2-0.1-0.3-0.2
		c-0.2-0.1-0.5-0.2-0.7-0.2c-0.2,0-0.5,0-0.7,0c-0.5,0.1-0.9,0.3-1.2,0.5c-0.3,0.2-0.6,0.5-0.9,0.7c-0.2,0.3-0.5,0.5-0.6,0.8
		c-0.4,0.5-0.7,1.1-1,1.6c-0.2,0.5-0.5,0.9-0.7,1.4c-0.1-0.2-0.1-0.4-0.2-0.7c-0.3-1-0.7-2-1.3-2.9c-0.3-0.4-0.7-0.9-1.2-1.2
		c-0.2-0.2-0.5-0.3-0.9-0.4c-0.3-0.1-0.7-0.1-1,0.1c-0.3,0.1-0.6,0.3-0.8,0.6c-0.2,0.2-0.4,0.5-0.5,0.8c-0.2,0.5-0.4,1-0.5,1.6
		c0,0.1,0,0.3-0.1,0.4l0,0.1c0,0,0,0.1,0,0.1c0,0.1,0,0.1,0,0.2c0,0.3,0,0.6,0.1,0.8c0.1,0.5,0.2,1,0.4,1.5c0.3,1,0.7,1.9,1.2,2.8
		s1,1.8,1.5,2.6c0.3,0.4,0.6,0.8,0.9,1.2c0.3,0.4,0.6,0.8,1,1.1c0.1,0.1,0.3,0.2,0.4,0.2c0,0,0,0,0,0.1c-0.3,1.7-0.4,3.4-0.5,5
		c-0.1,1.7-0.1,3.3-0.3,5c-0.2,1.8-0.5,3.6-1.1,5.2c-0.6,1.6-1.4,3.2-2.5,4.4c-0.2,0.3-0.5,0.5-0.7,0.7c-0.1,0.1-0.3,0.2-0.4,0.3
		l-0.2,0.1l-0.1,0.1l0,0c0,0,0,0,0,0l0,0l0,0l0,0l0,0c-0.5,0.4-1.2,0.6-1.8,0.8c-1.3,0.4-2.8,0.5-4.2,0.3c-1.4-0.2-2.8-0.8-3.9-1.7
		c-0.6-0.5-1-1-1.4-1.7c-0.3-0.6-0.6-1.4-0.6-2.1c0-0.1,0-0.1-0.1-0.2c0,0-0.1-0.1-0.2-0.1c-0.1,0-0.3,0.1-0.3,0.2
		c-0.2,0.7-0.2,1.5,0,2.2c0.2,0.8,0.5,1.6,1.1,2.2c0.5,0.7,1.2,1.2,1.9,1.7c0.7,0.4,1.5,0.8,2.3,1c1.6,0.4,3.3,0.4,4.9,0
		c0.8-0.2,1.5-0.4,2.2-0.8c0.2-0.1,0.3-0.2,0.5-0.3c0.1,0,0.2-0.1,0.3-0.1l0.1-0.1l0.1-0.1l0.2-0.2l0.2-0.2c0.1-0.1,0.3-0.2,0.4-0.3
		c0.8-0.6,1.4-1.3,2-2.1c0.6-0.8,1.1-1.6,1.5-2.5c0.5-1,0.8-2,1.1-3.1c0.2,1,0.5,2,0.9,3c0.4,1,0.9,1.9,1.5,2.8s1.3,1.7,2.2,2.3
		c0.3,0.3,0.7,0.5,1.1,0.7c0.4,0.2,0.8,0.4,1.2,0.5c0.8,0.3,1.6,0.5,2.4,0.6c1.6,0.2,3.2,0,4.7-0.4c0.8-0.2,1.5-0.6,2.1-1
		c0.7-0.4,1.2-1,1.7-1.7c0.5-0.6,0.9-1.4,1.2-2.2c0.3-0.8,0.5-1.6,0.6-2.4C97.9,106.8,97.8,106.6,97.6,106.6z"/>
	<g>
		<linearGradient id="SVGID_7_" gradientUnits="userSpaceOnUse" x1="45.8794" y1="67.5971" x2="56.1627" y2="67.5971">
			<stop  offset="0" style="stop-color:#ED2F66"/>
			<stop  offset="1" style="stop-color:#F8A131"/>
		</linearGradient>
		<path class="st15" d="M56.2,57.9c-1.3,2.8-2.6,5.5-3.9,8.3c-0.2,0.5-0.5,0.9-0.7,1.4c-1,2-2,3.9-3.1,5.8c-0.8,1.4-1.6,2.7-2.5,3.9
			c1-2.7,2-5.5,3.2-8.1c0.5-0.9,1-1.9,1.5-2.8c0.9-1.8,1.8-3.5,2.8-5.2c0.7-1.1,1.3-2.3,2.1-3.3C55.6,57.9,55.9,57.9,56.2,57.9z"/>
		<linearGradient id="SVGID_8_" gradientUnits="userSpaceOnUse" x1="60.3195" y1="59.1671" x2="60.7204" y2="59.1671">
			<stop  offset="0" style="stop-color:#ED2F66"/>
			<stop  offset="1" style="stop-color:#F8A131"/>
		</linearGradient>
		<path class="st16" d="M60.7,58.9c-0.1,0.2-0.3,0.4-0.4,0.6c0.1-0.2,0.1-0.5,0.2-0.7C60.6,58.8,60.7,58.9,60.7,58.9z"/>
		<linearGradient id="SVGID_9_" gradientUnits="userSpaceOnUse" x1="50.3084" y1="73.1297" x2="59.691" y2="73.1297">
			<stop  offset="0" style="stop-color:#ED2F66"/>
			<stop  offset="1" style="stop-color:#F8A131"/>
		</linearGradient>
		<path class="st17" d="M50.7,82.4c-0.1,0-0.2-0.1-0.4-0.2c1.8-3.4,3.5-6.8,5.1-10.3c0.3-0.6,0.6-1.2,0.9-1.8
			c1.1-2.1,2.2-4.1,3.3-6.2c0,0,0,0.1-0.1,0.1c-1,2.2-2.1,4.4-3.3,6.6c-1.1,2.2-2.2,4.4-3.3,6.6c-0.5,1.1-1,2.2-1.5,3.4
			C51.3,81.2,51,81.8,50.7,82.4C50.7,82.4,50.7,82.4,50.7,82.4z"/>
		<linearGradient id="SVGID_10_" gradientUnits="userSpaceOnUse" x1="48.0123" y1="70.9523" x2="58.157" y2="70.9523">
			<stop  offset="0" style="stop-color:#ED2F66"/>
			<stop  offset="1" style="stop-color:#F8A131"/>
		</linearGradient>
		<path class="st18" d="M48,80.8c1.8-4.1,3.6-8.1,5.5-11.9c1-2.1,2.2-4.1,3.4-6c0.4-0.6,0.8-1.3,1.2-1.9c-0.4,1-0.7,2-1.1,3
			c-0.8,2-1.6,4-2.5,5.9c-0.7,1.4-1.4,2.7-2.1,4.1c-0.4,0.5-0.9,1-1.2,1.6c-0.8,1.2-1.5,2.5-2.3,3.8c-0.3,0.5-0.5,1-0.8,1.5
			C48.1,80.9,48.1,80.8,48,80.8z"/>
		<linearGradient id="SVGID_11_" gradientUnits="userSpaceOnUse" x1="44.9045" y1="62.4245" x2="48.1607" y2="62.4245">
			<stop  offset="0" style="stop-color:#ED2F66"/>
			<stop  offset="1" style="stop-color:#F8A131"/>
		</linearGradient>
		<path class="st19" d="M47.9,60.5c-1.1,1.4-2.1,2.8-3,4.3c0-0.1,0-0.1,0.1-0.2c0.4-1,0.8-1.9,1.1-2.5c0.1-0.1,0.1-0.2,0.2-0.4
			c0.6-0.6,1.2-1.2,1.9-1.7C48.1,60.2,48,60.4,47.9,60.5z"/>
		<linearGradient id="SVGID_12_" gradientUnits="userSpaceOnUse" x1="42.9646" y1="65.7265" x2="44.5729" y2="65.7265">
			<stop  offset="0" style="stop-color:#ED2F66"/>
			<stop  offset="1" style="stop-color:#F8A131"/>
		</linearGradient>
		<path class="st20" d="M43,67.6c0.4-1.3,0.9-2.5,1.6-3.7C44,65.1,43.5,66.3,43,67.6z"/>
		<linearGradient id="SVGID_13_" gradientUnits="userSpaceOnUse" x1="42.455" y1="70.1098" x2="43.1626" y2="70.1098">
			<stop  offset="0" style="stop-color:#ED2F66"/>
			<stop  offset="1" style="stop-color:#F8A131"/>
		</linearGradient>
		<path class="st21" d="M42.5,70.4c0.1,0,0.1-0.1,0.1-0.2l0,0c0.2-0.3,0.3-0.6,0.5-0.9c-0.2,0.5-0.5,1-0.7,1.5
			C42.5,70.7,42.5,70.6,42.5,70.4z"/>
		<linearGradient id="SVGID_14_" gradientUnits="userSpaceOnUse" x1="43.7465" y1="69.8933" x2="49.0416" y2="69.8933">
			<stop  offset="0" style="stop-color:#ED2F66"/>
			<stop  offset="1" style="stop-color:#F8A131"/>
		</linearGradient>
		<path class="st22" d="M43.7,74.7c0.2-0.6,0.4-1.2,0.6-1.8c1.4-2.1,2.6-4.3,3.8-6.5c0.3-0.5,0.6-1,0.9-1.5
			c-0.2,0.5-0.4,0.9-0.6,1.4c-0.3,0.8-0.7,1.6-1,2.4c-1.1,2.1-2.3,4.2-3.6,6.1C43.8,74.8,43.8,74.8,43.7,74.7z"/>
		<linearGradient id="SVGID_15_" gradientUnits="userSpaceOnUse" x1="61.9229" y1="69.3328" x2="63.3976" y2="69.3328">
			<stop  offset="0" style="stop-color:#ED2F66"/>
			<stop  offset="1" style="stop-color:#F8A131"/>
		</linearGradient>
		<path class="st23" d="M62.6,69.6c-0.2,0.5-0.5,1-0.7,1.5c0.5-1.2,1-2.3,1.5-3.4C63.1,68.3,62.9,68.9,62.6,69.6z"/>
		<linearGradient id="SVGID_16_" gradientUnits="userSpaceOnUse" x1="52.6095" y1="73.1074" x2="62.4128" y2="73.1074">
			<stop  offset="0" style="stop-color:#ED2F66"/>
			<stop  offset="1" style="stop-color:#F8A131"/>
		</linearGradient>
		<path class="st24" d="M53.1,81.6c0.6-1.1,1.1-2.2,1.6-3.3l3.2-6.5c1.1-2.1,2.1-4.3,3.2-6.4c0.4-0.8,0.8-1.6,1.3-2.4
			c-0.3,0.8-0.6,1.5-0.9,2.3c-0.9,2.1-1.9,4.2-2.9,6.3c-1,2.1-2,4.2-2.9,6.4c-0.5,1.1-0.9,2.2-1.3,3.3c-0.2,0.5-0.3,1-0.4,1.5
			c-0.3,0-0.5-0.1-0.8-0.1c-0.2,0-0.3-0.1-0.5-0.1C52.8,82.5,52.9,82,53.1,81.6z"/>
		<linearGradient id="SVGID_17_" gradientUnits="userSpaceOnUse" x1="56.2864" y1="81.7663" x2="57.7512" y2="81.7663">
			<stop  offset="0" style="stop-color:#ED2F66"/>
			<stop  offset="1" style="stop-color:#F8A131"/>
		</linearGradient>
		<path class="st25" d="M56.5,82.7c0.4-0.7,0.8-1.5,1.2-2.2c-0.4,0.9-0.7,1.7-1.1,2.6c-0.1,0-0.3,0-0.4,0
			C56.4,82.9,56.5,82.8,56.5,82.7z"/>
		<linearGradient id="SVGID_18_" gradientUnits="userSpaceOnUse" x1="52.1394" y1="58.2578" x2="52.2137" y2="58.2578">
			<stop  offset="0" style="stop-color:#ED2F66"/>
			<stop  offset="1" style="stop-color:#F8A131"/>
		</linearGradient>
		<path class="st27" d="M52.2,58.3L52.2,58.3C52.2,58.2,52.2,58.2,52.2,58.3C52.2,58.2,52.2,58.3,52.2,58.3z"/>
		<linearGradient id="SVGID_19_" gradientUnits="userSpaceOnUse" x1="68.7322" y1="71.8925" x2="69.9401" y2="71.8925">
			<stop  offset="0" style="stop-color:#ED2F66"/>
			<stop  offset="1" style="stop-color:#F8A131"/>
		</linearGradient>
		<path class="st28" d="M69.8,71.2c-0.1,0.4-0.3,0.8-0.5,1.2c-0.2,0.4-0.4,0.9-0.6,1.3c0.3-0.8,0.6-1.6,0.8-2.4
			c0.1-0.4,0.3-0.8,0.4-1.3c0,0.3,0,0.5,0,0.8C69.9,71,69.9,71.1,69.8,71.2z"/>
		<linearGradient id="SVGID_20_" gradientUnits="userSpaceOnUse" x1="60.7847" y1="57.6775" x2="61.6804" y2="57.6775">
			<stop  offset="0" style="stop-color:#ED2F66"/>
			<stop  offset="1" style="stop-color:#F8A131"/>
		</linearGradient>
		<path class="st29" d="M61.2,58.2c-0.1-0.1-0.3-0.1-0.4-0.2c0.1-0.3,0.2-0.5,0.2-0.8c0.2,0.1,0.4,0.2,0.7,0.3
			C61.5,57.7,61.3,57.9,61.2,58.2z"/>
		<linearGradient id="SVGID_21_" gradientUnits="userSpaceOnUse" x1="58.6568" y1="56.72" x2="59.4436" y2="56.72">
			<stop  offset="0" style="stop-color:#ED2F66"/>
			<stop  offset="1" style="stop-color:#F8A131"/>
		</linearGradient>
		<path class="st30" d="M59.2,56.9C59.3,56.9,59.3,56.9,59.2,56.9l-0.6-0.4c0.3,0.1,0.5,0.1,0.8,0.2C59.4,56.8,59.3,56.8,59.2,56.9z
			"/>
		<linearGradient id="SVGID_22_" gradientUnits="userSpaceOnUse" x1="56.2171" y1="56.5121" x2="56.9149" y2="56.5121">
			<stop  offset="0" style="stop-color:#ED2F66"/>
			<stop  offset="1" style="stop-color:#F8A131"/>
		</linearGradient>
		<path class="st31" d="M56.7,56.8c-0.2,0-0.3,0-0.5-0.1c0.1-0.1,0.2-0.2,0.3-0.3l-0.2-0.1c0.2,0,0.4,0,0.6,0
			C56.8,56.4,56.8,56.6,56.7,56.8z"/>
		<linearGradient id="SVGID_23_" gradientUnits="userSpaceOnUse" x1="50.5954" y1="56.8523" x2="53.1143" y2="56.8523">
			<stop  offset="0" style="stop-color:#ED2F66"/>
			<stop  offset="1" style="stop-color:#F8A131"/>
		</linearGradient>
		<path class="st32" d="M53,56.7c-0.8,0.1-1.6,0.3-2.4,0.5c0.6-0.3,1.3-0.5,2-0.7c0.2,0,0.4-0.1,0.5-0.1C53.1,56.5,53,56.6,53,56.7z
			"/>
		<linearGradient id="SVGID_24_" gradientUnits="userSpaceOnUse" x1="31.7312" y1="69.0235" x2="31.746" y2="69.0235">
			<stop  offset="0" style="stop-color:#ED2F66"/>
			<stop  offset="1" style="stop-color:#F8A131"/>
		</linearGradient>
		<path class="st33" d="M31.7,69L31.7,69C31.7,69,31.7,69,31.7,69C31.7,69,31.7,69,31.7,69z"/>
	</g>
	<linearGradient id="SVGID_25_" gradientUnits="userSpaceOnUse" x1="63.8142" y1="104.7886" x2="66.0154" y2="104.7886">
		<stop  offset="0" style="stop-color:#3F58A6"/>
		<stop  offset="1" style="stop-color:#C9A2C8"/>
	</linearGradient>
	<path class="st34" d="M63.9,105.5c0,0.1,0,0.2,0,0.3c0,0.1,0,0.2,0,0.3l0.1,0.3c0,0.1,0,0.2,0.1,0.3c0,0,0,0.1,0.1,0.2
		c0,0,0,0.1,0.1,0.1c0,0,0,0,0,0c0,0,0,0,0,0c0,0,0,0,0.1,0c0,0,0,0,0,0c0,0,0,0,0.1,0c0,0,0.1,0,0.1,0h0.1h0h0c0,0,0,0,0.1,0
		c0,0,0.1,0,0.2,0c0.1,0,0.1,0,0.1,0c0,0,0.1,0,0.1,0c0,0,0,0,0.1,0c0,0,0.1,0,0.1,0c0,0,0.1,0,0.1,0c0,0,0.1,0,0.1,0c0,0,0,0,0,0
		c0,0,0,0,0,0c0,0,0,0,0,0c0,0,0,0,0,0c0,0,0.1-0.1,0.1-0.1c0,0,0-0.1,0.1-0.1c0-0.1,0.1-0.1,0.1-0.2c0-0.1,0.1-0.2,0.1-0.3l0-0.3
		c0-0.1,0.1-0.2,0.1-0.3c0-0.1,0-0.1,0-0.2c0-0.1,0-0.1,0-0.2c0-0.1-0.1-0.2-0.1-0.3c0-0.1,0.1-0.2,0.1-0.3c0-0.1,0-0.2,0-0.3
		c0-0.1,0-0.2-0.1-0.3c0-0.1,0-0.2-0.1-0.3c0-0.1-0.1-0.2-0.1-0.2l0-0.2c0-0.1,0-0.1-0.1-0.2c0-0.1-0.1-0.1-0.1-0.2
		c-0.1-0.1-0.2-0.2-0.3-0.2c0,0,0,0,0,0c0,0,0,0,0,0c0,0,0,0,0,0c0,0,0,0,0,0h0h0c0,0,0,0,0,0h0c0,0,0,0,0,0c0,0,0,0-0.1,0
		c0,0-0.1,0-0.1,0c0,0-0.1,0-0.1,0c0,0-0.1,0-0.1,0s0,0,0,0c0,0,0,0,0,0c0,0,0,0,0,0l0,0l0,0.1c0,0,0,0,0,0c0,0-0.1-0.1-0.1-0.1l0,0
		c0,0,0,0,0,0c-0.1,0-0.1,0.1-0.1,0.3c0,0-0.1,0-0.1,0.1c-0.1,0.1-0.1,0.1-0.2,0.2c0,0.1-0.1,0.1-0.1,0.2c0,0.1,0,0.2-0.1,0.2
		c0,0.1-0.1,0.2-0.1,0.3l0,0.2c0,0.1,0,0.2,0,0.3l0,0.2l0,0.1l0,0.1c0,0.1,0,0.1-0.1,0.2c0,0.1,0,0.2,0,0.3L63.9,105.5z M65.4,105.1
		C65.4,105.2,65.4,105.2,65.4,105.1c0.1,0.1,0.1,0.2,0.1,0.2c0,0,0,0.1,0,0.2c0,0.1-0.1,0.2-0.1,0.2
		C65.4,105.6,65.4,105.4,65.4,105.1z M65.3,106.1c0,0,0,0.1,0,0.1c0,0,0,0.1,0,0.1C65.3,106.3,65.3,106.2,65.3,106.1z"/>
	<linearGradient id="SVGID_26_" gradientUnits="userSpaceOnUse" x1="67.9612" y1="98.1068" x2="70.1624" y2="98.1068">
		<stop  offset="0" style="stop-color:#3F58A6"/>
		<stop  offset="1" style="stop-color:#C9A2C8"/>
	</linearGradient>
	<path class="st35" d="M68,98.8c0,0.1,0,0.2,0,0.3c0,0.1,0,0.2,0,0.3l0.1,0.3c0,0.1,0,0.2,0.1,0.3c0,0,0,0.1,0.1,0.2
		c0,0,0,0.1,0,0.1c0,0,0,0,0,0c0,0,0,0,0,0c0,0,0,0,0.1,0c0,0,0,0,0,0c0,0,0,0,0.1,0c0,0,0.1,0,0.1,0l0.1,0h0h0c0,0,0,0,0.1,0
		c0,0,0.1,0,0.2,0c0.1,0,0.1,0,0.1,0c0,0,0.1,0,0.1,0c0,0,0,0,0.1,0c0,0,0.1,0,0.1,0c0,0,0.1,0,0.1,0c0,0,0.1,0,0.1,0c0,0,0,0,0,0
		c0,0,0,0,0,0c0,0,0,0,0,0c0,0,0,0,0,0c0,0,0.1-0.1,0.1-0.1c0,0,0-0.1,0.1-0.1c0,0,0-0.1,0.1-0.2c0-0.1,0.1-0.2,0.1-0.3l0-0.4
		c0-0.1,0.1-0.2,0.1-0.3c0-0.1,0-0.1,0-0.2c0-0.1,0-0.1,0-0.2c0-0.1-0.1-0.2-0.1-0.3c0-0.1,0.1-0.2,0.1-0.3c0-0.1,0-0.2,0-0.3
		c0-0.1,0-0.2-0.1-0.3c0-0.1,0-0.2-0.1-0.3c0-0.1-0.1-0.2-0.1-0.2l0-0.2c0-0.1,0-0.1-0.1-0.2c0-0.1-0.1-0.1-0.1-0.2
		c-0.1-0.1-0.2-0.2-0.3-0.2c0,0,0,0,0,0c0,0,0,0,0,0c0,0,0,0,0,0c0,0,0,0,0,0l0,0h0c0,0,0,0,0,0h0c0,0,0,0,0,0c0,0,0,0-0.1,0
		c0,0-0.1,0-0.1,0c0,0-0.1,0-0.1,0c0,0-0.1,0-0.1,0c0,0,0,0,0,0c0,0,0,0,0,0c0,0,0,0,0,0l0,0l0,0.1c0,0,0,0,0,0c0,0-0.1-0.1-0.1-0.1
		c0,0,0,0,0,0c0,0,0,0,0,0c-0.1,0-0.1,0.1-0.1,0.3c0,0-0.1,0-0.1,0.1c-0.1,0.1-0.1,0.1-0.2,0.2c0,0.1-0.1,0.1-0.1,0.2
		c0,0.1,0,0.2-0.1,0.2c0,0.1-0.1,0.2-0.1,0.3l0,0.2c0,0.1,0,0.2,0,0.3l0,0.2l0,0.1l0,0.1c0,0.1,0,0.2-0.1,0.2c0,0.1,0,0.2,0,0.3
		L68,98.8z M69.6,98.5C69.6,98.5,69.6,98.5,69.6,98.5c0.1,0.1,0.1,0.2,0.1,0.2c0,0.1,0,0.1,0,0.2c0,0.1-0.1,0.2-0.1,0.2
		C69.5,98.9,69.6,98.7,69.6,98.5z M69.5,99.4c0,0,0,0.1,0,0.1c0,0,0,0.1,0,0.1C69.4,99.6,69.4,99.5,69.5,99.4z"/>
	<linearGradient id="SVGID_27_" gradientUnits="userSpaceOnUse" x1="87.3598" y1="99.2536" x2="89.561" y2="99.2536">
		<stop  offset="0" style="stop-color:#3F58A6"/>
		<stop  offset="1" style="stop-color:#C9A2C8"/>
	</linearGradient>
	<path class="st36" d="M87.4,100c0,0.1,0,0.2,0,0.3c0,0.1,0,0.2,0,0.3l0.1,0.3c0,0.1,0,0.2,0.1,0.3c0,0,0,0.1,0.1,0.2
		c0,0,0,0.1,0,0.1c0,0,0,0,0,0c0,0,0,0,0,0c0,0,0,0,0.1,0c0,0,0,0,0,0c0,0,0,0,0.1,0c0,0,0.1,0,0.1,0h0.1h0h0c0,0,0,0,0.1,0
		c0,0,0.1,0,0.2,0c0.1,0,0.1,0,0.1,0c0,0,0.1,0,0.1,0c0,0,0,0,0.1,0c0,0,0.1,0,0.1,0c0,0,0.1,0,0.1,0c0,0,0.1,0,0.1,0c0,0,0,0,0,0
		c0,0,0,0,0,0c0,0,0,0,0,0c0,0,0,0,0,0c0,0,0.1-0.1,0.1-0.1c0,0,0-0.1,0.1-0.1c0-0.1,0.1-0.1,0.1-0.2c0-0.1,0.1-0.2,0.1-0.3l0-0.3
		c0-0.1,0.1-0.2,0.1-0.3c0-0.1,0-0.1,0-0.2c0-0.1,0-0.1,0-0.2c0-0.1-0.1-0.2-0.1-0.3c0-0.1,0-0.2,0.1-0.3c0-0.1,0-0.2,0-0.3
		c0-0.1,0-0.2-0.1-0.3c0-0.1,0-0.2-0.1-0.3c0-0.1-0.1-0.2-0.1-0.2l0-0.2c0-0.1,0-0.1-0.1-0.2c0-0.1-0.1-0.1-0.1-0.2
		c-0.1-0.1-0.2-0.2-0.3-0.2c0,0,0,0,0,0c0,0,0,0,0,0c0,0,0,0,0,0c0,0,0,0,0,0c0,0,0,0,0,0l0,0c0,0,0,0,0,0h0c0,0,0,0,0,0
		c0,0,0,0-0.1,0c0,0-0.1,0-0.1,0c0,0-0.1,0-0.1,0c0,0-0.1,0-0.1,0c0,0,0,0,0,0c0,0,0,0,0,0c0,0,0,0,0,0l0,0l0,0.1c0,0,0,0,0,0
		c0,0-0.1-0.1-0.2-0.1l0,0c0,0,0,0,0,0c-0.1,0-0.1,0.1-0.1,0.3c0,0-0.1,0-0.1,0.1c-0.1,0.1-0.1,0.1-0.2,0.2c0,0.1-0.1,0.1-0.1,0.2
		c0,0.1,0,0.2-0.1,0.2c0,0.1-0.1,0.2-0.1,0.3l0,0.2c0,0.1,0,0.2,0,0.3l0,0.2l0,0.1l0,0.1c0,0.1,0,0.1,0,0.2c0,0.1,0,0.2,0,0.3
		L87.4,100z M89,99.6C89,99.6,89,99.7,89,99.6c0.1,0.1,0.1,0.2,0.1,0.2c0,0,0,0.1,0,0.2c0,0.1-0.1,0.2-0.1,0.2
		C88.9,100.1,89,99.8,89,99.6z M88.9,100.6c0,0,0,0.1,0,0.1c0,0,0,0.1,0,0.1C88.8,100.7,88.8,100.7,88.9,100.6z"/>
	<linearGradient id="SVGID_28_" gradientUnits="userSpaceOnUse" x1="89.7626" y1="105.9851" x2="91.9661" y2="105.9851">
		<stop  offset="0" style="stop-color:#3F58A6"/>
		<stop  offset="1" style="stop-color:#C9A2C8"/>
	</linearGradient>
	<path class="st37" d="M89.8,107.3l0.1,0.3c0,0.1,0,0.2,0.1,0.3c0,0,0,0.1,0.1,0.2c0,0,0,0.1,0.1,0.1c0,0,0,0,0,0c0,0,0,0,0,0
		c0,0,0,0,0.1,0c0,0,0,0,0,0c0,0,0,0,0.1,0c0,0,0.1,0,0.1,0l0.1,0h0h0c0,0,0,0,0.1,0c0.1,0,0.1,0,0.2,0c0.1,0,0.1,0,0.1,0
		c0,0,0.1,0,0.1,0c0,0,0,0,0.1,0c0,0,0.1,0,0.1,0c0,0,0.1,0,0.1,0c0,0,0.1,0,0.1,0c0,0,0,0,0,0c0,0,0,0,0,0c0,0,0,0,0,0c0,0,0,0,0,0
		c0,0,0.1-0.1,0.1-0.1c0,0,0-0.1,0.1-0.1c0-0.1,0.1-0.1,0.1-0.2c0-0.1,0.1-0.2,0.1-0.3l0-0.4c0-0.1,0.1-0.2,0.1-0.3
		c0-0.1,0-0.1,0-0.2c0-0.1,0-0.1,0-0.2c0-0.1-0.1-0.2-0.1-0.3c0-0.1,0-0.2,0.1-0.3c0-0.1,0-0.2,0-0.3c0-0.1,0-0.2-0.1-0.3
		c0-0.1,0-0.2-0.1-0.3c0-0.1-0.1-0.2-0.1-0.2l0-0.2c0-0.1,0-0.1-0.1-0.2c0-0.1-0.1-0.1-0.1-0.2c-0.1-0.1-0.2-0.2-0.3-0.2
		c0,0,0,0,0,0c0,0,0,0,0,0c0,0,0,0,0,0c0,0,0,0,0,0h0l0,0c0,0,0,0,0,0h0c0,0,0,0,0,0c0,0,0,0-0.1,0c0,0-0.1,0-0.1,0c0,0-0.1,0-0.1,0
		c0,0-0.1,0-0.1,0c0,0,0,0,0,0c0,0,0,0,0,0c0,0,0,0,0,0c0,0,0,0,0,0l0,0.1c0,0,0,0,0,0c0,0-0.1-0.1-0.1-0.1l0,0c0,0,0,0,0,0
		c-0.1,0-0.1,0.1-0.1,0.3c0,0-0.1,0-0.1,0.1c-0.1,0.1-0.1,0.1-0.2,0.2c-0.1,0.1-0.1,0.1-0.1,0.2c0,0.1,0,0.2-0.1,0.2
		c0,0.1-0.1,0.2-0.1,0.3l0,0.2c0,0.1,0,0.2,0,0.3l0,0.2l0,0.1l0,0.1c0,0.1,0,0.2,0,0.2c0,0.1,0,0.2,0,0.3l0,0.3c0,0.1,0,0.2,0,0.3
		C89.8,107.1,89.8,107.2,89.8,107.3z M91.4,106.3C91.4,106.4,91.4,106.4,91.4,106.3c0.1,0.1,0.1,0.2,0.1,0.2c0,0.1,0,0.1,0,0.2
		c0,0.1-0.1,0.2-0.1,0.2C91.3,106.8,91.4,106.6,91.4,106.3z M91.3,107.3c0,0,0,0.1,0,0.1c0,0,0,0.1,0,0.1
		C91.2,107.5,91.2,107.4,91.3,107.3z"/>
	<linearGradient id="SVGID_29_" gradientUnits="userSpaceOnUse" x1="70.3465" y1="105.2167" x2="72.5476" y2="105.2167">
		<stop  offset="0" style="stop-color:#3F58A6"/>
		<stop  offset="1" style="stop-color:#C9A2C8"/>
	</linearGradient>
	<path class="st38" d="M70.4,105.9c0,0.1,0,0.2,0,0.3c0,0.1,0,0.2,0,0.3l0.1,0.3c0,0.1,0,0.2,0.1,0.3c0,0.1,0,0.1,0.1,0.2
		c0,0,0,0.1,0,0.1c0,0,0,0,0,0c0,0,0,0,0,0c0,0,0,0,0.1,0c0,0,0,0,0,0c0,0,0,0,0.1,0c0,0,0.1,0,0.1,0h0.1h0h0c0,0,0,0,0.1,0
		c0,0,0.1,0,0.2,0c0.1,0,0.1,0,0.1,0c0,0,0.1,0,0.1,0c0,0,0,0,0.1,0c0,0,0.1,0,0.1,0c0,0,0.1,0,0.1,0c0,0,0.1,0,0.1,0c0,0,0,0,0,0
		c0,0,0,0,0,0c0,0,0,0,0,0c0,0,0,0,0,0c0,0,0.1-0.1,0.1-0.1c0,0,0-0.1,0.1-0.1c0-0.1,0-0.1,0.1-0.2c0-0.1,0.1-0.2,0.1-0.3l0-0.3
		c0-0.1,0.1-0.2,0.1-0.3c0-0.1,0-0.1,0-0.2c0-0.1,0-0.1,0-0.2c0-0.1-0.1-0.2-0.1-0.3c0-0.1,0-0.2,0.1-0.3c0-0.1,0-0.2,0-0.3
		c0-0.1,0-0.2-0.1-0.3c0-0.1,0-0.2-0.1-0.3c0-0.1-0.1-0.2-0.1-0.2l0-0.2c0-0.1,0-0.1-0.1-0.2c0-0.1-0.1-0.1-0.1-0.2
		c-0.1-0.1-0.2-0.2-0.3-0.2c0,0,0,0,0,0c0,0,0,0,0,0c0,0,0,0,0,0c0,0,0,0,0,0c0,0,0,0,0,0l0,0c0,0,0,0,0,0h0c0,0,0,0,0,0
		c0,0,0,0-0.1,0c0,0-0.1,0-0.1,0c0,0-0.1,0-0.1,0c0,0-0.1,0-0.1,0c0,0,0,0,0,0c0,0,0,0,0,0c0,0,0,0,0,0c0,0,0,0,0,0l0,0.1
		c0,0,0,0,0,0c0,0-0.1-0.1-0.2-0.1l0,0c0,0,0,0,0,0c-0.1,0-0.1,0.1-0.1,0.3c0,0-0.1,0-0.1,0.1c-0.1,0.1-0.1,0.1-0.2,0.2
		c0,0.1-0.1,0.1-0.1,0.2c0,0.1,0,0.2-0.1,0.2c0,0.1-0.1,0.2-0.1,0.3l0,0.2c0,0.1,0,0.2,0,0.3l0,0.2l0,0.1l0,0.1c0,0.1,0,0.1,0,0.2
		c0,0.1,0,0.2,0,0.3L70.4,105.9z M71.9,105.6C72,105.6,72,105.6,71.9,105.6c0.1,0.1,0.1,0.2,0.1,0.2c0,0,0,0.1,0,0.2
		c0,0.1-0.1,0.2-0.1,0.2C71.9,106,71.9,105.8,71.9,105.6z M71.8,106.5c0,0,0,0.1,0,0.1c0,0,0,0.1,0,0.1
		C71.8,106.7,71.8,106.6,71.8,106.5z"/>
	<linearGradient id="SVGID_30_" gradientUnits="userSpaceOnUse" x1="83.8264" y1="105.8515" x2="86.0277" y2="105.8515">
		<stop  offset="0" style="stop-color:#3F58A6"/>
		<stop  offset="1" style="stop-color:#C9A2C8"/>
	</linearGradient>
	<path class="st39" d="M83.9,107.1l0.1,0.3c0,0.1,0,0.2,0.1,0.3c0,0,0,0.1,0.1,0.2c0,0,0,0.1,0,0.1c0,0,0,0,0,0c0,0,0,0,0,0
		c0,0,0,0,0.1,0c0,0,0,0,0,0c0,0,0,0,0.1,0c0,0,0.1,0,0.1,0l0.1,0h0h0c0,0,0,0,0.1,0c0,0,0.1,0,0.2,0c0.1,0,0.1,0,0.1,0
		c0,0,0.1,0,0.1,0c0,0,0,0,0.1,0c0,0,0.1,0,0.1,0c0,0,0.1,0,0.1,0c0,0,0.1,0,0.1,0c0,0,0,0,0,0c0,0,0,0,0,0c0,0,0,0,0,0c0,0,0,0,0,0
		c0,0,0.1-0.1,0.1-0.1c0,0,0-0.1,0.1-0.1c0-0.1,0.1-0.1,0.1-0.2c0-0.1,0.1-0.2,0.1-0.3l0-0.4c0-0.1,0.1-0.2,0.1-0.3
		c0-0.1,0-0.1,0-0.2c0-0.1,0-0.1,0-0.2c0-0.1-0.1-0.2-0.1-0.3c0-0.1,0-0.2,0.1-0.3c0-0.1,0-0.2,0-0.3c0-0.1,0-0.2-0.1-0.3
		c0-0.1,0-0.2-0.1-0.3c0-0.1-0.1-0.2-0.1-0.2l0-0.2c0-0.1,0-0.1-0.1-0.2c0-0.1-0.1-0.1-0.1-0.2c-0.1-0.1-0.2-0.2-0.3-0.2
		c0,0,0,0,0,0c0,0,0,0,0,0c0,0,0,0,0,0c0,0,0,0,0,0c0,0,0,0,0,0l0,0c0,0,0,0,0,0h0c0,0,0,0,0,0c0,0,0,0-0.1,0c0,0-0.1,0-0.1,0
		c0,0-0.1,0-0.1,0c0,0-0.1,0-0.1,0c0,0,0,0,0,0c0,0,0,0,0,0c0,0,0,0,0,0c0,0,0,0,0,0l0,0.1c0,0,0,0,0,0c0,0-0.1-0.1-0.2-0.1l0,0
		c0,0,0,0,0,0c-0.1,0-0.1,0.1-0.1,0.3c0,0-0.1,0-0.1,0.1c-0.1,0.1-0.1,0.1-0.2,0.2c0,0.1-0.1,0.1-0.1,0.2c0,0.1,0,0.1-0.1,0.2
		c0,0.1-0.1,0.2-0.1,0.3l0,0.2c0,0.1,0,0.2,0,0.3l0,0.2l0,0.1l0,0.1c0,0.1,0,0.2,0,0.2c0,0.1,0,0.2,0,0.3l0.1,0.3c0,0.1,0,0.2,0,0.3
		C83.9,106.9,83.9,107,83.9,107.1z M85.4,106.2C85.4,106.2,85.4,106.3,85.4,106.2c0.1,0.1,0.1,0.2,0.1,0.2c0,0.1,0,0.1,0,0.2
		c0,0.1-0.1,0.2-0.1,0.2C85.4,106.7,85.4,106.4,85.4,106.2z M85.3,107.2c0,0,0,0.1,0,0.1c0,0,0,0.1,0,0.1
		C85.3,107.3,85.3,107.3,85.3,107.2z"/>
	<g>
		<linearGradient id="SVGID_31_" gradientUnits="userSpaceOnUse" x1="113.2354" y1="46.0717" x2="113.3937" y2="46.0717">
			<stop  offset="0" style="stop-color:#3F58A6"/>
			<stop  offset="1" style="stop-color:#C9A2C8"/>
		</linearGradient>
		<path class="st40" d="M113.3,45.5c0,0.1,0,0.1,0,0.2c0,0.1,0,0.2,0,0.3c0,0.1,0,0.2,0,0.3c0,0.2-0.1,0.3-0.1,0.5
			C113.3,46.3,113.3,45.9,113.3,45.5z"/>
		<linearGradient id="SVGID_32_" gradientUnits="userSpaceOnUse" x1="113.0919" y1="47.5229" x2="113.1661" y2="47.5229">
			<stop  offset="0" style="stop-color:#3F58A6"/>
			<stop  offset="1" style="stop-color:#C9A2C8"/>
		</linearGradient>
		<path class="st41" d="M113.2,47.3c0,0.1,0,0.2,0,0.3c0,0.1,0,0.1,0,0.2C113.1,47.6,113.1,47.5,113.2,47.3z"/>
		<linearGradient id="SVGID_33_" gradientUnits="userSpaceOnUse" x1="96.9642" y1="42.8019" x2="97.1226" y2="42.8019">
			<stop  offset="0" style="stop-color:#3F58A6"/>
			<stop  offset="1" style="stop-color:#C9A2C8"/>
		</linearGradient>
		<path class="st42" d="M97.1,42.6c0,0.1,0,0.2,0,0.3c0,0.2-0.1,0.3-0.1,0.5c0-0.4,0-0.8,0.1-1.2c0,0.1,0,0.1,0.1,0.2
			C97.1,42.4,97.1,42.5,97.1,42.6z"/>
		<linearGradient id="SVGID_34_" gradientUnits="userSpaceOnUse" x1="96.8207" y1="44.2531" x2="96.89" y2="44.2531">
			<stop  offset="0" style="stop-color:#3F58A6"/>
			<stop  offset="1" style="stop-color:#C9A2C8"/>
		</linearGradient>
		<path class="st43" d="M96.9,44c0,0.1,0,0.2,0,0.3c0,0.1,0,0.1,0,0.2C96.8,44.3,96.9,44.2,96.9,44z"/>
		<linearGradient id="SVGID_35_" gradientUnits="userSpaceOnUse" x1="86.9779" y1="40.6938" x2="87.1362" y2="40.6938">
			<stop  offset="0" style="stop-color:#3F58A6"/>
			<stop  offset="1" style="stop-color:#C9A2C8"/>
		</linearGradient>
		<path class="st44" d="M87.1,40.5c0,0.1,0,0.2,0,0.3c0,0.2-0.1,0.3-0.1,0.5c0-0.4,0-0.8,0.1-1.2c0,0.1,0,0.1,0.1,0.2
			C87.1,40.3,87.1,40.4,87.1,40.5z"/>
		<linearGradient id="SVGID_36_" gradientUnits="userSpaceOnUse" x1="86.8344" y1="42.145" x2="86.9036" y2="42.145">
			<stop  offset="0" style="stop-color:#3F58A6"/>
			<stop  offset="1" style="stop-color:#C9A2C8"/>
		</linearGradient>
		<path class="st45" d="M86.9,41.9c0,0.1,0,0.2,0,0.3c0,0.1,0,0.1,0,0.2C86.9,42.2,86.9,42.1,86.9,41.9z"/>
		<linearGradient id="SVGID_37_" gradientUnits="userSpaceOnUse" x1="69.2172" y1="41.4472" x2="69.2815" y2="41.4472">
			<stop  offset="0" style="stop-color:#3F58A6"/>
			<stop  offset="1" style="stop-color:#C9A2C8"/>
		</linearGradient>
		<path class="st46" d="M69.3,41.2c0,0.1,0,0.2,0,0.3c0,0.1,0,0.1,0,0.2C69.2,41.5,69.3,41.4,69.3,41.2z"/>
		<linearGradient id="SVGID_38_" gradientUnits="userSpaceOnUse" x1="69.331" y1="39.9936" x2="69.4696" y2="39.9936">
			<stop  offset="0" style="stop-color:#3F58A6"/>
			<stop  offset="1" style="stop-color:#C9A2C8"/>
		</linearGradient>
		<path class="st47" d="M69.4,39.4c0,0,0,0.1,0.1,0.1c0,0.1,0.1,0.2,0.1,0.3c0,0.1,0,0.2,0,0.3c0,0.1-0.1,0.3-0.1,0.5
			C69.4,40.2,69.4,39.8,69.4,39.4z"/>
		<linearGradient id="SVGID_39_" gradientUnits="userSpaceOnUse" x1="47.8836" y1="40.7643" x2="48.042" y2="40.7643">
			<stop  offset="0" style="stop-color:#3F58A6"/>
			<stop  offset="1" style="stop-color:#C9A2C8"/>
		</linearGradient>
		<path class="st48" d="M48,40.6c0,0.1,0,0.2,0,0.3c0,0.1-0.1,0.3-0.1,0.5c0-0.4,0-0.8,0.1-1.2c0,0.1,0,0.1,0.1,0.2
			C48,40.4,48,40.5,48,40.6z"/>
		<linearGradient id="SVGID_40_" gradientUnits="userSpaceOnUse" x1="47.7351" y1="42.2155" x2="47.8094" y2="42.2155">
			<stop  offset="0" style="stop-color:#3F58A6"/>
			<stop  offset="1" style="stop-color:#C9A2C8"/>
		</linearGradient>
		<path class="st49" d="M47.8,42c0,0.1,0,0.2,0,0.3c0,0.1,0,0.1,0,0.2C47.8,42.3,47.8,42.2,47.8,42z"/>
		<linearGradient id="SVGID_41_" gradientUnits="userSpaceOnUse" x1="47.6807" y1="35.4445" x2="47.6906" y2="35.4445">
			<stop  offset="0" style="stop-color:#3F58A6"/>
			<stop  offset="1" style="stop-color:#C9A2C8"/>
		</linearGradient>
		<path class="st50" d="M47.7,35.5C47.7,35.5,47.7,35.5,47.7,35.5C47.7,35.4,47.7,35.4,47.7,35.5C47.7,35.4,47.7,35.4,47.7,35.5z"/>
		<linearGradient id="SVGID_42_" gradientUnits="userSpaceOnUse" x1="33.3583" y1="61.9408" x2="34.776" y2="61.9408">
			<stop  offset="0" style="stop-color:#3F58A6"/>
			<stop  offset="1" style="stop-color:#C9A2C8"/>
		</linearGradient>
		<path class="st51" d="M34.7,62.2c0-0.1-0.1-0.2-0.1-0.3c0-0.1,0-0.2,0-0.3c0-0.1,0-0.2,0-0.3c0-0.1,0-0.2-0.1-0.3
			c0-0.1,0-0.2-0.1-0.2c0-0.1,0-0.1-0.1-0.2l0-0.2c0-0.1,0-0.1-0.1-0.2c0-0.1-0.1-0.1-0.1-0.1c-0.1-0.1-0.1-0.1-0.2-0.2c0,0,0,0,0,0
			c0,0,0,0,0,0c0,0,0,0,0,0c0,0,0,0,0,0l0,0h0c0,0,0,0,0,0l0,0c0,0,0,0,0,0c0,0,0,0,0,0c0,0,0,0-0.1,0c0,0,0,0-0.1,0c0,0,0,0,0,0
			c0,0,0,0,0,0c0,0,0,0,0,0c0,0,0,0,0,0v0l0,0.1c0,0,0,0,0,0c0,0-0.1-0.1-0.1-0.1c0,0,0,0,0,0c0,0,0,0,0,0s0,0,0,0
			c0,0-0.1,0.1-0.1,0.3c0,0,0,0,0,0.1c0,0.1-0.1,0.1-0.1,0.2c0,0.1,0,0.2,0,0.2c0,0.1,0,0.1,0,0.2c0,0.1,0,0.2,0,0.3l0,0.2
			c0,0.1,0,0.2,0,0.3l0,0.2v0.1l0,0.1c0,0.1,0,0.1,0,0.2c0,0.1,0,0.2,0,0.2l0,0.2c0,0.1,0,0.2,0,0.3c0,0.1,0,0.2,0,0.3l0.1,0.3
			c0,0.1,0,0.2,0.1,0.3c0,0,0,0.1,0,0.1c0,0,0,0,0,0.1c0,0,0,0,0,0c0,0,0,0,0,0c0,0,0,0,0.1,0c0,0,0,0,0,0c0,0,0,0,0,0
			c0,0,0,0,0.1,0l0,0l0,0h0c0,0,0,0,0,0c0,0,0.1,0,0.1,0c0,0,0,0,0.1,0c0,0,0,0,0.1,0c0,0,0,0,0,0c0,0,0.1,0,0.1,0c0,0,0,0,0,0
			c0,0,0,0,0,0c0,0,0,0,0,0c0,0,0,0,0,0c0,0,0,0,0,0c0,0,0,0,0,0c0,0,0-0.1,0-0.1c0,0,0-0.1,0-0.1c0-0.1,0-0.1,0-0.2
			c0-0.1,0-0.2,0-0.3l0-0.3c0-0.1,0-0.2,0-0.3c0-0.1,0-0.1,0-0.2S34.7,62.2,34.7,62.2z M34.4,63.3C34.4,63.3,34.4,63.3,34.4,63.3
			c0,0,0-0.1,0-0.1C34.4,63.2,34.4,63.2,34.4,63.3z M34.4,62.6c0,0.1,0,0.2,0,0.2c0-0.2,0-0.4,0-0.6c0,0,0,0,0,0.1c0,0,0,0.1,0,0.1
			C34.4,62.5,34.4,62.5,34.4,62.6z"/>
		<linearGradient id="SVGID_43_" gradientUnits="userSpaceOnUse" x1="73.4858" y1="58.186" x2="74.9051" y2="58.186">
			<stop  offset="0" style="stop-color:#3F58A6"/>
			<stop  offset="1" style="stop-color:#C9A2C8"/>
		</linearGradient>
		<path class="st52" d="M73.5,58.5c0,0.1,0,0.2,0,0.2l0.1,0.2c0,0.1,0,0.2,0,0.3c0,0.1,0,0.2,0,0.3l0.1,0.3c0,0.1,0,0.2,0.1,0.3
			c0,0,0,0.1,0.1,0.1c0,0,0,0,0,0.1c0,0,0,0,0,0c0,0,0,0,0,0c0,0,0,0,0.1,0c0,0,0,0,0,0c0,0,0,0,0,0c0,0,0,0,0.1,0l0,0h0h0
			c0,0,0,0,0,0c0,0,0.1,0,0.1,0c0,0,0,0,0.1,0c0,0,0,0,0.1,0c0,0,0,0,0,0c0,0,0.1,0,0.1,0c0,0,0,0,0,0c0,0,0,0,0,0c0,0,0,0,0,0
			c0,0,0,0,0,0c0,0,0,0,0,0c0,0,0,0,0,0c0,0,0-0.1,0-0.1c0,0,0-0.1,0-0.1c0-0.1,0-0.1,0-0.2c0-0.1,0-0.2,0-0.3l0-0.3
			c0-0.1,0-0.2,0-0.3c0-0.1,0-0.1,0-0.2c0-0.1,0-0.1,0-0.2c0-0.1-0.1-0.2-0.1-0.3c0-0.1,0-0.2,0-0.3c0-0.1,0-0.2,0-0.3
			c0-0.1,0-0.2-0.1-0.3c0-0.1,0-0.2-0.1-0.2c0-0.1,0-0.1-0.1-0.2l0-0.2c0-0.1,0-0.1-0.1-0.2c0-0.1-0.1-0.1-0.1-0.1
			c-0.1-0.1-0.1-0.1-0.2-0.2c0,0,0,0,0,0c0,0,0,0,0,0c0,0,0,0,0,0c0,0,0,0,0,0l0,0h0c0,0,0,0,0,0l0,0c0,0,0,0,0,0c0,0,0,0,0,0
			c0,0,0,0-0.1,0c0,0,0,0-0.1,0c0,0,0,0,0,0c0,0,0,0,0,0s0,0,0,0c0,0,0,0,0,0v0l0,0.1c0,0,0,0,0,0c0,0-0.1-0.1-0.1-0.1c0,0,0,0,0,0
			c0,0,0,0,0,0c0,0,0,0,0,0c0,0-0.1,0.1-0.1,0.3c0,0,0,0,0,0.1c0,0.1-0.1,0.1-0.1,0.2c0,0.1,0,0.2,0,0.2c0,0.1,0,0.1,0,0.2
			c0,0.1,0,0.2,0,0.3l0,0.2c0,0.1,0,0.2,0,0.3l0,0.2v0.1l0,0.1C73.5,58.3,73.5,58.4,73.5,58.5z M74.5,58.5c0,0,0,0.1,0,0.1
			c0,0.1,0,0.1,0,0.2c0,0.1,0,0.2,0,0.2C74.5,58.9,74.5,58.7,74.5,58.5C74.5,58.5,74.5,58.5,74.5,58.5z M74.5,59.4c0,0,0,0.1,0,0.1
			c0,0,0,0.1,0,0.1C74.5,59.5,74.5,59.4,74.5,59.4z"/>
		<linearGradient id="SVGID_44_" gradientUnits="userSpaceOnUse" x1="31.4343" y1="70.8718" x2="32.721" y2="70.8718">
			<stop  offset="0" style="stop-color:#3F58A6"/>
			<stop  offset="1" style="stop-color:#C9A2C8"/>
		</linearGradient>
		<path class="st53" d="M32.7,71c0-0.1-0.1-0.2-0.1-0.3c0-0.1,0-0.2,0-0.3c0-0.1,0-0.2,0-0.3c0-0.1,0-0.2-0.1-0.2
			c0-0.1,0-0.2-0.1-0.2c0-0.1,0-0.1-0.1-0.2l0-0.2c0-0.1,0-0.1,0-0.2c0,0-0.1-0.1-0.1-0.1c-0.1-0.1-0.1-0.1-0.2-0.2c0,0,0,0,0,0
			c0,0,0,0,0,0c0,0,0,0,0,0c0,0,0,0,0,0l0,0l0,0c0,0,0,0,0,0l0,0c0,0,0,0,0,0c0,0,0,0,0,0c0,0,0,0-0.1,0c0,0,0,0-0.1,0c0,0,0,0,0,0
			c0,0,0,0,0,0s0,0,0,0c0,0,0,0,0,0v0l0,0.1c0,0,0,0,0,0c0,0-0.1,0-0.1,0l0,0c0,0,0,0,0,0c0,0,0,0.1-0.1,0.2c0,0,0,0,0,0.1
			c0,0.1-0.1,0.1-0.1,0.2c0,0.1,0,0.1,0,0.2c0,0.1,0,0.1,0,0.2c0,0.1,0,0.2,0,0.2l0,0.2c0,0.1,0,0.2,0,0.3l0,0.2l0,0.1l0,0.1
			c0,0.1,0,0.1,0,0.2c0,0.1,0,0.1,0,0.2l0,0.2c0,0.1,0,0.1,0,0.2c0,0.1,0,0.2,0,0.3l0.1,0.2c0,0.1,0,0.2,0.1,0.2c0,0,0,0.1,0,0.1
			c0,0,0,0,0,0.1c0,0,0,0,0,0c0,0,0,0,0,0c0,0,0,0,0.1,0c0,0,0,0,0,0c0,0,0,0,0,0c0,0,0,0,0,0l0,0h0h0c0,0,0,0,0,0c0,0,0.1,0,0.1,0
			c0,0,0,0,0.1,0c0,0,0,0,0.1,0c0,0,0,0,0,0c0,0,0,0,0.1,0c0,0,0,0,0,0c0,0,0,0,0,0c0,0,0,0,0,0c0,0,0,0,0,0c0,0,0,0,0,0
			c0,0,0,0,0,0c0,0,0-0.1,0-0.1c0,0,0-0.1,0-0.1c0,0,0-0.1,0-0.1c0-0.1,0-0.2,0-0.3l0-0.3c0-0.1,0-0.2,0-0.3c0-0.1,0-0.1,0-0.2
			C32.7,71.1,32.7,71.1,32.7,71z M32.4,72C32.4,72.1,32.4,72.1,32.4,72c0,0,0-0.1,0-0.1C32.4,72,32.4,72,32.4,72z M32.4,71.4
			c0,0.1,0,0.1,0,0.2c0-0.2,0-0.4,0-0.6c0,0,0,0,0,0.1c0,0,0,0.1,0,0.1C32.4,71.3,32.4,71.4,32.4,71.4z"/>
		<linearGradient id="SVGID_45_" gradientUnits="userSpaceOnUse" x1="77.5093" y1="64.837" x2="78.9809" y2="64.837">
			<stop  offset="0" style="stop-color:#3F58A6"/>
			<stop  offset="1" style="stop-color:#C9A2C8"/>
		</linearGradient>
		<path class="st54" d="M77.6,65.6c0,0.1,0,0.2,0,0.3c0,0.1,0,0.2,0,0.3l0,0.3c0,0.1,0,0.2,0.1,0.3c0,0.1,0,0.1,0,0.2c0,0,0,0,0,0.1
			c0,0,0,0,0,0c0,0,0,0,0,0c0,0,0,0,0.1,0c0,0,0,0,0,0c0,0,0,0,0,0c0,0,0,0,0.1,0l0.1,0l0,0h0c0,0,0,0,0,0c0,0,0.1,0,0.1,0
			c0,0,0.1,0,0.1,0c0,0,0,0,0.1,0c0,0,0,0,0,0c0,0,0.1,0,0.1,0c0,0,0,0,0,0c0,0,0,0,0,0c0,0,0,0,0,0c0,0,0,0,0,0c0,0,0,0,0,0
			c0,0,0,0,0,0c0,0,0-0.1,0.1-0.1c0,0,0-0.1,0-0.1c0-0.1,0-0.1,0-0.2c0-0.1,0-0.2,0-0.3l0-0.3c0-0.1,0-0.2,0.1-0.3
			c0-0.1,0-0.1,0-0.2c0-0.1,0-0.1,0-0.2c0-0.1-0.1-0.2-0.1-0.3c0-0.1,0-0.2,0-0.3c0-0.1,0-0.2,0-0.3c0-0.1,0-0.2,0-0.3
			c0-0.1,0-0.2-0.1-0.3c0-0.1,0-0.2-0.1-0.2l0-0.2c0-0.1,0-0.1,0-0.2c0-0.1-0.1-0.1-0.1-0.1c-0.1-0.1-0.1-0.2-0.2-0.2c0,0,0,0,0,0
			c0,0,0,0,0,0s0,0,0,0c0,0,0,0,0,0s0,0,0,0l0,0c0,0,0,0,0,0l0,0c0,0,0,0,0,0c0,0,0,0,0,0c0,0,0,0-0.1,0c0,0,0,0-0.1,0c0,0,0,0,0,0
			c0,0,0,0,0,0c0,0,0,0,0,0c0,0,0,0,0,0v0l0,0.1c0,0,0,0,0,0c0,0-0.1-0.1-0.1-0.1c0,0,0,0,0,0c0,0,0,0,0,0c0,0,0,0,0,0
			c0,0-0.1,0.1-0.1,0.3c0,0,0,0-0.1,0.1c0,0.1-0.1,0.1-0.1,0.2c0,0.1,0,0.2-0.1,0.2c0,0.1,0,0.2,0,0.2c0,0.1,0,0.2,0,0.3l0,0.2
			c0,0.1,0,0.2,0,0.3l0,0.2l0,0.1l0,0.1c0,0.1,0,0.2,0,0.2c0,0.1,0,0.2,0,0.3L77.6,65.6z M78.6,65.1C78.6,65.2,78.6,65.2,78.6,65.1
			c0,0.1,0.1,0.2,0.1,0.2c0,0.1,0,0.1,0,0.2c0,0.1,0,0.2-0.1,0.2C78.6,65.6,78.6,65.4,78.6,65.1z M78.5,66.1c0,0,0,0.1,0,0.1
			c0,0,0,0.1,0,0.1C78.5,66.3,78.5,66.2,78.5,66.1z"/>
		<linearGradient id="SVGID_46_" gradientUnits="userSpaceOnUse" x1="39.428" y1="46.1608" x2="41.2331" y2="46.1608">
			<stop  offset="0" style="stop-color:#3F58A6"/>
			<stop  offset="1" style="stop-color:#C9A2C8"/>
		</linearGradient>
		<path class="st55" d="M41.2,46.4c0-0.1-0.1-0.2-0.1-0.4c0-0.1,0-0.3,0-0.4c0-0.1,0-0.3,0-0.4c0-0.1-0.1-0.2-0.1-0.3
			c0-0.1-0.1-0.2-0.1-0.3c0-0.1-0.1-0.2-0.1-0.3l0-0.3c0-0.1,0-0.2-0.1-0.2c0-0.1-0.1-0.1-0.1-0.2c-0.1-0.1-0.2-0.2-0.3-0.2
			c0,0,0,0,0,0c0,0,0,0,0,0c0,0,0,0,0,0c0,0,0,0,0,0l0,0h0c0,0,0,0,0,0l0,0c0,0,0,0,0,0c0,0,0,0,0,0c0,0-0.1,0-0.1,0c0,0,0,0-0.1,0
			c0,0,0,0-0.1,0c0,0,0,0,0,0c0,0,0,0,0,0c0,0,0,0,0,0c0,0,0,0,0,0l0,0.1c0,0,0,0,0,0c0,0-0.1-0.1-0.1-0.1c0,0,0,0,0,0c0,0,0,0,0,0
			c0,0,0,0,0,0c0,0-0.1,0.1-0.1,0.3c0,0,0,0.1-0.1,0.1c0,0.1-0.1,0.2-0.1,0.3c0,0.1,0,0.2-0.1,0.3c0,0.1,0,0.2,0,0.3
			c0,0.1,0,0.2,0,0.3l0,0.2c0,0.1,0,0.2,0,0.4l0,0.2l0,0.1l0,0.1c0,0.1,0,0.2,0,0.3c0,0.1,0,0.2,0,0.3l0.1,0.3c0,0.1,0,0.2,0,0.3
			c0,0.1,0,0.2,0,0.4l0.1,0.3c0,0.1,0.1,0.2,0.1,0.4c0,0.1,0,0.1,0.1,0.2c0,0,0,0.1,0,0.1c0,0,0,0,0,0c0,0,0,0,0,0c0,0,0,0,0.1,0
			c0,0,0,0,0,0c0,0,0,0,0.1,0c0,0,0,0,0.1,0l0.1,0l0,0h0c0,0,0,0,0.1,0c0,0,0.1,0,0.1,0c0,0,0.1,0,0.1,0c0,0,0,0,0.1,0
			c0,0,0,0,0.1,0c0,0,0.1,0,0.1,0c0,0,0,0,0.1,0c0,0,0,0,0.1,0c0,0,0,0,0,0c0,0,0,0,0,0c0,0,0,0,0,0c0,0,0,0,0,0c0,0,0-0.1,0.1-0.1
			c0,0,0-0.1,0-0.1c0-0.1,0-0.1,0-0.2c0-0.1,0-0.3,0-0.4l0-0.4c0-0.1,0-0.3,0-0.4c0-0.1,0-0.1,0-0.2C41.2,46.5,41.2,46.5,41.2,46.4z
			 M40.7,47.8c0,0,0,0.1,0,0.1c0-0.1,0-0.2,0-0.3C40.8,47.7,40.7,47.8,40.7,47.8z M40.8,46.9c0,0.1,0,0.2,0,0.3c0-0.2,0-0.5,0-0.8
			c0,0,0,0.1,0,0.1c0,0.1,0,0.1,0,0.2C40.8,46.8,40.8,46.9,40.8,46.9z"/>
		<linearGradient id="SVGID_47_" gradientUnits="userSpaceOnUse" x1="117.4021" y1="46.1769" x2="118.8497" y2="46.1769">
			<stop  offset="0" style="stop-color:#3F58A6"/>
			<stop  offset="1" style="stop-color:#C9A2C8"/>
		</linearGradient>
		<path class="st56" d="M118.8,46.8c0-0.1,0-0.1,0-0.2s0-0.1,0-0.2c0-0.1-0.1-0.2,0-0.3c0-0.1,0-0.2,0.1-0.3c0-0.1,0-0.2,0-0.3
			c0-0.1,0-0.2,0-0.3c0-0.1,0-0.2,0-0.3c0-0.1,0-0.2,0-0.2l0-0.2c0-0.1,0-0.1,0-0.2c0-0.1,0-0.1-0.1-0.2c-0.1-0.1-0.1-0.2-0.2-0.2
			c0,0,0,0,0,0c0,0,0,0,0,0c0,0,0,0,0,0v0h0l0,0c0,0,0,0,0,0l0,0c0,0,0,0,0,0c0,0,0,0,0,0c0,0-0.1,0-0.1,0c0,0,0,0-0.1,0
			c0,0,0,0,0,0c0,0,0,0,0,0c0,0,0,0,0,0c0,0,0,0,0,0c0,0,0,0,0,0l0,0.1c0,0,0,0,0,0c0,0-0.1-0.1-0.1-0.1c0,0,0,0,0,0c0,0,0,0,0,0
			c0,0,0,0,0,0c0,0-0.1,0.1-0.1,0.3c0,0,0,0-0.1,0.1c0,0.1-0.1,0.1-0.1,0.2c0,0.1-0.1,0.1-0.1,0.2c0,0.1,0,0.2-0.1,0.2
			c0,0.1,0,0.2-0.1,0.3l0,0.2c0,0.1,0,0.2,0,0.3l0,0.2l0,0.1l0,0.1c0,0.1,0,0.1,0,0.2c0,0.1,0,0.2,0,0.3l0,0.3c0,0.1,0,0.2,0,0.3
			c0,0.1,0,0.2,0,0.3l0,0.3c0,0.1,0,0.2,0,0.3c0,0,0,0.1,0,0.1c0,0,0,0,0,0.1c0,0,0,0,0,0c0,0,0,0,0,0c0,0,0,0,0.1,0c0,0,0,0,0,0
			c0,0,0,0,0,0c0,0,0,0,0.1,0l0.1,0l0,0h0c0,0,0,0,0,0c0,0,0.1,0,0.1,0c0,0,0,0,0.1,0c0,0,0,0,0.1,0s0,0,0,0c0,0,0.1,0,0.1,0
			c0,0,0,0,0,0c0,0,0,0,0,0c0,0,0,0,0,0c0,0,0,0,0,0c0,0,0,0,0,0c0,0,0,0,0,0c0,0,0-0.1,0.1-0.1c0,0,0-0.1,0-0.1
			c0-0.1,0-0.1,0.1-0.2c0-0.1,0-0.2,0.1-0.3l0-0.3C118.7,47.1,118.8,47,118.8,46.8z M118.3,47.6C118.3,47.6,118.3,47.6,118.3,47.6
			c0,0,0-0.1,0-0.1C118.3,47.5,118.3,47.5,118.3,47.6z M118.5,46.9c0,0.1,0,0.2-0.1,0.2c0-0.2,0-0.4,0.1-0.6c0,0,0,0.1,0,0.1
			c0,0.1,0,0.1,0,0.2C118.5,46.8,118.5,46.8,118.5,46.9z"/>
		<linearGradient id="SVGID_48_" gradientUnits="userSpaceOnUse" x1="56.9006" y1="38.5857" x2="58.7507" y2="38.5857">
			<stop  offset="0" style="stop-color:#3F58A6"/>
			<stop  offset="1" style="stop-color:#C9A2C8"/>
		</linearGradient>
		<path class="st57" d="M56.9,39.5c0,0.1,0,0.2,0,0.3c0,0.1,0,0.2,0,0.4l0,0.4c0,0.1,0,0.2,0.1,0.4c0,0.1,0,0.1,0,0.2
			c0,0,0,0.1,0,0.1c0,0,0,0,0,0c0,0,0,0,0,0c0,0,0,0,0.1,0c0,0,0,0,0,0c0,0,0,0,0.1,0c0,0,0,0,0.1,0h0.1h0h0c0,0,0,0,0.1,0
			c0,0,0.1,0,0.1,0c0,0,0.1,0,0.1,0c0,0,0.1,0,0.1,0c0,0,0,0,0.1,0c0,0,0.1,0,0.1,0c0,0,0,0,0.1,0c0,0,0,0,0.1,0c0,0,0,0,0,0
			c0,0,0,0,0,0c0,0,0,0,0,0c0,0,0,0,0,0c0,0,0.1-0.1,0.1-0.1c0,0,0-0.1,0.1-0.1c0-0.1,0-0.1,0.1-0.2c0-0.1,0.1-0.3,0.1-0.4l0-0.4
			c0-0.1,0.1-0.3,0.1-0.4c0-0.1,0-0.1,0-0.2c0-0.1,0-0.1,0-0.2c0-0.1-0.1-0.3,0-0.4c0-0.1,0.1-0.3,0.1-0.4c0-0.1,0-0.3,0-0.4
			c0-0.1,0-0.2,0-0.3c0-0.1,0-0.2,0-0.3c0-0.1,0-0.2,0-0.3l0-0.3c0-0.1,0-0.2,0-0.2c0-0.1-0.1-0.1-0.1-0.2c-0.1-0.1-0.2-0.2-0.3-0.3
			c0,0,0,0,0,0c0,0,0,0,0,0c0,0,0,0,0,0c0,0,0,0,0,0c0,0,0,0,0,0l0,0c0,0,0,0,0,0l0,0c0,0,0,0,0,0c0,0,0,0,0,0c0,0-0.1,0-0.1,0
			c0,0-0.1,0-0.1,0c0,0,0,0-0.1,0c0,0,0,0,0,0c0,0,0,0,0,0c0,0,0,0,0,0c0,0,0,0,0,0l0,0.1c0,0,0,0,0,0c0,0-0.1-0.1-0.1-0.1
			c0,0,0,0,0,0c0,0,0,0,0,0c0,0,0,0,0,0c0,0-0.1,0.1-0.1,0.3c0,0,0,0.1-0.1,0.1c-0.1,0.1-0.1,0.2-0.2,0.2c0,0.1-0.1,0.2-0.1,0.3
			c0,0.1,0,0.2-0.1,0.3c0,0.1-0.1,0.2-0.1,0.3l0,0.2c0,0.1,0,0.2,0,0.4l0,0.2l0,0.1l0,0.1c0,0.1,0,0.2-0.1,0.3c0,0.1,0,0.2,0,0.3
			L56.9,39.5z M58.2,39c0,0,0,0.1,0,0.1c0,0.1,0,0.1,0,0.2c0,0.1,0,0.1,0,0.2c0,0.1-0.1,0.2-0.1,0.3C58.2,39.6,58.2,39.3,58.2,39z
			 M58.1,40.2c0,0.1,0,0.1,0,0.2c0,0,0,0.1,0,0.1C58.1,40.4,58.1,40.3,58.1,40.2z"/>
		<linearGradient id="SVGID_49_" gradientUnits="userSpaceOnUse" x1="123.7252" y1="65.1401" x2="125.1829" y2="65.1401">
			<stop  offset="0" style="stop-color:#3F58A6"/>
			<stop  offset="1" style="stop-color:#C9A2C8"/>
		</linearGradient>
		<path class="st58" d="M125.1,64.3c0-0.1,0-0.2,0-0.3c0-0.1,0-0.2,0-0.2l0-0.2c0-0.1,0-0.1,0-0.2c0-0.1,0-0.1-0.1-0.2
			c-0.1-0.1-0.1-0.2-0.2-0.2c0,0,0,0,0,0c0,0,0,0,0,0c0,0,0,0,0,0c0,0,0,0,0,0c0,0,0,0,0,0l0,0c0,0,0,0,0,0l0,0c0,0,0,0,0,0
			c0,0,0,0,0,0c0,0-0.1,0-0.1,0c0,0,0,0-0.1,0c0,0,0,0,0,0c0,0,0,0,0,0c0,0,0,0,0,0c0,0,0,0,0,0c0,0,0,0,0,0l0,0.1c0,0,0,0,0,0
			c0,0-0.1-0.1-0.1-0.1c0,0,0,0,0,0c0,0,0,0,0,0c0,0,0,0,0,0c0,0-0.1,0.1-0.1,0.3c0,0,0,0-0.1,0.1c0,0.1-0.1,0.1-0.1,0.2
			c0,0.1-0.1,0.1-0.1,0.2c0,0.1,0,0.2-0.1,0.2c0,0.1,0,0.2-0.1,0.3l0,0.2c0,0.1,0,0.2,0,0.3l0,0.2l0,0.1l0,0.1c0,0.1,0,0.1,0,0.2
			c0,0.1,0,0.2,0,0.3l0,0.3c0,0.1,0,0.2,0,0.3c0,0.1,0,0.2,0,0.3l0,0.3c0,0.1,0,0.2,0,0.3c0,0,0,0.1,0,0.1c0,0,0,0.1,0,0.1
			c0,0,0,0,0,0c0,0,0,0,0,0c0,0,0,0,0.1,0c0,0,0,0,0,0c0,0,0,0,0.1,0c0,0,0,0,0.1,0h0.1l0,0h0c0,0,0,0,0,0c0,0,0.1,0,0.1,0
			c0,0,0,0,0.1,0c0,0,0,0,0.1,0c0,0,0,0,0,0c0,0,0.1,0,0.1,0c0,0,0,0,0,0c0,0,0,0,0,0c0,0,0,0,0,0c0,0,0,0,0,0c0,0,0,0,0,0
			c0,0,0,0,0,0c0,0,0-0.1,0.1-0.1c0,0,0-0.1,0-0.1c0-0.1,0-0.1,0.1-0.2c0-0.1,0.1-0.2,0.1-0.3l0-0.3c0-0.1,0.1-0.2,0.1-0.3
			c0-0.1,0-0.1,0-0.2c0-0.1,0-0.1,0-0.2c0-0.1,0-0.2,0-0.3c0-0.1,0-0.2,0.1-0.3c0-0.1,0-0.2,0-0.3C125.2,64.5,125.2,64.4,125.1,64.3
			z M124.6,66.6C124.6,66.6,124.6,66.6,124.6,66.6c0,0,0-0.1,0-0.1C124.7,66.5,124.6,66.5,124.6,66.6z M124.8,65.9
			c0,0.1,0,0.2-0.1,0.2c0-0.2,0-0.4,0.1-0.6c0,0,0,0.1,0,0.1c0,0.1,0,0.1,0,0.2C124.8,65.7,124.8,65.8,124.8,65.9z"/>
		<linearGradient id="SVGID_50_" gradientUnits="userSpaceOnUse" x1="115.85" y1="56.1447" x2="118.683" y2="56.1447">
			<stop  offset="0" style="stop-color:#3F58A6"/>
			<stop  offset="1" style="stop-color:#C9A2C8"/>
		</linearGradient>
		<path class="st59" d="M118.6,54.5c0-0.2,0-0.3-0.1-0.5c0-0.2-0.1-0.3-0.1-0.4l0-0.4c0-0.1,0-0.3-0.1-0.4c0-0.1-0.1-0.2-0.1-0.3
			c-0.1-0.2-0.2-0.3-0.4-0.4c0,0,0,0,0,0c0,0,0,0,0,0c0,0,0,0,0,0c0,0,0,0,0,0c0,0,0,0,0,0h0c0,0,0,0,0,0l-0.1,0c0,0,0,0-0.1,0
			c0,0,0,0-0.1,0c0,0-0.1,0-0.2,0c0,0-0.1,0-0.1,0c0,0-0.1,0-0.1,0c0,0,0,0,0,0c0,0,0,0,0,0c0,0,0,0,0,0c0,0,0,0,0,0l0,0.1
			c0,0,0,0,0,0c-0.1-0.1-0.1-0.1-0.2-0.1c0,0,0,0,0,0c0,0,0,0,0,0c0,0,0,0,0,0c-0.1,0-0.1,0.2-0.2,0.5c0,0-0.1,0.1-0.1,0.1
			c-0.1,0.1-0.2,0.2-0.3,0.4c-0.1,0.1-0.1,0.3-0.1,0.4s-0.1,0.3-0.1,0.4c0,0.2-0.1,0.3-0.1,0.5l-0.1,0.4c0,0.2,0,0.4-0.1,0.6l0,0.4
			l0,0.2l0,0.2c0,0.1-0.1,0.3-0.1,0.5c0,0.2,0,0.3,0,0.5l0,0.5c0,0.2,0,0.3,0,0.5c0,0.2,0,0.4,0,0.6l0,0.6c0,0.2,0,0.4,0.1,0.6
			c0,0.1,0,0.2,0.1,0.3c0,0,0,0.1,0.1,0.1c0,0,0,0,0,0c0,0,0,0,0.1,0c0,0,0,0,0.1,0c0,0,0,0,0.1,0c0,0,0.1,0,0.1,0c0,0,0.1,0,0.1,0
			h0.1h0h0c0,0,0.1,0,0.1,0c0.1,0,0.1,0,0.2,0c0.1,0,0.1,0,0.1,0c0,0,0.1,0,0.1,0c0,0,0.1,0,0.1,0c0.1,0,0.1,0,0.1,0
			c0,0,0.1,0,0.1,0c0,0,0.1,0,0.1,0c0,0,0,0,0,0c0,0,0,0,0.1,0c0,0,0,0,0.1,0c0,0,0,0,0.1-0.1c0.1-0.1,0.1-0.1,0.1-0.2
			c0-0.1,0.1-0.1,0.1-0.2c0-0.1,0.1-0.2,0.1-0.3c0.1-0.2,0.1-0.4,0.1-0.6l0.1-0.7c0-0.2,0.1-0.4,0.2-0.7c0-0.1,0.1-0.2,0.1-0.3
			c0-0.1,0-0.2,0-0.3c0-0.2-0.1-0.4-0.1-0.6c0-0.2,0.1-0.4,0.1-0.6c0-0.2,0-0.4,0-0.6C118.6,54.8,118.6,54.7,118.6,54.5z
			 M117.6,58.9c0,0.1,0,0.1,0,0.2c0-0.1,0.1-0.3,0.1-0.4C117.7,58.7,117.6,58.8,117.6,58.9z M118,57.2c0,0.1,0,0.2-0.1,0.3
			c0,0.1-0.1,0.3-0.1,0.5c0-0.4,0.1-0.8,0.1-1.2c0,0.1,0,0.1,0,0.2C118,57,118,57.1,118,57.2z"/>
		<linearGradient id="SVGID_51_" gradientUnits="userSpaceOnUse" x1="42.9399" y1="53.1174" x2="45.7767" y2="53.1174">
			<stop  offset="0" style="stop-color:#3F58A6"/>
			<stop  offset="1" style="stop-color:#C9A2C8"/>
		</linearGradient>
		<path class="st60" d="M43.7,48.9C43.8,48.9,43.8,48.9,43.7,48.9C43.8,49,43.8,49,43.7,48.9C43.8,49,43.8,49,43.7,48.9l0.1,0.2
			c0,0,0,0,0,0C43.8,49,43.7,49,43.6,49C43.6,49,43.7,49,43.7,48.9C43.7,49,43.6,49,43.6,49c0,0,0,0,0,0c-0.1,0-0.1,0.2-0.1,0.5
			c0,0-0.1,0.1-0.1,0.1c-0.1,0.1-0.2,0.3-0.2,0.4c-0.1,0.2-0.1,0.3-0.1,0.5c0,0.2,0,0.3,0,0.5c0,0.2,0,0.3-0.1,0.5l0,0.4
			c0,0.2,0,0.4,0,0.6l0,0.4l0,0.2l0,0.2c0,0.1,0,0.3,0,0.5c0,0.2,0,0.3,0.1,0.5l0.1,0.5c0,0.2,0,0.3,0.1,0.5c0,0.2,0,0.4,0,0.6
			l0.1,0.5c0,0.2,0.1,0.4,0.2,0.6c0,0.1,0.1,0.2,0.1,0.3c0,0,0,0.1,0.1,0.1c0,0,0,0,0,0c0,0,0,0,0.1,0c0,0,0,0,0.1,0c0,0,0,0,0.1,0
			c0,0,0.1,0,0.1,0c0,0,0.1,0,0.1,0l0.1,0h0l0,0c0,0,0.1,0,0.1,0c0.1,0,0.1,0,0.2,0c0.1,0,0.1,0,0.1,0c0,0,0.1,0,0.1,0
			c0,0,0.1,0,0.1,0c0.1,0,0.1,0,0.1,0c0,0,0.1,0,0.1,0c0,0,0.1,0,0.1,0c0,0,0,0,0,0c0,0,0,0,0.1,0c0,0,0,0,0.1,0c0,0,0,0,0.1-0.1
			c0-0.1,0.1-0.1,0.1-0.2c0-0.1,0-0.1,0.1-0.2c0-0.1,0-0.2,0.1-0.3c0-0.2,0-0.4,0.1-0.6l0-0.7c0-0.2,0.1-0.4,0.1-0.7
			c0-0.1,0-0.2,0-0.3c0-0.1,0-0.2-0.1-0.3c-0.1-0.2-0.2-0.4-0.1-0.6c0-0.2,0-0.4,0-0.6c0-0.2,0-0.4-0.1-0.6c0-0.2-0.1-0.3-0.1-0.5
			c0-0.2-0.1-0.3-0.1-0.5c0-0.1-0.1-0.3-0.1-0.4l-0.1-0.4c0-0.1-0.1-0.3-0.1-0.4c-0.1-0.1-0.1-0.2-0.2-0.3c-0.1-0.2-0.3-0.3-0.4-0.3
			c0,0,0,0,0,0c0,0,0,0,0,0c0,0,0,0,0,0c0,0,0,0,0,0c0,0,0,0,0,0l0,0c0,0,0,0,0,0l-0.1,0c0,0,0,0-0.1,0c0,0,0,0-0.1,0
			c0,0-0.1,0-0.2,0C43.9,48.9,43.8,48.9,43.7,48.9C43.8,48.9,43.7,48.9,43.7,48.9C43.7,48.9,43.7,48.9,43.7,48.9z M45,53.8
			c0,0.1,0.1,0.2,0.1,0.3c0,0.1,0,0.2,0,0.3c0,0.2-0.1,0.3-0.1,0.5c0-0.4,0-0.8,0-1.2C45,53.7,45,53.7,45,53.8z M45,55.5
			c0,0.1,0,0.2,0,0.3c0,0.1,0,0.1,0,0.2C45,55.8,45,55.6,45,55.5z"/>
		<linearGradient id="SVGID_52_" gradientUnits="userSpaceOnUse" x1="87.7121" y1="51.7305" x2="90.54" y2="51.7305">
			<stop  offset="0" style="stop-color:#3F58A6"/>
			<stop  offset="1" style="stop-color:#C9A2C8"/>
		</linearGradient>
		<path class="st61" d="M87.8,53.1c0,0.2,0,0.3,0,0.5c0,0.2,0,0.4,0,0.6l0.1,0.6c0,0.2,0,0.4,0.1,0.6c0,0.1,0,0.2,0.1,0.3
			c0,0,0,0.1,0.1,0.2c0,0,0,0,0,0c0,0,0,0,0.1,0c0,0,0,0,0.1,0c0,0,0,0,0.1,0c0,0,0.1,0,0.1,0c0,0,0.1,0,0.1,0h0.1l0,0h0
			c0,0,0.1,0,0.1,0c0.1,0,0.1,0,0.2,0c0.1,0,0.1,0,0.1,0c0,0,0.1,0,0.1,0c0,0,0.1,0,0.1,0c0.1,0,0.1,0,0.1,0c0,0,0.1,0,0.1,0
			c0,0,0.1,0,0.1,0c0,0,0,0,0,0c0,0,0,0,0.1,0c0,0,0,0,0.1,0c0,0,0,0,0.1-0.1c0.1-0.1,0.1-0.1,0.1-0.2c0-0.1,0.1-0.1,0.1-0.2
			c0-0.1,0.1-0.2,0.1-0.3c0.1-0.2,0.1-0.4,0.1-0.6l0.1-0.7c0-0.2,0.1-0.4,0.2-0.7c0-0.1,0.1-0.2,0.1-0.3c0-0.1,0-0.2,0-0.3
			c0-0.2-0.1-0.4-0.1-0.6c0-0.2,0.1-0.4,0.1-0.6c0-0.2,0-0.4,0-0.6c0-0.2,0-0.4,0-0.5c0-0.2,0-0.3-0.1-0.5c0-0.2-0.1-0.3-0.1-0.4
			l0-0.4c0-0.1,0-0.3-0.1-0.4c0-0.1-0.1-0.2-0.1-0.3c-0.1-0.2-0.2-0.3-0.4-0.4c0,0,0,0,0,0c0,0,0,0,0,0c0,0,0,0,0,0s0,0,0,0h0l0,0
			c0,0,0,0,0,0l-0.1,0c0,0,0,0-0.1,0c0,0,0,0-0.1,0c0,0-0.1,0-0.2,0c0,0-0.1,0-0.1,0c0,0-0.1,0-0.1,0c0,0,0,0,0,0c0,0,0,0,0,0
			c0,0,0,0,0,0c0,0,0,0,0,0l0,0.1c0,0,0,0,0,0c-0.1-0.1-0.1-0.1-0.2-0.1c0,0,0,0,0,0c0,0,0,0,0,0c0,0,0,0,0,0
			c-0.1,0-0.1,0.2-0.2,0.5c0,0-0.1,0.1-0.1,0.1c-0.1,0.1-0.2,0.2-0.3,0.4c-0.1,0.1-0.1,0.3-0.1,0.4c0,0.1-0.1,0.3-0.1,0.4
			c0,0.2-0.1,0.3-0.1,0.5L88,50.4c0,0.2,0,0.4-0.1,0.6l0,0.4l0,0.2l0,0.2c0,0.1-0.1,0.3-0.1,0.5c0,0.2,0,0.3,0,0.5L87.8,53.1z
			 M89.8,52.4c0,0.1,0,0.1,0,0.2c0,0.1,0,0.2,0,0.3c0,0.1,0,0.2-0.1,0.3c0,0.1-0.1,0.3-0.1,0.5C89.7,53.2,89.7,52.8,89.8,52.4z
			 M89.6,54.2c0,0.1,0,0.2,0,0.3c0,0,0,0.1,0,0.2C89.5,54.5,89.5,54.3,89.6,54.2z"/>
		<linearGradient id="SVGID_53_" gradientUnits="userSpaceOnUse" x1="118.7145" y1="68.7303" x2="120.496" y2="68.7303">
			<stop  offset="0" style="stop-color:#3F58A6"/>
			<stop  offset="1" style="stop-color:#C9A2C8"/>
		</linearGradient>
		<path class="st62" d="M120.4,68.7c0-0.1,0-0.3,0-0.4c0-0.1,0-0.3,0-0.4c0-0.1,0-0.2-0.1-0.3c0-0.1,0-0.2-0.1-0.3
			c0-0.1-0.1-0.2-0.1-0.3l0-0.3c0-0.1,0-0.2-0.1-0.2c0-0.1-0.1-0.1-0.1-0.2c-0.1-0.1-0.2-0.2-0.3-0.2c0,0,0,0,0,0c0,0,0,0,0,0
			c0,0,0,0,0,0s0,0,0,0h0l0,0c0,0,0,0,0,0l0,0c0,0,0,0,0,0c0,0,0,0,0,0c0,0-0.1,0-0.1,0c0,0,0,0-0.1,0c0,0,0,0-0.1,0c0,0,0,0,0,0
			c0,0,0,0,0,0c0,0,0,0,0,0c0,0,0,0,0,0l0,0.1c0,0,0,0,0,0c0,0-0.1-0.1-0.1-0.1c0,0,0,0,0,0c0,0,0,0,0,0c0,0,0,0,0,0
			c0,0-0.1,0.1-0.1,0.3c0,0,0,0.1-0.1,0.1c-0.1,0.1-0.1,0.2-0.2,0.3c0,0.1-0.1,0.2-0.1,0.3c0,0.1,0,0.2,0,0.3c0,0.1,0,0.2-0.1,0.3
			l0,0.2c0,0.1,0,0.2,0,0.4v0.2l0,0.1l0,0.1c0,0.1,0,0.2,0,0.3c0,0.1,0,0.2,0,0.3l0,0.3c0,0.1,0,0.2,0,0.3c0,0.1,0,0.2,0,0.4
			l0.1,0.4c0,0.1,0,0.2,0.1,0.4c0,0.1,0,0.1,0.1,0.2c0,0,0,0.1,0,0.1c0,0,0,0,0,0c0,0,0,0,0,0c0,0,0,0,0.1,0c0,0,0,0,0,0
			c0,0,0,0,0.1,0c0,0,0,0,0.1,0l0.1,0h0h0c0,0,0,0,0.1,0c0,0,0.1,0,0.1,0c0,0,0.1,0,0.1,0c0,0,0.1,0,0.1,0c0,0,0,0,0.1,0
			c0,0,0.1,0,0.1,0c0,0,0,0,0.1,0c0,0,0,0,0.1,0c0,0,0,0,0,0c0,0,0,0,0,0c0,0,0,0,0,0c0,0,0,0,0,0c0,0,0.1-0.1,0.1-0.1
			c0,0,0-0.1,0-0.1c0-0.1,0-0.1,0.1-0.2c0-0.1,0-0.3,0.1-0.4l0-0.4c0-0.1,0-0.3,0.1-0.4c0-0.1,0-0.1,0-0.2c0-0.1,0-0.1,0-0.2
			C120.4,68.9,120.4,68.8,120.4,68.7z M119.9,70.4c0,0,0,0.1,0,0.1c0-0.1,0-0.2,0-0.3C119.9,70.3,119.9,70.4,119.9,70.4z M120,69.6
			c0,0.1,0,0.2-0.1,0.3c0-0.2,0-0.5,0-0.8c0,0,0,0.1,0,0.1c0,0.1,0,0.1,0,0.2C120.1,69.4,120.1,69.5,120,69.6z"/>
		<linearGradient id="SVGID_54_" gradientUnits="userSpaceOnUse" x1="35.9128" y1="53.752" x2="37.8441" y2="53.752">
			<stop  offset="0" style="stop-color:#3F58A6"/>
			<stop  offset="1" style="stop-color:#C9A2C8"/>
		</linearGradient>
		<path class="st63" d="M37.7,53.7c0-0.1,0-0.3,0-0.4c0-0.1,0-0.3,0-0.4c0-0.1-0.1-0.2-0.1-0.4c0-0.1-0.1-0.2-0.1-0.3
			c0-0.1-0.1-0.2-0.1-0.3l0-0.3c0-0.1,0-0.2-0.1-0.2c0-0.1-0.1-0.1-0.1-0.2C37.1,51,37,51,36.9,50.9c0,0,0,0,0,0c0,0,0,0,0,0
			c0,0,0,0,0,0c0,0,0,0,0,0l0,0h0c0,0,0,0,0,0l0,0c0,0,0,0,0,0s0,0,0,0c0,0-0.1,0-0.1,0c0,0-0.1,0-0.1,0c0,0-0.1,0-0.1,0
			c0,0,0,0,0,0c0,0,0,0,0,0c0,0,0,0,0,0c0,0,0,0,0,0l0,0.1c0,0,0,0,0,0c0,0-0.1-0.1-0.1-0.1c0,0,0,0,0,0c0,0,0,0,0,0c0,0,0,0,0,0
			c0,0-0.1,0.1-0.1,0.4c0,0,0,0.1-0.1,0.1c-0.1,0.1-0.1,0.2-0.2,0.3c0,0.1-0.1,0.2-0.1,0.3c0,0.1,0,0.2,0,0.3c0,0.1,0,0.2,0,0.4
			l0,0.3c0,0.1,0,0.2,0,0.4l0,0.2v0.1l0,0.1c0,0.1,0,0.2,0,0.3c0,0.1,0,0.2,0,0.3l0.1,0.3c0,0.1,0,0.2,0,0.3c0,0.1,0,0.3,0,0.4
			l0.1,0.4c0,0.1,0.1,0.3,0.1,0.4c0,0.1,0,0.1,0.1,0.2c0,0,0,0.1,0.1,0.1c0,0,0,0,0,0c0,0,0,0,0,0c0,0,0,0,0.1,0c0,0,0,0,0,0
			c0,0,0,0,0.1,0c0,0,0,0,0.1,0l0.1,0l0,0h0c0,0,0,0,0.1,0c0,0,0.1,0,0.1,0c0,0,0.1,0,0.1,0c0,0,0.1,0,0.1,0c0,0,0,0,0.1,0
			c0,0,0.1,0,0.1,0c0,0,0,0,0.1,0c0,0,0,0,0.1,0c0,0,0,0,0,0c0,0,0,0,0,0c0,0,0,0,0,0c0,0,0,0,0,0c0,0,0-0.1,0.1-0.1
			c0,0,0-0.1,0-0.1c0-0.1,0-0.1,0-0.2c0-0.1,0-0.3,0-0.4l0-0.5c0-0.1,0-0.3,0.1-0.5c0-0.1,0-0.2,0-0.2c0-0.1,0-0.2-0.1-0.2
			C37.7,53.9,37.7,53.8,37.7,53.7z M37.3,55.5c0,0,0,0.1,0,0.1c0-0.1,0-0.2,0-0.3C37.3,55.4,37.3,55.5,37.3,55.5z M37.4,54.6
			c0,0.1,0,0.2-0.1,0.3c0-0.3,0-0.5,0-0.8c0,0,0,0.1,0,0.1c0,0.1,0,0.1,0,0.2C37.4,54.5,37.4,54.5,37.4,54.6z"/>
		<linearGradient id="SVGID_55_" gradientUnits="userSpaceOnUse" x1="79.2607" y1="48.5436" x2="82.0744" y2="48.5436">
			<stop  offset="0" style="stop-color:#3F58A6"/>
			<stop  offset="1" style="stop-color:#C9A2C8"/>
		</linearGradient>
		<path class="st64" d="M79.3,50c0,0.2,0,0.3,0,0.5c0,0.2,0,0.4,0,0.6l0.1,0.6c0,0.2,0.1,0.4,0.1,0.6c0,0.1,0,0.2,0.1,0.3
			c0,0,0,0.1,0.1,0.1c0,0,0,0,0,0c0,0,0,0,0.1,0c0,0,0,0,0.1,0c0,0,0,0,0.1,0c0,0,0.1,0,0.1,0c0,0,0.1,0,0.1,0l0.1,0h0h0
			c0,0,0.1,0,0.1,0c0.1,0,0.1,0,0.2,0c0.1,0,0.1,0,0.1,0c0,0,0.1,0,0.1,0c0,0,0.1,0,0.1,0c0.1,0,0.1,0,0.1,0c0,0,0.1,0,0.1,0
			c0,0,0.1,0,0.1,0c0,0,0,0,0,0c0,0,0,0,0.1,0c0,0,0,0,0.1,0c0,0,0,0,0.1-0.1c0.1-0.1,0.1-0.1,0.1-0.2c0-0.1,0.1-0.1,0.1-0.2
			c0-0.1,0.1-0.2,0.1-0.3c0-0.2,0.1-0.4,0.1-0.6l0-0.7c0-0.2,0.1-0.4,0.1-0.7c0-0.1,0-0.2,0-0.3c0-0.1,0-0.2-0.1-0.3
			c-0.1-0.2-0.1-0.4-0.1-0.6c0-0.2,0.1-0.4,0.1-0.6c0-0.2,0-0.4,0-0.6s-0.1-0.4-0.1-0.5c0-0.2-0.1-0.3-0.1-0.5
			c0-0.2-0.1-0.3-0.1-0.4l0-0.4c0-0.1,0-0.3-0.1-0.4c0-0.1-0.1-0.2-0.2-0.3c-0.1-0.2-0.2-0.3-0.4-0.4c0,0,0,0,0,0c0,0,0,0,0,0
			c0,0,0,0,0,0c0,0,0,0,0,0c0,0,0,0,0,0l0,0c0,0,0,0,0,0l-0.1,0c0,0,0,0-0.1,0c0,0,0,0-0.1,0c0,0-0.1,0-0.2,0c0,0-0.1,0-0.1,0
			c0,0-0.1,0-0.1,0c0,0,0,0,0,0c0,0,0,0,0,0c0,0,0,0,0,0c0,0,0,0,0,0l0,0.1c0,0,0,0,0,0c-0.1-0.1-0.1-0.1-0.2-0.1c0,0,0,0,0,0
			c0,0,0,0,0,0c0,0,0,0,0,0c-0.1,0-0.1,0.2-0.2,0.5c0,0-0.1,0.1-0.1,0.1c-0.1,0.1-0.2,0.2-0.3,0.4c-0.1,0.1-0.1,0.3-0.1,0.4
			c0,0.1,0,0.3-0.1,0.4c0,0.2-0.1,0.3-0.1,0.5l-0.1,0.4c0,0.2,0,0.4,0,0.6l0,0.4l0,0.2l0,0.2c0,0.1-0.1,0.3-0.1,0.5
			c0,0.2,0,0.3,0,0.5L79.3,50z M81.3,49.1c0,0.1,0,0.1,0,0.2c0,0.1,0.1,0.2,0.1,0.3c0,0.1,0,0.2,0,0.3c0,0.1-0.1,0.3-0.1,0.5
			C81.3,50,81.3,49.6,81.3,49.1z M81.2,51c0,0.1,0,0.2,0,0.3c0,0.1,0,0.1,0,0.2C81.1,51.3,81.2,51.1,81.2,51z"/>
		<linearGradient id="SVGID_56_" gradientUnits="userSpaceOnUse" x1="95.5626" y1="58.491" x2="98.3796" y2="58.491">
			<stop  offset="0" style="stop-color:#3F58A6"/>
			<stop  offset="1" style="stop-color:#C9A2C8"/>
		</linearGradient>
		<path class="st65" d="M95.6,60c0,0.2,0,0.3,0,0.5c0,0.2,0,0.4,0,0.6l0.1,0.6c0,0.2,0.1,0.4,0.1,0.6c0,0.1,0,0.2,0.1,0.3
			c0,0,0,0.1,0.1,0.1c0,0,0,0,0,0c0,0,0,0,0.1,0c0,0,0,0,0.1,0c0,0,0,0,0.1,0c0,0,0.1,0,0.1,0c0,0,0.1,0,0.1,0l0.1,0h0h0
			c0,0,0.1,0,0.1,0c0.1,0,0.1,0,0.2,0c0.1,0,0.1,0,0.1,0c0,0,0.1,0,0.1,0c0,0,0.1,0,0.1,0c0.1,0,0.1,0,0.1,0c0,0,0.1,0,0.1,0
			c0,0,0.1,0,0.1,0c0,0,0,0,0,0c0,0,0,0,0.1,0c0,0,0,0,0.1,0c0,0,0,0,0.1-0.1c0.1-0.1,0.1-0.1,0.1-0.2c0-0.1,0-0.1,0.1-0.2
			c0-0.1,0.1-0.2,0.1-0.3c0-0.2,0.1-0.4,0.1-0.6l0-0.7c0-0.2,0.1-0.4,0.1-0.7c0-0.1,0-0.2,0-0.3c0-0.1,0-0.2-0.1-0.3
			c-0.1-0.2-0.1-0.4-0.1-0.6c0-0.2,0.1-0.4,0.1-0.6c0-0.2,0-0.4,0-0.6c0-0.2-0.1-0.4-0.1-0.5c0-0.2-0.1-0.3-0.1-0.5
			c0-0.2-0.1-0.3-0.1-0.4l0-0.4c0-0.1,0-0.3-0.1-0.4c0-0.1-0.1-0.2-0.2-0.3c-0.1-0.2-0.2-0.3-0.4-0.4c0,0,0,0,0,0c0,0,0,0,0,0
			c0,0,0,0,0,0c0,0,0,0,0,0c0,0,0,0,0,0h0c0,0,0,0,0,0l-0.1,0c0,0,0,0-0.1,0c0,0,0,0-0.1,0c0,0-0.1,0-0.2,0c0,0-0.1,0-0.1,0
			c0,0-0.1,0-0.1,0c0,0,0,0,0,0c0,0,0,0,0,0c0,0,0,0,0,0c0,0,0,0,0,0l0,0.1c0,0,0,0,0,0c-0.1-0.1-0.1-0.1-0.2-0.1c0,0,0,0,0,0
			c0,0,0,0,0,0c0,0,0,0,0,0c-0.1,0-0.1,0.2-0.2,0.5c0,0-0.1,0.1-0.1,0.1c-0.1,0.1-0.2,0.2-0.3,0.4C96,55.5,96,55.7,96,55.8
			c0,0.1,0,0.3-0.1,0.4c0,0.2-0.1,0.3-0.1,0.5l-0.1,0.4c0,0.2,0,0.4,0,0.6l0,0.4l0,0.2l0,0.2c0,0.1-0.1,0.3-0.1,0.5
			c0,0.2,0,0.3,0,0.5L95.6,60z M97.6,59.1c0,0,0,0.1,0,0.2c0,0.1,0.1,0.2,0.1,0.3c0,0.1,0,0.2,0,0.3c0,0.1-0.1,0.3-0.1,0.5
			C97.6,59.9,97.6,59.5,97.6,59.1z M97.5,60.9c0,0.1,0,0.2,0,0.3c0,0.1,0,0.1,0,0.2C97.4,61.2,97.5,61.1,97.5,60.9z"/>
		<linearGradient id="SVGID_57_" gradientUnits="userSpaceOnUse" x1="103.5465" y1="46.1163" x2="106.3617" y2="46.1163">
			<stop  offset="0" style="stop-color:#3F58A6"/>
			<stop  offset="1" style="stop-color:#C9A2C8"/>
		</linearGradient>
		<path class="st66" d="M103.6,47.6c0,0.2,0,0.3,0,0.5c0,0.2,0,0.4,0,0.6l0.1,0.6c0,0.2,0.1,0.4,0.1,0.6c0,0.1,0,0.2,0.1,0.3
			c0,0,0,0.1,0.1,0.1c0,0,0,0,0,0c0,0,0,0,0.1,0c0,0,0,0,0.1,0c0,0,0,0,0.1,0c0,0,0.1,0,0.1,0c0,0,0.1,0,0.1,0l0.1,0l0,0h0
			c0,0,0.1,0,0.1,0c0.1,0,0.1,0,0.2,0c0.1,0,0.1,0,0.1,0c0,0,0.1,0,0.1,0c0,0,0.1,0,0.1,0c0.1,0,0.1,0,0.1,0c0,0,0.1,0,0.1,0
			c0,0,0.1,0,0.1,0c0,0,0,0,0,0c0,0,0,0,0.1,0c0,0,0,0,0.1,0c0,0,0,0,0.1-0.1c0.1-0.1,0.1-0.1,0.1-0.2c0-0.1,0-0.1,0.1-0.2
			c0-0.1,0.1-0.2,0.1-0.3c0.1-0.2,0.1-0.4,0.1-0.6l0-0.7c0-0.2,0.1-0.4,0.1-0.7c0-0.1,0-0.2,0-0.3c0-0.1,0-0.2-0.1-0.3
			c-0.1-0.2-0.1-0.4-0.1-0.6c0-0.2,0.1-0.4,0.1-0.6c0-0.2,0-0.4,0-0.6c0-0.2-0.1-0.4-0.1-0.5c0-0.2-0.1-0.3-0.1-0.5
			c0-0.2-0.1-0.3-0.1-0.4l0-0.4c0-0.1,0-0.3-0.1-0.4c0-0.1-0.1-0.2-0.2-0.3c-0.1-0.2-0.2-0.3-0.4-0.4c0,0,0,0,0,0c0,0,0,0,0,0
			c0,0,0,0,0,0c0,0,0,0,0,0h0h0c0,0,0,0,0,0l-0.1,0c0,0,0,0-0.1,0c0,0-0.1,0-0.1,0c0,0-0.1,0-0.2,0c0,0-0.1,0-0.1,0c0,0-0.1,0-0.1,0
			c0,0,0,0,0,0c0,0,0,0,0,0c0,0,0,0,0,0c0,0,0,0,0,0l0,0.1c0,0,0,0,0,0c-0.1-0.1-0.1-0.1-0.2-0.1c0,0,0,0,0,0c0,0,0,0,0,0
			c0,0,0,0,0,0c-0.1,0-0.1,0.2-0.2,0.5c0,0-0.1,0.1-0.1,0.1c-0.1,0.1-0.2,0.2-0.2,0.4c-0.1,0.1-0.1,0.3-0.1,0.4c0,0.1,0,0.3-0.1,0.4
			c0,0.2-0.1,0.3-0.1,0.5l-0.1,0.4c0,0.2,0,0.4,0,0.6l0,0.4l0,0.2l0,0.2c0,0.1,0,0.3-0.1,0.5c0,0.2,0,0.3,0,0.5L103.6,47.6z
			 M105.6,46.7c0,0.1,0,0.1,0,0.2c0,0.1,0,0.2,0,0.3c0,0.1,0,0.2,0,0.3c0,0.1-0.1,0.3-0.1,0.5C105.6,47.5,105.6,47.1,105.6,46.7z
			 M105.5,48.5c0,0.1,0,0.2,0,0.3c0,0.1,0,0.1,0,0.2C105.4,48.8,105.4,48.7,105.5,48.5z"/>
		<linearGradient id="SVGID_58_" gradientUnits="userSpaceOnUse" x1="105.8894" y1="58.9234" x2="108.7024" y2="58.9234">
			<stop  offset="0" style="stop-color:#3F58A6"/>
			<stop  offset="1" style="stop-color:#C9A2C8"/>
		</linearGradient>
		<path class="st67" d="M106.2,56.7c0,0.2-0.1,0.3-0.1,0.5l-0.1,0.4c0,0.2,0,0.4,0,0.6l0,0.4l0,0.2l0,0.2c0,0.1-0.1,0.3-0.1,0.5
			s0,0.3,0,0.5l0.1,0.5c0,0.2,0,0.3,0,0.5c0,0.2,0,0.4,0,0.6l0.1,0.6c0,0.2,0.1,0.4,0.1,0.6c0,0.1,0,0.2,0.1,0.3c0,0,0,0.1,0.1,0.1
			c0,0,0,0,0,0c0,0,0,0,0.1,0c0,0,0,0,0.1,0c0,0,0,0,0.1,0c0,0,0.1,0,0.1,0c0,0,0.1,0,0.1,0l0.1,0l0,0h0c0,0,0.1,0,0.1,0
			c0.1,0,0.1,0,0.2,0c0.1,0,0.1,0,0.1,0c0,0,0.1,0,0.1,0c0,0,0.1,0,0.1,0c0.1,0,0.1,0,0.1,0c0,0,0.1,0,0.1,0c0,0,0.1,0,0.1,0
			c0,0,0,0,0,0c0,0,0,0,0.1,0c0,0,0,0,0.1,0c0,0,0,0,0.1-0.1c0.1-0.1,0.1-0.1,0.1-0.2c0-0.1,0-0.1,0.1-0.2c0-0.1,0.1-0.2,0.1-0.3
			c0-0.2,0.1-0.4,0.1-0.6l0-0.7c0-0.2,0.1-0.4,0.1-0.7c0-0.1,0-0.2,0-0.3c0-0.1,0-0.2-0.1-0.3c-0.1-0.2-0.1-0.4-0.1-0.6
			c0-0.2,0.1-0.4,0.1-0.6c0-0.2,0-0.4,0-0.6c0-0.2-0.1-0.4-0.1-0.5c0-0.2-0.1-0.3-0.1-0.5c0-0.2-0.1-0.3-0.1-0.4l0-0.4
			c0-0.1,0-0.3-0.1-0.4c0-0.1-0.1-0.2-0.2-0.3c-0.1-0.2-0.2-0.3-0.4-0.4c0,0,0,0,0,0c0,0,0,0,0,0c0,0,0,0,0,0c0,0,0,0,0,0
			c0,0,0,0,0,0l0,0c0,0,0,0,0,0l-0.1,0c0,0,0,0-0.1,0c0,0,0,0-0.1,0c0,0-0.1,0-0.2,0c0,0-0.1,0-0.1,0c0,0-0.1,0-0.1,0c0,0,0,0,0,0
			c0,0,0,0,0,0c0,0,0,0,0,0c0,0,0,0,0,0l0,0.1c0,0,0,0,0,0c-0.1-0.1-0.1-0.1-0.2-0.1c0,0,0,0,0,0c0,0,0,0,0,0c0,0,0,0,0,0
			c-0.1,0-0.1,0.2-0.2,0.5c0,0-0.1,0.1-0.1,0.1c-0.1,0.1-0.2,0.2-0.3,0.4c-0.1,0.1-0.1,0.3-0.1,0.4
			C106.3,56.4,106.3,56.6,106.2,56.7z M107.9,59.5c0,0.1,0,0.1,0,0.2c0,0.1,0.1,0.2,0,0.3c0,0.1,0,0.2,0,0.3c0,0.1-0.1,0.3-0.1,0.5
			C107.9,60.4,107.9,59.9,107.9,59.5z M107.8,61.3c0,0.1,0,0.2,0,0.3c0,0.1,0,0.1,0,0.2C107.8,61.6,107.8,61.5,107.8,61.3z"/>
		<linearGradient id="SVGID_59_" gradientUnits="userSpaceOnUse" x1="122.6059" y1="55.6332" x2="125.419" y2="55.6332">
			<stop  offset="0" style="stop-color:#3F58A6"/>
			<stop  offset="1" style="stop-color:#C9A2C8"/>
		</linearGradient>
		<path class="st68" d="M125.3,55.6c0-0.2,0.1-0.4,0.1-0.6c0-0.2,0-0.4,0-0.6c0-0.2-0.1-0.4-0.1-0.5c0-0.2-0.1-0.3-0.1-0.5
			c0-0.2-0.1-0.3-0.1-0.4l0-0.4c0-0.1,0-0.3-0.1-0.4c0-0.1-0.1-0.2-0.2-0.3c-0.1-0.2-0.2-0.3-0.4-0.4c0,0,0,0,0,0c0,0,0,0,0,0
			c0,0,0,0,0,0c0,0,0,0,0,0c0,0,0,0,0,0l0,0c0,0,0,0,0,0l-0.1,0c0,0,0,0-0.1,0c0,0,0,0-0.1,0c0,0-0.1,0-0.2,0c0,0-0.1,0-0.1,0
			c0,0-0.1,0-0.1,0c0,0,0,0,0,0c0,0,0,0,0,0c0,0,0,0,0,0c0,0,0,0,0,0l0,0.1c0,0,0,0,0,0c-0.1-0.1-0.1-0.1-0.2-0.1c0,0,0,0,0,0
			c0,0,0,0,0,0c0,0,0,0,0,0c-0.1,0-0.1,0.2-0.2,0.5c0,0-0.1,0.1-0.1,0.1c-0.1,0.1-0.2,0.2-0.3,0.4c-0.1,0.1-0.1,0.3-0.1,0.4
			c0,0.1,0,0.3-0.1,0.4c0,0.2-0.1,0.3-0.1,0.5l-0.1,0.4c0,0.2,0,0.4,0,0.6l0,0.4l0,0.2l0,0.2c0,0.1,0,0.3-0.1,0.5c0,0.2,0,0.3,0,0.5
			l0.1,0.5c0,0.2,0,0.3,0,0.5c0,0.2,0,0.4,0,0.6l0.1,0.6c0,0.2,0.1,0.4,0.1,0.6c0,0.1,0,0.2,0.1,0.3c0,0,0,0.1,0.1,0.1c0,0,0,0,0,0
			c0,0,0,0,0.1,0c0,0,0,0,0.1,0c0,0,0,0,0.1,0c0,0,0.1,0,0.1,0c0,0,0.1,0,0.1,0l0.1,0h0l0,0c0,0,0.1,0,0.1,0c0.1,0,0.1,0,0.2,0
			c0.1,0,0.1,0,0.1,0c0,0,0.1,0,0.1,0c0,0,0.1,0,0.1,0c0.1,0,0.1,0,0.1,0c0,0,0.1,0,0.1,0c0,0,0.1,0,0.1,0c0,0,0,0,0.1,0
			c0,0,0,0,0.1,0c0,0,0,0,0.1,0c0,0,0,0,0.1-0.1c0.1-0.1,0.1-0.1,0.1-0.2c0-0.1,0-0.1,0.1-0.2c0-0.1,0.1-0.2,0.1-0.3
			c0-0.2,0.1-0.4,0.1-0.6l0-0.7c0-0.2,0.1-0.4,0.1-0.7c0-0.1,0-0.2,0-0.3c0-0.1,0-0.2-0.1-0.3C125.3,56,125.2,55.8,125.3,55.6z
			 M124.5,58.3c0,0.1,0,0.1,0,0.2c0-0.1,0-0.3,0.1-0.4C124.5,58.2,124.5,58.2,124.5,58.3z M124.7,57c0,0.2-0.1,0.3-0.1,0.5
			c0-0.4,0.1-0.8,0.1-1.2c0,0.1,0,0.1,0,0.2c0,0.1,0,0.2,0,0.3S124.7,56.9,124.7,57z"/>
		<linearGradient id="SVGID_60_" gradientUnits="userSpaceOnUse" x1="30.777" y1="46.793" x2="32.9692" y2="46.793">
			<stop  offset="0" style="stop-color:#3F58A6"/>
			<stop  offset="1" style="stop-color:#C9A2C8"/>
		</linearGradient>
		<path class="st69" d="M30.8,47.9c0,0.1,0,0.3,0,0.4c0,0.1,0,0.3,0,0.4l0.1,0.4c0,0.1,0,0.3,0.1,0.4c0,0.1,0,0.1,0.1,0.2
			c0,0,0,0.1,0.1,0.1c0,0,0,0,0,0c0,0,0,0,0,0c0,0,0,0,0.1,0c0,0,0,0,0,0c0,0,0,0,0.1,0c0,0,0.1,0,0.1,0l0.1,0h0h0c0,0,0,0,0.1,0
			c0,0,0.1,0,0.2,0c0.1,0,0.1,0,0.1,0c0,0,0.1,0,0.1,0c0,0,0,0,0.1,0c0,0,0.1,0,0.1,0c0,0,0.1,0,0.1,0c0,0,0.1,0,0.1,0c0,0,0,0,0,0
			c0,0,0,0,0,0c0,0,0,0,0,0c0,0,0,0,0,0c0-0.1,0.1-0.1,0.1-0.1c0,0,0-0.1,0.1-0.1c0-0.1,0.1-0.2,0.1-0.2c0-0.2,0.1-0.3,0.1-0.5
			l0-0.5c0-0.2,0.1-0.3,0.1-0.5c0-0.1,0-0.2,0-0.3c0-0.1,0-0.2,0-0.3c0-0.2-0.1-0.3-0.1-0.5c0-0.2,0.1-0.3,0.1-0.5
			c0-0.2,0-0.3,0-0.5c0-0.1,0-0.3-0.1-0.4c0-0.1,0-0.3-0.1-0.4c0-0.1-0.1-0.2-0.1-0.3l0-0.3c0-0.1,0-0.2-0.1-0.3
			c0-0.1-0.1-0.2-0.1-0.2c-0.1-0.1-0.2-0.2-0.3-0.3c0,0,0,0,0,0c0,0,0,0,0,0c0,0,0,0,0,0c0,0,0,0,0,0l0,0h0c0,0,0,0,0,0l0,0
			c0,0,0,0,0,0c0,0,0,0-0.1,0c0,0-0.1,0-0.1,0c0,0-0.1,0-0.1,0c0,0-0.1,0-0.1,0c0,0,0,0,0,0c0,0,0,0,0,0c0,0,0,0,0,0c0,0,0,0,0,0
			l0,0.1c0,0,0,0,0,0c0-0.1-0.1-0.1-0.1-0.1c0,0,0,0,0,0c0,0,0,0,0,0c0,0,0,0,0,0c-0.1,0-0.1,0.2-0.1,0.4c0,0-0.1,0.1-0.1,0.1
			c-0.1,0.1-0.1,0.2-0.2,0.3c0,0.1-0.1,0.2-0.1,0.3c0,0.1,0,0.2-0.1,0.3c0,0.1-0.1,0.3-0.1,0.4l0,0.3c0,0.1,0,0.3,0,0.5l0,0.3l0,0.1
			l0,0.2c0,0.1,0,0.2-0.1,0.4c0,0.1,0,0.3,0,0.4L30.8,47.9z M32.4,47.2c0,0,0,0.1,0,0.1c0,0.1,0,0.2,0,0.2c0,0.1,0,0.2,0,0.2
			c0,0.1-0.1,0.2-0.1,0.4C32.3,47.9,32.4,47.6,32.4,47.2z M32.3,48.7c0,0.1,0,0.1,0,0.2c0,0,0,0.1,0,0.1
			C32.2,48.9,32.3,48.8,32.3,48.7z"/>
		<linearGradient id="SVGID_61_" gradientUnits="userSpaceOnUse" x1="82.1555" y1="57.3293" x2="84.1077" y2="57.3293">
			<stop  offset="0" style="stop-color:#3F58A6"/>
			<stop  offset="1" style="stop-color:#C9A2C8"/>
		</linearGradient>
		<path class="st70" d="M82.2,58.3c0,0.1,0,0.2,0,0.4c0,0.1,0,0.3,0,0.4l0,0.4c0,0.1,0,0.3,0.1,0.4c0,0.1,0,0.1,0.1,0.2
			c0,0,0,0.1,0,0.1c0,0,0,0,0,0c0,0,0,0,0,0c0,0,0,0,0.1,0c0,0,0,0,0,0c0,0,0,0,0.1,0c0,0,0,0,0.1,0l0.1,0l0,0h0c0,0,0,0,0.1,0
			c0,0,0.1,0,0.1,0c0.1,0,0.1,0,0.1,0c0,0,0.1,0,0.1,0c0,0,0,0,0.1,0c0,0,0.1,0,0.1,0c0,0,0,0,0.1,0c0,0,0,0,0.1,0c0,0,0,0,0,0
			c0,0,0,0,0,0c0,0,0,0,0,0c0,0,0,0,0,0c0,0,0.1-0.1,0.1-0.1c0,0,0-0.1,0-0.1c0-0.1,0-0.1,0.1-0.2c0-0.1,0.1-0.3,0.1-0.4l0-0.5
			c0-0.1,0.1-0.3,0.1-0.5c0-0.1,0-0.2,0-0.2c0-0.1,0-0.2,0-0.2c0-0.1-0.1-0.3-0.1-0.4c0-0.1,0-0.3,0.1-0.4c0-0.1,0-0.3,0-0.4
			c0-0.1,0-0.2,0-0.4c0-0.1,0-0.2-0.1-0.3c0-0.1-0.1-0.2-0.1-0.3l0-0.3c0-0.1,0-0.2-0.1-0.3c0-0.1-0.1-0.1-0.1-0.2
			c-0.1-0.1-0.2-0.2-0.3-0.3c0,0,0,0,0,0c0,0,0,0,0,0c0,0,0,0,0,0c0,0,0,0,0,0l0,0h0c0,0,0,0,0,0l0,0c0,0,0,0,0,0c0,0,0,0-0.1,0
			c0,0-0.1,0-0.1,0c0,0-0.1,0-0.1,0c0,0-0.1,0-0.1,0c0,0,0,0,0,0c0,0,0,0,0,0c0,0,0,0,0,0c0,0,0,0,0,0l0,0.1c0,0,0,0,0,0
			c0-0.1-0.1-0.1-0.1-0.1c0,0,0,0,0,0c0,0,0,0,0,0c0,0,0,0,0,0c-0.1,0-0.1,0.1-0.1,0.4c0,0,0,0.1-0.1,0.1c-0.1,0.1-0.1,0.2-0.2,0.3
			c0,0.1-0.1,0.2-0.1,0.3c0,0.1,0,0.2-0.1,0.3c0,0.1-0.1,0.2-0.1,0.4l0,0.3c0,0.1,0,0.2,0,0.4l0,0.3l0,0.1l0,0.1c0,0.1,0,0.2,0,0.3
			c0,0.1,0,0.2,0,0.3L82.2,58.3z M83.6,57.7c0,0,0,0.1,0,0.1c0,0.1,0,0.1,0,0.2c0,0.1,0,0.1,0,0.2c0,0.1-0.1,0.2-0.1,0.3
			C83.6,58.3,83.6,58,83.6,57.7z M83.5,59c0,0.1,0,0.1,0,0.2c0,0,0,0.1,0,0.1C83.4,59.2,83.5,59.1,83.5,59z"/>
		<linearGradient id="SVGID_62_" gradientUnits="userSpaceOnUse" x1="52.0256" y1="45.1735" x2="54.8522" y2="45.1735">
			<stop  offset="0" style="stop-color:#3F58A6"/>
			<stop  offset="1" style="stop-color:#C9A2C8"/>
		</linearGradient>
		<path class="st71" d="M52,46c0,0.1,0,0.2,0,0.3c0.1,0.2,0.1,0.4,0.1,0.6l0,0.7c0,0.2,0.1,0.4,0.1,0.6c0,0.1,0.1,0.2,0.1,0.3
			c0,0.1,0,0.1,0.1,0.2c0,0.1,0.1,0.1,0.1,0.2c0,0,0,0,0.1,0.1c0,0,0,0,0.1,0c0,0,0,0,0.1,0c0,0,0,0,0,0c0,0,0,0,0.1,0
			c0,0,0.1,0,0.1,0c0,0,0.1,0,0.1,0c0,0,0.1,0,0.1,0c0,0,0.1,0,0.1,0c0,0,0.1,0,0.1,0c0.1,0,0.1,0,0.2,0c0,0,0.1,0,0.1,0l0,0h0
			l0.1,0c0,0,0.1,0,0.1,0c0,0,0.1,0,0.1,0c0,0,0,0,0.1,0c0.1,0,0.1,0,0.1,0c0,0,0,0,0.1,0c0,0,0,0,0,0c0,0,0.1-0.1,0.1-0.1
			c0-0.1,0.1-0.2,0.1-0.3c0-0.2,0.1-0.4,0.1-0.6l0.1-0.5c0-0.2,0-0.4,0-0.6c0-0.2,0-0.3,0-0.5l0.1-0.5c0-0.2,0-0.3,0-0.5
			c0-0.2,0-0.3-0.1-0.4l0-0.2l0-0.2l0-0.4c0-0.2,0-0.4,0-0.6l-0.1-0.4c0-0.2-0.1-0.3-0.1-0.5c0-0.1-0.1-0.3-0.1-0.4
			c0-0.1-0.1-0.3-0.1-0.4c-0.1-0.1-0.2-0.3-0.3-0.4c0,0-0.1-0.1-0.1-0.1c0-0.3-0.1-0.5-0.2-0.5c0,0,0,0,0,0c0,0,0,0,0,0c0,0,0,0,0,0
			c-0.1,0-0.1,0.1-0.2,0.1c0,0,0,0,0,0l0-0.1c0,0,0,0,0,0c0,0-0.1,0-0.1,0c0,0,0.1,0,0.1,0c0,0,0,0,0,0c0,0,0,0,0,0c0,0,0,0,0,0
			c0,0,0,0-0.1,0c0,0-0.1,0-0.1,0c-0.1,0-0.1,0-0.2,0c0,0,0,0-0.1,0c0,0,0,0-0.1,0l-0.1,0c0,0,0,0,0,0h0c0,0,0,0,0,0c0,0,0,0,0,0
			c0,0,0,0,0,0c0,0,0,0,0,0c0,0,0,0,0,0c-0.2,0.1-0.3,0.2-0.4,0.4c-0.1,0.1-0.1,0.2-0.2,0.3c0,0.1-0.1,0.2-0.1,0.4l0,0.4
			c0,0.1,0,0.3-0.1,0.4c0,0.2-0.1,0.3-0.1,0.5c0,0.2,0,0.3-0.1,0.5c0,0.2,0,0.4,0,0.6c0,0.2,0.1,0.4,0.1,0.6c0,0.2,0,0.4-0.1,0.6
			C52.1,45.8,52,45.9,52,46z M53,48c0-0.1,0-0.1,0-0.2c0-0.1,0-0.2,0-0.3C53,47.7,53,47.8,53,48z M52.7,45.9c0,0,0-0.1,0.1-0.1
			c0,0.4,0,0.8,0.1,1.2c0-0.2-0.1-0.3-0.1-0.5c0-0.1,0-0.2,0-0.3C52.7,46.1,52.7,46,52.7,45.9z"/>
		<linearGradient id="SVGID_63_" gradientUnits="userSpaceOnUse" x1="60.8985" y1="46.7126" x2="63.7288" y2="46.7126">
			<stop  offset="0" style="stop-color:#3F58A6"/>
			<stop  offset="1" style="stop-color:#C9A2C8"/>
		</linearGradient>
		<path class="st72" d="M60.9,47.6c0,0.1,0,0.2,0,0.3c0.1,0.2,0.1,0.4,0.1,0.7l0,0.6c0,0.2,0.1,0.4,0.1,0.6c0,0.1,0.1,0.2,0.1,0.3
			c0,0.1,0,0.1,0.1,0.2s0.1,0.1,0.1,0.2c0,0,0,0,0.1,0.1c0,0,0,0,0.1,0c0,0,0,0,0.1,0c0,0,0,0,0.1,0c0,0,0,0,0.1,0c0,0,0.1,0,0.1,0
			c0,0,0.1,0,0.1,0c0,0,0.1,0,0.1,0c0,0,0.1,0,0.1,0c0,0,0.1,0,0.1,0c0.1,0,0.1,0,0.2,0c0,0,0.1,0,0.1,0l0,0h0l0.1,0
			c0,0,0.1,0,0.1,0c0,0,0.1,0,0.1,0c0,0,0,0,0.1,0c0.1,0,0.1,0,0.1,0c0,0,0,0,0.1,0c0,0,0,0,0,0c0,0,0-0.1,0.1-0.1
			c0-0.1,0.1-0.2,0.1-0.3c0-0.2,0.1-0.4,0.1-0.6l0.1-0.5c0-0.2,0-0.4,0-0.6c0-0.2,0-0.3,0-0.5l0.1-0.5c0-0.2,0-0.3,0-0.5
			c0-0.2,0-0.3-0.1-0.4l0-0.2l0-0.2l0-0.4c0-0.2,0-0.4,0-0.6L63.5,45c0-0.2-0.1-0.3-0.1-0.5c0-0.1-0.1-0.3-0.1-0.4
			c0-0.1-0.1-0.3-0.1-0.4c-0.1-0.1-0.2-0.3-0.3-0.4c0,0-0.1-0.1-0.1-0.1c0-0.3-0.1-0.5-0.2-0.5c0,0,0,0,0,0c0,0,0,0,0,0c0,0,0,0,0,0
			c-0.1,0-0.1,0.1-0.2,0.1c0,0,0,0,0,0l0-0.1c0,0,0,0,0,0c0,0-0.1,0-0.1,0c0,0,0.1,0,0.1,0c0,0,0,0,0,0c0,0,0,0,0,0c0,0,0,0,0,0
			c0,0,0,0-0.1,0c0,0-0.1,0-0.1,0c-0.1,0-0.1,0-0.2,0c0,0,0,0-0.1,0c0,0,0,0-0.1,0l-0.1,0c0,0,0,0,0,0l0,0c0,0,0,0,0,0c0,0,0,0,0,0
			c0,0,0,0,0,0c0,0,0,0,0,0c0,0,0,0,0,0c-0.2,0.1-0.3,0.2-0.4,0.4c-0.1,0.1-0.1,0.2-0.2,0.3c0,0.1-0.1,0.2-0.1,0.4l0,0.4
			c0,0.1,0,0.3-0.1,0.4c0,0.2-0.1,0.3-0.1,0.5c0,0.2,0,0.3-0.1,0.5c0,0.2-0.1,0.4,0,0.6c0,0.2,0.1,0.4,0.1,0.6c0,0.2,0,0.4-0.1,0.6
			C60.9,47.4,60.9,47.5,60.9,47.6z M61.9,49.5c0-0.1,0-0.1,0-0.2c0-0.1,0-0.2,0-0.3C61.8,49.2,61.9,49.4,61.9,49.5z M61.6,47.4
			c0,0,0-0.1,0.1-0.1c0,0.4,0,0.8,0.1,1.2c0-0.2-0.1-0.3-0.1-0.5c0-0.1,0-0.2,0-0.3C61.6,47.6,61.6,47.5,61.6,47.4z"/>
	</g>
</g>
</svg>
