<?xml version="1.0" encoding="utf-8"?>
<!-- Generator: Adobe Illustrator 21.0.0, SVG Export Plug-In . SVG Version: 6.00 Build 0)  -->
<svg version="1.1" id="Layer_1" xmlns="http://www.w3.org/2000/svg" xmlns:xlink="http://www.w3.org/1999/xlink" x="0px" y="0px"
	 viewBox="0 0 160 145" style="enable-background:new 0 0 160 145;" xml:space="preserve">
<style type="text/css">
	.st0{fill:#CB5990;}
	.st1{fill:#FFFFFF;}
	.st2{fill:#12B6BF;}
	.st3{fill:url(#SVGID_1_);}
	.st4{fill:#455BA8;}
	.st5{fill:#326EB6;}
	.st6{fill:#DD5968;}
	.st7{fill:#EF537A;}
	.st8{fill:url(#SVGID_2_);}
	.st9{fill:url(#SVGID_3_);}
	.st10{fill:url(#SVGID_4_);}
	.st11{fill:url(#SVGID_5_);}
	.st12{fill:#F16443;}
	.st13{fill:url(#SVGID_6_);}
	.st14{fill:#F68E3F;}
	.st15{fill:url(#SVGID_7_);}
	.st16{fill:url(#SVGID_8_);}
	.st17{fill:url(#SVGID_9_);}
	.st18{fill:url(#SVGID_10_);}
	.st19{fill:url(#SVGID_11_);}
	.st20{fill:url(#SVGID_12_);}
	.st21{fill:url(#SVGID_13_);}
	.st22{fill:url(#SVGID_14_);}
	.st23{fill:url(#SVGID_15_);}
	.st24{fill:url(#SVGID_16_);}
	.st25{fill:url(#SVGID_17_);}
	.st26{fill:#3DB66D;}
	.st27{fill:url(#SVGID_18_);}
	.st28{fill:url(#SVGID_19_);}
	.st29{fill:url(#SVGID_20_);}
	.st30{fill:url(#SVGID_21_);}
	.st31{fill:url(#SVGID_22_);}
	.st32{fill:url(#SVGID_23_);}
	.st33{fill:url(#SVGID_24_);}
	.st34{fill:url(#SVGID_25_);}
	.st35{fill:url(#SVGID_26_);}
	.st36{fill:url(#SVGID_27_);}
	.st37{fill:url(#SVGID_28_);}
	.st38{fill:url(#SVGID_29_);}
	.st39{fill:url(#SVGID_30_);}
	.st40{fill:url(#SVGID_31_);}
	.st41{fill:url(#SVGID_32_);}
	.st42{fill:url(#SVGID_33_);}
	.st43{fill:url(#SVGID_34_);}
	.st44{fill:url(#SVGID_35_);}
	.st45{fill:url(#SVGID_36_);}
	.st46{fill:url(#SVGID_37_);}
	.st47{fill:url(#SVGID_38_);}
	.st48{fill:url(#SVGID_39_);}
	.st49{fill:url(#SVGID_40_);}
	.st50{fill:url(#SVGID_41_);}
	.st51{fill:url(#SVGID_42_);}
	.st52{fill:url(#SVGID_43_);}
	.st53{fill:url(#SVGID_44_);}
	.st54{fill:url(#SVGID_45_);}
	.st55{fill:url(#SVGID_46_);}
	.st56{fill:url(#SVGID_47_);}
	.st57{fill:url(#SVGID_48_);}
	.st58{fill:url(#SVGID_49_);}
	.st59{fill:url(#SVGID_50_);}
	.st60{fill:url(#SVGID_51_);}
	.st61{fill:url(#SVGID_52_);}
	.st62{fill:url(#SVGID_53_);}
	.st63{fill:url(#SVGID_54_);}
	.st64{fill:url(#SVGID_55_);}
	.st65{fill:url(#SVGID_56_);}
	.st66{fill:url(#SVGID_57_);}
	.st67{fill:url(#SVGID_58_);}
	.st68{fill:url(#SVGID_59_);}
	.st69{fill:url(#SVGID_60_);}
	.st70{fill:url(#SVGID_61_);}
	.st71{fill:url(#SVGID_62_);}
	.st72{fill:url(#SVGID_63_);}
	.st73{fill:url(#SVGID_64_);}
	.st74{fill:url(#SVGID_65_);}
	.st75{fill:url(#SVGID_66_);}
	.st76{fill:url(#SVGID_67_);}
	.st77{fill:url(#SVGID_68_);}
	.st78{fill:url(#SVGID_69_);}
	.st79{fill:url(#SVGID_70_);}
	.st80{fill:url(#SVGID_71_);}
	.st81{fill:url(#SVGID_72_);}
	.st82{fill:url(#SVGID_73_);}
	.st83{fill:url(#SVGID_74_);}
	.st84{fill:url(#SVGID_75_);}
	.st85{fill:url(#SVGID_76_);}
	.st86{fill:url(#SVGID_77_);}
	.st87{fill:url(#SVGID_78_);}
	.st88{fill:url(#SVGID_79_);}
	.st89{fill:url(#SVGID_80_);}
	.st90{fill:url(#SVGID_81_);}
	.st91{fill:url(#SVGID_82_);}
	.st92{fill:url(#SVGID_83_);}
	.st93{fill:url(#SVGID_84_);}
	.st94{fill:url(#SVGID_85_);}
	.st95{fill:url(#SVGID_86_);}
	.st96{fill:url(#SVGID_87_);}
	.st97{fill:url(#SVGID_88_);}
	.st98{fill:url(#SVGID_89_);}
	.st99{fill:url(#SVGID_90_);}
	.st100{fill:url(#SVGID_91_);}
	.st101{fill:url(#SVGID_92_);}
	.st102{fill:url(#SVGID_93_);}
	.st103{fill:url(#SVGID_94_);}
	.st104{fill:url(#SVGID_95_);}
	.st105{fill:url(#SVGID_96_);}
	.st106{fill:url(#SVGID_97_);}
	.st107{fill:url(#SVGID_98_);}
	.st108{fill:url(#SVGID_99_);}
	.st109{fill:url(#SVGID_100_);}
	.st110{fill:url(#SVGID_101_);}
	.st111{fill:url(#SVGID_102_);}
	.st112{fill:url(#SVGID_103_);}
	.st113{fill:url(#SVGID_104_);}
	.st114{fill:url(#SVGID_105_);}
	.st115{fill:url(#SVGID_106_);}
	.st116{fill:url(#SVGID_107_);}
	.st117{fill:url(#SVGID_108_);}
	.st118{fill:url(#SVGID_109_);}
	.st119{fill:url(#SVGID_110_);}
	.st120{fill:url(#SVGID_111_);}
	.st121{fill:url(#SVGID_112_);}
	.st122{fill:url(#SVGID_113_);}
	.st123{fill:url(#SVGID_114_);}
	.st124{fill:url(#SVGID_115_);}
	.st125{fill:url(#SVGID_116_);}
	.st126{fill:url(#SVGID_117_);}
	.st127{fill:url(#SVGID_118_);}
	.st128{fill:url(#SVGID_119_);}
	.st129{fill:url(#SVGID_120_);}
	.st130{fill:url(#SVGID_121_);}
	.st131{fill:url(#SVGID_122_);}
	.st132{fill:url(#SVGID_123_);}
	.st133{fill:url(#SVGID_124_);}
	.st134{fill:url(#SVGID_125_);}
	.st135{fill:url(#SVGID_126_);}
	.st136{fill:url(#SVGID_127_);}
	.st137{fill:#184054;}
	.st138{fill:url(#SVGID_128_);}
	.st139{fill:url(#SVGID_129_);}
	.st140{fill:url(#SVGID_130_);}
	.st141{fill:url(#SVGID_131_);}
	.st142{fill:url(#SVGID_132_);}
	.st143{fill:url(#SVGID_133_);}
	.st144{fill:url(#SVGID_134_);}
	.st145{fill:url(#SVGID_135_);}
	.st146{fill:url(#SVGID_136_);}
	.st147{fill:url(#SVGID_137_);}
	.st148{fill:url(#SVGID_138_);}
	.st149{fill:url(#SVGID_139_);}
	.st150{fill:url(#SVGID_140_);}
	.st151{fill:url(#SVGID_141_);}
	.st152{fill:url(#SVGID_142_);}
	.st153{fill:url(#SVGID_143_);}
	.st154{fill:url(#SVGID_144_);}
	.st155{fill:url(#SVGID_145_);}
	.st156{fill:url(#SVGID_146_);}
	.st157{fill:url(#SVGID_147_);}
	.st158{fill:url(#SVGID_148_);}
	.st159{fill:url(#SVGID_149_);}
	.st160{fill:url(#SVGID_150_);}
	.st161{fill:url(#SVGID_151_);}
	.st162{fill:url(#SVGID_152_);}
	.st163{fill:url(#SVGID_153_);}
	.st164{fill:url(#SVGID_154_);}
	.st165{fill:url(#SVGID_155_);}
	.st166{fill:url(#SVGID_156_);}
	.st167{fill:url(#SVGID_157_);}
	.st168{fill:url(#SVGID_158_);}
	.st169{fill:url(#SVGID_159_);}
	.st170{fill:url(#SVGID_160_);}
	.st171{fill:url(#SVGID_161_);}
	.st172{fill:url(#SVGID_162_);}
	.st173{fill:url(#SVGID_163_);}
	.st174{fill:url(#SVGID_164_);}
	.st175{fill:url(#SVGID_165_);}
	.st176{fill:url(#SVGID_166_);}
	.st177{fill:url(#SVGID_167_);}
	.st178{fill:url(#SVGID_168_);}
	.st179{fill:url(#SVGID_169_);}
	.st180{fill:url(#SVGID_170_);}
	.st181{fill:url(#SVGID_171_);}
	.st182{fill:url(#SVGID_172_);}
	.st183{fill:url(#SVGID_173_);}
	.st184{fill:url(#SVGID_174_);}
	.st185{fill:url(#SVGID_175_);}
	.st186{fill:url(#SVGID_176_);}
	.st187{fill:url(#SVGID_177_);}
	.st188{fill:url(#SVGID_178_);}
	.st189{fill:url(#SVGID_179_);}
	.st190{fill:url(#SVGID_180_);}
	.st191{fill:url(#SVGID_181_);}
	.st192{fill:url(#SVGID_182_);}
	.st193{fill:url(#SVGID_183_);}
	.st194{fill:url(#SVGID_184_);}
	.st195{fill:url(#SVGID_185_);}
	.st196{fill:url(#SVGID_186_);}
	.st197{fill:url(#SVGID_187_);}
	.st198{fill:url(#SVGID_188_);}
	.st199{fill:url(#SVGID_189_);}
	.st200{fill:url(#SVGID_190_);}
	.st201{fill:url(#SVGID_191_);}
	.st202{fill:url(#SVGID_192_);}
	.st203{fill:url(#SVGID_193_);}
	.st204{fill:url(#SVGID_194_);}
	.st205{fill:url(#SVGID_195_);}
	.st206{fill:url(#SVGID_196_);}
	.st207{fill:url(#SVGID_197_);}
	.st208{fill:url(#SVGID_198_);}
	.st209{fill:url(#SVGID_199_);}
	.st210{fill:url(#SVGID_200_);}
	.st211{fill:url(#SVGID_201_);}
	.st212{fill:url(#SVGID_202_);}
	.st213{fill:url(#SVGID_203_);}
	.st214{fill:url(#SVGID_204_);}
	.st215{fill:url(#SVGID_205_);}
	.st216{fill:url(#SVGID_206_);}
	.st217{fill:url(#SVGID_207_);}
	.st218{fill:url(#SVGID_208_);}
	.st219{fill:#969697;}
	.st220{fill:url(#SVGID_209_);}
	.st221{fill:url(#SVGID_210_);}
	.st222{fill:url(#SVGID_211_);}
	.st223{fill:url(#SVGID_212_);}
	.st224{fill:url(#SVGID_213_);}
	.st225{fill:url(#SVGID_214_);}
	.st226{fill:url(#SVGID_215_);}
	.st227{fill:url(#SVGID_216_);}
	.st228{fill:url(#SVGID_217_);}
	.st229{fill:url(#SVGID_218_);}
	.st230{fill:url(#SVGID_219_);}
	.st231{fill:url(#SVGID_220_);}
	.st232{fill:url(#SVGID_221_);}
	.st233{fill:url(#SVGID_222_);}
	.st234{fill:url(#SVGID_223_);}
	.st235{fill:url(#SVGID_224_);}
	.st236{fill:url(#SVGID_225_);}
	.st237{fill:url(#SVGID_226_);}
	.st238{fill:url(#SVGID_227_);}
	.st239{fill:url(#SVGID_228_);}
	.st240{fill:url(#SVGID_229_);}
	.st241{fill:url(#SVGID_230_);}
	.st242{fill:url(#SVGID_231_);}
	.st243{fill:url(#SVGID_232_);}
	.st244{fill:url(#SVGID_233_);}
	.st245{fill:url(#SVGID_234_);}
	.st246{fill:url(#SVGID_235_);}
	.st247{fill:url(#SVGID_236_);}
	.st248{fill:url(#SVGID_237_);}
	.st249{fill:url(#SVGID_238_);}
	.st250{fill:url(#SVGID_239_);}
	.st251{fill:url(#SVGID_240_);}
	.st252{fill:url(#SVGID_241_);}
	.st253{fill:url(#SVGID_242_);}
	.st254{fill:url(#SVGID_243_);}
	.st255{fill:url(#SVGID_244_);}
	.st256{fill:url(#SVGID_245_);}
	.st257{fill:url(#SVGID_246_);}
	.st258{fill:url(#SVGID_247_);}
	.st259{fill:url(#SVGID_248_);}
	.st260{fill:url(#SVGID_249_);}
	.st261{fill:url(#SVGID_250_);}
	.st262{fill:url(#SVGID_251_);}
	.st263{fill:url(#SVGID_252_);}
	.st264{fill:url(#SVGID_253_);}
	.st265{fill:url(#SVGID_254_);}
	.st266{fill:url(#SVGID_255_);}
	.st267{fill:url(#SVGID_256_);}
	.st268{fill:url(#SVGID_257_);}
	.st269{fill:url(#SVGID_258_);}
	.st270{fill:url(#SVGID_259_);}
	.st271{fill:url(#SVGID_260_);}
	.st272{fill:url(#SVGID_261_);}
	.st273{fill:url(#SVGID_262_);}
	.st274{fill:url(#SVGID_263_);}
	.st275{fill:url(#SVGID_264_);}
	.st276{fill:url(#SVGID_265_);}
	.st277{fill:url(#SVGID_266_);}
	.st278{fill:url(#SVGID_267_);}
	.st279{fill:#F69474;}
	.st280{fill:#F27350;}
	.st281{fill:url(#SVGID_268_);}
	.st282{fill:url(#SVGID_269_);}
	.st283{fill:url(#SVGID_270_);}
	.st284{fill:url(#SVGID_271_);}
	.st285{fill:url(#SVGID_272_);}
	.st286{fill:url(#SVGID_273_);}
	.st287{fill:url(#SVGID_274_);}
	.st288{fill:url(#SVGID_275_);}
	.st289{fill:url(#SVGID_276_);}
	.st290{fill:url(#SVGID_277_);}
	.st291{fill:url(#SVGID_278_);}
	.st292{fill:url(#SVGID_279_);}
	.st293{fill:url(#SVGID_280_);}
	.st294{fill:url(#SVGID_281_);}
	.st295{fill:url(#SVGID_282_);}
	.st296{fill:url(#SVGID_283_);}
	.st297{fill:url(#SVGID_284_);}
	.st298{fill:url(#SVGID_285_);}
	.st299{fill:url(#SVGID_286_);}
	.st300{fill:url(#SVGID_287_);}
	.st301{fill:url(#SVGID_288_);}
	.st302{fill:url(#SVGID_289_);}
	.st303{fill:url(#SVGID_290_);}
	.st304{fill:url(#SVGID_291_);}
	.st305{fill:url(#SVGID_292_);}
	.st306{fill:url(#SVGID_293_);}
</style>
<linearGradient id="SVGID_1_" gradientUnits="userSpaceOnUse" x1="0" y1="72.5" x2="160" y2="72.5">
	<stop  offset="0" style="stop-color:#2B6BB4"/>
	<stop  offset="1" style="stop-color:#6F8EC8"/>
</linearGradient>
<rect class="st3" width="160" height="145"/>
<g>
	<path class="st1" d="M19.6,98.2c0,0,0,0.1,0,0.2c0,0.1,0,0.2,0,0.3c0,0.1,0,0.1,0,0.1l0,0c0,0,0,0,0,0c0,0,0,0,0,0c0,0,0,0,0,0
		c0,0,0,0,0,0c0,0,0,0,0,0c0.1,0,0.2,0,0.2,0l0.2-0.1c0.2,0,0.3-0.1,0.5-0.1c0.2-0.1,0.4-0.2,0.5-0.2c0.2-0.1,0.3,0,0.5-0.1
		c0.1,0,0.2,0,0.3-0.1c0.1,0,0.2-0.1,0.3-0.2c0.2-0.1,0.3-0.3,0.5-0.3c0.2,0,0.3,0,0.5-0.1c0.2,0,0.3-0.1,0.5-0.2
		c0.2-0.1,0.3-0.2,0.4-0.2c0.1-0.1,0.3-0.1,0.4-0.2c0.1-0.1,0.3-0.1,0.4-0.2c0.1,0,0.2-0.1,0.3-0.1c0.1,0,0.2-0.1,0.3-0.1
		c0.1-0.1,0.2-0.1,0.3-0.2c0.2-0.1,0.3-0.3,0.4-0.4c0,0,0,0,0,0c0,0,0,0,0,0c0,0,0,0,0,0c0,0,0,0,0-0.1c0,0,0,0,0-0.1
		c0,0,0-0.1,0-0.1c0,0,0-0.1,0-0.1c0,0,0,0,0-0.1l0,0c0,0,0,0,0-0.1c0-0.1,0-0.1,0-0.1c0,0,0,0,0,0.1c0,0,0,0.1,0,0.1c0,0,0,0,0,0
		c0,0,0,0,0,0l0,0c0,0,0,0,0,0c0,0,0,0,0,0l0,0c0,0-0.1,0-0.1,0c0,0,0,0,0,0c0,0,0,0,0,0c0.1,0,0.1-0.1,0.1-0.1c0,0,0,0,0,0
		c0,0,0,0,0,0c0,0,0,0,0,0c0-0.2-0.1-0.3-0.4-0.3c0,0-0.1-0.1-0.1-0.1c-0.1-0.1-0.2-0.2-0.3-0.3c-0.1-0.1-0.2-0.1-0.3-0.1
		c-0.1,0-0.2,0-0.4,0c-0.1,0-0.3,0-0.4,0l-0.3,0c-0.1,0-0.3,0.1-0.5,0.1l-0.3,0.1l-0.2,0l-0.2,0c-0.1,0-0.2,0-0.4,0
		c-0.1,0-0.3,0.1-0.4,0.2L22,95.4c-0.1,0.1-0.3,0.1-0.4,0.2c-0.1,0.1-0.3,0.1-0.5,0.2c-0.2,0.1-0.3,0.2-0.5,0.3
		c-0.2,0.1-0.3,0.2-0.5,0.4c-0.1,0.1-0.2,0.2-0.2,0.3c0,0.1-0.1,0.1-0.1,0.2c0,0,0,0,0,0.1c0,0,0,0,0,0.1c0,0,0,0.1,0,0.2
		c0,0.1,0,0.1,0,0.2c0,0,0,0.2,0,0.3C19.6,97.6,19.6,98.1,19.6,98.2C19.6,98.2,19.6,98.2,19.6,98.2C19.6,98.2,19.6,98.2,19.6,98.2z
		 M22.4,97.4c0,0-0.1,0.1-0.1,0.1c-0.1,0.1-0.2,0.1-0.2,0.1c-0.1,0-0.2,0-0.3,0c-0.1,0-0.2,0-0.4,0C21.8,97.6,22.1,97.5,22.4,97.4z
		 M21,97.9c-0.1,0-0.2,0.1-0.2,0.1l-0.1,0C20.7,97.9,20.8,97.9,21,97.9z"/>
	<path class="st1" d="M19.5,84.5C19.5,84.5,19.5,84.5,19.5,84.5C19.6,84.4,19.6,84.4,19.5,84.5C19.6,84.4,19.6,84.4,19.5,84.5
		l0.1-0.1c0,0,0,0,0,0c-0.1,0.1-0.1,0.2-0.1,0.2C19.6,84.6,19.6,84.6,19.5,84.5c0,0.1,0,0.1,0,0.1c0,0,0,0,0,0
		c0,0.1,0.1,0.1,0.4,0.2c0,0,0.1,0.1,0.1,0.1c0.1,0.1,0.2,0.2,0.3,0.3c0.1,0.1,0.2,0.1,0.3,0.1c0.1,0,0.2,0,0.3,0.1
		c0.1,0,0.2,0.1,0.4,0.1l0.3,0c0.1,0,0.3,0,0.4,0l0.3,0l0.1,0l0.1,0c0.1,0,0.2,0,0.3,0.1c0.1,0,0.2,0,0.4,0l0.4-0.1
		c0.1,0,0.2,0,0.4,0c0.1,0,0.3,0,0.4,0l0.4-0.1c0.1,0,0.3-0.1,0.4-0.1c0.1,0,0.1-0.1,0.2-0.1c0,0,0.1,0,0.1-0.1c0,0,0,0,0,0
		c0,0,0,0,0-0.1c0,0,0,0,0-0.1c0,0,0,0,0-0.1c0,0,0-0.1,0-0.1c0,0,0-0.1,0-0.1l0-0.1v0l0,0c0,0,0-0.1,0-0.1c0-0.1,0-0.2,0-0.2
		c0-0.1,0-0.1,0-0.2c0,0,0-0.1,0-0.1c0,0,0-0.1,0-0.1c0-0.1,0-0.1,0-0.2c0,0,0-0.1,0-0.1c0,0,0-0.1,0-0.1c0,0,0,0,0-0.1
		c0,0,0,0,0-0.1c0,0,0,0,0-0.1c0,0,0,0,0-0.1c0-0.1-0.1-0.1-0.1-0.1c0,0-0.1-0.1-0.1-0.1c-0.1,0-0.2-0.1-0.2-0.1
		c-0.1,0-0.3-0.1-0.4-0.1l-0.5,0c-0.2,0-0.3-0.1-0.5-0.1c-0.1,0-0.2,0-0.2,0c-0.1,0-0.2,0-0.2,0.1c-0.2,0.1-0.3,0.2-0.4,0.1
		c-0.1,0-0.3-0.1-0.4-0.1c-0.2,0-0.3,0-0.4,0.1c-0.1,0-0.3,0.1-0.4,0.1c-0.1,0-0.3,0.1-0.4,0.1c-0.1,0-0.2,0.1-0.3,0.1l-0.3,0
		c-0.1,0-0.2,0-0.3,0.1c-0.1,0.1-0.2,0.1-0.2,0.2c-0.1,0.1-0.2,0.3-0.3,0.5c0,0,0,0,0,0c0,0,0,0,0,0c0,0,0,0,0,0c0,0,0,0,0,0
		c0,0,0,0,0,0l0,0c0,0,0,0,0,0l0,0.1c0,0,0,0,0,0.1c0,0,0,0.1,0,0.1c0,0.1,0,0.1,0,0.2C19.5,84.3,19.5,84.4,19.5,84.5
		C19.5,84.5,19.5,84.5,19.5,84.5C19.5,84.5,19.5,84.5,19.5,84.5z M24.7,83.5c0,0,0.1,0,0.1,0c-0.1,0-0.2,0-0.3-0.1
		C24.5,83.4,24.6,83.4,24.7,83.5z M23.2,83.3c0.1,0,0.1-0.1,0.2-0.1c0.1,0,0.1,0,0.2,0c0.1,0,0.2,0.1,0.3,0.1c-0.3,0-0.6,0-0.9,0
		C23.2,83.3,23.2,83.3,23.2,83.3z"/>
	<path class="st1" d="M20.5,73.9c0,0.1,0,0.1,0,0.2c0,0,0,0.1,0,0.1c0,0,0,0,0,0c0,0.1,0,0.1,0,0.1c0,0,0,0,0,0
		c0.1,0.1,0.2,0.1,0.2,0.1l0.2,0.1c0.2,0,0.3,0.1,0.5,0.1c0.2,0,0.3,0,0.5,0c0.2,0,0.3,0.1,0.5,0.2c0.1,0,0.2,0.1,0.3,0.1
		c0.1,0,0.2,0,0.3,0c0.2,0,0.3-0.1,0.5,0c0.1,0,0.3,0.1,0.5,0.2c0.2,0.1,0.3,0.1,0.4,0.1c0.1,0,0.3,0,0.4,0c0.1,0,0.3,0,0.4,0
		c0.1,0,0.2,0,0.3,0c0.1,0,0.2,0.1,0.3,0.1c0.1,0,0.2,0,0.3,0c0.1,0,0.2,0,0.2-0.1c0.1-0.1,0.3-0.1,0.3-0.3c0,0,0,0,0,0c0,0,0,0,0,0
		c0,0,0,0,0,0l0,0c0,0,0,0,0,0v0c0,0,0,0,0,0l0-0.1c0,0,0,0,0,0c0,0,0,0,0-0.1c0,0,0-0.1,0-0.1c0,0,0,0,0-0.1c0,0,0,0,0,0
		c0,0,0,0,0,0c0,0,0,0,0-0.1c0,0,0,0,0,0c0,0,0,0,0,0c0,0,0,0,0,0l0,0c0,0,0,0,0,0c0,0,0,0-0.1-0.1c0,0,0,0,0,0c0,0,0,0,0,0
		c0,0,0.1,0,0.1-0.1c0,0,0,0,0,0c0,0,0,0,0,0c0,0,0,0,0,0c0-0.2-0.1-0.4-0.4-0.6c0-0.1-0.1-0.1-0.1-0.2c-0.1-0.1-0.2-0.3-0.3-0.4
		c-0.1-0.1-0.2-0.2-0.3-0.3c-0.1-0.1-0.2-0.1-0.3-0.2c-0.1-0.1-0.2-0.2-0.4-0.2l-0.3-0.1c-0.1-0.1-0.3-0.1-0.4-0.1l-0.3-0.1l-0.1,0
		L23.8,72c-0.1,0-0.2-0.1-0.3-0.1c-0.1,0-0.3,0-0.4,0l-0.4,0c-0.1,0-0.3,0-0.4,0c-0.1,0-0.3,0-0.4,0c-0.1,0-0.3,0.1-0.4,0.1
		c-0.1,0-0.3,0.1-0.4,0.2c-0.1,0-0.2,0.1-0.2,0.1c0,0-0.1,0.1-0.1,0.1c0,0,0,0,0,0.1c0,0,0,0,0,0c0,0,0,0,0,0.1c0,0,0,0.1,0,0.2l0,0
		c0-0.2,0,0.2,0,0.3l0,0v0c0,0,0,0,0,0.1c0,0.1,0,0.3,0,0.5C20.5,73.8,20.5,73.9,20.5,73.9z M23.1,74.1c0,0-0.1,0-0.1,0
		c-0.1,0-0.2,0-0.2,0c-0.1,0-0.2,0-0.2-0.1c-0.1-0.1-0.2-0.1-0.3-0.2C22.5,74,22.8,74.1,23.1,74.1z M21.7,73.9c-0.1,0-0.2,0-0.2,0
		l-0.1,0C21.5,73.8,21.6,73.8,21.7,73.9z"/>
	<path class="st1" d="M140.4,95.3c0-0.1,0-0.2,0-0.3c0-0.1,0-0.2,0-0.2c0-0.2,0-0.2,0-0.2c0,0,0-0.1,0-0.1c0,0,0-0.1,0-0.1
		c0-0.1-0.1-0.1-0.1-0.2c-0.1-0.1-0.2-0.2-0.2-0.3c-0.2-0.2-0.3-0.3-0.5-0.4c-0.2-0.1-0.3-0.2-0.5-0.3c-0.2-0.1-0.3-0.2-0.5-0.2
		c-0.1,0-0.3-0.1-0.4-0.2l-0.4-0.2c-0.1-0.1-0.3-0.1-0.4-0.2c-0.1,0-0.2,0-0.4,0l-0.2,0l-0.2,0l-0.3-0.1c-0.2,0-0.3-0.1-0.5-0.1
		l-0.3,0c-0.1,0-0.3,0-0.4,0c-0.1,0-0.2,0-0.4,0c-0.1,0-0.2,0-0.3,0.1c-0.1,0.1-0.2,0.2-0.3,0.3c0,0-0.1,0.1-0.1,0.1
		c-0.3,0-0.4,0.2-0.4,0.3c0,0,0,0,0,0c0,0,0,0,0,0c0,0,0,0,0,0c0,0,0.1,0.1,0.1,0.1c0,0,0,0,0,0c0,0,0,0,0,0c0,0-0.1,0-0.1,0l0,0
		l0,0l0,0c0,0,0,0,0,0c0,0,0,0,0,0c0,0,0-0.1,0-0.1c0,0,0-0.1,0-0.1c0,0,0,0.1,0,0.1c0,0,0,0,0,0.1l0,0c0,0,0,0,0,0.1
		c0,0,0,0.1,0,0.1c0,0.1,0,0.1,0,0.1c0,0,0,0,0,0.1c0,0.2,0,0.1,0,0.1c0,0,0,0,0,0c0,0,0,0,0,0c0,0,0,0,0,0c0.1,0.2,0.2,0.3,0.4,0.4
		c0.1,0.1,0.2,0.1,0.3,0.2c0.1,0.1,0.2,0.1,0.3,0.1c0.1,0,0.2,0,0.3,0.1c0.1,0,0.2,0.1,0.4,0.2c0.1,0.1,0.3,0.2,0.4,0.2
		c0.1,0,0.3,0.1,0.4,0.2c0.2,0.1,0.3,0.2,0.5,0.2c0.2,0,0.3,0,0.5,0.1c0.2,0,0.3,0.1,0.5,0.3c0.1,0.1,0.2,0.1,0.3,0.2
		c0.1,0,0.2,0,0.3,0.1c0.2,0,0.4,0,0.5,0.1c0.2,0.1,0.4,0.2,0.5,0.2c0.2,0.1,0.3,0.1,0.5,0.1l0.2,0.1c0.1,0,0.2,0,0.2,0c0,0,0,0,0,0
		c0,0,0,0,0,0c0,0,0,0,0,0c0,0,0,0,0,0c0,0,0,0,0,0l0,0c0,0,0,0,0-0.1c0-0.1,0-0.2,0-0.3c0-0.1,0-0.2,0-0.2c0,0,0,0,0,0v0
		C140.4,95.6,140.4,95,140.4,95.3z M133.7,93.3C133.7,93.3,133.7,93.3,133.7,93.3C133.7,93.3,133.7,93.3,133.7,93.3
		C133.7,93.3,133.7,93.3,133.7,93.3z M138.2,95.2c-0.1,0-0.2,0-0.3,0c-0.1,0-0.2-0.1-0.2-0.2c0,0-0.1-0.1-0.1-0.1
		c0.3,0.1,0.7,0.2,1,0.3C138.4,95.2,138.3,95.2,138.2,95.2z M139.3,95.4c-0.1,0-0.2,0-0.2-0.1c0.1,0,0.2,0.1,0.4,0.1L139.3,95.4z"/>
	<path class="st1" d="M133.6,93.2C133.6,93.2,133.6,93.2,133.6,93.2L133.6,93.2C133.6,93.2,133.6,93.2,133.6,93.2z"/>
	<path class="st1" d="M140.5,81.8c0-0.1,0-0.1,0-0.2c0,0,0-0.1,0-0.1c0,0,0,0,0-0.1l0-0.1c0,0,0,0,0,0v0c0,0,0,0,0,0c0,0,0,0,0,0
		c0,0,0,0,0,0c0,0,0,0,0,0c0,0,0,0,0,0c-0.1-0.2-0.2-0.3-0.3-0.5c-0.1-0.1-0.1-0.1-0.2-0.2c-0.1-0.1-0.2-0.1-0.3-0.1l-0.3,0
		c-0.1,0-0.2-0.1-0.3-0.1c-0.1-0.1-0.2-0.1-0.4-0.1c-0.1,0-0.3-0.1-0.4-0.1c-0.1,0-0.3-0.1-0.4-0.1c-0.1,0-0.3,0.1-0.4,0.1
		c-0.1,0-0.3-0.1-0.4-0.1c-0.1,0-0.2-0.1-0.2-0.1c-0.1,0-0.2,0-0.2,0c-0.2,0-0.3,0.1-0.5,0.1l-0.5,0c-0.2,0-0.3,0-0.4,0.1
		c-0.1,0-0.2,0.1-0.2,0.1c0,0-0.1,0-0.1,0.1c0,0-0.1,0.1-0.1,0.1c0,0,0,0,0,0.1c0,0,0,0,0,0.1c0,0,0,0,0,0.1c0,0,0,0,0,0.1
		c0,0,0,0.1,0,0.1c0,0,0,0.1,0,0.1c0,0,0,0.1,0,0.2c0,0,0,0.1,0,0.1c0,0,0,0.1,0,0.1c0,0.1,0,0.1,0,0.2c0,0.1,0,0.2,0,0.2
		c0,0,0,0.1,0,0.1v0l0,0l0,0.1c0,0,0,0.1,0,0.1c0,0,0,0.1,0,0.1c0,0,0,0.1,0,0.1c0,0.1,0,0.1,0,0.1c0,0.1,0,0.1,0,0.1c0,0,0,0,0,0
		c0,0,0.1,0.1,0.1,0.1c0.1,0,0.1,0.1,0.2,0.1c0.1,0.1,0.3,0.1,0.4,0.1l0.4,0.1c0.1,0,0.3,0,0.4,0c0.1,0,0.3,0,0.4,0l0.4,0.1
		c0.1,0,0.2,0,0.4,0c0.1,0,0.2,0,0.3-0.1l0.1,0l0.1,0h0.3c0.2,0,0.3,0,0.4,0l0.3,0c0.1,0,0.3-0.1,0.4-0.1c0.1,0,0.2-0.1,0.3-0.1
		c0.1,0,0.2-0.1,0.3-0.1c0.1-0.1,0.2-0.2,0.3-0.3c0,0,0.1-0.1,0.1-0.1c0.2,0,0.4-0.1,0.4-0.2c0,0,0,0,0,0c0,0,0,0,0,0c0,0,0,0,0,0
		c0-0.1-0.1-0.2-0.1-0.2c0,0,0,0,0,0l0.1,0c0,0,0,0,0,0c0,0,0,0,0,0c0,0,0,0,0,0c0,0,0,0,0,0c0,0,0,0,0-0.1
		C140.5,81.9,140.5,81.8,140.5,81.8z M135.2,81c0,0,0.1,0,0.1,0c0.1,0,0.1,0,0.2,0C135.4,80.9,135.3,80.9,135.2,81z M136,80.8
		c0.1,0,0.2-0.1,0.3-0.1c0.1,0,0.2,0,0.2,0c0.1,0,0.1,0,0.2,0.1c0,0,0.1,0,0.1,0.1C136.6,80.8,136.3,80.8,136,80.8z"/>
	<path class="st1" d="M133.8,72.7c0.1,0,0.2,0,0.3,0c0.1,0,0.2-0.1,0.3-0.1c0.1,0,0.2,0,0.3,0c0.1,0,0.3,0,0.4,0c0.1,0,0.3,0,0.4,0
		c0.1,0,0.3,0,0.4-0.1c0.2-0.1,0.3-0.1,0.5-0.2c0.1-0.1,0.3,0,0.5,0c0.1,0,0.2,0,0.3,0c0.1,0,0.2,0,0.3-0.1c0.2-0.1,0.3-0.2,0.5-0.2
		c0.2,0,0.3,0,0.5,0c0.2,0,0.3-0.1,0.5-0.1l0.2-0.1c0.1,0,0.2-0.1,0.2-0.1c0,0,0,0,0,0c0,0,0,0,0-0.1c0,0,0,0,0,0c0,0,0-0.1,0-0.1
		c0-0.1,0-0.1,0-0.2c0,0,0-0.1,0-0.2c0-0.1,0-0.3,0-0.5c0-0.1,0-0.1,0-0.1c0,0,0,0,0,0v0c0,0,0-0.4,0-0.3l0,0c0-0.1,0-0.2,0-0.2
		c0-0.1,0-0.1,0-0.1c0,0,0,0,0,0c0,0,0,0,0-0.1c0-0.1-0.1-0.1-0.1-0.1c-0.1-0.1-0.2-0.1-0.2-0.1c-0.2-0.1-0.3-0.1-0.4-0.2
		c-0.1,0-0.3-0.1-0.4-0.1c-0.2,0-0.3,0-0.4,0c-0.1,0-0.3,0-0.4,0l-0.4,0c-0.1,0-0.3,0-0.4,0c-0.1,0-0.2,0.1-0.3,0.1l-0.2,0.1l-0.1,0
		l-0.3,0.1c-0.2,0.1-0.3,0.1-0.4,0.1l-0.3,0.1c-0.1,0.1-0.3,0.2-0.4,0.2c-0.1,0.1-0.2,0.1-0.3,0.2c-0.1,0.1-0.2,0.1-0.3,0.3
		c-0.1,0.1-0.2,0.3-0.3,0.4c0,0.1-0.1,0.1-0.1,0.2c-0.2,0.2-0.4,0.4-0.4,0.6c0,0,0,0,0,0c0,0,0,0,0,0c0,0,0,0,0,0c0,0,0.1,0,0.1,0.1
		c0,0,0,0,0,0c0,0,0,0,0,0c0,0-0.1,0-0.1,0.1c0,0,0,0,0,0l0,0c0,0,0,0,0,0c0,0,0,0,0,0c0,0,0,0,0,0c0,0,0,0,0,0.1c0,0,0,0,0,0
		c0,0,0,0,0,0c0,0,0,0.1,0,0.1c0,0,0,0.1,0,0.1c0,0,0,0.1,0,0.1c0,0,0,0,0,0l0,0.1c0,0,0,0,0,0s0,0,0,0c0,0,0,0,0,0l0,0c0,0,0,0,0,0
		c0,0,0,0,0,0c0,0,0,0,0,0c0.1,0.1,0.2,0.2,0.3,0.3C133.7,72.7,133.8,72.7,133.8,72.7z M139.5,70.5L139.5,70.5L139.5,70.5
		C139.5,70.5,139.5,70.5,139.5,70.5z M138.6,71.2l-0.1,0c-0.1,0-0.2,0-0.2,0C138.4,71.3,138.5,71.3,138.6,71.2z M137.8,71.4
		c-0.1,0-0.2,0.1-0.3,0.2c-0.1,0-0.2,0.1-0.2,0.1c-0.1,0-0.2,0-0.2,0c0,0-0.1,0-0.1,0C137.2,71.5,137.5,71.5,137.8,71.4z"/>
	<path class="st1" d="M31.9,96.9c0.6,0.1,1,0.2,1.3,0.7c0,0,0.1,0,0.2,0.1c0.2,0.2,0.5,0.1,0.7-0.3c0.2-0.3,0.3-0.7,0.3-0.9
		c0.5-3.2,4.1-7.6,5.6-10.5c0.6-0.6,1.1-1.4,1.5-2.1c3.7-5.5,0.9,0.6-0.1,5.3c0.1,0.6-0.2,1.2-0.7,1.8c-0.5,0.6-0.9,1.3-1.4,2
		c-0.3,0.5-0.3,0.5,0,0.7c0.4,0.3,1,0.3,1.4,0.5c0.7,0.2,1.5,0.2,2.4-0.1c0.5-0.1,1-0.3,1.2-0.9c0,0,0.1,0,0.1,0.1
		c0.2-0.3,0.5-0.6,0.6-0.9c0,0,0,0,0.1,0c-0.1,0.2-0.1,0.3-0.1,0.6c0.6-0.6,1.2-0.9,1.5-1.5c0.9-1.3,3.8-5.3,4.3-6.6
		c0.1-0.2,0.2-0.3,0.4-0.5c0-0.1,0.1-0.2,0.2-0.3c0.6-0.3,0.8-0.6,1-1.1c0-0.1,0.1-0.3,0.1-0.4c0,0,0,0,0.1,0c0,0,0,0.1,0.1,0.1
		c3.1-4.1,2.9-3.6,2.2,0.2c0,0,0.1,0,0.1,0c0.3-0.6,0.5-1.3,0.9-1.9c0,0,0,0,0,0c0,0,0,0.1,0,0.2c-0.3,0.5-0.5,0.9-0.4,1.4
		c0,0.1,0,0.3-0.1,0.4c-0.4,0.4,0,0.9-0.4,1.3c0,0,0,0.1,0,0.2c0.1,0.7-0.3,1.5-0.5,2.3c0,0.3-0.2,0.6-0.3,0.9c0,0,0,0-0.2,0.1
		c0-0.2,0.1-0.4,0.1-0.6c-0.3,0.6-0.4,1.2-0.6,1.7c-0.1,0.3-0.2,0.8-0.3,1.1c-0.2,1.5-0.4,2.8-0.9,4.4c-0.3,0.6-0.1,1.1,0.5,1.2
		c0.2,0,0.3,0.1,0.4,0.2c0.1,0.2,0.4,0.2,0.7,0.2c0.3,0,0.4-0.1,0.5-0.1c0.6,0,0.6-0.1,0.9-0.7c0.2-0.2,0.4-0.3,0.5-0.5
		c0.3-0.3,0.5-0.6,0.5-0.9c-0.2-0.4,0-0.9,0-1.2c-0.1-0.6,0.4-1.2,0.2-1.6c0,0,0-0.1,0-0.1c0.4-0.9,0.5-1.7,0.7-2.6
		c0.1-0.4,0.1-0.7-0.2-0.7c-0.2-0.6,0.5-1.1,0.7-1.7C57.9,86,57.9,86,57.9,86c0.1-0.3,0.2-0.7,0.3-1.1c0-0.1,0-0.2,0-0.3
		c0.4-0.6,0.5-1,0.3-1.5c-0.1-0.1,0-0.3,0-0.4c0.1-0.3,0.6-0.6,0.3-0.9c0-0.1,0-0.1,0-0.2c0.5-0.6,0.5-1.1,0.6-1.7
		c0.1-0.6,0.2-1.3,0.3-1.9c0-0.6,0.1-1.2,0.2-1.8c0.2-1.2,0.8-2.3,1.4-3.6c0-0.1,0.1-0.2,0.1-0.3c0-0.6,0-1.2-0.6-1.3
		c0,0-0.1,0-0.2-0.1c-0.2-0.3-0.5-0.6-0.8-0.9c-0.3-0.3-0.8-0.4-1.2-0.5c-0.5-0.1-0.9,0.4-1.4,0.7c-1.4,0.9-2.6,2.1-3.6,3.4
		c-0.6,0.9-1.4,1.7-2,2.5c-0.4,0.4-0.7,0.8-0.9,1.2c-1.8,2.3-4.1,4.9-1.9-0.3c0.2-0.4,0.2-0.8,0.5-1.3c0.5-1,0.2-0.1,0.2-1.1
		c0-0.1,0-0.2,0-0.2c0.3-0.4,0.3-0.6,0.2-0.9c0-0.1,0-0.4,0-0.6c-0.1-0.3-0.5-0.4-1-0.3c-0.5,0.1-0.9,0-1.3-0.2
		c-0.2-0.1-0.6-0.3-0.9-0.2c-0.9,0.3-1.8,0.7-2.4,1.6c-0.2,0.3-0.5,0.6-0.7,0.9c-0.4,0.6-1,1.1-1.4,1.6c-0.5,0.8-4.4,6.2-3.4,1.5
		c0.3-0.9,0.5-1.7,0.6-2.6c0-0.3,0-0.5-0.1-0.7c-0.2-0.2-0.5-0.4-0.8-0.6c-0.2-0.1-0.4,0-0.5,0.3c-0.1,0.3-0.3,0.6-0.4,0.9
		c-0.2,0.3-0.2,0.7-0.4,1c-0.4,1-0.8,2-0.8,3c0,0.3-0.1,0.6-0.2,0.9c-0.4,1.3-0.7,2.7-1.1,4c-0.2,0.7-0.4,1.4-0.5,2.1
		c-0.2,0.6-1.3,3.2-1.5,3.8c-0.2,0.6-0.2,1.1-0.4,1.6c-0.4,1.4-0.7,2.8-1.6,4.3c0,0.1-0.1,0.3,0,0.3C31.3,96.6,31.5,96.8,31.9,96.9z
		"/>
	<path class="st1" d="M61.2,93.1c0.1,0.2,0.3,0.4,0.4,0.7c0.7,0.9,1.6,1.6,2.8,2c0.9,0.3,1.9,0.4,2.9,0.3c0.2-0.1,0.5-0.1,0.7,0
		c0.2,0.1,0.5-0.1,0.7-0.1c0.6-0.1,1.1-0.1,1.7-0.2c0.5,0,1.1-0.1,1.7-0.2c0.5,0,1-0.1,1.5-0.2c0.9-0.2,1.8-0.7,2.6-1.1
		c0.5-0.3,1-0.6,1.4-1.1c0.2-0.1,0.4-0.2,0.6-0.3c-0.1-0.6-0.4-1.1-0.7-1.5c-0.2-0.3-0.3-0.3-0.6-0.1c-0.7,0.4-1.5,0.6-2.3,0.8
		c-0.9,0.1-1.8,0.2-2.7,0.3c-1.3,0.2-2.6,0.3-3.9,0.5c-1,0-2,0-2.9-0.1c-0.5-0.1-1-0.2-1.4-0.6c-0.4-0.3-0.5-1.4-0.3-1.9
		c1-3.1,7.4-7.1,9.8-8.2c0.4-0.2,0.7-0.4,1-0.7c0.3-0.4,0.6-0.7,1.1-0.9c0,0,0,0,0-0.1C75,80.2,74.9,80,74.6,80
		c-0.6-0.1-1.2-0.2-1.7,0c-1.1,0.1-2.2,0.1-3.2,0c-7.1-0.4,5.3-4.1,5.9-3c0.5,0,1.1,0,1.7,0.2c0.9,0.2,1.6-0.1,2.3-0.8
		c0.4-0.4,0.6-0.9,0.5-1.4c-0.1-0.3-0.2-0.5-0.2-0.8c-0.1-0.6-0.3-1-0.4-1.6c-0.1-0.6-0.4-1.1-0.9-1.4c-0.5-0.2-1-0.3-1.6-0.4
		c-2.1-0.2-4.3,0-6.4,0.6c-1.3,0.4-2.5,1-3.6,2c-0.9,0.7-1.4,1.6-1.6,2.7c-0.3,1.3,0.1,2.4,0.8,3.4c0.3,0.4,0.6,0.7,1,1
		c2.7,0.9-2.5,2.8-3.6,3.8c-1.3,1-2.2,2.3-2.7,3.8C60.1,89.8,60.2,91.5,61.2,93.1z"/>
	<path class="st1" d="M80.4,88.6c0,1.5,0.2,3,0.9,4.3c0.7,1.6,1.8,2.8,3.4,3.7c0.6,0.4,1.3,0.6,2.1,0.7c0.3,0,0.6,0.1,1,0.1
		c0.4,0.1,0.9,0.1,1.4-0.1c0.3-0.1,0.5-0.1,0.8-0.3c1.2-0.3,2.2-0.9,2.9-1.6c0.9-0.8,1.5-1.5,2.3-2.2c0.1-0.2,0.4-0.5,0.5-0.7
		c0.5-0.9,1.2-1.7,1.5-2.6c0.3-0.7,0.7-1.4,0.8-2.2c0.3-1.1,0.8-2.3,0.9-3.4c0-0.9,0.4-1.9,0.5-2.9c0-0.5,0-0.9,0-1.4
		c0.1-0.1,0-0.4,0.1-0.5c0.4-0.8,0.7-1.7,0.8-2.6c0-1.2,0-2.3-0.4-3.4c-0.3-1.1-0.6-2.1-1.3-2.9c-0.5-0.6-1.1-1.2-1.7-1.7
		c-0.4-0.3-1-0.5-1.6-0.6c-1.5,0-3.1,0.3-4.4,1.3c-0.5,0.4-1,0.7-1.5,1c-0.1,0.2-0.4,0.3-0.7,0.2c-0.5,0-1.1,0-1.6,0.5
		c-0.6,0.7-1.2,1.4-1.6,2.2c-0.4,0.6-0.7,1.3-1.1,2.1c-0.3,0.3-0.5,0.9-0.7,1.3c-0.8,1.9-1.5,3.8-2.3,5.7c-0.7,1.9-1.2,3.7-1,5.6
		C80.4,88.3,80.4,88.4,80.4,88.6z"/>
	<path class="st1" d="M105.9,95.9c1.2-0.3,2.3-0.7,3.3-1.5c0.3-0.2,0.5-0.4,0.8-0.6c3.6-4.2,3.2-3.2,3.4,0.8
		c0.1,0.3,0.2,0.6,0.5,0.8c0.5,0.6,1.2,0.9,1.9,1.2c0.3,0.1,0.8,0.2,1.2,0.1c0.1,0,0.3,0,0.4,0c0.9,0.1,1.6-0.3,2.2-1
		c0.9-1,1.8-2.1,2.6-3.1c0.7-0.9,1.2-1.8,1.8-2.7c0.3-0.5,0.5-0.9,0.9-1.4c0.1-0.2,0.2-0.4,0.3-0.6c0.1-0.4,0.4-0.7,0.7-1
		c0.4-0.3,0.5-0.5,0.5-0.9c0.1-0.3,0.1-0.8,0.6-1c0,0,0.1-0.2,0.1-0.3c0.4-0.9,0.9-1.9,1-2.8c0-0.1,0.1-0.2,0.2-0.3
		c0.1,0.3,0.1,0.5,0.2,0.8c0.3-0.7,0.3-1.2,0.7-1.8c0-0.1,0.1-0.2,0.1-0.3c0.1-0.5,0.3-0.9,0.5-1.4c0.1-0.3,0.1-0.7,0.1-1.1
		c0-0.2,0-0.5,0-0.7c0-0.3,0-0.6,0-0.9c0-0.2-0.2-0.3,0-0.6c0-0.1,0-0.2,0-0.3c-0.1-0.1,0-0.3,0-0.4c0.1-0.2,0-0.3,0.1-0.5
		c0.1-0.3-0.2-0.6-0.1-0.9c0-0.3-0.1-0.5-0.3-0.7c-0.1-0.1-0.2-0.3-0.1-0.5c0.1-0.4,0-0.7-0.2-0.9c-0.3-0.2-0.4-0.4-0.5-0.7
		c0-0.1,0-0.3-0.2-0.3c-0.3-0.2-0.5-0.4-0.7-0.6c-0.1-0.2-0.4-0.5-0.4-0.7c0-0.3-0.1-0.4-0.4-0.5c-0.1,0-0.2-0.1-0.3-0.1
		c-0.3-0.3-0.7-0.4-1.1-0.5c-0.6-0.2-1.2-0.3-1.8-0.6c-0.1,0-0.4,0.1-0.6,0.2c-0.1,0.2-0.2,0.3-0.2,0.4c0,0.1-0.1,0.3,0,0.4
		c0.1,0.3,0.2,0.6,0.4,0.9c0.1,0.3,0.2,0.5,0.7,0.4c0.3-0.1,0.5,0.1,0.7,0.3c0.1,0.3,0.1,0.4,0.1,0.7c0,0.7,0,1.4,0.1,2.2
		c0,1.5-0.2,3.1-0.5,4.7c-0.2,1.3-0.7,2.7-1.1,4c-0.3,0.9-0.8,2-1.2,3c-0.3,0.6-0.5,1.1-0.8,1.7c-1.6,3.6-6.9,11.9-4.7,3.1
		c0.2-1.2,0.6-2.5,1-3.7c0.4-1,0.9-2.2,1.1-3.2c0.1-0.4,0.3-0.8,0.5-1.2c0.4-0.6,0.5-1.3,0.7-1.9c0-0.1,0.1-0.2,0-0.3
		c-0.2-0.1,0-0.3,0-0.5c0-0.2,0.1-0.5,0-0.6c-0.2-0.2-0.3-0.4-0.3-0.7c0-0.5-0.4-0.6-0.8-0.6c-0.4-0.1-0.7-0.3-1.1-0.3
		c-0.5,0-0.9-0.3-1.5-0.1c-0.3,0.1-0.7,0.2-0.9,0.4c-0.4,0.5-0.7,1-0.8,1.5c-0.2,1-0.7,2-1.2,3c-0.5,1.2-1.1,2.4-1.8,3.6
		c-0.2,0.5-0.5,0.9-0.8,1.5c-0.1,0.1-0.2,0.3-0.3,0.3c-0.3,0.1-0.4,0.3-0.6,0.6c-2.6,4.9-4.4,5.4-3.4-0.8c0-0.4,0-0.7,0-1
		c0-0.6,0-1.1,0.1-1.6c0.2-1,0.3-2.1,0.5-3.1c0.2-1.2,0.5-2.3,0.7-3.5c0.1-0.8,0.2-1.5,0-2.1c-0.1-0.1-0.1-0.3-0.1-0.5
		c0-0.3-0.3-0.5-0.7-0.5c-0.5,0-0.9,0.1-1.4,0.2c0,0.1,0,0.2,0,0.2c0,0.9-0.1,1.8-0.4,2.8c-0.3,1.2-0.4,2.4-0.8,3.5
		c-0.8,2.2-1.4,4.5-2.1,6.7c-0.3,1.2-0.8,2.5-1.1,3.7c-0.4,1.3-0.4,2.6-0.1,3.9c0,0.3,0.2,0.5,0.5,0.6c0.4,0.3,0.9,0.4,1.5,0.3
		c0.8,0,1.5,0,2.2-0.1C105.7,95.9,105.8,95.9,105.9,95.9z"/>
	<path class="st1" d="M82.6,59.6c0,0.1,0,0.2,0,0.3l0.1,0.3c0,0.1,0,0.2,0,0.3c0,0.1,0,0.2,0,0.4l0.1,0.4c0,0.1,0.1,0.2,0.1,0.4
		c0,0.1,0,0.1,0.1,0.2c0,0,0,0.1,0.1,0.1c0,0,0,0,0,0c0,0,0,0,0,0c0,0,0,0,0.1,0c0,0,0,0,0,0c0,0,0,0,0.1,0c0,0,0,0,0.1,0l0.1,0h0
		l0,0c0,0,0,0,0.1,0c0,0,0.1,0,0.1,0c0.1,0,0.1,0,0.1,0c0,0,0.1,0,0.1,0c0,0,0,0,0.1,0c0,0,0.1,0,0.1,0c0,0,0,0,0.1,0c0,0,0,0,0.1,0
		c0,0,0,0,0,0c0,0,0,0,0,0c0,0,0,0,0,0c0,0,0,0,0,0c0,0,0.1-0.1,0.1-0.1c0,0,0-0.1,0-0.1c0-0.1,0-0.1,0-0.2c0-0.1,0-0.3,0-0.4l0-0.4
		c0-0.1,0-0.3,0.1-0.4c0-0.1,0-0.1,0-0.2c0-0.1,0-0.1-0.1-0.2c-0.1-0.1-0.1-0.2-0.1-0.4c0-0.1,0-0.3,0-0.4c0-0.1,0-0.3-0.1-0.4
		c0-0.1-0.1-0.2-0.1-0.3c0-0.1-0.1-0.2-0.1-0.3c0-0.1-0.1-0.2-0.1-0.3l0-0.3c0-0.1,0-0.2-0.1-0.2c0-0.1-0.1-0.1-0.1-0.2
		c-0.1-0.1-0.2-0.2-0.3-0.2c0,0,0,0,0,0c0,0,0,0,0,0c0,0,0,0,0,0c0,0,0,0,0,0c0,0,0,0,0,0h0c0,0,0,0,0,0l0,0c0,0,0,0,0,0
		c0,0,0,0-0.1,0c0,0-0.1,0-0.1,0c0,0-0.1,0-0.1,0c0,0-0.1,0-0.1,0c0,0,0,0,0,0c0,0,0,0,0,0c0,0,0,0,0,0c0,0,0,0,0,0l0,0.1
		c0,0,0,0,0,0c0,0-0.1-0.1-0.1-0.1c0,0,0,0,0,0c0,0,0,0,0,0c0,0,0,0,0,0c0,0-0.1,0.1-0.1,0.3c0,0,0,0.1-0.1,0.1
		c-0.1,0.1-0.1,0.2-0.1,0.3c0,0.1-0.1,0.2-0.1,0.3c0,0.1,0,0.2,0,0.3c0,0.1,0,0.2,0,0.3l0,0.2c0,0.1,0,0.2,0,0.4l0,0.2l0,0.1l0,0.1
		C82.6,59.4,82.6,59.5,82.6,59.6z M84,59.7c0,0.1,0,0.1,0.1,0.2c0,0.1,0,0.1,0,0.2c0,0.1,0,0.2-0.1,0.3C84,60.1,84,59.8,84,59.7
		C84,59.6,84,59.6,84,59.7z M84,60.8c0,0.1,0,0.1,0,0.2c0,0,0,0.1,0,0.1C84,61,84,60.9,84,60.8z"/>
	<path class="st1" d="M117.8,62.4c0-0.1,0-0.1-0.1-0.2c-0.1-0.1-0.1-0.2-0.1-0.4c0-0.1,0-0.3,0-0.4c0-0.1,0-0.3-0.1-0.4
		c0-0.1-0.1-0.2-0.1-0.3c0-0.1-0.1-0.2-0.1-0.3c0-0.1-0.1-0.2-0.1-0.3l0-0.3c0-0.1,0-0.2-0.1-0.2c0-0.1-0.1-0.1-0.1-0.2
		c-0.1-0.1-0.2-0.2-0.3-0.2c0,0,0,0,0,0c0,0,0,0,0,0c0,0,0,0,0,0c0,0,0,0,0,0c0,0,0,0,0,0h0c0,0,0,0,0,0l0,0c0,0,0,0,0,0
		c0,0,0,0-0.1,0c0,0-0.1,0-0.1,0c0,0-0.1,0-0.1,0c0,0-0.1,0-0.1,0c0,0,0,0,0,0c0,0,0,0,0,0c0,0,0,0,0,0c0,0,0,0,0,0l0,0.1
		c0,0,0,0,0,0c0,0-0.1-0.1-0.1-0.1c0,0,0,0,0,0c0,0,0,0,0,0c0,0,0,0,0,0c0,0-0.1,0.1-0.1,0.3c0,0,0,0.1-0.1,0.1
		c-0.1,0.1-0.1,0.2-0.1,0.3c0,0.1-0.1,0.2-0.1,0.3c0,0.1,0,0.2,0,0.3c0,0.1,0,0.2,0,0.3l0,0.2c0,0.1,0,0.2,0,0.4l0,0.2l0,0.1l0,0.1
		c0,0.1,0,0.2,0,0.3c0,0.1,0,0.2,0,0.3l0.1,0.3c0,0.1,0,0.2,0,0.3c0,0.1,0,0.2,0,0.4l0.1,0.4c0,0.1,0.1,0.2,0.1,0.4
		c0,0.1,0,0.1,0.1,0.2c0,0,0,0.1,0.1,0.1c0,0,0,0,0,0c0,0,0,0,0,0c0,0,0,0,0.1,0c0,0,0,0,0,0c0,0,0,0,0.1,0c0,0,0,0,0.1,0l0.1,0l0,0
		l0,0c0,0,0,0,0.1,0c0,0,0.1,0,0.1,0c0.1,0,0.1,0,0.1,0c0,0,0.1,0,0.1,0c0,0,0,0,0.1,0c0,0,0.1,0,0.1,0c0,0,0,0,0.1,0c0,0,0,0,0.1,0
		c0,0,0,0,0,0c0,0,0,0,0,0c0,0,0,0,0,0c0,0,0,0,0,0c0,0,0.1-0.1,0.1-0.1c0,0,0-0.1,0-0.1c0-0.1,0-0.1,0-0.2c0-0.1,0-0.3,0-0.4l0-0.4
		c0-0.1,0-0.3,0.1-0.4C117.8,62.5,117.8,62.4,117.8,62.4z M117.3,63.6c0,0,0,0.1,0,0.1c0-0.1,0-0.2,0-0.3
		C117.3,63.5,117.3,63.5,117.3,63.6z M117.3,62.7c0,0.1,0,0.2-0.1,0.3c0-0.2,0-0.5,0-0.8c0,0,0,0.1,0,0.1c0,0.1,0,0.1,0.1,0.2
		C117.3,62.6,117.3,62.6,117.3,62.7z"/>
	<path class="st1" d="M127.1,104.6c0-0.1,0-0.3,0.1-0.4c0-0.1,0-0.3,0-0.4c0-0.1,0-0.2-0.1-0.4c0-0.1,0-0.2-0.1-0.3
		c0-0.1-0.1-0.2-0.1-0.3l0-0.3c0-0.1,0-0.2-0.1-0.2c0-0.1-0.1-0.1-0.1-0.2c-0.1-0.1-0.2-0.2-0.3-0.3c0,0,0,0,0,0c0,0,0,0,0,0
		c0,0,0,0,0,0c0,0,0,0,0,0c0,0,0,0,0,0h0c0,0,0,0,0,0l0,0c0,0,0,0,0,0c0,0,0,0-0.1,0c0,0-0.1,0-0.1,0c0,0-0.1,0-0.1,0
		c0,0-0.1,0-0.1,0c0,0,0,0,0,0c0,0,0,0,0,0c0,0,0,0,0,0c0,0,0,0,0,0l0,0.1c0,0,0,0,0,0c0,0-0.1-0.1-0.1-0.1c0,0,0,0,0,0c0,0,0,0,0,0
		c0,0,0,0,0,0c-0.1,0-0.1,0.1-0.1,0.4c0,0,0,0.1-0.1,0.1c-0.1,0.1-0.1,0.2-0.2,0.3c0,0.1-0.1,0.2-0.1,0.3c0,0.1,0,0.2-0.1,0.3
		c0,0.1,0,0.2-0.1,0.4l0,0.3c0,0.1,0,0.2,0,0.4l0,0.2l0,0.1l0,0.1c0,0.1,0,0.2,0,0.3c0,0.1,0,0.2,0,0.3l0.1,0.3c0,0.1,0,0.2,0,0.3
		c0,0.1,0,0.3,0,0.4l0.1,0.4c0,0.1,0,0.3,0.1,0.4c0,0.1,0,0.1,0.1,0.2c0,0,0,0.1,0,0.1c0,0,0,0,0,0c0,0,0,0,0,0c0,0,0,0,0.1,0
		c0,0,0,0,0,0c0,0,0,0,0.1,0c0,0,0.1,0,0.1,0l0.1,0l0,0h0c0,0,0,0,0.1,0c0,0,0.1,0,0.1,0c0.1,0,0.1,0,0.1,0c0,0,0.1,0,0.1,0
		c0,0,0,0,0.1,0c0,0,0.1,0,0.1,0c0,0,0,0,0.1,0c0,0,0.1,0,0.1,0c0,0,0,0,0,0c0,0,0,0,0,0c0,0,0,0,0,0c0,0,0,0,0,0
		c0,0,0.1-0.1,0.1-0.1c0,0,0-0.1,0-0.1c0-0.1,0-0.1,0.1-0.2c0-0.1,0.1-0.3,0.1-0.4l0-0.5c0-0.1,0.1-0.3,0.1-0.5c0-0.1,0-0.2,0-0.2
		c0-0.1,0-0.2,0-0.2C127.1,104.9,127,104.7,127.1,104.6z M126.5,106.5c0,0,0,0.1,0,0.1c0-0.1,0-0.2,0-0.3
		C126.6,106.3,126.6,106.4,126.5,106.5z M126.7,105.5c0,0.1-0.1,0.2-0.1,0.3c0-0.3,0-0.5,0-0.8c0,0,0,0.1,0,0.1c0,0.1,0,0.1,0,0.2
		C126.7,105.4,126.7,105.5,126.7,105.5z"/>
</g>
<g>
	<path id="XMLID_3_" class="st1" d="M113.1,39.9c-0.5,0.7-1.1,1.4-1.8,1.9c-1,0.7-2.4-0.1-3.3-0.7c-2.1-1.4-3.6-3.7-4.1-6.1
		c-0.1-0.6-0.2-1.3,0-1.9c0.3-0.8,1.1-1.3,1.9-1.4c2-0.3,3.1,1.2,4,2.7c-0.1-0.1,0.5-1,0.6-1.1c0.2-0.4,0.4-0.8,0.7-1.1
		c0.8-1,2.1-1.3,3.2-0.6c0.9,0.6,1.1,1.9,1,2.9c-0.1,1.5-0.8,2.9-1.5,4.2C113.6,39.1,113.4,39.5,113.1,39.9z"/>
	<path id="XMLID_2_" class="st1" d="M102.4,51.2c-0.3,0.5-0.7,0.9-1.2,1.2c-0.6,0.4-1.5,0-2.1-0.4c-1.3-0.9-2.3-2.3-2.6-3.8
		c-0.1-0.4-0.1-0.8,0-1.2c0.2-0.5,0.7-0.8,1.2-0.9c1.2-0.2,2,0.7,2.5,1.7c0-0.1,0.3-0.6,0.4-0.7c0.1-0.2,0.3-0.5,0.5-0.7
		c0.5-0.6,1.3-0.8,2-0.4c0.6,0.4,0.7,1.2,0.6,1.8c-0.1,0.9-0.5,1.8-0.9,2.6C102.7,50.7,102.5,51,102.4,51.2z"/>
</g>
</svg>
