<?xml version="1.0" encoding="utf-8"?>
<!-- Generator: Adobe Illustrator 21.0.0, SVG Export Plug-In . SVG Version: 6.00 Build 0)  -->
<svg version="1.1" id="Layer_1" xmlns="http://www.w3.org/2000/svg" xmlns:xlink="http://www.w3.org/1999/xlink" x="0px" y="0px"
	 viewBox="0 0 160 145" style="enable-background:new 0 0 160 145;" xml:space="preserve">
<style type="text/css">
	.st0{fill:#CB5990;}
	.st1{fill:#FFFFFF;}
	.st2{fill:#12B6BF;}
	.st3{fill:url(#SVGID_1_);}
	.st4{fill:#455BA8;}
	.st5{fill:#326EB6;}
	.st6{fill:#DD5968;}
	.st7{fill:#EF537A;}
	.st8{fill:url(#SVGID_2_);}
	.st9{fill:url(#SVGID_3_);}
	.st10{fill:url(#SVGID_4_);}
	.st11{fill:url(#SVGID_5_);}
	.st12{fill:#F16443;}
	.st13{fill:url(#SVGID_6_);}
	.st14{fill:#F68E3F;}
	.st15{fill:url(#SVGID_7_);}
	.st16{fill:url(#SVGID_8_);}
	.st17{fill:url(#SVGID_9_);}
	.st18{fill:url(#SVGID_10_);}
	.st19{fill:url(#SVGID_11_);}
	.st20{fill:url(#SVGID_12_);}
	.st21{fill:url(#SVGID_13_);}
	.st22{fill:url(#SVGID_14_);}
	.st23{fill:url(#SVGID_15_);}
	.st24{fill:url(#SVGID_16_);}
	.st25{fill:url(#SVGID_17_);}
	.st26{fill:#3DB66D;}
	.st27{fill:url(#SVGID_18_);}
	.st28{fill:url(#SVGID_19_);}
	.st29{fill:url(#SVGID_20_);}
	.st30{fill:url(#SVGID_21_);}
	.st31{fill:url(#SVGID_22_);}
	.st32{fill:url(#SVGID_23_);}
	.st33{fill:url(#SVGID_24_);}
	.st34{fill:url(#SVGID_25_);}
	.st35{fill:url(#SVGID_26_);}
	.st36{fill:url(#SVGID_27_);}
	.st37{fill:url(#SVGID_28_);}
	.st38{fill:url(#SVGID_29_);}
	.st39{fill:url(#SVGID_30_);}
	.st40{fill:url(#SVGID_31_);}
	.st41{fill:url(#SVGID_32_);}
	.st42{fill:url(#SVGID_33_);}
	.st43{fill:url(#SVGID_34_);}
	.st44{fill:url(#SVGID_35_);}
	.st45{fill:url(#SVGID_36_);}
	.st46{fill:url(#SVGID_37_);}
	.st47{fill:url(#SVGID_38_);}
	.st48{fill:url(#SVGID_39_);}
	.st49{fill:url(#SVGID_40_);}
	.st50{fill:url(#SVGID_41_);}
	.st51{fill:url(#SVGID_42_);}
	.st52{fill:url(#SVGID_43_);}
	.st53{fill:url(#SVGID_44_);}
	.st54{fill:url(#SVGID_45_);}
	.st55{fill:url(#SVGID_46_);}
	.st56{fill:url(#SVGID_47_);}
	.st57{fill:url(#SVGID_48_);}
	.st58{fill:url(#SVGID_49_);}
	.st59{fill:url(#SVGID_50_);}
	.st60{fill:url(#SVGID_51_);}
	.st61{fill:url(#SVGID_52_);}
	.st62{fill:url(#SVGID_53_);}
	.st63{fill:url(#SVGID_54_);}
	.st64{fill:url(#SVGID_55_);}
	.st65{fill:url(#SVGID_56_);}
	.st66{fill:url(#SVGID_57_);}
	.st67{fill:url(#SVGID_58_);}
	.st68{fill:url(#SVGID_59_);}
	.st69{fill:url(#SVGID_60_);}
	.st70{fill:url(#SVGID_61_);}
	.st71{fill:url(#SVGID_62_);}
	.st72{fill:url(#SVGID_63_);}
	.st73{fill:url(#SVGID_64_);}
	.st74{fill:url(#SVGID_65_);}
	.st75{fill:url(#SVGID_66_);}
	.st76{fill:url(#SVGID_67_);}
	.st77{fill:url(#SVGID_68_);}
	.st78{fill:url(#SVGID_69_);}
	.st79{fill:url(#SVGID_70_);}
	.st80{fill:url(#SVGID_71_);}
	.st81{fill:url(#SVGID_72_);}
	.st82{fill:url(#SVGID_73_);}
	.st83{fill:url(#SVGID_74_);}
	.st84{fill:url(#SVGID_75_);}
	.st85{fill:url(#SVGID_76_);}
	.st86{fill:url(#SVGID_77_);}
	.st87{fill:url(#SVGID_78_);}
	.st88{fill:url(#SVGID_79_);}
	.st89{fill:url(#SVGID_80_);}
	.st90{fill:url(#SVGID_81_);}
	.st91{fill:url(#SVGID_82_);}
	.st92{fill:url(#SVGID_83_);}
	.st93{fill:url(#SVGID_84_);}
	.st94{fill:url(#SVGID_85_);}
	.st95{fill:url(#SVGID_86_);}
	.st96{fill:url(#SVGID_87_);}
	.st97{fill:url(#SVGID_88_);}
	.st98{fill:url(#SVGID_89_);}
	.st99{fill:url(#SVGID_90_);}
	.st100{fill:url(#SVGID_91_);}
	.st101{fill:url(#SVGID_92_);}
	.st102{fill:url(#SVGID_93_);}
	.st103{fill:url(#SVGID_94_);}
	.st104{fill:url(#SVGID_95_);}
	.st105{fill:url(#SVGID_96_);}
	.st106{fill:url(#SVGID_97_);}
	.st107{fill:url(#SVGID_98_);}
	.st108{fill:url(#SVGID_99_);}
	.st109{fill:url(#SVGID_100_);}
	.st110{fill:url(#SVGID_101_);}
	.st111{fill:url(#SVGID_102_);}
	.st112{fill:url(#SVGID_103_);}
	.st113{fill:url(#SVGID_104_);}
	.st114{fill:url(#SVGID_105_);}
	.st115{fill:url(#SVGID_106_);}
	.st116{fill:url(#SVGID_107_);}
	.st117{fill:url(#SVGID_108_);}
	.st118{fill:url(#SVGID_109_);}
	.st119{fill:url(#SVGID_110_);}
	.st120{fill:url(#SVGID_111_);}
	.st121{fill:url(#SVGID_112_);}
	.st122{fill:url(#SVGID_113_);}
	.st123{fill:url(#SVGID_114_);}
	.st124{fill:url(#SVGID_115_);}
	.st125{fill:url(#SVGID_116_);}
	.st126{fill:url(#SVGID_117_);}
	.st127{fill:url(#SVGID_118_);}
	.st128{fill:url(#SVGID_119_);}
	.st129{fill:url(#SVGID_120_);}
	.st130{fill:url(#SVGID_121_);}
	.st131{fill:url(#SVGID_122_);}
	.st132{fill:url(#SVGID_123_);}
	.st133{fill:url(#SVGID_124_);}
	.st134{fill:url(#SVGID_125_);}
	.st135{fill:url(#SVGID_126_);}
	.st136{fill:url(#SVGID_127_);}
	.st137{fill:#184054;}
	.st138{fill:url(#SVGID_128_);}
	.st139{fill:url(#SVGID_129_);}
	.st140{fill:url(#SVGID_130_);}
	.st141{fill:url(#SVGID_131_);}
	.st142{fill:url(#SVGID_132_);}
	.st143{fill:url(#SVGID_133_);}
	.st144{fill:url(#SVGID_134_);}
	.st145{fill:url(#SVGID_135_);}
	.st146{fill:url(#SVGID_136_);}
	.st147{fill:url(#SVGID_137_);}
	.st148{fill:url(#SVGID_138_);}
	.st149{fill:url(#SVGID_139_);}
	.st150{fill:url(#SVGID_140_);}
	.st151{fill:url(#SVGID_141_);}
	.st152{fill:url(#SVGID_142_);}
	.st153{fill:url(#SVGID_143_);}
	.st154{fill:url(#SVGID_144_);}
	.st155{fill:url(#SVGID_145_);}
	.st156{fill:url(#SVGID_146_);}
	.st157{fill:url(#SVGID_147_);}
	.st158{fill:url(#SVGID_148_);}
	.st159{fill:url(#SVGID_149_);}
	.st160{fill:url(#SVGID_150_);}
	.st161{fill:url(#SVGID_151_);}
	.st162{fill:url(#SVGID_152_);}
	.st163{fill:url(#SVGID_153_);}
	.st164{fill:url(#SVGID_154_);}
	.st165{fill:url(#SVGID_155_);}
	.st166{fill:url(#SVGID_156_);}
	.st167{fill:url(#SVGID_157_);}
	.st168{fill:url(#SVGID_158_);}
	.st169{fill:url(#SVGID_159_);}
	.st170{fill:url(#SVGID_160_);}
	.st171{fill:url(#SVGID_161_);}
	.st172{fill:url(#SVGID_162_);}
	.st173{fill:url(#SVGID_163_);}
	.st174{fill:url(#SVGID_164_);}
	.st175{fill:url(#SVGID_165_);}
	.st176{fill:url(#SVGID_166_);}
	.st177{fill:url(#SVGID_167_);}
	.st178{fill:url(#SVGID_168_);}
	.st179{fill:url(#SVGID_169_);}
	.st180{fill:url(#SVGID_170_);}
	.st181{fill:url(#SVGID_171_);}
	.st182{fill:url(#SVGID_172_);}
	.st183{fill:url(#SVGID_173_);}
	.st184{fill:url(#SVGID_174_);}
	.st185{fill:url(#SVGID_175_);}
	.st186{fill:url(#SVGID_176_);}
	.st187{fill:url(#SVGID_177_);}
	.st188{fill:url(#SVGID_178_);}
	.st189{fill:url(#SVGID_179_);}
	.st190{fill:url(#SVGID_180_);}
	.st191{fill:url(#SVGID_181_);}
	.st192{fill:url(#SVGID_182_);}
	.st193{fill:url(#SVGID_183_);}
	.st194{fill:url(#SVGID_184_);}
	.st195{fill:url(#SVGID_185_);}
	.st196{fill:url(#SVGID_186_);}
	.st197{fill:url(#SVGID_187_);}
	.st198{fill:url(#SVGID_188_);}
	.st199{fill:url(#SVGID_189_);}
	.st200{fill:url(#SVGID_190_);}
	.st201{fill:url(#SVGID_191_);}
	.st202{fill:url(#SVGID_192_);}
	.st203{fill:url(#SVGID_193_);}
	.st204{fill:url(#SVGID_194_);}
	.st205{fill:url(#SVGID_195_);}
	.st206{fill:url(#SVGID_196_);}
	.st207{fill:url(#SVGID_197_);}
	.st208{fill:url(#SVGID_198_);}
	.st209{fill:url(#SVGID_199_);}
	.st210{fill:url(#SVGID_200_);}
	.st211{fill:url(#SVGID_201_);}
	.st212{fill:url(#SVGID_202_);}
	.st213{fill:url(#SVGID_203_);}
	.st214{fill:url(#SVGID_204_);}
	.st215{fill:url(#SVGID_205_);}
	.st216{fill:url(#SVGID_206_);}
	.st217{fill:url(#SVGID_207_);}
	.st218{fill:url(#SVGID_208_);}
	.st219{fill:#969697;}
	.st220{fill:url(#SVGID_209_);}
	.st221{fill:url(#SVGID_210_);}
	.st222{fill:url(#SVGID_211_);}
	.st223{fill:url(#SVGID_212_);}
	.st224{fill:url(#SVGID_213_);}
	.st225{fill:url(#SVGID_214_);}
	.st226{fill:url(#SVGID_215_);}
	.st227{fill:url(#SVGID_216_);}
	.st228{fill:url(#SVGID_217_);}
	.st229{fill:url(#SVGID_218_);}
	.st230{fill:url(#SVGID_219_);}
	.st231{fill:url(#SVGID_220_);}
	.st232{fill:url(#SVGID_221_);}
	.st233{fill:url(#SVGID_222_);}
	.st234{fill:url(#SVGID_223_);}
	.st235{fill:url(#SVGID_224_);}
	.st236{fill:url(#SVGID_225_);}
	.st237{fill:url(#SVGID_226_);}
	.st238{fill:url(#SVGID_227_);}
	.st239{fill:url(#SVGID_228_);}
	.st240{fill:url(#SVGID_229_);}
	.st241{fill:url(#SVGID_230_);}
	.st242{fill:url(#SVGID_231_);}
	.st243{fill:url(#SVGID_232_);}
	.st244{fill:url(#SVGID_233_);}
	.st245{fill:url(#SVGID_234_);}
	.st246{fill:url(#SVGID_235_);}
	.st247{fill:url(#SVGID_236_);}
	.st248{fill:url(#SVGID_237_);}
	.st249{fill:url(#SVGID_238_);}
	.st250{fill:url(#SVGID_239_);}
	.st251{fill:url(#SVGID_240_);}
	.st252{fill:url(#SVGID_241_);}
	.st253{fill:url(#SVGID_242_);}
	.st254{fill:url(#SVGID_243_);}
	.st255{fill:url(#SVGID_244_);}
	.st256{fill:url(#SVGID_245_);}
	.st257{fill:url(#SVGID_246_);}
	.st258{fill:url(#SVGID_247_);}
	.st259{fill:url(#SVGID_248_);}
	.st260{fill:url(#SVGID_249_);}
	.st261{fill:url(#SVGID_250_);}
	.st262{fill:url(#SVGID_251_);}
	.st263{fill:url(#SVGID_252_);}
	.st264{fill:url(#SVGID_253_);}
	.st265{fill:url(#SVGID_254_);}
	.st266{fill:url(#SVGID_255_);}
	.st267{fill:url(#SVGID_256_);}
	.st268{fill:url(#SVGID_257_);}
	.st269{fill:url(#SVGID_258_);}
	.st270{fill:url(#SVGID_259_);}
	.st271{fill:url(#SVGID_260_);}
	.st272{fill:url(#SVGID_261_);}
	.st273{fill:url(#SVGID_262_);}
	.st274{fill:url(#SVGID_263_);}
	.st275{fill:url(#SVGID_264_);}
	.st276{fill:url(#SVGID_265_);}
	.st277{fill:url(#SVGID_266_);}
	.st278{fill:url(#SVGID_267_);}
	.st279{fill:#F69474;}
	.st280{fill:#F27350;}
	.st281{fill:url(#SVGID_268_);}
	.st282{fill:url(#SVGID_269_);}
	.st283{fill:url(#SVGID_270_);}
	.st284{fill:url(#SVGID_271_);}
	.st285{fill:url(#SVGID_272_);}
	.st286{fill:url(#SVGID_273_);}
	.st287{fill:url(#SVGID_274_);}
	.st288{fill:url(#SVGID_275_);}
	.st289{fill:url(#SVGID_276_);}
	.st290{fill:url(#SVGID_277_);}
	.st291{fill:url(#SVGID_278_);}
	.st292{fill:url(#SVGID_279_);}
	.st293{fill:url(#SVGID_280_);}
	.st294{fill:url(#SVGID_281_);}
	.st295{fill:url(#SVGID_282_);}
	.st296{fill:url(#SVGID_283_);}
	.st297{fill:url(#SVGID_284_);}
	.st298{fill:url(#SVGID_285_);}
	.st299{fill:url(#SVGID_286_);}
	.st300{fill:url(#SVGID_287_);}
	.st301{fill:url(#SVGID_288_);}
	.st302{fill:url(#SVGID_289_);}
	.st303{fill:url(#SVGID_290_);}
	.st304{fill:url(#SVGID_291_);}
	.st305{fill:url(#SVGID_292_);}
	.st306{fill:url(#SVGID_293_);}
</style>
<g>
	<linearGradient id="SVGID_1_" gradientUnits="userSpaceOnUse" x1="18.973" y1="72.5" x2="141.027" y2="72.5">
		<stop  offset="0" style="stop-color:#EF537A"/>
		<stop  offset="1" style="stop-color:#4A3D97"/>
	</linearGradient>
	<path class="st3" d="M141,92.5c-0.1-0.4-0.4-0.8-0.9-0.9c-1.2-0.2-2.4-0.3-3.6-0.4c0.1-2.2,0.1-4.3,0-6.5c1,0,2,0.1,2.9-0.3
		c0.5-0.2,0.6-0.6,0.5-1c-0.1-0.4-0.5-0.7-1-0.8c-0.9,0-1.7,0-2.6,0c-0.2-2.5-0.6-5-1.2-7.4c-0.7-2.8-1.5-5.4-2.8-7.7
		c-0.4-0.7-0.7-1.2-1-1.5c0,0,0.1-0.1,0.1-0.1c0.8-0.8,1.4-1.6,1.9-2.6c0.2-0.5,0.4-1,0.5-1.6c0.1-0.6,0.2-1.2,0-1.8
		c-0.1-0.3-0.2-0.6-0.4-0.9c-0.2-0.3-0.5-0.5-0.8-0.6c-0.3-0.1-0.7-0.2-1-0.2c-0.3,0-0.6,0.1-0.9,0.1c-0.5,0.1-0.9,0.3-1.3,0.5
		c0.2-0.5,0.5-1.1,0.7-1.7c0.2-0.6,0.4-1.2,0.5-1.8c0-0.3,0.1-0.7,0-1c0-0.3-0.1-0.7-0.3-1c0,0,0-0.1-0.1-0.1l0-0.1l0-0.1
		c0-0.1-0.1-0.2-0.1-0.2c-0.1-0.1-0.2-0.3-0.4-0.4c-0.3-0.3-0.6-0.4-1-0.5c-0.4-0.1-0.7,0-1.1,0.1c-0.3,0.1-0.6,0.2-0.9,0.4
		c-0.5,0.3-1,0.7-1.4,1c0,0,0-0.1,0-0.1c0.2-0.7,0.4-1.3,0.6-2c0.2-0.7,0.3-1.4,0.3-2.2c0-0.4,0-0.8-0.1-1.1
		c-0.1-0.4-0.3-0.7-0.5-1.1c-0.2-0.3-0.4-0.6-0.8-0.9c-0.2-0.1-0.4-0.2-0.6-0.3c-0.2-0.1-0.5-0.1-0.7-0.1c-0.5,0.1-0.8,0.3-1.1,0.5
		c-0.3,0.3-0.5,0.5-0.7,0.8c-0.4,0.6-0.7,1.3-1,1.9c-0.2,0.4-0.3,0.8-0.4,1.2c-2.5-2.8-5.2-5.3-8.2-7.5c-2.3-1.7-4.8-3.3-7.4-4.6
		c0-0.1,0-0.1,0-0.2c0.1,0,0.1-0.2,0-0.4c0-0.1-0.1-0.2-0.1-0.2c-0.6-3.3-1.7-6.5-3.1-9.6c-0.8-1.7-1.7-3.4-2.6-5
		c-1-1.6-2-3.2-3.2-4.6c-0.3-0.4-0.6-0.7-0.9-1.1c-0.2-0.2-0.3-0.4-0.5-0.5c-0.2-0.2-0.3-0.4-0.5-0.5c-0.1,0-0.1-0.1-0.2-0.2
		l-0.1-0.1l-0.1-0.1c-0.1-0.1-0.2-0.2-0.4-0.2c-0.3-0.1-0.5-0.3-0.8-0.3c-0.3-0.1-0.6-0.1-1-0.1c-0.3,0-0.6,0.1-0.9,0.3
		c-0.6,0.3-1,0.7-1.3,1.1c-0.3,0.4-0.6,0.8-0.8,1.3c-0.5,0.9-0.8,1.8-1.1,2.7c-0.6,1.8-1,3.7-1.4,5.5c-0.1,0.5-0.2,0.9-0.2,1.4
		c-0.4,1.6-0.6,3.3-0.8,4.9l0.2,0c0,0,0,0,0,0c-2.1-0.2-4.3-0.3-6.4-0.2c-2.3,0-4.5,0.2-6.8,0.6l0-0.7v0c0-0.1,0-0.1,0-0.2
		c-0.3-1.8-0.7-3.6-1.1-5.4c-0.2-0.6-0.3-1.3-0.6-1.9c-0.3-1.1-0.6-2.1-1-3.1c-0.3-0.9-0.7-1.8-1.2-2.7c-0.2-0.4-0.5-0.9-0.8-1.3
		c-0.3-0.4-0.7-0.8-1.3-1.2c-0.3-0.2-0.6-0.3-0.9-0.4c-0.3-0.1-0.7-0.1-1-0.1c-0.3,0-0.7,0.1-1,0.3c-0.3,0.1-0.5,0.3-0.8,0.5
		l-0.1,0.1l0,0L62,16.6c-0.1,0.1-0.1,0.1-0.2,0.2c-0.1,0.1-0.2,0.2-0.3,0.3c-0.2,0.2-0.3,0.4-0.5,0.6c-0.3,0.4-0.6,0.8-0.9,1.2
		c-1.1,1.6-2.1,3.2-3.1,4.8c-0.9,1.7-1.8,3.4-2.5,5.2c-1.5,3.5-2.5,7.3-2.9,11.1c-2.2,1.3-4.3,2.8-6.2,4.4c-2.6,2.1-5,4.4-7.1,6.9
		c-0.1-0.5-0.3-0.9-0.5-1.3c-0.2-0.3-0.4-0.7-0.6-1c-0.2-0.3-0.5-0.6-0.9-0.9c-0.4-0.3-0.8-0.5-1.3-0.6c-0.3,0-0.5,0-0.8,0
		c-0.3,0-0.5,0.1-0.8,0.2c-0.5,0.2-0.8,0.6-1.1,0.9c-0.1,0.2-0.2,0.3-0.4,0.5L32,49.2c0,0,0,0.1-0.1,0.1c-0.1,0.1-0.1,0.2-0.1,0.3
		c-0.2,0.4-0.3,0.8-0.3,1.2c0,0.4,0,0.8,0,1.2c0.1,0.8,0.3,1.5,0.5,2.1c0,0,0,0.1,0,0.1c0,0-0.1,0-0.1,0c-0.5-0.2-1-0.4-1.6-0.4
		c-0.3,0-0.7,0-1,0.2c-0.3,0.1-0.6,0.3-0.9,0.5c-0.2,0.2-0.4,0.5-0.6,0.7c0,0.1-0.1,0.1-0.1,0.2l0,0.1l-0.1,0.1
		c-0.1,0.2-0.1,0.3-0.2,0.4c-0.2,0.6-0.2,1.2-0.1,1.7c0.1,0.5,0.2,1,0.3,1.4c0.1,0.4,0.3,0.8,0.5,1.2c-0.4-0.1-0.9-0.1-1.4,0
		c-0.3,0.1-0.7,0.2-1,0.4c-0.3,0.2-0.6,0.5-0.8,0.9c-0.2,0.3-0.3,0.7-0.3,1c0,0.3-0.1,0.6,0,0.9c0.1,0.6,0.2,1.1,0.4,1.5
		c0.4,0.9,1,1.7,1.6,2.3c0.5,0.5,1,0.8,1.4,0.9c0,0.1-0.1,0.1-0.1,0.2c-0.4,1-0.8,2-1.1,3c-0.3,1-0.6,2-0.8,3.1
		c-0.5,2.1-0.8,4.1-1.1,6.2c-0.2,1.5-0.3,3.1-0.4,4.6c-1.2,0-2.5,0.1-3.7,0.2c-0.6,0-1,0.4-1,0.8c-0.1,0.4,0.1,0.8,0.6,1
		c1.3,0.5,2.6,0.2,4,0.1c0,0,0,0,0.1,0c0,2,0.1,3.9,0.3,5.9c0,0.2,0,0.4,0.1,0.6c-1.6,0.2-3.2,0.4-4.8,0.7c-0.6,0.1-0.9,0.5-1,0.9
		c-0.1,0.4,0.2,0.8,0.7,0.9c1.3,0.3,2.6-0.1,4-0.3c0.5-0.1,0.9-0.1,1.4-0.2c0.3,2,0.7,4,1.2,5.9c-1.8,0.4-3.5,0.8-5.2,1.3
		c-0.5,0.2-0.8,0.6-0.9,1c0,0.4,0.2,0.8,0.7,0.9c1.3,0.2,2.5-0.3,3.8-0.7c0.7-0.2,1.4-0.4,2.1-0.5c0.2,0.6,0.4,1.2,0.6,1.8
		c0.7,2,1.7,3.9,2.8,5.7c1.1,1.8,2.5,3.4,4,4.9c1.5,1.5,3.1,2.8,4.9,3.9c1.7,1.1,3.6,2.1,5.5,3c3.8,1.7,7.8,3,11.8,3.9
		c4,0.9,8.1,1.6,12.2,2.1c2.1,0.2,4.1,0.4,6.2,0.6l0.8,0.1l0.4,0c0.1,0,0.3,0,0.4,0c0.5,0,1,0,1.6,0c1,0,2.1,0,3.1,0
		c1.1,0,2.2,0,3.3-0.1c0.6,0,1.1,0,1.7-0.1c0.1,0,0.3,0,0.4,0l0.4,0l0.8-0.1c2.2-0.3,4.4-0.5,6.6-0.9c4.4-0.7,8.8-1.6,13.1-2.9
		c4.3-1.3,8.5-2.9,12.5-5.2c2-1.2,3.8-2.5,5.6-4c1.7-1.5,3.3-3.2,4.7-5.1c1.4-2,2.5-4.1,3.4-6.4c0.2-0.6,0.4-1.1,0.6-1.7
		c0.1-0.3,0.2-0.6,0.3-0.9c0.1-0.3,0.2-0.6,0.2-0.9c0-0.1,0.1-0.2,0.1-0.3c0.4,0.1,0.9,0.2,1.3,0.3c1.2,0.3,2.4,0.7,3.6,0.5
		c0.5-0.1,0.7-0.5,0.6-0.9c0-0.4-0.3-0.8-0.8-1c-1.4-0.4-2.8-0.7-4.2-0.9c0.1-0.4,0.2-0.8,0.3-1.2c0.3-1.6,0.5-3.2,0.7-4.8
		c0.2,0,0.3,0,0.5,0.1c1.3,0.2,2.5,0.5,3.7,0.1C140.9,93.3,141.1,92.9,141,92.5z"/>
	<linearGradient id="SVGID_2_" gradientUnits="userSpaceOnUse" x1="25.5714" y1="81.0121" x2="134.4589" y2="81.0121">
		<stop  offset="0" style="stop-color:#F05B42"/>
		<stop  offset="1" style="stop-color:#F9A54F"/>
	</linearGradient>
	<path class="st8" d="M133.9,95.6c-0.2,1.1-0.4,2.2-0.6,3.3c-1.8-0.3-3.5-0.5-5.3-0.6c-1.9-0.2-3.8-0.3-5.7-0.4l-0.7,0l-0.4,0
		l-0.1,0l-0.1,0l-0.2,0c0,0-16.9-1.2-24.5-0.5c-0.1,0-0.1,0.2,0,0.2c7.3,0.3,24.1,1.9,24.1,1.9l0.6,0.1c0,0,2.2,0.2,3.1,0.3
		c2,0.2,3.9,0.4,5.9,0.7c0.9,0.1,1.8,0.3,2.7,0.4c-0.1,0.3-0.2,0.7-0.3,1c-0.6,2-1.4,4-2.4,5.8c-1,1.8-2.2,3.5-3.6,5.1
		c-1.4,1.5-3,2.9-4.7,4.2c-3.4,2.5-7.2,4.3-11.2,5.8c-4,1.5-8.1,2.5-12.3,3.4c-2.1,0.4-4.2,0.8-6.3,1.1c-1.1,0.2-2.1,0.3-3.2,0.4
		l-1.6,0.2l-0.8,0.1l-0.4,0c-0.1,0-0.2,0-0.4,0c-1,0.1-2.1,0.1-3.2,0.1c-1.1,0-2.1,0.1-3.2,0.1l-1.6,0c-0.5,0-1.1,0-1.6,0l-0.2,0
		l-0.2,0l-0.4,0l-0.8-0.1l-1.6-0.1c-3.7-0.3-7.4-0.7-11.1-1.4c-3.7-0.6-7.4-1.5-11.1-2.7c-3.6-1.2-7.2-2.7-10.4-4.7
		c-1.6-1-3.1-2.1-4.5-3.4c-1.4-1.3-2.7-2.7-3.8-4.2c-1.1-1.5-2-3.2-2.8-4.9c-0.4-0.9-0.7-1.7-1-2.6c-0.1-0.2-0.1-0.4-0.2-0.6
		c0.9-0.2,1.9-0.4,2.8-0.6c2.1-0.4,4.2-0.7,6.3-1c1.1-0.1,3.4-0.4,3.4-0.4l0.6-0.1c0,0,18-2.5,25.8-3.2c0.1,0,0.1-0.2,0-0.2
		C59,97.9,40.9,100,40.9,100l-0.2,0l-0.1,0l-0.1,0l-0.4,0l-0.8,0.1c-2,0.2-4.1,0.4-6.1,0.7c-1.8,0.2-3.7,0.5-5.5,0.9
		c0-0.1,0-0.2-0.1-0.2c-0.5-1.8-0.9-3.7-1.2-5.5c1.3-0.2,2.7-0.3,4-0.4c2.2-0.2,4.4-0.3,6.6-0.3c1.1,0,2.2-0.1,3.3-0.1l0.6,0l0.5,0
		l2.2-0.1c8.2-0.3,16.3-0.6,24.4-0.5c0.1,0,0.2-0.1,0.1-0.2c-3.8-1.6-15.3-1.1-22.6-0.9l-3,0.1l-0.1,0l-0.7,0l-0.9,0l-0.2,0l-0.1,0
		l-0.1,0l-0.4,0l-0.8,0c-2.1,0-4.3,0-6.4,0.1c-2.2,0.1-4.5,0.2-6.7,0.4c-0.2-1.2-0.3-2.4-0.4-3.7c-0.1-0.9-0.1-1.8-0.1-2.7
		c1.7-0.1,3.4-0.1,5.1,0c0.1,0,0.3,0,0.4,0c0,0,0,0,0.1,0c0,0,0.1,0,0.1,0c0.2,0,0.3,0,0.5,0c1.4,0,2.9,0.1,4.3,0.2
		c0.2,0,0.5,0,0.7,0c0.3,0,0.6,0,1,0.1c0,0,0,0,0.1,0c0.2,0,0.5,0,0.7,0.1c0.8,0.1,1.7,0.1,2.5,0.2l2.6,0.2l0.7,0c0,0,0.1,0,0.1,0
		c8.1,0.5,16.2,1,24.3,1.9c0.1,0,0.2-0.1,0.1-0.2c-5.6-1.7-15.1-2.6-22.4-3.2l-1.4-0.1l-0.8-0.1l-0.9-0.1l-1.6-0.1l-0.2,0l-0.1,0
		l-0.1,0l-0.4,0L40,86.3c-0.2,0-0.5,0-0.7-0.1c-0.2,0-0.5,0-0.7-0.1c-0.5-0.1-1.1-0.1-1.6-0.2c-0.2,0-0.5,0-0.7-0.1
		c-0.9-0.1-1.8-0.1-2.6-0.2c-0.3,0-0.6,0-1-0.1c-0.2,0-0.4,0-0.7,0c-0.3,0-0.5,0-0.8,0c-0.2,0-0.4,0-0.6,0c-1.7-0.1-3.4-0.1-5.1-0.1
		c0-1.9,0.1-3.9,0.3-5.8c0-0.2,0-0.4,0.1-0.6c0-0.1,0-0.2,0-0.2c0.2-1.8,0.4-3.5,0.8-5.2c0.2-0.9,0.4-1.8,0.6-2.6
		c0.2-0.9,0.5-1.7,0.8-2.6c0.1,0,0.1,0,0.2,0c0.4,0.1,0.5-0.1,0.4-0.4c-0.1-0.3-0.3-0.7-0.6-1.3c-0.3-0.6-0.8-1.2-1.1-2.1
		c-0.1-0.3-0.2-0.5-0.3-0.8c-0.1-0.3-0.1-0.5-0.1-0.7c0-0.2,0.1-0.4,0.1-0.5c0.1-0.1,0.1-0.1,0.3-0.2c0.2,0,0.4,0,0.6,0
		c0.3,0,0.5,0.1,0.8,0.2c0.4,0.1,0.7,0.3,1.1,0.6c0,0,0,0.1,0.1,0.1l0,0c0.2,0.1,0.3,0.2,0.5,0.3l0,0c0.4,0.3,1,0.2,1.3-0.3
		c0.2-0.3,0.2-0.7,0-1c-0.1-0.2-0.2-0.3-0.3-0.5l0.1-0.1c0,0-0.1-0.1-0.1-0.1c-0.4-0.8-0.9-1.7-1.2-2.5c-0.2-0.5-0.4-1-0.5-1.5
		c-0.1-0.5-0.1-0.9,0-1.2l0,0l0,0l0,0l0,0l0,0c0,0,0-0.1,0.1-0.1c0-0.1,0.1-0.1,0.1-0.2c0.1-0.1,0.2-0.2,0.3-0.2c0.1,0,0.3,0,0.5,0
		c0.2,0,0.4,0.1,0.6,0.2c0.4,0.2,0.9,0.5,1.3,0.9c0.3,0.2,0.6,0.5,0.8,0.8c0,0,0,0,0,0l0,0c0.1,0.1,0.2,0.2,0.3,0.3l0,0
		c0.3,0.4,0.9,0.4,1.3,0.1c0.3-0.3,0.4-0.6,0.3-1c0-0.1-0.1-0.3-0.1-0.4l0,0c0,0,0,0-0.1-0.1c-0.2-0.6-0.4-1.1-0.6-1.6
		c-0.3-0.6-0.5-1.3-0.7-1.9c-0.2-0.6-0.3-1.2-0.3-1.8c0-0.3,0-0.5,0.1-0.8c0.1-0.2,0.2-0.4,0.3-0.7c0.1-0.2,0.3-0.4,0.5-0.5
		c0.2-0.1,0.3-0.1,0.4-0.1c0.1,0,0.3,0.1,0.5,0.2c0.2,0.1,0.4,0.3,0.6,0.5c0.4,0.4,0.6,1,0.8,1.5c0.2,0.6,0.3,1.2,0.3,1.7
		c0,0.5,0.4,1,0.9,1c0.3,0,0.6-0.1,0.8-0.4l0,0c1.4-1.8,2.9-3.5,4.5-5c1.6-1.6,3.3-3,5.1-4.4c2.2-1.6,4.4-3.1,6.8-4.4
		c0.4-0.2,0.7-0.4,1.1-0.6c1.2-0.6,2.4-1.2,3.7-1.7c4.1-1.7,8.4-2.9,12.8-3.6c0,0,0,0,0.1,0c0,0.5,0.1,1.1,0.1,1.6
		c0.2,1.6,0.3,3.1,0.5,4.7c0.3,2.8,0.6,5.5,0.8,8.3c0,0,0,0,0,0c0,0,0,0,0,0l0,0c0,0.2,0,0.4,0,0.6l0,0c0,0.2,0.1,0.3,0.3,0.4l0,0
		c0,0,0.1,0.1,0.2,0.1c0.1,0,0.2,0,0.3,0c0.1,0,0.2,0,0.3-0.1c0.1,0,0.1-0.1,0.2-0.1c0.1-0.1,0.1-0.2,0.2-0.2c0-0.1,0.1-0.1,0.1-0.2
		c0,0,0,0,0,0l0.1,0.1c0-0.3,0-0.5,0-0.8c0-0.3,0-0.7,0-1c0-0.7,0-1.4-0.1-2.1c-0.1-1.4-0.2-2.8-0.2-4.2c-0.1-1.4-0.1-2.8-0.1-4.1
		c0-0.7,0-1.4,0-2.1c0-0.3,0-0.7,0.1-1c0-0.1,0-0.2,0.1-0.3c0.7-0.1,1.3-0.1,2-0.1c0.1,2.4,0.2,4.7,0.3,7c0.1,1.5,0.1,3.1,0.2,4.6
		c0,0.8,0.1,1.5,0.1,2.3c0,0.2,0,0.4,0.1,0.6l0,0.1l0,0.1c0,0,0,0.1,0,0.2l0,0l0,0.1c0,0,0,0.1,0,0.1c0,0,0.1,0.1,0.1,0.2
		c0,0,0.2,0.3,0.3,0.4c0.4,0.3,1.1,0.5,1.7,0.1c0.2-0.2,0.4-0.5,0.4-0.5c0-0.1,0.1-0.2,0.1-0.2c0,0,0-0.1,0-0.1l0-0.1l0,0l0,0l0-0.1
		l0,0c0-0.1,0-0.1,0-0.2c0-0.2,0-0.2,0-0.4c0-0.2,0-0.4,0-0.6l0-0.3l0,0v0l0-0.1l0-0.1c0.1-3.8,0.6-8.1,0.4-13.2c0.5,0,1,0,1.5,0
		c0,0.1,0,0.2,0.1,0.2c0.1,0.3,0.1,0.6,0.1,1c0.1,0.7,0.1,1.4,0.1,2.1c0.1,1.4,0.1,2.8,0.1,4.2c0,1.4,0,2.8,0,4.2c0,0.7,0,1.4,0,2.1
		c0,0.3,0,0.6,0.1,1c0,0.3,0,0.5,0,0.8l0.1-0.1c0,0,0,0,0,0c0,0.1,0,0.1,0.1,0.2c0,0.1,0.1,0.1,0.2,0.2c0,0,0.1,0.1,0.2,0.1
		c0.1,0,0.2,0.1,0.3,0.1c0.1,0,0.2,0,0.3,0c0.1,0,0.1-0.1,0.2-0.1l0,0c0.1-0.1,0.2-0.3,0.2-0.4l0,0c0-0.2,0-0.4,0-0.6l0,0
		c0,0,0,0,0,0c0,0,0,0,0,0c0-2.8,0.2-5.6,0.3-8.3c0.1-1.6,0.1-3.1,0.2-4.7c0-0.5,0.1-1.1,0-1.6c0.1,0,0.3,0,0.4,0
		c3.1,0.3,6.3,1,9.4,1.9c3.1,0.9,6.2,2.2,9.1,3.7c2.9,1.5,5.7,3.4,8.4,5.4c2.6,2.1,5.1,4.4,7.2,6.9l0,0c0.4,0.5,1.2,0.5,1.6,0.1
		c0.2-0.2,0.4-0.5,0.4-0.7c0.1-0.5,0.2-1.2,0.5-1.7c0.2-0.6,0.5-1.1,0.8-1.6c0.2-0.2,0.3-0.4,0.5-0.6c0.1-0.1,0.1-0.1,0.2-0.1
		c0.1,0,0.1,0,0.1,0c0,0,0,0,0,0c0,0,0.1,0,0.1,0.1c0.1,0.1,0.3,0.3,0.4,0.5c0.2,0.3,0.4,0.8,0.4,1.4c0,0.5-0.1,1.2-0.2,1.8
		c-0.1,0.6-0.3,1.2-0.6,1.9c-0.2,0.6-0.4,1.3-0.6,2l0,0c-0.1,0.5,0.2,1,0.7,1.1c0.4,0.1,0.7-0.1,1-0.4c0.3-0.4,0.7-0.9,1.1-1.2
		c0.4-0.4,0.8-0.7,1.2-1c0.4-0.3,0.9-0.4,1.1-0.3c0.1,0,0.3,0.1,0.4,0.2c0.1,0.1,0.1,0.1,0.2,0.2l0,0.1c0,0,0,0,0,0l0,0l0,0
		c0,0,0,0.1,0.1,0.1c0.2,0.4,0.2,0.9,0.2,1.4c-0.1,0.5-0.2,1.1-0.4,1.6c-0.3,1-0.7,2-1.1,2.9c0,0,0,0-0.1,0.1l0,0
		c0,0.1-0.1,0.1-0.1,0.2l0,0c-0.1,0.2,0,0.4,0.2,0.5c0.1,0.1,0.3,0,0.4-0.1c0.1,0,0.1-0.1,0.2-0.1l0.1,0c0,0,0-0.1,0.1-0.1
		c0.3-0.2,0.6-0.5,0.9-0.7c0.4-0.3,0.9-0.5,1.3-0.7c0.5-0.1,1-0.2,1.4,0c0.2,0.1,0.4,0.3,0.5,0.5c0.1,0.2,0.2,0.4,0.3,0.7
		c0.1,0.5,0.1,1,0,1.6c-0.1,0.5-0.3,1-0.5,1.5c-0.4,1-1,1.8-1.7,2.6c0,0-0.1-0.1-0.1-0.1c-0.3-0.2-0.5-0.1-0.5,0.2
		c-0.1,0.6,0.3,2.2,1,4.3c0.7,2,1.2,4.1,1.7,6.2c0.4,2,0.7,4.1,1,6.1c-2.4,0.1-4.8,0.3-7.2,0.6c-0.4,0.1-0.9,0.1-1.3,0.2
		c-0.3,0-0.6,0.1-0.9,0.1c-1.2,0.2-2.5,0.4-3.7,0.6l-0.7,0.1l-0.4,0.1l-0.1,0l-0.1,0l-0.2,0l0,0l-0.8,0.1l-0.7,0.1l-0.9,0.1
		l-0.7,0.1l-1.4,0.2c-1,0.1-2,0.3-3.1,0.5c-0.2,0-0.3,0-0.5,0.1c-0.1,0-0.2,0-0.3,0c-0.1,0-0.2,0-0.3,0.1
		c-5.9,0.9-12.4,2.2-16.4,3.7c-0.1,0,0,0.2,0.1,0.2c5.5-1,11-1.7,16.5-2.4c0,0,0,0,0,0c1.7-0.2,3.5-0.4,5.2-0.6
		c0.2,0,0.5-0.1,0.7-0.1c0,0,0.1,0,0.1,0l0.6-0.1l0.9-0.1l1.6-0.2c1-0.1,2-0.3,3-0.4c0.3,0,0.6-0.1,1-0.1c0.3,0,0.6-0.1,0.9-0.1
		c1.4-0.2,2.8-0.3,4.2-0.4c1.7-0.1,3.3-0.2,5-0.2c0.1,2.1,0.2,4.2,0.1,6.3c-2.1-0.1-4.2-0.1-6.2-0.1c-1.8,0-3.5,0.1-5.3,0.2
		c-0.2,0-0.4,0-0.7,0l-0.2,0l-0.6,0l-0.4,0l-0.1,0l-0.1,0l-0.2,0l-1.5,0l-3,0.1c-6.8,0.2-17.4,0.3-20.8,2.1c-0.1,0,0,0.2,0.1,0.2
		c7.6-0.5,15.1-0.6,22.7-0.7l3,0l0.1,0c0.2,0,0.3,0,0.5,0c0.9,0,1.7-0.1,2.6-0.1c2,0,4.1,0,6.1,0c1.3,0,2.5,0.1,3.8,0.2
		C134.2,94,134.1,94.8,133.9,95.6z"/>
	<g>
		<linearGradient id="SVGID_3_" gradientUnits="userSpaceOnUse" x1="34.5746" y1="77.0719" x2="41.3664" y2="77.0719">
			<stop  offset="0" style="stop-color:#0EB5BF"/>
			<stop  offset="1" style="stop-color:#B0D57B"/>
		</linearGradient>
		<path class="st9" d="M40.8,72.3c0.2-0.3,0.3-0.6,0.5-0.8c-0.9,0-1.7,0.1-2.6,0.3c-0.4,0.1-1.2,0.3-2.1,0.7
			c-0.2,1.5-0.5,2.9-0.9,4.3c-0.4,1.5-0.8,2.9-1.3,4.4c0.1,0.1,0.3,0.3,0.4,0.4c0.6,0.5,1.2,0.9,1.9,1.2c0.4-1.6,0.8-3.2,1.4-4.8
			C39,76,39.8,74.1,40.8,72.3z"/>
		<linearGradient id="SVGID_4_" gradientUnits="userSpaceOnUse" x1="32.8729" y1="76.6225" x2="36.1083" y2="76.6225">
			<stop  offset="0" style="stop-color:#0EB5BF"/>
			<stop  offset="1" style="stop-color:#B0D57B"/>
		</linearGradient>
		<path class="st10" d="M36.1,72.7c-0.7,0.4-1.5,0.9-2,1.5c-0.1,0.3-0.2,0.5-0.3,0.8c-0.3,0.9-0.6,1.7-0.9,2.6
			c0.1,0.6,0.3,1.3,0.5,1.8c0.2,0.4,0.4,0.8,0.7,1.1c0.4-1.3,0.8-2.6,1.2-4C35.6,75.3,35.9,74,36.1,72.7z"/>
		<linearGradient id="SVGID_5_" gradientUnits="userSpaceOnUse" x1="40.3649" y1="77.3709" x2="45.9611" y2="77.3709">
			<stop  offset="0" style="stop-color:#0EB5BF"/>
			<stop  offset="1" style="stop-color:#B0D57B"/>
		</linearGradient>
		<path class="st11" d="M45.9,72.4c-0.4-0.2-0.9-0.4-1.4-0.5c-0.7-0.2-1.4-0.3-2.2-0.4c-0.1,2.2-0.4,4.4-0.7,6.5
			c-0.3,1.8-0.7,3.5-1.2,5.2c1.4,0,2.6-0.3,3.8-0.7c0.4-0.1,0.7-0.3,1-0.4c0.4-2.2,0.7-4.5,0.8-6.8C46,74.4,46,73.4,45.9,72.4
			C45.9,72.4,45.9,72.4,45.9,72.4z"/>
		<linearGradient id="SVGID_6_" gradientUnits="userSpaceOnUse" x1="46.0871" y1="77.2454" x2="48.9998" y2="77.2454">
			<stop  offset="0" style="stop-color:#0EB5BF"/>
			<stop  offset="1" style="stop-color:#B0D57B"/>
		</linearGradient>
		<path class="st13" d="M48.2,74.3c-0.3-0.4-0.7-0.8-1-1.1c-0.1-0.1-0.3-0.2-0.4-0.3c0,0.6,0.1,1.1,0.1,1.7c0,2.1-0.2,4.2-0.5,6.3
			c0,0.3-0.1,0.5-0.1,0.8c0.2-0.2,0.4-0.3,0.7-0.5c0,0,0.1-0.1,0.1-0.1l0.1-0.1l0,0l0,0l0,0c0.1-0.1,0.2-0.2,0.3-0.3
			c0.2-0.2,0.3-0.4,0.5-0.6c0.3-0.4,0.6-0.8,0.8-1.3c0.2-0.5,0.4-1,0.4-1.5c0.1-0.5,0-1.1-0.1-1.6C48.7,75.2,48.5,74.7,48.2,74.3z"
			/>
		<linearGradient id="SVGID_7_" gradientUnits="userSpaceOnUse" x1="37.595" y1="77.7917" x2="41.6697" y2="77.7917">
			<stop  offset="0" style="stop-color:#0EB5BF"/>
			<stop  offset="1" style="stop-color:#B0D57B"/>
		</linearGradient>
		<path class="st15" d="M41.6,73.2c0-0.3,0-0.6,0.1-0.9c-0.3,0.5-0.6,0.9-0.8,1.4c-0.6,1.2-1.2,2.5-1.7,3.9
			c-0.5,1.3-0.9,2.7-1.3,4.1c-0.1,0.4-0.2,0.8-0.3,1.3c0.1,0,0.2,0.1,0.3,0.1c0.2,0,0.4,0.1,0.6,0.1c0.4,0.1,0.8,0.1,1.2,0.1
			c0.4-1.3,0.8-2.7,1-4.1C41.1,77.2,41.4,75.2,41.6,73.2z"/>
	</g>
	<g>
		<path class="st4" d="M127.3,78.8L127.3,78.8L127.3,78.8L127.3,78.8l0.1-0.1c0.1-0.1,0.2-0.2,0.3-0.3c0.2-0.2,0.3-0.4,0.5-0.6
			c0.3-0.4,0.6-0.8,0.8-1.3c0.2-0.5,0.4-1,0.4-1.5c0.1-0.5,0-1.1-0.1-1.6c-0.1-0.5-0.4-1-0.7-1.4c-0.3-0.4-0.7-0.8-1-1.1
			c-0.1-0.1-0.3-0.2-0.4-0.3c0,0.6,0.1,1.1,0.1,1.7c0,2.1-0.2,4.2-0.5,6.3c0,0.3-0.1,0.5-0.1,0.8c0.2-0.2,0.4-0.3,0.7-0.5
			C127.2,78.9,127.2,78.9,127.3,78.8z"/>
		<path class="st4" d="M120.8,81.1c1.4,0,2.6-0.3,3.8-0.7c0.4-0.1,0.7-0.3,1-0.4c0.4-2.2,0.7-4.5,0.8-6.8c0-1,0-2-0.1-2.9
			c0,0,0,0,0,0c-0.4-0.2-0.9-0.4-1.4-0.5c-0.7-0.2-1.4-0.3-2.2-0.4c-0.1,2.2-0.4,4.4-0.7,6.5C121.7,77.7,121.3,79.4,120.8,81.1z"/>
		<path class="st4" d="M114.5,78.4c0.4-1.3,0.8-2.6,1.2-4c0.3-1.3,0.6-2.6,0.8-3.9c-0.7,0.4-1.5,0.9-2,1.5c-0.1,0.3-0.2,0.5-0.3,0.8
			c-0.3,0.9-0.6,1.7-0.9,2.6c0.1,0.6,0.3,1.3,0.5,1.8C114,77.7,114.2,78.1,114.5,78.4z"/>
		<path class="st4" d="M115,79c0.1,0.1,0.3,0.3,0.4,0.4c0.6,0.5,1.2,0.9,1.9,1.2c0.4-1.6,0.8-3.2,1.4-4.8c0.7-1.9,1.5-3.9,2.5-5.6
			c0.2-0.3,0.3-0.6,0.5-0.8c-0.9,0-1.7,0.1-2.6,0.3c-0.4,0.1-1.2,0.3-2.1,0.7c-0.2,1.5-0.5,2.9-0.9,4.3
			C115.9,76.1,115.5,77.5,115,79z"/>
		<path class="st4" d="M119.6,75.5c-0.5,1.3-0.9,2.7-1.3,4.1c-0.1,0.4-0.2,0.8-0.3,1.3c0.1,0,0.2,0.1,0.3,0.1c0.2,0,0.4,0.1,0.6,0.1
			c0.4,0.1,0.8,0.1,1.2,0.1c0.4-1.3,0.8-2.7,1-4.1c0.4-2,0.7-3.9,0.9-5.9c0-0.3,0-0.6,0.1-0.9c-0.3,0.5-0.6,0.9-0.8,1.4
			C120.6,72.9,120.1,74.2,119.6,75.5z"/>
	</g>
	<path class="st4" d="M90.6,112.7c-0.8,0-1.7,0-2.5-0.1c-0.4-0.1-0.8-0.1-1.2-0.2c-0.4-0.1-0.8-0.2-1.2-0.4c0,0,0,0,0,0l0,0
		c0,0-0.1,0-0.1-0.1c-0.1,0-0.1-0.1-0.2-0.1c-0.1-0.1-0.3-0.2-0.4-0.4c-0.2-0.3-0.5-0.6-0.7-1c-0.4-0.7-0.7-1.5-0.9-2.3
		c-0.3-1.1-0.5-2.2-0.7-3.3c-0.2-1.1-0.3-2.3-0.4-3.4c0-0.2,0-0.5-0.1-0.7c0.1-2,0-4.1,0-6.1c-0.1-2.7-0.2-5.4-0.5-8
		c0-1.7,0-3.4,0-5.1c0.2,0,0.3-0.1,0.4-0.2l0.1-0.1c0.5-0.6,0.9-1.3,1.3-2c0.4-0.7,0.7-1.4,0.9-2.2c0.3-0.7,0.5-1.5,0.7-2.3
		c0-0.2,0.1-0.4,0.1-0.6l0.1-0.3l0,0l0,0l0,0l0,0l0-0.1l0-0.2c0.1-0.4,0.1-0.9,0.1-1.3c0-0.4,0-0.9-0.2-1.3c0,0,0-0.1,0-0.1
		c0-0.2,0-0.3-0.1-0.5c0-0.2-0.1-0.4-0.2-0.7c0-0.1-0.1-0.1-0.1-0.2c0,0,0-0.1-0.1-0.1l0,0c0,0-0.1-0.1-0.1-0.1L84.6,69
		c-0.1-0.1-0.3-0.3-0.5-0.4c-0.2-0.1-0.4-0.2-0.7-0.3c-0.3-0.1-0.5-0.1-0.8,0c-0.2,0.1-0.4,0.2-0.6,0.3c-0.1,0.1-0.2,0.2-0.3,0.2
		c-0.1,0-0.1,0.1-0.2,0.1c-0.4,0.3-0.7,0.7-0.9,1.1c-0.2,0.3-0.3,0.5-0.4,0.8c-0.3-0.5-0.6-1-1-1.5c-0.3-0.3-0.6-0.6-1-0.7
		c-0.2-0.1-0.5-0.1-0.7-0.1c-0.3,0-0.5,0.1-0.7,0.3c-0.2,0.1-0.3,0.3-0.4,0.4c-0.1,0.2-0.2,0.3-0.3,0.5C76,69.9,76,70.2,76,70.4
		c0,0.2,0,0.4,0,0.6c0,0.1,0,0.1,0,0.2c0,0.1,0,0.2,0,0.2c0,0.4,0,0.8,0,1.2c0,0.4,0.1,0.8,0.2,1.2l0,0.1l0,0l0,0l0,0.1l0.1,0.3
		c0.1,0.2,0.1,0.4,0.2,0.5c0.3,0.7,0.5,1.4,0.8,2.1c0.3,0.7,0.6,1.4,1,2c0.4,0.7,0.8,1.3,1.2,1.9l0,0c0,0.1,0.1,0.1,0.2,0l0.3-0.1
		c0,0,0,0,0,0c-0.1,1.9-0.1,3.9,0,5.8c-0.1,2.2,0,4.4,0.1,6.6c0.1,2.3,0.2,4.6,0.5,6.9c0,0.2,0,0.4,0.1,0.6c0,2-0.1,4.1-0.3,6.1
		c-0.1,0.9-0.2,1.8-0.4,2.7c-0.1,0.4-0.2,0.9-0.4,1.3c-0.2,0.4-0.3,0.8-0.6,1.1c-0.1,0.2-0.2,0.3-0.4,0.4c-0.1,0.1-0.3,0.2-0.5,0.3
		c-0.4,0.2-0.8,0.4-1.2,0.6c-0.8,0.3-1.7,0.6-2.6,0.7c-0.9,0.1-1.8,0.2-2.7,0.1c-0.9-0.1-1.8-0.3-2.6-0.6c-0.8-0.4-1.6-0.9-2.1-1.7
		c-0.5-0.7-0.8-1.6-0.9-2.5c0-0.1,0-0.2-0.1-0.2c0-0.1-0.1-0.1-0.2-0.1c-0.1,0-0.2,0-0.3,0.2c-0.1,0.8-0.1,1.7,0.3,2.6
		c0.3,0.9,1,1.7,1.8,2.3c0.8,0.6,1.8,1,2.8,1.2c1,0.2,2,0.2,3,0.2c1-0.1,2-0.3,2.9-0.6c0.5-0.2,0.9-0.3,1.4-0.5
		c0.5-0.2,0.9-0.4,1.3-0.7c0.5-0.4,0.9-0.8,1.1-1.3c0.3-0.5,0.4-0.9,0.6-1.4c0.3-0.9,0.5-1.8,0.6-2.6c0.1-0.5,0.2-1,0.2-1.5
		c0,0.1,0,0.1,0,0.2c0.2,0.9,0.5,1.9,0.9,2.8c0.2,0.5,0.4,0.9,0.6,1.3c0.2,0.4,0.5,0.9,0.9,1.2c0.2,0.2,0.4,0.4,0.6,0.5
		c0.2,0.2,0.5,0.3,0.7,0.3c0.5,0.2,0.9,0.3,1.4,0.4c0.9,0.2,1.8,0.3,2.8,0.4c0.9,0,1.9,0,2.8-0.2c0.9-0.1,1.8-0.4,2.7-0.8
		c0.8-0.4,1.6-1,2.2-1.8c0.6-0.8,1-1.7,1.2-2.7c0-0.1,0-0.2,0-0.3c0-0.1-0.1-0.1-0.1-0.1c-0.1-0.1-0.2,0-0.3,0.2
		c-0.3,0.7-0.7,1.4-1.2,1.9c-0.5,0.6-1,1-1.7,1.3C93.9,112.3,92.3,112.7,90.6,112.7z"/>
	<polygon class="st4" points="80.2,79.7 80.2,79.7 80.2,79.7 	"/>
	<path class="st4" d="M81.5,80.4C81.5,80.4,81.5,80.4,81.5,80.4c0-0.1,0-0.1,0.1-0.1C81.6,80.3,81.5,80.3,81.5,80.4z"/>
	<path class="st7" d="M82.4,69.9c0.2-0.2,0.5-0.2,0.7-0.1c0.2,0.1,0.5,0.3,0.6,0.5c0.2,0.3,0.3,0.6,0.3,0.9c0,0.1,0,0.3,0.1,0.4
		c0,0.3-0.1,0.7-0.2,1c-0.3,1.3-0.8,2.6-1.3,3.8c-0.3,0.6-0.6,1.2-0.9,1.9c-0.2,0.5-0.5,0.9-0.7,1.4l-0.1,0.1l-0.1,0l-0.1,0.1
		c-0.2-0.5-0.4-1.1-0.6-1.6c-0.2-0.6-0.5-1.2-0.8-1.7c-0.5-1.2-1.1-2.3-1.6-3.5c-0.2-0.5-0.4-1-0.6-1.5c0-0.1,0-0.2,0-0.2
		c0-0.3,0.1-0.5,0.2-0.7c0.1-0.2,0.2-0.3,0.3-0.3c0.1,0,0.2,0,0.4,0.1c0.2,0.1,0.4,0.3,0.5,0.5c0.2,0.2,0.3,0.5,0.4,0.8
		c0.2,0.6,0.4,1.2,0.5,1.9l0,0.1c0.1,0.4,0.4,0.7,0.8,0.6c0.3,0,0.6-0.3,0.6-0.7c0-0.1,0-0.1,0-0.2l0.2,0c0-0.2-0.1-0.4-0.1-0.6
		c0-0.1,0-0.2,0-0.2c0.1-0.3,0.2-0.7,0.3-1c0.2-0.6,0.4-1.2,0.7-1.6C82.2,70,82.3,70,82.4,69.9z"/>
	<g>
		<linearGradient id="SVGID_8_" gradientUnits="userSpaceOnUse" x1="89.6715" y1="94.0314" x2="91.8277" y2="94.0314">
			<stop  offset="0" style="stop-color:#EF537A"/>
			<stop  offset="1" style="stop-color:#4A3D97"/>
		</linearGradient>
		<path class="st16" d="M91.1,92.7C91.1,92.7,91.1,92.6,91.1,92.7c-0.1-0.1-0.3-0.2-0.4-0.2c-0.1,0-0.3,0-0.4,0.1
			c-0.1,0.1-0.2,0.2-0.2,0.3c-0.1,0.2-0.2,0.4-0.3,0.6c0,0.1,0,0.3,0,0.5c0,0.1,0,0.1,0,0.2c0,0.2,0,0.4,0.1,0.6
			c0,0.1,0.1,0.2,0.2,0.3c0,0.1,0.1,0.2,0.2,0.3c0,0,0,0,0,0c0,0,0,0,0,0c0,0.1,0.1,0.1,0.2,0.1c0.1,0.1,0.2,0.1,0.2,0.1
			c0,0,0.1,0,0.1,0c0.3,0,0.5-0.1,0.7-0.3c0.2-0.2,0.4-0.5,0.5-0.9c0.1-0.4,0-0.8-0.1-1.1c-0.1-0.2-0.2-0.3-0.2-0.4
			C91.3,92.8,91.2,92.7,91.1,92.7z"/>
		<linearGradient id="SVGID_9_" gradientUnits="userSpaceOnUse" x1="85.1616" y1="98.7385" x2="87.3172" y2="98.7385">
			<stop  offset="0" style="stop-color:#EF537A"/>
			<stop  offset="1" style="stop-color:#4A3D97"/>
		</linearGradient>
		<path class="st17" d="M86.6,97.4C86.6,97.4,86.6,97.3,86.6,97.4c-0.1-0.1-0.3-0.2-0.4-0.2c-0.1,0-0.3,0-0.4,0.1
			c-0.1,0.1-0.2,0.2-0.2,0.3c-0.1,0.2-0.3,0.4-0.3,0.6c0,0.1,0,0.3,0,0.5c0,0.1,0,0.1,0,0.2c0,0.2,0,0.4,0.1,0.6
			c0,0.1,0.1,0.2,0.2,0.3c0,0.1,0.1,0.2,0.2,0.3c0,0,0,0,0,0c0,0,0,0,0,0c0,0.1,0.1,0.1,0.2,0.1c0.1,0.1,0.2,0.1,0.2,0.1
			c0,0,0.1,0,0.1,0c0.3,0,0.5-0.1,0.7-0.3c0.2-0.2,0.4-0.5,0.5-0.9c0.1-0.4,0-0.8-0.1-1.1c-0.1-0.2-0.2-0.3-0.2-0.4
			C86.8,97.5,86.7,97.4,86.6,97.4z"/>
		<linearGradient id="SVGID_10_" gradientUnits="userSpaceOnUse" x1="84.9404" y1="90.1289" x2="87.0966" y2="90.1289">
			<stop  offset="0" style="stop-color:#EF537A"/>
			<stop  offset="1" style="stop-color:#4A3D97"/>
		</linearGradient>
		<path class="st18" d="M85,89.6c0,0.2,0,0.3-0.1,0.5c0,0.1,0,0.1,0,0.2c0,0.2,0,0.4,0.1,0.6c0,0.1,0.1,0.2,0.2,0.3
			c0,0.1,0.1,0.2,0.2,0.3c0,0,0,0,0,0c0,0,0,0,0,0c0,0.1,0.1,0.1,0.2,0.1c0.1,0,0.2,0.1,0.2,0.1c0,0,0.1,0,0.1,0
			c0.3,0,0.5-0.1,0.7-0.3c0.2-0.2,0.4-0.5,0.5-0.9c0.1-0.4,0-0.8-0.1-1.1c-0.1-0.2-0.2-0.3-0.2-0.4c-0.1-0.1-0.2-0.2-0.3-0.3
			c0,0,0,0,0,0c-0.1-0.1-0.3-0.2-0.4-0.2c-0.2,0-0.3,0-0.4,0.1c-0.1,0.1-0.2,0.2-0.2,0.3C85.2,89.1,85.1,89.4,85,89.6z"/>
		<linearGradient id="SVGID_11_" gradientUnits="userSpaceOnUse" x1="70.0365" y1="94.5458" x2="72.1992" y2="94.5458">
			<stop  offset="0" style="stop-color:#EF537A"/>
			<stop  offset="1" style="stop-color:#4A3D97"/>
		</linearGradient>
		<path class="st19" d="M70.7,93.2c-0.1,0.1-0.2,0.2-0.3,0.3c-0.1,0.1-0.2,0.3-0.2,0.4C70,94.2,70,94.6,70.1,95
			c0.1,0.4,0.3,0.7,0.5,0.9c0.2,0.2,0.5,0.3,0.8,0.2c0,0,0.1,0,0.1,0c0.1,0,0.2,0,0.2-0.1c0.1,0,0.1-0.1,0.1-0.1c0,0,0,0,0,0
			c0,0,0,0,0,0c0.1-0.1,0.1-0.2,0.1-0.3c0.1-0.1,0.1-0.2,0.1-0.3c0.1-0.2,0.1-0.4,0.1-0.6c0-0.1,0-0.1,0-0.2c0-0.2,0-0.3-0.1-0.5
			c-0.1-0.2-0.2-0.5-0.3-0.6c-0.1-0.1-0.2-0.2-0.3-0.3c-0.1-0.1-0.3-0.1-0.4-0.1C70.9,93,70.8,93.1,70.7,93.2
			C70.7,93.2,70.7,93.2,70.7,93.2z"/>
		<linearGradient id="SVGID_12_" gradientUnits="userSpaceOnUse" x1="74.782" y1="99.0086" x2="76.9444" y2="99.0086">
			<stop  offset="0" style="stop-color:#EF537A"/>
			<stop  offset="1" style="stop-color:#4A3D97"/>
		</linearGradient>
		<path class="st20" d="M76.2,97.5c-0.1-0.1-0.3-0.1-0.4-0.1c-0.1,0-0.3,0.1-0.4,0.2c0,0,0,0,0,0c-0.1,0.1-0.2,0.2-0.3,0.3
			c-0.1,0.1-0.2,0.3-0.2,0.4c-0.1,0.3-0.2,0.7-0.1,1.1c0.1,0.4,0.3,0.7,0.5,0.9c0.2,0.2,0.5,0.3,0.8,0.2c0,0,0.1,0,0.1,0
			c0.1,0,0.2,0,0.2-0.1c0.1,0,0.1-0.1,0.1-0.1c0,0,0,0,0,0c0,0,0,0,0,0c0.1-0.1,0.1-0.2,0.1-0.3c0.1-0.1,0.1-0.2,0.1-0.3
			c0.1-0.2,0.1-0.4,0.1-0.6c0-0.1,0-0.1,0-0.2c0-0.2,0-0.3-0.1-0.5c-0.1-0.2-0.2-0.5-0.3-0.6C76.4,97.7,76.3,97.6,76.2,97.5z"/>
		<linearGradient id="SVGID_13_" gradientUnits="userSpaceOnUse" x1="74.5612" y1="90.399" x2="76.724" y2="90.399">
			<stop  offset="0" style="stop-color:#EF537A"/>
			<stop  offset="1" style="stop-color:#4A3D97"/>
		</linearGradient>
		<path class="st21" d="M75.1,91.7c0.2,0.2,0.5,0.3,0.8,0.2c0,0,0.1,0,0.1,0c0.1,0,0.2,0,0.2-0.1c0.1,0,0.1-0.1,0.1-0.1c0,0,0,0,0,0
			c0,0,0,0,0,0c0.1-0.1,0.1-0.2,0.1-0.3c0.1-0.1,0.1-0.2,0.1-0.3c0.1-0.2,0.1-0.4,0.1-0.6c0-0.1,0-0.1,0-0.2c0-0.2,0-0.3-0.1-0.5
			c-0.1-0.2-0.2-0.5-0.3-0.6c-0.1-0.1-0.2-0.2-0.3-0.3c-0.1-0.1-0.3-0.1-0.4-0.1c-0.1,0-0.3,0.1-0.4,0.2c0,0,0,0,0,0
			c-0.1,0.1-0.2,0.2-0.3,0.3c-0.1,0.1-0.2,0.3-0.2,0.4c-0.1,0.3-0.2,0.7-0.1,1.1C74.7,91.2,74.9,91.5,75.1,91.7z"/>
	</g>
	<path d="M129.3,53.8C129.3,53.8,129.3,53.8,129.3,53.8L129.3,53.8z"/>
	<polygon points="129.3,53.8 129.3,53.8 129.3,53.8 	"/>
	<path d="M83.2,33.8C83.2,33.8,83.2,33.8,83.2,33.8C83.2,33.8,83.2,33.8,83.2,33.8C83.2,33.8,83.2,33.8,83.2,33.8z"/>
	<path d="M74.7,34c0,0,0,0.1-0.1,0.1C74.6,34.1,74.6,34,74.7,34C74.6,34,74.6,34,74.7,34z"/>
	<path d="M53.7,38.8C53.7,38.7,53.7,38.7,53.7,38.8c0.1-0.1,0.1-0.1,0.1-0.1C53.8,38.7,53.7,38.7,53.7,38.8z"/>
	<g>
		<linearGradient id="SVGID_14_" gradientUnits="userSpaceOnUse" x1="99.8367" y1="32.4173" x2="102.9934" y2="32.4173">
			<stop  offset="0" style="stop-color:#EF537A"/>
			<stop  offset="1" style="stop-color:#4A3D97"/>
		</linearGradient>
		<path class="st22" d="M101.9,36.4c-0.2-0.1-0.4-0.2-0.5-0.3c0-0.1,0-0.2,0-0.4c0-0.6-0.1-1.4-0.3-2.4c-0.4-1.8-0.7-3.6-1.2-5.4
			c0.1,0.2,0.2,0.3,0.2,0.5c1.3,2.7,2.3,5.6,2.9,8.5C102.6,36.7,102.3,36.6,101.9,36.4z"/>
		<linearGradient id="SVGID_15_" gradientUnits="userSpaceOnUse" x1="86.9537" y1="27.0109" x2="98.0458" y2="27.0109">
			<stop  offset="0" style="stop-color:#EF537A"/>
			<stop  offset="1" style="stop-color:#4A3D97"/>
		</linearGradient>
		<path class="st23" d="M87,32.4L87,32.4C87,32.4,87,32.4,87,32.4l0.2,0l0-0.7c0-0.4,0.1-0.7,0.1-1.1l0.2-1c0.2-0.9,0.4-1.9,0.6-2.8
			c0.2-0.9,0.5-1.8,0.7-2.7c0.3-0.9,0.6-1.8,1-2.6c0.2-0.4,0.4-0.8,0.6-1.2c0.2-0.4,0.5-0.7,0.7-0.9c0.3-0.3,0.5-0.4,0.8-0.5
			c0.2-0.1,0.5-0.1,0.7,0c0.3,0.1,0.6,0.3,0.9,0.6c0,0,0,0,0,0c0,0.1,0.1,0.2,0.1,0.2l0.1,0.3l0,0.1l0,0l0,0l0.1,0.1
			c0.3,0.7,0.5,1.4,0.8,2.2c0.5,1.5,0.9,2.9,1.3,4.4c0.7,2.8,1.4,5.6,2,8.4c-2.4-0.9-4.9-1.6-7.5-2.1c-1.2-0.2-2.4-0.4-3.6-0.6
			C87,32.5,87,32.5,87,32.4z"/>
		<linearGradient id="SVGID_16_" gradientUnits="userSpaceOnUse" x1="54.3656" y1="34.1573" x2="56.383" y2="34.1573">
			<stop  offset="0" style="stop-color:#EF537A"/>
			<stop  offset="1" style="stop-color:#4A3D97"/>
		</linearGradient>
		<path class="st24" d="M55.3,34.2c0.1-0.6,0.5-1.3,0.5-2c0-0.2,0-0.4,0-0.6c0.2-0.6,0.4-1.1,0.6-1.7c-0.2,1.1-0.3,2.2-0.4,3.3
			c-0.1,1.1-0.2,2.3-0.2,3.3c0,0.4,0,0.8,0,1c0,0.1,0,0.1,0,0.1c0,0-0.1,0-0.1,0c-0.4,0.2-0.8,0.4-1.3,0.6
			C54.6,37,55,35.6,55.3,34.2z"/>
		<linearGradient id="SVGID_17_" gradientUnits="userSpaceOnUse" x1="57.3226" y1="29.5478" x2="60.8733" y2="29.5478">
			<stop  offset="0" style="stop-color:#EF537A"/>
			<stop  offset="1" style="stop-color:#4A3D97"/>
		</linearGradient>
		<path class="st25" d="M57.8,36.5C57.8,36.5,57.7,36.5,57.8,36.5l-0.3,0.2c0,0-0.1,0.1-0.2,0.1c0.2-0.6,0.3-1.2,0.4-2
			c0.2-1.5,0.4-2.9,0.7-4.3c0.2-1.4,0.5-2.8,0.9-4.2c0.4-1.4,0.8-2.7,1.5-3.9c0,0,0.1-0.1,0.1-0.1c-0.1,0.2-0.1,0.5-0.2,0.7
			c-0.4,1.5-0.8,3-1.1,4.6C58.9,30.5,58.3,33.5,57.8,36.5z"/>
		<linearGradient id="SVGID_18_" gradientUnits="userSpaceOnUse" x1="59.462" y1="27.7162" x2="69.5933" y2="27.7162">
			<stop  offset="0" style="stop-color:#EF537A"/>
			<stop  offset="1" style="stop-color:#4A3D97"/>
		</linearGradient>
		<path class="st27" d="M59.6,35.2c0.5-2.8,1-5.6,1.7-8.4c0.3-1.4,0.7-2.8,1.1-4.2c0.1-0.3,0.2-0.7,0.3-1l0.2-0.4
			c0.1-0.2,0.1-0.3,0.2-0.5c0.1-0.3,0.3-0.6,0.5-0.9c0.1-0.1,0.2-0.3,0.3-0.4c0,0,0.1,0,0.1,0c0.2,0,0.4,0,0.6,0.2
			c0.3,0.1,0.5,0.4,0.8,0.7c0.1,0.1,0.2,0.3,0.2,0.4c0.3,0.6,0.6,1.3,0.9,1.9l0.2,0.5l0.1,0.3l0.1,0.2l0.1,0.1
			c0.1,0.3,0.3,0.7,0.4,1c1.1,2.7,1.8,5.5,2.2,8.4l0,0c0,0,0,0,0,0c-0.9,0.2-1.8,0.4-2.7,0.6c-2.5,0.6-5,1.4-7.4,2.4L59.6,35.2z"/>
	</g>
	<linearGradient id="SVGID_19_" gradientUnits="userSpaceOnUse" x1="43.1375" y1="61.4571" x2="77.6274" y2="61.4571">
		<stop  offset="0" style="stop-color:#EF537A"/>
		<stop  offset="1" style="stop-color:#4A3D97"/>
	</linearGradient>
	<path class="st28" d="M73.7,68.2c0.2-0.2,0.4-0.5,0.6-0.7c0.1-0.1,0.2-0.2,0.3-0.4l0.1-0.2l0.1-0.2c0.4-0.5,0.7-1,1.1-1.6
		c0.7-1.1,1.2-2.3,1.5-3.7c0.1-0.7,0.2-1.4,0.2-2.1c0-0.7-0.2-1.5-0.4-2.1c-0.3-0.7-0.7-1.3-1.1-1.9c-0.2-0.3-0.5-0.5-0.8-0.8
		c-0.3-0.2-0.5-0.4-0.8-0.7c-1.1-0.9-2.2-1.6-3.4-2.3c-2.5-1.4-5.2-2.3-8.1-2.6c-2.9-0.4-5.9-0.1-8.8,0.7c-0.7,0.2-1.4,0.5-2.2,0.7
		c-0.2,0.1-0.4,0.1-0.5,0.2l-0.3,0.1l0,0c-0.1,0,0,0-0.1,0l-0.1,0l-0.1,0.1c-0.3,0.2-0.7,0.4-1,0.5c-1.3,0.8-2.6,1.7-3.7,2.8
		c-0.9,0.9-1.7,2-2.2,3.2c-0.2,0.5-0.3,0.9-0.4,1.4c-0.2,0.5-0.4,1.1-0.4,1.8c0,0.9,0.2,1.9,0.6,2.9c0.4,1.1,1,2.2,1.8,3.3
		c0.7,1.1,1.7,2.3,3,3.3c0.4,0.3,0.8,0.6,1.2,0.9c0.1,0.1,0.3,0.2,0.4,0.3c0.5,0.3,0.9,0.6,1.4,0.8c0.2,0.1,0.3,0.2,0.5,0.3
		c0.1,0.1,0.2,0.1,0.3,0.1c0.2,0.1,0.4,0.1,0.5,0.2c0,0,0,0,0,0c1.1,0.4,2.2,0.8,3.4,1c0.2,0,0.4,0.1,0.6,0.1c0.5,0.1,1,0.2,1.6,0.2
		c0,0,0,0,0.1,0c0.3,0,0.6,0,0.9,0.1c0,0,0,0,0,0c0.2,0,0.4,0,0.5,0l0.2,0l0.2,0c0.1,0,0.3,0,0.4,0c0.3,0,0.5,0,0.8,0
		c1.1-0.1,2.1-0.3,3.2-0.6c2.1-0.6,4.2-1.6,6.2-3C71.8,69.8,72.8,69,73.7,68.2z"/>
	<path class="st1" d="M45.7,62L45.7,62l0-0.1l-0.1-0.2c-0.1-0.2-0.1-0.5-0.2-0.7c-0.2-1-0.1-2,0.2-2.9c0.4-0.9,1-1.8,1.7-2.6
		c0.6-0.6,1.2-1.1,1.9-1.6c1-0.4,2.3-0.9,3.6-1.3c1-0.3,2.1-0.6,3.2-0.8c-0.1,0.1-0.3,0.1-0.4,0.2c-1.2,0.7-2.2,1.6-3,2.8
		c-0.7,1-1.2,2.2-1.4,3.4c-0.2,0.4-0.3,0.8-0.4,1.3c-0.3,1.3-0.4,2.6-0.1,4c0.3,1.3,0.9,2.6,1.7,3.6c0.6,0.8,1.3,1.4,2,1.9
		c0,0,0,0,0,0c-1-0.4-1.9-0.9-2.9-1.4c-0.9-0.5-1.8-1.1-2.7-1.8c-0.8-0.7-1.6-1.4-2.3-2.2c-0.3-0.4-0.6-0.8-0.8-1.3
		C45.9,62.3,45.8,62.2,45.7,62L45.7,62z"/>
	<path class="st1" d="M64,59.1l0,0.6c0,0.2,0,0.4,0,0.7c0,0.3-0.1,0.6-0.1,0.9c0,0.3,0,0.6-0.1,1c0,0.3,0,0.7-0.1,1
		c0,0.4-0.1,0.7-0.2,1.1c-0.1,0.4-0.1,0.7-0.2,1.1c-0.1,0.4-0.2,0.8-0.4,1.2c-0.1,0.2-0.2,0.4-0.3,0.6c0,0.1-0.1,0.2-0.2,0.3
		c-0.2,0.3-0.5,0.4-0.7,0.3c-0.3-0.1-0.5-0.3-0.8-0.7c-0.1-0.1-0.1-0.2-0.2-0.4c-0.1-0.1-0.1-0.3-0.2-0.4c-0.1-0.3-0.2-0.5-0.2-0.8
		c0-0.1-0.1-0.2-0.1-0.4c0-0.2-0.1-0.3-0.1-0.5c-0.2-1.5-0.3-3-0.2-4.5c0-0.4,0-0.8,0.1-1.2c0-0.4,0.1-0.7,0.1-1.1l0.2-1.1
		c0-0.3,0.1-0.7,0.2-1c0-0.2,0.1-0.3,0.1-0.5c0-0.1,0.1-0.3,0.1-0.4c0.1-0.3,0.2-0.5,0.3-0.8c0.1-0.1,0.1-0.2,0.2-0.4
		c0-0.1,0.1-0.1,0.1-0.2c0-0.1,0.1-0.1,0.1-0.2c0.1-0.2,0.3-0.4,0.4-0.5c0.1-0.1,0.2-0.1,0.3-0.1c0.1,0,0.2,0,0.2,0l0,0l0.1,0
		c0,0,0,0,0,0c0,0,0,0,0,0l0,0c0,0,0,0,0.1,0c0.2,0.1,0.3,0.3,0.3,0.4c0.1,0.3,0.2,0.6,0.3,0.9c0.1,0.3,0.2,0.6,0.2,0.9
		c0.1,0.3,0.1,0.5,0.1,0.7c0,0.2,0,0.4,0,0.6c0,0.4,0,0.7,0,1c0,0.2,0.1,0.4,0.1,0.4c0,0,0.1-0.1,0.2-0.3c0-0.2,0.1-0.4,0.1-0.7
		c0,0.3,0,0.7,0.1,1c0,0.1,0,0.2,0,0.4C64,58.4,64,58.7,64,59.1z"/>
	<path class="st1" d="M68,68.6c1.1-0.8,2-1.8,2.7-3l0.2-0.4c0.1-0.2,0.2-0.3,0.2-0.5c0.1-0.3,0.3-0.6,0.4-1c0.2-0.7,0.4-1.4,0.4-2.1
		c0.1-0.7,0.1-1.4,0-2.1c0-0.3-0.1-0.6-0.1-0.9c0-0.5,0-1-0.1-1.5c-0.1-0.6-0.3-1.1-0.5-1.7l-0.1-0.2c0-0.1-0.1-0.1-0.1-0.2
		c-0.1-0.1-0.1-0.3-0.2-0.4c-0.1-0.2-0.3-0.5-0.5-0.7c-0.4-0.6-1-1-1.5-1.4c-0.2-0.1-0.3-0.2-0.5-0.3c0.6,0.3,1.2,0.6,1.8,0.9
		c1.1,0.6,2.2,1.3,3.2,2.1c0.2,0.2,0.5,0.4,0.7,0.6c0.1,0.1,0.1,0.1,0.2,0.2c0,0,0,0,0,0c0.4,0.5,0.7,1,1,1.5
		c0.2,0.3,0.3,0.7,0.3,1.1c0,0.4,0,0.7,0,1.1c-0.1,0.8-0.5,1.6-0.9,2.4l-0.3,0.6l-0.1,0.2l-0.1,0.1c-0.1,0.1-0.1,0.2-0.2,0.3
		c-0.2,0.4-0.5,0.8-0.7,1.1c-0.5,0.7-1.2,1.4-1.9,2c-1.1,0.9-2.4,1.7-3.8,2.3C67.8,68.7,67.9,68.6,68,68.6z"/>
	<path class="st4" d="M64.3,72.1c-1,0.3-2,0.5-2.9,0.6c-0.2,0-0.5,0-0.7,0.1c-0.1,0-0.2,0-0.4,0l-0.4,0c-0.5,0-1,0-1.4-0.1
		c-0.6,0-1.2-0.1-1.8-0.2c-0.2,0-0.4-0.1-0.6-0.1c-0.8-0.2-1.6-0.4-2.3-0.6c-0.2-0.1-0.4-0.1-0.6-0.2c0,0,0,0,0,0
		c-0.5-0.2-1-0.4-1.4-0.6c-0.2-0.1-0.4-0.2-0.6-0.3c-0.1,0-0.2-0.1-0.3-0.1c-0.2-0.1-0.3-0.2-0.5-0.3c-0.5-0.3-1-0.6-1.4-1
		c-0.6-0.5-1.1-0.9-1.6-1.4c-0.2-0.3-0.5-0.5-0.7-0.8c-0.1-0.1-0.2-0.3-0.3-0.4l-0.3-0.4c-0.6-0.7-1-1.5-1.4-2.2
		c0.2,0.2,0.3,0.5,0.5,0.7c0.8,1,1.7,1.8,2.6,2.5c0.9,0.7,1.9,1.4,2.9,1.9c1,0.6,2,1.1,3.1,1.5c0.1,0,0.2,0.1,0.3,0.1
		c0.2,0.1,0.4,0.1,0.5,0.2l0.1,0l0.1,0l0.2,0.1c0.1,0,0.3,0.1,0.4,0.1c0.1,0,0.3,0.1,0.4,0.1c0.2,0.1,0.4,0.1,0.6,0.1
		c0.2,0,0.4,0.1,0.7,0.1c1.1,0.2,2.3,0.3,3.4,0.3c2.2,0,4.4-0.4,6.4-1.1c0.2-0.1,0.5-0.2,0.7-0.3C66.6,71.2,65.5,71.7,64.3,72.1z"/>
	<linearGradient id="SVGID_20_" gradientUnits="userSpaceOnUse" x1="81.7457" y1="61.2029" x2="111.8529" y2="61.2029">
		<stop  offset="0" style="stop-color:#0BABD1"/>
		<stop  offset="1" style="stop-color:#AD4A9B"/>
	</linearGradient>
	<path class="st29" d="M82.3,64.2c0.5,1.1,1.2,2.1,1.9,2.9c0.4,0.4,0.8,0.8,1.2,1.2l0.2,0.1l0.2,0.1c0.1,0.1,0.2,0.2,0.3,0.3
		c0.2,0.2,0.4,0.3,0.7,0.5c0.9,0.6,1.8,1.1,2.8,1.6c1.4,0.6,2.9,1.1,4.4,1.3c0.2,0,0.3,0.1,0.5,0.1c0.3,0,0.6,0.1,1,0.1
		c0.9,0.1,1.8,0.1,2.7,0c0.1,0,0.1,0,0.2,0c0.1,0,0.2,0,0.3,0c0.1,0,0.1,0,0.2,0c0.1,0,0.1,0,0.2,0c0,0,0.1,0,0.1,0
		c0.1,0,0.2,0,0.2,0l0.3-0.1c0.4-0.1,0.9-0.2,1.3-0.3c0.8-0.2,1.6-0.5,2.4-0.9c0.2-0.1,0.4-0.2,0.5-0.3c0.6-0.3,1.1-0.6,1.7-0.9
		c1.3-0.9,2.5-1.9,3.4-3c0.9-1.1,1.5-2.3,2-3.4c0.5-1.1,0.8-2.1,0.9-3.1c0.2-1,0.2-1.9,0-2.6c-0.1-0.6-0.4-1.1-0.7-1.5
		c-0.2-0.4-0.3-0.8-0.6-1.2c-0.6-1-1.5-1.8-2.4-2.4c-1.2-0.8-2.4-1.4-3.7-1.8c-0.3-0.1-0.6-0.2-1-0.3l-0.1,0l-0.1,0c0,0,0,0-0.1,0
		l0,0l-0.2-0.1c-0.2,0-0.3-0.1-0.5-0.1c-0.7-0.1-1.3-0.2-2-0.3c-2.6-0.2-5.3,0.1-7.7,0.9c-2.4,0.8-4.7,2.1-6.6,3.7
		c-0.9,0.8-1.8,1.7-2.6,2.6c-0.2,0.2-0.4,0.5-0.6,0.7c-0.2,0.3-0.4,0.5-0.5,0.8c-0.3,0.6-0.5,1.2-0.7,1.8c-0.1,0.6-0.1,1.3,0,1.9
		C81.9,63.1,82.1,63.7,82.3,64.2z"/>
	<path class="st1" d="M107.1,53.9c0.8,0.5,1.5,1.2,1.9,1.9c0.5,0.8,0.7,1.6,0.7,2.5c0,0.2,0,0.4,0,0.7l0,0.2l0,0.1l0,0l0,0
		c0,0.1,0,0.2-0.1,0.3c-0.1,0.4-0.3,0.8-0.5,1.3c-0.4,0.8-1,1.6-1.6,2.3c-0.6,0.7-1.3,1.4-2,2c-0.7,0.6-1.5,1.2-2.2,1.7
		c-0.2,0.1-0.4,0.3-0.6,0.4l-0.1,0.1l-0.1,0.1c-0.1,0-0.1,0.1-0.2,0.1c0,0,0,0,0,0c1-0.7,1.8-1.6,2.4-2.7l0.2-0.4
		c0.1-0.1,0.1-0.3,0.2-0.4c0.1-0.3,0.2-0.6,0.3-0.9c0.2-0.6,0.3-1.2,0.4-1.8c0.1-0.6,0.1-1.2,0-1.9c0-0.3-0.1-0.5-0.1-0.8
		c0-0.4,0-0.9-0.1-1.3c-0.1-0.5-0.3-1-0.5-1.5l-0.1-0.2c0-0.1-0.1-0.1-0.1-0.2c-0.1-0.1-0.1-0.2-0.2-0.3c-0.1-0.2-0.3-0.4-0.4-0.6
		c-0.4-0.5-0.8-0.9-1.3-1.3c-0.5-0.4-1-0.6-1.5-0.9c-0.2-0.1-0.4-0.1-0.5-0.2c0.3,0,0.6,0,0.9,0.1c1.3,0.1,2.4,0.3,3.4,0.5
		C105.9,53.2,106.5,53.5,107.1,53.9z"/>
	<path class="st1" d="M98.7,59.2l0,0.6c0,0.2,0,0.4,0,0.6c0,0.2,0,0.5-0.1,0.8c0,0.3,0,0.6-0.1,0.9c0,0.3,0,0.6-0.1,0.9
		c0,0.3-0.1,0.7-0.1,1c-0.1,0.3-0.1,0.7-0.2,1c-0.1,0.3-0.2,0.7-0.4,1c-0.1,0.2-0.2,0.4-0.3,0.5c0,0.1-0.1,0.2-0.1,0.2
		c-0.2,0.2-0.4,0.3-0.6,0.3c-0.2-0.1-0.5-0.3-0.7-0.7c-0.1-0.1-0.1-0.2-0.2-0.3c0-0.1-0.1-0.3-0.1-0.4c-0.1-0.2-0.1-0.4-0.2-0.6
		c0-0.1-0.1-0.3-0.1-0.4c0-0.1-0.1-0.3-0.1-0.5c-0.2-1.3-0.2-2.7-0.2-3.9c0-0.3,0-0.7,0.1-1c0-0.3,0.1-0.6,0.1-1l0.1-1
		c0-0.3,0.1-0.6,0.2-0.9c0-0.1,0.1-0.3,0.1-0.4c0-0.1,0.1-0.2,0.1-0.4c0.1-0.2,0.2-0.5,0.3-0.7c0.1-0.1,0.1-0.2,0.2-0.3
		c0-0.1,0.1-0.1,0.1-0.2c0,0,0.1-0.1,0.1-0.1c0.1-0.2,0.2-0.3,0.3-0.4c0.1-0.1,0.2-0.1,0.2-0.1c0.1,0,0.1,0,0.2,0l0,0l0,0
		c0,0,0,0,0,0c0,0,0,0,0,0l0,0c0,0,0,0,0.1,0c0.1,0.1,0.2,0.3,0.3,0.4c0.1,0.2,0.2,0.5,0.3,0.8c0.1,0.3,0.1,0.6,0.2,0.8
		c0.1,0.2,0.1,0.5,0.1,0.7c0,0.2,0,0.4,0,0.6c0,0.4,0,0.7,0,0.9c0,0.2,0,0.3,0.1,0.3c0,0,0.1-0.1,0.1-0.3c0-0.2,0.1-0.4,0.1-0.6
		c0,0.3,0,0.6,0.1,0.9c0,0.1,0,0.2,0,0.3C98.8,58.6,98.8,58.8,98.7,59.2z"/>
	<path class="st1" d="M84.2,58.8c0.2-0.2,0.3-0.4,0.5-0.7c0.7-0.9,1.5-1.7,2.4-2.4c1.2-1,2.4-1.8,3.8-2.4c-0.8,0.5-1.4,1.2-2,2
		c-0.6,0.9-1,1.9-1.2,3c-0.1,0.4-0.3,0.7-0.3,1.1c-0.3,1.1-0.3,2.3-0.1,3.5c0.2,1.2,0.7,2.3,1.5,3.2c0.7,0.9,1.6,1.6,2.5,2.2
		c0.4,0.2,0.8,0.4,1.3,0.6c-1.5-0.3-2.9-0.8-4.2-1.5c-0.7-0.4-1.4-0.9-2-1.4c-0.3-0.3-0.6-0.5-0.8-0.8c-0.1-0.1-0.1-0.1-0.2-0.2
		l-0.1-0.1l-0.1-0.1l-0.4-0.5c-0.5-0.6-1-1.3-1.2-1.9c-0.1-0.3-0.2-0.6-0.2-0.9c0-0.3,0-0.6,0.1-1c0.2-0.5,0.4-1,0.6-1.5
		c0,0,0,0,0,0C84.1,58.9,84.2,58.9,84.2,58.8z"/>
	<path class="st4" d="M110.1,63.1l-0.2,0.4c-0.1,0.1-0.1,0.3-0.2,0.4c-0.1,0.3-0.3,0.5-0.5,0.8c-0.3,0.5-0.7,1-1.1,1.5
		c-0.9,1-1.9,1.9-3.2,2.7c-0.4,0.2-0.8,0.5-1.3,0.7c-0.2,0.1-0.3,0.2-0.5,0.2c-0.8,0.4-1.6,0.7-2.5,0.9c-0.2,0.1-0.4,0.1-0.7,0.2
		c-0.2,0-0.4,0.1-0.6,0.1L99,71.1l0,0c0,0,0,0,0,0c-0.1,0-0.2,0-0.3,0c-0.1,0-0.1,0-0.2,0c-0.1,0-0.3,0-0.4,0.1
		c-0.8,0.1-1.7,0.1-2.6,0c0,0-0.1,0-0.1,0c-0.2,0-0.4,0-0.5-0.1c-0.9-0.1-1.7-0.3-2.6-0.6c0.2,0,0.4,0.1,0.6,0.1
		c0.7,0.1,1.5,0.2,2.2,0.2c0.2,0,0.4,0,0.6,0c0.9,0,1.9-0.1,2.8-0.3c0,0,0.1,0,0.1,0c0.1,0,0.3-0.1,0.4-0.1c0.3-0.1,0.5-0.1,0.8-0.2
		c0.4-0.1,0.9-0.3,1.3-0.4c0.1,0,0.3-0.1,0.4-0.2c0.5-0.2,0.9-0.4,1.4-0.6c0,0,0,0,0,0c0.1-0.1,0.2-0.1,0.3-0.2l0.2-0.1l0,0l0.2-0.1
		c0.2-0.1,0.4-0.3,0.6-0.4c0.8-0.5,1.6-1.2,2.4-1.8c0.8-0.7,1.5-1.4,2.2-2.2c0.7-0.8,1.3-1.6,1.8-2.6c0.1-0.2,0.2-0.4,0.3-0.7
		C110.7,61.7,110.4,62.4,110.1,63.1z"/>
</g>
</svg>
