<?xml version="1.0" encoding="utf-8"?>
<!-- Generator: Adobe Illustrator 21.0.0, SVG Export Plug-In . SVG Version: 6.00 Build 0)  -->
<svg version="1.1" id="Layer_1" xmlns="http://www.w3.org/2000/svg" xmlns:xlink="http://www.w3.org/1999/xlink" x="0px" y="0px"
	 viewBox="0 0 160 145" style="enable-background:new 0 0 160 145;" xml:space="preserve">
<style type="text/css">
	.st0{fill:#CB5990;}
	.st1{fill:#FFFFFF;}
	.st2{fill:#12B6BF;}
	.st3{fill:url(#SVGID_1_);}
	.st4{fill:#455BA8;}
	.st5{fill:#326EB6;}
	.st6{fill:#DD5968;}
	.st7{fill:#EF537A;}
	.st8{fill:url(#SVGID_2_);}
	.st9{fill:url(#SVGID_3_);}
	.st10{fill:url(#SVGID_4_);}
	.st11{fill:url(#SVGID_5_);}
	.st12{fill:#F16443;}
	.st13{fill:url(#SVGID_6_);}
	.st14{fill:#F68E3F;}
	.st15{fill:url(#SVGID_7_);}
	.st16{fill:url(#SVGID_8_);}
	.st17{fill:url(#SVGID_9_);}
	.st18{fill:url(#SVGID_10_);}
	.st19{fill:url(#SVGID_11_);}
	.st20{fill:url(#SVGID_12_);}
	.st21{fill:url(#SVGID_13_);}
	.st22{fill:url(#SVGID_14_);}
	.st23{fill:url(#SVGID_15_);}
	.st24{fill:url(#SVGID_16_);}
	.st25{fill:url(#SVGID_17_);}
	.st26{fill:#3DB66D;}
	.st27{fill:url(#SVGID_18_);}
	.st28{fill:url(#SVGID_19_);}
	.st29{fill:url(#SVGID_20_);}
	.st30{fill:url(#SVGID_21_);}
	.st31{fill:url(#SVGID_22_);}
	.st32{fill:url(#SVGID_23_);}
	.st33{fill:url(#SVGID_24_);}
	.st34{fill:url(#SVGID_25_);}
	.st35{fill:url(#SVGID_26_);}
	.st36{fill:url(#SVGID_27_);}
	.st37{fill:url(#SVGID_28_);}
	.st38{fill:url(#SVGID_29_);}
	.st39{fill:url(#SVGID_30_);}
	.st40{fill:url(#SVGID_31_);}
	.st41{fill:url(#SVGID_32_);}
	.st42{fill:url(#SVGID_33_);}
	.st43{fill:url(#SVGID_34_);}
	.st44{fill:url(#SVGID_35_);}
	.st45{fill:url(#SVGID_36_);}
	.st46{fill:url(#SVGID_37_);}
	.st47{fill:url(#SVGID_38_);}
	.st48{fill:url(#SVGID_39_);}
	.st49{fill:url(#SVGID_40_);}
	.st50{fill:url(#SVGID_41_);}
	.st51{fill:url(#SVGID_42_);}
	.st52{fill:url(#SVGID_43_);}
	.st53{fill:url(#SVGID_44_);}
	.st54{fill:url(#SVGID_45_);}
	.st55{fill:url(#SVGID_46_);}
	.st56{fill:url(#SVGID_47_);}
	.st57{fill:url(#SVGID_48_);}
	.st58{fill:url(#SVGID_49_);}
	.st59{fill:url(#SVGID_50_);}
	.st60{fill:url(#SVGID_51_);}
	.st61{fill:url(#SVGID_52_);}
	.st62{fill:url(#SVGID_53_);}
	.st63{fill:url(#SVGID_54_);}
	.st64{fill:url(#SVGID_55_);}
	.st65{fill:url(#SVGID_56_);}
	.st66{fill:url(#SVGID_57_);}
	.st67{fill:url(#SVGID_58_);}
	.st68{fill:url(#SVGID_59_);}
	.st69{fill:url(#SVGID_60_);}
	.st70{fill:url(#SVGID_61_);}
	.st71{fill:url(#SVGID_62_);}
	.st72{fill:url(#SVGID_63_);}
	.st73{fill:url(#SVGID_64_);}
	.st74{fill:url(#SVGID_65_);}
	.st75{fill:url(#SVGID_66_);}
	.st76{fill:url(#SVGID_67_);}
	.st77{fill:url(#SVGID_68_);}
	.st78{fill:url(#SVGID_69_);}
	.st79{fill:url(#SVGID_70_);}
	.st80{fill:url(#SVGID_71_);}
	.st81{fill:url(#SVGID_72_);}
	.st82{fill:url(#SVGID_73_);}
	.st83{fill:url(#SVGID_74_);}
	.st84{fill:url(#SVGID_75_);}
	.st85{fill:url(#SVGID_76_);}
	.st86{fill:url(#SVGID_77_);}
	.st87{fill:url(#SVGID_78_);}
	.st88{fill:url(#SVGID_79_);}
	.st89{fill:url(#SVGID_80_);}
	.st90{fill:url(#SVGID_81_);}
	.st91{fill:url(#SVGID_82_);}
	.st92{fill:url(#SVGID_83_);}
	.st93{fill:url(#SVGID_84_);}
	.st94{fill:url(#SVGID_85_);}
	.st95{fill:url(#SVGID_86_);}
	.st96{fill:url(#SVGID_87_);}
	.st97{fill:url(#SVGID_88_);}
	.st98{fill:url(#SVGID_89_);}
	.st99{fill:url(#SVGID_90_);}
	.st100{fill:url(#SVGID_91_);}
	.st101{fill:url(#SVGID_92_);}
	.st102{fill:url(#SVGID_93_);}
	.st103{fill:url(#SVGID_94_);}
	.st104{fill:url(#SVGID_95_);}
	.st105{fill:url(#SVGID_96_);}
	.st106{fill:url(#SVGID_97_);}
	.st107{fill:url(#SVGID_98_);}
	.st108{fill:url(#SVGID_99_);}
	.st109{fill:url(#SVGID_100_);}
	.st110{fill:url(#SVGID_101_);}
	.st111{fill:url(#SVGID_102_);}
	.st112{fill:url(#SVGID_103_);}
	.st113{fill:url(#SVGID_104_);}
	.st114{fill:url(#SVGID_105_);}
	.st115{fill:url(#SVGID_106_);}
	.st116{fill:url(#SVGID_107_);}
	.st117{fill:url(#SVGID_108_);}
	.st118{fill:url(#SVGID_109_);}
	.st119{fill:url(#SVGID_110_);}
	.st120{fill:url(#SVGID_111_);}
	.st121{fill:url(#SVGID_112_);}
	.st122{fill:url(#SVGID_113_);}
	.st123{fill:url(#SVGID_114_);}
	.st124{fill:url(#SVGID_115_);}
	.st125{fill:url(#SVGID_116_);}
	.st126{fill:url(#SVGID_117_);}
	.st127{fill:url(#SVGID_118_);}
	.st128{fill:url(#SVGID_119_);}
	.st129{fill:url(#SVGID_120_);}
	.st130{fill:url(#SVGID_121_);}
	.st131{fill:url(#SVGID_122_);}
	.st132{fill:url(#SVGID_123_);}
	.st133{fill:url(#SVGID_124_);}
	.st134{fill:url(#SVGID_125_);}
	.st135{fill:url(#SVGID_126_);}
	.st136{fill:url(#SVGID_127_);}
	.st137{fill:#184054;}
	.st138{fill:url(#SVGID_128_);}
	.st139{fill:url(#SVGID_129_);}
	.st140{fill:url(#SVGID_130_);}
	.st141{fill:url(#SVGID_131_);}
	.st142{fill:url(#SVGID_132_);}
	.st143{fill:url(#SVGID_133_);}
	.st144{fill:url(#SVGID_134_);}
	.st145{fill:url(#SVGID_135_);}
	.st146{fill:url(#SVGID_136_);}
	.st147{fill:url(#SVGID_137_);}
	.st148{fill:url(#SVGID_138_);}
	.st149{fill:url(#SVGID_139_);}
	.st150{fill:url(#SVGID_140_);}
	.st151{fill:url(#SVGID_141_);}
	.st152{fill:url(#SVGID_142_);}
	.st153{fill:url(#SVGID_143_);}
	.st154{fill:url(#SVGID_144_);}
	.st155{fill:url(#SVGID_145_);}
	.st156{fill:url(#SVGID_146_);}
	.st157{fill:url(#SVGID_147_);}
	.st158{fill:url(#SVGID_148_);}
	.st159{fill:url(#SVGID_149_);}
	.st160{fill:url(#SVGID_150_);}
	.st161{fill:url(#SVGID_151_);}
	.st162{fill:url(#SVGID_152_);}
	.st163{fill:url(#SVGID_153_);}
	.st164{fill:url(#SVGID_154_);}
	.st165{fill:url(#SVGID_155_);}
	.st166{fill:url(#SVGID_156_);}
	.st167{fill:url(#SVGID_157_);}
	.st168{fill:url(#SVGID_158_);}
	.st169{fill:url(#SVGID_159_);}
	.st170{fill:url(#SVGID_160_);}
	.st171{fill:url(#SVGID_161_);}
	.st172{fill:url(#SVGID_162_);}
	.st173{fill:url(#SVGID_163_);}
	.st174{fill:url(#SVGID_164_);}
	.st175{fill:url(#SVGID_165_);}
	.st176{fill:url(#SVGID_166_);}
	.st177{fill:url(#SVGID_167_);}
	.st178{fill:url(#SVGID_168_);}
	.st179{fill:url(#SVGID_169_);}
	.st180{fill:url(#SVGID_170_);}
	.st181{fill:url(#SVGID_171_);}
	.st182{fill:url(#SVGID_172_);}
	.st183{fill:url(#SVGID_173_);}
	.st184{fill:url(#SVGID_174_);}
	.st185{fill:url(#SVGID_175_);}
	.st186{fill:url(#SVGID_176_);}
	.st187{fill:url(#SVGID_177_);}
	.st188{fill:url(#SVGID_178_);}
	.st189{fill:url(#SVGID_179_);}
	.st190{fill:url(#SVGID_180_);}
	.st191{fill:url(#SVGID_181_);}
	.st192{fill:url(#SVGID_182_);}
	.st193{fill:url(#SVGID_183_);}
	.st194{fill:url(#SVGID_184_);}
	.st195{fill:url(#SVGID_185_);}
	.st196{fill:url(#SVGID_186_);}
	.st197{fill:url(#SVGID_187_);}
	.st198{fill:url(#SVGID_188_);}
	.st199{fill:url(#SVGID_189_);}
	.st200{fill:url(#SVGID_190_);}
	.st201{fill:url(#SVGID_191_);}
	.st202{fill:url(#SVGID_192_);}
	.st203{fill:url(#SVGID_193_);}
	.st204{fill:url(#SVGID_194_);}
	.st205{fill:url(#SVGID_195_);}
	.st206{fill:url(#SVGID_196_);}
	.st207{fill:url(#SVGID_197_);}
	.st208{fill:url(#SVGID_198_);}
	.st209{fill:url(#SVGID_199_);}
	.st210{fill:url(#SVGID_200_);}
	.st211{fill:url(#SVGID_201_);}
	.st212{fill:url(#SVGID_202_);}
	.st213{fill:url(#SVGID_203_);}
	.st214{fill:url(#SVGID_204_);}
	.st215{fill:url(#SVGID_205_);}
	.st216{fill:url(#SVGID_206_);}
	.st217{fill:url(#SVGID_207_);}
	.st218{fill:url(#SVGID_208_);}
	.st219{fill:#969697;}
	.st220{fill:url(#SVGID_209_);}
	.st221{fill:url(#SVGID_210_);}
	.st222{fill:url(#SVGID_211_);}
	.st223{fill:url(#SVGID_212_);}
	.st224{fill:url(#SVGID_213_);}
	.st225{fill:url(#SVGID_214_);}
	.st226{fill:url(#SVGID_215_);}
	.st227{fill:url(#SVGID_216_);}
	.st228{fill:url(#SVGID_217_);}
	.st229{fill:url(#SVGID_218_);}
	.st230{fill:url(#SVGID_219_);}
	.st231{fill:url(#SVGID_220_);}
	.st232{fill:url(#SVGID_221_);}
	.st233{fill:url(#SVGID_222_);}
	.st234{fill:url(#SVGID_223_);}
	.st235{fill:url(#SVGID_224_);}
	.st236{fill:url(#SVGID_225_);}
	.st237{fill:url(#SVGID_226_);}
	.st238{fill:url(#SVGID_227_);}
	.st239{fill:url(#SVGID_228_);}
	.st240{fill:url(#SVGID_229_);}
	.st241{fill:url(#SVGID_230_);}
	.st242{fill:url(#SVGID_231_);}
	.st243{fill:url(#SVGID_232_);}
	.st244{fill:url(#SVGID_233_);}
	.st245{fill:url(#SVGID_234_);}
	.st246{fill:url(#SVGID_235_);}
	.st247{fill:url(#SVGID_236_);}
	.st248{fill:url(#SVGID_237_);}
	.st249{fill:url(#SVGID_238_);}
	.st250{fill:url(#SVGID_239_);}
	.st251{fill:url(#SVGID_240_);}
	.st252{fill:url(#SVGID_241_);}
	.st253{fill:url(#SVGID_242_);}
	.st254{fill:url(#SVGID_243_);}
	.st255{fill:url(#SVGID_244_);}
	.st256{fill:url(#SVGID_245_);}
	.st257{fill:url(#SVGID_246_);}
	.st258{fill:url(#SVGID_247_);}
	.st259{fill:url(#SVGID_248_);}
	.st260{fill:url(#SVGID_249_);}
	.st261{fill:url(#SVGID_250_);}
	.st262{fill:url(#SVGID_251_);}
	.st263{fill:url(#SVGID_252_);}
	.st264{fill:url(#SVGID_253_);}
	.st265{fill:url(#SVGID_254_);}
	.st266{fill:url(#SVGID_255_);}
	.st267{fill:url(#SVGID_256_);}
	.st268{fill:url(#SVGID_257_);}
	.st269{fill:url(#SVGID_258_);}
	.st270{fill:url(#SVGID_259_);}
	.st271{fill:url(#SVGID_260_);}
	.st272{fill:url(#SVGID_261_);}
	.st273{fill:url(#SVGID_262_);}
	.st274{fill:url(#SVGID_263_);}
	.st275{fill:url(#SVGID_264_);}
	.st276{fill:url(#SVGID_265_);}
	.st277{fill:url(#SVGID_266_);}
	.st278{fill:url(#SVGID_267_);}
	.st279{fill:#F69474;}
	.st280{fill:#F27350;}
	.st281{fill:url(#SVGID_268_);}
	.st282{fill:url(#SVGID_269_);}
	.st283{fill:url(#SVGID_270_);}
	.st284{fill:url(#SVGID_271_);}
	.st285{fill:url(#SVGID_272_);}
	.st286{fill:url(#SVGID_273_);}
	.st287{fill:url(#SVGID_274_);}
	.st288{fill:url(#SVGID_275_);}
	.st289{fill:url(#SVGID_276_);}
	.st290{fill:url(#SVGID_277_);}
	.st291{fill:url(#SVGID_278_);}
	.st292{fill:url(#SVGID_279_);}
	.st293{fill:url(#SVGID_280_);}
	.st294{fill:url(#SVGID_281_);}
	.st295{fill:url(#SVGID_282_);}
	.st296{fill:url(#SVGID_283_);}
	.st297{fill:url(#SVGID_284_);}
	.st298{fill:url(#SVGID_285_);}
	.st299{fill:url(#SVGID_286_);}
	.st300{fill:url(#SVGID_287_);}
	.st301{fill:url(#SVGID_288_);}
	.st302{fill:url(#SVGID_289_);}
	.st303{fill:url(#SVGID_290_);}
	.st304{fill:url(#SVGID_291_);}
	.st305{fill:url(#SVGID_292_);}
	.st306{fill:url(#SVGID_293_);}
</style>
<g>
	<path class="st6" d="M142.3,80c-0.4-3.2-1.1-6.4-1.9-9.5c-0.9-3.1-2-6.1-3.3-9c-1.3-2.9-2.9-5.7-4.8-8.2c-0.9-1.3-1.9-2.5-3-3.6
		c-1.1-1.1-2.3-2.1-3.6-2.9c-0.9-0.6-1.7-0.9-2.4-1.1c-0.5-0.1-0.9-0.2-1.1-0.2c0-0.1,0-0.2,0-0.4c-0.2-4.3-0.9-8.9-2-13.7
		c-0.6-2.4-1.2-4.8-2-7.2c-0.8-2.4-1.8-4.8-2.9-7.2c-0.2-0.3-0.5-0.6-0.8-0.7c-0.1-0.1-0.3-0.2-0.5-0.3c-0.2-0.1-0.3,0-0.5,0
		c-0.1,0-0.2,0-0.3,0.1c0,0-0.1,0-0.1,0c-0.2-0.1-0.3-0.1-0.5-0.1c-0.2,0-0.4,0.2-0.5,0.3c-1,1.3-1.8,2.6-2.7,4
		c-0.1,0.1-0.2,0.3-0.2,0.4c-0.2,0.2-0.3,0.5-0.5,0.7c-1.3,1.9-2.6,3.9-3.9,5.9l-4.1,6.3c-0.3,0.4-0.5,0.8-0.8,1.2
		c-0.7,0.6-1.4,1.2-2.2,1.7c-1.1,0.8-2.2,1.5-3.4,2.1c0,0,0,0,0,0c-0.3,0.2-0.6,0.3-1,0.5c-0.9,0.4-1.7,0.7-2.7,0.9
		c-1.3,0.3-2.2,0.4-2.6,0.6c-5.7,0.1-11.5,0.2-17.3,0.3c-1.1-0.3-2.2-0.7-3.2-1.2c-1.2-0.6-2.3-1.3-3.4-2.1
		c-2.2-1.6-4.2-3.4-6.2-5.4c-0.3-0.3-0.6-0.6-0.9-1l-1.1-1.7c-0.7-1.1-1.4-2.1-2.1-3.2c-0.3-0.7-0.7-1.3-1-2
		c-0.6-1.1-1.2-2.2-1.9-3.2c-0.5-0.9-1.1-1.7-1.7-2.5c0,0,0,0,0,0l0,0c-0.1-0.2-0.3-0.4-0.4-0.5l0,0c-0.1-0.1-0.2-0.2-0.4-0.2
		c-0.3-0.4-0.8-0.5-1.2-0.3c-0.1,0.1-0.2,0.1-0.3,0.2c-0.1,0-0.1,0-0.2,0c-0.1,0-0.2,0.1-0.2,0.2c-0.1,0.2-0.2,0.4-0.3,0.6l-0.5,0
		c0.1,0.2,0.1,0.4,0.2,0.6c-1.6,3.7-2.9,7.6-4,11.5c-1.2,4.3-2.1,8.8-2.8,13.2C39,44.8,39,45.4,39,45.9c-0.4,0.1-1,0.2-1.3,0.2
		c-1.9,0.6-3.7,1.7-5.4,3.1c-1.7,1.4-3.2,3.1-4.6,4.9c-1.4,1.9-2.6,3.9-3.8,6c-1.1,2.1-2.1,4.4-3,6.8c-1.7,4.7-2.9,9.8-3.4,15.1
		c-0.3,2.6-0.3,5.3-0.2,8c0.2,2.7,0.5,5.4,1.1,8c0.5,2.6,1.2,5.2,2.2,7.8c0.5,1.3,1,2.5,1.7,3.7c0.3,0.6,0.7,1.2,1.1,1.7
		c0.1,0.1,0.2,0.3,0.3,0.4l0.2,0.2l0.1,0.2l0.3,0.4l0.3,0.4c1.6,2,3.5,3.9,5.4,5.5c1.9,1.6,4,3.1,6.1,4.3c4,2.3,8.2,3.8,12.4,4.8
		c0,0,0,0,0,0c0,0,0.1,0,0.2,0c0,0,0.1,0,0.1,0c0,0,0,0,0,0c0.3,0.1,0.6,0.1,0.7,0.1c1.1,0.2,2.2,0.4,3.4,0.6l0.8,0.1l0.4,0.1
		l0.4,0.1c0.6,0.1,1.1,0.1,1.7,0.2c2.2,0.2,4.4,0.2,6.5,0.3c5.9,0.1,11.9,0.1,17.8,0c5.9-0.1,11.9-0.3,17.9-0.6
		c1.5-0.1,3-0.2,4.5-0.3c0.7-0.1,1.5-0.1,2.2-0.2c0.4,0,0.7-0.1,1.1-0.1c0.2,0,0.4-0.1,0.6-0.1l0.6-0.1c3-0.5,5.9-1.2,8.8-2.1
		c2.9-1,5.7-2.2,8.3-3.8c2.6-1.6,5.1-3.5,7.4-5.6c1.1-1.1,2.2-2.2,3.2-3.5c0.5-0.6,1-1.2,1.5-1.9c0.5-0.6,0.9-1.3,1.3-2.1
		c0.8-1.4,1.4-2.9,1.9-4.5c0.5-1.5,1-3.1,1.3-4.7c0.4-1.6,0.7-3.2,0.9-4.8c0.2-1.6,0.4-3.2,0.5-4.9C142.8,86.5,142.6,83.3,142.3,80z
		"/>
	<linearGradient id="SVGID_1_" gradientUnits="userSpaceOnUse" x1="18.6379" y1="73.2059" x2="141.1146" y2="73.2059">
		<stop  offset="0" style="stop-color:#00A8C2"/>
		<stop  offset="8.206314e-02" style="stop-color:#09ABBF"/>
		<stop  offset="0.482" style="stop-color:#2FB6B3"/>
		<stop  offset="0.8019" style="stop-color:#47BCAB"/>
		<stop  offset="1" style="stop-color:#50BFA8"/>
	</linearGradient>
	<path class="st3" d="M141.1,88.7c-0.1,1.4-0.2,2.9-0.4,4.3c-0.4,2.9-0.9,5.7-1.7,8.5c-0.4,1.4-0.9,2.7-1.4,4
		c-0.5,1.3-1.2,2.5-1.9,3.6c-0.1,0.1-0.2,0.3-0.3,0.4l-0.4,0.5c-0.2,0.3-0.5,0.6-0.7,0.9c-0.5,0.6-1,1.2-1.5,1.7
		c-1,1.1-2.1,2.2-3.2,3.2c-2.2,2-4.7,3.7-7.3,5.1c-2.1,1.2-4.4,2.1-6.6,2.9c-0.3,0.1-0.7,0.2-1,0.3c-3,0.9-6,1.6-9.1,2
		c-1.5,0.2-2.9,0.3-4.4,0.4c-1.5,0.1-3,0.2-4.4,0.3c-3,0.2-5.9,0.3-8.9,0.4c-5.9,0.2-11.9,0.3-17.8,0.4c-2.5,0-4.9,0-7.4,0
		c-1.2,0-2.4-0.1-3.7-0.1c-1.2,0-2.4-0.1-3.6-0.2c-0.6-0.1-1.2-0.1-1.8-0.2c-0.6-0.1-1.2-0.2-1.8-0.3c-0.5-0.1-2-0.4-2.6-0.5
		c-0.3-0.1-0.6-0.1-1-0.2c-2.3-0.6-4.7-1.3-6.9-2.3c-2.2-0.9-4.4-2.1-6.4-3.4c-2-1.3-4-2.9-5.8-4.6c-0.9-0.9-1.8-1.8-2.6-2.7
		c-0.4-0.5-0.8-1-1.2-1.4l-0.6-0.7c-0.2-0.2-0.4-0.5-0.5-0.8c-0.7-1-1.3-2.2-1.8-3.3c-0.5-1.2-1-2.4-1.3-3.6c-0.8-2.5-1.3-5-1.8-7.6
		c-0.4-2.6-0.7-5.2-0.7-7.8c-0.1-5.2,0.7-10.5,2-15.5c0.7-2.5,1.5-5,2.5-7.4c1-2.4,2.1-4.8,3.4-7c1.3-2.2,2.8-4.3,4.5-6.2
		c0.9-0.9,1.8-1.8,2.8-2.6c1-0.8,2-1.5,3.1-2c0.8-0.4,1.8-0.5,2.3-0.7c0.1,0.1,0.1,0,0.2-0.1c0.1-0.1,0.4-0.5,0.2-0.5c0,0,0,0,0,0
		c0.1-0.3,0.2-0.6,0.3-1.1c0.9-4.4,2-8.8,3.3-13.2c0.6-2.2,1.4-4.3,2.1-6.5c0.4-1.2,0.9-2.4,1.4-3.5c0,0.1,0,0.1,0.1,0.2
		c0,0.2,0.1,0.3,0.1,0.5c0.1,0.3,0.2,0.7,0.3,1c0.2,0.6,0.4,1.2,0.6,1.8c0.7,2.1,1.5,4.2,2.2,6.3c0.7,2,1.5,3.9,2.3,5.8
		c0.4,1,0.9,1.9,1.4,2.9c0.3,0.5,0.5,1,0.9,1.4c0.2,0.2,0.4,0.5,0.6,0.7c0.1,0.1,0.3,0.2,0.5,0.4c0.2,0.1,0.4,0.2,0.8,0.3
		c0,0,0.1,0,0.1,0h0c10-0.2,20-0.4,30-0.7l10.6-0.3l5.2-0.2l1.3,0l0.7,0l0.1,0l0.1,0c0,0,0,0,0.1,0c0.1,0,0.2,0,0.3-0.1
		c0.2-0.1,0.3-0.2,0.4-0.2c0.2-0.2,0.4-0.4,0.5-0.6c0.2-0.2,0.3-0.4,0.4-0.6c0.3-0.4,0.5-0.8,0.7-1.2c0.4-0.8,0.8-1.7,1.2-2.6
		c0.4-0.9,0.7-1.7,1-2.6c0.7-1.8,1.3-3.5,1.9-5.3c0.3-0.8,0.5-1.6,0.8-2.5c0.1-0.3,0.2-0.6,0.4-0.9c0.3-0.9,0.7-1.8,1-2.7
		c0.1-0.3,0.2-0.6,0.3-0.9c0.2-0.3,0.3-0.6,0.5-0.9c0.3-0.5,0.5-1,0.7-1.6c0.8,1.7,1.5,3.4,2.1,5.2c0.8,2.2,1.5,4.4,2.1,6.6
		c1.2,4.5,2.2,9.1,2.8,13.8c0.1,0.6,0.2,1,0.3,1.2c0,0.1,0.1,0.2,0.4,0.3c0.4,0.2,1,0.6,2,1.1c1.1,0.7,2.1,1.5,3.1,2.4
		c1,0.9,1.9,1.9,2.7,3c1.7,2.2,3.2,4.5,4.4,7.1c1.3,2.5,2.4,5.2,3.3,7.9c0.9,2.7,1.6,5.5,2.2,8.3c0.5,2.8,0.9,5.7,1,8.6
		C141.1,85.8,141.1,87.3,141.1,88.7z"/>
	<path class="st7" d="M56.7,110L56.7,110L56.7,110l0.1-0.1l0,0c0.1-0.1,0.2-0.2,0.3-0.3c0.2-0.2,0.4-0.5,0.6-0.7
		c0.4-0.5,0.7-1,1-1.6c0.3-0.6,0.5-1.2,0.6-1.9c0.1-0.7,0.1-1.4-0.1-2c-0.2-0.7-0.4-1.3-0.8-1.8c-0.4-0.5-0.8-1-1.2-1.4
		c-0.2-0.2-0.4-0.3-0.5-0.5c0,0.7,0,1.5,0,2.2c-0.1,2.7-0.4,5.5-0.8,8.1c-0.1,0.3-0.1,0.7-0.2,1c0.3-0.2,0.6-0.4,0.8-0.7
		C56.5,110.1,56.6,110.1,56.7,110z"/>
	<path class="st7" d="M46.4,112.6c0.5,0.1,1,0.2,1.4,0.2c0.5-1.7,1-3.5,1.4-5.3c0.5-2.5,1-5.1,1.2-7.7c0-0.4,0.1-0.7,0.1-1.1
		c-0.4,0.6-0.7,1.2-1,1.8c-0.8,1.6-1.5,3.3-2.2,5c-0.6,1.7-1.2,3.5-1.7,5.2c-0.1,0.5-0.3,1.1-0.4,1.6c0.1,0,0.2,0.1,0.4,0.1
		C45.9,112.4,46.2,112.5,46.4,112.6z"/>
	<path class="st7" d="M54.6,111.5c0.6-2.9,1-5.8,1.1-8.8c0.1-1.3,0.1-2.6,0-3.8c0,0,0,0,0,0c-0.5-0.3-1.1-0.5-1.6-0.7
		c-0.9-0.3-1.7-0.5-2.6-0.6c-0.2,2.9-0.6,5.7-1.1,8.5c-0.4,2.3-1,4.5-1.7,6.7c1.6,0,3.2-0.3,4.6-0.7
		C53.7,111.9,54.2,111.7,54.6,111.5z"/>
	<path class="st7" d="M41.4,100.7c-0.1,0.4-0.3,0.7-0.4,1.1c-0.4,1.1-0.8,2.2-1.2,3.4c0.1,0.8,0.3,1.6,0.6,2.4
		c0.2,0.5,0.5,1,0.8,1.5c0.6-1.7,1.1-3.4,1.6-5.1c0.4-1.7,0.8-3.3,1.1-5C43,99.3,42.1,99.9,41.4,100.7z"/>
	<path class="st7" d="M42.3,110.3c0.7,0.7,1.5,1.2,2.3,1.6c0.5-2.1,1.1-4.1,1.8-6.2c0.9-2.5,1.9-5,3.2-7.3c0.2-0.4,0.4-0.7,0.7-1.1
		c-1,0-2.1,0-3.1,0.3c-0.5,0.1-1.5,0.4-2.5,0.8c-0.3,1.9-0.7,3.7-1.2,5.6c-0.5,1.9-1.1,3.8-1.7,5.6
		C41.9,109.9,42.1,110.1,42.3,110.3z"/>
	<path class="st7" d="M120.3,108.5c0.6-2.9,1-5.8,1.1-8.8c0.1-1.3,0.1-2.6,0-3.8c0,0,0,0,0,0c-0.5-0.3-1.1-0.5-1.6-0.7
		c-0.9-0.3-1.7-0.5-2.6-0.6c-0.2,2.9-0.6,5.7-1.1,8.5c-0.4,2.3-1,4.5-1.6,6.7c1.6,0,3.2-0.3,4.6-0.7
		C119.5,108.9,119.9,108.7,120.3,108.5z"/>
	<path class="st7" d="M122.4,107L122.4,107L122.4,107l0.1-0.1l0,0c0.1-0.1,0.2-0.2,0.3-0.3c0.2-0.2,0.4-0.5,0.6-0.7
		c0.4-0.5,0.7-1,1-1.6c0.3-0.6,0.5-1.2,0.6-1.9c0.1-0.7,0.1-1.4-0.1-2c-0.2-0.7-0.4-1.3-0.8-1.8c-0.4-0.5-0.8-1-1.2-1.4
		c-0.2-0.2-0.3-0.3-0.5-0.5c0,0.7,0,1.5,0,2.2c-0.1,2.7-0.4,5.5-0.8,8.1c-0.1,0.3-0.1,0.7-0.2,1c0.3-0.2,0.6-0.4,0.8-0.7
		C122.3,107.1,122.3,107.1,122.4,107z"/>
	<path class="st7" d="M108,107.3c0.7,0.7,1.5,1.2,2.3,1.6c0.5-2.1,1.1-4.1,1.8-6.2c0.9-2.5,1.9-5,3.2-7.3c0.2-0.4,0.4-0.7,0.7-1.1
		c-1,0-2.1,0-3.1,0.3c-0.5,0.1-1.5,0.4-2.5,0.8c-0.3,1.9-0.7,3.7-1.2,5.6c-0.5,1.9-1.1,3.8-1.7,5.6C107.6,107,107.8,107.2,108,107.3
		z"/>
	<path class="st7" d="M107.1,97.8c-0.1,0.4-0.3,0.7-0.4,1.1c-0.4,1.1-0.8,2.2-1.2,3.4c0.1,0.8,0.3,1.6,0.6,2.4
		c0.2,0.5,0.5,1,0.8,1.5c0.6-1.7,1.1-3.4,1.6-5.1c0.4-1.7,0.8-3.3,1.1-5C108.7,96.4,107.8,97,107.1,97.8z"/>
	<path class="st7" d="M112.2,109.6c0.5,0.1,1,0.2,1.4,0.2c0.5-1.7,1-3.5,1.4-5.3c0.6-2.5,1-5.1,1.2-7.7c0-0.4,0.1-0.7,0.1-1.1
		c-0.4,0.6-0.7,1.2-1,1.8c-0.8,1.6-1.5,3.3-2.2,5c-0.6,1.7-1.2,3.5-1.7,5.2c-0.1,0.5-0.3,1.1-0.4,1.6c0.1,0,0.2,0.1,0.4,0.1
		C111.7,109.5,111.9,109.5,112.2,109.6z"/>
	<g>
		<path class="st12" d="M115.6,58c0,0.1,0.1,0.2,0.2,0.3c0,0.1,0.1,0.1,0.1,0.2c0,0,0.1,0.1,0.2,0.1c0,0,0,0,0.1,0l0,0l0,0
			c0,0,0.1,0,0.1-0.1c0.1-0.1,0.1-0.1,0.1-0.2c0.1-0.1,0.1-0.2,0.2-0.4c0.1-0.2,0.1-0.5,0.2-0.7c0.1-0.5,0.1-1,0.2-1.5
			c0-0.5,0.1-1,0.1-1.5c0-0.5,0-1,0-1.5c0-0.5,0-1-0.1-1.5c0-0.5-0.1-1-0.2-1.5c0-0.2-0.1-0.5-0.2-0.7c-0.1-0.2-0.1-0.5-0.3-0.7
			c0-0.1-0.1-0.1-0.2-0.1c0,0,0,0-0.1,0c0,0,0,0,0,0c0,0,0,0-0.1,0c-0.1,0-0.2,0.1-0.2,0.1c-0.1,0.1-0.1,0.1-0.2,0.2
			c-0.1,0.2-0.2,0.3-0.2,0.5c-0.1,0.3-0.2,0.7-0.3,1.1c-0.1,0.8-0.1,1.6-0.1,2.4c0,0.8,0.1,1.6,0.1,2.4c0.1,0.8,0.2,1.5,0.3,2.2
			C115.5,57.5,115.5,57.7,115.6,58z"/>
		<path class="st12" d="M110.6,57.4c0,0.1,0.1,0.2,0.2,0.3c0,0.1,0.1,0.1,0.1,0.2c0,0.1,0.1,0.1,0.2,0.1c0,0,0,0,0.1,0l0,0l0,0
			c0,0,0.1,0,0.1-0.1c0.1,0,0.1-0.1,0.1-0.2c0.1-0.1,0.1-0.2,0.2-0.4c0.1-0.2,0.1-0.5,0.2-0.7c0.1-0.5,0.1-1,0.2-1.5
			c0-0.5,0.1-1,0.1-1.5c0-0.5,0-1,0-1.5c0-0.5,0-1-0.1-1.5c0-0.5-0.1-1-0.2-1.5c0-0.2-0.1-0.5-0.2-0.7c-0.1-0.2-0.1-0.5-0.3-0.7
			c0-0.1-0.1-0.1-0.2-0.1c0,0,0,0-0.1,0c0,0,0,0,0,0c0,0,0,0-0.1,0c-0.1,0-0.2,0.1-0.2,0.1c-0.1,0.1-0.1,0.1-0.2,0.2
			c-0.1,0.1-0.2,0.3-0.2,0.5c-0.1,0.3-0.2,0.7-0.2,1.1c-0.1,0.8-0.1,1.6-0.1,2.4c0,0.8,0,1.6,0.1,2.4c0.1,0.8,0.2,1.5,0.3,2.2
			C110.4,57,110.5,57.2,110.6,57.4z"/>
		<path class="st12" d="M104.8,57.1c0,0.1,0.1,0.2,0.1,0.3c0,0.1,0.1,0.1,0.1,0.1c0,0,0.1,0.1,0.2,0.1c0,0,0,0,0.1,0l0,0
			c0,0,0,0,0,0c0,0,0.1,0,0.1-0.1c0,0,0.1-0.1,0.1-0.1c0.1-0.1,0.1-0.2,0.1-0.3c0.1-0.2,0.1-0.4,0.1-0.7c0.1-0.4,0.1-0.9,0.1-1.3
			c0-0.4,0-0.9,0.1-1.3c0-0.9,0-1.8-0.1-2.7c0-0.4-0.1-0.9-0.2-1.3c0-0.2-0.1-0.4-0.1-0.6c-0.1-0.2-0.1-0.4-0.3-0.6
			c0-0.1-0.1-0.1-0.1-0.1c0,0,0,0-0.1,0c0,0,0,0,0,0c0,0,0,0-0.1,0c-0.1,0-0.1,0.1-0.2,0.1c-0.1,0.1-0.1,0.1-0.1,0.2
			c-0.1,0.1-0.1,0.3-0.2,0.4c-0.1,0.3-0.2,0.6-0.2,1c-0.1,0.7-0.1,1.4-0.1,2.1c0,0.7,0.1,1.5,0.1,2.2c0.1,0.7,0.2,1.4,0.3,2
			C104.6,56.7,104.7,56.9,104.8,57.1z"/>
		<path class="st12" d="M98.8,58.1c0,0,0.1,0.1,0.1,0.1c0,0,0.1,0.1,0.2,0.1c0,0,0,0,0.1,0l0,0c0,0,0,0,0,0c0,0,0.1,0,0.1-0.1
			c0,0,0.1-0.1,0.1-0.1c0.1-0.1,0.1-0.2,0.1-0.3c0.1-0.2,0.1-0.4,0.1-0.6c0.1-0.4,0.1-0.8,0.1-1.3c0-0.4,0.1-0.9,0.1-1.3
			c0-0.9,0-1.7-0.1-2.5c0-0.4-0.1-0.8-0.2-1.3c0-0.2-0.1-0.4-0.1-0.6c-0.1-0.2-0.1-0.4-0.2-0.6c0-0.1-0.1-0.1-0.1-0.1c0,0,0,0-0.1,0
			c0,0,0,0,0,0c0,0,0,0-0.1,0c-0.1,0-0.1,0.1-0.2,0.1c-0.1,0.1-0.1,0.1-0.1,0.2c-0.1,0.1-0.1,0.3-0.2,0.4c-0.1,0.3-0.2,0.6-0.2,0.9
			c-0.1,0.7-0.1,1.3-0.1,2c0,1.4,0.2,2.8,0.4,4c0,0.2,0.1,0.4,0.2,0.6C98.7,57.9,98.8,58,98.8,58.1z"/>
		<path class="st12" d="M48.2,48.2C48.2,48.2,48.2,48.2,48.2,48.2c-0.1,0-0.2,0.1-0.2,0.1c0,0-0.1,0.1-0.1,0.1c0,0,0,0.1,0,0.1
			c0,0,0,0,0,0.1c-0.1,0.1-0.1,0.2-0.1,0.3c-0.1,0.2-0.1,0.4-0.2,0.7c-0.1,0.4-0.2,0.9-0.2,1.3c-0.1,0.9-0.1,1.8-0.1,2.7
			c0,1,0.1,2,0.2,3c0,0.1,0,0.2,0.1,0.4c0,0.1,0,0.3,0.1,0.4c0.1,0.2,0.1,0.5,0.2,0.7c0.1,0.1,0.1,0.2,0.2,0.4
			c0.1,0.1,0.1,0.1,0.2,0.1c0.1,0,0.2,0,0.3-0.1c0.1-0.1,0.2-0.2,0.2-0.3c0.1-0.1,0.1-0.2,0.1-0.4c0.1-0.4,0.2-0.8,0.3-1.2
			c0.1-0.4,0.1-0.8,0.1-1.2c0.1-0.8,0.1-1.6,0.1-2.4c0-0.8,0-1.6-0.1-2.4c0-0.4-0.1-0.8-0.2-1.2c0-0.2-0.1-0.4-0.1-0.6
			c0-0.1-0.1-0.2-0.1-0.3c0-0.1-0.1-0.2-0.2-0.3C48.4,48.3,48.3,48.3,48.2,48.2C48.3,48.3,48.3,48.3,48.2,48.2
			C48.3,48.3,48.3,48.3,48.2,48.2c0,0.1,0,0.1,0,0.1C48.2,48.3,48.3,48.3,48.2,48.2C48.3,48.3,48.3,48.2,48.2,48.2z"/>
		<path class="st12" d="M53.3,47.7C53.3,47.7,53.2,47.7,53.3,47.7c-0.1,0-0.2,0.1-0.2,0.1c0,0-0.1,0.1-0.1,0.1c0,0,0,0.1,0,0.1
			c0,0,0,0,0,0.1c-0.1,0.1-0.1,0.2-0.1,0.3c-0.1,0.2-0.1,0.4-0.2,0.7c-0.1,0.4-0.2,0.9-0.2,1.3c-0.1,0.9-0.1,1.8-0.1,2.7
			c0,1,0.1,2,0.2,3c0,0.1,0,0.2,0.1,0.4c0,0.1,0,0.3,0.1,0.4c0.1,0.3,0.1,0.5,0.2,0.7c0.1,0.1,0.1,0.2,0.2,0.4
			c0.1,0.1,0.1,0.1,0.2,0.1c0.1,0,0.2,0,0.3-0.1c0.1-0.1,0.2-0.2,0.2-0.3c0.1-0.1,0.1-0.2,0.1-0.4c0.1-0.4,0.2-0.8,0.3-1.2
			c0.1-0.4,0.1-0.8,0.1-1.2c0.1-0.8,0.1-1.6,0.1-2.4c0-0.8,0-1.6-0.1-2.4c0-0.4-0.1-0.8-0.2-1.2c0-0.2-0.1-0.4-0.2-0.6
			c0-0.1-0.1-0.2-0.1-0.3c-0.1-0.1-0.1-0.2-0.2-0.3C53.4,47.7,53.4,47.8,53.3,47.7C53.3,47.8,53.3,47.8,53.3,47.7
			C53.3,47.8,53.3,47.8,53.3,47.7c0,0.1,0,0.1,0,0.1C53.3,47.8,53.3,47.8,53.3,47.7C53.3,47.7,53.3,47.7,53.3,47.7z"/>
		<path class="st12" d="M59.2,48.4C59.2,48.4,59.2,48.4,59.2,48.4c-0.1-0.1-0.1-0.1-0.1,0c-0.1,0-0.1,0-0.1,0.1
			c-0.2,0.2-0.2,0.4-0.3,0.6c-0.1,0.2-0.1,0.4-0.2,0.6c-0.1,0.4-0.1,0.8-0.2,1.2c0,0.4-0.1,0.8-0.1,1.2c0,0.4,0,0.8,0,1.2
			c0,0.9,0,1.8,0.1,2.7c0,0.1,0,0.2,0,0.3c0,0.1,0,0.2,0.1,0.3c0,0.2,0.1,0.4,0.2,0.7c0,0.1,0.1,0.2,0.2,0.3c0,0.1,0.1,0.1,0.2,0.1
			c0.1,0,0.2,0,0.2-0.1c0.1-0.1,0.2-0.2,0.2-0.3c0.1-0.1,0.1-0.2,0.1-0.3c0.1-0.4,0.2-0.7,0.2-1.1c0.1-0.4,0.1-0.7,0.1-1.1
			c0.1-0.7,0.1-1.4,0.1-2.1c0-0.7,0-1.4-0.1-2.1c0-0.4-0.1-0.7-0.1-1.1c0-0.2-0.1-0.4-0.1-0.5c0-0.1-0.1-0.2-0.1-0.3
			c0-0.1-0.1-0.2-0.2-0.2C59.3,48.4,59.2,48.4,59.2,48.4C59.2,48.4,59.2,48.4,59.2,48.4C59.2,48.5,59.2,48.5,59.2,48.4
			C59.2,48.5,59.2,48.5,59.2,48.4C59.2,48.4,59.2,48.4,59.2,48.4z"/>
		<path class="st12" d="M65.2,49.5C65.2,49.4,65.2,49.4,65.2,49.5c-0.1-0.1-0.1-0.1-0.1,0c-0.1,0-0.1,0-0.1,0.1
			c-0.2,0.2-0.2,0.4-0.3,0.5c-0.1,0.2-0.1,0.4-0.2,0.6c-0.1,0.4-0.1,0.8-0.2,1.2c0,0.4-0.1,0.8-0.1,1.2c0,0.4,0,0.8,0,1.2
			c0,0.9,0,1.7,0.1,2.6c0,0.2,0.1,0.4,0.1,0.6c0,0.2,0.1,0.4,0.2,0.6c0,0.1,0.1,0.2,0.2,0.3c0,0.1,0.1,0.1,0.2,0.1
			c0.1,0,0.2,0,0.2-0.1c0.1-0.1,0.2-0.2,0.2-0.3c0.1-0.1,0.1-0.2,0.1-0.3c0.1-0.3,0.2-0.7,0.2-1c0-0.3,0.1-0.7,0.1-1
			c0.1-0.7,0.1-1.4,0.1-2.1c0-0.7,0-1.4-0.1-2.1c0-0.3-0.1-0.7-0.1-1c0-0.2-0.1-0.3-0.1-0.5c0-0.1-0.1-0.2-0.1-0.2
			c0-0.1-0.1-0.2-0.2-0.2C65.3,49.4,65.3,49.5,65.2,49.5C65.2,49.5,65.2,49.5,65.2,49.5C65.2,49.5,65.2,49.5,65.2,49.5
			C65.2,49.5,65.2,49.5,65.2,49.5C65.2,49.5,65.2,49.5,65.2,49.5z"/>
	</g>
	<path d="M107.5,32.5C107.5,32.5,107.6,32.5,107.5,32.5C107.6,32.5,107.6,32.5,107.5,32.5C107.6,32.5,107.6,32.5,107.5,32.5z"/>
	<path d="M48.9,23.1C48.9,23.2,48.9,23.2,48.9,23.1C48.9,23.2,48.9,23.2,48.9,23.1C48.9,23.2,48.9,23.2,48.9,23.1z"/>
	<g>
		<path class="st2" d="M100.7,36.5c0.1-0.1,0.2-0.2,0.3-0.2c-0.1,0.1-0.3,0.3-0.4,0.4C100.6,36.6,100.7,36.5,100.7,36.5z"/>
		<path class="st2" d="M102,34.9c0.2-0.1,0.3-0.3,0.5-0.4C102.3,34.7,102.2,34.8,102,34.9C102,35,102,35,102,34.9
			C102,34.9,102,34.9,102,34.9z"/>
		<path class="st2" d="M109.8,23.2c-0.2,0.5-0.4,1-0.6,1.5c0,0,0,0.1,0,0.1c0,0.1-0.1,0.1-0.1,0.2C109.3,24.4,109.5,23.8,109.8,23.2
			z"/>
		<path class="st2" d="M104.1,37.7c0-0.1,0.1-0.3,0.1-0.4c0.1,0,0.2-0.1,0.3-0.1c0,0.2-0.1,0.4-0.1,0.6c-0.1,0.2-0.3,0.4-0.4,0.5
			c0-0.1,0-0.2,0-0.2C104.1,38,104.1,37.9,104.1,37.7z"/>
		<path class="st2" d="M111.7,20.3c-0.1,0.2-0.1,0.3-0.2,0.5c-0.1,0.2-0.3,0.5-0.4,0.7c0,0,0,0,0,0c-0.1-0.1-0.2-0.2-0.2-0.2
			c0,0-0.1,0-0.1,0c0.4-0.5,0.7-1.1,1.1-1.6C111.8,20,111.8,20.1,111.7,20.3z"/>
		<path class="st2" d="M99,40.4c0.1-0.1,0.2-0.2,0.3-0.3c0.2-0.1,0.3-0.3,0.5-0.4c0,0,0,0.1,0,0.1c-0.1,0-0.1,0.1-0.2,0.1
			c-0.1,0-0.1,0.3-0.1,0.5C99.4,40.4,99.2,40.4,99,40.4z"/>
		<path class="st2" d="M102.4,40.3c0.2-0.1,0.3-0.3,0.5-0.4c0,0,0,0.1,0,0.1l0,0c0,0.1,0.1,0.2,0.2,0.3L102.4,40.3z"/>
		<path class="st2" d="M93.4,40.3c0.5,0,1,0,1.5-0.2c0,0.1,0.1,0.1,0.1,0.1c0.5,0.2,1,0.1,1.4-0.1c0,0.1,0,0.2,0,0.3
			c-1.3,0-2.5,0.1-3.7,0.1C92.9,40.5,93.1,40.4,93.4,40.3z"/>
		<path class="st2" d="M53.5,32.6L53.5,32.6L53.5,32.6l-0.1-0.2l-0.1-0.2l-0.3-0.7c-0.3-0.9-0.7-1.8-1.1-2.7c0.2,0.3,0.5,0.7,0.7,1
			c0,0.1,0.1,0.2,0.1,0.3c0.6,1.6,1,3.3,1.8,4.8c-0.2-0.3-0.3-0.5-0.4-0.8c-0.2-0.4-0.4-0.8-0.6-1.3l-0.1-0.2L53.5,32.6L53.5,32.6
			L53.5,32.6L53.5,32.6L53.5,32.6C53.5,32.6,53.5,32.5,53.5,32.6z"/>
		<path class="st2" d="M58.5,41.2c0-0.2,0-0.3,0-0.5c0.1,0.1,0.3,0.2,0.4,0.3c0.1,0,0.1,0.1,0.2,0.1C58.9,41.2,58.7,41.2,58.5,41.2z
			"/>
		<path class="st2" d="M61.7,41.1c0-0.2,0-0.4-0.1-0.4c0,0-0.1-0.1-0.1-0.1c0,0,0,0,0-0.1c0,0,0,0,0,0c0.1,0.2,0.3,0.4,0.4,0.6
			C61.8,41.1,61.8,41.1,61.7,41.1z"/>
		<path class="st2" d="M64.3,41.1L64.3,41.1c-0.4-0.4-0.8-0.7-1.2-1.1c0,0-0.1-0.1-0.1-0.1c0.3,0.2,0.7,0.4,1,0.5
			c0.5,0.2,1,0.4,1.5,0.6c0.1,0,0.2,0.1,0.2,0.1C65.3,41.1,64.8,41.1,64.3,41.1z"/>
	</g>
	<path class="st4" d="M66.2,88.2c1-0.5,2-1.2,3-1.9c0.9-0.8,1.8-1.7,2.5-2.7c0.7-1,1.2-2.3,1.4-3.5c0-0.2,0.1-0.3,0.1-0.5l0-0.2
		l0-0.2c0-0.2,0-0.3,0-0.5c0,0,0,0,0-0.1c0.3-1.2,0.5-2.5,0.5-3.7c0-1.3-0.1-2.5-0.4-3.7c-0.3-1.2-0.7-2.4-1.2-3.5
		C72,67,71.7,66.5,71.3,66c-0.3-0.5-0.7-1-1.1-1.4c-0.8-0.9-1.7-1.6-2.6-2.3c-1.9-1.3-4-2.3-6.2-2.8c-0.8-0.2-1.3-0.1-1.5,0.1
		c0,0-0.1,0-0.1,0c0,0,0.1,0,0.1-0.1c0.1-0.1,0-0.3-0.3-0.4c-0.7-0.2-1.5-0.3-2.3-0.4c-0.8,0-1.6,0-2.4,0.1c-1.7,0.2-3.3,0.6-5,1.2
		c-1.7,0.6-3.4,1.3-5,2.4c-0.2,0.1-0.4,0.3-0.6,0.4c-0.1,0.1-0.2,0.1-0.3,0.2l-0.2,0.1l-0.1,0.1l-0.1,0.1l-0.1,0.1l-0.2,0.1
		c-0.1,0.1-0.2,0.2-0.3,0.3c-0.2,0.2-0.4,0.4-0.5,0.5c-0.7,0.7-1.4,1.6-1.9,2.5c-1.1,1.8-1.7,4-1.9,6.1c-0.2,2.1,0.1,4.3,0.8,6.2
		c0.4,1.3,1,2.5,1.7,3.6c0.4,0.8,0.8,1.5,1.3,2.2c1.1,1.6,2.3,2.9,3.8,3.9c0.4,0.3,0.8,0.5,1.3,0.8c0.3,0.1,0.5,0.3,0.8,0.4
		c0.4,0.2,0.7,0.3,1.1,0.4c0.3,0.1,0.6,0.2,0.9,0.2l0.2,0h0l0.2,0c0.1,0,0.3,0.1,0.4,0.1c0,0,0.1,0,0.1,0c0.5,0.1,1.1,0.1,1.6,0.2
		c2.3,0.1,4.6-0.1,6.8-0.5C61.9,90,64.1,89.3,66.2,88.2z"/>
	<path class="st1" d="M60.3,60c0.1,0,0.1,0.1,0.2,0.1c0,0.1,0.1,0.1,0.1,0.2c0.1,0.1,0.4,0.2,0.8,0.4c1.8,0.6,3.6,1.6,5.1,2.8
		c1.5,1.2,2.7,2.8,3.6,4.6c0.9,1.8,1.4,3.8,1.6,5.9c0.1,1,0.1,2.1,0.1,3.2c0,0.4,0,0.7-0.1,1.1c0,0.1-0.1,0.2-0.1,0.3
		c-0.3,1-0.8,2-1.4,2.9c-0.6,0.9-1.3,1.7-2.1,2.4c-1.6,1.4-3.6,2.4-5.6,3c-2.1,0.6-4.2,0.9-6.4,0.9c-2.2,0-4.3-0.2-6.4-0.7
		c-0.9-0.2-1.7-0.5-2.5-0.9c-0.8-0.4-1.6-0.9-2.2-1.4c-1-0.8-1.8-1.7-2.5-2.8c-0.1-0.3-0.3-0.6-0.4-0.9c-0.7-1.8-1.1-3.7-1.2-5.6
		c-0.1-1.9,0.1-3.9,0.7-5.7c0.6-1.8,1.6-3.5,2.9-4.8c1.3-1.3,2.9-2.4,4.5-3.2c1.7-0.8,3.4-1.3,5.2-1.5c1.8-0.3,3.7-0.4,5.5-0.3
		C60,60.1,60.1,60.1,60.3,60z"/>
	<path class="st4" d="M55.6,89.5c-1.1,0.1-2.2,0.1-3.2,0c-0.5,0-1-0.1-1.4-0.2c-0.1,0-0.1,0-0.2,0c-0.2,0-0.4-0.1-0.7-0.2
		c0,0-0.1,0-0.1,0c-0.2-0.1-0.5-0.1-0.7-0.2c-0.1,0-0.3-0.1-0.4-0.2c-0.7-0.3-1.5-0.7-2.1-1.2c0.5,0.2,1,0.4,1.4,0.6
		c0.3,0.1,0.6,0.2,0.8,0.2c0.1,0,0.2,0.1,0.4,0.1c0.2,0,0.3,0.1,0.5,0.1c0.3,0.1,0.6,0.1,0.9,0.2c0.8,0.2,1.6,0.3,2.4,0.3
		c1.8,0.2,3.6,0.2,5.3,0C57.6,89.3,56.6,89.4,55.6,89.5z"/>
	<path class="st4" d="M125.6,72.4c-0.2-2-0.7-4-1.7-5.7c-0.9-1.7-2.3-3.2-3.8-4.3c-0.1-0.1-0.2-0.1-0.3-0.2
		c-0.1-0.1-0.2-0.1-0.3-0.2c-0.2-0.1-0.4-0.2-0.6-0.3c-0.4-0.2-0.8-0.4-1.3-0.6c-0.8-0.4-1.7-0.7-2.6-1c-1.7-0.6-3.5-1-5.4-1.3
		c-0.9-0.2-1.8-0.3-2.8-0.3c-0.9-0.1-1.9-0.1-2.8,0.1c-0.2,0-0.6,0.1-0.8,0.2c-0.1-0.1-0.4-0.2-1.1,0c-2,0.6-4,1.5-5.7,2.9
		c-0.9,0.7-1.7,1.4-2.5,2.3c-0.2,0.2-0.4,0.4-0.6,0.6c-0.1,0.1-0.2,0.2-0.3,0.3L93,65l-0.1,0.2c-0.4,0.5-0.7,1-0.9,1.6
		c-0.5,1.1-0.9,2.2-1.2,3.4c-0.3,1.2-0.4,2.4-0.4,3.6c0,1.2,0.1,2.4,0.3,3.6c0.2,0.9,0.4,1.8,0.8,2.6c0,0.2,0.1,0.3,0.1,0.5l0,0.2
		l0.1,0.2c0,0.2,0.1,0.3,0.1,0.5c0.1,0.3,0.2,0.6,0.3,0.9c0.5,1.3,1.3,2.4,2.2,3.4c0.9,0.9,1.9,1.7,3,2.3c1.1,0.6,2.2,1.1,3.3,1.4
		c1.1,0.4,2.3,0.6,3.4,0.8c0.2,0,0.4,0.1,0.6,0.1c0.2,0,0.5,0.1,0.7,0.1c1.6,0.2,3.1,0.3,4.7,0.2c0.1,0,0.2,0,0.3,0
		c0.2,0,0.4,0,0.6,0h0c0,0,0,0,0,0c1.1-0.1,2.3-0.3,3.4-0.5c0.6-0.1,1.1-0.3,1.7-0.5c0.2-0.1,0.3-0.1,0.5-0.2
		c0.2-0.1,0.5-0.2,0.7-0.3c0.2-0.1,0.3-0.2,0.5-0.2c1.8-1,3.3-2.4,4.5-4.1c0.9-1.3,1.6-2.8,2.1-4.3c0.3-0.6,0.5-1.2,0.7-1.9
		C125.5,76.5,125.8,74.4,125.6,72.4z"/>
	<path class="st1" d="M123.6,76.7c-0.1,1.1-0.3,2.1-0.6,3.1c-0.2,0.4-0.4,0.8-0.6,1.2c-0.9,1.5-2.1,2.6-3.4,3.5
		c-0.5,0.3-0.9,0.6-1.4,0.8c-0.3,0.2-0.7,0.3-1,0.4c-0.2,0.1-0.3,0.1-0.5,0.2c0,0-0.1,0-0.1,0c0,0-0.1,0-0.1,0
		c-0.9,0.3-1.8,0.6-2.8,0.8c-0.1,0-0.1,0-0.2,0c-0.7,0.2-1.4,0.3-2.1,0.4c-0.2,0-0.4,0.1-0.7,0.1c-0.8,0.1-1.6,0.2-2.5,0.2
		c-0.3,0-0.6,0-0.9,0c-0.1,0-0.3,0-0.4,0c-2.2-0.1-4.4-0.4-6.4-1.3c-1-0.4-2-0.9-2.9-1.6c-0.4-0.3-0.9-0.7-1.3-1.1
		c-0.4-0.4-0.8-0.8-1.1-1.2c-0.7-0.9-1.3-1.8-1.7-2.9c0-0.1,0-0.2,0-0.2c-0.1-0.6-0.2-1.2-0.3-1.8c-0.3-2.4-0.2-4.8,0.3-7.1
		c0.3-1.2,0.7-2.3,1.2-3.3c0.5-1,1.2-2,1.9-2.9c1.5-1.7,3.4-3.1,5.5-4c0.5-0.2,0.9-0.5,1.1-0.7c0.2,0.1,0.4,0.1,0.6,0.1
		c1.5,0.1,3.1,0.2,4.7,0.4c1.6,0.2,3.2,0.4,4.8,0.9c1.6,0.4,3.2,1.1,4.6,1.9c0.7,0.4,1.4,0.9,2.1,1.5l0,0l0,0l0.1,0.1l0.1,0.1
		l0.1,0.1l0.1,0.1c0.1,0.2,0.3,0.3,0.4,0.5c0.3,0.3,0.6,0.7,0.8,1c1,1.4,1.8,3.1,2.2,4.9C123.7,73,123.8,74.9,123.6,76.7z"/>
	<path class="st4" d="M119.3,85.9c-0.7,0.6-1.5,1.2-2.3,1.6c-0.1,0.1-0.3,0.1-0.4,0.2c-0.1,0-0.2,0.1-0.3,0.1
		c-0.9,0.4-1.9,0.6-2.8,0.8c-0.5,0.1-0.9,0.2-1.4,0.2c-0.4,0-0.7,0.1-1.1,0.1c0,0-0.1,0-0.1,0c-0.2,0-0.4,0-0.7,0
		c-0.8,0-1.7,0-2.5,0c0.9,0,1.7-0.1,2.5-0.2c0.1,0,0.1,0,0.2,0c0.2,0,0.3-0.1,0.5-0.1c0.1,0,0.3,0,0.4-0.1c0.4-0.1,0.8-0.1,1.2-0.2
		c1.3-0.3,2.5-0.6,3.7-1.1c0.2-0.1,0.5-0.2,0.7-0.3c0,0,0.1,0,0.1-0.1c0.8-0.3,1.6-0.7,2.4-1.2C119.4,85.8,119.3,85.9,119.3,85.9z"
		/>
	<path class="st4" d="M53.8,62.6c-1.4,0.3-2.7,0.7-4,1.4c-1.2,0.7-2.4,1.7-3.2,3c-0.7,1.1-1.3,2.4-1.5,3.7c-0.2,0.4-0.3,0.9-0.4,1.4
		c-0.3,1.3-0.4,2.8-0.1,4.3c0.3,1.4,0.9,2.8,1.8,3.9c0.9,1.1,1.9,2,3.1,2.6c2.3,1.3,5,1.7,7.6,1.2c0.4-0.1,0.8-0.2,1.2-0.3
		c0.3-0.1,0.6-0.1,0.9-0.2c1.4-0.3,2.7-0.9,3.8-1.8c1.2-0.8,2.2-1.9,2.9-3.2l0.3-0.5c0.1-0.2,0.2-0.3,0.2-0.5
		c0.2-0.3,0.3-0.7,0.4-1.1c0.2-0.7,0.4-1.5,0.5-2.2c0.1-0.8,0.1-1.5,0-2.3c0-0.3-0.1-0.6-0.1-1c0-0.5,0-1.1-0.1-1.6
		c-0.1-0.6-0.3-1.2-0.6-1.8l-0.1-0.2c0-0.1-0.1-0.1-0.1-0.2c-0.1-0.1-0.1-0.3-0.2-0.4c-0.2-0.3-0.3-0.5-0.5-0.7
		c-0.5-0.6-1-1.1-1.6-1.6c-0.6-0.4-1.2-0.8-1.9-1.1c-1.3-0.6-2.7-0.9-4.1-1.1C56.6,62.3,55.2,62.3,53.8,62.6z"/>
	<path class="st1" d="M58.6,71.6l0,0.7c0,0.2,0,0.5,0,0.8c0,0.3-0.1,0.6-0.1,0.9c0,0.4,0,0.7-0.1,1.1c0,0.4,0,0.7-0.1,1.1
		c-0.1,0.4-0.1,0.8-0.2,1.2c-0.1,0.4-0.1,0.8-0.2,1.2c-0.1,0.4-0.3,0.8-0.5,1.2c-0.1,0.2-0.2,0.4-0.3,0.6c-0.1,0.1-0.1,0.2-0.2,0.3
		c-0.3,0.3-0.5,0.4-0.8,0.4c-0.3-0.1-0.6-0.3-0.8-0.8c-0.1-0.1-0.1-0.2-0.2-0.4c-0.1-0.2-0.1-0.3-0.2-0.5c-0.1-0.2-0.1-0.5-0.2-0.7
		c0-0.2-0.1-0.4-0.1-0.5c0-0.1,0-0.2-0.1-0.3c-0.3-1.7-0.3-3.4-0.3-5c0-0.4,0-0.8,0.1-1.2c0-0.4,0.1-0.8,0.1-1.2l0.2-1.2
		c0.1-0.4,0.1-0.7,0.2-1.1c0-0.2,0.1-0.3,0.1-0.5c0-0.2,0.1-0.3,0.1-0.4c0.1-0.3,0.2-0.6,0.3-0.8c0.1-0.1,0.1-0.3,0.2-0.4
		c0-0.1,0.1-0.1,0.1-0.2c0-0.1,0.1-0.1,0.1-0.2c0.1-0.2,0.3-0.4,0.4-0.5c0.1-0.1,0.2-0.1,0.3-0.2c0.1,0,0.2,0,0.3,0l0,0l0.1,0
		c0,0,0,0,0,0c0,0,0,0,0,0l0,0c0,0,0,0,0.1,0c0.2,0.1,0.3,0.3,0.3,0.4c0.1,0.3,0.3,0.6,0.3,0.9c0.1,0.3,0.2,0.7,0.2,1
		c0.1,0.3,0.1,0.6,0.1,0.8c0,0.2,0,0.5,0.1,0.7c0,0.4,0,0.8,0,1.1c0,0.3,0.1,0.4,0.1,0.4c0.1,0,0.1-0.1,0.2-0.3
		c0.1-0.2,0.1-0.4,0.2-0.8c0,0.4,0.1,0.7,0.1,1.1c0,0.1,0,0.3,0,0.4C58.7,70.9,58.7,71.2,58.6,71.6z"/>
	<path class="st4" d="M98,66.6c-0.7,1.1-1.3,2.4-1.5,3.7c-0.2,0.4-0.3,0.9-0.4,1.4c-0.3,1.3-0.4,2.8-0.1,4.3
		c0.3,1.4,0.9,2.8,1.8,3.9c0.9,1.1,1.9,2,3.1,2.6c2.3,1.3,5,1.7,7.6,1.2c0.4-0.1,0.8-0.2,1.2-0.3c0.3-0.1,0.6-0.1,0.9-0.2
		c1.4-0.4,2.7-0.9,3.8-1.8c1.2-0.8,2.2-1.9,2.9-3.2l0.3-0.5c0.1-0.2,0.2-0.3,0.2-0.5c0.2-0.3,0.3-0.7,0.4-1.1
		c0.2-0.7,0.4-1.5,0.5-2.2c0.1-0.8,0.1-1.5,0-2.3c0-0.3-0.1-0.6-0.1-1c0-0.5,0-1.1-0.1-1.6c-0.1-0.6-0.3-1.2-0.6-1.8l-0.1-0.2
		c0-0.1-0.1-0.1-0.1-0.2c-0.1-0.1-0.1-0.3-0.2-0.4c-0.2-0.3-0.3-0.5-0.5-0.7c-0.5-0.6-1-1.1-1.6-1.6c-0.6-0.4-1.2-0.8-1.9-1.1
		c-1.3-0.6-2.7-0.9-4.1-1.1c-1.4-0.2-2.8-0.2-4.2,0.1c-1.4,0.3-2.7,0.7-4,1.4C99.9,64.3,98.8,65.3,98,66.6z"/>
	<path class="st1" d="M109.6,70.1L109.6,70.1C109.6,70.1,109.6,70.1,109.6,70.1c-0.2,0.1-0.3,0.4-0.3,0.8c0,0.4,0,0.8,0,1.2
		c0,0.4,0,0.8,0,1.2c0,0.8-0.1,1.5-0.2,2.3c0,0.4-0.1,0.8-0.2,1.1c-0.1,0.4-0.1,0.8-0.2,1.1c-0.1,0.4-0.2,0.7-0.3,1.1
		c-0.1,0.3-0.3,0.7-0.4,1c-0.2,0.3-0.4,0.6-0.6,0.6c0,0-0.1,0-0.1,0c-0.1,0-0.1,0-0.2-0.1c-0.1-0.1-0.2-0.2-0.3-0.3
		c0-0.1-0.1-0.1-0.1-0.2c0-0.1-0.1-0.2-0.1-0.2c-0.1-0.2-0.1-0.3-0.2-0.5c-0.1-0.3-0.2-0.7-0.3-1.1c-0.3-1.5-0.4-3-0.4-4.6
		c0-0.8,0-1.6,0.1-2.5c0.1-0.8,0.2-1.7,0.3-2.5c0.1-0.8,0.3-1.7,0.6-2.4c0.1-0.4,0.3-0.7,0.5-1c0.1-0.1,0.2-0.3,0.3-0.3
		c0.1,0,0.1-0.1,0.2-0.1c0,0,0.1,0,0.2,0l0,0h0l0,0l0,0l0,0l0,0c0,0,0,0,0,0c0,0,0.1,0,0.1,0.1c0.1,0.1,0.1,0.1,0.2,0.2
		c0.1,0.2,0.3,0.4,0.4,0.6c0.2,0.4,0.4,0.9,0.5,1.4c0.2,0.6,0.3,1.2,0.4,1.9C109.6,69.3,109.6,69.7,109.6,70.1z"/>
	<path class="st7" d="M92.9,118.5c0.9-0.1,1.8-0.4,2.6-0.8c0.8-0.4,1.6-1,2.2-1.8c0.6-0.8,1-1.8,1.2-2.8c0-0.1,0-0.2,0-0.3
		c0-0.1-0.1-0.1-0.1-0.2c-0.1-0.1-0.2,0-0.3,0.2c-0.3,0.7-0.7,1.4-1.2,2c-0.5,0.6-1,1-1.7,1.4c-1.2,0.7-2.8,1-4.5,1
		c-0.8,0-1.7-0.1-2.5-0.2c-0.4-0.1-0.8-0.2-1.2-0.3c-0.4-0.1-0.8-0.3-1.1-0.4c0,0,0,0,0,0l0,0c0,0-0.1,0-0.1-0.1
		c-0.1,0-0.1-0.1-0.2-0.2c-0.1-0.1-0.2-0.2-0.4-0.4c-0.2-0.3-0.4-0.7-0.6-1c-0.4-0.8-0.6-1.6-0.8-2.4c-0.3-1.1-0.5-2.3-0.6-3.5
		c-0.2-1.2-0.3-2.4-0.3-3.6c0-0.3,0-0.5,0-0.8c0.1-2.1,0.1-4.3,0.1-6.4c0-2.8-0.1-5.6-0.3-8.4c0-2,0.1-4,0.1-6c0,0,0-0.1,0-0.1
		c0,0,0.1-0.1,0.1-0.1l0-0.1c0.4-0.5,0.7-1,1.1-1.5c0.3-0.5,0.7-1.1,1-1.7c0.6-1.2,1.1-2.5,1.5-3.9c0.2-0.7,0.4-1.4,0.4-2.2
		c0-0.4,0-0.8,0-1.3c0-0.2-0.1-0.5-0.2-0.7c0-0.1-0.1-0.1-0.1-0.2c0,0,0-0.1-0.1-0.1l0,0c0,0-0.1-0.1-0.1-0.1l-0.1-0.1
		c-0.1-0.2-0.3-0.3-0.4-0.5c-0.2-0.1-0.4-0.3-0.6-0.3c-0.2-0.1-0.5-0.1-0.8,0c-0.2,0.1-0.4,0.2-0.6,0.3c-0.3,0.3-0.5,0.5-0.7,0.8
		c-0.2,0.3-0.3,0.6-0.5,0.9c-0.2,0.4-0.4,0.9-0.5,1.4c0-0.1-0.1-0.2-0.1-0.3c-0.1-0.4-0.3-0.8-0.5-1.1c-0.2-0.4-0.5-0.7-0.9-0.9
		c-0.2-0.1-0.4-0.2-0.6-0.2c-0.2,0-0.5,0-0.7,0.1c-0.2,0.1-0.4,0.2-0.6,0.4s-0.3,0.4-0.4,0.6c-0.2,0.4-0.3,0.8-0.4,1.3
		c-0.1,0.4-0.1,0.9,0,1.3c0,0.4,0.1,0.8,0.2,1.2l0,0.1l0,0l0,0.1l0,0.1l0.1,0.3c0.1,0.2,0.1,0.4,0.2,0.6c0.2,0.8,0.5,1.5,0.8,2.2
		c0.3,0.7,0.6,1.4,0.9,2.1c0.3,0.7,0.7,1.4,1.1,2l0,0c0,0,0,0,0.1,0.1c-0.1,2-0.1,4-0.1,6c-0.1,2.3-0.1,4.6-0.1,6.9
		c0,2.4,0.1,4.8,0.3,7.3c0,0.2,0,0.4,0,0.6c-0.1,2.1-0.2,4.3-0.5,6.3c-0.1,1-0.3,1.9-0.5,2.8c-0.1,0.5-0.2,0.9-0.4,1.3
		c-0.2,0.4-0.3,0.8-0.6,1.2c-0.1,0.2-0.2,0.3-0.4,0.5c-0.1,0.1-0.3,0.2-0.5,0.3c-0.4,0.2-0.8,0.4-1.2,0.6c-0.8,0.3-1.7,0.6-2.5,0.7
		c-0.9,0.1-1.8,0.2-2.6,0.1c-0.9-0.1-1.7-0.3-2.5-0.7c-0.8-0.4-1.5-1-2-1.8c-0.5-0.8-0.8-1.7-0.9-2.7c0-0.1,0-0.2-0.1-0.3
		c0-0.1-0.1-0.1-0.1-0.1c-0.1,0-0.2,0-0.3,0.2c-0.1,0.8-0.1,1.8,0.2,2.7c0.3,0.9,0.9,1.8,1.7,2.5c0.8,0.7,1.8,1.1,2.7,1.3
		c1,0.2,2,0.3,2.9,0.2c1-0.1,1.9-0.3,2.9-0.5c0.4-0.1,0.9-0.3,1.3-0.5c0,0.1,0,0.3-0.1,0.4c-0.1,0.7,0.1,1.5,0.4,2.1
		c0.3,0.7,0.8,1.3,1.4,1.7c0.5,0.5,1.1,0.8,1.7,1c0.8,0.3,1.7,0.4,2.5,0.1c0.8-0.3,1.5-0.8,2-1.5c0.5-0.7,0.8-1.5,1-2.3
		c0.1-0.7,0.2-1.4,0.2-2c0.9,0.2,1.7,0.4,2.6,0.4C91.1,118.6,92,118.6,92.9,118.5z"/>
	<path class="st7" d="M82.6,82.7C82.7,82.7,82.7,82.7,82.6,82.7L82.6,82.7L82.6,82.7c-0.1,0.1-0.1,0.1-0.1,0.1c0,0,0,0,0,0l0,0
		C82.5,82.8,82.5,82.8,82.6,82.7L82.6,82.7L82.6,82.7C82.6,82.8,82.6,82.7,82.6,82.7z"/>
	<path class="st7" d="M83.3,83.4L83.3,83.4c0-0.1,0-0.2-0.1-0.3l0.1-0.1c0,0,0,0.1,0,0.1c0,0,0,0,0,0c0,0,0,0.1,0,0.1
		C83.3,83.3,83.3,83.3,83.3,83.4z"/>
	<path class="st7" d="M79.8,75.7L79.8,75.7L79.8,75.7C79.8,75.8,79.8,75.8,79.8,75.7z"/>
	<path class="st5" d="M80.8,78.7c-0.3-0.7-0.5-1.5-0.7-2.2L79.9,76l-0.1-0.3l0,0c0,0,0,0,0,0l0,0l0,0l0-0.1l0-0.1
		c-0.1-0.3-0.1-0.7-0.1-1c0-0.3,0-0.6,0-0.9c0-0.3,0.1-0.5,0.2-0.7c0.1-0.2,0.2-0.3,0.3-0.3c0.1,0,0.2,0,0.4,0.1
		c0.2,0.1,0.4,0.3,0.5,0.5c0.2,0.2,0.3,0.5,0.4,0.8c0.2,0.6,0.3,1.3,0.4,2l0,0.1c0,0.4,0.4,0.7,0.8,0.7c0.3,0,0.6-0.3,0.6-0.7
		c0-0.3,0.1-0.7,0.2-1c0.1-0.3,0.2-0.7,0.3-1c0.2-0.6,0.5-1.3,0.8-1.8c0.2-0.3,0.4-0.5,0.5-0.6c0.2-0.1,0.3-0.1,0.5,0
		c0.2,0.1,0.4,0.4,0.6,0.6c0.1,0.2,0.2,0.5,0.2,0.8c0,0.7-0.1,1.4-0.3,2c-0.3,1.4-0.8,2.7-1.4,4c-0.3,0.6-0.6,1.3-0.9,1.9
		c-0.2,0.5-0.5,0.9-0.7,1.4L83,82.4l-0.1,0l-0.1,0.1c-0.1-0.1-0.2-0.1-0.4-0.1c-0.1,0-0.1,0-0.2,0c-0.2-0.5-0.4-1.1-0.7-1.6
		C81.3,80.2,81,79.5,80.8,78.7z"/>
	<linearGradient id="SVGID_2_" gradientUnits="userSpaceOnUse" x1="79.724" y1="118.2717" x2="86.6564" y2="118.2717">
		<stop  offset="0" style="stop-color:#F05B42"/>
		<stop  offset="1" style="stop-color:#F9A54F"/>
	</linearGradient>
	<path class="st8" d="M86,119.4c-0.2,0.6-0.3,1.2-0.6,1.7c-0.3,0.5-0.6,1-1.1,1.3c-0.4,0.3-1,0.4-1.5,0.3c-0.5-0.1-0.9-0.3-1.4-0.6
		c-0.4-0.3-0.8-0.8-1.1-1.3c-0.5-0.8-0.7-1.8-0.6-2.8c0.1-0.1,0.2-0.1,0.3-0.2c0.5-0.4,0.9-0.8,1.1-1.3c0.3-0.5,0.5-0.9,0.6-1.4
		c0.1-0.4,0.3-0.8,0.4-1.2c0,3.5,0.3,6.3,0.7,6.3c0.4,0,0.7-2.7,0.7-6.2c0.2,0.4,0.3,0.9,0.6,1.3c0.2,0.5,0.5,0.9,0.8,1.3
		c0.2,0.2,0.4,0.4,0.6,0.6c0.2,0.2,0.5,0.3,0.7,0.4c0.1,0.1,0.3,0.1,0.4,0.2C86.4,118.3,86.2,118.9,86,119.4z"/>
	<g>
		<g>
			<path class="st0" d="M68.8,104.2c0-0.1,0-0.3,0-0.4l0-0.3c0-0.1,0-0.2-0.1-0.3l-0.1-0.3c0-0.1,0-0.2-0.1-0.2c0-0.1,0-0.2-0.1-0.2
				c0-0.1-0.1-0.1-0.1-0.2c-0.1-0.2-0.3-0.3-0.3-0.2c0,0,0,0.1,0,0.1c0,0,0,0-0.1-0.1c0,0,0,0,0,0c-0.1-0.1-0.1-0.2-0.2-0.2
				c0,0,0,0,0,0c0,0,0,0,0,0c0,0,0,0,0,0c0,0,0,0-0.1,0c0,0-0.1,0-0.1,0c-0.1,0.1-0.1,0.1-0.2,0.2c0,0.1-0.1,0.2-0.1,0.3
				c0,0.1,0,0.1-0.1,0.2l0,0c0,0,0,0.1,0,0.1c0,0.1,0,0.1-0.1,0.2c0,0.1,0,0.2-0.1,0.4c0,0.1,0,0.1,0,0.2l0,0.1l0,0.1
				c0,0.1,0,0.2,0,0.3c0,0.1,0,0.1,0,0.2l0,0.1l0,0.1c0,0,0,0.1,0,0.1l0,0.2c0,0.1,0,0.2,0,0.3c0,0.1,0,0.2,0.1,0.4l0,0.1l0,0.1
				c0,0.1,0,0.1,0.1,0.2c0,0,0,0.1,0,0.1c0,0.1,0.1,0.2,0.1,0.4l0,0l0,0c0,0,0,0,0,0l0,0l0,0.1c0,0,0.1,0.1,0.1,0.1l0,0l0,0l0,0l0,0
				l0,0c0,0,0,0,0,0c0,0,0,0,0,0c0.1,0,0.1,0.1,0.2,0.1l0,0h0l0,0h0h0c0,0,0.1,0,0.1,0c0.1,0,0.1,0,0.2-0.1c0.1-0.1,0.2-0.1,0.2-0.2
				c0.1-0.1,0.1-0.3,0.2-0.4c0-0.1,0.1-0.3,0.1-0.4c0-0.1,0-0.1,0.1-0.2c0-0.1,0-0.1,0-0.2c0-0.1,0-0.3,0-0.4
				C68.8,104.5,68.8,104.4,68.8,104.2z"/>
			<path class="st0" d="M68.6,105.2c0,0.1,0,0.1,0,0.2c0,0.1-0.1,0.2-0.1,0.3c0.1-0.2,0.1-0.4,0.1-0.7c0,0,0,0.1,0,0.1
				C68.6,105,68.6,105.1,68.6,105.2z"/>
			<path class="st0" d="M72.3,110.8c0-0.1,0-0.2,0-0.4l0-0.3c0-0.1,0-0.2-0.1-0.3l-0.1-0.3c0-0.1,0-0.2-0.1-0.2c0-0.1,0-0.2-0.1-0.2
				c0-0.1-0.1-0.1-0.1-0.2c-0.1-0.2-0.3-0.3-0.3-0.2c0,0,0,0.1,0,0.1c0,0,0,0-0.1-0.1c0,0,0,0,0,0c-0.1-0.1-0.1-0.2-0.2-0.2
				c0,0,0,0,0,0c0,0,0,0,0,0c0,0,0,0,0,0c0,0,0,0-0.1,0c0,0-0.1,0-0.1,0c-0.1,0.1-0.1,0.1-0.2,0.2c0,0.1-0.1,0.2-0.1,0.3
				c0,0.1,0,0.1-0.1,0.2l0,0c0,0,0,0.1-0.1,0.1c0,0.1,0,0.1-0.1,0.2c0,0.1,0,0.2-0.1,0.4c0,0.1,0,0.1,0,0.2l0,0.1l0,0.1
				c0,0.1,0,0.2,0,0.3c0,0.1,0,0.1,0,0.2l0,0.1l0,0.1c0,0,0,0.1,0,0.1l0,0.2c0,0.1,0,0.2,0,0.3c0,0.1,0,0.2,0,0.4l0,0.1l0,0.1
				c0,0.1,0,0.1,0.1,0.2c0,0,0,0.1,0,0.1c0,0.1,0.1,0.2,0.1,0.4l0,0l0,0c0,0,0,0,0,0l0,0l0,0.1c0,0,0.1,0.1,0.1,0.1l0,0l0,0l0,0l0,0
				l0,0c0,0,0,0,0,0c0,0,0,0,0,0c0.1,0,0.1,0.1,0.2,0.1l0,0l0,0h0h0h0c0,0,0.1,0,0.1,0c0.1,0,0.1,0,0.2-0.1c0.1-0.1,0.2-0.1,0.2-0.2
				c0.1-0.1,0.1-0.3,0.2-0.4c0-0.1,0.1-0.3,0.1-0.4c0-0.1,0-0.1,0-0.2c0-0.1,0-0.1,0-0.2c0-0.1,0-0.3,0-0.4
				C72.3,111,72.3,110.9,72.3,110.8z"/>
			<path class="st0" d="M72.1,111.7c0,0.1,0,0.1,0,0.2c0,0.1-0.1,0.2-0.1,0.3c0.1-0.2,0.1-0.4,0.2-0.7c0,0,0,0.1,0,0.1
				C72.1,111.6,72.1,111.7,72.1,111.7z"/>
			<path class="st0" d="M74.9,109.2c0,0.1,0,0.1-0.1,0.2c0,0.1,0,0.2-0.1,0.4c0,0.1,0,0.1,0,0.2l0,0.1l0,0.1c0,0.1,0,0.2,0,0.3
				c0,0.1,0,0.1,0,0.2l0,0.1l0,0.1c0,0,0,0.1,0,0.1l0,0.2c0,0.1,0,0.2,0,0.3c0,0.1,0,0.2,0.1,0.4l0,0.1l0,0.1c0,0.1,0,0.1,0.1,0.2
				c0,0,0,0.1,0,0.1c0,0.1,0.1,0.2,0.1,0.4l0,0l0,0c0,0,0,0,0,0l0,0l0,0.1c0,0,0.1,0.1,0.1,0.1l0,0l0,0l0,0l0,0l0,0c0,0,0,0,0,0
				c0,0,0,0,0,0c0.1,0,0.1,0.1,0.2,0.1l0,0l0,0h0h0h0c0,0,0.1,0,0.1,0c0.1,0,0.1,0,0.2-0.1c0.1-0.1,0.2-0.1,0.2-0.2
				c0.1-0.1,0.1-0.3,0.2-0.4c0-0.1,0.1-0.3,0.1-0.4c0-0.1,0-0.1,0-0.2c0-0.1,0-0.1,0-0.2c0-0.1,0-0.3,0-0.4c0-0.1,0-0.2,0-0.4
				c0-0.1,0-0.2,0-0.4l0-0.3c0-0.1,0-0.2-0.1-0.3l-0.1-0.3c0-0.1,0-0.2-0.1-0.2c0-0.1,0-0.2-0.1-0.2c0-0.1-0.1-0.1-0.1-0.2
				c-0.1-0.2-0.3-0.3-0.3-0.2c0,0,0,0.1,0,0.1c0,0,0,0-0.1-0.1c0,0,0,0,0,0c-0.1-0.1-0.1-0.2-0.2-0.2c0,0,0,0,0,0c0,0,0,0,0,0
				c0,0,0,0,0,0c0,0,0,0-0.1,0c0,0-0.1,0-0.1,0c-0.1,0.1-0.1,0.1-0.2,0.2c0,0.1-0.1,0.2-0.1,0.3c0,0.1,0,0.1-0.1,0.2l0,0
				C75,109.1,74.9,109.2,74.9,109.2z"/>
			<path class="st0" d="M76.3,111.4C76.3,111.5,76.3,111.5,76.3,111.4c0,0.2,0,0.2,0,0.3c0,0.1,0,0.1,0,0.2c0,0.1-0.1,0.2-0.1,0.3
				C76.3,112,76.3,111.7,76.3,111.4z"/>
			<path class="st12" d="M73.7,104.1c0-0.1,0-0.3,0-0.4l0-0.3c0-0.1,0-0.2-0.1-0.3l-0.1-0.3c0-0.1,0-0.2-0.1-0.2
				c0-0.1,0-0.2-0.1-0.2c0-0.1-0.1-0.1-0.1-0.2c-0.1-0.2-0.3-0.3-0.3-0.2c0,0,0,0.1,0,0.1c0,0,0,0-0.1-0.1c0,0,0,0,0,0
				c-0.1-0.1-0.1-0.2-0.2-0.2c0,0,0,0,0,0c0,0,0,0,0,0c0,0,0,0,0,0c0,0,0,0-0.1,0c0,0-0.1,0-0.1,0c-0.1,0.1-0.1,0.1-0.2,0.2
				c0,0.1-0.1,0.2-0.1,0.3c0,0.1,0,0.1-0.1,0.2l0,0c0,0,0,0.1-0.1,0.1c0,0.1,0,0.1-0.1,0.2c0,0.1,0,0.2-0.1,0.4c0,0.1,0,0.1,0,0.2
				l0,0.1l0,0.1c0,0.1,0,0.2,0,0.3c0,0.1,0,0.1,0,0.2l0,0.1l0,0.1c0,0,0,0.1,0,0.1l0,0.2c0,0.1,0,0.2,0,0.3c0,0.1,0,0.2,0.1,0.4
				l0,0.1l0,0.1c0,0.1,0,0.1,0.1,0.2c0,0,0,0.1,0,0.1c0,0.1,0.1,0.2,0.1,0.4l0,0l0,0c0,0,0,0,0,0l0,0l0,0.1c0,0,0.1,0.1,0.1,0.1l0,0
				l0,0l0,0l0,0l0,0c0,0,0,0,0,0c0,0,0,0,0,0c0.1,0,0.1,0.1,0.2,0.1l0,0h0l0,0h0l0,0c0,0,0.1,0,0.1,0c0.1,0,0.1,0,0.2-0.1
				c0.1-0.1,0.2-0.1,0.2-0.2c0.1-0.1,0.1-0.3,0.2-0.4c0-0.1,0.1-0.3,0.1-0.4c0-0.1,0-0.1,0-0.2c0-0.1,0-0.1,0-0.2c0-0.1,0-0.3,0-0.4
				C73.7,104.3,73.7,104.2,73.7,104.1z"/>
			<path class="st14" d="M73.5,105c0,0.1,0,0.1,0,0.2c0,0.1-0.1,0.2-0.1,0.3c0.1-0.2,0.1-0.4,0.2-0.7c0,0,0,0.1,0,0.1
				C73.5,104.9,73.5,105,73.5,105z"/>
			<path class="st0" d="M76.9,102.5c0,0.1,0,0.1-0.1,0.2c0,0.1,0,0.2-0.1,0.4c0,0.1,0,0.1,0,0.2l0,0.1l0,0.1c0,0.1,0,0.2,0,0.3
				c0,0.1,0,0.1,0,0.2l0,0.1l0,0.1l0,0.1l0,0.2c0,0.1,0,0.2,0,0.3c0,0.1,0,0.2,0.1,0.4l0,0.1l0,0.1c0,0.1,0,0.1,0.1,0.2
				c0,0,0,0.1,0,0.1c0,0.1,0.1,0.2,0.1,0.4l0,0l0,0c0,0,0,0,0,0l0,0l0,0.1c0,0,0.1,0.1,0.1,0.1l0,0l0,0l0,0l0,0l0,0c0,0,0,0,0,0
				c0,0,0,0,0,0c0.1,0,0.1,0.1,0.2,0.1l0,0h0l0,0h0h0c0,0,0.1,0,0.1,0c0.1,0,0.1,0,0.2-0.1c0.1-0.1,0.2-0.1,0.2-0.2
				c0.1-0.1,0.1-0.3,0.2-0.4c0-0.1,0.1-0.3,0.1-0.4c0-0.1,0-0.1,0.1-0.2c0-0.1,0-0.1,0-0.2c0-0.1,0-0.3,0-0.4c0-0.1,0-0.2,0-0.4
				c0-0.1,0-0.3,0-0.4l0-0.3c0-0.1,0-0.2-0.1-0.3l-0.1-0.3c0-0.1,0-0.2-0.1-0.2c0-0.1,0-0.2-0.1-0.2c0-0.1-0.1-0.1-0.1-0.2
				c-0.1-0.2-0.3-0.3-0.3-0.2c0,0,0,0.1,0,0.1c0,0,0,0-0.1-0.1c0,0,0,0,0,0c-0.1-0.1-0.1-0.2-0.2-0.2c0,0,0,0,0,0c0,0,0,0,0,0
				c0,0,0,0,0,0c0,0,0,0-0.1,0c0,0-0.1,0-0.1,0c-0.1,0.1-0.1,0.1-0.2,0.2c0,0.1-0.1,0.2-0.1,0.3c0,0.1,0,0.1-0.1,0.2l0,0
				C76.9,102.4,76.9,102.5,76.9,102.5z"/>
			<path class="st0" d="M78.3,104.8C78.3,104.8,78.3,104.8,78.3,104.8c0,0.2,0,0.2,0,0.3c0,0.1,0,0.1,0,0.2c0,0.1-0.1,0.2-0.1,0.3
				C78.2,105.3,78.3,105,78.3,104.8z"/>
			<path class="st0" d="M96.8,102.3c0,0-0.2,0-0.3,0.2c0,0.1-0.1,0.1-0.1,0.2c0,0.1-0.1,0.1-0.1,0.2c0,0.1,0,0.2-0.1,0.2l-0.1,0.3
				c0,0.1,0,0.2-0.1,0.3l0,0.3c0,0.1,0,0.2,0,0.4c0,0.1,0,0.2,0,0.4c0,0.1,0,0.2,0,0.4c0,0.1,0,0.1,0,0.2c0,0.1,0,0.1,0,0.2
				c0,0.1,0.1,0.2,0.1,0.3c0,0,0,0.1,0,0.1c0,0.1,0.1,0.2,0.1,0.2c0,0.1,0.1,0.1,0.1,0.2c0.1,0.1,0.1,0.2,0.2,0.2
				c0,0,0.1,0.1,0.2,0.1c0,0,0.1,0,0.1,0h0h0h0l0,0l0,0c0.1,0,0.1,0,0.2-0.1c0,0,0,0,0,0c0,0,0,0,0,0l0,0l0,0l0,0l0,0l0,0
				c0,0,0.1-0.1,0.1-0.1l0-0.1l0,0c0,0,0,0,0,0l0,0v0c0.1-0.1,0.1-0.2,0.1-0.4c0,0,0-0.1,0-0.1c0-0.1,0-0.1,0.1-0.2l0-0.1l0-0.1
				c0-0.1,0-0.2,0.1-0.4c0-0.1,0-0.2,0-0.3l0-0.2c0,0,0,0,0-0.1l0-0.1l0-0.1c0,0,0-0.1,0-0.2c0-0.1,0-0.2,0-0.3l0-0.1l0-0.1
				c0-0.1,0-0.2,0-0.2c0-0.1,0-0.3-0.1-0.4c0-0.1-0.1-0.2-0.1-0.2c0,0,0,0,0-0.1c0,0,0,0,0-0.1l0,0c0-0.1,0-0.1-0.1-0.2
				c0-0.1-0.1-0.1-0.1-0.2c0,0,0,0,0,0c0-0.1-0.1-0.2-0.2-0.2c0,0-0.1,0-0.1,0c0,0,0,0-0.1,0c0,0,0,0,0,0c0,0,0,0,0,0c0,0,0,0,0,0
				C97,102.2,96.9,102.3,96.8,102.3C96.9,102.4,96.9,102.4,96.8,102.3c0,0.1,0,0.1,0,0.1C96.8,102.4,96.8,102.4,96.8,102.3z"/>
			<path class="st0" d="M96.4,105.6C96.4,105.6,96.4,105.6,96.4,105.6c0-0.1,0-0.1-0.1-0.2c0-0.1,0-0.1,0-0.2c0,0,0-0.1,0-0.1
				C96.3,105.3,96.4,105.5,96.4,105.6c0,0.1,0.1,0.2,0.1,0.2C96.4,105.8,96.4,105.7,96.4,105.6z"/>
			<path class="st14" d="M93.3,108.9c0,0-0.2,0-0.3,0.2c0,0-0.1,0.1-0.1,0.2c0,0.1-0.1,0.1-0.1,0.2c0,0.1,0,0.2-0.1,0.2l-0.1,0.3
				c0,0.1,0,0.2-0.1,0.3l0,0.3c0,0.1,0,0.2,0,0.4c0,0.1,0,0.2,0,0.4c0,0.1,0,0.2,0,0.4c0,0.1,0,0.1,0,0.2c0,0.1,0,0.1,0,0.2
				c0,0.1,0.1,0.3,0.1,0.4c0,0.1,0.1,0.3,0.2,0.4c0.1,0.1,0.1,0.2,0.2,0.2c0,0,0.1,0.1,0.2,0.1c0,0,0.1,0,0.1,0l0,0h0l0,0h0l0,0
				c0.1,0,0.1,0,0.2-0.1c0,0,0,0,0,0c0,0,0,0,0,0l0,0l0,0v0l0,0l0,0c0,0,0.1-0.1,0.1-0.1l0-0.1l0,0c0,0,0,0,0,0l0,0l0,0
				c0.1-0.1,0.1-0.2,0.1-0.4c0,0,0-0.1,0-0.1c0-0.1,0-0.1,0.1-0.2l0-0.1l0-0.1c0-0.1,0-0.2,0-0.4c0-0.1,0-0.2,0-0.3l0-0.2
				c0,0,0,0,0-0.1v-0.1l0-0.1c0-0.1,0-0.1,0-0.2c0-0.1,0-0.2,0-0.3l0-0.1l0-0.1c0-0.1,0-0.2,0-0.2c0-0.1,0-0.3-0.1-0.4
				c0-0.1,0-0.2-0.1-0.2c0,0,0-0.1,0-0.1l0,0c0-0.1,0-0.1-0.1-0.2c0-0.1-0.1-0.2-0.1-0.3c0-0.1-0.1-0.2-0.2-0.2c0,0-0.1,0-0.1,0
				c0,0,0,0-0.1,0c0,0,0,0,0,0c0,0,0,0,0,0c0,0,0,0,0,0C93.5,108.8,93.4,108.9,93.3,108.9C93.4,109,93.4,109,93.3,108.9
				c0,0.1,0,0.1,0,0.1C93.3,109,93.3,108.9,93.3,108.9z"/>
			<path class="st0" d="M92.9,112.2c0-0.1,0-0.1,0-0.2c0-0.1,0-0.1,0-0.2c0,0,0-0.1,0-0.1c0,0.3,0.1,0.5,0.1,0.7
				C92.9,112.3,92.9,112.3,92.9,112.2z"/>
			<path class="st0" d="M89,108.9c0,0-0.2,0-0.3,0.2c0,0-0.1,0.1-0.1,0.2c0,0.1-0.1,0.1-0.1,0.2c0,0.1,0,0.2-0.1,0.2l-0.1,0.3
				c0,0.1,0,0.2-0.1,0.3l0,0.3c0,0.1,0,0.2,0,0.4c0,0.1,0,0.2,0,0.4c0,0.1,0,0.2,0,0.4c0,0.1,0,0.1,0,0.2c0,0.1,0,0.1,0,0.2
				c0,0.1,0.1,0.3,0.1,0.4c0,0.1,0.1,0.3,0.2,0.4c0.1,0.1,0.1,0.2,0.2,0.2c0,0,0.1,0.1,0.2,0.1c0,0,0.1,0,0.1,0l0,0h0l0,0h0l0,0
				c0.1,0,0.1,0,0.2-0.1c0,0,0,0,0,0c0,0,0,0,0,0l0,0l0,0v0l0,0l0,0c0,0,0.1-0.1,0.1-0.1l0-0.1l0,0c0,0,0,0,0,0l0,0l0,0
				c0.1-0.1,0.1-0.2,0.1-0.4c0,0,0-0.1,0-0.1c0-0.1,0-0.1,0.1-0.2l0-0.1l0-0.1c0-0.1,0-0.2,0-0.4c0-0.1,0-0.2,0-0.3l0-0.2
				c0,0,0,0,0-0.1v-0.1l0-0.1c0-0.1,0-0.1,0-0.2c0-0.1,0-0.2,0-0.3l0-0.1l0-0.1c0-0.1,0-0.2,0-0.2c0-0.1,0-0.3-0.1-0.4
				c0-0.1,0-0.2-0.1-0.2c0,0,0-0.1,0-0.1l0,0c0-0.1,0-0.1-0.1-0.2c0-0.1-0.1-0.2-0.1-0.3c0-0.1-0.1-0.2-0.2-0.2c0,0-0.1,0-0.1,0
				c0,0,0,0-0.1,0c0,0,0,0,0,0c0,0,0,0,0,0c0,0,0,0,0,0C89.2,108.8,89.2,108.9,89,108.9C89.1,109,89.1,109,89,108.9
				c0,0.1,0,0.1,0,0.1C89,109,89.1,108.9,89,108.9z"/>
			<path class="st0" d="M88.6,112.2c0-0.1,0-0.1,0-0.2c0-0.1,0-0.1,0-0.2c0,0,0-0.1,0-0.1c0,0.3,0.1,0.5,0.2,0.7
				C88.7,112.3,88.6,112.3,88.6,112.2z"/>
			<path class="st0" d="M91.9,102.2c0,0-0.2,0-0.3,0.2c0,0.1-0.1,0.1-0.1,0.2c0,0.1-0.1,0.1-0.1,0.2c0,0.1,0,0.2-0.1,0.2l-0.1,0.3
				c0,0.1,0,0.2-0.1,0.3l0,0.3c0,0.1,0,0.2,0,0.4c0,0.1,0,0.2,0,0.4c0,0.1,0,0.2,0,0.4c0,0.1,0,0.1,0,0.2c0,0.1,0,0.1,0,0.2
				c0,0.1,0.1,0.3,0.1,0.4c0,0.1,0.1,0.3,0.2,0.4c0.1,0.1,0.1,0.2,0.2,0.2c0,0,0.1,0.1,0.2,0.1c0,0,0.1,0,0.1,0h0h0h0l0,0l0,0
				c0.1,0,0.1,0,0.2-0.1c0,0,0,0,0,0c0,0,0,0,0,0l0,0l0,0v0l0,0l0,0c0,0,0.1-0.1,0.1-0.1l0-0.1l0,0c0,0,0,0,0,0l0,0l0,0
				c0.1-0.1,0.1-0.2,0.1-0.4c0,0,0-0.1,0-0.1c0-0.1,0-0.1,0.1-0.2l0-0.1l0-0.1c0-0.1,0-0.2,0-0.4c0-0.1,0-0.2,0-0.3l0-0.2
				c0,0,0,0,0-0.1v-0.1l0-0.1c0-0.1,0-0.1,0-0.2c0-0.1,0-0.2,0-0.3l0-0.1l0-0.1c0-0.1,0-0.2,0-0.2c0-0.1,0-0.3-0.1-0.4
				c0-0.1,0-0.2-0.1-0.2c0,0,0-0.1,0-0.1l0,0c0-0.1,0-0.1-0.1-0.2c0-0.1-0.1-0.2-0.1-0.3c0-0.1-0.1-0.2-0.2-0.2c0,0-0.1,0-0.1,0
				c0,0,0,0-0.1,0c0,0,0,0,0,0c0,0,0,0,0,0c0,0,0,0,0,0C92.1,102.1,92,102.2,91.9,102.2C92,102.3,92,102.3,91.9,102.2
				c0,0.1,0,0.1,0,0.1C91.9,102.3,91.9,102.2,91.9,102.2z"/>
			<path class="st0" d="M91.5,105.5c0-0.1,0-0.1,0-0.2c0-0.1,0-0.1,0-0.2c0,0,0-0.1,0-0.1c0,0.3,0.1,0.5,0.2,0.7
				C91.5,105.7,91.5,105.6,91.5,105.5z"/>
			<path class="st0" d="M87.8,102.3c0-0.1-0.1-0.2-0.2-0.2c0,0-0.1,0-0.1,0c0,0,0,0-0.1,0c0,0,0,0,0,0c0,0,0,0,0,0c0,0,0,0,0,0
				c-0.1,0-0.1,0.1-0.2,0.2c0,0,0,0,0,0c0,0,0,0-0.1,0.1c0-0.1,0-0.1,0-0.1c0-0.1-0.2,0-0.3,0.2c0,0-0.1,0.1-0.1,0.2
				c0,0.1-0.1,0.1-0.1,0.2c0,0.1,0,0.2-0.1,0.2l-0.1,0.3c0,0.1,0,0.2-0.1,0.3l0,0.3c0,0.1,0,0.2,0,0.4c0,0.1,0,0.2,0,0.4
				c0,0.1,0,0.2,0,0.4c0,0.1,0,0.1,0,0.2c0,0.1,0,0.1,0,0.2c0,0.1,0.1,0.3,0.1,0.4c0,0.1,0.1,0.3,0.2,0.4c0.1,0.1,0.1,0.2,0.2,0.2
				c0,0,0.1,0.1,0.2,0.1c0,0,0.1,0,0.1,0h0h0h0l0,0l0,0c0.1,0,0.1,0,0.2-0.1c0,0,0,0,0,0c0,0,0,0,0,0l0,0l0,0l0,0l0,0l0,0
				c0,0,0.1-0.1,0.1-0.1l0-0.1l0,0c0,0,0,0,0,0l0,0l0,0c0.1-0.1,0.1-0.2,0.1-0.4c0,0,0-0.1,0-0.1c0-0.1,0-0.1,0.1-0.2l0-0.1l0-0.1
				c0-0.1,0-0.2,0-0.4c0-0.1,0-0.2,0-0.3l0-0.2l0-0.1v-0.1l0-0.1c0-0.1,0-0.1,0-0.2c0-0.1,0-0.2,0-0.3l0-0.1l0-0.1
				c0-0.1,0-0.2,0-0.2c0-0.1,0-0.3-0.1-0.4c0-0.1-0.1-0.2-0.1-0.2c0,0,0-0.1,0-0.1l0,0c0-0.1,0-0.1-0.1-0.2
				C87.8,102.5,87.8,102.4,87.8,102.3z"/>
			<path class="st0" d="M86.6,105.5c0-0.1,0-0.1,0-0.2c0-0.1,0-0.1,0-0.2c0,0,0-0.1,0-0.1c0,0.3,0.1,0.5,0.1,0.7
				C86.7,105.7,86.6,105.6,86.6,105.5z"/>
		</g>
	</g>
</g>
</svg>
