<?xml version="1.0" encoding="utf-8"?>
<!-- Generator: Adobe Illustrator 21.0.0, SVG Export Plug-In . SVG Version: 6.00 Build 0)  -->
<svg version="1.1" id="Layer_1" xmlns="http://www.w3.org/2000/svg" xmlns:xlink="http://www.w3.org/1999/xlink" x="0px" y="0px"
	 viewBox="0 0 160 145" style="enable-background:new 0 0 160 145;" xml:space="preserve">
<style type="text/css">
	.st0{fill:#CB5990;}
	.st1{fill:#FFFFFF;}
	.st2{fill:#12B6BF;}
	.st3{fill:url(#SVGID_1_);}
	.st4{fill:#455BA8;}
	.st5{fill:#326EB6;}
	.st6{fill:#DD5968;}
	.st7{fill:#EF537A;}
	.st8{fill:url(#SVGID_2_);}
	.st9{fill:url(#SVGID_3_);}
	.st10{fill:url(#SVGID_4_);}
	.st11{fill:url(#SVGID_5_);}
	.st12{fill:#F16443;}
	.st13{fill:url(#SVGID_6_);}
	.st14{fill:#F68E3F;}
	.st15{fill:url(#SVGID_7_);}
	.st16{fill:url(#SVGID_8_);}
	.st17{fill:url(#SVGID_9_);}
	.st18{fill:url(#SVGID_10_);}
	.st19{fill:url(#SVGID_11_);}
	.st20{fill:url(#SVGID_12_);}
	.st21{fill:url(#SVGID_13_);}
	.st22{fill:url(#SVGID_14_);}
	.st23{fill:url(#SVGID_15_);}
	.st24{fill:url(#SVGID_16_);}
	.st25{fill:url(#SVGID_17_);}
	.st26{fill:#3DB66D;}
	.st27{fill:url(#SVGID_18_);}
	.st28{fill:url(#SVGID_19_);}
	.st29{fill:url(#SVGID_20_);}
	.st30{fill:url(#SVGID_21_);}
	.st31{fill:url(#SVGID_22_);}
	.st32{fill:url(#SVGID_23_);}
	.st33{fill:url(#SVGID_24_);}
	.st34{fill:url(#SVGID_25_);}
	.st35{fill:url(#SVGID_26_);}
	.st36{fill:url(#SVGID_27_);}
	.st37{fill:url(#SVGID_28_);}
	.st38{fill:url(#SVGID_29_);}
	.st39{fill:url(#SVGID_30_);}
	.st40{fill:url(#SVGID_31_);}
	.st41{fill:url(#SVGID_32_);}
	.st42{fill:url(#SVGID_33_);}
	.st43{fill:url(#SVGID_34_);}
	.st44{fill:url(#SVGID_35_);}
	.st45{fill:url(#SVGID_36_);}
	.st46{fill:url(#SVGID_37_);}
	.st47{fill:url(#SVGID_38_);}
	.st48{fill:url(#SVGID_39_);}
	.st49{fill:url(#SVGID_40_);}
	.st50{fill:url(#SVGID_41_);}
	.st51{fill:url(#SVGID_42_);}
	.st52{fill:url(#SVGID_43_);}
	.st53{fill:url(#SVGID_44_);}
	.st54{fill:url(#SVGID_45_);}
	.st55{fill:url(#SVGID_46_);}
	.st56{fill:url(#SVGID_47_);}
	.st57{fill:url(#SVGID_48_);}
	.st58{fill:url(#SVGID_49_);}
	.st59{fill:url(#SVGID_50_);}
	.st60{fill:url(#SVGID_51_);}
	.st61{fill:url(#SVGID_52_);}
	.st62{fill:url(#SVGID_53_);}
	.st63{fill:url(#SVGID_54_);}
	.st64{fill:url(#SVGID_55_);}
	.st65{fill:url(#SVGID_56_);}
	.st66{fill:url(#SVGID_57_);}
	.st67{fill:url(#SVGID_58_);}
	.st68{fill:url(#SVGID_59_);}
	.st69{fill:url(#SVGID_60_);}
	.st70{fill:url(#SVGID_61_);}
	.st71{fill:url(#SVGID_62_);}
	.st72{fill:url(#SVGID_63_);}
	.st73{fill:url(#SVGID_64_);}
	.st74{fill:url(#SVGID_65_);}
	.st75{fill:url(#SVGID_66_);}
	.st76{fill:url(#SVGID_67_);}
	.st77{fill:url(#SVGID_68_);}
	.st78{fill:url(#SVGID_69_);}
	.st79{fill:url(#SVGID_70_);}
	.st80{fill:url(#SVGID_71_);}
	.st81{fill:url(#SVGID_72_);}
	.st82{fill:url(#SVGID_73_);}
	.st83{fill:url(#SVGID_74_);}
	.st84{fill:url(#SVGID_75_);}
	.st85{fill:url(#SVGID_76_);}
	.st86{fill:url(#SVGID_77_);}
	.st87{fill:url(#SVGID_78_);}
	.st88{fill:url(#SVGID_79_);}
	.st89{fill:url(#SVGID_80_);}
	.st90{fill:url(#SVGID_81_);}
	.st91{fill:url(#SVGID_82_);}
	.st92{fill:url(#SVGID_83_);}
	.st93{fill:url(#SVGID_84_);}
	.st94{fill:url(#SVGID_85_);}
	.st95{fill:url(#SVGID_86_);}
	.st96{fill:url(#SVGID_87_);}
	.st97{fill:url(#SVGID_88_);}
	.st98{fill:url(#SVGID_89_);}
	.st99{fill:url(#SVGID_90_);}
	.st100{fill:url(#SVGID_91_);}
	.st101{fill:url(#SVGID_92_);}
	.st102{fill:url(#SVGID_93_);}
	.st103{fill:url(#SVGID_94_);}
	.st104{fill:url(#SVGID_95_);}
	.st105{fill:url(#SVGID_96_);}
	.st106{fill:url(#SVGID_97_);}
	.st107{fill:url(#SVGID_98_);}
	.st108{fill:url(#SVGID_99_);}
	.st109{fill:url(#SVGID_100_);}
	.st110{fill:url(#SVGID_101_);}
	.st111{fill:url(#SVGID_102_);}
	.st112{fill:url(#SVGID_103_);}
	.st113{fill:url(#SVGID_104_);}
	.st114{fill:url(#SVGID_105_);}
	.st115{fill:url(#SVGID_106_);}
	.st116{fill:url(#SVGID_107_);}
	.st117{fill:url(#SVGID_108_);}
	.st118{fill:url(#SVGID_109_);}
	.st119{fill:url(#SVGID_110_);}
	.st120{fill:url(#SVGID_111_);}
	.st121{fill:url(#SVGID_112_);}
	.st122{fill:url(#SVGID_113_);}
	.st123{fill:url(#SVGID_114_);}
	.st124{fill:url(#SVGID_115_);}
	.st125{fill:url(#SVGID_116_);}
	.st126{fill:url(#SVGID_117_);}
	.st127{fill:url(#SVGID_118_);}
	.st128{fill:url(#SVGID_119_);}
	.st129{fill:url(#SVGID_120_);}
	.st130{fill:url(#SVGID_121_);}
	.st131{fill:url(#SVGID_122_);}
	.st132{fill:url(#SVGID_123_);}
	.st133{fill:url(#SVGID_124_);}
	.st134{fill:url(#SVGID_125_);}
	.st135{fill:url(#SVGID_126_);}
	.st136{fill:url(#SVGID_127_);}
	.st137{fill:#184054;}
	.st138{fill:url(#SVGID_128_);}
	.st139{fill:url(#SVGID_129_);}
	.st140{fill:url(#SVGID_130_);}
	.st141{fill:url(#SVGID_131_);}
	.st142{fill:url(#SVGID_132_);}
	.st143{fill:url(#SVGID_133_);}
	.st144{fill:url(#SVGID_134_);}
	.st145{fill:url(#SVGID_135_);}
	.st146{fill:url(#SVGID_136_);}
	.st147{fill:url(#SVGID_137_);}
	.st148{fill:url(#SVGID_138_);}
	.st149{fill:url(#SVGID_139_);}
	.st150{fill:url(#SVGID_140_);}
	.st151{fill:url(#SVGID_141_);}
	.st152{fill:url(#SVGID_142_);}
	.st153{fill:url(#SVGID_143_);}
	.st154{fill:url(#SVGID_144_);}
	.st155{fill:url(#SVGID_145_);}
	.st156{fill:url(#SVGID_146_);}
	.st157{fill:url(#SVGID_147_);}
	.st158{fill:url(#SVGID_148_);}
	.st159{fill:url(#SVGID_149_);}
	.st160{fill:url(#SVGID_150_);}
	.st161{fill:url(#SVGID_151_);}
	.st162{fill:url(#SVGID_152_);}
	.st163{fill:url(#SVGID_153_);}
	.st164{fill:url(#SVGID_154_);}
	.st165{fill:url(#SVGID_155_);}
	.st166{fill:url(#SVGID_156_);}
	.st167{fill:url(#SVGID_157_);}
	.st168{fill:url(#SVGID_158_);}
	.st169{fill:url(#SVGID_159_);}
	.st170{fill:url(#SVGID_160_);}
	.st171{fill:url(#SVGID_161_);}
	.st172{fill:url(#SVGID_162_);}
	.st173{fill:url(#SVGID_163_);}
	.st174{fill:url(#SVGID_164_);}
	.st175{fill:url(#SVGID_165_);}
	.st176{fill:url(#SVGID_166_);}
	.st177{fill:url(#SVGID_167_);}
	.st178{fill:url(#SVGID_168_);}
	.st179{fill:url(#SVGID_169_);}
	.st180{fill:url(#SVGID_170_);}
	.st181{fill:url(#SVGID_171_);}
	.st182{fill:url(#SVGID_172_);}
	.st183{fill:url(#SVGID_173_);}
	.st184{fill:url(#SVGID_174_);}
	.st185{fill:url(#SVGID_175_);}
	.st186{fill:url(#SVGID_176_);}
	.st187{fill:url(#SVGID_177_);}
	.st188{fill:url(#SVGID_178_);}
	.st189{fill:url(#SVGID_179_);}
	.st190{fill:url(#SVGID_180_);}
	.st191{fill:url(#SVGID_181_);}
	.st192{fill:url(#SVGID_182_);}
	.st193{fill:url(#SVGID_183_);}
	.st194{fill:url(#SVGID_184_);}
	.st195{fill:url(#SVGID_185_);}
	.st196{fill:url(#SVGID_186_);}
	.st197{fill:url(#SVGID_187_);}
	.st198{fill:url(#SVGID_188_);}
	.st199{fill:url(#SVGID_189_);}
	.st200{fill:url(#SVGID_190_);}
	.st201{fill:url(#SVGID_191_);}
	.st202{fill:url(#SVGID_192_);}
	.st203{fill:url(#SVGID_193_);}
	.st204{fill:url(#SVGID_194_);}
	.st205{fill:url(#SVGID_195_);}
	.st206{fill:url(#SVGID_196_);}
	.st207{fill:url(#SVGID_197_);}
	.st208{fill:url(#SVGID_198_);}
	.st209{fill:url(#SVGID_199_);}
	.st210{fill:url(#SVGID_200_);}
	.st211{fill:url(#SVGID_201_);}
	.st212{fill:url(#SVGID_202_);}
	.st213{fill:url(#SVGID_203_);}
	.st214{fill:url(#SVGID_204_);}
	.st215{fill:url(#SVGID_205_);}
	.st216{fill:url(#SVGID_206_);}
	.st217{fill:url(#SVGID_207_);}
	.st218{fill:url(#SVGID_208_);}
	.st219{fill:#969697;}
	.st220{fill:url(#SVGID_209_);}
	.st221{fill:url(#SVGID_210_);}
	.st222{fill:url(#SVGID_211_);}
	.st223{fill:url(#SVGID_212_);}
	.st224{fill:url(#SVGID_213_);}
	.st225{fill:url(#SVGID_214_);}
	.st226{fill:url(#SVGID_215_);}
	.st227{fill:url(#SVGID_216_);}
	.st228{fill:url(#SVGID_217_);}
	.st229{fill:url(#SVGID_218_);}
	.st230{fill:url(#SVGID_219_);}
	.st231{fill:url(#SVGID_220_);}
	.st232{fill:url(#SVGID_221_);}
	.st233{fill:url(#SVGID_222_);}
	.st234{fill:url(#SVGID_223_);}
	.st235{fill:url(#SVGID_224_);}
	.st236{fill:url(#SVGID_225_);}
	.st237{fill:url(#SVGID_226_);}
	.st238{fill:url(#SVGID_227_);}
	.st239{fill:url(#SVGID_228_);}
	.st240{fill:url(#SVGID_229_);}
	.st241{fill:url(#SVGID_230_);}
	.st242{fill:url(#SVGID_231_);}
	.st243{fill:url(#SVGID_232_);}
	.st244{fill:url(#SVGID_233_);}
	.st245{fill:url(#SVGID_234_);}
	.st246{fill:url(#SVGID_235_);}
	.st247{fill:url(#SVGID_236_);}
	.st248{fill:url(#SVGID_237_);}
	.st249{fill:url(#SVGID_238_);}
	.st250{fill:url(#SVGID_239_);}
	.st251{fill:url(#SVGID_240_);}
	.st252{fill:url(#SVGID_241_);}
	.st253{fill:url(#SVGID_242_);}
	.st254{fill:url(#SVGID_243_);}
	.st255{fill:url(#SVGID_244_);}
	.st256{fill:url(#SVGID_245_);}
	.st257{fill:url(#SVGID_246_);}
	.st258{fill:url(#SVGID_247_);}
	.st259{fill:url(#SVGID_248_);}
	.st260{fill:url(#SVGID_249_);}
	.st261{fill:url(#SVGID_250_);}
	.st262{fill:url(#SVGID_251_);}
	.st263{fill:url(#SVGID_252_);}
	.st264{fill:url(#SVGID_253_);}
	.st265{fill:url(#SVGID_254_);}
	.st266{fill:url(#SVGID_255_);}
	.st267{fill:url(#SVGID_256_);}
	.st268{fill:url(#SVGID_257_);}
	.st269{fill:url(#SVGID_258_);}
	.st270{fill:url(#SVGID_259_);}
	.st271{fill:url(#SVGID_260_);}
	.st272{fill:url(#SVGID_261_);}
	.st273{fill:url(#SVGID_262_);}
	.st274{fill:url(#SVGID_263_);}
	.st275{fill:url(#SVGID_264_);}
	.st276{fill:url(#SVGID_265_);}
	.st277{fill:url(#SVGID_266_);}
	.st278{fill:url(#SVGID_267_);}
	.st279{fill:#F69474;}
	.st280{fill:#F27350;}
	.st281{fill:url(#SVGID_268_);}
	.st282{fill:url(#SVGID_269_);}
	.st283{fill:url(#SVGID_270_);}
	.st284{fill:url(#SVGID_271_);}
	.st285{fill:url(#SVGID_272_);}
	.st286{fill:url(#SVGID_273_);}
	.st287{fill:url(#SVGID_274_);}
	.st288{fill:url(#SVGID_275_);}
	.st289{fill:url(#SVGID_276_);}
	.st290{fill:url(#SVGID_277_);}
	.st291{fill:url(#SVGID_278_);}
	.st292{fill:url(#SVGID_279_);}
	.st293{fill:url(#SVGID_280_);}
	.st294{fill:url(#SVGID_281_);}
	.st295{fill:url(#SVGID_282_);}
	.st296{fill:url(#SVGID_283_);}
	.st297{fill:url(#SVGID_284_);}
	.st298{fill:url(#SVGID_285_);}
	.st299{fill:url(#SVGID_286_);}
	.st300{fill:url(#SVGID_287_);}
	.st301{fill:url(#SVGID_288_);}
	.st302{fill:url(#SVGID_289_);}
	.st303{fill:url(#SVGID_290_);}
	.st304{fill:url(#SVGID_291_);}
	.st305{fill:url(#SVGID_292_);}
	.st306{fill:url(#SVGID_293_);}
</style>
<g>
	<path class="st1" d="M87.9,120.3c3.7-0.4,7.5-1,11.1-1.9c3.6-0.9,7.2-2.1,10.7-3.7c3.5-1.5,6.8-3.4,9.8-5.7c3-2.3,5.8-5.1,7.9-8.3
		c1.9-2.8,3.3-6,4.2-9.5c0.9-3.5,1.2-7.2,1.1-10.9c-0.1-1.9-0.2-3.7-0.5-5.6c-0.1-0.5-0.1-0.9-0.2-1.4c-0.1-0.5-0.1-0.9-0.2-1.4
		c-0.2-0.9-0.4-1.9-0.6-2.8c-0.9-3.7-2.1-7.4-3.6-10.9c-1.5-3.6-3.3-7-5.2-10.4c-1.9-3.4-4.1-6.6-6.4-9.7c-2.3-3.1-4.8-6-7.6-8.6
		c-1.3-1.2-2.7-2.3-4.1-3.3c0,0.2-0.1,0.4-0.1,0.6c0.2,4.4,0.4,8.7,0.6,13.1c0.1,2.5,0.9,12.6,0.6,12.5c-0.6-0.1-1.8-0.2-2.4-0.3
		c-0.6-0.1-1.3-0.1-1.9-0.1c-1.3-0.1-2.6-0.1-3.9-0.1c-2.6-0.1-5.2-0.1-7.8-0.1c-1.3,0-2.6,0-3.9,0c-2.6,0.1-5.2,0.2-7.7,0.3
		c-2,0.1-3.9,0.2-5.8,0.4c-3.2,0.5-6.6,1.3-10,2.1l-11.4,2.8c-0.4,0.1-1.8-6.6-2.1-7.8c-0.5-2.3-0.9-4.5-1.2-6.8
		c-0.3-2.2-0.5-4.4-0.7-6.5c-0.1-1.1-0.1-2.1-0.1-3.2c0-0.5,0-1,0-1.6c0-0.4,0-0.9,0.1-1.3c-0.5,0.6-1,1.2-1.5,1.8
		c-1.2,1.5-2.3,3.2-3.4,4.8c-2.1,3.4-3.9,6.9-5.6,10.5c-1.7,3.6-3.1,7.4-4.5,11.2c-0.7,1.9-1.3,3.8-1.8,5.8c-0.5,1.9-1,3.9-1.4,5.9
		c-0.2,1-0.4,2-0.5,3c-0.1,1-0.2,2-0.2,3c0,0.2,0,0.5,0,0.7l0,0.8c0,0.5,0,1,0.1,1.5c0.1,1,0.1,2,0.2,3c0.4,4,1.1,8,2.4,11.8
		c1.2,3.8,3,7.4,5.3,10.6c2.3,3.2,5.2,5.8,8.4,7.9c1.6,1,3.3,1.9,5,2.7c0.9,0.4,1.7,0.7,2.6,1.1c0.4,0.2,0.9,0.3,1.3,0.5
		c0.4,0.2,0.9,0.3,1.3,0.4c1.8,0.5,3.7,1,5.5,1.4c1.8,0.4,3.7,0.7,5.6,1C72.9,120.7,80.4,121.1,87.9,120.3z M127.5,78.9
		c0.3,0,0.6,0.3,0.6,0.8c0,0.6-0.2,1.2-0.4,1.7c-0.3,0.5-0.6,1-1,1.5c-1.2,1.6-2.6,3-4.1,4c-1.5,1-3.1,1.8-4.7,2.5
		c-0.8,0.3-1.6,0.6-2.4,0.9c-0.4,0.1-0.8,0.3-1.2,0.4l-0.6,0.2l-0.1,0l-0.1,0l-0.2,0l-0.3,0.1c-3.1,0.6-6.3,0.7-9.4,0.2
		c-1.6-0.3-3.1-0.7-4.6-1.3c-1.5-0.6-2.9-1.4-4.3-2.4c-0.1-0.1,0-0.2,0-0.2c1.4,0.4,2.7,0.9,4,1.3c1.3,0.4,2.7,0.7,4.1,1
		c1.4,0.3,2.8,0.4,4.2,0.5c1.4,0,2.8,0,4.2-0.3c0.4-0.1,0.8-0.1,1.2-0.2l0.6-0.1l0.1,0l0.1,0l0,0l0,0l0.3-0.1
		c0.8-0.2,1.5-0.5,2.3-0.8c1.5-0.6,3-1.2,4.3-2.1c1.4-0.8,2.7-1.8,3.8-3c1.1-1.2,2-2.6,2.7-4.1C126.8,79.1,127.2,78.9,127.5,78.9z
		 M128.1,89.3c-0.2,0.3-0.4,0.6-0.7,0.9c-0.8,1-1.7,1.8-2.8,2.5c-1,0.7-2,1.2-3.1,1.6c-1.1,0.4-2.2,0.8-3.3,1
		c-2,0.5-4.1,0.6-6.1,0.5c-1-0.1-2-0.2-3-0.5c-1-0.3-2-0.6-2.9-1.1c0,0,0-0.1,0-0.1c1,0.1,1.8,0.2,2.7,0.3c0.9,0.1,1.8,0.2,2.7,0.2
		c1.8,0.1,3.7,0.1,5.4-0.2c2-0.4,4-1.1,5.7-2.2c0.9-0.5,1.7-1.2,2.4-1.9c0.7-0.7,1.3-1.6,1.8-2.5c0.1-0.2,0.4-0.3,0.7-0.3
		c0.3,0,0.5,0.2,0.5,0.5C128.4,88.6,128.3,89,128.1,89.3z M90.8,75.7c0.1-1.1,0.4-2.1,0.7-3.1c0,0,0-0.1,0-0.1c0-0.2,0-0.3,0-0.5
		c0.5-1.8,1.3-3.5,2.4-5c1.1-1.5,2.4-2.7,3.9-3.7c1.4-1,3-1.8,4.6-2.4c1.6-0.6,3.2-1.1,4.9-1.5c2.9-0.6,6-1.1,9.1-1
		c1.5,0,3.1,0.2,4.5,0.6c1.4,0.4,2.8,0.9,4,1.7c0.1,0.1,0,0.1-0.1,0.1c-0.7-0.3-1.5-0.5-2.3-0.6c-0.8-0.2-1.6-0.3-2.3-0.4
		c-1.6-0.2-3.2-0.3-4.7-0.2c-3.2,0.1-6.3,0.5-9.4,1.4c-1.7,0.5-3.3,1.1-4.8,1.9c-1,0.5-2,1.1-2.9,1.8c1.2-0.7,2.4-1.4,3.7-1.9
		c2.8-1.1,6.9-2.6,11.2-2.6c9-0.1,12.2,7.4,12.4,8.2c0.1,0.6,0.5,2.4,0.5,3c0,0.4,0,0.8,0,1.2c0,0.2,0,0.4,0,0.7
		c-0.1,1.2-0.2,2.5-0.6,3.7c-0.4,1.2-1.1,2.3-1.9,3.2c-0.8,0.9-1.7,1.7-2.6,2.3c-1.8,1.3-3.6,2.2-5.5,3.1c-1,0.5-2,0.8-3,1
		c-1,0.3-2,0.5-3.1,0.6c-2,0.3-4.1,0.5-6.2,0.4c-2.1-0.1-4.1-0.3-6.2-1c-0.9-0.3-1.9-0.7-2.7-1.3c-1.9-1.4-2.9-3.3-3.3-4.7
		c-0.2-0.7-0.3-1.2-0.4-1.6C90.6,77.9,90.7,76.8,90.8,75.7z M84.3,80.7c0.2-0.4,0.6-0.8,1-1.1c0.4-0.3,0.9-0.5,1.4-0.5
		c0.3,0,0.5,0.1,0.8,0.2c0.2,0.1,0.5,0.3,0.6,0.4c0.2,0.2,0.3,0.4,0.5,0.6c0,0.1,0.1,0.1,0.1,0.2c0,0.1,0.1,0.1,0.1,0.2l0,0.1
		c0,0,0,0.1,0,0.1c0,0.1,0.1,0.1,0.1,0.2c0.2,0.5,0.2,1,0.3,1.5c0,0.5,0,1,0,1.4c-0.1,1-0.2,1.9-0.6,2.8c-0.2,0.5-0.5,0.9-0.9,1.3
		c0,0-0.1,0.1-0.1,0.1c0,0.7,0,1.4,0,2.1c0,1.2,0.1,2.4,0.3,3.6c0.2,1.2,0.4,2.3,0.9,3.4c0.4,1,1.1,1.9,1.9,2.6
		c0.7,0.6,1.6,1,2.5,1.2c0.2,0.1,0.5,0.1,0.7,0.2l0.4,0.1l0.2,0l0.1,0c0,0,0,0,0.1,0c0.4,0.1,1.5-0.1,1.6,0c0.9-0.1,1.7-0.3,2.6-0.6
		c0.5-0.1,0.9-0.3,1.4-0.4c0.2-0.1,0.5-0.2,0.7-0.3c0.2-0.1,0.5-0.3,0.7-0.5c0,0,0.1,0,0.1,0.1c0,0,0,0.1-0.1,0.1c0,0,0,0.1-0.1,0.1
		c0,0.1-0.1,0.1-0.2,0.2c-0.1,0.1-0.2,0.3-0.3,0.4c-0.2,0.2-0.5,0.4-0.7,0.6c-0.5,0.3-1,0.6-1.5,0.8c-0.5,0.2-1.1,0.4-1.6,0.5
		c-0.2,0.1-0.5,0.1-0.7,0.1c0,0,0,0,0,0c0,0.6-0.1,1.2-0.2,1.7c-0.1,0.6-0.2,1.1-0.3,1.7c-0.1,0.5-0.3,1.1-0.6,1.6
		c-0.1,0.1-0.2,0.2-0.2,0.3l0,0c0,0,0,0,0,0c-0.1,0-0.2,0-0.2-0.1c-0.2-0.5-0.3-0.9-0.4-1.4c-0.1-0.5-0.2-0.9-0.3-1.4
		c-0.1-0.8-0.3-1.7-0.4-2.6c-0.5-0.1-1.1-0.3-1.6-0.5c-1.1-0.4-2.1-1-3-1.9c-0.5-0.5-0.8-1-1.2-1.6c-0.3-0.6-0.6-1.2-0.8-1.8
		c0,0,0,0,0-0.1c-0.1,0.4-0.2,0.8-0.3,1.2c-0.2,0.6-0.4,1.3-0.7,1.9c-0.3,0.6-0.6,1.2-1.1,1.7c-0.8,1-1.8,1.6-2.8,2.1
		c-0.3,0.1-0.5,0.2-0.8,0.3c0,0.2,0,0.4,0.1,0.6c0,0.6,0,1.1,0,1.7c0,0.5-0.1,1.1-0.3,1.6c-0.1,0.4-0.2,0.9-0.3,1.3c0,0,0,0,0,0l0,0
		c0,0.1,0,0.1-0.1,0.2l0,0.1l0,0c0,0,0,0.1-0.1,0.1c-0.1,0.1-0.2,0-0.3-0.1c0-0.1-0.1-0.1-0.1-0.2l-0.1,0c0,0,0,0,0-0.1
		c-0.2-0.3-0.4-0.6-0.5-1c-0.2-0.4-0.3-0.9-0.5-1.4c-0.2-0.7-0.3-1.5-0.5-2.2c-0.6,0-1.1,0-1.7-0.1c-0.6-0.1-1.1-0.2-1.7-0.4
		c-0.5-0.2-1.1-0.4-1.6-0.7c-0.3-0.1-0.5-0.3-0.8-0.5c-0.1-0.1-0.2-0.2-0.4-0.3c-0.1-0.1-0.1-0.1-0.2-0.2c0,0-0.1-0.1-0.1-0.1
		c0,0-0.1-0.1-0.1-0.1c0-0.1,0-0.1,0.1-0.1c0.2,0.2,0.5,0.4,0.7,0.5c0.2,0.1,0.5,0.2,0.7,0.3c0.5,0.1,0.9,0.2,1.4,0.3
		c1,0.2,4.3,0.3,4.3,0.3c0,0,1.1-0.3,1.3-0.4c0.9-0.3,1.8-0.8,2.5-1.4c0.8-0.7,1.4-1.6,1.7-2.7c0.4-1.1,0.6-2.2,0.7-3.4
		c0.1-1.2,0.1-2.4,0-3.6c0-0.9,0-2.2-0.1-3.1c-0.1,0-0.8-0.6-1.7-1.9c-0.5-0.8-0.7-1.8-0.7-2.8C83.6,82.6,83.8,81.6,84.3,80.7z
		 M43.1,74.7c0-0.8,2-8.8,11.4-10.5c4.5-0.8,9-0.2,12.1,0.3c1.4,0.2,2.8,0.6,4.1,1.1c-0.3-0.1-0.6-0.2-0.8-0.4
		c-1.6-0.6-3.2-1.1-4.9-1.5c-3.1-0.6-6.3-0.8-9.5-0.5c-1.6,0.1-3.2,0.3-4.7,0.7c-0.8,0.2-1.5,0.4-2.3,0.6c-0.8,0.2-1.5,0.5-2.2,0.8
		c-0.1,0-0.2,0-0.1-0.1c1.1-0.9,2.4-1.6,3.9-2.1c1.4-0.5,2.9-0.8,4.5-1c3.1-0.3,6.2-0.2,9.1,0.2c1.7,0.2,3.4,0.6,5,1.1
		c1.6,0.5,3.3,1.2,4.8,2c1.5,0.9,2.9,2,4.1,3.4c1.2,1.4,2.2,3,2.8,4.8c0.1,0.2,0.1,0.4,0.1,0.5c0.1,0.3,0.2,0.6,0.3,0.9
		c0.3,1,0.5,2.1,0.5,3.2c0,0.2,0,0.4,0,0.6c-0.1,1.4-0.5,4.1-2.7,6.3c-0.7,0.8-1.7,1.3-2.6,1.8c-2,1.1-4.1,1.7-6.2,2.2
		c-2.1,0.5-4.3,0.7-6.5,0.8c-1.1,0-2.2,0-3.3,0c-1.1-0.1-2.2-0.2-3.3-0.4c-2.1-0.5-4.3-1.1-6.3-2c-1.1-0.5-2.1-1-3.1-1.8
		c-1-0.7-1.8-1.7-2.5-2.7c-0.6-1.1-1.1-2.3-1.3-3.5c-0.1-0.6-0.2-1.2-0.3-1.8c0-0.2,0-0.6,0-1C43.1,76,43.1,75.1,43.1,74.7z
		 M41.9,87.5c-0.3-0.4-0.3-0.8-0.1-1.1c0.2-0.3,0.6-0.4,1-0.2c0.5,0.2,0.9,0.6,1.3,0.9c0.4,0.4,0.7,0.8,1.1,1.1
		c1.3,1.2,2.8,2.2,4.4,3c1.5,0.8,3.2,1.5,4.9,2c1.7,0.5,3.4,0.9,5.2,1.1c0.4,0.1,0.8,0.1,1.2,0.1l0.3,0l0.1,0l0,0h0l0,0l0.2,0
		c0.2,0,0.4,0,0.6,0c0.8,0,1.7,0,2.5-0.1c1.6-0.2,3.3-0.5,4.9-0.9c1.6-0.4,3.1-1.1,4.6-1.9c1.4-0.8,2.7-1.8,3.8-3
		c0.1-0.1,0.2,0,0.2,0.1c-0.5,1.4-1.5,2.6-2.8,3.6c-1.3,1-2.8,1.7-4.3,2.3c-1.6,0.5-3.2,0.9-4.8,1.1c-0.8,0.1-1.6,0.2-2.4,0.2
		c-0.4,0-0.8,0-1.2,0l-0.6,0l-0.3,0l-0.1,0h-0.1l-0.1,0c-1.8-0.1-3.6-0.4-5.3-0.8c-1.8-0.4-3.5-0.9-5.2-1.6
		c-1.7-0.7-3.3-1.5-4.8-2.5C44.5,90.1,43.1,88.9,41.9,87.5z M64.9,101.1c-1.2,0.2-2.4,0.3-3.6,0.4c-2.7,0.2-5.5,0.1-8.2-0.4
		c-1.4-0.3-2.7-0.6-4-1.1c-1.3-0.5-2.5-1.2-3.5-2c-0.3-0.2-0.3-0.5-0.1-0.7c0.2-0.2,0.5-0.3,0.8-0.2c0.4,0.1,0.8,0.3,1.1,0.4
		c0.3,0.2,0.6,0.4,0.9,0.6c1.1,0.6,2.3,1.1,3.6,1.5c2.5,0.7,5.2,1,7.9,0.9c2.5-0.1,5-0.4,7.3-1c1.2-0.3,2.3-0.7,3.3-1.2
		c1-0.5,1.9-1.1,2.7-1.8c0,0,0.2,0,0.1,0.1c-0.3,0.9-1,1.6-1.8,2.3c-0.9,0.6-1.9,1.1-3.1,1.5C67.3,100.6,66.1,100.9,64.9,101.1z"/>
	<linearGradient id="SVGID_1_" gradientUnits="userSpaceOnUse" x1="26.2028" y1="72.5" x2="133.7972" y2="72.5">
		<stop  offset="0" style="stop-color:#EF537A"/>
		<stop  offset="1" style="stop-color:#4A3D97"/>
	</linearGradient>
	<path class="st3" d="M72.5,121.8c4.2,0.3,8.5,0.4,12.7,0.1c4.2-0.3,8.4-0.8,12.6-1.8c4.1-0.9,8.2-2.3,12.1-4
		c3.9-1.7,7.7-3.8,11.1-6.6c1.7-1.3,3.3-2.8,4.7-4.5c1.4-1.6,2.7-3.4,3.8-5.3c1.1-1.9,2-4,2.6-6.1c0.7-2.1,1.1-4.3,1.4-6.5
		c0.3-2.2,0.3-4.4,0.3-6.6c-0.1-2.2-0.3-4.4-0.6-6.6c-0.1-0.5-0.1-1.1-0.2-1.6c-0.1-0.5-0.2-1.1-0.3-1.6c-0.2-1.1-0.5-2.1-0.7-3.2
		c-0.5-2.1-1.2-4.2-2-6.2c-1.5-4.1-3.3-8-5.3-11.7c-2-3.7-4.3-7.4-6.7-10.8c-1.2-1.7-2.5-3.4-3.9-5c-1.4-1.6-2.8-3.1-4.3-4.6
		c-1.5-1.4-3.1-2.8-4.8-3.9c-0.9-0.6-1.8-1.1-2.7-1.5c-0.9-0.4-1.9-0.7-3-0.8h0c-0.1,0-0.1,0.1-0.2,0.1l0,0
		c-0.1,2.3-0.2,4.6-0.2,6.9c0,2.3,0,4.6,0,6.9c0,2.3,0.1,4.6,0.3,6.9c0.2,2.3,0.4,4.5,0.8,6.7c-0.3,0-0.7,0-1,0
		c-0.3,0-0.6,0-0.9-0.1c-2.4-0.1-4.8-0.1-7.2-0.1c-2.6,0-5.2,0-7.8,0.1c-2.6,0.1-5.2,0.2-7.8,0.4l-0.4,0l-0.2,0l-0.2,0
		c0,0-10.2,1.1-15.9,2.6c-0.8,0.2-1.4,0.3-1.9,0.4c-0.4-0.8-3.2-11.4-4.1-15.1c-1-3.8-1.9-7.6-2.9-11.3c-0.1-0.5-0.6-0.8-1.1-0.7
		c-0.1,0-0.2,0.1-0.3,0.2l0,0c-1.2,1-2.3,2.1-3.3,3.3c-1,1.2-1.9,2.4-2.8,3.7c-1.8,2.6-3.3,5.2-4.8,8c-1.5,2.8-2.8,5.6-4,8.5
		c-1.2,2.9-2.3,5.8-3.3,8.8c-1,3-1.9,6-2.6,9.2c-0.4,1.6-0.7,3.1-0.9,4.7c-0.1,0.8-0.2,1.6-0.2,2.5c0,0.4,0,0.8,0,1.3
		c0,0.2,0,0.4,0,0.6l0,0.6c0.1,3.2,0.5,6.4,1,9.5c0.6,3.2,1.4,6.3,2.5,9.3c0.8,2.1,1.8,4.2,3,6.2c1.2,1.9,2.6,3.8,4.1,5.4
		c1.5,1.6,3.2,3.1,5,4.4c1.8,1.3,3.7,2.4,5.7,3.3c1,0.5,2,0.9,3,1.3c0.5,0.2,1,0.4,1.5,0.6l0.4,0.1l0.4,0.1c0.3,0.1,0.5,0.2,0.8,0.2
		c2.1,0.6,4.1,1.1,6.2,1.5c1.8,0.4,3.5,0.7,5.3,0.9C67.6,121.3,70,121.6,72.5,121.8C72.4,121.8,72.4,121.8,72.5,121.8z"/>
	<path d="M56.8,54.3c0.1,0,0.2,0,0.2,0c1.1-0.2,2.2-0.3,3.3-0.5c-1.2,0.3-2.5,0.6-3.7,1l0.3-0.1C56.9,54.5,56.9,54.4,56.8,54.3z"/>
	<g>
		<linearGradient id="SVGID_2_" gradientUnits="userSpaceOnUse" x1="50.731" y1="41.2537" x2="53.6509" y2="41.2537">
			<stop  offset="0" style="stop-color:#F05B42"/>
			<stop  offset="1" style="stop-color:#F9A54F"/>
		</linearGradient>
		<path class="st8" d="M51.3,38.8c0.1,0.6,0.2,1.1,0.4,1.7c0.1,0.3,0.1,0.5,0.2,0.8l0.2,0.8c0.5,1.5,1,3.1,1.5,4.6
			c-0.7-2.8-1.5-5.6-2.2-8.4c-0.2-0.8-0.4-1.6-0.7-2.5c0,0.1,0,0.1,0,0.2C50.9,37,51.1,37.9,51.3,38.8z"/>
		<linearGradient id="SVGID_3_" gradientUnits="userSpaceOnUse" x1="46.8221" y1="39.8971" x2="49.6213" y2="39.8971">
			<stop  offset="0" style="stop-color:#F05B42"/>
			<stop  offset="1" style="stop-color:#F9A54F"/>
		</linearGradient>
		<path class="st9" d="M47.3,37.5c0.2,2.1,0.5,4.2,0.9,6.3c0.4,2.1,0.8,4.2,1.3,6.2c0,0.2,0.1,0.3,0.1,0.5c0-0.1,0-0.2,0-0.2
			c0-0.1-0.1-0.3-0.1-0.4c-0.5-2.2-0.9-4.5-1.3-6.8c-0.3-2.3-0.5-4.6-0.7-6.9c-0.1-1.9-0.1-6.8-0.1-6.9c-0.2,0.2-0.4,0.4-0.6,0.7
			c0,0,0,0,0,0l0,1.2c0,1.1,0.1,2.1,0.1,3.2C47,35.4,47.1,36.5,47.3,37.5z"/>
		<linearGradient id="SVGID_4_" gradientUnits="userSpaceOnUse" x1="100.2435" y1="40.3136" x2="101.4264" y2="40.3136">
			<stop  offset="0" style="stop-color:#F05B42"/>
			<stop  offset="1" style="stop-color:#F9A54F"/>
		</linearGradient>
		<path class="st10" d="M100.8,44.1c0.2,1,0.4,2.1,0.6,3.1c-0.3-3.2-0.7-6.4-0.9-9.7c-0.1-1.4-0.2-2.7-0.2-4.1
			c-0.1,1.4-0.1,2.7-0.1,4.1C100.3,39.8,100.4,42,100.8,44.1z"/>
		<linearGradient id="SVGID_5_" gradientUnits="userSpaceOnUse" x1="104.3211" y1="25.9513" x2="104.3341" y2="25.9513">
			<stop  offset="0" style="stop-color:#F05B42"/>
			<stop  offset="1" style="stop-color:#F9A54F"/>
		</linearGradient>
		<path class="st11" d="M104.3,25.9C104.3,25.9,104.3,26,104.3,25.9C104.3,26,104.3,25.9,104.3,25.9z"/>
		<linearGradient id="SVGID_6_" gradientUnits="userSpaceOnUse" x1="101.3959" y1="32.8075" x2="102.221" y2="32.8075">
			<stop  offset="0" style="stop-color:#F05B42"/>
			<stop  offset="1" style="stop-color:#F9A54F"/>
		</linearGradient>
		<path class="st13" d="M101.4,30.9c0-2,0.2-4,0.4-6c0,0.1,0.1,0.3,0.2,0.6c0.1,0.2,0.1,0.4,0.2,0.6c-0.2,0.8-0.3,1.7-0.3,2.5
			c-0.1,0.9-0.1,1.9-0.1,2.8c0,2.1,0.2,4.3,0.2,6.3c0,0.3,0,0.5,0,0.8l0,0.8l0,1.3c-0.1-1.1-0.2-2.1-0.3-3.2
			C101.5,35.3,101.4,33.1,101.4,30.9z"/>
		<linearGradient id="SVGID_7_" gradientUnits="userSpaceOnUse" x1="100.2435" y1="40.3136" x2="101.4264" y2="40.3136">
			<stop  offset="0" style="stop-color:#F05B42"/>
			<stop  offset="1" style="stop-color:#F9A54F"/>
		</linearGradient>
		<path class="st15" d="M100.3,33.4c0,1.4,0.1,2.7,0.2,4.1c0.2,3.2,0.6,6.5,0.9,9.7c-0.3-1-0.5-2-0.6-3.1c-0.3-2.2-0.5-4.3-0.5-6.5
			C100.2,36.2,100.3,34.8,100.3,33.4z"/>
		<linearGradient id="SVGID_8_" gradientUnits="userSpaceOnUse" x1="101.1262" y1="50.7764" x2="101.2242" y2="50.7764">
			<stop  offset="0" style="stop-color:#F05B42"/>
			<stop  offset="1" style="stop-color:#F9A54F"/>
		</linearGradient>
		<path class="st16" d="M101.1,50.7c0,0,0.1,0.1,0.1,0.1c0,0-0.1,0-0.1,0C101.1,50.8,101.1,50.8,101.1,50.7
			C101.1,50.7,101.1,50.7,101.1,50.7z"/>
		<linearGradient id="SVGID_9_" gradientUnits="userSpaceOnUse" x1="50.731" y1="41.2537" x2="53.6509" y2="41.2537">
			<stop  offset="0" style="stop-color:#F05B42"/>
			<stop  offset="1" style="stop-color:#F9A54F"/>
		</linearGradient>
		<path class="st17" d="M51.4,38.3c0.8,2.8,1.5,5.6,2.2,8.4c-0.5-1.5-1.1-3-1.5-4.6l-0.2-0.8c-0.1-0.3-0.1-0.5-0.2-0.8
			c-0.1-0.5-0.2-1.1-0.4-1.7c-0.2-0.9-0.4-1.9-0.5-2.8c0-0.1,0-0.1,0-0.2C51,36.6,51.2,37.5,51.4,38.3z"/>
		<linearGradient id="SVGID_10_" gradientUnits="userSpaceOnUse" x1="49.1226" y1="38.6487" x2="50.1752" y2="38.6487">
			<stop  offset="0" style="stop-color:#F05B42"/>
			<stop  offset="1" style="stop-color:#F9A54F"/>
		</linearGradient>
		<path class="st18" d="M50.1,41.3c0,0.1,0,0.2,0,0.3c-0.4-2-0.8-3.9-1.1-5.9C49.5,37.5,49.8,39.4,50.1,41.3z"/>
		<linearGradient id="SVGID_11_" gradientUnits="userSpaceOnUse" x1="46.8221" y1="39.8971" x2="49.6213" y2="39.8971">
			<stop  offset="0" style="stop-color:#F05B42"/>
			<stop  offset="1" style="stop-color:#F9A54F"/>
		</linearGradient>
		<path class="st19" d="M46.8,30C46.8,29.9,46.8,29.9,46.8,30c0.2-0.3,0.4-0.5,0.6-0.7c0,0.2,0,5,0.1,6.9c0.1,2.3,0.3,4.6,0.7,6.9
			c0.3,2.3,0.7,4.6,1.3,6.8c0,0.1,0.1,0.3,0.1,0.4c0,0.1,0,0.2,0,0.2c0-0.2-0.1-0.3-0.1-0.5c-0.5-2-1-4.1-1.3-6.2
			c-0.4-2.1-0.7-4.2-0.9-6.3c-0.1-1.1-0.2-2.1-0.3-3.2c-0.1-1.1-0.1-2.1-0.1-3.2L46.8,30z"/>
	</g>
	<linearGradient id="SVGID_12_" gradientUnits="userSpaceOnUse" x1="27.5574" y1="73.4874" x2="132.7258" y2="73.4874">
		<stop  offset="0" style="stop-color:#3F58A6"/>
		<stop  offset="1" style="stop-color:#C9A2C8"/>
	</linearGradient>
	<path class="st20" d="M65.4,119.6c-1.9-0.3-3.7-0.6-5.6-1c-1.8-0.4-3.7-0.8-5.5-1.4c-0.5-0.1-0.9-0.3-1.3-0.4
		c-0.4-0.2-0.9-0.3-1.3-0.5c-0.9-0.3-1.8-0.7-2.6-1.1c-1.7-0.8-3.4-1.7-5-2.7c-3.2-2.1-6.1-4.7-8.4-7.9c-2.3-3.1-4.1-6.8-5.3-10.6
		c-1.2-3.8-2-7.8-2.4-11.8c-0.1-1-0.2-2-0.2-3c0-0.5-0.1-1-0.1-1.5l0-0.8c0-0.2,0-0.5,0-0.7c0-1,0.1-2,0.2-3c0.1-1,0.3-2,0.5-3
		c0.4-2,0.9-3.9,1.4-5.9c0.5-1.9,1.2-3.9,1.8-5.8c1.3-3.8,2.8-7.5,4.5-11.2c1.7-3.6,3.5-7.2,5.6-10.5c1-1.7,2.1-3.3,3.4-4.8
		c0.5-0.6,1-1.2,1.5-1.8c0,0.4-0.1,0.9-0.1,1.3c0,0.5,0,1,0,1.6c0,1,0.1,2.1,0.1,3.2c0.1,2.1,0.4,4.3,0.7,6.5
		c0.3,2.2,0.7,4.5,1.2,6.8c0.3,1.1,1.7,7.9,2.1,7.8l11.4-2.8c3.4-0.8,6.8-1.6,10-2.1c1.9-0.2,3.8-0.3,5.8-0.4
		c2.5-0.1,5.1-0.3,7.7-0.3c1.3,0,2.6,0,3.9,0c2.6,0,5.2,0,7.8,0.1c1.3,0,2.6,0.1,3.9,0.1c0.6,0,1.3,0.1,1.9,0.1
		c0.6,0.1,1.8,0.1,2.4,0.3c0.2,0-0.5-10-0.6-12.5c-0.2-4.4-0.3-8.7-0.6-13.1c0-0.2,0.1-0.4,0.1-0.6c1.4,0.9,2.8,2.1,4.1,3.3
		c2.8,2.6,5.3,5.5,7.6,8.6c2.3,3.1,4.5,6.4,6.4,9.7c1.9,3.4,3.7,6.8,5.2,10.4c1.5,3.6,2.8,7.2,3.6,10.9c0.2,0.9,0.4,1.9,0.6,2.8
		c0.1,0.5,0.2,0.9,0.2,1.4c0.1,0.5,0.1,0.9,0.2,1.4c0.2,1.9,0.4,3.8,0.5,5.6c0.1,3.7-0.2,7.4-1.1,10.9c-0.9,3.5-2.3,6.7-4.2,9.5
		c-2.1,3.2-4.9,6-7.9,8.3c-3,2.3-6.4,4.2-9.8,5.7c-3.5,1.5-7,2.7-10.7,3.7c-3.6,0.9-7.4,1.5-11.1,1.9
		C80.4,121.1,72.9,120.7,65.4,119.6z"/>
	<path class="st1" d="M58.2,66.8l-1.8-0.2c0.2,2.2,0.7,5.7,1.2,6.5C58.4,74.4,58.5,68.2,58.2,66.8z"/>
	<path class="st1" d="M60.8,66.9C60.7,66.9,60.7,66.9,60.8,66.9c-0.1,0-0.2,0.1-0.2,0.1c0,0.1,0,0.2-0.1,0.4c0-0.1,0.1-0.2,0.1-0.2
		C60.7,67,60.7,67,60.8,66.9z"/>
	<path class="st219" d="M83.9,82.7c0.1,0.2,0.2,0.4,0.3,0.6c0.1,0.2,0.1,0.4,0.1,0.6c0,0.1,0,0.2,0,0.4c0.1,0.6,0.2,1.2,0.2,1.8
		c0,0.7,0,1.3-0.1,1.9c-0.1,0.4-0.1,0.7-0.2,1.1c0.1-0.2,0.2-0.4,0.3-0.6c0.3-0.8,0.4-1.7,0.4-2.5c0-0.4,0-0.9-0.1-1.3
		c-0.1-0.4-0.1-0.8-0.3-1.2c0-0.1-0.1-0.2-0.1-0.2c0,0,0-0.1-0.1-0.1l0,0l0,0l0,0l0,0l0,0c0,0,0,0,0,0c0,0-0.1-0.1-0.1-0.1
		c0,0,0-0.1-0.1-0.1c-0.1-0.1-0.1-0.1-0.2-0.2c-0.1-0.1-0.3-0.2-0.4-0.3c0.1,0.1,0.1,0.2,0.2,0.3C83.8,82.6,83.8,82.6,83.9,82.7z"/>
	<path class="st1" d="M103.7,64.1l-1.5,0.5c0.4,1.4,1.6,5.5,1.6,5.5C104.2,69.9,104.4,66.3,103.7,64.1z"/>
	<path class="st1" d="M99.2,79.5c1,0.7,2.1,1.1,3.2,1.3c1.1,0.2,7.2-0.3,8.7-4.6c0.4-1.1,0.7-2.4,0.7-3.7c0-1.3-0.1-2.6-0.4-4
		c-0.2-1.3-0.6-2.6-0.9-4c-0.3-1.1-0.3-1.6-0.1-1.5c0.2,0.1,0.6,0.7,0.9,1.7c0.5,1.6,1,3.2,1.3,4.9c0-0.5-0.1-1.1-0.1-1.6
		c-0.1-1.3-0.4-2.7-0.6-4c-0.2-0.3-0.2-1.1-0.2-1.1c0,0,0-0.1,0-0.1c-0.3,0-0.6,0-0.9,0c-1.6,0-3.3,0.2-4.9,0.5
		c0.1,0.1,0.2,0.2,0.2,0.4c0.1,0.8,0.2,1.5,0.3,2.3c0.1,1.4,0.1,2.8,0,4.2c-0.1,0.7-0.1,1.4-0.3,2.1c-0.1,0.7-0.3,1.4-0.5,2
		c-0.1,0.4-0.3,0.8-0.6,1.2c-0.2,0.4-0.5,0.8-0.9,1l0,0c0,0-0.1,0-0.1,0c-0.2,0-0.3-0.1-0.4-0.3c-0.4-2.1-0.8-4.1-1.2-6.1
		c-0.2-1-0.5-2-0.7-3c-0.1-0.5-0.3-1-0.4-1.5c-0.1-0.2-0.1-0.5-0.2-0.7c0-0.1-0.1-0.2-0.1-0.3c0,0-0.1,0-0.1,0
		c-1.6,0.6-3.3,1.3-4.8,2.2c-0.6,0.4-1.7,1.2-2.3,1.6c-0.1,2.4,2,7.3,2.8,8.4C97.3,78,98.2,78.8,99.2,79.5z"/>
	<path class="st1" d="M101.4,65c0-0.1-0.1-0.3-0.1-0.4c0,0-0.1-0.1-0.1-0.1c0,0-0.1,0-0.1,0c0.1,0.1,0.1,0.1,0.2,0.2
		C101.4,64.9,101.4,64.9,101.4,65z"/>
	<path class="st1" d="M49.6,74.2c0-1.7,0.2-3.4,0.5-5.1c0.2-1.1,0.5-1.7,0.7-1.9c0.2-0.1,0.3,0.3,0.2,1.5c-0.2,1.4-0.3,2.7-0.3,4.1
		c0,1.4,0.1,2.7,0.3,4c0.3,1.3,0.8,2.4,1.4,3.5c2.3,3.9,8.7,3.2,9.9,2.8c1.2-0.4,2.2-1.1,3.2-1.9c0.9-0.9,1.7-1.9,2.3-3
		c0.7-1.3,2-6.4,1.5-8.8c-0.7-0.3-1.9-0.9-2.6-1.1c-1.7-0.6-3.6-1-5.4-1.2c0,0-0.1,0-0.1,0c0,0.1-0.1,0.2-0.1,0.4
		c0,0.2-0.1,0.5-0.1,0.8c-0.1,0.5-0.1,1-0.2,1.5c-0.1,1-0.2,2.1-0.2,3.1c-0.1,2.1-0.2,4.2-0.2,6.3c0,0.2-0.2,0.3-0.3,0.3
		c0,0-0.1,0-0.1,0l0,0c-0.5-0.2-0.8-0.5-1.1-0.8c-0.3-0.3-0.6-0.7-0.8-1.1c-0.4-0.6-0.6-1.3-0.9-1.9c-0.2-0.7-0.5-1.3-0.6-2
		c-0.4-1.3-0.6-2.7-0.7-4.1c-0.1-0.8-0.1-1.6-0.1-2.3c0-0.2,0-0.3,0.1-0.4c-1.8,0-3.5,0.2-5.2,0.5c-0.3,0.1-0.6,0.1-0.9,0.2
		c0,0,0,0.1,0,0.1c0,0,0.1,0.8-0.1,1.1c-0.1,1.3,0,2.7,0,4C49.5,73.2,49.5,73.7,49.6,74.2z"/>
	<linearGradient id="SVGID_13_" gradientUnits="userSpaceOnUse" x1="91.2499" y1="86.959" x2="124.6661" y2="86.959">
		<stop  offset="0" style="stop-color:#ED2F66"/>
		<stop  offset="1" style="stop-color:#F8A131"/>
	</linearGradient>
	<path class="st21" d="M116.8,88.3c-1.4,0.8-2.8,1.5-4.3,2.1c-0.7,0.3-1.5,0.5-2.3,0.8l-0.3,0.1l0,0l0,0l-0.1,0l-0.1,0l-0.6,0.1
		c-0.4,0.1-0.8,0.2-1.2,0.2c-1.3,0.2-2.8,0.3-4.2,0.3c-1.4,0-2.8-0.2-4.2-0.5c-1.4-0.3-2.8-0.6-4.1-1c-1.3-0.4-2.7-0.8-4-1.3
		c-0.1,0-0.1,0.1,0,0.2c1.3,1,2.8,1.8,4.3,2.4c1.5,0.6,3,1,4.6,1.3c3.1,0.5,6.3,0.4,9.4-0.2l0.3-0.1l0.2,0l0.1,0l0.1,0l0.6-0.2
		c0.4-0.1,0.8-0.2,1.2-0.4c0.8-0.3,1.6-0.6,2.4-0.9c1.6-0.7,3.2-1.5,4.7-2.5c1.5-1.1,2.9-2.4,4.1-4c0.4-0.5,0.7-1,1-1.5
		c0.3-0.5,0.4-1.1,0.4-1.7c0-0.5-0.3-0.7-0.6-0.8c-0.3,0-0.7,0.1-0.9,0.5c-0.7,1.5-1.6,2.9-2.7,4.1
		C119.4,86.4,118.1,87.4,116.8,88.3z"/>
	<linearGradient id="SVGID_14_" gradientUnits="userSpaceOnUse" x1="102.7976" y1="93.5225" x2="124.8823" y2="93.5225">
		<stop  offset="0" style="stop-color:#ED2F66"/>
		<stop  offset="1" style="stop-color:#F8A131"/>
	</linearGradient>
	<path class="st22" d="M124.3,89.4c-0.3,0-0.5,0-0.7,0.3c-0.5,0.9-1.1,1.7-1.8,2.5c-0.7,0.7-1.5,1.4-2.4,1.9
		c-1.8,1.1-3.7,1.8-5.7,2.2c-1.7,0.4-3.6,0.3-5.4,0.2c-0.9-0.1-1.8-0.2-2.7-0.2c-0.9-0.1-1.8-0.2-2.7-0.3c-0.1,0-0.1,0.1,0,0.1
		c0.9,0.5,1.9,0.9,2.9,1.1c1,0.2,2,0.4,3,0.5c2,0.1,4.1,0,6.1-0.5c1.1-0.2,2.2-0.6,3.3-1c1.1-0.4,2.1-1,3.1-1.6
		c1-0.7,1.9-1.6,2.8-2.5c0.2-0.3,0.5-0.6,0.7-0.9c0.2-0.3,0.3-0.7,0.3-1.1C124.9,89.6,124.6,89.4,124.3,89.4z"/>
	<linearGradient id="SVGID_15_" gradientUnits="userSpaceOnUse" x1="38.2178" y1="92.6691" x2="74.6033" y2="92.6691">
		<stop  offset="0" style="stop-color:#ED2F66"/>
		<stop  offset="1" style="stop-color:#F8A131"/>
	</linearGradient>
	<path class="st23" d="M47.3,95.3c1.7,0.7,3.4,1.2,5.2,1.6c1.8,0.4,3.5,0.6,5.3,0.8l0.1,0H58l0.1,0l0.3,0l0.6,0c0.4,0,0.8,0,1.2,0
		c0.8,0,1.6-0.1,2.4-0.2c1.6-0.2,3.3-0.5,4.8-1.1c1.6-0.5,3.1-1.3,4.3-2.3c1.3-1,2.3-2.2,2.8-3.6c0-0.1-0.1-0.1-0.2-0.1
		c-1,1.2-2.3,2.2-3.8,3c-1.4,0.8-3,1.4-4.6,1.9c-1.6,0.4-3.2,0.7-4.9,0.9c-0.8,0.1-1.7,0.1-2.5,0.1c-0.2,0-0.4,0-0.6,0l-0.2,0l0,0h0
		l0,0l-0.1,0l-0.3,0c-0.4,0-0.8-0.1-1.2-0.1c-1.8-0.2-3.5-0.6-5.2-1.1c-1.7-0.5-3.3-1.2-4.9-2c-1.6-0.8-3.1-1.8-4.4-3
		c-0.4-0.4-0.8-0.8-1.1-1.1c-0.4-0.4-0.8-0.7-1.3-0.9c-0.4-0.2-0.8-0.1-1,0.2c-0.2,0.3-0.3,0.7,0.1,1.1c1.2,1.4,2.6,2.6,4.1,3.6
		C44,93.8,45.7,94.6,47.3,95.3z M58,96.2L58,96.2C57.9,96.2,57.9,96.2,58,96.2z"/>
	<linearGradient id="SVGID_16_" gradientUnits="userSpaceOnUse" x1="41.9593" y1="100.6433" x2="69.8304" y2="100.6433">
		<stop  offset="0" style="stop-color:#ED2F66"/>
		<stop  offset="1" style="stop-color:#F8A131"/>
	</linearGradient>
	<path class="st24" d="M68,100.4c0.9-0.6,1.5-1.4,1.8-2.3c0-0.1-0.1-0.1-0.1-0.1c-0.7,0.7-1.6,1.3-2.7,1.8c-1,0.5-2.1,0.9-3.3,1.2
		c-2.3,0.6-4.8,1-7.3,1c-2.7,0.1-5.4-0.2-7.9-0.9c-1.3-0.4-2.5-0.8-3.6-1.5c-0.3-0.2-0.6-0.4-0.9-0.6c-0.3-0.2-0.6-0.3-1.1-0.4
		c-0.3-0.1-0.7,0-0.8,0.2c-0.2,0.2-0.2,0.5,0.1,0.7c1,0.8,2.3,1.5,3.5,2c1.3,0.5,2.6,0.9,4,1.1c2.7,0.5,5.5,0.6,8.2,0.4
		c1.2-0.1,2.4-0.2,3.6-0.4c1.2-0.2,2.4-0.5,3.5-0.8C66.1,101.5,67.1,101,68,100.4z"/>
	<path class="st4" d="M80.9,88c0.8,1.4,1.5,1.9,1.7,1.9c0.1,0.9,0.1,2.2,0.1,3.1c0.1,1.2,0.1,2.4,0,3.6c-0.1,1.2-0.3,2.4-0.7,3.4
		c-0.4,1.1-1,2-1.7,2.7c-0.7,0.6-1.5,1.1-2.5,1.4c-0.2,0.1-1.3,0.4-1.3,0.4c0,0-3.3-0.1-4.3-0.3c-0.5-0.1-1-0.2-1.4-0.3
		c-0.2-0.1-0.5-0.2-0.7-0.3c-0.2-0.1-0.5-0.2-0.7-0.5c0,0-0.1,0-0.1,0.1c0,0,0.1,0.1,0.1,0.1c0,0,0.1,0.1,0.1,0.1
		c0.1,0.1,0.1,0.1,0.2,0.2c0.1,0.1,0.2,0.2,0.4,0.3c0.2,0.2,0.5,0.4,0.8,0.5c0.5,0.3,1.1,0.5,1.6,0.7c0.5,0.2,1.1,0.3,1.7,0.4
		c0.5,0.1,1.1,0.1,1.7,0.1c0.1,0.7,0.3,1.5,0.5,2.2c0.1,0.5,0.3,0.9,0.5,1.4c0.2,0.3,0.3,0.7,0.5,1c0,0,0,0,0,0.1l0.1,0
		c0,0.1,0.1,0.1,0.1,0.2c0.1,0.1,0.2,0.1,0.3,0.1c0,0,0.1-0.1,0.1-0.1l0,0l0-0.1c0-0.1,0-0.1,0.1-0.2l0,0c0,0,0,0,0,0
		c0.1-0.4,0.2-0.9,0.3-1.3c0.1-0.5,0.2-1.1,0.3-1.6c0-0.6,0-1.1,0-1.7c0-0.2,0-0.4-0.1-0.6c0.3-0.1,0.5-0.2,0.8-0.3
		c1-0.5,2-1.2,2.8-2.1c0.4-0.5,0.8-1.1,1.1-1.7c0.3-0.6,0.5-1.2,0.7-1.9c0.1-0.4,0.2-0.8,0.3-1.2c0,0,0,0,0,0.1
		c0.2,0.6,0.5,1.3,0.8,1.8c0.3,0.6,0.7,1.1,1.2,1.6c0.8,0.9,1.9,1.5,3,1.9c0.5,0.2,1,0.4,1.6,0.5c0.1,0.9,0.2,1.7,0.4,2.6
		c0.1,0.5,0.2,0.9,0.3,1.4c0.1,0.5,0.2,0.9,0.4,1.4c0,0.1,0.1,0.1,0.2,0.1c0,0,0,0,0,0l0,0c0.1-0.1,0.2-0.2,0.2-0.3
		c0.3-0.5,0.5-1,0.6-1.6c0.1-0.5,0.2-1.1,0.3-1.7c0.1-0.6,0.1-1.2,0.2-1.7c0,0,0,0,0,0c0.2,0,0.5-0.1,0.7-0.1
		c0.6-0.1,1.1-0.3,1.6-0.5c0.5-0.2,1-0.5,1.5-0.8c0.2-0.2,0.5-0.3,0.7-0.6c0.1-0.1,0.2-0.2,0.3-0.4c0.1-0.1,0.1-0.1,0.2-0.2
		c0,0,0-0.1,0.1-0.1c0,0,0.1-0.1,0.1-0.1c0-0.1-0.1-0.1-0.1-0.1c-0.2,0.3-0.4,0.4-0.7,0.5c-0.2,0.1-0.5,0.2-0.7,0.3
		c-0.5,0.2-0.9,0.3-1.4,0.4c-0.9,0.2-1.7,0.4-2.6,0.6c-0.1-0.1-1.2,0.1-1.6,0c0,0,0,0-0.1,0l-0.1,0l-0.2,0l-0.4-0.1
		c-0.2-0.1-0.5-0.1-0.7-0.2c-0.9-0.3-1.8-0.7-2.5-1.2c-0.8-0.7-1.5-1.5-1.9-2.6c-0.4-1-0.7-2.2-0.9-3.4c-0.2-1.2-0.2-2.4-0.3-3.6
		c0-0.7,0-1.4,0-2.1c0,0,0.1-0.1,0.1-0.1c0.4-0.4,0.7-0.8,0.9-1.3c0.4-0.9,0.6-1.9,0.6-2.8c0-0.5,0-1,0-1.4c0-0.5-0.1-1-0.3-1.5
		c0-0.1,0-0.1-0.1-0.2c0,0,0-0.1,0-0.1l0-0.1c0,0-0.1-0.1-0.1-0.2c0-0.1-0.1-0.1-0.1-0.2c-0.1-0.2-0.3-0.4-0.5-0.6
		c-0.2-0.2-0.4-0.3-0.6-0.4c-0.2-0.1-0.5-0.2-0.8-0.2c-0.5,0-1,0.2-1.4,0.5c-0.4,0.3-0.7,0.7-1,1.1c-0.5,0.8-0.7,1.8-0.7,2.8
		C80.2,86.2,80.4,87.2,80.9,88z M84,82.5c0.1,0.1,0.1,0.1,0.2,0.2c0,0,0.1,0.1,0.1,0.1c0,0,0.1,0.1,0.1,0.1c0,0,0,0,0,0l0,0l0,0l0,0
		l0,0l0,0c0,0,0,0.1,0.1,0.1c0,0.1,0.1,0.2,0.1,0.2c0.1,0.4,0.2,0.8,0.3,1.2c0.1,0.4,0.1,0.8,0.1,1.3c0,0.9-0.1,1.7-0.4,2.5
		c-0.1,0.2-0.2,0.4-0.3,0.6c0.1-0.4,0.1-0.7,0.2-1.1c0.1-0.6,0.1-1.3,0.1-1.9c0-0.6-0.1-1.2-0.2-1.8c0-0.1,0-0.2,0-0.4
		c0-0.2-0.1-0.4-0.1-0.6c-0.1-0.2-0.1-0.4-0.3-0.6c0,0-0.1-0.1-0.1-0.1c-0.1-0.1-0.1-0.2-0.2-0.3C83.7,82.3,83.8,82.4,84,82.5z"/>
	<linearGradient id="SVGID_17_" gradientUnits="userSpaceOnUse" x1="87.2314" y1="73.1055" x2="122.8293" y2="73.1055">
		<stop  offset="0" style="stop-color:#EF537A"/>
		<stop  offset="1" style="stop-color:#4A3D97"/>
	</linearGradient>
	<path class="st25" d="M87.8,82.2c9.6,7.4,28.4,4.4,35.1-8.1c0-0.4,0-0.8,0-1.2c0-0.6-0.4-2.4-0.5-3c-0.2-0.8-3.3-8.3-12.4-8.2
		c-4.3,0-8.4,1.5-11.2,2.6c-1.3,0.5-2.5,1.1-3.7,1.9c0.9-0.7,1.9-1.3,2.9-1.8c1.5-0.8,3.1-1.4,4.8-1.9c3.1-0.9,6.2-1.3,9.4-1.4
		c1.6,0,3.2,0.1,4.7,0.2c0.8,0.1,1.6,0.2,2.3,0.4c0.8,0.2,1.5,0.4,2.3,0.6c0.1,0,0.2-0.1,0.1-0.1c-1.2-0.8-2.5-1.4-4-1.7
		c-1.5-0.4-3-0.5-4.5-0.6c-3.1-0.1-6.2,0.4-9.1,1c-1.7,0.4-3.3,0.8-4.9,1.5c-1.6,0.6-3.2,1.4-4.6,2.4c-1.4,1-2.8,2.2-3.9,3.7
		c-1.1,1.5-1.9,3.2-2.4,5c-0.1,0.2-0.1,0.4,0,0.5c0,0,0,0.1,0,0.1c-0.3,1-0.6,2-0.7,3.1c-0.1,1.1-0.2,2.2,0,3.2
		C87.4,81,87.5,81.5,87.8,82.2z M103.7,64.1c0.7,2.3,0.5,5.8,0.1,6c0,0-1.1-4.1-1.6-5.5L103.7,64.1z M101.2,64.6
		C101.3,64.6,101.3,64.6,101.2,64.6c0.1,0.2,0.2,0.3,0.2,0.5c0-0.1-0.1-0.1-0.1-0.2C101.3,64.7,101.2,64.7,101.2,64.6
		C101.2,64.6,101.2,64.6,101.2,64.6z M93.8,68.5c0.6-0.4,1.6-1.3,2.3-1.6c1.5-0.9,3.1-1.6,4.8-2.2c0,0,0.1,0,0.1,0
		c0,0.1,0.1,0.2,0.1,0.3c0.1,0.2,0.2,0.5,0.2,0.7c0.1,0.5,0.3,1,0.4,1.5c0.3,1,0.5,2,0.7,3c0.4,2,0.8,4.1,1.2,6.1
		c0,0.2,0.2,0.3,0.4,0.3c0,0,0.1,0,0.1,0l0,0c0.4-0.3,0.7-0.6,0.9-1c0.2-0.4,0.4-0.8,0.6-1.2c0.2-0.7,0.4-1.4,0.5-2
		c0.1-0.7,0.2-1.4,0.3-2.1c0.1-1.4,0.1-2.8,0-4.2c-0.1-0.8-0.1-1.6-0.3-2.3c0-0.1-0.1-0.3-0.2-0.4c1.7-0.3,3.3-0.5,4.9-0.5
		c0.3,0,0.6,0,0.9,0c0,0,0,0.1,0,0.1c0,0,0.1,0.8,0.2,1.1c0.3,1.3,0.5,2.6,0.6,4c0.1,0.5,0.1,1.1,0.1,1.6c-0.3-1.7-0.8-3.3-1.3-4.9
		c-0.3-1-0.7-1.6-0.9-1.7c-0.2-0.1-0.2,0.4,0.1,1.5c0.4,1.3,0.7,2.6,0.9,4c0.2,1.3,0.4,2.7,0.4,4c0,1.3-0.3,2.5-0.7,3.7
		c-1.5,4.3-7.6,4.8-8.7,4.6c-1.1-0.2-2.2-0.6-3.2-1.3c-1-0.7-1.9-1.5-2.7-2.5C95.7,75.8,93.6,71,93.8,68.5z"/>
	<linearGradient id="SVGID_18_" gradientUnits="userSpaceOnUse" x1="87.7655" y1="81.6705" x2="122.825" y2="81.6705">
		<stop  offset="0" style="stop-color:#ED2F66"/>
		<stop  offset="1" style="stop-color:#F8A131"/>
	</linearGradient>
	<path class="st27" d="M87.8,82.2c0.5,1.4,1.4,3.3,3.3,4.7c0.8,0.6,1.8,1,2.7,1.3c2,0.7,4.1,0.9,6.2,1c2.1,0.1,4.1-0.1,6.2-0.4
		c1-0.2,2-0.4,3.1-0.6c1-0.3,2-0.6,3-1c1.9-0.9,3.8-1.9,5.5-3.1c0.9-0.7,1.8-1.4,2.6-2.3c0.8-0.9,1.4-2,1.9-3.2
		c0.4-1.2,0.6-2.5,0.6-3.7c0-0.2,0-0.4,0-0.7C116.2,86.6,97.4,89.6,87.8,82.2z"/>
	<linearGradient id="SVGID_19_" gradientUnits="userSpaceOnUse" x1="39.637" y1="85.0524" x2="77.8869" y2="85.0524">
		<stop  offset="0" style="stop-color:#ED2F66"/>
		<stop  offset="1" style="stop-color:#F8A131"/>
	</linearGradient>
	<path class="st28" d="M39.6,78.4c0,0.4,0,0.8,0,1c0.1,0.6,0.2,1.2,0.3,1.8c0.3,1.2,0.7,2.4,1.3,3.5c0.6,1.1,1.5,2,2.5,2.7
		c1,0.7,2,1.3,3.1,1.8c2.1,0.9,4.2,1.5,6.3,2c1.1,0.2,2.2,0.4,3.3,0.4c1.1,0.1,2.2,0.1,3.3,0c2.2-0.1,4.4-0.4,6.5-0.8
		c2.1-0.5,4.3-1.2,6.2-2.2c0.9-0.5,1.8-1,2.6-1.8c2.2-2.2,2.7-4.9,2.7-6.3C70.7,91.9,48.1,91.7,39.6,78.4z"/>
	<linearGradient id="SVGID_20_" gradientUnits="userSpaceOnUse" x1="39.6361" y1="76.1589" x2="77.908" y2="76.1589">
		<stop  offset="0" style="stop-color:#EF537A"/>
		<stop  offset="1" style="stop-color:#4A3D97"/>
	</linearGradient>
	<path class="st29" d="M77.9,80.5c0-0.2,0-0.5,0-0.6c0-1.1-0.2-2.2-0.5-3.2c-0.1-0.3-0.2-0.6-0.3-0.9c0-0.2,0-0.3-0.1-0.5
		c-0.6-1.8-1.6-3.4-2.8-4.8c-1.2-1.4-2.6-2.5-4.1-3.4c-1.5-0.9-3.1-1.5-4.8-2c-1.6-0.5-3.3-0.8-5-1.1c-2.9-0.4-6-0.6-9.1-0.2
		c-1.5,0.2-3,0.5-4.5,1c-1.4,0.5-2.8,1.2-3.9,2.1c-0.1,0.1,0,0.1,0.1,0.1c0.7-0.3,1.5-0.6,2.2-0.8c0.8-0.2,1.5-0.4,2.3-0.6
		c1.6-0.3,3.1-0.5,4.7-0.7c3.2-0.2,6.4-0.1,9.5,0.5c1.7,0.3,3.3,0.8,4.9,1.5c0.3,0.1,0.6,0.2,0.8,0.4c-1.4-0.5-2.7-0.8-4.1-1.1
		c-3.1-0.5-7.6-1.1-12.1-0.3c-9.4,1.7-11.4,9.8-11.4,10.5c0,0.4,0,1.3,0,2C48.1,91.7,70.7,91.9,77.9,80.5z M60.6,67
		c0,0,0.1-0.1,0.1-0.1c0,0,0.1,0,0.1,0c0,0.1-0.1,0.2-0.1,0.3c0,0.1-0.1,0.2-0.1,0.2C60.5,67.2,60.6,67.1,60.6,67z M58.2,66.8
		c0.2,1.4,0.2,7.6-0.6,6.3c-0.5-0.8-1-4.3-1.2-6.5L58.2,66.8z M49.4,68.6c0.1-0.4,0.1-1.1,0.1-1.1c0,0,0-0.1,0-0.1
		c0.3-0.1,0.6-0.1,0.9-0.2c1.7-0.3,3.5-0.5,5.2-0.5c-0.1,0.1-0.1,0.3-0.1,0.4c0,0.8,0.1,1.6,0.1,2.3c0.1,1.4,0.4,2.8,0.7,4.1
		c0.2,0.7,0.4,1.3,0.6,2c0.2,0.7,0.5,1.3,0.9,1.9c0.2,0.4,0.5,0.8,0.8,1.1c0.3,0.3,0.7,0.6,1.1,0.8l0,0c0,0,0.1,0,0.1,0
		c0.2,0,0.3-0.2,0.3-0.3c0-2.1,0.1-4.2,0.2-6.3c0.1-1,0.1-2.1,0.2-3.1c0-0.5,0.1-1,0.2-1.5c0-0.3,0.1-0.5,0.1-0.8
		c0-0.1,0-0.2,0.1-0.4c0,0,0.1,0,0.1,0c1.8,0.2,3.6,0.6,5.4,1.2c0.7,0.2,1.9,0.8,2.6,1.1c0.6,2.4-0.8,7.5-1.5,8.8
		c-0.6,1.1-1.4,2.2-2.3,3c-0.9,0.9-2,1.5-3.2,1.9c-1.2,0.4-7.6,1.1-9.9-2.8c-0.6-1-1.1-2.2-1.4-3.5c-0.3-1.3-0.3-2.6-0.3-4
		c0-1.4,0.1-2.7,0.3-4.1c0.1-1.2,0-1.6-0.2-1.5c-0.2,0.1-0.5,0.8-0.7,1.9c-0.3,1.7-0.5,3.4-0.5,5.1c-0.1-0.5-0.1-1.1-0.2-1.6
		C49.3,71.3,49.3,69.9,49.4,68.6z"/>
</g>
</svg>
