<?xml version="1.0" encoding="utf-8"?>
<!-- Generator: Adobe Illustrator 21.0.0, SVG Export Plug-In . SVG Version: 6.00 Build 0)  -->
<svg version="1.1" id="Layer_1" xmlns="http://www.w3.org/2000/svg" xmlns:xlink="http://www.w3.org/1999/xlink" x="0px" y="0px"
	 viewBox="0 0 160 145" style="enable-background:new 0 0 160 145;" xml:space="preserve">
<style type="text/css">
	.st0{fill:#CB5990;}
	.st1{fill:#FFFFFF;}
	.st2{fill:#12B6BF;}
	.st3{fill:url(#SVGID_1_);}
	.st4{fill:#455BA8;}
	.st5{fill:#326EB6;}
	.st6{fill:#DD5968;}
	.st7{fill:#EF537A;}
	.st8{fill:url(#SVGID_2_);}
	.st9{fill:url(#SVGID_3_);}
	.st10{fill:url(#SVGID_4_);}
	.st11{fill:url(#SVGID_5_);}
	.st12{fill:#F16443;}
	.st13{fill:url(#SVGID_6_);}
	.st14{fill:#F68E3F;}
	.st15{fill:url(#SVGID_7_);}
	.st16{fill:url(#SVGID_8_);}
	.st17{fill:url(#SVGID_9_);}
	.st18{fill:url(#SVGID_10_);}
	.st19{fill:url(#SVGID_11_);}
	.st20{fill:url(#SVGID_12_);}
	.st21{fill:url(#SVGID_13_);}
	.st22{fill:url(#SVGID_14_);}
	.st23{fill:url(#SVGID_15_);}
	.st24{fill:url(#SVGID_16_);}
	.st25{fill:url(#SVGID_17_);}
	.st26{fill:#3DB66D;}
	.st27{fill:url(#SVGID_18_);}
	.st28{fill:url(#SVGID_19_);}
	.st29{fill:url(#SVGID_20_);}
	.st30{fill:url(#SVGID_21_);}
	.st31{fill:url(#SVGID_22_);}
	.st32{fill:url(#SVGID_23_);}
	.st33{fill:url(#SVGID_24_);}
	.st34{fill:url(#SVGID_25_);}
	.st35{fill:url(#SVGID_26_);}
	.st36{fill:url(#SVGID_27_);}
	.st37{fill:url(#SVGID_28_);}
	.st38{fill:url(#SVGID_29_);}
	.st39{fill:url(#SVGID_30_);}
	.st40{fill:url(#SVGID_31_);}
	.st41{fill:url(#SVGID_32_);}
	.st42{fill:url(#SVGID_33_);}
	.st43{fill:url(#SVGID_34_);}
	.st44{fill:url(#SVGID_35_);}
	.st45{fill:url(#SVGID_36_);}
	.st46{fill:url(#SVGID_37_);}
	.st47{fill:url(#SVGID_38_);}
	.st48{fill:url(#SVGID_39_);}
	.st49{fill:url(#SVGID_40_);}
	.st50{fill:url(#SVGID_41_);}
	.st51{fill:url(#SVGID_42_);}
	.st52{fill:url(#SVGID_43_);}
	.st53{fill:url(#SVGID_44_);}
	.st54{fill:url(#SVGID_45_);}
	.st55{fill:url(#SVGID_46_);}
	.st56{fill:url(#SVGID_47_);}
	.st57{fill:url(#SVGID_48_);}
	.st58{fill:url(#SVGID_49_);}
	.st59{fill:url(#SVGID_50_);}
	.st60{fill:url(#SVGID_51_);}
	.st61{fill:url(#SVGID_52_);}
	.st62{fill:url(#SVGID_53_);}
	.st63{fill:url(#SVGID_54_);}
	.st64{fill:url(#SVGID_55_);}
	.st65{fill:url(#SVGID_56_);}
	.st66{fill:url(#SVGID_57_);}
	.st67{fill:url(#SVGID_58_);}
	.st68{fill:url(#SVGID_59_);}
	.st69{fill:url(#SVGID_60_);}
	.st70{fill:url(#SVGID_61_);}
	.st71{fill:url(#SVGID_62_);}
	.st72{fill:url(#SVGID_63_);}
	.st73{fill:url(#SVGID_64_);}
	.st74{fill:url(#SVGID_65_);}
	.st75{fill:url(#SVGID_66_);}
	.st76{fill:url(#SVGID_67_);}
	.st77{fill:url(#SVGID_68_);}
	.st78{fill:url(#SVGID_69_);}
	.st79{fill:url(#SVGID_70_);}
	.st80{fill:url(#SVGID_71_);}
	.st81{fill:url(#SVGID_72_);}
	.st82{fill:url(#SVGID_73_);}
	.st83{fill:url(#SVGID_74_);}
	.st84{fill:url(#SVGID_75_);}
	.st85{fill:url(#SVGID_76_);}
	.st86{fill:url(#SVGID_77_);}
	.st87{fill:url(#SVGID_78_);}
	.st88{fill:url(#SVGID_79_);}
	.st89{fill:url(#SVGID_80_);}
	.st90{fill:url(#SVGID_81_);}
	.st91{fill:url(#SVGID_82_);}
	.st92{fill:url(#SVGID_83_);}
	.st93{fill:url(#SVGID_84_);}
	.st94{fill:url(#SVGID_85_);}
	.st95{fill:url(#SVGID_86_);}
	.st96{fill:url(#SVGID_87_);}
	.st97{fill:url(#SVGID_88_);}
	.st98{fill:url(#SVGID_89_);}
	.st99{fill:url(#SVGID_90_);}
	.st100{fill:url(#SVGID_91_);}
	.st101{fill:url(#SVGID_92_);}
	.st102{fill:url(#SVGID_93_);}
	.st103{fill:url(#SVGID_94_);}
	.st104{fill:url(#SVGID_95_);}
	.st105{fill:url(#SVGID_96_);}
	.st106{fill:url(#SVGID_97_);}
	.st107{fill:url(#SVGID_98_);}
	.st108{fill:url(#SVGID_99_);}
	.st109{fill:url(#SVGID_100_);}
	.st110{fill:url(#SVGID_101_);}
	.st111{fill:url(#SVGID_102_);}
	.st112{fill:url(#SVGID_103_);}
	.st113{fill:url(#SVGID_104_);}
	.st114{fill:url(#SVGID_105_);}
	.st115{fill:url(#SVGID_106_);}
	.st116{fill:url(#SVGID_107_);}
	.st117{fill:url(#SVGID_108_);}
	.st118{fill:url(#SVGID_109_);}
	.st119{fill:url(#SVGID_110_);}
	.st120{fill:url(#SVGID_111_);}
	.st121{fill:url(#SVGID_112_);}
	.st122{fill:url(#SVGID_113_);}
	.st123{fill:url(#SVGID_114_);}
	.st124{fill:url(#SVGID_115_);}
	.st125{fill:url(#SVGID_116_);}
	.st126{fill:url(#SVGID_117_);}
	.st127{fill:url(#SVGID_118_);}
	.st128{fill:url(#SVGID_119_);}
	.st129{fill:url(#SVGID_120_);}
	.st130{fill:url(#SVGID_121_);}
	.st131{fill:url(#SVGID_122_);}
	.st132{fill:url(#SVGID_123_);}
	.st133{fill:url(#SVGID_124_);}
	.st134{fill:url(#SVGID_125_);}
	.st135{fill:url(#SVGID_126_);}
	.st136{fill:url(#SVGID_127_);}
	.st137{fill:#184054;}
	.st138{fill:url(#SVGID_128_);}
	.st139{fill:url(#SVGID_129_);}
	.st140{fill:url(#SVGID_130_);}
	.st141{fill:url(#SVGID_131_);}
	.st142{fill:url(#SVGID_132_);}
	.st143{fill:url(#SVGID_133_);}
	.st144{fill:url(#SVGID_134_);}
	.st145{fill:url(#SVGID_135_);}
	.st146{fill:url(#SVGID_136_);}
	.st147{fill:url(#SVGID_137_);}
	.st148{fill:url(#SVGID_138_);}
	.st149{fill:url(#SVGID_139_);}
	.st150{fill:url(#SVGID_140_);}
	.st151{fill:url(#SVGID_141_);}
	.st152{fill:url(#SVGID_142_);}
	.st153{fill:url(#SVGID_143_);}
	.st154{fill:url(#SVGID_144_);}
	.st155{fill:url(#SVGID_145_);}
	.st156{fill:url(#SVGID_146_);}
	.st157{fill:url(#SVGID_147_);}
	.st158{fill:url(#SVGID_148_);}
	.st159{fill:url(#SVGID_149_);}
	.st160{fill:url(#SVGID_150_);}
	.st161{fill:url(#SVGID_151_);}
	.st162{fill:url(#SVGID_152_);}
	.st163{fill:url(#SVGID_153_);}
	.st164{fill:url(#SVGID_154_);}
	.st165{fill:url(#SVGID_155_);}
	.st166{fill:url(#SVGID_156_);}
	.st167{fill:url(#SVGID_157_);}
	.st168{fill:url(#SVGID_158_);}
	.st169{fill:url(#SVGID_159_);}
	.st170{fill:url(#SVGID_160_);}
	.st171{fill:url(#SVGID_161_);}
	.st172{fill:url(#SVGID_162_);}
	.st173{fill:url(#SVGID_163_);}
	.st174{fill:url(#SVGID_164_);}
	.st175{fill:url(#SVGID_165_);}
	.st176{fill:url(#SVGID_166_);}
	.st177{fill:url(#SVGID_167_);}
	.st178{fill:url(#SVGID_168_);}
	.st179{fill:url(#SVGID_169_);}
	.st180{fill:url(#SVGID_170_);}
	.st181{fill:url(#SVGID_171_);}
	.st182{fill:url(#SVGID_172_);}
	.st183{fill:url(#SVGID_173_);}
	.st184{fill:url(#SVGID_174_);}
	.st185{fill:url(#SVGID_175_);}
	.st186{fill:url(#SVGID_176_);}
	.st187{fill:url(#SVGID_177_);}
	.st188{fill:url(#SVGID_178_);}
	.st189{fill:url(#SVGID_179_);}
	.st190{fill:url(#SVGID_180_);}
	.st191{fill:url(#SVGID_181_);}
	.st192{fill:url(#SVGID_182_);}
	.st193{fill:url(#SVGID_183_);}
	.st194{fill:url(#SVGID_184_);}
	.st195{fill:url(#SVGID_185_);}
	.st196{fill:url(#SVGID_186_);}
	.st197{fill:url(#SVGID_187_);}
	.st198{fill:url(#SVGID_188_);}
	.st199{fill:url(#SVGID_189_);}
	.st200{fill:url(#SVGID_190_);}
	.st201{fill:url(#SVGID_191_);}
	.st202{fill:url(#SVGID_192_);}
	.st203{fill:url(#SVGID_193_);}
	.st204{fill:url(#SVGID_194_);}
	.st205{fill:url(#SVGID_195_);}
	.st206{fill:url(#SVGID_196_);}
	.st207{fill:url(#SVGID_197_);}
	.st208{fill:url(#SVGID_198_);}
	.st209{fill:url(#SVGID_199_);}
	.st210{fill:url(#SVGID_200_);}
	.st211{fill:url(#SVGID_201_);}
	.st212{fill:url(#SVGID_202_);}
	.st213{fill:url(#SVGID_203_);}
	.st214{fill:url(#SVGID_204_);}
	.st215{fill:url(#SVGID_205_);}
	.st216{fill:url(#SVGID_206_);}
	.st217{fill:url(#SVGID_207_);}
	.st218{fill:url(#SVGID_208_);}
	.st219{fill:#969697;}
	.st220{fill:url(#SVGID_209_);}
	.st221{fill:url(#SVGID_210_);}
	.st222{fill:url(#SVGID_211_);}
	.st223{fill:url(#SVGID_212_);}
	.st224{fill:url(#SVGID_213_);}
	.st225{fill:url(#SVGID_214_);}
	.st226{fill:url(#SVGID_215_);}
	.st227{fill:url(#SVGID_216_);}
	.st228{fill:url(#SVGID_217_);}
	.st229{fill:url(#SVGID_218_);}
	.st230{fill:url(#SVGID_219_);}
	.st231{fill:url(#SVGID_220_);}
	.st232{fill:url(#SVGID_221_);}
	.st233{fill:url(#SVGID_222_);}
	.st234{fill:url(#SVGID_223_);}
	.st235{fill:url(#SVGID_224_);}
	.st236{fill:url(#SVGID_225_);}
	.st237{fill:url(#SVGID_226_);}
	.st238{fill:url(#SVGID_227_);}
	.st239{fill:url(#SVGID_228_);}
	.st240{fill:url(#SVGID_229_);}
	.st241{fill:url(#SVGID_230_);}
	.st242{fill:url(#SVGID_231_);}
	.st243{fill:url(#SVGID_232_);}
	.st244{fill:url(#SVGID_233_);}
	.st245{fill:url(#SVGID_234_);}
	.st246{fill:url(#SVGID_235_);}
	.st247{fill:url(#SVGID_236_);}
	.st248{fill:url(#SVGID_237_);}
	.st249{fill:url(#SVGID_238_);}
	.st250{fill:url(#SVGID_239_);}
	.st251{fill:url(#SVGID_240_);}
	.st252{fill:url(#SVGID_241_);}
	.st253{fill:url(#SVGID_242_);}
	.st254{fill:url(#SVGID_243_);}
	.st255{fill:url(#SVGID_244_);}
	.st256{fill:url(#SVGID_245_);}
	.st257{fill:url(#SVGID_246_);}
	.st258{fill:url(#SVGID_247_);}
	.st259{fill:url(#SVGID_248_);}
	.st260{fill:url(#SVGID_249_);}
	.st261{fill:url(#SVGID_250_);}
	.st262{fill:url(#SVGID_251_);}
	.st263{fill:url(#SVGID_252_);}
	.st264{fill:url(#SVGID_253_);}
	.st265{fill:url(#SVGID_254_);}
	.st266{fill:url(#SVGID_255_);}
	.st267{fill:url(#SVGID_256_);}
	.st268{fill:url(#SVGID_257_);}
	.st269{fill:url(#SVGID_258_);}
	.st270{fill:url(#SVGID_259_);}
	.st271{fill:url(#SVGID_260_);}
	.st272{fill:url(#SVGID_261_);}
	.st273{fill:url(#SVGID_262_);}
	.st274{fill:url(#SVGID_263_);}
	.st275{fill:url(#SVGID_264_);}
	.st276{fill:url(#SVGID_265_);}
	.st277{fill:url(#SVGID_266_);}
	.st278{fill:url(#SVGID_267_);}
	.st279{fill:#F69474;}
	.st280{fill:#F27350;}
	.st281{fill:url(#SVGID_268_);}
	.st282{fill:url(#SVGID_269_);}
	.st283{fill:url(#SVGID_270_);}
	.st284{fill:url(#SVGID_271_);}
	.st285{fill:url(#SVGID_272_);}
	.st286{fill:url(#SVGID_273_);}
	.st287{fill:url(#SVGID_274_);}
	.st288{fill:url(#SVGID_275_);}
	.st289{fill:url(#SVGID_276_);}
	.st290{fill:url(#SVGID_277_);}
	.st291{fill:url(#SVGID_278_);}
	.st292{fill:url(#SVGID_279_);}
	.st293{fill:url(#SVGID_280_);}
	.st294{fill:url(#SVGID_281_);}
	.st295{fill:url(#SVGID_282_);}
	.st296{fill:url(#SVGID_283_);}
	.st297{fill:url(#SVGID_284_);}
	.st298{fill:url(#SVGID_285_);}
	.st299{fill:url(#SVGID_286_);}
	.st300{fill:url(#SVGID_287_);}
	.st301{fill:url(#SVGID_288_);}
	.st302{fill:url(#SVGID_289_);}
	.st303{fill:url(#SVGID_290_);}
	.st304{fill:url(#SVGID_291_);}
	.st305{fill:url(#SVGID_292_);}
	.st306{fill:url(#SVGID_293_);}
</style>
<g>
	<linearGradient id="SVGID_1_" gradientUnits="userSpaceOnUse" x1="13.2007" y1="72.5" x2="146.7993" y2="72.5">
		<stop  offset="0" style="stop-color:#EF537A"/>
		<stop  offset="1" style="stop-color:#4A3D97"/>
	</linearGradient>
	<path class="st3" d="M134.9,86.4c3.6-0.1,7.4-0.2,11,0.5c0.5,0.1,0.9-0.4,0.9-0.9c0-0.5-0.4-0.9-0.8-1c-3.7-0.7-7.5-0.6-11.2-0.5
		c-0.4,0-0.8,0-1.3,0c0-1.5,0-3,0-4.5c0.5-0.1,1-0.2,1.5-0.3c2-0.3,4.1-0.6,6.1-0.9c1.2-0.1,2.5-0.3,3.8-0.2
		c1.1,0.1,1.2-1.8,0.1-1.8c-1.3-0.1-2.7,0.1-4,0.2c-2.1,0.2-4.2,0.5-6.2,0.9c-0.4,0.1-0.9,0.2-1.3,0.2c-0.1-2.4-0.3-4.8-0.6-7.2
		c-0.3-2.5-0.8-5.1-1.3-7.6c-0.6-2.5-1.3-5-2.1-7.4c-0.9-2.4-1.9-4.8-3.2-7c-1.2-2.2-2.7-4.2-4.5-6c-0.5-1.9-1.1-3.7-1.7-5.5
		c-0.6-1.8-1.3-3.7-2.1-5.5c-0.7-1.8-1.6-3.6-2.5-5.3c-0.5-0.9-1-1.7-1.5-2.5c-0.5-0.8-1.1-1.6-1.8-2.3c-0.7-0.7-1.4-1.4-2.4-1.8
		c-0.5-0.2-1-0.4-1.5-0.4c-0.5,0-1.1,0.1-1.5,0.3c-0.5,0.2-0.9,0.6-1.3,1c-0.3,0.4-0.6,0.9-0.8,1.4c-0.4,1-0.6,2-0.7,2.9
		c-0.2,2-0.2,4-0.1,5.9l0.1,2.9c0,0.8,0.1,1.7,0,2.5c-3.5-0.3-7-0.4-10.5-0.3c-3.6,0.1-7.2,0.3-10.8,0.6c-7.2,0.6-14.3,1.6-21.4,2.7
		c-0.7,0.1-1.3,0.2-1.9,0.3c-0.2,0-0.5,0-0.7,0.1c-1.4,0.3-2.4,0.6-2.7,0.8c-0.1-0.2-0.4-0.8-0.8-1.6c-0.8-1.6-1.6-3.2-2.5-4.8
		l-0.2-0.3l-0.1-0.1l-0.1-0.2l-0.4-0.6l-0.7-1.2c-0.5-0.8-1-1.6-1.5-2.4c-0.5-0.8-1.1-1.6-1.7-2.3c-0.6-0.8-1.2-1.5-1.9-2.2
		c-0.7-0.7-1.4-1.4-2.4-1.9c-0.5-0.3-1-0.5-1.6-0.6c-0.3-0.1-0.6-0.1-0.9,0c-0.3,0-0.6,0.1-0.8,0.2c-0.3,0.1-0.6,0.3-0.8,0.5
		c-0.2,0.2-0.4,0.4-0.6,0.7c-0.3,0.5-0.6,1-0.8,1.5c-0.4,1-0.7,2-0.8,3c-0.4,2-0.5,4.1-0.6,6.1c0,2.1,0,4.1,0.3,6.2
		c0.1,1,0.3,2.1,0.5,3.1c0.2,0.9,0.4,1.8,0.6,2.6c-1.1,2-2.3,3.9-3.4,5.9C34.2,54,33.6,55,33,56.1c-0.3,0.5-0.6,1.1-0.9,1.7
		c-0.1,0.3-0.3,0.6-0.4,0.8c-0.1,0.3-0.3,0.6-0.4,0.9l-0.1,0.2L31.1,60L31,60.4c-0.1,0.3-0.2,0.6-0.3,0.9c-0.2,0.6-0.4,1.2-0.6,1.8
		c-0.4,1.2-0.8,2.4-1.1,3.6c-0.7,2.5-1.3,5-1.8,7.5c-0.5,2.5-0.8,5.1-1,7.7c-0.1,2-0.2,4.1-0.1,6.2c-0.7,0.1-1.4,0.1-2.1,0.2
		c-2.1,0.2-4.1,0.5-6.1,0.8c-1.3,0.2-2.7,0.4-3.9,0.9c-1.1,0.4-0.7,2.2,0.4,1.8c1.2-0.4,2.5-0.6,3.8-0.8c2-0.3,4.1-0.6,6.1-0.8
		c0.7-0.1,1.3-0.1,2-0.2c0.1,1.5,0.2,3,0.4,4.4c-0.3,0.1-0.7,0.2-1,0.2c-3.7,0.9-7.4,1.9-10.8,3.6c-1,0.5-0.2,2.1,0.8,1.6
		c3.3-1.6,6.9-2.6,10.4-3.4c0.3-0.1,0.6-0.1,0.9-0.2c0.1,0.4,0.1,0.8,0.2,1.2c0.2,1,0.4,2,0.7,3c-0.3,0.1-0.6,0.2-0.9,0.4
		c-3.3,1.3-6.7,2.7-9.8,4.5c-1,0.6-0.2,2.2,0.8,1.6c3.1-1.8,6.4-3.1,9.7-4.4c0.3-0.1,0.5-0.2,0.8-0.3c0.3,0.9,0.7,1.8,1.1,2.7
		c0.2,0.4,0.4,0.8,0.6,1.2c-0.4,0.2-0.8,0.4-1.2,0.6c-2.9,1.6-6,3.3-8.6,5.4c-0.9,0.7,0.3,2.1,1.2,1.4c2.5-2.1,5.4-3.6,8.2-5.2
		c0.4-0.2,0.8-0.5,1.3-0.7c0.8,1.3,1.7,2.5,2.7,3.7c0.4,0.5,0.8,0.9,1.3,1.4c0.4,0.5,0.9,0.9,1.4,1.3c1,0.8,2,1.6,3,2.2
		c2.1,1.3,4.3,2.4,6.5,3.3c2.2,0.9,4.5,1.6,6.8,2.2c4.5,1.2,9.1,2,13.5,2.5c4.5,0.5,8.9,0.8,13.1,0.8c2.4,0,4.9,0,7.3-0.2
		c2.4-0.2,4.9-0.4,7.3-0.8c1.2-0.2,2.4-0.4,3.6-0.7c1.2-0.3,2.4-0.5,3.6-0.9c2.4-0.6,4.7-1.3,7-2.2c2.3-0.9,4.6-1.8,6.8-3
		c2.2-1.2,4.3-2.5,6.2-4.1c1.9-1.6,3.7-3.4,5.3-5.4c1.6-2,2.9-4.2,3.9-6.6c0.4-1,0.8-2,1.2-3.1c0.9,0.2,1.9,0.4,2.8,0.6
		c3.2,0.7,6.4,1.5,9.4,2.8c1,0.5,1.6-1.3,0.5-1.7c-3-1.3-6.3-2.1-9.4-2.8c-0.9-0.2-1.9-0.4-2.8-0.6c0.1-0.2,0.1-0.4,0.2-0.6
		c0.2-0.6,0.3-1.3,0.4-1.9c0.1-0.5,0.2-1,0.3-1.5c0.7,0.1,1.4,0.1,2.1,0.2c3.5,0.3,7,0.7,10.4,1.6c1.1,0.3,1.6-1.5,0.5-1.7
		c-3.5-0.9-7.1-1.3-10.6-1.7c-0.7-0.1-1.4-0.1-2.1-0.2c0.2-1.4,0.3-2.8,0.4-4.2C133.9,86.4,134.4,86.4,134.9,86.4z"/>
	<linearGradient id="SVGID_2_" gradientUnits="userSpaceOnUse" x1="27.2338" y1="72.6576" x2="132.1597" y2="72.6576">
		<stop  offset="0" style="stop-color:#ED2F66"/>
		<stop  offset="1" style="stop-color:#F8A131"/>
	</linearGradient>
	<path class="st8" d="M132.1,84.7C132.1,84.7,132.1,84.7,132.1,84.7c-2.9,0.2-5.8,0.4-8.7,1c-1.1,0.2-0.7,2,0.4,1.8
		c2.7-0.5,5.5-0.8,8.2-0.9c-0.1,1.4-0.2,2.7-0.4,4c-2.7-0.2-5.5-0.3-8.2-0.1c-0.5,0-0.9,0.3-0.9,0.9c0,0.4,0.4,1,0.8,1
		c2.7-0.2,5.4-0.1,8,0.1c-0.1,0.7-0.2,1.4-0.4,2.1c-0.1,0.5-0.3,1-0.4,1.6c0,0.1,0,0.2-0.1,0.2c-2.2-0.4-4.5-0.8-6.7-1
		c-1.1-0.1-1.2,1.7-0.1,1.8c2.1,0.2,4.2,0.5,6.3,0.9c-0.7,1.9-1.5,3.7-2.4,5.5c-1,1.9-2.3,3.6-3.7,5.2c-1.4,1.6-3,3-4.7,4.3
		c-1.7,1.3-3.5,2.4-5.4,3.4c-3.7,2-7.7,3.4-11.8,4.6c-1,0.3-2,0.6-3.1,0.8c-0.5,0.1-1,0.2-1.5,0.4c-0.5,0.1-1,0.2-1.5,0.3
		c-2.1,0.4-4.2,0.7-6.3,0.9c-5.2,0.5-10.4,0.6-15.6,0.3c-5.2-0.2-10.3-0.8-15.4-1.8c-2.5-0.5-5-1.1-7.5-1.8
		c-2.5-0.7-4.9-1.6-7.2-2.7c-2.3-1.1-4.6-2.4-6.5-4c-0.5-0.4-1-0.8-1.4-1.3c-0.5-0.5-0.9-0.9-1.3-1.4c-0.9-1-1.7-2-2.4-3.1
		c-0.1-0.2-0.2-0.3-0.3-0.5c2.4-1.3,4.9-2.4,7.5-3.4c0.4-0.2,0.6-0.8,0.4-1.2c-0.2-0.5-0.7-0.6-1.2-0.4c-2.6,1-5.1,2.2-7.6,3.5
		c-0.6-1.2-1.2-2.5-1.6-3.8c2.9-1.1,5.9-2.1,8.9-2.7c1.1-0.2,0.7-2-0.4-1.8c-3.1,0.6-6.1,1.7-9.1,2.8c-0.4-1.3-0.7-2.7-0.9-4.1
		c3-0.7,6-1.2,9-1.5c0.5,0,0.8-0.7,0.7-1.1c-0.1-0.5-0.6-0.7-1-0.7c-3,0.3-5.9,0.8-8.8,1.5c-0.1-0.5-0.1-1-0.2-1.5
		c-0.1-0.9-0.2-1.9-0.2-2.8c3.2-0.3,6.4-0.5,9.6-0.3c1.1,0.1,1.2-1.8,0.1-1.8c-3.3-0.2-6.5,0-9.8,0.3c0-1.1,0-2.2,0-3.4
		c0.1-2.7,0.3-5.3,0.7-8c0.4-2.6,1-5.2,1.6-7.8c0.7-2.6,1.5-5.1,2.4-7.6c0.1-0.3,0.2-0.6,0.4-0.9c0.1-0.3,0.3-0.6,0.4-0.9
		c0.3-0.6,0.6-1.2,0.9-1.8c0.6-1.2,1.3-2.3,1.9-3.5c1.3-2.3,2.6-4.6,3.9-6.9c0,0,0-0.1,0-0.1c-0.3-0.9-0.6-1.9-0.8-2.9
		c-0.2-1-0.3-2-0.5-3c-0.2-2-0.3-4-0.3-6c0-2,0.1-4,0.5-6c0.2-1,0.4-2,0.7-2.9c0.2-0.5,0.4-0.9,0.7-1.3c0.3-0.4,0.6-0.7,1-0.9
		c0,0,0,0,0,0l0,0c0.3-0.2,0.7-0.2,1.1-0.2c0.4,0,0.8,0.2,1.1,0.3c0.7,0.4,1.4,0.9,2,1.5c1.2,1.1,2.3,2.5,3.4,3.9c1,1.4,2,2.8,3,4.3
		l0.4,0.5l0.2,0.3l0.2,0.3c0.2,0.4,0.5,0.7,0.7,1.1c0.4,0.8,0.9,1.5,1.3,2.3c0.8,1.5,1.7,2.6,2,2.8c-0.3,0.2,0.4,0.3,2.4,0
		c0,0,0,0.1,0,0.1c0.3,1.4,0.5,2.8,0.8,4.2c0.2,1.2,1.9,0.8,1.7-0.4c-0.3-1.4-0.5-2.8-0.8-4.2c1.2-0.2,2.4-0.3,3.5-0.5
		c0,0.1,0,0.2,0,0.3c0.3,1.5,0.6,3,0.9,4.5c0.2,1.2,1.9,0.8,1.7-0.4c-0.3-1.5-0.6-3-0.9-4.5c0,0,0-0.1,0-0.1
		c1.1-0.1,2.2-0.3,3.2-0.4c0.4,2.1,0.8,4.2,1.2,6.3c0.2,1.2,1.9,0.8,1.7-0.4c-0.4-2-0.8-4-1.1-6.1c0.2,0,0.4,0,0.6-0.1
		c1-0.1,2-0.2,3.1-0.3c0,0.1,0,0.1,0,0.2c0.4,2.4,0.8,4.7,1.2,7.1c0.2,1.2,1.9,0.8,1.7-0.4c-0.4-2.3-0.8-4.7-1.1-7
		c1.3-0.1,2.5-0.2,3.8-0.3c0.3,3,0.7,6,1,8.9c0.1,1.2,1.8,0.8,1.7-0.4c-0.3-2.9-0.7-5.8-1-8.7c0.2,0,0.5,0,0.7-0.1
		c1.1-0.1,2.2-0.2,3.3-0.2c-0.1,0.1-0.1,0.3-0.1,0.4c0.2,2.6,0.4,5.3,0.5,7.9c0,0.5,0.3,0.9,0.8,1c0.4,0,0.9-0.4,0.9-0.9
		c-0.2-2.6-0.4-5.3-0.5-7.9c0-0.2-0.1-0.5-0.2-0.6c1.5-0.1,2.9-0.1,4.4-0.2c0,0,0,0.1,0,0.1c0.1,2.2,0.1,4.4,0.2,6.6
		c0,1.2,1.8,1.3,1.7,0.1c-0.1-2.2-0.1-4.4-0.2-6.6c0-0.1,0-0.2,0-0.2c0.1,0,0.2,0,0.4,0c1.1,0,2.2,0,3.3,0c0,1.6,0,3.3,0,4.9
		c0,1.2,1.8,1.3,1.7,0.1c0-1.7,0-3.3,0-5c1.1,0,2.1,0.1,3.2,0.1c0,1.1,0,2.2,0,3.4c0,1.2,1.7,1.3,1.7,0.1c0-1.1,0-2.2,0-3.3
		c0.4,0,0.7,0.1,1.1,0.1l0,0c0.6,0.1,1.2-0.4,1.2-1.1c0,0,0,0,0-0.1c0-1,0-2,0-3l-0.1-2.9c0-1,0-1.9,0-2.9c0-0.9,0.1-1.9,0.2-2.8
		c0.1-0.9,0.3-1.8,0.6-2.5c0.1-0.4,0.3-0.7,0.5-0.9c0.1-0.1,0.2-0.2,0.3-0.3c0.1,0,0.1-0.1,0.2-0.1c0,0,0.1,0,0.1,0c0,0,0,0,0,0l0,0
		l0,0l0,0c0.3-0.1,0.6-0.2,0.9-0.2c0.3,0,0.6,0.1,1,0.2c0.7,0.3,1.3,0.8,1.9,1.5c0.6,0.6,1.1,1.4,1.6,2.1c0.5,0.8,1,1.6,1.4,2.4
		c0.9,1.7,1.7,3.4,2.4,5.2c0.7,1.8,1.4,3.6,2,5.4c0.3,0.9,0.6,1.8,0.9,2.7c0.3,0.9,0.6,1.8,0.8,2.8l0,0c0.1,0.2,0.2,0.4,0.3,0.5
		c0.9,0.8,1.7,1.8,2.5,2.8c1.3,1.7,2.3,3.5,3.2,5.5c0.9,1.9,1.7,4,2.4,6.1c1.3,4.2,2.2,8.5,2.8,12.9c0.3,2.3,0.5,4.7,0.6,7
		c-3.4,0.6-6.8,1.4-10.1,2.5c-1.1,0.4-0.7,2.1,0.4,1.8c3.2-1.1,6.5-1.8,9.8-2.4C132.2,81.8,132.2,83.2,132.1,84.7z"/>
	<path class="st1" d="M27.4,97.9c0-0.1,0-0.2-0.1-0.4c-0.1,0.1-0.2,0.2-0.2,0.3C27,98,27,98.1,27,98.1c0,0.1,0,0.1,0,0.1
		c0,0,0.1,0.1,0.2,0.2c0.1,0.1,0.4,0.2,0.6,0.2C27.6,98.5,27.4,98.2,27.4,97.9z"/>
	<path class="st1" d="M24.2,99.6c0,0,0.1,0,0.1,0.1c-0.1-0.1-0.2-0.2-0.2-0.3C24.1,99.4,24.2,99.5,24.2,99.6z"/>
	<path class="st1" d="M23.6,96.5c-0.2,0.3-0.3,0.5-0.4,0.8c-0.1,0.2-0.1,0.5,0,0.7c0,0,0,0,0,0c0-0.1,0-0.1,0-0.2
		c0-0.1,0-0.1,0.1-0.2l0-0.1l0,0l0,0l0-0.1c0.1-0.3,0.2-0.6,0.4-0.8c0.3-0.5,0.7-0.9,1.1-1.3c0.1-0.1,0.2-0.2,0.3-0.2
		c-0.3,0.2-0.6,0.4-0.9,0.6C24,96,23.8,96.2,23.6,96.5z"/>
	<path class="st1" d="M28.1,95.4c-0.4,0.1-0.7,0.3-1.1,0.5c-0.2,0.1-0.3,0.2-0.5,0.3c-0.3,0.2-0.5,0.4-0.7,0.7
		c-0.1,0.2-0.2,0.4-0.3,0.6c0,0.1,0,0.1,0,0.2l0,0.1l0,0.1c0,0,0,0,0,0c0,0,0,0.1,0,0.1c0,0.1,0,0.1,0,0.1c0,0.2,0.1,0.3,0.2,0.5
		c0.1,0.1,0.3,0.3,0.5,0.4c0,0,0,0,0,0c0,0-0.1-0.1-0.1-0.1c-0.1-0.2-0.2-0.3-0.2-0.5c0-0.4,0.1-0.7,0.2-1c0.1-0.3,0.3-0.5,0.5-0.7
		c0.2-0.2,0.4-0.4,0.6-0.6C27.6,95.8,27.8,95.6,28.1,95.4z"/>
	<path class="st4" d="M42.3,32.9c0.1-0.4,0.3-0.7,0.5-0.9c0.1-0.1,0.2-0.2,0.3-0.2c0.1,0,0.1,0,0.2-0.1c0,0,0,0,0,0c0,0,0,0,0,0
		c0,0,0.1,0.1,0.2,0.1c0.1,0.1,0.3,0.3,0.4,0.4c0.5,0.6,1,1.3,1.4,1.9c0.8,1.3,1.5,2.5,2.1,3.6c0.6,1,1,1.9,1.2,2.5
		c0.3,0.6,0.4,0.9,0.5,0.9c0.1,0,0.1-0.4,0-1.1c-0.1-0.7-0.4-1.6-0.9-2.8c-0.5-1.1-1.1-2.5-1.9-3.9c-0.2-0.4-0.4-0.7-0.7-1.1
		c-0.2-0.4-0.5-0.7-0.8-1.1c-0.1-0.2-0.3-0.4-0.5-0.5c-0.1-0.1-0.2-0.2-0.3-0.3c-0.1-0.1-0.3-0.2-0.5-0.2c0,0-0.1,0-0.1,0
		c0,0-0.1,0-0.1,0l0,0l0,0l0,0l-0.1,0c-0.1,0-0.2,0-0.2,0c-0.2,0-0.3,0.1-0.5,0.2c-0.3,0.1-0.5,0.4-0.7,0.6c-0.4,0.5-0.6,1-0.7,1.5
		c-0.1,0.5-0.2,1-0.3,1.4c-0.1,0.9-0.1,1.8-0.1,2.6c0.1,1.6,0.3,3.1,0.5,4.3c0.3,1.2,0.6,2.2,0.9,2.8c0.3,0.6,0.6,0.9,0.6,0.9
		c0.1-0.1,0-0.4-0.1-1.1c-0.1-0.7-0.3-1.6-0.4-2.8c-0.1-1.2-0.2-2.6-0.2-4.2c0-0.8,0-1.6,0.2-2.4C42.1,33.6,42.2,33.2,42.3,32.9z
		 M43.3,31.6L43.3,31.6L43.3,31.6L43.3,31.6C43.3,31.6,43.3,31.6,43.3,31.6L43.3,31.6z"/>
	<path class="st4" d="M114.9,34.9c-0.3-1.1-0.7-2.4-1.2-3.8c-0.3-0.7-0.6-1.4-1-2.2c-0.2-0.4-0.4-0.7-0.6-1.1
		c-0.2-0.4-0.5-0.7-0.8-1.1c-0.2-0.2-0.4-0.4-0.7-0.5c-0.1-0.1-0.3-0.1-0.5-0.2c-0.2,0-0.4,0-0.6,0.1c-0.2,0.1-0.3,0.2-0.5,0.3
		c-0.1,0.1-0.1,0.1-0.2,0.2l0,0l0,0c0,0,0,0.1-0.1,0.1c-0.2,0.3-0.2,0.5-0.3,0.8c-0.1,0.5-0.1,0.9-0.2,1.3c0,0.4,0,0.8,0,1.2
		c0,1.5,0.2,2.9,0.4,4c0.3,2.2,0.8,3.6,1,3.5c0.1,0,0.1-0.4,0.1-1c0-0.6,0-1.5-0.1-2.6c0-1.1-0.1-2.4-0.1-3.9c0-0.4,0-0.7,0.1-1.1
		c0-0.4,0.1-0.7,0.2-1c0-0.2,0.1-0.3,0.1-0.4l0,0c0,0,0,0,0,0l0,0l0,0l0,0c0,0,0,0,0,0c0,0,0,0,0,0c0,0,0,0,0,0
		c0.1,0,0.2,0.1,0.3,0.2c0.2,0.2,0.5,0.5,0.7,0.9c0.2,0.3,0.4,0.7,0.6,1c0.4,0.7,0.7,1.4,1,2c0.6,1.3,1.1,2.5,1.5,3.6l0.9,2.4
		c0.2,0.6,0.3,0.9,0.4,0.9c0.1,0,0.2-0.4,0.1-1C115.3,36.9,115.1,36,114.9,34.9z M109.9,27.6L109.9,27.6
		C109.9,27.6,109.9,27.6,109.9,27.6z"/>
	<linearGradient id="SVGID_3_" gradientUnits="userSpaceOnUse" x1="37.9548" y1="69.6523" x2="84.4149" y2="69.6523">
		<stop  offset="0" style="stop-color:#F9A54F"/>
		<stop  offset="1" style="stop-color:#27B470"/>
	</linearGradient>
	<path class="st9" d="M78.4,56.8c-2.5-2.7-5.5-4.9-8.8-6.5c-3.3-1.6-6.9-2.7-10.7-3c-1.9-0.1-3.8,0-5.8,0.5
		c-1.9,0.5-3.9,1.3-5.6,2.5c-1.7,1.3-3.2,3-4.3,4.9c-0.4,0.8-0.8,1.6-1.1,2.4c-0.4,0.6-0.9,1.2-1.3,1.9c-1.1,1.8-2,3.8-2.6,6
		c-0.6,2.2-0.7,4.8-0.3,7.2c0.4,2.5,1.4,4.9,2.8,7.1c2.8,4.3,7.1,7.7,12.1,9.9c2.5,1.1,5.2,1.8,8,2.1c2.8,0.3,5.8,0.2,8.7-0.6
		c2.9-0.8,5.9-2.4,8.2-4.8c1-1,1.9-2.2,2.7-3.4c-0.4-0.5-0.9-1-1.3-1.5c-0.2-0.3-0.5-0.6-0.7-0.9c0,0,0,0.1-0.1,0.1
		c-0.7,1.3-1.6,2.5-2.6,3.5c-2,2-4.4,3.4-7,4.2c-2.6,0.8-5.2,0.9-7.8,0.7c-2-0.2-4-0.6-5.9-1.3c0,0,0.1,0,0.1,0
		c1.1,0,2.2-0.2,3.2-0.4c0.6,0.2,1.2,0.4,1.9,0.5c2.5,0.6,5.1,0.7,7.6,0.2c1.2-0.2,2.5-0.6,3.6-1.2c0.6-0.3,1.1-0.6,1.7-1
		c0.5-0.4,1-0.8,1.4-1.2c1.4-1.2,2.6-2.7,3.6-4.3c-0.3-0.4-0.6-0.8-0.9-1.2c-0.3-0.4-0.6-0.9-0.8-1.3c-0.3-0.5-0.5-1-0.7-1.5
		c-0.1-0.3-0.2-0.6-0.2-1c0-0.1,0-0.2,0-0.3c0-0.1,0-0.1,0-0.2l0-0.1l0-0.2l0-0.2c0.1-0.5,0.2-1.1,0.5-1.7c0.1-0.3,0.3-0.6,0.6-0.8
		c0.3-0.3,0.6-0.5,1-0.6c0.4-0.1,0.8-0.1,1.1,0c0.3,0.1,0.6,0.2,0.9,0.4c0.2,0.1,0.4,0.3,0.6,0.4c0-0.2,0-0.3,0-0.5
		c-0.1-2.4-0.7-4.8-1.6-6.8c-0.7-1.5-1.6-2.8-2.5-4c-0.2-0.5-0.4-1.1-0.6-1.6c0,0,0.1,0.1,0.1,0.1c2.2,2.4,3.9,5.2,4.7,8.2
		c0.4,1.6,0.6,3.3,0.5,4.9c0.1,0.1,0.2,0.2,0.2,0.2c0.4,0.4,0.7,0.8,1,1.2c0.3,0.4,0.6,0.9,0.9,1.4c0,0.1,0.1,0.2,0.1,0.2
		c0,0,0,0,0,0c0-0.5,0-0.9,0.1-1.4c0.1-0.5,0.2-1,0.3-1.5c0.1-0.2,0.2-0.5,0.3-0.8c0,0,0,0,0-0.1c0-1.7-0.2-3.5-0.6-5.2
		C82.9,62.9,80.9,59.5,78.4,56.8z M42.8,78.5c-1.3-1.9-2.2-4-2.6-6.1c-0.4-2.1-0.3-4.3,0.1-6.3c0.2-0.8,0.4-1.6,0.7-2.4
		c0,0.4-0.1,0.8-0.1,1.2c0,0.5,0,1.1,0,1.6l0,0.8l0,0.8c0.1,2.2,0.3,4.3,0.7,6.5C42,75.9,42.4,77.3,42.8,78.5
		C42.8,78.5,42.8,78.5,42.8,78.5z M47.3,79.2c0.5,0.8,1.1,1.5,1.7,2.2C48.4,80.8,47.8,80,47.3,79.2z M69,67.9
		c-0.3,1.2-0.8,2.3-1.6,3.3c-0.7,0.9-1.6,1.6-2.5,2.1c-1,0.5-2,0.8-3,1c-1,0.1-1.9,0.1-2.9-0.2c-0.9-0.3-1.8-0.7-2.5-1.3
		c-0.7-0.6-1.4-1.4-1.8-2.3c-0.5-0.9-0.8-1.8-1-2.8c0,0,0.2-0.1,0.2-0.1c0.8,0.7,1.5,1.3,2.1,1.8c0.6,0.5,1,1,1.5,1.4
		c0.5,0.4,1,0.8,1.6,1c0.6,0.3,1.2,0.4,1.9,0.4c1.5-0.1,3-0.7,4.1-1.9c0.5-0.6,1-1.2,1.2-2c0.3-0.7,0.4-1.5,0.4-2.4
		c0-0.2,0.4-0.4,0.8-0.5c0.5-0.1,1-0.1,1.3,0.2c0.4,0.3,0.5,0.7,0.5,1C69.2,67.2,69.1,67.5,69,67.9z M70.1,67.8
		C70.1,67.8,70.1,67.8,70.1,67.8C70.1,67.8,70.1,67.8,70.1,67.8C70.1,67.8,70.1,67.8,70.1,67.8z"/>
	<path class="st7" d="M113.7,80.1c-0.2-0.1-0.4-0.1-0.6-0.2c-0.8-0.2-1.7-0.3-2.7-0.2c-0.5,0.1-1,0.2-1.4,0.4
		c-0.4,0.2-0.8,0.4-1.2,0.7c-0.4,0.3-0.8,0.6-1.1,0.9c-0.3,0.4-0.7,0.8-0.9,1.2c-0.3,0.5-0.4,1-0.5,1.5c0,0.2-0.1,0.5-0.1,0.7
		c0,0,0,0,0,0c-0.2,0.5-0.3,1-0.2,1.6c0,0.3,0,0.6,0.1,0.8c0,0.1,0.1,0.3,0.1,0.4l0,0.1l0,0.1c0,0.1,0.1,0.1,0.1,0.2
		c0.2,0.5,0.5,1,0.9,1.5c0.8,0.9,1.8,1.5,3,1.9c1.2,0.4,2.6,0.5,3.9,0.2c0.7-0.1,1.4-0.4,2-0.8c0.7-0.4,1.3-0.9,1.8-1.6
		c0.1-0.1,0.1-0.2,0.2-0.2l0-0.1l0-0.1l0.1-0.1c0.1-0.2,0.2-0.4,0.3-0.5c0.2-0.4,0.3-0.8,0.4-1.2c0.2-0.8,0.3-1.7,0.1-2.5
		c-0.2-0.8-0.5-1.6-1-2.3c-0.5-0.7-1.1-1.3-1.8-1.8c-0.4-0.2-0.7-0.4-1.1-0.6C114.1,80.2,113.9,80.1,113.7,80.1z M108,82.9
		c-0.3,0.7-0.6,1.4-0.7,2.2c-0.1,0.6-0.3,1.2-0.3,1.8c-0.1-0.4-0.1-0.7-0.2-1.1c-0.1-0.8,0-1.5,0.3-2.2c0.3-0.6,0.8-1.1,1.3-1.5
		C108.2,82.4,108.1,82.7,108,82.9z M111.9,81.1C111.9,81.1,111.9,81.1,111.9,81.1C111.8,81.1,111.8,81.1,111.9,81.1
		C111.8,81.1,111.9,81.1,111.9,81.1z M110.7,88.7c-0.1,0.2-0.2,0.4-0.3,0.6c0,0,0-0.1,0-0.1c0-0.1,0-0.3,0.1-0.4
		c0-0.3,0.1-0.6,0.2-0.9c0.1-0.6,0.3-1.2,0.5-1.8c0-0.1,0.1-0.3,0.1-0.4l0.2-0.4c0-0.1,0-0.1,0.1-0.2l0.1-0.2c0-0.1,0.1-0.2,0.1-0.3
		c0.1-0.2,0.1-0.4,0.2-0.6c0,0,0-0.1,0-0.1c0.2-0.4,0.4-0.8,0.6-1.2c0.2-0.2,0.3-0.5,0.5-0.6c0.1-0.1,0.1-0.1,0.2-0.1c0,0,0,0,0,0
		c0,0,0,0.1,0,0.1c0,0.2-0.1,0.5-0.1,0.8c-0.2,0.6-0.4,1.3-0.6,1.9c-0.1,0.3-0.3,0.6-0.4,1l-0.2,0.5l-0.1,0.3c0,0.1-0.1,0.2-0.1,0.3
		l-0.5,1C111.1,88.1,110.9,88.4,110.7,88.7z M112.8,88.9L112.8,88.9c-0.1,0.1-0.1,0.2-0.1,0.2c-0.3,0.4-0.6,0.8-0.9,1.1
		c-0.1,0.1-0.2,0.1-0.2,0.1c0.2-0.3,0.4-0.6,0.5-1c0.2-0.4,0.4-0.7,0.5-1.1l0.5-1.1l0,0c0,0,0,0,0,0c0-0.1,0.1-0.1,0.1-0.2l0.1-0.2
		l0.2-0.5c0-0.1,0.1-0.2,0.1-0.3c0,0,0,0,0,0c-0.1,0.6-0.3,1.2-0.3,1.9c-0.1,0.2-0.2,0.4-0.3,0.6C113,88.6,112.9,88.7,112.8,88.9
		L112.8,88.9L112.8,88.9z M114.7,90.3c-0.5,0.3-1.1,0.5-1.7,0.7c-0.1,0-0.1,0-0.2,0c0.2-0.2,0.4-0.4,0.5-0.6
		c0.1,0.1,0.3,0.2,0.5,0.1c0,0,0.1,0,0.1-0.1c0.2-0.1,0.4-0.3,0.5-0.4c0.1-0.2,0.3-0.3,0.4-0.5c0.2-0.3,0.4-0.6,0.5-1
		c0-0.1,0.1-0.2,0.1-0.3c-0.1,0.5-0.1,1-0.2,1.2c0,0.2,0,0.3,0,0.4C115.1,90,114.9,90.2,114.7,90.3z M116.4,86.2
		c0.1-0.4,0.2-0.9,0.3-1.3c0,0,0-0.1,0-0.1c0.1,0.2,0.1,0.4,0.2,0.6c0.1,0.6,0.1,1.3,0,1.9c-0.1,0.3-0.2,0.6-0.3,0.9
		c-0.1,0.1-0.1,0.3-0.2,0.4l-0.1,0.1l-0.1,0.1c0,0.1-0.1,0.1-0.1,0.2c-0.2,0.3-0.4,0.5-0.7,0.7c0-0.1,0-0.1,0.1-0.2
		c0.1-0.3,0.2-0.7,0.3-1.3C116,87.7,116.2,87,116.4,86.2z M115.5,85c0.1-0.5,0.3-1,0.4-1.6c0-0.1,0-0.1,0-0.2
		c0.1,0.1,0.1,0.2,0.2,0.3c0,0,0,0,0,0c-0.2,0.9-0.5,1.9-0.9,2.9c-0.2,0.6-0.4,1.2-0.7,1.8c-0.1,0.2-0.2,0.4-0.3,0.6
		c0.1-0.2,0.2-0.5,0.3-0.7C114.9,87.1,115.2,86.1,115.5,85z"/>
	<path class="st4" d="M49.9,89.5c-0.4-0.2-0.7-0.4-1.1-0.6c-0.2-0.1-0.4-0.2-0.6-0.2c-0.2-0.1-0.4-0.1-0.6-0.2
		c-0.8-0.2-1.7-0.3-2.7-0.2c-0.5,0.1-1,0.2-1.4,0.4c-0.4,0.2-0.8,0.4-1.2,0.7c-0.4,0.3-0.8,0.6-1.1,0.9c-0.4,0.4-0.7,0.8-0.9,1.2
		c-0.3,0.5-0.4,1-0.5,1.5c0,0.2-0.1,0.5-0.1,0.7c0,0,0,0,0,0c-0.2,0.5-0.3,1-0.2,1.6c0,0.3,0,0.6,0.1,0.8c0,0.1,0.1,0.3,0.1,0.4
		l0,0.1l0,0.1c0,0.1,0.1,0.1,0.1,0.2c0.2,0.5,0.5,1,0.9,1.5c0.8,0.9,1.8,1.5,3,1.9c1.2,0.4,2.6,0.5,3.9,0.2c0.7-0.1,1.4-0.4,2-0.8
		c0.7-0.4,1.3-0.9,1.8-1.6c0.1-0.1,0.1-0.2,0.2-0.2l0-0.1l0-0.1l0.1-0.1c0.1-0.2,0.2-0.4,0.3-0.5c0.2-0.4,0.3-0.8,0.4-1.2
		c0.2-0.8,0.3-1.7,0.1-2.5c-0.2-0.8-0.5-1.6-1-2.3C51.3,90.5,50.6,89.9,49.9,89.5z M42.5,91.5c-0.3,0.7-0.6,1.4-0.7,2.2
		c-0.1,0.6-0.3,1.2-0.3,1.8c-0.1-0.4-0.1-0.7-0.2-1.1c-0.1-0.8,0-1.5,0.3-2.2c0.3-0.6,0.8-1.1,1.3-1.5
		C42.8,90.9,42.7,91.2,42.5,91.5z M49,96.7c0.4-1.1,0.7-2.1,1-3.1c0.1-0.5,0.3-1,0.4-1.6c0-0.1,0-0.1,0-0.2c0.1,0.1,0.1,0.2,0.2,0.3
		c0,0,0,0,0,0C50.5,93,50.2,94,49.8,95C49.6,95.6,49.4,96.2,49,96.7c0,0.3-0.1,0.5-0.3,0.7C48.9,97.2,49,96.9,49,96.7z M46.5,89.6
		C46.4,89.7,46.4,89.7,46.5,89.6C46.4,89.7,46.4,89.6,46.5,89.6C46.4,89.6,46.4,89.6,46.5,89.6z M45.3,97.3
		c-0.1,0.2-0.2,0.4-0.3,0.6c0,0,0-0.1,0-0.1c0-0.1,0-0.3,0.1-0.4c0-0.3,0.1-0.6,0.2-0.9c0.1-0.6,0.3-1.2,0.5-1.8
		c0-0.1,0.1-0.3,0.1-0.4l0.2-0.4c0-0.1,0-0.1,0.1-0.2l0.1-0.2c0-0.1,0.1-0.2,0.1-0.3c0.1-0.2,0.1-0.4,0.2-0.6c0,0,0-0.1,0-0.1
		c0.2-0.4,0.4-0.8,0.6-1.2c0.2-0.2,0.3-0.5,0.5-0.6c0.1-0.1,0.1-0.1,0.2-0.1c0,0,0,0,0,0c0,0,0,0.1,0,0.1c0,0.2-0.1,0.5-0.1,0.8
		c-0.2,0.6-0.4,1.3-0.6,1.9c-0.1,0.3-0.3,0.6-0.4,1l-0.2,0.5L46.3,95c0,0.1-0.1,0.2-0.1,0.3l-0.5,1C45.6,96.6,45.5,96.9,45.3,97.3z
		 M47.4,97.4L47.4,97.4c-0.1,0.1-0.1,0.2-0.1,0.2c-0.3,0.4-0.6,0.8-0.9,1.1c-0.1,0.1-0.2,0.1-0.2,0.1c0.2-0.3,0.4-0.6,0.5-1
		c0.2-0.4,0.4-0.7,0.5-1.1l0.5-1.1l0,0c0,0,0,0,0,0c0-0.1,0.1-0.1,0.1-0.2l0.1-0.2l0.2-0.5c0-0.1,0.1-0.2,0.1-0.3c0,0,0,0,0,0
		c-0.1,0.6-0.3,1.2-0.3,1.9c-0.1,0.2-0.2,0.4-0.3,0.6C47.5,97.1,47.5,97.3,47.4,97.4L47.4,97.4L47.4,97.4z M49.3,98.8
		c-0.5,0.3-1.1,0.5-1.7,0.7c-0.1,0-0.1,0-0.2,0c0.2-0.2,0.4-0.4,0.5-0.6c0.1,0.1,0.3,0.2,0.5,0.1c0,0,0.1,0,0.1-0.1
		c0.2-0.1,0.4-0.3,0.5-0.4c0.1-0.2,0.3-0.3,0.4-0.5c0.2-0.3,0.4-0.6,0.5-1c0-0.1,0.1-0.2,0.1-0.3c-0.1,0.5-0.1,1-0.2,1.2
		c0,0.2,0,0.3,0,0.4C49.7,98.6,49.5,98.7,49.3,98.8z M51.4,95.8c-0.1,0.3-0.2,0.6-0.3,0.9c-0.1,0.1-0.1,0.3-0.2,0.4l-0.1,0.1
		l-0.1,0.1c0,0.1-0.1,0.1-0.1,0.2c-0.2,0.3-0.4,0.5-0.7,0.7c0-0.1,0-0.1,0.1-0.2c0.1-0.3,0.2-0.7,0.3-1.3c0.2-0.6,0.4-1.2,0.6-2.1
		c0.1-0.4,0.2-0.9,0.3-1.3c0,0,0-0.1,0-0.1c0.1,0.2,0.1,0.4,0.2,0.6C51.6,94.5,51.6,95.2,51.4,95.8z"/>
	<path d="M73.2,102.6L73.2,102.6C73.2,102.6,73.2,102.6,73.2,102.6C73.2,102.6,73.2,102.6,73.2,102.6z"/>
	<path class="st2" d="M73.2,102.6c0,0-0.1,0.1-0.1,0.2c0,0,0,0-0.1,0c-0.1,0-0.1,0.1-0.2,0.1c0,0.1-0.1,0.1-0.1,0.2
		c0,0.1,0,0.1-0.1,0.2c0,0.1-0.1,0.1-0.1,0.2l0,0.1c0,0.1,0,0.1,0,0.2l0,0.1l0,0.1l0,0.1c0,0.1,0,0.1,0,0.2c0,0.1,0,0.1,0,0.2l0,0.2
		c0,0.1,0,0.1,0,0.2c0,0.1,0,0.1,0,0.2l0,0.2c0,0.1,0,0.2,0.1,0.2c0,0,0,0.1,0,0.1c0,0,0,0,0,0.1c0,0,0,0,0,0c0,0,0,0,0,0
		c0,0,0,0,0.1,0c0,0,0,0,0,0c0,0,0,0,0.1,0c0,0,0,0,0.1,0l0.1,0l0,0l0,0c0,0,0,0,0.1,0c0,0,0.1,0,0.1,0c0,0,0.1,0,0.1,0
		c0,0,0,0,0.1,0c0,0,0,0,0.1,0c0,0,0.1,0,0.1,0c0,0,0,0,0.1,0c0,0,0,0,0.1,0c0,0,0,0,0,0c0,0,0,0,0,0c0,0,0,0,0,0c0,0,0,0,0,0
		c0,0,0.1,0,0.1-0.1c0,0,0,0,0-0.1c0,0,0-0.1,0.1-0.1c0-0.1,0.1-0.2,0.1-0.2l0-0.3c0-0.1,0.1-0.2,0.1-0.3c0,0,0-0.1,0-0.1
		c0,0,0-0.1,0-0.1c0-0.1-0.1-0.2,0-0.2c0-0.1,0-0.2,0.1-0.2c0-0.1,0-0.2,0-0.2c0-0.1,0-0.1,0-0.2c0-0.1,0-0.1,0-0.2
		c0-0.1,0-0.1,0-0.2l0-0.2c0-0.1,0-0.1,0-0.2c0,0-0.1-0.1-0.1-0.1c-0.1-0.1-0.1-0.1-0.2-0.2c0,0,0,0,0,0c0,0,0,0,0,0c0,0,0,0,0,0
		c0,0,0,0,0,0c0,0,0,0,0,0l0,0c0,0,0,0,0,0l0,0c0,0,0,0,0,0c0,0,0,0,0,0c0,0-0.1,0-0.1,0c0,0,0,0-0.1,0
		C73.3,102.6,73.2,102.6,73.2,102.6C73.2,102.6,73.2,102.6,73.2,102.6c0.1,0,0.1,0,0.1,0c0,0,0,0,0,0c0,0,0,0,0,0l0,0c0,0,0,0,0,0
		C73.3,102.7,73.2,102.7,73.2,102.6L73.2,102.6C73.2,102.6,73.2,102.6,73.2,102.6z M73.6,104.6C73.7,104.6,73.7,104.6,73.6,104.6
		c0,0.1,0.1,0.1,0.1,0.2c0,0,0,0.1,0,0.1c0,0.1-0.1,0.1-0.1,0.2C73.6,104.9,73.6,104.7,73.6,104.6z M73.5,105.3c0,0,0,0.1,0,0.1
		c0,0,0,0,0,0.1C73.5,105.4,73.5,105.4,73.5,105.3z"/>
	<path class="st2" d="M78.8,97.6c0,0-0.1,0.1-0.1,0.2c0,0,0,0-0.1,0c-0.1,0-0.1,0.1-0.2,0.1c0,0.1-0.1,0.1-0.1,0.2
		c0,0.1,0,0.1-0.1,0.2c0,0.1-0.1,0.1-0.1,0.2l0,0.1c0,0.1,0,0.1,0,0.2l0,0.1l0,0.1l0,0.1c0,0.1,0,0.1,0,0.2c0,0.1,0,0.1,0,0.2l0,0.2
		c0,0.1,0,0.1,0,0.2c0,0.1,0,0.1,0,0.2l0,0.2c0,0.1,0,0.2,0.1,0.2c0,0,0,0.1,0,0.1c0,0,0,0,0,0.1c0,0,0,0,0,0c0,0,0,0,0,0
		c0,0,0,0,0.1,0c0,0,0,0,0,0c0,0,0,0,0.1,0c0,0,0,0,0.1,0l0.1,0l0,0l0,0c0,0,0,0,0.1,0c0,0,0.1,0,0.1,0c0,0,0.1,0,0.1,0
		c0,0,0.1,0,0.1,0c0,0,0,0,0.1,0c0,0,0.1,0,0.1,0c0,0,0,0,0.1,0c0,0,0,0,0.1,0c0,0,0,0,0,0c0,0,0,0,0,0c0,0,0,0,0,0c0,0,0,0,0,0
		c0,0,0.1,0,0.1-0.1c0,0,0,0,0-0.1c0,0,0-0.1,0.1-0.1c0-0.1,0.1-0.2,0.1-0.2l0-0.3c0-0.1,0.1-0.2,0.1-0.3c0,0,0-0.1,0-0.1
		c0,0,0-0.1,0-0.1c0-0.1-0.1-0.2,0-0.2c0-0.1,0-0.2,0.1-0.2c0-0.1,0-0.2,0-0.2c0-0.1,0-0.1,0-0.2c0-0.1,0-0.1,0-0.2
		c0-0.1,0-0.1,0-0.2l0-0.2c0-0.1,0-0.1,0-0.2c0,0-0.1-0.1-0.1-0.1c-0.1-0.1-0.1-0.1-0.2-0.2c0,0,0,0,0,0c0,0,0,0,0,0c0,0,0,0,0,0
		c0,0,0,0,0,0c0,0,0,0,0,0l0,0c0,0,0,0,0,0l0,0c0,0,0,0,0,0c0,0,0,0,0,0c0,0-0.1,0-0.1,0c0,0,0,0-0.1,0
		C78.9,97.6,78.9,97.6,78.8,97.6C78.9,97.6,78.9,97.6,78.8,97.6c0.1,0,0.1,0,0.1,0c0,0,0,0,0,0c0,0,0,0,0,0l0,0c0,0,0,0,0,0
		C78.9,97.7,78.9,97.6,78.8,97.6C78.9,97.6,78.9,97.6,78.8,97.6C78.8,97.6,78.8,97.6,78.8,97.6z M79.3,99.6
		C79.3,99.6,79.3,99.6,79.3,99.6c0,0.1,0.1,0.1,0.1,0.2c0,0,0,0.1,0,0.1c0,0.1-0.1,0.1-0.1,0.2C79.3,99.9,79.3,99.7,79.3,99.6z
		 M79.2,100.3c0,0,0,0.1,0,0.1c0,0,0,0,0,0.1C79.2,100.4,79.2,100.3,79.2,100.3z"/>
	<path d="M78.9,97.6L78.9,97.6C78.9,97.6,78.9,97.6,78.9,97.6C78.9,97.6,78.9,97.6,78.9,97.6z"/>
	<path class="st2" d="M77.6,106.3c0,0-0.1,0.1-0.1,0.2c0,0,0,0-0.1,0c-0.1,0-0.1,0.1-0.2,0.1c0,0.1-0.1,0.1-0.1,0.2
		c0,0.1,0,0.1-0.1,0.2c0,0.1-0.1,0.1-0.1,0.2l0,0.1c0,0.1,0,0.1,0,0.2l0,0.1l0,0.1l0,0.1c0,0.1,0,0.1,0,0.2c0,0.1,0,0.1,0,0.2l0,0.2
		c0,0.1,0,0.1,0,0.2c0,0.1,0,0.1,0,0.2l0,0.2c0,0.1,0,0.2,0.1,0.2c0,0,0,0.1,0,0.1c0,0,0,0,0,0.1c0,0,0,0,0,0c0,0,0,0,0,0
		c0,0,0,0,0.1,0c0,0,0,0,0,0c0,0,0,0,0.1,0c0,0,0,0,0.1,0l0.1,0l0,0l0,0c0,0,0,0,0.1,0c0,0,0.1,0,0.1,0c0,0,0.1,0,0.1,0
		c0,0,0,0,0.1,0c0,0,0,0,0.1,0c0,0,0.1,0,0.1,0c0,0,0,0,0.1,0c0,0,0,0,0.1,0c0,0,0,0,0,0c0,0,0,0,0,0c0,0,0,0,0,0c0,0,0,0,0,0
		c0,0,0.1,0,0.1-0.1c0,0,0,0,0-0.1c0,0,0-0.1,0.1-0.1c0-0.1,0.1-0.2,0.1-0.2l0-0.3c0-0.1,0.1-0.2,0.1-0.3c0,0,0-0.1,0-0.1
		c0,0,0-0.1,0-0.1c0-0.1-0.1-0.2,0-0.2c0-0.1,0-0.2,0.1-0.2c0-0.1,0-0.2,0-0.2c0-0.1,0-0.1,0-0.2c0-0.1,0-0.1,0-0.2
		c0-0.1,0-0.1,0-0.2l0-0.2c0-0.1,0-0.1,0-0.2c0,0-0.1-0.1-0.1-0.1c-0.1-0.1-0.1-0.1-0.2-0.2c0,0,0,0,0,0c0,0,0,0,0,0c0,0,0,0,0,0
		c0,0,0,0,0,0l0,0h0c0,0,0,0,0,0l0,0c0,0,0,0,0,0c0,0,0,0,0,0c0,0-0.1,0-0.1,0c0,0,0,0-0.1,0C77.7,106.3,77.7,106.3,77.6,106.3
		C77.7,106.3,77.7,106.3,77.6,106.3c0.1,0,0.1,0,0.1,0c0,0,0,0,0,0c0,0,0,0,0,0l0,0c0,0,0,0,0,0C77.7,106.4,77.7,106.3,77.6,106.3
		C77.6,106.3,77.6,106.3,77.6,106.3C77.6,106.3,77.6,106.3,77.6,106.3z M78.1,108.3C78.1,108.3,78.1,108.3,78.1,108.3
		c0,0.1,0.1,0.1,0.1,0.2c0,0,0,0.1,0,0.1c0,0.1-0.1,0.1-0.1,0.2C78,108.6,78.1,108.4,78.1,108.3z M78,109c0,0,0,0.1,0,0.1
		c0,0,0,0,0,0.1C77.9,109.1,78,109,78,109z"/>
	<path d="M77.6,106.3L77.6,106.3C77.6,106.3,77.6,106.3,77.6,106.3C77.6,106.3,77.6,106.3,77.6,106.3z"/>
	<path d="M89.4,96.4L89.4,96.4C89.4,96.4,89.4,96.4,89.4,96.4C89.4,96.4,89.4,96.4,89.4,96.4z"/>
	<path class="st2" d="M89.4,96.4c0,0-0.1,0.1-0.1,0.2c0,0,0,0-0.1,0c-0.1,0-0.1,0.1-0.2,0.1c0,0.1-0.1,0.1-0.1,0.2
		c0,0.1,0,0.1-0.1,0.2c0,0.1-0.1,0.1-0.1,0.2l0,0.1c0,0.1,0,0.1,0,0.2l0,0.1l0,0.1l0,0.1c0,0.1,0,0.1,0,0.2c0,0.1,0,0.1,0,0.2l0,0.2
		c0,0.1,0,0.1,0,0.2c0,0.1,0,0.1,0,0.2l0,0.2c0,0.1,0,0.2,0.1,0.2c0,0,0,0.1,0,0.1c0,0,0,0,0,0.1c0,0,0,0,0,0c0,0,0,0,0,0
		c0,0,0,0,0.1,0c0,0,0,0,0,0c0,0,0,0,0.1,0c0,0,0,0,0.1,0l0.1,0h0l0,0c0,0,0,0,0.1,0c0,0,0.1,0,0.1,0c0,0,0.1,0,0.1,0c0,0,0,0,0.1,0
		c0,0,0,0,0.1,0c0,0,0.1,0,0.1,0c0,0,0,0,0.1,0c0,0,0,0,0.1,0c0,0,0,0,0,0c0,0,0,0,0,0c0,0,0,0,0,0c0,0,0,0,0,0c0,0,0.1,0,0.1-0.1
		c0,0,0,0,0-0.1c0,0,0-0.1,0.1-0.1c0-0.1,0.1-0.2,0.1-0.2l0-0.3c0-0.1,0.1-0.2,0.1-0.3c0,0,0-0.1,0-0.1c0,0,0-0.1,0-0.1
		c0-0.1-0.1-0.2,0-0.2c0-0.1,0-0.2,0.1-0.2c0-0.1,0-0.2,0-0.2c0-0.1,0-0.1,0-0.2c0-0.1,0-0.1,0-0.2c0-0.1,0-0.1,0-0.2l0-0.2
		c0-0.1,0-0.1,0-0.2c0,0-0.1-0.1-0.1-0.1c-0.1-0.1-0.1-0.1-0.2-0.2c0,0,0,0,0,0c0,0,0,0,0,0c0,0,0,0,0,0c0,0,0,0,0,0c0,0,0,0,0,0
		l0,0c0,0,0,0,0,0l0,0c0,0,0,0,0,0c0,0,0,0,0,0c0,0-0.1,0-0.1,0c0,0,0,0-0.1,0C89.5,96.4,89.4,96.4,89.4,96.4
		C89.4,96.4,89.4,96.4,89.4,96.4c0.1,0,0.1,0,0.1,0c0,0,0,0,0,0c0,0,0,0,0,0l0,0c0,0,0,0,0,0C89.5,96.5,89.4,96.4,89.4,96.4
		L89.4,96.4C89.4,96.4,89.4,96.4,89.4,96.4z M89.8,98.4C89.9,98.4,89.9,98.4,89.8,98.4c0,0.1,0.1,0.1,0.1,0.2c0,0,0,0.1,0,0.1
		c0,0.1-0.1,0.1-0.1,0.2C89.8,98.7,89.8,98.5,89.8,98.4z M89.7,99.1c0,0,0,0.1,0,0.1c0,0,0,0,0,0.1C89.7,99.2,89.7,99.1,89.7,99.1z"
		/>
	<path class="st2" d="M91.7,105.2c0,0-0.1,0.1-0.1,0.2c0,0,0,0-0.1,0c-0.1,0-0.1,0.1-0.2,0.1c0,0.1-0.1,0.1-0.1,0.2
		c0,0.1,0,0.1-0.1,0.2c0,0.1-0.1,0.1-0.1,0.2l0,0.1c0,0.1,0,0.1,0,0.2l0,0.1l0,0.1l0,0.1c0,0.1,0,0.1,0,0.2c0,0.1,0,0.1,0,0.2l0,0.2
		c0,0.1,0,0.1,0,0.2c0,0.1,0,0.1,0,0.2l0,0.2c0,0.1,0,0.2,0.1,0.2c0,0,0,0.1,0,0.1c0,0,0,0,0,0.1c0,0,0,0,0,0c0,0,0,0,0,0
		c0,0,0,0,0.1,0c0,0,0,0,0,0c0,0,0,0,0.1,0c0,0,0,0,0.1,0l0.1,0l0,0l0,0c0,0,0,0,0.1,0c0,0,0.1,0,0.1,0c0,0,0.1,0,0.1,0
		c0,0,0,0,0.1,0c0,0,0,0,0.1,0c0,0,0.1,0,0.1,0c0,0,0,0,0.1,0c0,0,0,0,0.1,0c0,0,0,0,0,0c0,0,0,0,0,0c0,0,0,0,0,0c0,0,0,0,0,0
		c0,0,0.1,0,0.1-0.1c0,0,0,0,0-0.1c0,0,0-0.1,0.1-0.1c0-0.1,0.1-0.2,0.1-0.2l0-0.3c0-0.1,0.1-0.2,0.1-0.3c0,0,0-0.1,0-0.1
		c0,0,0-0.1,0-0.1c0-0.1-0.1-0.2,0-0.2c0-0.1,0-0.2,0.1-0.2c0-0.1,0-0.2,0-0.2c0-0.1,0-0.1,0-0.2c0-0.1,0-0.1,0-0.2
		c0-0.1,0-0.1,0-0.2l0-0.2c0-0.1,0-0.1,0-0.2c0,0-0.1-0.1-0.1-0.1c-0.1-0.1-0.1-0.1-0.2-0.2c0,0,0,0,0,0c0,0,0,0,0,0c0,0,0,0,0,0
		c0,0,0,0,0,0c0,0,0,0,0,0l0,0c0,0,0,0,0,0l0,0c0,0,0,0,0,0c0,0,0,0,0,0c0,0-0.1,0-0.1,0c0,0,0,0-0.1,0
		C91.8,105.2,91.7,105.2,91.7,105.2C91.7,105.2,91.7,105.2,91.7,105.2c0.1,0,0.1,0,0.1,0c0,0,0,0,0,0l0,0l0,0c0,0,0,0,0,0
		C91.8,105.2,91.7,105.2,91.7,105.2L91.7,105.2C91.7,105.2,91.7,105.2,91.7,105.2z M92.1,107.1C92.2,107.1,92.2,107.2,92.1,107.1
		c0,0.1,0.1,0.1,0.1,0.2c0,0,0,0.1,0,0.1c0,0.1-0.1,0.1-0.1,0.2C92.1,107.4,92.1,107.3,92.1,107.1z M92,107.8c0,0,0,0.1,0,0.1
		c0,0,0,0,0,0.1C92,107.9,92,107.9,92,107.8z"/>
	<path d="M91.7,105.2L91.7,105.2C91.7,105.2,91.7,105.2,91.7,105.2C91.7,105.2,91.7,105.2,91.7,105.2z"/>
	<path class="st2" d="M95.4,100.4c0-0.1,0-0.2,0-0.2c0-0.1,0-0.1,0-0.2c0-0.1,0-0.1,0-0.2c0-0.1,0-0.1,0-0.2l0-0.2
		c0-0.1,0-0.1,0-0.2c0,0-0.1-0.1-0.1-0.1C95.1,99,95,99,94.9,98.9c0,0,0,0,0,0c0,0,0,0,0,0c0,0,0,0,0,0c0,0,0,0,0,0c0,0,0,0,0,0l0,0
		c0,0,0,0,0,0l0,0c0,0,0,0,0,0c0,0,0,0,0,0c0,0-0.1,0-0.1,0c0,0,0,0-0.1,0c0,0,0,0-0.1,0c0,0,0,0,0,0c0,0,0,0,0,0c0,0,0,0,0,0
		c0,0,0,0,0,0l0,0c0,0,0,0,0,0c0,0-0.1-0.1-0.1-0.1h0c0,0,0,0,0,0c0,0-0.1,0.1-0.1,0.2c0,0,0,0-0.1,0c-0.1,0-0.1,0.1-0.2,0.1
		c0,0.1-0.1,0.1-0.1,0.2c0,0.1,0,0.1-0.1,0.2c0,0.1-0.1,0.1-0.1,0.2l0,0.1c0,0.1,0,0.1,0,0.2l0,0.1l0,0.1l0,0.1c0,0.1,0,0.1,0,0.2
		c0,0.1,0,0.1,0,0.2l0,0.2c0,0.1,0,0.1,0,0.2c0,0.1,0,0.1,0,0.2l0,0.2c0,0.1,0,0.2,0.1,0.2c0,0,0,0.1,0,0.1c0,0,0,0,0,0.1
		c0,0,0,0,0,0c0,0,0,0,0,0c0,0,0,0,0.1,0c0,0,0,0,0,0c0,0,0,0,0.1,0c0,0,0,0,0.1,0l0.1,0l0,0l0,0c0,0,0,0,0.1,0c0,0,0.1,0,0.1,0
		c0,0,0.1,0,0.1,0c0,0,0.1,0,0.1,0c0,0,0,0,0.1,0c0,0,0.1,0,0.1,0c0,0,0,0,0.1,0c0,0,0,0,0.1,0c0,0,0,0,0,0c0,0,0,0,0,0c0,0,0,0,0,0
		c0,0,0,0,0,0c0,0,0.1,0,0.1-0.1c0,0,0,0,0-0.1c0,0,0-0.1,0.1-0.1c0-0.1,0.1-0.2,0.1-0.2l0-0.3c0-0.1,0.1-0.2,0.1-0.3
		c0,0,0-0.1,0-0.1c0,0,0-0.1,0-0.1c0-0.1-0.1-0.2,0-0.2C95.4,100.5,95.4,100.5,95.4,100.4z M94.8,101.6
		C94.8,101.7,94.8,101.7,94.8,101.6c0,0,0,0,0-0.1C94.9,101.6,94.9,101.6,94.8,101.6z M95,101.1c0,0.1-0.1,0.1-0.1,0.2
		c0-0.1,0-0.3,0.1-0.5c0,0,0,0,0,0.1c0,0,0,0.1,0,0.1C95,101,95,101.1,95,101.1z"/>
	<path d="M94.5,98.9L94.5,98.9C94.5,98.9,94.5,98.9,94.5,98.9C94.5,98.9,94.5,98.9,94.5,98.9z"/>
	<path class="st4" d="M104.5,66.6c-1.1,1.1-2.6,1.8-4.1,1.9c-0.6,0-1.3-0.1-1.9-0.4c-0.6-0.3-1.1-0.6-1.6-1c-0.5-0.4-1-0.9-1.5-1.4
		c-0.6-0.5-1.2-1.2-2.1-1.8c-0.1,0-0.2,0-0.2,0.1c0.2,1,0.6,1.9,1,2.8c0.5,0.9,1.1,1.7,1.8,2.3c0.7,0.6,1.6,1.1,2.5,1.3
		c0.9,0.3,1.9,0.3,2.9,0.2c1-0.1,2.1-0.4,3-1c1-0.5,1.8-1.2,2.5-2.1c0.7-0.9,1.3-2.1,1.6-3.3c0.1-0.4,0.2-0.7,0.2-1.1
		c0-0.4-0.1-0.7-0.5-1c-0.3-0.2-0.8-0.3-1.3-0.2c-0.5,0.1-0.9,0.3-0.8,0.5c0,0.8-0.1,1.6-0.4,2.4C105.4,65.3,105,66,104.5,66.6z"/>
	<path class="st4" d="M86.7,79.8c0.5-0.9,0.9-1.7,1.2-2.7c0.2-0.5,0.3-0.9,0.4-1.4c0.1-0.5,0.1-0.9,0.1-1.4c0-0.5-0.1-0.9-0.3-1.2
		c-0.1-0.2-0.2-0.4-0.4-0.5c0,0-0.1-0.1-0.1-0.1c0,0-0.1-0.1-0.1-0.1c-0.1-0.1-0.2-0.1-0.3-0.2c-0.4-0.2-0.7-0.4-1.1-0.3
		c-0.3,0.1-0.6,0.3-0.8,0.7c-0.2,0.4-0.4,0.8-0.6,1.2c-0.1,0.4-0.3,0.9-0.3,1.4c-0.1,0.6-0.2,1.1-0.2,1.7c0.1,0.3,0.1,0.5,0,0.7
		c0,0,0,0.1-0.1,0.1c0,0.1,0,0.2,0,0.4c0,0.1-0.1,0.1-0.2,0c0,0,0-0.1,0-0.1c0,0-0.1,0.1-0.1,0.1c-0.1,0-0.2,0.1-0.3,0.1
		c-0.1,0-0.2,0-0.3,0c0,0,0,0-0.1,0c-0.2-0.1-0.3-0.2-0.4-0.3c-0.4-0.4-0.7-0.9-1-1.4c-0.3-0.4-0.5-0.9-0.8-1.3
		c-0.1-0.1-0.1-0.2-0.2-0.2c-0.1-0.1-0.1-0.1-0.2-0.2c-0.3-0.3-0.5-0.6-0.8-0.9c-0.2-0.2-0.3-0.3-0.5-0.4c-0.2-0.1-0.3-0.2-0.4-0.2
		c-0.1,0-0.2,0-0.3,0c-0.1,0-0.2,0.1-0.3,0.2c-0.1,0.1-0.2,0.3-0.3,0.5c-0.1,0.2-0.2,0.4-0.2,0.7c0,0.1-0.1,0.2-0.1,0.4l0,0.2l0,0
		c0,0,0,0,0,0c0,0,0,0,0,0c0,0,0,0,0,0c0,0.1,0,0.3,0.1,0.5c0.1,0.4,0.3,0.9,0.6,1.3c0.3,0.6,0.6,1.1,1,1.7c0.1,0.1,0.1,0.2,0.2,0.3
		c0.2,0.2,0.3,0.5,0.5,0.7c0.5,0.7,1,1.3,1.5,1.9c0.2,0.2,0.3,0.4,0.5,0.6c0.3,0.4,0.7,0.8,1.1,1.2c0,0,0.1,0.1,0.1,0.1
		c0,0.3,0,0.5,0,0.8c0,0.4,0,0.9,0,1.4c0,1.3,0,2.5,0.1,3.8c0.1,2,0.2,4,0.2,6.1c0,2.2-0.1,4.4-0.3,6.6c-0.1,1.1-0.3,2.2-0.5,3.2
		c-0.2,1-0.5,2.1-0.9,3.1c-0.3,0.8-0.7,1.6-1.2,2.2c-0.2,0.3-0.5,0.6-0.8,0.9c-0.3,0.3-0.6,0.5-1,0.8c-0.7,0.4-1.5,0.8-2.3,0.9
		c-0.8,0.2-1.7,0.2-2.5,0c-1.7-0.3-3.2-1.2-4.4-2.5c-1.2-1.3-2-3-2.2-4.8c0-0.1,0-0.2-0.1-0.2c0-0.1-0.1-0.1-0.1-0.1
		c-0.1,0-0.2,0.1-0.2,0.2c-0.1,0.8,0,1.6,0.2,2.5c0.2,0.9,0.6,1.7,1.1,2.5c0.5,0.8,1.2,1.5,2,2.1c0.8,0.6,1.7,1.1,2.6,1.3
		c0.9,0.3,1.9,0.4,2.9,0.4c1-0.1,1.9-0.3,2.8-0.7c0.4-0.2,0.8-0.4,1.2-0.7c0.4-0.3,0.7-0.6,1.1-0.9c0.6-0.7,1.1-1.4,1.6-2.1
		c0.6-1,1-2.1,1.3-3.2c0.3-1.1,0.6-2.2,0.8-3.3c0.2-0.9,0.3-1.9,0.4-2.8c0,0.1,0,0.2,0,0.2c0.1,0.4,0.1,0.9,0.2,1.3L85,103l0.1,0.6
		c0.2,1.2,0.4,2.3,0.8,3.5c0.3,1.1,0.8,2.3,1.5,3.3c0.4,0.5,0.8,1,1.3,1.3c0.5,0.4,1,0.7,1.6,0.9c1.1,0.4,2.3,0.4,3.5,0.3
		c1.2-0.2,2.3-0.7,3.2-1.4c1-0.7,1.8-1.6,2.4-2.6c0.6-1,1.1-2.1,1.3-3.3c0.2-1.2,0.1-2.4-0.2-3.5c-0.1-0.4-0.4-0.6-0.6-0.6
		c-0.2,0-0.3,0.2-0.3,0.6c0.2,1.9-0.2,3.7-1.1,5.3c-0.5,0.8-1,1.5-1.7,2.2c-0.7,0.6-1.4,1.1-2.2,1.5c-0.2,0.1-0.4,0.2-0.7,0.2
		l-0.2,0l-0.1,0l-0.1,0c0,0,0,0,0,0l0,0l0,0c-0.1,0-0.2,0-0.4,0.1c-0.5,0.1-1,0.1-1.5,0c-1-0.1-1.8-0.4-2.5-1
		c-0.7-0.6-1.3-1.5-1.7-2.4c-0.4-1-0.7-2-1-3.1c-0.1-0.5-0.2-0.9-0.3-1.4l-0.2-1.4c-0.2-0.9-0.3-1.9-0.4-2.8
		c-0.2-1.9-0.4-3.7-0.5-5.6C85.1,91.8,85,89.9,85,88c0-0.7,0-1.4-0.1-2.1c0-0.6,0-1.2-0.1-1.9c0-0.3,0-0.6,0-0.9l0.5-0.8
		C85.8,81.5,86.3,80.6,86.7,79.8z"/>
</g>
</svg>
