<?xml version="1.0" encoding="utf-8"?>
<!-- Generator: Adobe Illustrator 21.0.0, SVG Export Plug-In . SVG Version: 6.00 Build 0)  -->
<svg version="1.1" id="Layer_1" xmlns="http://www.w3.org/2000/svg" xmlns:xlink="http://www.w3.org/1999/xlink" x="0px" y="0px"
	 viewBox="0 0 160 145" style="enable-background:new 0 0 160 145;" xml:space="preserve">
<style type="text/css">
	.st0{fill:#CB5990;}
	.st1{fill:#FFFFFF;}
	.st2{fill:#12B6BF;}
	.st3{fill:url(#SVGID_1_);}
	.st4{fill:#455BA8;}
	.st5{fill:#326EB6;}
	.st6{fill:#DD5968;}
	.st7{fill:#EF537A;}
	.st8{fill:url(#SVGID_2_);}
	.st9{fill:url(#SVGID_3_);}
	.st10{fill:url(#SVGID_4_);}
	.st11{fill:url(#SVGID_5_);}
	.st12{fill:#F16443;}
	.st13{fill:url(#SVGID_6_);}
	.st14{fill:#F68E3F;}
	.st15{fill:url(#SVGID_7_);}
	.st16{fill:url(#SVGID_8_);}
	.st17{fill:url(#SVGID_9_);}
	.st18{fill:url(#SVGID_10_);}
	.st19{fill:url(#SVGID_11_);}
	.st20{fill:url(#SVGID_12_);}
	.st21{fill:url(#SVGID_13_);}
	.st22{fill:url(#SVGID_14_);}
	.st23{fill:url(#SVGID_15_);}
	.st24{fill:url(#SVGID_16_);}
	.st25{fill:url(#SVGID_17_);}
	.st26{fill:#3DB66D;}
	.st27{fill:url(#SVGID_18_);}
	.st28{fill:url(#SVGID_19_);}
	.st29{fill:url(#SVGID_20_);}
	.st30{fill:url(#SVGID_21_);}
	.st31{fill:url(#SVGID_22_);}
	.st32{fill:url(#SVGID_23_);}
	.st33{fill:url(#SVGID_24_);}
	.st34{fill:url(#SVGID_25_);}
	.st35{fill:url(#SVGID_26_);}
	.st36{fill:url(#SVGID_27_);}
	.st37{fill:url(#SVGID_28_);}
	.st38{fill:url(#SVGID_29_);}
	.st39{fill:url(#SVGID_30_);}
	.st40{fill:url(#SVGID_31_);}
	.st41{fill:url(#SVGID_32_);}
	.st42{fill:url(#SVGID_33_);}
	.st43{fill:url(#SVGID_34_);}
	.st44{fill:url(#SVGID_35_);}
	.st45{fill:url(#SVGID_36_);}
	.st46{fill:url(#SVGID_37_);}
	.st47{fill:url(#SVGID_38_);}
	.st48{fill:url(#SVGID_39_);}
	.st49{fill:url(#SVGID_40_);}
	.st50{fill:url(#SVGID_41_);}
	.st51{fill:url(#SVGID_42_);}
	.st52{fill:url(#SVGID_43_);}
	.st53{fill:url(#SVGID_44_);}
	.st54{fill:url(#SVGID_45_);}
	.st55{fill:url(#SVGID_46_);}
	.st56{fill:url(#SVGID_47_);}
	.st57{fill:url(#SVGID_48_);}
	.st58{fill:url(#SVGID_49_);}
	.st59{fill:url(#SVGID_50_);}
	.st60{fill:url(#SVGID_51_);}
	.st61{fill:url(#SVGID_52_);}
	.st62{fill:url(#SVGID_53_);}
	.st63{fill:url(#SVGID_54_);}
	.st64{fill:url(#SVGID_55_);}
	.st65{fill:url(#SVGID_56_);}
	.st66{fill:url(#SVGID_57_);}
	.st67{fill:url(#SVGID_58_);}
	.st68{fill:url(#SVGID_59_);}
	.st69{fill:url(#SVGID_60_);}
	.st70{fill:url(#SVGID_61_);}
	.st71{fill:url(#SVGID_62_);}
	.st72{fill:url(#SVGID_63_);}
	.st73{fill:url(#SVGID_64_);}
	.st74{fill:url(#SVGID_65_);}
	.st75{fill:url(#SVGID_66_);}
	.st76{fill:url(#SVGID_67_);}
	.st77{fill:url(#SVGID_68_);}
	.st78{fill:url(#SVGID_69_);}
	.st79{fill:url(#SVGID_70_);}
	.st80{fill:url(#SVGID_71_);}
	.st81{fill:url(#SVGID_72_);}
	.st82{fill:url(#SVGID_73_);}
	.st83{fill:url(#SVGID_74_);}
	.st84{fill:url(#SVGID_75_);}
	.st85{fill:url(#SVGID_76_);}
	.st86{fill:url(#SVGID_77_);}
	.st87{fill:url(#SVGID_78_);}
	.st88{fill:url(#SVGID_79_);}
	.st89{fill:url(#SVGID_80_);}
	.st90{fill:url(#SVGID_81_);}
	.st91{fill:url(#SVGID_82_);}
	.st92{fill:url(#SVGID_83_);}
	.st93{fill:url(#SVGID_84_);}
	.st94{fill:url(#SVGID_85_);}
	.st95{fill:url(#SVGID_86_);}
	.st96{fill:url(#SVGID_87_);}
	.st97{fill:url(#SVGID_88_);}
	.st98{fill:url(#SVGID_89_);}
	.st99{fill:url(#SVGID_90_);}
	.st100{fill:url(#SVGID_91_);}
	.st101{fill:url(#SVGID_92_);}
	.st102{fill:url(#SVGID_93_);}
	.st103{fill:url(#SVGID_94_);}
	.st104{fill:url(#SVGID_95_);}
	.st105{fill:url(#SVGID_96_);}
	.st106{fill:url(#SVGID_97_);}
	.st107{fill:url(#SVGID_98_);}
	.st108{fill:url(#SVGID_99_);}
	.st109{fill:url(#SVGID_100_);}
	.st110{fill:url(#SVGID_101_);}
	.st111{fill:url(#SVGID_102_);}
	.st112{fill:url(#SVGID_103_);}
	.st113{fill:url(#SVGID_104_);}
	.st114{fill:url(#SVGID_105_);}
	.st115{fill:url(#SVGID_106_);}
	.st116{fill:url(#SVGID_107_);}
	.st117{fill:url(#SVGID_108_);}
	.st118{fill:url(#SVGID_109_);}
	.st119{fill:url(#SVGID_110_);}
	.st120{fill:url(#SVGID_111_);}
	.st121{fill:url(#SVGID_112_);}
	.st122{fill:url(#SVGID_113_);}
	.st123{fill:url(#SVGID_114_);}
	.st124{fill:url(#SVGID_115_);}
	.st125{fill:url(#SVGID_116_);}
	.st126{fill:url(#SVGID_117_);}
	.st127{fill:url(#SVGID_118_);}
	.st128{fill:url(#SVGID_119_);}
	.st129{fill:url(#SVGID_120_);}
	.st130{fill:url(#SVGID_121_);}
	.st131{fill:url(#SVGID_122_);}
	.st132{fill:url(#SVGID_123_);}
	.st133{fill:url(#SVGID_124_);}
	.st134{fill:url(#SVGID_125_);}
	.st135{fill:url(#SVGID_126_);}
	.st136{fill:url(#SVGID_127_);}
	.st137{fill:#184054;}
	.st138{fill:url(#SVGID_128_);}
	.st139{fill:url(#SVGID_129_);}
	.st140{fill:url(#SVGID_130_);}
	.st141{fill:url(#SVGID_131_);}
	.st142{fill:url(#SVGID_132_);}
	.st143{fill:url(#SVGID_133_);}
	.st144{fill:url(#SVGID_134_);}
	.st145{fill:url(#SVGID_135_);}
	.st146{fill:url(#SVGID_136_);}
	.st147{fill:url(#SVGID_137_);}
	.st148{fill:url(#SVGID_138_);}
	.st149{fill:url(#SVGID_139_);}
	.st150{fill:url(#SVGID_140_);}
	.st151{fill:url(#SVGID_141_);}
	.st152{fill:url(#SVGID_142_);}
	.st153{fill:url(#SVGID_143_);}
	.st154{fill:url(#SVGID_144_);}
	.st155{fill:url(#SVGID_145_);}
	.st156{fill:url(#SVGID_146_);}
	.st157{fill:url(#SVGID_147_);}
	.st158{fill:url(#SVGID_148_);}
	.st159{fill:url(#SVGID_149_);}
	.st160{fill:url(#SVGID_150_);}
	.st161{fill:url(#SVGID_151_);}
	.st162{fill:url(#SVGID_152_);}
	.st163{fill:url(#SVGID_153_);}
	.st164{fill:url(#SVGID_154_);}
	.st165{fill:url(#SVGID_155_);}
	.st166{fill:url(#SVGID_156_);}
	.st167{fill:url(#SVGID_157_);}
	.st168{fill:url(#SVGID_158_);}
	.st169{fill:url(#SVGID_159_);}
	.st170{fill:url(#SVGID_160_);}
	.st171{fill:url(#SVGID_161_);}
	.st172{fill:url(#SVGID_162_);}
	.st173{fill:url(#SVGID_163_);}
	.st174{fill:url(#SVGID_164_);}
	.st175{fill:url(#SVGID_165_);}
	.st176{fill:url(#SVGID_166_);}
	.st177{fill:url(#SVGID_167_);}
	.st178{fill:url(#SVGID_168_);}
	.st179{fill:url(#SVGID_169_);}
	.st180{fill:url(#SVGID_170_);}
	.st181{fill:url(#SVGID_171_);}
	.st182{fill:url(#SVGID_172_);}
	.st183{fill:url(#SVGID_173_);}
	.st184{fill:url(#SVGID_174_);}
	.st185{fill:url(#SVGID_175_);}
	.st186{fill:url(#SVGID_176_);}
	.st187{fill:url(#SVGID_177_);}
	.st188{fill:url(#SVGID_178_);}
	.st189{fill:url(#SVGID_179_);}
	.st190{fill:url(#SVGID_180_);}
	.st191{fill:url(#SVGID_181_);}
	.st192{fill:url(#SVGID_182_);}
	.st193{fill:url(#SVGID_183_);}
	.st194{fill:url(#SVGID_184_);}
	.st195{fill:url(#SVGID_185_);}
	.st196{fill:url(#SVGID_186_);}
	.st197{fill:url(#SVGID_187_);}
	.st198{fill:url(#SVGID_188_);}
	.st199{fill:url(#SVGID_189_);}
	.st200{fill:url(#SVGID_190_);}
	.st201{fill:url(#SVGID_191_);}
	.st202{fill:url(#SVGID_192_);}
	.st203{fill:url(#SVGID_193_);}
	.st204{fill:url(#SVGID_194_);}
	.st205{fill:url(#SVGID_195_);}
	.st206{fill:url(#SVGID_196_);}
	.st207{fill:url(#SVGID_197_);}
	.st208{fill:url(#SVGID_198_);}
	.st209{fill:url(#SVGID_199_);}
	.st210{fill:url(#SVGID_200_);}
	.st211{fill:url(#SVGID_201_);}
	.st212{fill:url(#SVGID_202_);}
	.st213{fill:url(#SVGID_203_);}
	.st214{fill:url(#SVGID_204_);}
	.st215{fill:url(#SVGID_205_);}
	.st216{fill:url(#SVGID_206_);}
	.st217{fill:url(#SVGID_207_);}
	.st218{fill:url(#SVGID_208_);}
	.st219{fill:#969697;}
	.st220{fill:url(#SVGID_209_);}
	.st221{fill:url(#SVGID_210_);}
	.st222{fill:url(#SVGID_211_);}
	.st223{fill:url(#SVGID_212_);}
	.st224{fill:url(#SVGID_213_);}
	.st225{fill:url(#SVGID_214_);}
	.st226{fill:url(#SVGID_215_);}
	.st227{fill:url(#SVGID_216_);}
	.st228{fill:url(#SVGID_217_);}
	.st229{fill:url(#SVGID_218_);}
	.st230{fill:url(#SVGID_219_);}
	.st231{fill:url(#SVGID_220_);}
	.st232{fill:url(#SVGID_221_);}
	.st233{fill:url(#SVGID_222_);}
	.st234{fill:url(#SVGID_223_);}
	.st235{fill:url(#SVGID_224_);}
	.st236{fill:url(#SVGID_225_);}
	.st237{fill:url(#SVGID_226_);}
	.st238{fill:url(#SVGID_227_);}
	.st239{fill:url(#SVGID_228_);}
	.st240{fill:url(#SVGID_229_);}
	.st241{fill:url(#SVGID_230_);}
	.st242{fill:url(#SVGID_231_);}
	.st243{fill:url(#SVGID_232_);}
	.st244{fill:url(#SVGID_233_);}
	.st245{fill:url(#SVGID_234_);}
	.st246{fill:url(#SVGID_235_);}
	.st247{fill:url(#SVGID_236_);}
	.st248{fill:url(#SVGID_237_);}
	.st249{fill:url(#SVGID_238_);}
	.st250{fill:url(#SVGID_239_);}
	.st251{fill:url(#SVGID_240_);}
	.st252{fill:url(#SVGID_241_);}
	.st253{fill:url(#SVGID_242_);}
	.st254{fill:url(#SVGID_243_);}
	.st255{fill:url(#SVGID_244_);}
	.st256{fill:url(#SVGID_245_);}
	.st257{fill:url(#SVGID_246_);}
	.st258{fill:url(#SVGID_247_);}
	.st259{fill:url(#SVGID_248_);}
	.st260{fill:url(#SVGID_249_);}
	.st261{fill:url(#SVGID_250_);}
	.st262{fill:url(#SVGID_251_);}
	.st263{fill:url(#SVGID_252_);}
	.st264{fill:url(#SVGID_253_);}
	.st265{fill:url(#SVGID_254_);}
	.st266{fill:url(#SVGID_255_);}
	.st267{fill:url(#SVGID_256_);}
	.st268{fill:url(#SVGID_257_);}
	.st269{fill:url(#SVGID_258_);}
	.st270{fill:url(#SVGID_259_);}
	.st271{fill:url(#SVGID_260_);}
	.st272{fill:url(#SVGID_261_);}
	.st273{fill:url(#SVGID_262_);}
	.st274{fill:url(#SVGID_263_);}
	.st275{fill:url(#SVGID_264_);}
	.st276{fill:url(#SVGID_265_);}
	.st277{fill:url(#SVGID_266_);}
	.st278{fill:url(#SVGID_267_);}
	.st279{fill:#F69474;}
	.st280{fill:#F27350;}
	.st281{fill:url(#SVGID_268_);}
	.st282{fill:url(#SVGID_269_);}
	.st283{fill:url(#SVGID_270_);}
	.st284{fill:url(#SVGID_271_);}
	.st285{fill:url(#SVGID_272_);}
	.st286{fill:url(#SVGID_273_);}
	.st287{fill:url(#SVGID_274_);}
	.st288{fill:url(#SVGID_275_);}
	.st289{fill:url(#SVGID_276_);}
	.st290{fill:url(#SVGID_277_);}
	.st291{fill:url(#SVGID_278_);}
	.st292{fill:url(#SVGID_279_);}
	.st293{fill:url(#SVGID_280_);}
	.st294{fill:url(#SVGID_281_);}
	.st295{fill:url(#SVGID_282_);}
	.st296{fill:url(#SVGID_283_);}
	.st297{fill:url(#SVGID_284_);}
	.st298{fill:url(#SVGID_285_);}
	.st299{fill:url(#SVGID_286_);}
	.st300{fill:url(#SVGID_287_);}
	.st301{fill:url(#SVGID_288_);}
	.st302{fill:url(#SVGID_289_);}
	.st303{fill:url(#SVGID_290_);}
	.st304{fill:url(#SVGID_291_);}
	.st305{fill:url(#SVGID_292_);}
	.st306{fill:url(#SVGID_293_);}
</style>
<g>
	<linearGradient id="SVGID_1_" gradientUnits="userSpaceOnUse" x1="32.9654" y1="72.5" x2="127.0346" y2="72.5">
		<stop  offset="0" style="stop-color:#EF537A"/>
		<stop  offset="1" style="stop-color:#4A3D97"/>
	</linearGradient>
	<path class="st3" d="M127,39.9c0-3-0.1-6-0.2-9.1c0-0.8-0.1-1.5-0.2-2.3c0-0.4-0.1-0.8-0.1-1.2l-0.1-0.6l-0.1-0.6
		c-0.1-1.5-0.2-3.1-0.4-4.6c-0.2-1.5-0.4-3.1-0.7-4.7c-0.1-0.8-0.3-1.6-0.5-2.3c-0.2-0.8-0.5-1.6-0.9-2.4c-0.2-0.4-0.5-0.8-0.9-1.3
		c-0.2-0.2-0.5-0.4-0.9-0.6c-0.2-0.1-0.4-0.2-0.6-0.2c-0.2,0-0.5-0.1-0.7,0c-0.2,0-0.4,0.1-0.6,0.1c-0.1,0-0.2,0.1-0.3,0.1l0,0l0,0
		c-0.1,0-0.1,0.1-0.2,0.1c-0.2,0.1-0.3,0.2-0.4,0.3c-0.1,0.1-0.2,0.2-0.3,0.2c-0.4,0.3-0.7,0.6-1,1c-0.6,0.6-1.1,1.3-1.6,1.9
		c-0.5,0.7-1,1.3-1.5,2c-2,2.7-3.7,5.4-5.4,8.2c-1.7,2.8-3.2,5.7-4.6,8.6c-1.4,2.9-2.7,5.9-3.8,9c-1,2.7-1.8,5.4-2.5,8.2
		c-1.2-0.2-2.5-0.4-3.8-0.5c-1.5-0.2-3-0.3-4.4-0.3c-0.1-0.2-0.2-0.4-0.2-0.6c-0.1-0.4-0.2-0.9-0.3-1.4c-0.1-1,0-2,0.2-3
		c0.4-2,1.1-4,2.1-6v0c0.3-0.6,0-1.3-0.7-1.6c-0.5-0.2-1.1-0.1-1.5,0.2c-1,0.8-1.8,1.7-2.6,2.6c-0.8,0.9-1.4,1.9-2.1,2.9
		c-0.3,0.5-0.6,1.1-0.9,1.6c0-0.7,0.1-1.3,0.1-2c0.2-2.3,0.7-4.5,1.4-6.7l0,0c0.2-0.6-0.2-1.2-0.9-1.4c-0.4-0.1-0.9,0-1.2,0.2
		c-1.3,0.9-2.2,2-3.1,3.2c-0.8,1.1-1.5,2.3-2,3.6c-0.5,1-0.9,2.1-1.3,3.1c0-0.7,0-1.3,0-2c0.1-2.1,0.6-4.1,1.3-6.1l0,0
		c0.2-0.5-0.1-1-0.7-1.2c-0.4-0.1-0.8,0-1.1,0.2c-1.2,1.1-2.4,2.3-3.4,3.6c-1,1.3-1.9,2.6-2.6,4c-0.7,1.4-1.3,2.9-1.7,4.3
		c-0.4,1.3-0.6,2.7-0.8,4c-0.6,0.2-1.2,0.3-1.8,0.5c-0.5,0.1-1,0.3-1.5,0.4c-0.3-1.6-0.8-3.3-1.4-4.8c-0.6-1.8-1.4-3.6-2.3-5.3
		c-1.7-3.4-3.6-6.7-5.5-10c-0.2-0.4-0.5-0.8-0.7-1.2c-0.2-0.4-0.5-0.8-0.7-1.2c-0.5-0.8-1-1.6-1.6-2.4c-1.1-1.5-2.2-3.1-3.4-4.5
		c-1.2-1.5-2.4-2.9-3.8-4.2c-0.7-0.6-1.4-1.3-2.2-1.8c-0.4-0.2-0.8-0.5-1.2-0.6c-0.2-0.1-0.4-0.1-0.5,0c-0.1,0-0.2,0.1-0.4,0.2
		c-0.1,0.1-0.2,0.3-0.2,0.3c0,0.1,0,0.1,0.1,0c0,0,0.1-0.1,0.2-0.2c0,0,0.1-0.1,0.1-0.1c0,0,0.1,0,0.1,0c0.1,0,0.2,0,0.4,0
		c0.2,0,0.4,0.1,0.5,0.2c-0.1,0-0.2-0.1-0.2-0.1c-0.5,0.3-1,0.5-1.5,0.7c-0.1,0-0.3,0.1-0.4,0.1c0,0,0-0.1,0-0.1
		c0.2-0.8,0-0.9-0.5-0.4c-0.5,0.5-1.3,1.6-2.1,3.3c-0.8,1.7-1.7,3.9-2.4,6.7c-1.3,5.1-2,10.2-2.4,15.4C33,46.7,32.9,51.9,33,57
		l0.1,3.8l0,1l0,1c0,0.6,0,1.3,0,1.9c0.1,2.6,0.3,5.2,0.6,7.7c0.6,5.1,1.3,10.2,2.3,15.3c0.9,5.1,2,10.1,3.2,15.2l0.1,0.5l0.1,0.2
		l0.1,0.2l0.3,0.9l0.5,1.9c0.4,1.2,0.7,2.5,1.1,3.7c0.8,2.5,1.7,5,2.8,7.4s2.5,4.8,4.3,7c0.9,1.1,2,2.1,3.2,3
		c1.2,0.9,2.4,1.7,3.8,2.3c2.7,1.3,5.5,2.2,8.4,2.9c1.4,0.3,2.9,0.6,4.4,0.9c1.5,0.3,2.9,0.5,4.4,0.6c5.9,0.7,12,0.5,17.9-0.5
		c2.9-0.5,5.9-1.2,8.7-2.1c2.8-0.9,5.5-2.1,8.1-3.5c2.6-1.4,4.9-3.1,7.1-5c1.1-0.9,2.1-2,3-3l0.2-0.2l0.2-0.2
		c0.1-0.1,0.2-0.3,0.3-0.5c0.2-0.3,0.4-0.6,0.6-0.9c0.4-0.6,0.6-1.2,0.9-1.9c0.5-1.3,0.9-2.5,1.3-3.8c0.4-1.3,0.7-2.5,1-3.8
		c0.6-2.5,1-5.1,1.4-7.6c0.8-5.1,1.4-10.2,1.9-15.3c0.5-5.1,0.8-10.3,1.1-15.4c0.3-5.1,0.5-10.3,0.7-15.4
		C127,50.2,127.1,45.1,127,39.9z"/>
	<linearGradient id="SVGID_2_" gradientUnits="userSpaceOnUse" x1="33.0011" y1="72.5" x2="124.9989" y2="72.5">
		<stop  offset="0" style="stop-color:#2B6BB4"/>
		<stop  offset="1" style="stop-color:#6F8EC8"/>
	</linearGradient>
	<path class="st8" d="M125,40.7c0-2.9-0.1-5.9-0.2-8.9c0-0.7-0.1-1.5-0.1-2.3c0-0.4-0.1-0.8-0.1-1.1l-0.1-0.5l0-0.5
		c-0.1-1.5-0.2-3-0.4-4.5c-0.2-1.5-0.4-3-0.6-4.6c-0.1-0.8-0.3-1.5-0.5-2.3c-0.2-0.8-0.5-1.5-0.9-2.3c-0.2-0.4-0.4-0.8-0.9-1.2
		c-0.2-0.2-0.5-0.4-0.8-0.6c-0.2-0.1-0.4-0.2-0.6-0.2c-0.2,0-0.5-0.1-0.7,0c-0.2,0-0.4,0.1-0.6,0.1c-0.1,0-0.2,0.1-0.3,0.1l0,0l0,0
		c-0.1,0-0.1,0.1-0.2,0.1c-0.2,0.1-0.3,0.2-0.4,0.3c-0.1,0.1-0.2,0.2-0.3,0.2c-0.4,0.3-0.7,0.6-0.9,0.9c-0.6,0.6-1.1,1.3-1.6,1.9
		c-0.5,0.6-1,1.3-1.5,1.9c-1.9,2.6-3.7,5.3-5.3,8c-1.6,2.7-3.2,5.6-4.5,8.4c-1.4,2.9-2.6,5.8-3.7,8.8c-1,2.6-1.8,5.3-2.4,8
		c-1.2-0.2-2.4-0.4-3.7-0.5c-1.4-0.2-2.9-0.2-4.3-0.3c-0.1-0.2-0.2-0.4-0.2-0.6c-0.1-0.4-0.2-0.9-0.3-1.4c-0.1-1,0-1.9,0.2-2.9
		c0.4-2,1.1-3.9,2.1-5.8v0c0.3-0.6,0-1.3-0.7-1.5c-0.5-0.2-1.1-0.1-1.4,0.2c-1,0.8-1.8,1.6-2.6,2.5c-0.8,0.9-1.4,1.8-2,2.8
		c-0.3,0.5-0.6,1-0.9,1.6c0-0.7,0.1-1.3,0.1-2c0.2-2.2,0.6-4.4,1.4-6.5l0,0c0.2-0.6-0.2-1.2-0.8-1.4c-0.4-0.1-0.8,0-1.2,0.2
		c-1.2,0.9-2.2,2-3,3.1c-0.8,1.1-1.4,2.3-2,3.5c-0.5,1-0.9,2-1.3,3.1c0-0.6,0-1.3,0-1.9c0.1-2,0.6-4,1.3-6l0,0
		c0.2-0.5-0.1-1-0.7-1.1c-0.4-0.1-0.8,0-1,0.2c-1.2,1.1-2.3,2.2-3.3,3.5c-1,1.2-1.8,2.6-2.5,4c-0.7,1.4-1.2,2.8-1.6,4.2
		c-0.4,1.3-0.6,2.6-0.8,3.9c-0.6,0.2-1.2,0.3-1.8,0.5c-0.5,0.1-1,0.3-1.5,0.4c-0.3-1.6-0.8-3.2-1.3-4.7c-0.6-1.8-1.4-3.5-2.2-5.2
		c-1.6-3.4-3.6-6.6-5.4-9.8c-0.2-0.4-0.4-0.8-0.7-1.2c-0.2-0.4-0.5-0.8-0.7-1.2c-0.5-0.8-1-1.5-1.5-2.3c-1.1-1.5-2.2-3-3.3-4.4
		c-1.2-1.4-2.4-2.8-3.7-4.1c-0.7-0.6-1.4-1.2-2.1-1.7c-0.4-0.2-0.8-0.4-1.2-0.5c-0.2,0-0.4-0.1-0.5,0c-0.1,0-0.2,0.1-0.3,0.2
		c-0.1,0.1-0.2,0.3-0.2,0.3c0,0.1,0,0.1,0.1,0c0,0,0.1-0.1,0.2-0.2c0,0,0.1-0.1,0.1-0.1c0,0,0.1,0,0.1,0c0.1,0,0.2,0,0.4,0
		c0.2,0,0.4,0.1,0.5,0.2c-0.1,0-0.1-0.1-0.2-0.1c-0.4,0.3-0.9,0.5-1.4,0.6c-0.1,0-0.2,0.1-0.4,0.1c0,0,0-0.1,0-0.1
		c0.2-0.8,0-0.9-0.5-0.4C39.7,18,39,19,38.1,20.7c-0.8,1.6-1.7,3.9-2.4,6.5c-1.3,5-1.9,10-2.3,15c-0.4,5-0.5,10.1-0.4,15.1l0.1,3.8
		l0,0.9l0,0.9c0,0.6,0,1.3,0,1.9c0.1,2.5,0.3,5,0.6,7.6c0.5,5,1.3,10,2.2,15c0.9,5,1.9,9.9,3.1,14.8l0.1,0.5l0.1,0.2l0.1,0.2
		l0.3,0.9l0.5,1.8c0.4,1.2,0.7,2.4,1.1,3.7c0.8,2.4,1.6,4.9,2.7,7.2c1.1,2.4,2.4,4.7,4.2,6.8c0.9,1,1.9,2,3.1,2.9
		c1.1,0.9,2.4,1.6,3.7,2.3c2.6,1.3,5.4,2.2,8.2,2.8c1.4,0.3,2.8,0.6,4.3,0.9c1.4,0.3,2.9,0.5,4.3,0.6c5.8,0.6,11.7,0.5,17.5-0.5
		c2.9-0.5,5.7-1.2,8.5-2.1c2.7-0.9,5.4-2,7.9-3.4c2.5-1.4,4.8-3,6.9-4.8c1-0.9,2-1.9,2.9-3l0.2-0.2l0.2-0.2c0.1-0.1,0.2-0.3,0.3-0.4
		c0.2-0.3,0.4-0.6,0.6-0.9c0.3-0.6,0.6-1.2,0.9-1.8c0.5-1.2,0.9-2.5,1.3-3.7c0.4-1.2,0.7-2.5,0.9-3.7c0.6-2.5,1-5,1.4-7.5
		c0.8-5,1.3-10,1.8-15c0.5-5,0.8-10,1.1-15c0.3-5,0.5-10,0.6-15.1C124.9,50.7,125,45.7,125,40.7z"/>
	<path d="M41.8,36.7c-0.2,1.1-0.3,2.3-0.4,3.4L41.2,41l0,0.2l0,0.1l0,0.1l-0.1,0.4C41,42.4,41,43,40.9,43.6
		c-0.3,2.3-0.4,4.6-0.4,6.8c0,2.2,0.2,4.3,0.7,6.5c0.4-0.4,0.7-0.8,0.9-1.3c0,0,0-0.1,0.1-0.1c-0.1-0.7-0.2-1.4-0.2-2
		c-0.1-1.3-0.1-2.5-0.1-3.7c0-1.2,0.1-2.5,0.1-3.7l0-0.9l0-0.5l0-0.2l0-0.3l0.1-1.8c0.1-2.1,0.3-4.1,0.4-6.2
		c-0.2-0.6-0.4-1.4-0.4-2.3C42.1,34.8,41.9,35.7,41.8,36.7z"/>
	<path d="M112.3,36.5c0.2-0.6,0.5-1.2,0.7-1.9c-0.1,0.3-0.2,0.6-0.4,0.8C112.5,35.8,112.4,36.2,112.3,36.5z"/>
	<path d="M47.8,38.8c-0.1-0.3-0.2-0.6-0.3-0.8c0.2,0.6,0.3,1.3,0.5,1.9C47.9,39.5,47.9,39.1,47.8,38.8z"/>
	<path d="M119.1,38.9l0-0.4l0-0.1l0-0.1l0-0.2l0-0.9c0-1.1-0.1-2.3-0.2-3.4c-0.1-1-0.1-2-0.2-2.9c-0.1,0.9-0.3,1.7-0.6,2.3
		c0,2.1,0,4.1,0,6.2l0,1.8l0,0.3l0,0.2l0,0.5l0,0.9c0,1.2-0.1,2.4-0.2,3.7c-0.1,1.2-0.2,2.5-0.4,3.7c-0.1,0.7-0.2,1.3-0.4,2
		c0,0,0,0.1,0.1,0.1c0.2,0.5,0.5,0.9,0.8,1.4c0.7-2.1,1-4.2,1.2-6.4c0.2-2.3,0.2-4.6,0.1-6.8C119.1,40.1,119.1,39.5,119.1,38.9z"/>
	<path d="M116,37.7c0,0.6,0,1.3-0.1,1.9c-0.1,2.5-0.2,5,0,7.5c0,0.6,0.1,1.1,0.2,1.7c0.1-0.7,0.1-1.4,0.2-2.2
		c0.1-1.2,0.1-2.4,0.1-3.7l0-0.9l0-0.5l0-0.2v-0.2l0-1.8c0-1.3,0-2.5,0-3.8c-0.1,0.6-0.3,1.2-0.4,1.8C116,37.4,116,37.5,116,37.7z"
		/>
	<path d="M43.7,42.3l-0.1,1.8l0,0.2l0,0.2l0,0.5l0,0.9c-0.1,1.2-0.1,2.4-0.1,3.7c0,0.7,0,1.4,0,2.2c0.1-0.6,0.2-1.1,0.3-1.7
		c0.4-2.5,0.4-5,0.5-7.5c0-0.6,0-1.3,0.1-1.9c0-0.1,0-0.3,0-0.4c-0.1-0.6-0.2-1.2-0.3-1.8C43.9,39.8,43.8,41.1,43.7,42.3z"/>
	<path d="M40,20.1C40,20.1,40,20.2,40,20.1c0,0.1,0,0.1-0.1,0.2C40,20.2,40,20.2,40,20.1z"/>
	<linearGradient id="SVGID_3_" gradientUnits="userSpaceOnUse" x1="39.2333" y1="42.2207" x2="56.5939" y2="42.2207">
		<stop  offset="0" style="stop-color:#F16870"/>
		<stop  offset="1" style="stop-color:#F49086"/>
	</linearGradient>
	<path class="st9" d="M45.7,53.8c-0.3,1.2-0.6,2.3-1.1,3.5c-0.1,0.3-0.4,0.5-0.8,0.6c-0.5,0.1-1.1-0.2-1.2-0.6
		c-0.2,0.2-0.4,0.4-0.6,0.6l0,0c-0.2,0.2-0.4,0.3-0.6,0.3c-0.6,0.1-1.3-0.2-1.4-0.8c-0.6-2.6-0.8-5.2-0.7-7.8c0.1-2.5,0.3-5,0.7-7.4
		l0.2-0.9l0-0.1l0,0c0,0,0,0,0,0l0,0l0,0l0-0.1l0-0.2l0.1-0.4l0.3-1.8c0.2-1.2,0.4-2.3,0.6-3.5c0.2-1.1,0.5-2.3,0.7-3.4
		c0.2-0.9,0.5-1.9,0.8-2.8c0.2-0.9,0.4-1.8,0.7-2.6c0,0,0.1-0.1,0.1-0.1l0,0c0.2-0.1,0.4-0.1,0.7-0.1c0.2,0,0.5,0,0.7,0.1
		c0.4,0.1,0.7,0.4,1,0.6c0.6,0.5,1,1.1,1.4,1.7c0.8,1.2,1.5,2.4,2.1,3.7c0.6,1.3,1.2,2.5,1.8,3.8l0.9,1.9c0.3,0.6,0.6,1.3,0.8,1.9
		c0.5,1.3,1,2.6,1.4,3.9c0.4,1.3,0.8,2.7,1.2,4c0.3,1.3,0.6,2.7,0.9,4.1c0.1,0.7,0.2,1.4,0.2,2.1c0,0.2,0,0.4,0,0.6
		c0,0.2-0.1,0.4-0.2,0.6c0,0.1-0.1,0.1-0.2,0.2c-0.1,0.1-0.2,0.1-0.3,0.2c-0.1,0-0.3,0-0.4,0c-0.1,0-0.2,0-0.3-0.1
		c-0.1-0.1-0.2-0.1-0.3-0.2c-0.1-0.1-0.2-0.1-0.2-0.2c0,0-0.1-0.1-0.1-0.1l0,0c-0.4-1.1-0.9-2.1-1.3-3.1l-1.4-3.1
		c0.2,1.1,0.5,2.1,0.6,3.2c0.1,1.1,0.1,2.3,0,3.4v0c0,0,0,0.1,0,0.1c0,0.1-0.1,0.2-0.2,0.3C52.1,55.9,52.1,56,52,56
		c-0.1,0.1-0.3,0.1-0.4,0.1c-0.2,0-0.3-0.1-0.4-0.1C51.1,56,51,56,51,55.9c-0.1-0.1-0.2-0.2-0.2-0.2c-0.2-0.3-0.3-0.6-0.4-0.8
		c-0.2-0.5-0.4-1.1-0.5-1.6c-0.3-0.9-0.5-1.8-0.7-2.7c0,0,0,0.1,0,0.1c0,2.2-0.2,4.5-0.9,6.7c-0.1,0.2-0.2,0.3-0.4,0.4l0,0
		c-0.1,0-0.3,0-0.4,0c-0.1,0-0.3-0.1-0.4-0.1c-0.2-0.1-0.3-0.2-0.4-0.3c-0.2-0.2-0.2-0.4-0.3-0.6c-0.1-0.4-0.2-0.7-0.3-1.1
		c-0.2-0.7-0.3-1.3-0.4-2C45.7,53.7,45.7,53.8,45.7,53.8z"/>
	<linearGradient id="SVGID_4_" gradientUnits="userSpaceOnUse" x1="46.0322" y1="75.534" x2="73.2356" y2="75.534">
		<stop  offset="0" style="stop-color:#F05B42"/>
		<stop  offset="1" style="stop-color:#F9A54F"/>
	</linearGradient>
	<path class="st10" d="M48.2,76.9c-0.9-1.2-1.6-2.5-2-3.9c-0.2-0.6,0-0.9,0.3-0.9c0.3,0,0.7,0.2,1,0.6c0.1,0.1,0.2,0.3,0.3,0.4
		c0,0,0-0.1,0-0.1c0-0.3,0-0.6,0.1-0.8c0.1-0.2,0.3-0.3,0.4-0.2c0.2,0.1,0.3,0.2,0.3,0.4c0,0.3,0.1,0.5,0.2,0.8
		c0.1,0.3,0.2,0.5,0.4,0.8c0.3,0.5,0.7,1,1.1,1.5c0.8,1,1.7,1.9,2.7,2.6c0.5,0.4,1.1,0.7,1.6,1c0.1,0,0.1,0.1,0.2,0.1l0.2,0.1
		c0.1,0,0.2,0.1,0.2,0.1c0.5,0.2,1,0.3,1.5,0.4c1.3,0.3,2.7,0.3,4.1,0c1.3-0.2,2.6-0.7,3.8-1.4c1.2-0.7,2.2-1.5,3.1-2.4
		c1.5-1.6,2.6-3.5,3.3-5.5c0-0.2-0.1-0.4-0.2-0.6l0.4,0c0-0.1,0.1-0.3,0.1-0.4c0.1-0.2,0.3-0.5,0.6-0.5c0.4-0.1,0.8,0.1,0.9,0.5l0,0
		c0,0.1,0.1,0.3,0.1,0.4l0.4,0c-0.1,0.3-0.1,0.6-0.2,0.8c0,0.4,0.1,0.8,0,1.2c0,0.8-0.2,1.7-0.5,2.5c-0.4,1.1-1.1,2.2-2,3.1
		c-0.9,1-2,1.8-3.2,2.5c-1.2,0.7-2.6,1.2-4.1,1.6c-1,0.2-2,0.4-3,0.4c-0.3,0-0.7,0.1-1,0.1c-0.9,0-1.8,0-2.7-0.2
		c-1.8-0.3-3.5-1-4.9-1.9C50.2,79.2,49.1,78.1,48.2,76.9z"/>
	<path class="st7" d="M59.7,93.8c0,1.2-0.1,2.5-0.3,3.7c0,0.3-0.1,0.6-0.1,1c-0.2-1.5-0.2-3.1-0.3-4.7
		C59.2,93.8,59.4,93.8,59.7,93.8z"/>
	<path class="st7" d="M51.9,103.5c-0.6-0.7-1.2-1.5-1.5-2.4c-0.1-0.5-0.2-1-0.2-1.5c0-0.5,0.2-1,0.4-1.5c0.2-0.5,0.6-0.9,0.9-1.3
		c0.1-0.1,0.3-0.3,0.4-0.4c0,0.5,0.1,1,0.1,1.5c0.2,1.7,0.4,3.4,0.8,5.2c0.1,0.6,0.3,1.2,0.5,1.8C52.9,104.4,52.4,104,51.9,103.5z"
		/>
	<path class="st7" d="M56.7,106.5c-0.7-0.2-1.3-0.5-1.9-0.8c0,0,0,0,0,0c-0.3-0.8-0.6-1.5-0.8-2.3c-0.4-1.6-0.7-3.2-0.9-4.8
		c-0.1-0.9-0.2-1.8-0.3-2.8c0,0,0,0,0.1,0c0.2-0.1,0.5-0.3,0.7-0.4c0.2-0.1,0.5-0.3,0.7-0.3c0.5-0.2,1-0.4,1.5-0.6
		c0.7-0.2,1.5-0.4,2.2-0.5c0,0.4,0,0.8,0,1.2c0.1,1.6,0.2,3.3,0.4,4.9c0.1,0.6,0.1,1.1,0.2,1.6c-0.1,0.4-0.2,0.8-0.3,1.1
		c-0.3,0.9-0.6,1.7-0.9,2.5C57.1,105.7,56.9,106.1,56.7,106.5z"/>
	<path class="st7" d="M59.4,107.1c-0.6-0.1-1.1-0.2-1.7-0.3c0.2-0.4,0.4-0.8,0.6-1.3c0.3-0.6,0.5-1.2,0.7-1.8
		c0.1,0.4,0.2,0.7,0.3,1.1c0.3,0.8,0.5,1.6,1,2.3C60,107.1,59.7,107.1,59.4,107.1z"/>
	<path class="st7" d="M64.1,105c-0.2,0.6-0.4,1.1-0.6,1.6c-0.1,0.2-0.2,0.3-0.3,0.5c-0.5,0-0.9,0.1-1.4,0.1
		c-0.1-0.1-0.2-0.1-0.2-0.2c-0.3-0.4-0.6-0.9-0.8-1.4c-0.2-0.5-0.4-1.1-0.5-1.7c-0.2-0.7-0.4-1.5-0.5-2.2c0.3-1.4,0.6-2.8,0.7-4.2
		c0.1-1.2,0.2-2.3,0.2-3.5c0.4,0,0.7,0.1,1.1,0.2c0.7,0.1,1.5,0.3,2.1,0.6c0.1,1.3,0.2,2.6,0.4,3.9c0.1,0.9,0.3,1.8,0.5,2.6
		c-0.1,0.7-0.2,1.4-0.3,2.1C64.3,103.9,64.2,104.5,64.1,105z"/>
	<path class="st7" d="M65.1,106.8c-0.2,0-0.4,0.1-0.6,0.1c0.1-0.2,0.2-0.5,0.3-0.7c0.3-0.7,0.5-1.5,0.6-2.3c0.2,0.5,0.4,1,0.7,1.5
		c0.2,0.3,0.4,0.6,0.6,0.9C66.2,106.5,65.6,106.6,65.1,106.8z"/>
	<path class="st7" d="M67.5,106c-0.1-0.2-0.3-0.4-0.4-0.6c-0.4-0.7-0.6-1.4-0.8-2.1c-0.2-0.6-0.3-1.2-0.4-1.7
		c0.1-0.9,0.2-1.8,0.2-2.8c0-1.1,0-2.2,0-3.2c0.8,0.4,1.6,0.9,2.3,1.4c1,0.7,1.9,1.5,2.5,2.5c0.3,0.5,0.5,1.1,0.6,1.7
		c0,0.3,0,0.6,0,0.9c0,0.3-0.1,0.6-0.2,0.8c-0.2,0.6-0.6,1.1-1,1.5c-0.4,0.4-0.9,0.8-1.5,1.1C68.3,105.7,67.9,105.9,67.5,106z"/>
	<linearGradient id="SVGID_5_" gradientUnits="userSpaceOnUse" x1="68.6523" y1="97.3764" x2="101.7614" y2="97.3764">
		<stop  offset="0" style="stop-color:#F9A54F"/>
		<stop  offset="1" style="stop-color:#27B470"/>
	</linearGradient>
	<path class="st11" d="M101.7,115.7c-0.5,0.8-1.2,1.6-1.9,2.3c-0.8,0.7-1.6,1.2-2.6,1.6c-0.9,0.4-2,0.6-3,0.7c-1,0.1-2.1,0-3.1-0.3
		c-1-0.3-1.9-0.8-2.7-1.4c-0.8-0.6-1.5-1.4-1.9-2.3c-0.2-0.4-0.5-0.9-0.6-1.3c-0.2-0.5-0.3-0.9-0.4-1.4c0,0,0-0.1,0-0.1
		c0,0.4-0.1,0.9-0.1,1.3c-0.1,0.4-0.1,0.9-0.3,1.3c-0.1,0.4-0.3,0.9-0.5,1.3c-0.4,0.9-1,1.7-1.7,2.5c-0.8,0.7-1.7,1.4-2.8,1.8
		c-1.1,0.4-2.2,0.7-3.3,0.8c-1.1,0.1-2.2,0-3.3-0.3c-1-0.3-2-0.7-2.7-1.2c-0.8-0.5-1.4-1.2-1.8-1.9c-0.1-0.2,0-0.3,0.1-0.3
		c0.1,0,0.1,0,0.2,0c0.1,0,0.1,0.1,0.2,0.1c0.6,0.6,1.5,1.2,2.4,1.5c0.9,0.4,1.9,0.6,2.9,0.7c1,0.1,2,0.1,2.9-0.1
		c1-0.2,1.9-0.5,2.7-1c0.8-0.5,1.5-1.1,2-1.8c0.5-0.7,0.9-1.5,1.2-2.3c0-0.1,0.1-0.2,0.1-0.3c0-0.1,0-0.1,0-0.1l0-0.1
		c0-0.2,0.1-0.4,0.1-0.6c0.1-0.4,0.1-0.8,0.2-1.3c0.1-0.9,0.1-1.7,0.1-2.6c0-1.8,0-3.6-0.1-5.5c0-0.4-0.1-0.8-0.1-1.3
		c-0.2-2.2-0.4-4.4-0.6-6.7c-0.2-2.7-0.4-5.4-0.3-8.1c0-1,0-2.1,0.1-3.1c-1.7-1.1-3.1-2.6-4.1-4.3c-1-1.7-1.4-3.7-1.4-5.6
		c0-0.1,0-0.2,0-0.4l0-0.2l0-0.2c0-0.2,0-0.5,0.1-0.7c0-0.2,0.1-0.5,0.2-0.7c0.1-0.2,0.2-0.5,0.4-0.7c0.1-0.1,0.2-0.2,0.4-0.3
		c0.1-0.1,0.3-0.2,0.5-0.2c0.2,0,0.4,0,0.6,0c0.2,0,0.3,0.1,0.5,0.2c0.3,0.1,0.5,0.3,0.7,0.5c0.2,0.2,0.4,0.4,0.6,0.6
		c0.7,0.8,1.2,1.6,1.6,2.5c0.1,0.2,0.2,0.5,0.3,0.7c0.1-0.3,0.2-0.7,0.3-1c0.3-0.7,0.6-1.5,1.1-2.3c0.2-0.4,0.5-0.7,0.9-1.1
		c0.2-0.2,0.4-0.4,0.6-0.5c0.1-0.1,0.3-0.2,0.5-0.2c0.2-0.1,0.4-0.1,0.6-0.1c0.2,0,0.5,0.1,0.7,0.2c0.2,0.1,0.3,0.2,0.4,0.4
		c0.2,0.3,0.3,0.5,0.4,0.8c0.2,0.5,0.2,1,0.3,1.4c0,0.5,0,0.9,0,1.4c0,0.5,0,0.9-0.1,1.4c-0.2,1.8-0.8,3.6-1.7,5.1
		c-0.5,0.8-1,1.5-1.6,2.1c-0.4,0.5-0.9,0.9-1.4,1.3c0.1,1.4,0.1,2.9,0.2,4.3c0.3,2.9,0.6,5.8,0.7,8.8c0.1,2,0.2,4.1,0.2,6.2
		c0.2,2.2,0.5,4.4,0.9,6.5c0.2,0.8,0.4,1.6,0.6,2.3c0.3,0.8,0.7,1.5,1.2,2.1c0.5,0.6,1.2,1.2,1.9,1.6s1.5,0.7,2.4,0.8
		c0.8,0.1,1.7,0.1,2.5,0c0.8-0.1,1.6-0.4,2.4-0.7c1.5-0.7,2.8-1.7,4-2.8c0.1-0.1,0.3-0.1,0.4-0.1c0,0,0.1,0.1,0.1,0.2
		C101.8,115.5,101.7,115.6,101.7,115.7z"/>
	<path class="st7" d="M99.2,101.7C99.2,101.7,99.2,101.7,99.2,101.7c-0.1,0.3-0.1,0.6-0.2,0.8c-0.1,0-0.2-0.1-0.3-0.1
		c-0.5-0.2-1.1-0.6-1.5-1c-0.2-0.2-0.4-0.4-0.6-0.7c-0.1-0.1-0.2-0.2-0.3-0.4c0-0.1-0.1-0.1-0.1-0.2c0-0.1-0.1-0.1-0.1-0.2
		c-0.3-0.5-0.4-1.1-0.4-1.7c0-0.6,0.1-1.1,0.3-1.6c0.4-1,0.9-1.9,1.6-2.7c0.1-0.1,0.1-0.1,0.2-0.2c0,0.1,0,0.3,0,0.4
		c0.1,1.2,0.3,2.5,0.5,3.7C98.6,99.3,98.8,100.5,99.2,101.7z"/>
	<path class="st7" d="M98.9,92.8c0.3-0.2,0.6-0.5,0.9-0.7c0.1,1.4,0.1,2.7,0.1,4.1c0,0.9-0.1,1.8-0.2,2.8c-0.2-0.7-0.3-1.5-0.4-2.3
		C99.1,95.4,99,94.1,98.9,92.8z"/>
	<g>
		<linearGradient id="SVGID_6_" gradientUnits="userSpaceOnUse" x1="77.3948" y1="116.4505" x2="79.2049" y2="116.4505">
			<stop  offset="0" style="stop-color:#ED2F66"/>
			<stop  offset="1" style="stop-color:#F8A131"/>
		</linearGradient>
		<path class="st13" d="M78.9,115.4C78.9,115.4,78.9,115.4,78.9,115.4C78.9,115.4,79,115.4,78.9,115.4c0.1,0.1,0.2,0.2,0.2,0.3
			c0,0,0,0.1,0,0.1l0,0.1c0,0.1,0,0.1,0,0.2c0,0.2,0,0.4,0,0.7c0,0.4-0.1,0.9-0.3,1.2c-0.1,0.2-0.2,0.3-0.3,0.5
			c-0.1,0.1-0.1,0.1-0.2,0.1c0,0-0.1,0-0.1,0h0h0l0,0c0,0,0,0-0.1,0c-0.2-0.1-0.3-0.2-0.4-0.4c-0.1-0.2-0.2-0.4-0.2-0.7
			c-0.1-0.3-0.1-0.7-0.1-1.1c0-0.4,0-0.8,0.2-1.2c0.1-0.2,0.2-0.4,0.3-0.5c0.1-0.1,0.3-0.2,0.5-0.1
			C78.7,114.5,78.9,114.9,78.9,115.4C78.9,115.3,78.9,115.3,78.9,115.4C78.9,115.4,78.9,115.4,78.9,115.4z"/>
		<linearGradient id="SVGID_7_" gradientUnits="userSpaceOnUse" x1="74.5784" y1="112.0444" x2="76.3893" y2="112.0444">
			<stop  offset="0" style="stop-color:#ED2F66"/>
			<stop  offset="1" style="stop-color:#F8A131"/>
		</linearGradient>
		<path class="st15" d="M74.8,110.7c0.1-0.2,0.2-0.4,0.3-0.5c0.1-0.1,0.3-0.2,0.5-0.1c0.3,0.1,0.5,0.5,0.5,0.8c0,0,0,0,0,0.1
			c0,0,0,0,0,0s0,0,0,0c0,0,0,0,0.1,0c0,0.1,0.1,0.1,0.1,0.3c0,0,0,0.1,0,0.1l0,0.1c0,0.1,0,0.1,0,0.2c0,0.2,0,0.4,0,0.7
			c0,0.4-0.1,0.9-0.3,1.2c-0.1,0.2-0.2,0.3-0.3,0.4c-0.1,0.1-0.1,0.1-0.2,0.1c0,0-0.1,0-0.1,0l0,0h0l0,0c0,0,0,0-0.1,0
			c-0.2,0-0.3-0.2-0.4-0.4c-0.1-0.2-0.2-0.4-0.2-0.7c-0.1-0.3-0.1-0.7-0.1-1.1C74.6,111.5,74.6,111.1,74.8,110.7z"/>
		<linearGradient id="SVGID_8_" gradientUnits="userSpaceOnUse" x1="72.1179" y1="117.0617" x2="73.928" y2="117.0617">
			<stop  offset="0" style="stop-color:#ED2F66"/>
			<stop  offset="1" style="stop-color:#F8A131"/>
		</linearGradient>
		<path class="st16" d="M73.6,115.9C73.6,115.9,73.6,115.9,73.6,115.9C73.6,116,73.6,116,73.6,115.9C73.6,116,73.6,116,73.6,115.9
			c0,0.1,0.1,0.1,0.1,0.1c0,0.1,0.1,0.1,0.1,0.2c0,0,0,0.1,0,0.1l0,0.1c0,0.1,0,0.1,0,0.2c0,0.2,0,0.4,0,0.7c0,0.4-0.1,0.9-0.3,1.2
			c-0.1,0.2-0.2,0.3-0.3,0.5c-0.1,0.1-0.1,0.1-0.2,0.1c0,0-0.1,0-0.1,0h0h0l0,0c0,0,0,0-0.1,0c-0.2-0.1-0.3-0.2-0.4-0.4
			c-0.1-0.2-0.2-0.4-0.2-0.7c-0.1-0.3-0.1-0.7-0.1-1.1c0-0.4,0-0.8,0.2-1.2c0.1-0.2,0.2-0.4,0.3-0.5c0.1-0.1,0.3-0.2,0.5-0.1
			C73.4,115.2,73.6,115.5,73.6,115.9z"/>
		<linearGradient id="SVGID_9_" gradientUnits="userSpaceOnUse" x1="90.4707" y1="114.391" x2="92.2816" y2="114.391">
			<stop  offset="0" style="stop-color:#ED2F66"/>
			<stop  offset="1" style="stop-color:#F8A131"/>
		</linearGradient>
		<path class="st17" d="M92,113.3C92,113.3,92,113.3,92,113.3C92,113.3,92,113.3,92,113.3c0.1,0.1,0.2,0.2,0.2,0.3c0,0,0,0.1,0,0.1
			l0,0.1c0,0.1,0,0.1,0,0.2c0,0.2,0,0.4,0,0.7c0,0.4-0.1,0.9-0.3,1.3c-0.1,0.2-0.2,0.3-0.3,0.4c-0.1,0.1-0.1,0.1-0.2,0.1
			c0,0-0.1,0-0.1,0h0h0l0,0c0,0,0,0-0.1,0c-0.2,0-0.3-0.2-0.4-0.4c-0.1-0.2-0.2-0.4-0.2-0.7c-0.1-0.3-0.1-0.7-0.1-1.1
			c0-0.4,0-0.8,0.2-1.2c0.1-0.2,0.2-0.4,0.3-0.5c0.1-0.1,0.3-0.2,0.5-0.1C91.8,112.5,91.9,112.9,92,113.3
			C92,113.3,92,113.3,92,113.3C92,113.3,92,113.3,92,113.3z"/>
		<linearGradient id="SVGID_10_" gradientUnits="userSpaceOnUse" x1="92.9313" y1="109.3727" x2="94.7421" y2="109.3727">
			<stop  offset="0" style="stop-color:#ED2F66"/>
			<stop  offset="1" style="stop-color:#F8A131"/>
		</linearGradient>
		<path class="st18" d="M94.4,108.3C94.4,108.3,94.4,108.3,94.4,108.3C94.5,108.3,94.5,108.3,94.4,108.3c0.1,0.1,0.2,0.2,0.2,0.3
			c0,0,0,0.1,0,0.1l0,0.1c0,0.1,0,0.1,0,0.2c0,0.2,0,0.4,0,0.7c0,0.4-0.1,0.9-0.3,1.2c-0.1,0.2-0.2,0.3-0.3,0.4
			c-0.1,0.1-0.1,0.1-0.2,0.1c0,0-0.1,0-0.1,0l0,0h0l0,0c0,0,0,0-0.1,0c-0.2,0-0.3-0.2-0.4-0.4c-0.1-0.2-0.2-0.4-0.2-0.7
			c-0.1-0.3-0.1-0.7-0.1-1.1c0-0.4,0-0.8,0.2-1.2c0.1-0.2,0.2-0.4,0.3-0.5c0.1-0.1,0.3-0.2,0.5-0.1
			C94.2,107.5,94.4,107.8,94.4,108.3C94.4,108.2,94.4,108.3,94.4,108.3C94.4,108.3,94.4,108.3,94.4,108.3z"/>
		<linearGradient id="SVGID_11_" gradientUnits="userSpaceOnUse" x1="95.7476" y1="113.7768" x2="97.5584" y2="113.7768">
			<stop  offset="0" style="stop-color:#ED2F66"/>
			<stop  offset="1" style="stop-color:#F8A131"/>
		</linearGradient>
		<path class="st19" d="M97.2,112.7C97.2,112.7,97.2,112.7,97.2,112.7C97.3,112.7,97.3,112.7,97.2,112.7c0.1,0.1,0.2,0.2,0.2,0.3
			c0,0,0,0.1,0,0.1l0,0.1c0,0.1,0,0.1,0,0.2c0,0.2,0,0.4,0,0.7c0,0.4-0.1,0.9-0.3,1.2c-0.1,0.2-0.2,0.3-0.3,0.5
			c-0.1,0.1-0.1,0.1-0.2,0.1c0,0-0.1,0-0.1,0h0h0l0,0c0,0,0,0-0.1,0c-0.2-0.1-0.3-0.2-0.4-0.4c-0.1-0.2-0.2-0.4-0.2-0.7
			c-0.1-0.3-0.1-0.7-0.1-1.1c0-0.4,0-0.8,0.2-1.2c0.1-0.2,0.2-0.4,0.3-0.5c0.1-0.1,0.3-0.2,0.5-0.1C97,111.9,97.2,112.2,97.2,112.7
			C97.2,112.6,97.2,112.7,97.2,112.7C97.2,112.7,97.2,112.7,97.2,112.7z"/>
	</g>
	<path class="st7" d="M105.8,101.7c-0.2,0.4-0.3,0.9-0.5,1.3c-0.9,0.1-1.9,0.2-2.8,0.2c-0.5,0-1-0.1-1.5-0.1c-0.2-0.5-0.4-1-0.6-1.5
		c0-0.1,0-0.2-0.1-0.2c0.4-1.6,0.6-3.2,0.7-4.8c0.1-1.6,0.1-3.2,0-4.9l0,0c1.1-0.5,2.3-0.9,3.5-1.2c0.2,1.4,0.4,2.9,0.7,4.3
		c0.3,1.6,0.7,3.1,1.3,4.7C106.3,100.2,106.1,100.9,105.8,101.7z"/>
	<path class="st7" d="M105.4,90.2c0.3-0.1,0.7-0.1,1.1-0.1c0.3,0,0.5,0,0.8,0c0,0.6,0.1,1.3,0.1,1.9c0,1.6-0.1,3.3-0.4,4.9
		c0,0.2,0,0.3-0.1,0.4c-0.3-1-0.5-2-0.7-3C105.8,93,105.6,91.6,105.4,90.2z"/>
	<linearGradient id="SVGID_12_" gradientUnits="userSpaceOnUse" x1="106.5221" y1="101.9484" x2="107.7203" y2="101.9484">
		<stop  offset="0" style="stop-color:#3F58A6"/>
		<stop  offset="1" style="stop-color:#C9A2C8"/>
	</linearGradient>
	<path class="st20" d="M106.5,102.8c0.2-0.5,0.4-1.1,0.6-1.7c0.2,0.4,0.4,0.9,0.6,1.3c0,0,0,0,0,0
		C107.3,102.6,106.9,102.7,106.5,102.8z"/>
	<path class="st7" d="M110.3,99.6c-0.1,0.7-0.2,1.4-0.4,2c-0.1,0-0.2,0.1-0.3,0.1c-0.3,0.1-0.6,0.3-0.9,0.4c0,0,0-0.1-0.1-0.1
		c-0.4-0.8-0.7-1.6-1-2.5c0,0,0-0.1,0-0.1c0.2-0.7,0.3-1.4,0.4-2.1c0.2-1.2,0.3-2.5,0.4-3.7c0.1-1.2,0.1-2.4,0-3.6
		c0.4,0,0.7,0,1.1,0.1c0.1,0,0.2,0,0.4,0.1l0.4,0c0.2,0,0.5,0.1,0.7,0.1c0.1,0,0.2,0,0.3,0.1c-0.1,1.3-0.2,2.7-0.3,4.1
		C110.7,96.2,110.6,97.9,110.3,99.6z"/>
	<path class="st7" d="M115,95c-0.1,0.9-0.3,1.7-0.8,2.5c-0.4,0.8-1,1.6-1.7,2.2c-0.4,0.4-0.9,0.8-1.4,1.1c0,0-0.1,0.1-0.1,0.1
		c0-0.3,0.1-0.5,0.1-0.8c0.2-1.6,0.4-3.2,0.5-4.9c0.1-1.6,0.1-3.1,0.1-4.7c0.1,0,0.2,0.1,0.3,0.1c0.4,0.2,0.9,0.4,1.2,0.7
		c0.4,0.3,0.7,0.6,1,1C114.9,93.2,115.1,94.2,115,95z"/>
	<linearGradient id="SVGID_13_" gradientUnits="userSpaceOnUse" x1="90.1405" y1="71.8052" x2="117.3416" y2="71.8052">
		<stop  offset="0" style="stop-color:#F05B42"/>
		<stop  offset="1" style="stop-color:#F9A54F"/>
	</linearGradient>
	<path class="st21" d="M117.2,68.2c0,0.8-0.2,1.7-0.5,2.5c-0.4,1.1-1.1,2.2-2,3.1c-0.9,1-2,1.8-3.2,2.5c-1.2,0.7-2.6,1.2-4.1,1.6
		c-1,0.2-2,0.4-3,0.4c-0.3,0-0.7,0.1-1,0.1c-0.9,0-1.8,0-2.7-0.2c-1.8-0.3-3.5-1-4.9-1.9c-1.4-0.9-2.6-2-3.5-3.2
		c-0.9-1.2-1.6-2.5-2-3.9c-0.2-0.6,0-0.9,0.3-0.9c0.3,0,0.7,0.2,1,0.6c0.1,0.1,0.2,0.3,0.3,0.4c0,0,0-0.1,0-0.1c0-0.3,0-0.6,0.1-0.8
		c0.1-0.2,0.3-0.3,0.4-0.2c0.2,0.1,0.3,0.2,0.3,0.4c0,0.3,0.1,0.5,0.2,0.8c0.1,0.3,0.2,0.5,0.4,0.8c0.3,0.5,0.7,1,1.1,1.5
		c0.8,1,1.7,1.9,2.7,2.6c0.5,0.4,1,0.7,1.6,1c0.1,0,0.1,0.1,0.2,0.1l0.2,0.1c0.1,0,0.2,0.1,0.2,0.1c0.5,0.2,1,0.3,1.5,0.4
		c1.3,0.3,2.7,0.3,4.1,0c1.3-0.2,2.6-0.7,3.8-1.4c1.2-0.7,2.2-1.5,3.1-2.4c1.5-1.6,2.6-3.5,3.3-5.5c0-0.2-0.1-0.4-0.2-0.6l0.4,0
		c0-0.1,0.1-0.3,0.1-0.4c0.1-0.2,0.3-0.5,0.6-0.5c0.4-0.1,0.8,0.1,0.9,0.5l0,0c0,0.1,0.1,0.3,0.1,0.4l0.4,0
		c-0.1,0.3-0.1,0.6-0.2,0.8C117.2,67.4,117.2,67.8,117.2,68.2z"/>
	<linearGradient id="SVGID_14_" gradientUnits="userSpaceOnUse" x1="102.6903" y1="39.1976" x2="120.4116" y2="39.1976">
		<stop  offset="0" style="stop-color:#0EB5BF"/>
		<stop  offset="1" style="stop-color:#B0D57B"/>
	</linearGradient>
	<path class="st22" d="M120.4,46.8c-0.1,2.5-0.5,5.1-1.3,7.7c-0.2,0.5-0.8,0.9-1.5,0.7c-0.2-0.1-0.5-0.2-0.6-0.3l0,0
		c-0.2-0.2-0.4-0.4-0.5-0.7c-0.2,0.4-0.8,0.7-1.3,0.5c-0.4-0.1-0.6-0.3-0.7-0.6c-0.4-1.2-0.6-2.3-0.8-3.5c0,0,0-0.1,0-0.1
		c-0.1,0.7-0.3,1.3-0.5,2c-0.1,0.3-0.2,0.7-0.4,1c-0.1,0.2-0.2,0.4-0.4,0.6c-0.1,0.1-0.2,0.2-0.4,0.3c-0.1,0-0.2,0.1-0.4,0.1
		c-0.1,0-0.3,0-0.4,0l0,0c-0.2-0.1-0.3-0.2-0.4-0.4c-0.5-2.2-0.6-4.5-0.4-6.8c0,0,0-0.1,0-0.1c-0.3,0.9-0.6,1.8-0.9,2.7
		c-0.2,0.5-0.4,1-0.7,1.6c-0.1,0.3-0.3,0.5-0.5,0.8c-0.1,0.1-0.1,0.1-0.2,0.2c-0.1,0-0.1,0.1-0.2,0.1c-0.1,0-0.2,0.1-0.4,0.1
		c-0.2,0-0.3-0.1-0.4-0.1c-0.1-0.1-0.2-0.1-0.2-0.2c-0.1-0.1-0.1-0.2-0.2-0.3c0,0,0-0.1,0-0.1v0c-0.1-1.2,0-2.3,0.2-3.4
		c0.2-1.1,0.5-2.1,0.8-3.2l-1.6,3c-0.5,1-1.1,2-1.6,3.1l0,0c0,0-0.1,0.1-0.1,0.1c-0.1,0.1-0.2,0.1-0.3,0.2c-0.1,0.1-0.2,0.1-0.3,0.2
		c-0.1,0-0.2,0-0.3,0.1c-0.1,0-0.2,0-0.4,0c-0.1,0-0.2-0.1-0.3-0.2c-0.1-0.1-0.1-0.1-0.1-0.2c-0.1-0.2-0.1-0.4-0.2-0.6
		c0-0.2,0-0.4,0-0.6c0-0.7,0.2-1.4,0.3-2.1c0.3-1.4,0.7-2.7,1.2-4c0.4-1.3,0.9-2.6,1.5-3.9c0.5-1.3,1.1-2.6,1.7-3.9
		c0.3-0.6,0.7-1.3,1-1.9l1-1.9c0.7-1.2,1.3-2.5,2.1-3.7c0.7-1.2,1.5-2.4,2.4-3.6c0.5-0.6,0.9-1.1,1.6-1.6c0.3-0.2,0.7-0.4,1.1-0.6
		c0.2-0.1,0.4-0.1,0.7-0.1c0.2,0,0.5,0.1,0.7,0.2l0,0c0.1,0,0.1,0.1,0.1,0.1c0.2,0.9,0.4,1.8,0.5,2.6c0.3,0.9,0.5,1.8,0.6,2.8
		c0.2,1.1,0.4,2.3,0.5,3.4c0.1,1.2,0.2,2.3,0.3,3.5l0.1,1.8l0,0.4l0,0.2l0,0.1l0,0l0,0c0,0,0,0,0,0v0l0,0.1l0.1,0.9
		C120.4,41.8,120.5,44.3,120.4,46.8z"/>
</g>
</svg>
