<?xml version="1.0" encoding="utf-8"?>
<!-- Generator: Adobe Illustrator 21.0.0, SVG Export Plug-In . SVG Version: 6.00 Build 0)  -->
<svg version="1.1" id="Layer_1" xmlns="http://www.w3.org/2000/svg" xmlns:xlink="http://www.w3.org/1999/xlink" x="0px" y="0px"
	 viewBox="0 0 160 145" style="enable-background:new 0 0 160 145;" xml:space="preserve">
<style type="text/css">
	.st0{fill:#CB5990;}
	.st1{fill:#FFFFFF;}
	.st2{fill:#12B6BF;}
	.st3{fill:url(#SVGID_1_);}
	.st4{fill:#455BA8;}
	.st5{fill:#326EB6;}
	.st6{fill:#DD5968;}
	.st7{fill:#EF537A;}
	.st8{fill:url(#SVGID_2_);}
	.st9{fill:url(#SVGID_3_);}
	.st10{fill:url(#SVGID_4_);}
	.st11{fill:url(#SVGID_5_);}
	.st12{fill:#F16443;}
	.st13{fill:url(#SVGID_6_);}
	.st14{fill:#F68E3F;}
	.st15{fill:url(#SVGID_7_);}
	.st16{fill:url(#SVGID_8_);}
	.st17{fill:url(#SVGID_9_);}
	.st18{fill:url(#SVGID_10_);}
	.st19{fill:url(#SVGID_11_);}
	.st20{fill:url(#SVGID_12_);}
	.st21{fill:url(#SVGID_13_);}
	.st22{fill:url(#SVGID_14_);}
	.st23{fill:url(#SVGID_15_);}
	.st24{fill:url(#SVGID_16_);}
	.st25{fill:url(#SVGID_17_);}
	.st26{fill:#3DB66D;}
	.st27{fill:url(#SVGID_18_);}
	.st28{fill:url(#SVGID_19_);}
	.st29{fill:url(#SVGID_20_);}
	.st30{fill:url(#SVGID_21_);}
	.st31{fill:url(#SVGID_22_);}
	.st32{fill:url(#SVGID_23_);}
	.st33{fill:url(#SVGID_24_);}
	.st34{fill:url(#SVGID_25_);}
	.st35{fill:url(#SVGID_26_);}
	.st36{fill:url(#SVGID_27_);}
	.st37{fill:url(#SVGID_28_);}
	.st38{fill:url(#SVGID_29_);}
	.st39{fill:url(#SVGID_30_);}
	.st40{fill:url(#SVGID_31_);}
	.st41{fill:url(#SVGID_32_);}
	.st42{fill:url(#SVGID_33_);}
	.st43{fill:url(#SVGID_34_);}
	.st44{fill:url(#SVGID_35_);}
	.st45{fill:url(#SVGID_36_);}
	.st46{fill:url(#SVGID_37_);}
	.st47{fill:url(#SVGID_38_);}
	.st48{fill:url(#SVGID_39_);}
	.st49{fill:url(#SVGID_40_);}
	.st50{fill:url(#SVGID_41_);}
	.st51{fill:url(#SVGID_42_);}
	.st52{fill:url(#SVGID_43_);}
	.st53{fill:url(#SVGID_44_);}
	.st54{fill:url(#SVGID_45_);}
	.st55{fill:url(#SVGID_46_);}
	.st56{fill:url(#SVGID_47_);}
	.st57{fill:url(#SVGID_48_);}
	.st58{fill:url(#SVGID_49_);}
	.st59{fill:url(#SVGID_50_);}
	.st60{fill:url(#SVGID_51_);}
	.st61{fill:url(#SVGID_52_);}
	.st62{fill:url(#SVGID_53_);}
	.st63{fill:url(#SVGID_54_);}
	.st64{fill:url(#SVGID_55_);}
	.st65{fill:url(#SVGID_56_);}
	.st66{fill:url(#SVGID_57_);}
	.st67{fill:url(#SVGID_58_);}
	.st68{fill:url(#SVGID_59_);}
	.st69{fill:url(#SVGID_60_);}
	.st70{fill:url(#SVGID_61_);}
	.st71{fill:url(#SVGID_62_);}
	.st72{fill:url(#SVGID_63_);}
	.st73{fill:url(#SVGID_64_);}
	.st74{fill:url(#SVGID_65_);}
	.st75{fill:url(#SVGID_66_);}
	.st76{fill:url(#SVGID_67_);}
	.st77{fill:url(#SVGID_68_);}
	.st78{fill:url(#SVGID_69_);}
	.st79{fill:url(#SVGID_70_);}
	.st80{fill:url(#SVGID_71_);}
	.st81{fill:url(#SVGID_72_);}
	.st82{fill:url(#SVGID_73_);}
	.st83{fill:url(#SVGID_74_);}
	.st84{fill:url(#SVGID_75_);}
	.st85{fill:url(#SVGID_76_);}
	.st86{fill:url(#SVGID_77_);}
	.st87{fill:url(#SVGID_78_);}
	.st88{fill:url(#SVGID_79_);}
	.st89{fill:url(#SVGID_80_);}
	.st90{fill:url(#SVGID_81_);}
	.st91{fill:url(#SVGID_82_);}
	.st92{fill:url(#SVGID_83_);}
	.st93{fill:url(#SVGID_84_);}
	.st94{fill:url(#SVGID_85_);}
	.st95{fill:url(#SVGID_86_);}
	.st96{fill:url(#SVGID_87_);}
	.st97{fill:url(#SVGID_88_);}
	.st98{fill:url(#SVGID_89_);}
	.st99{fill:url(#SVGID_90_);}
	.st100{fill:url(#SVGID_91_);}
	.st101{fill:url(#SVGID_92_);}
	.st102{fill:url(#SVGID_93_);}
	.st103{fill:url(#SVGID_94_);}
	.st104{fill:url(#SVGID_95_);}
	.st105{fill:url(#SVGID_96_);}
	.st106{fill:url(#SVGID_97_);}
	.st107{fill:url(#SVGID_98_);}
	.st108{fill:url(#SVGID_99_);}
	.st109{fill:url(#SVGID_100_);}
	.st110{fill:url(#SVGID_101_);}
	.st111{fill:url(#SVGID_102_);}
	.st112{fill:url(#SVGID_103_);}
	.st113{fill:url(#SVGID_104_);}
	.st114{fill:url(#SVGID_105_);}
	.st115{fill:url(#SVGID_106_);}
	.st116{fill:url(#SVGID_107_);}
	.st117{fill:url(#SVGID_108_);}
	.st118{fill:url(#SVGID_109_);}
	.st119{fill:url(#SVGID_110_);}
	.st120{fill:url(#SVGID_111_);}
	.st121{fill:url(#SVGID_112_);}
	.st122{fill:url(#SVGID_113_);}
	.st123{fill:url(#SVGID_114_);}
	.st124{fill:url(#SVGID_115_);}
	.st125{fill:url(#SVGID_116_);}
	.st126{fill:url(#SVGID_117_);}
	.st127{fill:url(#SVGID_118_);}
	.st128{fill:url(#SVGID_119_);}
	.st129{fill:url(#SVGID_120_);}
	.st130{fill:url(#SVGID_121_);}
	.st131{fill:url(#SVGID_122_);}
	.st132{fill:url(#SVGID_123_);}
	.st133{fill:url(#SVGID_124_);}
	.st134{fill:url(#SVGID_125_);}
	.st135{fill:url(#SVGID_126_);}
	.st136{fill:url(#SVGID_127_);}
	.st137{fill:#184054;}
	.st138{fill:url(#SVGID_128_);}
	.st139{fill:url(#SVGID_129_);}
	.st140{fill:url(#SVGID_130_);}
	.st141{fill:url(#SVGID_131_);}
	.st142{fill:url(#SVGID_132_);}
	.st143{fill:url(#SVGID_133_);}
	.st144{fill:url(#SVGID_134_);}
	.st145{fill:url(#SVGID_135_);}
	.st146{fill:url(#SVGID_136_);}
	.st147{fill:url(#SVGID_137_);}
	.st148{fill:url(#SVGID_138_);}
	.st149{fill:url(#SVGID_139_);}
	.st150{fill:url(#SVGID_140_);}
	.st151{fill:url(#SVGID_141_);}
	.st152{fill:url(#SVGID_142_);}
	.st153{fill:url(#SVGID_143_);}
	.st154{fill:url(#SVGID_144_);}
	.st155{fill:url(#SVGID_145_);}
	.st156{fill:url(#SVGID_146_);}
	.st157{fill:url(#SVGID_147_);}
	.st158{fill:url(#SVGID_148_);}
	.st159{fill:url(#SVGID_149_);}
	.st160{fill:url(#SVGID_150_);}
	.st161{fill:url(#SVGID_151_);}
	.st162{fill:url(#SVGID_152_);}
	.st163{fill:url(#SVGID_153_);}
	.st164{fill:url(#SVGID_154_);}
	.st165{fill:url(#SVGID_155_);}
	.st166{fill:url(#SVGID_156_);}
	.st167{fill:url(#SVGID_157_);}
	.st168{fill:url(#SVGID_158_);}
	.st169{fill:url(#SVGID_159_);}
	.st170{fill:url(#SVGID_160_);}
	.st171{fill:url(#SVGID_161_);}
	.st172{fill:url(#SVGID_162_);}
	.st173{fill:url(#SVGID_163_);}
	.st174{fill:url(#SVGID_164_);}
	.st175{fill:url(#SVGID_165_);}
	.st176{fill:url(#SVGID_166_);}
	.st177{fill:url(#SVGID_167_);}
	.st178{fill:url(#SVGID_168_);}
	.st179{fill:url(#SVGID_169_);}
	.st180{fill:url(#SVGID_170_);}
	.st181{fill:url(#SVGID_171_);}
	.st182{fill:url(#SVGID_172_);}
	.st183{fill:url(#SVGID_173_);}
	.st184{fill:url(#SVGID_174_);}
	.st185{fill:url(#SVGID_175_);}
	.st186{fill:url(#SVGID_176_);}
	.st187{fill:url(#SVGID_177_);}
	.st188{fill:url(#SVGID_178_);}
	.st189{fill:url(#SVGID_179_);}
	.st190{fill:url(#SVGID_180_);}
	.st191{fill:url(#SVGID_181_);}
	.st192{fill:url(#SVGID_182_);}
	.st193{fill:url(#SVGID_183_);}
	.st194{fill:url(#SVGID_184_);}
	.st195{fill:url(#SVGID_185_);}
	.st196{fill:url(#SVGID_186_);}
	.st197{fill:url(#SVGID_187_);}
	.st198{fill:url(#SVGID_188_);}
	.st199{fill:url(#SVGID_189_);}
	.st200{fill:url(#SVGID_190_);}
	.st201{fill:url(#SVGID_191_);}
	.st202{fill:url(#SVGID_192_);}
	.st203{fill:url(#SVGID_193_);}
	.st204{fill:url(#SVGID_194_);}
	.st205{fill:url(#SVGID_195_);}
	.st206{fill:url(#SVGID_196_);}
	.st207{fill:url(#SVGID_197_);}
	.st208{fill:url(#SVGID_198_);}
	.st209{fill:url(#SVGID_199_);}
	.st210{fill:url(#SVGID_200_);}
	.st211{fill:url(#SVGID_201_);}
	.st212{fill:url(#SVGID_202_);}
	.st213{fill:url(#SVGID_203_);}
	.st214{fill:url(#SVGID_204_);}
	.st215{fill:url(#SVGID_205_);}
	.st216{fill:url(#SVGID_206_);}
	.st217{fill:url(#SVGID_207_);}
	.st218{fill:url(#SVGID_208_);}
	.st219{fill:#969697;}
	.st220{fill:url(#SVGID_209_);}
	.st221{fill:url(#SVGID_210_);}
	.st222{fill:url(#SVGID_211_);}
	.st223{fill:url(#SVGID_212_);}
	.st224{fill:url(#SVGID_213_);}
	.st225{fill:url(#SVGID_214_);}
	.st226{fill:url(#SVGID_215_);}
	.st227{fill:url(#SVGID_216_);}
	.st228{fill:url(#SVGID_217_);}
	.st229{fill:url(#SVGID_218_);}
	.st230{fill:url(#SVGID_219_);}
	.st231{fill:url(#SVGID_220_);}
	.st232{fill:url(#SVGID_221_);}
	.st233{fill:url(#SVGID_222_);}
	.st234{fill:url(#SVGID_223_);}
	.st235{fill:url(#SVGID_224_);}
	.st236{fill:url(#SVGID_225_);}
	.st237{fill:url(#SVGID_226_);}
	.st238{fill:url(#SVGID_227_);}
	.st239{fill:url(#SVGID_228_);}
	.st240{fill:url(#SVGID_229_);}
	.st241{fill:url(#SVGID_230_);}
	.st242{fill:url(#SVGID_231_);}
	.st243{fill:url(#SVGID_232_);}
	.st244{fill:url(#SVGID_233_);}
	.st245{fill:url(#SVGID_234_);}
	.st246{fill:url(#SVGID_235_);}
	.st247{fill:url(#SVGID_236_);}
	.st248{fill:url(#SVGID_237_);}
	.st249{fill:url(#SVGID_238_);}
	.st250{fill:url(#SVGID_239_);}
	.st251{fill:url(#SVGID_240_);}
	.st252{fill:url(#SVGID_241_);}
	.st253{fill:url(#SVGID_242_);}
	.st254{fill:url(#SVGID_243_);}
	.st255{fill:url(#SVGID_244_);}
	.st256{fill:url(#SVGID_245_);}
	.st257{fill:url(#SVGID_246_);}
	.st258{fill:url(#SVGID_247_);}
	.st259{fill:url(#SVGID_248_);}
	.st260{fill:url(#SVGID_249_);}
	.st261{fill:url(#SVGID_250_);}
	.st262{fill:url(#SVGID_251_);}
	.st263{fill:url(#SVGID_252_);}
	.st264{fill:url(#SVGID_253_);}
	.st265{fill:url(#SVGID_254_);}
	.st266{fill:url(#SVGID_255_);}
	.st267{fill:url(#SVGID_256_);}
	.st268{fill:url(#SVGID_257_);}
	.st269{fill:url(#SVGID_258_);}
	.st270{fill:url(#SVGID_259_);}
	.st271{fill:url(#SVGID_260_);}
	.st272{fill:url(#SVGID_261_);}
	.st273{fill:url(#SVGID_262_);}
	.st274{fill:url(#SVGID_263_);}
	.st275{fill:url(#SVGID_264_);}
	.st276{fill:url(#SVGID_265_);}
	.st277{fill:url(#SVGID_266_);}
	.st278{fill:url(#SVGID_267_);}
	.st279{fill:#F69474;}
	.st280{fill:#F27350;}
	.st281{fill:url(#SVGID_268_);}
	.st282{fill:url(#SVGID_269_);}
	.st283{fill:url(#SVGID_270_);}
	.st284{fill:url(#SVGID_271_);}
	.st285{fill:url(#SVGID_272_);}
	.st286{fill:url(#SVGID_273_);}
	.st287{fill:url(#SVGID_274_);}
	.st288{fill:url(#SVGID_275_);}
	.st289{fill:url(#SVGID_276_);}
	.st290{fill:url(#SVGID_277_);}
	.st291{fill:url(#SVGID_278_);}
	.st292{fill:url(#SVGID_279_);}
	.st293{fill:url(#SVGID_280_);}
	.st294{fill:url(#SVGID_281_);}
	.st295{fill:url(#SVGID_282_);}
	.st296{fill:url(#SVGID_283_);}
	.st297{fill:url(#SVGID_284_);}
	.st298{fill:url(#SVGID_285_);}
	.st299{fill:url(#SVGID_286_);}
	.st300{fill:url(#SVGID_287_);}
	.st301{fill:url(#SVGID_288_);}
	.st302{fill:url(#SVGID_289_);}
	.st303{fill:url(#SVGID_290_);}
	.st304{fill:url(#SVGID_291_);}
	.st305{fill:url(#SVGID_292_);}
	.st306{fill:url(#SVGID_293_);}
</style>
<g>
	<linearGradient id="SVGID_1_" gradientUnits="userSpaceOnUse" x1="56.1893" y1="29.8209" x2="60.145" y2="29.8209">
		<stop  offset="0" style="stop-color:#3F58A6"/>
		<stop  offset="1" style="stop-color:#C9A2C8"/>
	</linearGradient>
	<path class="st3" d="M57.9,30.2c0.5-0.5,1.1-1,1.7-1.4c0,0,0.1-0.1,0.1-0.1c0.1-0.3,0.3-0.5,0.4-0.8c0,0,0,0,0,0
		c-0.2,0.2-0.4,0.4-0.7,0.6c-1,0.9-1.9,1.8-2.8,2.8c-0.2,0.2-0.3,0.3-0.5,0.5c0.3-0.2,0.6-0.5,0.9-0.7
		C57.4,30.8,57.7,30.5,57.9,30.2z"/>
	<linearGradient id="SVGID_2_" gradientUnits="userSpaceOnUse" x1="103.7467" y1="30.1611" x2="107.7024" y2="30.1611">
		<stop  offset="0" style="stop-color:#3F58A6"/>
		<stop  offset="1" style="stop-color:#C9A2C8"/>
	</linearGradient>
	<path class="st8" d="M105.5,30.6c0.5-0.5,1.1-1,1.7-1.4c0,0,0.1-0.1,0.1-0.1c0.1-0.3,0.3-0.5,0.4-0.8c0,0,0,0,0,0
		c-0.2,0.2-0.4,0.4-0.7,0.6c-1,0.9-1.9,1.8-2.8,2.8c-0.2,0.2-0.3,0.3-0.5,0.5c0.3-0.2,0.6-0.5,0.9-0.7
		C104.9,31.1,105.2,30.8,105.5,30.6z"/>
	<linearGradient id="SVGID_3_" gradientUnits="userSpaceOnUse" x1="103.6991" y1="34.0076" x2="108.3233" y2="34.0076">
		<stop  offset="0" style="stop-color:#3F58A6"/>
		<stop  offset="1" style="stop-color:#C9A2C8"/>
	</linearGradient>
	<path class="st9" d="M105.7,35c-0.4,0.6-0.9,1.1-1.4,1.6c-0.2,0.2-0.4,0.4-0.6,0.6c0.4,0.1,0.7,0.1,1.1,0c0.2-0.1,0.5-0.3,0.7-0.5
		c0.2-0.2,0.4-0.5,0.6-0.7c0.4-0.5,0.7-1.1,1-1.7c0.5-1.1,1-2.3,1.4-3.6c-0.5,0.8-0.9,1.7-1.5,2.5C106.5,33.8,106.1,34.4,105.7,35z"
		/>
	<linearGradient id="SVGID_4_" gradientUnits="userSpaceOnUse" x1="58.7294" y1="36.4845" x2="59.7598" y2="36.4845">
		<stop  offset="0" style="stop-color:#3F58A6"/>
		<stop  offset="1" style="stop-color:#C9A2C8"/>
	</linearGradient>
	<path class="st10" d="M58.9,37c-0.1,0.1-0.1,0.1-0.2,0.2c0.3,0,0.6,0,0.9,0l0.1-1.4c-0.1,0.1-0.1,0.2-0.2,0.3
		C59.4,36.4,59.2,36.7,58.9,37z"/>
	<linearGradient id="SVGID_5_" gradientUnits="userSpaceOnUse" x1="56.1417" y1="33.6676" x2="60.7659" y2="33.6676">
		<stop  offset="0" style="stop-color:#3F58A6"/>
		<stop  offset="1" style="stop-color:#C9A2C8"/>
	</linearGradient>
	<path class="st11" d="M58.1,34.6c-0.4,0.6-0.9,1.1-1.4,1.6c-0.2,0.2-0.4,0.4-0.6,0.6c0.4,0.1,0.7,0.1,1.1,0
		c0.2-0.1,0.5-0.3,0.7-0.5c0.2-0.2,0.4-0.5,0.6-0.7c0.4-0.5,0.7-1.1,0.9-1.7c0.5-1.1,1-2.3,1.4-3.6c-0.5,0.8-0.9,1.7-1.5,2.5
		C58.9,33.5,58.5,34.1,58.1,34.6z"/>
	<path d="M56.1,34.5c0.3-0.2,0.5-0.4,0.8-0.6c0.1-0.1,0.3-0.2,0.4-0.3c0.1-0.1,0.2-0.2,0.3-0.2c0.4-0.6,0.7-1.3,1-1.9
		c-0.2,0.2-0.5,0.4-0.7,0.6c-0.8,0.6-1.6,1.3-2.2,2c-0.2,0.2-0.5,0.5-0.7,0.8c-0.2,0.3-0.3,0.6-0.4,0.9c0,0.1-0.1,0.2-0.1,0.2
		c0,0,0.1-0.1,0.1-0.1L56.1,34.5z"/>
	<linearGradient id="SVGID_6_" gradientUnits="userSpaceOnUse" x1="106.2864" y1="36.8246" x2="107.3172" y2="36.8246">
		<stop  offset="0" style="stop-color:#3F58A6"/>
		<stop  offset="1" style="stop-color:#C9A2C8"/>
	</linearGradient>
	<path class="st13" d="M106.5,37.3c-0.1,0.1-0.1,0.1-0.2,0.2c0.3,0,0.6,0,0.9,0l0.1-1.4c-0.1,0.1-0.1,0.2-0.2,0.3
		C106.9,36.7,106.7,37,106.5,37.3z"/>
	<path class="st4" d="M133.7,69.5c-1.7-6-7.7-17.3-10.3-19.8c-0.1-0.1-0.1-0.2-0.2-0.3c-3-4.6-9.7-9.5-9.7-9.5
		c1.2-5.3,2.1-19.5-1-19.6c-1.8-0.1-7.1,3.2-10.4,7.1c-2.1,2.5-4,4.3-6.8,9.2c-0.9-0.4-28.9-0.1-29-0.1c0-0.1,0.1-0.4,0.2-0.9
		c0.1-0.6,0.1-1.5,0.1-2.7c0-2.4-0.3-6-1-10.5c-0.1-0.6-0.2-1.1-0.3-1.7l0-0.2l0,0l0,0c0,0,0,0,0,0c0,0,0,0,0-0.1
		c0-0.1-0.1-0.1-0.1-0.2c-0.1-0.1-0.2-0.3-0.4-0.3c-0.2-0.1-0.3-0.1-0.4-0.1c-0.2,0-0.4,0.1-0.6,0.1c-0.2,0.1-0.3,0.1-0.5,0.2
		c-0.6,0.3-1.1,0.7-1.7,1.1c-0.5,0.4-1.1,0.8-1.6,1.3c-2.1,1.8-4.3,3.9-6.6,6.2c-2.3,2.3-4.6,4.8-7.1,7.6c-1.2,1.4-2.4,2.8-3.7,4.3
		c-0.3,0.4-0.6,0.8-0.9,1.2l-0.1,0.1l-0.1,0.1l-0.1,0.2l-0.2,0.3l-0.4,0.6c-0.5,0.8-1.1,1.7-1.6,2.5c-2.3,3.5-4.3,7.2-6.2,11
		c0,0-3.1,6.3-4.2,8.9c-1.3,2.8-3.4,6.8-3.4,10c0,2.3,0.5,2.2,1.4,1.2c0,0.2,0,0.3-0.1,0.5c-0.2,1.9-2.5,11.8-1.9,13.8
		c0.6,2.1,1.5,0.5,2.3-0.8c0.2,0.9-0.2,9.1,0.8,10.6c1.3,1.9,1.7,0.7,2.4-0.8c0.1,0.1,0.1,0.3,0.2,0.4c0.4,0.9,1.6,6,2.5,6.5
		c0.3,0.2,0.8,0,1.3-0.5c0.2,0.3,0.5,0.7,0.8,1c0.7,0.9,1.4,1.7,2.2,2.6c0.1,0.6,5.5,6.4,10.8,8.6c2.7,1.1,5.2,2.6,8,3.6
		c5.6,2,11.6,3,17.7,3.3c6.1,0.2,12.3-0.3,18.4-1.7c6.2-1.4,12.2-3.6,17.7-6.7c2.7-1.5,5.3-3.3,7.7-5.3c0.3-0.3,0.6-0.5,0.9-0.8
		l0.2-0.2l0.2-0.2c0.1-0.1,0.3-0.3,0.4-0.4c0.6-0.5,1.1-1.1,1.6-1.7c0.9-1,1.8-2.1,2.5-3.2c0.4,0.9,0.9,1.4,1.6,0.9
		c1.3-0.8,2-4.5,2.4-7.7c0.2-0.5,0.5-1,0.7-1.5c0.3,1.5,0.5,2.4,1,2.2c1-0.4,1.7-5.5,1.7-9.8c0.1-0.3,0.2-0.6,0.2-0.8
		c0.3,0.9,0.5,2.2,1.4,2.2c1.3,0.1,1-6.2,0.6-11c0.2,1,0.5,1.9,0.7,2.5C134.4,83.8,137,81.2,133.7,69.5z"/>
	<linearGradient id="SVGID_7_" gradientUnits="userSpaceOnUse" x1="24.646" y1="72.5" x2="133.511" y2="72.5">
		<stop  offset="0" style="stop-color:#0EB5BF"/>
		<stop  offset="1" style="stop-color:#B0D57B"/>
	</linearGradient>
	<path class="st15" d="M131.8,69.5c-1.7-6-7.6-17-10.1-19.5c-0.1-0.1-0.1-0.2-0.2-0.3c-3-4.5-9.5-9.3-9.5-9.3c1.1-5.3,2-19.2-1-19.3
		c-1.8-0.1-7,3.2-10.2,7c-2.1,2.4-3.9,4.2-6.7,9c-0.9-0.4-28.5-0.1-28.6-0.1c0-0.1,0.1-0.4,0.2-0.9c0.1-0.6,0.1-1.5,0.1-2.7
		c0-2.4-0.3-5.9-1-10.3c-0.1-0.6-0.2-1.1-0.3-1.7l0-0.2l0,0l0,0c0,0,0,0,0,0c0,0,0,0,0-0.1c0-0.1-0.1-0.1-0.1-0.2
		c-0.1-0.1-0.2-0.3-0.4-0.3c-0.2-0.1-0.3-0.1-0.4-0.1c-0.2,0-0.4,0.1-0.6,0.1c-0.2,0.1-0.3,0.1-0.5,0.2c-0.6,0.3-1.1,0.7-1.7,1.1
		c-0.5,0.4-1.1,0.8-1.6,1.3c-2.1,1.8-4.2,3.8-6.5,6.1c-2.2,2.3-4.6,4.7-7,7.5c-1.2,1.4-2.4,2.8-3.6,4.3c-0.3,0.4-0.6,0.8-0.9,1.2
		l-0.1,0.1l-0.1,0.1l-0.1,0.2l-0.2,0.3l-0.4,0.6c-0.5,0.8-1.1,1.6-1.6,2.5c-2.2,3.5-4.2,7.1-6.1,10.8c0,0-3,6.2-4.2,8.8
		c-1.3,2.8-3.3,6.7-3.4,9.9c0,2.2,0.5,2.2,1.4,1.2c0,0.2,0,0.3-0.1,0.5c-0.2,1.9-2.4,11.7-1.9,13.6c0.6,2,1.5,0.5,2.2-0.8
		c0.2,0.8-0.2,8.9,0.8,10.5c1.2,1.8,1.7,0.7,2.4-0.8c0.1,0.1,0.1,0.3,0.2,0.4c0.4,0.9,1.5,5.9,2.4,6.4c0.3,0.2,0.7,0,1.3-0.5
		c0.2,0.3,0.5,0.7,0.7,1c0.7,0.9,1.4,1.7,2.2,2.5c0.1,0.6,5.4,6.3,10.7,8.4c2.7,1.1,5.2,2.6,7.9,3.6c5.5,1.9,11.4,3,17.4,3.2
		c6,0.2,12.1-0.3,18.1-1.6c6.1-1.4,12-3.5,17.4-6.6c2.7-1.5,5.2-3.2,7.6-5.2c0.3-0.2,0.6-0.5,0.9-0.7l0.2-0.2l0.2-0.2
		c0.1-0.1,0.3-0.3,0.4-0.4c0.6-0.5,1.1-1.1,1.6-1.7c0.9-1,1.7-2.1,2.5-3.1c0.4,0.9,0.9,1.4,1.6,0.9c1.3-0.8,2-4.4,2.3-7.5
		c0.2-0.5,0.5-1,0.7-1.5c0.3,1.4,0.5,2.4,1,2.2c1-0.4,1.6-5.4,1.7-9.6c0.1-0.3,0.2-0.5,0.2-0.8c0.3,0.9,0.5,2.2,1.4,2.2
		c1.3,0.1,1-6.1,0.6-10.8c0.2,1,0.5,1.8,0.7,2.5C132.6,83.6,135.2,81.1,131.8,69.5z"/>
	<linearGradient id="SVGID_8_" gradientUnits="userSpaceOnUse" x1="99.0731" y1="32.0845" x2="110.3246" y2="32.0845">
		<stop  offset="0" style="stop-color:#3F58A6"/>
		<stop  offset="1" style="stop-color:#C9A2C8"/>
	</linearGradient>
	<path class="st16" d="M99.3,37.1c0.1-0.3,0.3-0.7,0.4-1c0.3-0.6,0.7-1.2,1.1-1.8c0.8-1.1,1.7-2.2,2.6-3.2c0.9-1,1.9-2,2.9-2.9
		c0.5-0.5,1-0.9,1.6-1.4c0.5-0.4,1.1-0.9,1.7-1.2c0.1-0.1,0.3-0.1,0.4,0c0.3,0.1,0.4,0.4,0.3,0.6l0,0c0,0.1,0,3-0.1,3.7
		c-0.1,1-0.3,1.9-0.6,2.9c-0.5,1.9-1.1,3.7-1.6,5.6c0,0.1-0.1,0.1-0.1,0.1h0c-1.4-0.1-2.8-0.1-4.3-0.1l-2.1,0c-0.7,0-1.4,0-2.1,0
		c-0.1,0-0.2-0.1-0.2-0.2l0,0C99.1,37.8,99.1,37.5,99.3,37.1z"/>
	<linearGradient id="SVGID_9_" gradientUnits="userSpaceOnUse" x1="51.5162" y1="31.7446" x2="62.7677" y2="31.7446">
		<stop  offset="0" style="stop-color:#3F58A6"/>
		<stop  offset="1" style="stop-color:#C9A2C8"/>
	</linearGradient>
	<path class="st17" d="M51.7,36.8c0.1-0.3,0.3-0.7,0.4-1c0.3-0.6,0.7-1.2,1.1-1.8c0.8-1.1,1.7-2.2,2.6-3.2c0.9-1,1.9-2,2.9-2.9
		c0.5-0.5,1-0.9,1.6-1.4c0.5-0.4,1.1-0.9,1.7-1.2c0.1-0.1,0.3-0.1,0.4,0c0.3,0.1,0.4,0.4,0.3,0.6l0,0c0,0.1,0,3-0.1,3.7
		c-0.1,1-0.3,1.9-0.6,2.9c-0.5,1.9-1.1,3.7-1.6,5.6c0,0.1-0.1,0.1-0.1,0.1l0,0c-1.4-0.1-2.8-0.1-4.3-0.1l-2.1,0c-0.7,0-1.4,0-2.1,0
		c-0.1,0-0.2-0.1-0.2-0.2v0C51.5,37.5,51.6,37.1,51.7,36.8z"/>
	<path class="st7" d="M44.6,96.8c-0.1,0.8-0.2,1.6-0.2,2.4c0,0.3,0,0.6,0.1,0.9c0,0.1,0,0.2,0,0.3c0,0,0,0,0,0
		c-0.1,0.1-0.2,0.2-0.3,0.3c-0.1,0.1-0.2,0.2-0.3,0.2c-0.4-0.3-0.7-0.6-1-1c-0.2-0.2-0.3-0.4-0.4-0.7c-0.1-0.1-0.1-0.2-0.2-0.4
		c0-0.1,0-0.1-0.1-0.2l-0.1-0.2c-0.1-0.2-0.1-0.5-0.2-0.8c0-0.3,0.1-0.6,0.2-0.9c0.1-0.8,0.3-1.6,0.5-2.4c0.4-0.6,1-1.1,1.6-1.5
		c0.7-0.4,1.5-0.7,2.3-1c0,0,0,0,0.1,0c-0.1,0.1-0.2,0.2-0.2,0.3c-0.2,0.2-0.3,0.5-0.5,0.7c-0.1,0.1-0.1,0.2-0.2,0.4
		c-0.2,0.4-0.4,0.8-0.5,1.2C44.9,95.3,44.7,96,44.6,96.8z"/>
	<path class="st7" d="M45.5,97.7c0.1-0.8,0.3-1.6,0.5-2.4c0.3-0.8,0.6-1.5,1-2.1c0.1-0.1,0.2-0.2,0.3-0.3c0.1-0.1,0.2-0.2,0.2-0.2
		c0.1-0.1,0.2-0.2,0.3-0.2c0.3-0.2,0.5-0.3,0.8-0.3c0,0.1,0,0.2,0,0.4c0,0,0,0,0,0c0,0,0,0.1,0,0.1c0,0.1-0.1,0.3-0.1,0.4
		c-0.1,0.4-0.2,0.8-0.4,1.2c-0.3,0.8-0.6,1.5-1,2.2c-0.4,0.7-0.8,1.4-1.2,2.1c-0.2,0.3-0.3,0.5-0.5,0.8
		C45.4,98.8,45.4,98.2,45.5,97.7z"/>
	<path class="st7" d="M48.2,102.7c-0.1,0-0.1,0-0.2,0c0,0,0,0,0,0c0.2-0.1,0.3-0.2,0.4-0.3c0.1,0,0.1-0.1,0.2-0.1c0,0,0,0,0,0
		c0,0,0,0.1,0,0.1c0,0.1,0.1,0.3,0.1,0.4C48.6,102.8,48.4,102.8,48.2,102.7z"/>
	<path class="st7" d="M54.1,102.2c-0.2,0.1-0.5,0.2-0.7,0.3c-0.1,0-0.2,0.1-0.3,0.1c0.1-0.1,0.1-0.1,0.2-0.2
		c0.1-0.1,0.3-0.2,0.4-0.4c0.1-0.1,0.1-0.2,0.2-0.2c0,0,0,0.1,0.1,0.1C54,102,54,102.1,54.1,102.2C54.1,102.2,54.1,102.2,54.1,102.2
		z"/>
	<path class="st7" d="M58.2,98.1c-0.3,1-0.9,1.9-1.6,2.5c-0.5,0.4-1,0.7-1.5,1c-0.1-0.1-0.1-0.2-0.2-0.3c-0.1-0.2-0.2-0.4-0.2-0.6
		l0-0.1c0.1-0.1,0.2-0.3,0.3-0.4c0.1-0.1,0.2-0.2,0.2-0.3c0.3-0.4,0.6-0.9,0.8-1.3c0.3-0.5,0.5-0.9,0.7-1.5c0.1-0.3,0.2-0.5,0.2-0.8
		c0-0.1,0-0.1,0-0.2l0,0l0,0v0l0,0l0-0.1c0-0.1,0-0.3,0-0.4c0-0.3-0.1-0.6-0.2-0.9c-0.1-0.1-0.1-0.3-0.3-0.5
		c-0.1-0.1-0.2-0.1-0.3-0.2c-0.1,0-0.2,0-0.3,0c-0.2,0.1-0.3,0.2-0.4,0.3c-0.1,0.1-0.2,0.2-0.3,0.3c-0.2,0.2-0.3,0.4-0.5,0.7
		c-0.3,0.5-0.5,0.9-0.7,1.4c-0.2,0.5-0.3,1-0.4,1.5c-0.1,0.5-0.2,1.1-0.2,1.6c0,0.1,0,0.3,0,0.4c-0.4,0.4-0.8,0.9-1.2,1.2
		c-0.1,0.1-0.1,0.1-0.2,0.2c-0.3,0.3-0.7,0.5-1,0.7c-0.1,0.1-0.3,0.1-0.4,0.2c-0.2,0-0.3,0-0.4,0c0,0,0,0,0,0
		c-0.1,0-0.2-0.1-0.2-0.1l0,0l0,0l0,0c0,0,0,0,0-0.1c0,0-0.1-0.1-0.1-0.2c0-0.1-0.1-0.2-0.1-0.3c0-0.1,0-0.3,0-0.5
		c0.2-0.2,0.4-0.5,0.6-0.7c0.6-0.8,1.2-1.7,1.7-2.6c0.5-0.9,1-1.9,1.2-2.9c0.1-0.3,0.1-0.5,0.2-0.8c0-0.3,0-0.6-0.1-0.9
		c0-0.2-0.1-0.3-0.2-0.5c0,0,0,0,0,0c0,0-0.1-0.1-0.1-0.1c-0.1-0.1-0.2-0.2-0.3-0.2c-0.2-0.1-0.4-0.1-0.6-0.1
		c-0.1,0-0.2,0.1-0.3,0.1c0,0-0.1,0.1-0.1,0.1c0,0,0,0,0,0c-0.3,0.2-0.4,0.4-0.6,0.6c-0.2,0.2-0.3,0.4-0.5,0.7
		c-0.3,0.5-0.5,0.9-0.7,1.4c-0.4,1-0.7,2-1,3c-0.1,0.5-0.2,1-0.3,1.6c-0.1,0.4-0.1,0.8-0.1,1.2c-0.2,0.2-0.4,0.3-0.6,0.5
		c0,0-0.1,0-0.1,0.1c-0.3,0.2-0.6,0.4-0.8,0.4c-0.1,0-0.1,0-0.2,0c-0.2,0-0.4,0-0.6-0.1c-0.1,0-0.1-0.1-0.2-0.2c0,0-0.1-0.1-0.1-0.1
		l0,0l0,0l0-0.1c0,0,0-0.1-0.1-0.1c0-0.1-0.1-0.2-0.1-0.2c0-0.1-0.1-0.2-0.1-0.4c0,0,0,0,0,0c0.3-0.3,0.6-0.7,0.8-1
		c0.5-0.7,1-1.5,1.4-2.3c0.4-0.8,0.8-1.7,1.2-2.5c0.2-0.4,0.3-0.9,0.5-1.4c0.1-0.2,0.1-0.5,0.2-0.7c0-0.1,0-0.2,0-0.3
		c0,0,0-0.1,0-0.1c0,0,0,0,0,0c0-0.2,0-0.3,0-0.6l0-0.3c1.4,0,2.8,0.1,4.1,0.5c0.7,0.2,1.5,0.5,2.1,0.9c0.3,0.2,0.6,0.4,0.9,0.7
		c0.3,0.3,0.5,0.5,0.6,0.9c0,0.1,0,0.1,0,0.2c0,0,0,0,0,0c0,0.1,0.1,0.1,0.1,0.2c0.1,0.1,0.2,0.2,0.3,0.3c0.2,0.4,0.4,0.9,0.5,1.4
		C58.4,97.1,58.4,97.6,58.2,98.1z"/>
	<path class="st7" d="M54.9,98.2c0.2-0.7,0.5-1.4,0.8-2c0,0,0,0,0-0.1c0,0.1,0,0.1,0,0.2c-0.1,0.3-0.2,0.7-0.4,1.1
		C55.2,97.7,55,98,54.9,98.2z"/>
	<path class="st7" d="M49.8,99.5c0.1-0.5,0.2-1,0.3-1.4c0.3-0.9,0.6-1.9,1-2.7c0.2-0.4,0.4-0.8,0.7-1.2c0.1-0.2,0.3-0.3,0.4-0.4
		c0.1-0.1,0.1-0.1,0.2-0.1c0,0,0,0,0,0c0,0,0,0,0,0c0,0,0.1,0.2,0.1,0.4c0,0.4-0.1,0.8-0.3,1.3c-0.3,0.9-0.7,1.8-1.2,2.6
		C50.5,98.4,50.2,99,49.8,99.5z"/>
	<path class="st1" d="M65.3,79.4c-1.1,0.9-2.4,1.8-3.9,2.4c-0.1,0-0.2,0.1-0.3,0.1l-0.2,0l-0.1,0c-0.2,0.1-0.4,0.1-0.6,0.2
		c-0.4,0.1-0.8,0.2-1.2,0.2c-0.8,0.1-1.6,0.2-2.4,0.2c-1.7,0-3.3-0.3-4.9-0.9c-1.6-0.6-3.1-1.4-4.5-2.5c-1.3-1.1-2.5-2.4-3.3-3.9
		c-0.2-0.4-0.4-0.8-0.6-1.1c-0.2-0.4-0.3-0.7-0.5-1.1c-0.3-0.7-0.6-1.5-0.8-2.2c-0.5-1.5-0.9-3-1.2-4.4c-0.1-0.7-0.2-1.5-0.2-2.2
		c0-0.7,0-1.4,0.2-2.1c0-0.1,0.1-0.2,0.1-0.3c0,0,0,0,0-0.1c0,0,0.2,0,0.4,0c0.2-0.1,0.5-0.1,0.9-0.1c2.5-0.1,4.9-0.2,7.4-0.3
		c2.5-0.1,4.9-0.1,7.4-0.1c0,0,0.1,0,0.1,0c0.1-0.2,0.2-0.3,0.3-0.5c0.1-0.2,0.3-0.4,0.5-0.6C58,60,58,60,58.1,60c0,0,0.1,0,0.1-0.1
		c0,0,0.1,0,0.1,0c0.1,0,0.1,0,0.1,0l0,0l0,0l0,0c0,0,0,0,0.1,0c0.1,0,0.2,0,0.3,0c0.2,0,0.3,0.1,0.4,0.2c0.1,0,0.1-0.1,0.2-0.1
		l0.6-0.4l0.4,0.6c0.2,0.4,0.4,0.7,0.5,1.1c1.1,0.1,2.3,0.2,3.4,0.3c1.2,0.1,2.5,0.3,3.7,0.5c0.6,0.1,1.2,0.2,1.8,0.3
		c0.6,0.1,1.2,0.3,1.8,0.4l0.1,0l0.1,0.1c0.4,0.7,0.6,1.5,0.7,2.3c0,0.8,0,1.6-0.2,2.4c-0.3,1.5-0.9,3-1.6,4.4
		c-0.7,1.4-1.5,2.7-2.4,3.9C67.6,77.3,66.5,78.4,65.3,79.4z"/>
	<path class="st7" d="M88.4,86.4c-0.1,0.7-0.4,1.5-0.7,2.1c-0.4,0.6-0.9,1.2-1.4,1.6c-0.6,0.4-1.2,0.7-1.9,0.8c-0.7,0.1-1.3,0.1-2,0
		c-0.3-0.1-0.6-0.2-1-0.3c-0.3-0.1-0.7-0.3-0.9-0.6c-0.3-0.3-0.5-0.6-0.6-1c-0.2-0.3-0.3-0.7-0.4-1.1c-0.2-0.7-0.3-1.5-0.4-2.2
		c-0.1-0.7-0.2-1.5-0.3-2.2c-0.1-0.5-0.1-1.1-0.2-1.7c-0.1,0.5-0.1,0.9-0.2,1.4c-0.2,1.4-0.6,2.9-1.2,4.2c-0.2,0.5-0.4,1-0.7,1.5
		l-0.1,0.2c0,0.1-0.1,0.1-0.1,0.2c-0.1,0.1-0.2,0.3-0.3,0.4c-0.2,0.2-0.5,0.5-0.7,0.6c-0.5,0.3-1.1,0.5-1.7,0.6
		c-0.6,0.1-1.2,0-1.8-0.1c-1.2-0.2-2.2-0.8-3-1.8c-0.4-0.5-0.7-1-0.9-1.6c-0.2-0.6-0.2-1.2,0-1.7c0-0.1,0.1-0.1,0.2-0.1
		c0,0,0.1,0,0.1,0.1c0,0,0,0.1,0,0.1c0,0.5,0.2,1.1,0.4,1.6c0.3,0.5,0.6,0.9,1.1,1.2c0.8,0.7,1.8,1.1,2.8,1.2c0.5,0,1,0,1.5-0.1
		c0.5-0.1,0.9-0.4,1.3-0.7c0.2-0.2,0.3-0.4,0.4-0.6l0.1-0.2l0.1-0.2c0.1-0.1,0.1-0.2,0.2-0.4c0.2-0.5,0.4-1,0.6-1.6
		c0.4-1.3,0.7-2.7,0.8-4c0.2-1.4,0.2-2.8,0.3-4.2c0-1.7,0-3.5,0.2-5.2c-1.6-3-3.2-9.6-0.7-9.8c1.4-0.1,1.8,2.9,1.9,4.5
		c0.2-2.1,1.3-5.6,2.3-4.8c2.7,2.2-1.4,9-2.5,10.8c0,0.2,0,0.4,0,0.6c0,1.1,0.1,2.1,0.1,3.1c0.2,2.4,0.4,4.7,0.7,7.1
		c0.1,0.7,0.2,1.4,0.4,2.1c0.1,0.7,0.3,1.3,0.6,1.9c0.1,0.3,0.3,0.5,0.4,0.7c0.2,0.2,0.3,0.3,0.5,0.4c0.1,0,0.1,0,0.2,0.1l0.1,0
		l0.1,0c0.1,0,0.3,0.1,0.4,0.1c0.3,0.1,0.5,0.1,0.8,0.1c1,0,1.9-0.3,2.7-0.9c0.8-0.6,1.4-1.5,1.8-2.6c0.1-0.2,0.3-0.3,0.4-0.2
		C88.3,85.9,88.4,86.1,88.4,86.4z"/>
	<path class="st7" d="M98.1,99.3c0,0,0.1-0.1,0.1-0.1c0.1,0,0.1-0.1,0.2-0.1c0,0,0.1-0.1,0.1-0.1c0,0,0,0,0,0c0,0.1,0,0.1,0.1,0.2
		c0.1,0.1,0.1,0.3,0.2,0.4l0,0.1l0,0l0,0l0,0.1C98.7,99.6,98.4,99.4,98.1,99.3z"/>
	<path class="st7" d="M98.4,94.1c-0.1,0.8-0.2,1.6-0.2,2.4c0,0.4,0,0.8,0.1,1.3c0,0,0,0,0,0c-0.1,0.1-0.1,0.1-0.2,0.2
		c-0.2,0.2-0.3,0.3-0.5,0.4c-0.1,0.1-0.2,0.1-0.2,0.2c0,0-0.1,0-0.1,0.1c-0.2-0.2-0.4-0.4-0.6-0.7c-0.2-0.2-0.3-0.4-0.4-0.7
		C96.1,97.2,96,97,96,96.9c0-0.1,0-0.1-0.1-0.2l-0.1-0.2c-0.1-0.2-0.1-0.4-0.2-0.6c0.1-0.6,0.1-1.2,0.3-1.8c0.1-0.7,0.3-1.3,0.4-2
		c0.4-0.5,0.9-1,1.4-1.3c0.7-0.4,1.4-0.8,2.2-1c-0.2,0.3-0.4,0.6-0.6,1c-0.1,0.1-0.1,0.2-0.2,0.3c-0.1,0.2-0.2,0.4-0.3,0.6
		C98.7,92.6,98.5,93.4,98.4,94.1z"/>
	<path class="st7" d="M99.3,95c0.1-0.8,0.3-1.6,0.5-2.4c0.2-0.7,0.5-1.3,0.9-1.9c0-0.1,0.1-0.1,0.1-0.2c0,0,0,0,0,0
		c0.2-0.3,0.5-0.6,0.8-0.8c0.3-0.2,0.5-0.3,0.8-0.3c0,0.1,0,0.3,0,0.4c0,0.1-0.1,0.3-0.1,0.4c0,0.1,0,0.1,0,0.2c0,0,0,0,0,0
		c-0.1,0.4-0.2,0.8-0.4,1.2c-0.3,0.8-0.6,1.5-1,2.2c-0.4,0.7-0.8,1.4-1.2,2.1c-0.2,0.3-0.3,0.5-0.5,0.8C99.2,96.1,99.2,95.5,99.3,95
		z"/>
	<path class="st7" d="M102,100.5c-0.3,0-0.6-0.1-1-0.2c0.2-0.1,0.4-0.2,0.6-0.3c0.1,0,0.1-0.1,0.2-0.1c0.2-0.1,0.4-0.3,0.6-0.4
		c0,0,0,0,0,0c0.1,0.2,0.1,0.4,0.2,0.6c0,0.1,0.1,0.1,0.1,0.2c0,0.1,0.1,0.1,0.1,0.2C102.6,100.6,102.3,100.6,102,100.5z"/>
	<path class="st7" d="M107.8,99.8c-0.2,0.1-0.5,0.2-0.7,0.3c-0.2,0.1-0.5,0.2-0.7,0.2c-0.1,0-0.1,0-0.2,0c0.2-0.2,0.5-0.4,0.7-0.6
		c0.1-0.1,0.1-0.1,0.2-0.2c0.2-0.2,0.4-0.4,0.6-0.6c0.1,0.1,0.1,0.3,0.2,0.4c0.1,0.1,0.1,0.2,0.2,0.3
		C108,99.8,107.9,99.8,107.8,99.8z"/>
	<path class="st7" d="M111.9,95.6c-0.2,1-0.8,1.9-1.6,2.6c-0.4,0.4-0.8,0.7-1.3,1c0,0-0.1-0.1-0.1-0.1c0,0-0.1-0.1-0.1-0.1
		c-0.1-0.2-0.2-0.5-0.3-0.8l0,0l0,0c0.2-0.2,0.4-0.5,0.5-0.7c0.3-0.4,0.6-0.9,0.8-1.3c0.3-0.5,0.5-0.9,0.7-1.4
		c0.1-0.3,0.2-0.5,0.2-0.8c0-0.1,0-0.1,0-0.2l0,0l0,0v0l0,0l0-0.1c0-0.1,0-0.3,0-0.4c0-0.2-0.1-0.5-0.1-0.7c0,0,0-0.1,0-0.1
		c-0.1-0.1-0.1-0.3-0.3-0.5c0,0,0,0,0,0c0,0-0.1,0-0.1-0.1c-0.1,0-0.1,0-0.2-0.1c-0.1,0-0.2,0-0.3,0c0,0,0,0,0,0
		c-0.2,0.1-0.3,0.2-0.4,0.3c-0.1,0.1-0.2,0.2-0.3,0.3c-0.2,0.2-0.3,0.4-0.5,0.7c-0.3,0.5-0.5,0.9-0.7,1.4c-0.2,0.5-0.3,1-0.4,1.5
		c-0.1,0.5-0.2,1.1-0.2,1.6c0,0.1,0,0.3,0,0.4c-0.4,0.5-0.9,1-1.3,1.4c-0.1,0.1-0.3,0.2-0.4,0.3c-0.2,0.1-0.4,0.3-0.6,0.4
		c-0.3,0.2-0.7,0.2-0.9,0.2c-0.1,0-0.2-0.1-0.3-0.2l0,0l0,0l0,0c0,0,0,0,0-0.1c0,0,0,0,0-0.1c0,0,0-0.1,0-0.1
		c-0.1-0.2-0.1-0.5-0.1-0.8c0.2-0.2,0.4-0.5,0.6-0.7c0.6-0.8,1.2-1.7,1.7-2.6c0.5-0.9,1-1.8,1.2-2.9c0.1-0.3,0.1-0.5,0.2-0.8
		c0-0.3,0-0.6-0.1-0.9c0,0,0,0,0-0.1c0,0,0-0.1,0-0.1c0-0.1-0.1-0.2-0.2-0.3c-0.1-0.2-0.3-0.3-0.4-0.4c-0.2-0.1-0.4-0.1-0.6-0.1
		c-0.2,0-0.3,0.1-0.5,0.2c-0.1,0.1-0.2,0.2-0.4,0.3c0,0-0.1,0.1-0.1,0.1c-0.1,0.1-0.1,0.1-0.2,0.2c-0.2,0.2-0.3,0.4-0.5,0.7
		c-0.3,0.5-0.5,0.9-0.7,1.4c-0.4,1-0.7,2-1,3c-0.1,0.5-0.2,1-0.3,1.6c-0.1,0.4-0.1,0.8-0.1,1.2c-0.2,0.2-0.4,0.3-0.6,0.5
		c-0.2,0.2-0.5,0.3-0.7,0.4c-0.1,0-0.1,0.1-0.2,0.1c-0.3,0.1-0.6,0.1-0.8,0c-0.1-0.1-0.2-0.2-0.3-0.3l0,0l0,0l0-0.1c0,0,0,0,0,0
		c0,0,0,0,0-0.1c0-0.1-0.1-0.2-0.1-0.2c0-0.1-0.1-0.3-0.1-0.4c0.3-0.3,0.6-0.7,0.8-1c0.5-0.7,1-1.5,1.4-2.3c0.4-0.8,0.8-1.7,1.2-2.5
		c0.2-0.4,0.3-0.9,0.5-1.4c0.1-0.2,0.1-0.4,0.2-0.6c0,0,0-0.1,0-0.1c0,0,0,0,0,0c0-0.1,0.1-0.3,0.1-0.4c0-0.1,0-0.2,0-0.4
		c1.3,0,2.6,0.1,3.8,0.4c0.8,0.2,1.5,0.5,2.1,0.8c0.3,0.2,0.6,0.4,0.9,0.6c0.3,0.2,0.5,0.5,0.7,0.8c0,0.1,0,0.1,0,0.2c0,0,0,0,0,0
		c0,0.1,0.1,0.1,0.1,0.2c0.1,0.1,0.2,0.2,0.3,0.3c0.2,0.4,0.4,0.9,0.5,1.4C112.1,94.6,112,95.1,111.9,95.6z"/>
	<path class="st7" d="M108.7,95.5c0.2-0.7,0.5-1.4,0.8-2c0,0,0,0,0-0.1c0,0.1,0,0.1,0,0.2c-0.1,0.3-0.2,0.7-0.4,1.1
		C109,95,108.8,95.3,108.7,95.5z"/>
	<path class="st7" d="M103.6,96.8c0.1-0.5,0.2-1,0.3-1.4c0.3-0.9,0.6-1.9,1-2.7c0.2-0.4,0.4-0.8,0.7-1.2c0.1-0.2,0.3-0.3,0.4-0.4
		c0.1-0.1,0.1-0.1,0.2-0.1c0,0,0,0,0,0c0,0,0,0,0,0c0,0,0.1,0.2,0.1,0.4c0,0.4-0.1,0.8-0.3,1.3c-0.3,0.9-0.7,1.8-1.2,2.6
		C104.3,95.7,104,96.3,103.6,96.8z"/>
	<linearGradient id="SVGID_10_" gradientUnits="userSpaceOnUse" x1="83.915" y1="70.655" x2="115.8376" y2="70.655">
		<stop  offset="0" style="stop-color:#0BABD1"/>
		<stop  offset="1" style="stop-color:#AD4A9B"/>
	</linearGradient>
	<path class="st18" d="M113.1,72.2c-0.3,0.7-0.7,1.5-1,2.2c-0.4,0.7-0.8,1.4-1.3,2.1c-1,1.3-2.2,2.4-3.5,3.3c-2.7,1.8-6,2.7-9.3,2.5
		c-0.8-0.1-1.6-0.2-2.5-0.4c-0.8-0.2-1.6-0.5-2.4-0.9c-1.5-0.7-2.9-1.8-4.1-3c-1.8-1.9-3.2-4.3-4.1-6.8c-0.9-2.5-1.3-5.3-1-8l0-0.5
		l0.5-0.1c0.2-0.1,0.4-0.1,0.5-0.1l0.5-0.1c0.3-0.1,0.7-0.2,1-0.2c0.7-0.1,1.4-0.3,2.1-0.4c1.4-0.2,2.8-0.4,4.2-0.5
		c1.1-0.1,2.3-0.2,3.4-0.3c0.1-0.4,0.2-0.7,0.4-1.1c0.1-0.2,0.3-0.4,0.5-0.6c0.1,0,0.1-0.1,0.2-0.1c0.1,0,0.1-0.1,0.3-0.1
		c0,0,0,0,0.1,0l0,0c0,0,0.1,0,0.1,0l0,0l0,0c0,0,0.1,0,0.1,0c0.1,0,0.2,0,0.3,0c0.2,0.1,0.4,0.2,0.5,0.3c0.1,0.1,0.2,0.2,0.3,0.3
		c0,0,0,0.1,0,0.1c0.1-0.1,0.2-0.1,0.3-0.2l0.6-0.5l0.4,0.7c0.2,0.4,0.4,0.7,0.5,1.1c1,0,2,0,3,0c3.6,0.1,7.2,0.3,10.8,0.6
		c1.1,0.1,1.1,0.4,0.5,0.6c0.3,0,0.4,0,0.4,0c0,0,0,0,0,0.1c0-0.1,0.1-0.1,0.1-0.1c0.1,0.1,0.2,0.3,0.2,0.7c0,0.9-0.1,1.7-0.3,2.5
		c-0.2,0.8-0.4,1.6-0.6,2.4C114.4,69.2,113.8,70.7,113.1,72.2z"/>
	<g>
		<linearGradient id="SVGID_11_" gradientUnits="userSpaceOnUse" x1="34.9915" y1="75.2776" x2="41.2423" y2="75.2776">
			<stop  offset="0" style="stop-color:#EF537A"/>
			<stop  offset="1" style="stop-color:#4A3D97"/>
		</linearGradient>
		<path class="st19" d="M35,74.1c0.1-0.4,1.6-0.2,3.3,0.4c1.7,0.6,3.1,1.5,3,1.9c-0.1,0.4-1.6,0.2-3.3-0.4
			C36.2,75.4,34.9,74.5,35,74.1z"/>
		<linearGradient id="SVGID_12_" gradientUnits="userSpaceOnUse" x1="34.5054" y1="81.442" x2="41.0123" y2="81.442">
			<stop  offset="0" style="stop-color:#EF537A"/>
			<stop  offset="1" style="stop-color:#4A3D97"/>
		</linearGradient>
		<path class="st20" d="M34.5,81.5c0-0.4,1.5-0.8,3.3-0.9c1.8,0,3.2,0.3,3.2,0.7c0,0.4-1.5,0.8-3.3,0.8
			C35.9,82.3,34.5,81.9,34.5,81.5z"/>
		<linearGradient id="SVGID_13_" gradientUnits="userSpaceOnUse" x1="34.8864" y1="87.4891" x2="41.5467" y2="87.4891">
			<stop  offset="0" style="stop-color:#EF537A"/>
			<stop  offset="1" style="stop-color:#4A3D97"/>
		</linearGradient>
		<path class="st21" d="M38.2,88.1c-1.8,0.5-3.3,0.6-3.3,0.3c0-0.4,1.5-1,3.3-1.5c1.8-0.5,3.3-0.6,3.3-0.2
			C41.6,87,40.1,87.6,38.2,88.1z"/>
		<linearGradient id="SVGID_14_" gradientUnits="userSpaceOnUse" x1="115.1788" y1="84.6787" x2="122.2942" y2="84.6787">
			<stop  offset="0" style="stop-color:#EF537A"/>
			<stop  offset="1" style="stop-color:#4A3D97"/>
		</linearGradient>
		<path class="st22" d="M122.3,85.8c-0.1,0.4-1.7,0.2-3.7-0.4c-2-0.6-3.5-1.4-3.4-1.7c0.1-0.4,1.7-0.2,3.7,0.4
			C120.8,84.6,122.4,85.4,122.3,85.8z"/>
		<linearGradient id="SVGID_15_" gradientUnits="userSpaceOnUse" x1="116.118" y1="79.3007" x2="123.3701" y2="79.3007">
			<stop  offset="0" style="stop-color:#EF537A"/>
			<stop  offset="1" style="stop-color:#4A3D97"/>
		</linearGradient>
		<path class="st23" d="M119.7,79.9c-2-0.2-3.6-0.7-3.6-1c0-0.3,1.7-0.4,3.7-0.2c2,0.2,3.6,0.7,3.6,1
			C123.3,80,121.7,80.1,119.7,79.9z"/>
		<linearGradient id="SVGID_16_" gradientUnits="userSpaceOnUse" x1="116.439" y1="72.4398" x2="123.645" y2="72.4398">
			<stop  offset="0" style="stop-color:#EF537A"/>
			<stop  offset="1" style="stop-color:#4A3D97"/>
		</linearGradient>
		<path class="st24" d="M120.1,73.1c-2,0.4-3.6,0.4-3.7,0c-0.1-0.4,1.5-1,3.5-1.4c2-0.4,3.6-0.4,3.7,0
			C123.7,72.1,122.1,72.7,120.1,73.1z"/>
	</g>
	<linearGradient id="SVGID_17_" gradientUnits="userSpaceOnUse" x1="54.0352" y1="35.9284" x2="54.1574" y2="35.9284">
		<stop  offset="0" style="stop-color:#3F58A6"/>
		<stop  offset="1" style="stop-color:#C9A2C8"/>
	</linearGradient>
	<path class="st25" d="M54.1,36C54.1,36,54.1,36,54.1,36C54.2,35.9,54.2,35.9,54.1,36c0.1-0.1,0-0.1,0-0.2
		C54.1,35.9,54.1,35.9,54.1,36C54,36,54.1,36,54.1,36C54.1,36,54.1,36,54.1,36z"/>
	<linearGradient id="SVGID_18_" gradientUnits="userSpaceOnUse" x1="101.9129" y1="33.9328" x2="106.0673" y2="33.9328">
		<stop  offset="0" style="stop-color:#3F58A6"/>
		<stop  offset="1" style="stop-color:#C9A2C8"/>
	</linearGradient>
	<path class="st27" d="M103.7,34.8c0.3-0.2,0.5-0.4,0.8-0.6c0.1-0.1,0.3-0.2,0.4-0.3c0.1-0.1,0.2-0.2,0.3-0.2c0.4-0.6,0.7-1.3,1-1.9
		c-0.2,0.2-0.5,0.4-0.7,0.6c-0.8,0.6-1.6,1.2-2.2,2c-0.2,0.2-0.5,0.5-0.7,0.8c-0.2,0.3-0.3,0.6-0.4,0.9c0,0.1-0.1,0.2-0.1,0.2
		c0,0,0.1-0.1,0.1-0.1L103.7,34.8z"/>
	<linearGradient id="SVGID_19_" gradientUnits="userSpaceOnUse" x1="101.5922" y1="36.2684" x2="101.7148" y2="36.2684">
		<stop  offset="0" style="stop-color:#3F58A6"/>
		<stop  offset="1" style="stop-color:#C9A2C8"/>
	</linearGradient>
	<path class="st28" d="M101.6,36.3C101.7,36.3,101.7,36.3,101.6,36.3C101.7,36.3,101.7,36.3,101.6,36.3c0.1-0.1,0-0.1,0-0.2
		C101.7,36.2,101.6,36.3,101.6,36.3C101.6,36.3,101.6,36.4,101.6,36.3C101.6,36.4,101.6,36.3,101.6,36.3z"/>
	<linearGradient id="SVGID_20_" gradientUnits="userSpaceOnUse" x1="51.5578" y1="71.1491" x2="65.2693" y2="71.1491">
		<stop  offset="0" style="stop-color:#0BABD1"/>
		<stop  offset="1" style="stop-color:#AD4A9B"/>
	</linearGradient>
	<path class="st29" d="M65.1,62.3l-3.8-0.1c0,0.1,0,0.2,0.1,0.3c0,0.1,0,0.1,0,0.2c0.1,0.8,0.1,1.6,0.1,2.4c0,0.8-0.1,1.5-0.2,2.3
		c0,0.4,0,0.7,0,1.1c0,0.4,0,0.8,0,1.2c0,1.5-0.1,3-0.4,4.5c-0.1,0.7-0.3,1.5-0.5,2.2c-0.2,0.7-0.5,1.5-0.8,2.1l-0.3,0.5l-0.5-0.3
		c-0.1,0-0.1-0.1-0.2-0.1l-0.1,0.1l-0.3-0.2c-0.2-0.2-0.3-0.3-0.5-0.5c-0.1-0.2-0.2-0.4-0.3-0.5c0,0,0-0.1,0-0.1
		c-0.1-0.1-0.1-0.3-0.2-0.4c-0.3-0.7-0.4-1.4-0.5-2.1c0-0.2,0-0.4-0.1-0.6c0,0,0-0.1,0-0.1c-0.2-1.5-0.4-2.9-0.4-4.4
		c-0.1-1.5-0.1-3,0-4.5c0-0.7,0.1-1.4,0.2-2.1c0-0.2-0.1-0.3-0.1-0.4c0,0,0-0.1,0-0.1c0,0,0,0,0,0c0,0,0,0,0,0c0,0,0.1,0,0.1,0
		c0-0.1,0.1-0.3,0.1-0.4c0-0.1,0-0.2,0.1-0.3l-4.5-0.1c-0.1,0.1-0.3,0.2-0.4,0.4c-1.2,2.1,0.4,9.7,1.1,11.8
		c2.7,8.8,9.7,7.8,11.4-0.2c0.4-1.7,1-6.6,0.6-11.1C65.1,62.7,65.1,62.5,65.1,62.3z"/>
	<path class="st1" d="M105.1,62.2l-3.9,0.1c0.1,0.8,0.1,1.6,0.1,2.4c0,0.8-0.1,1.6-0.1,2.3c0,0.4,0,0.8,0,1.1c0,0.4,0,0.8,0,1.2
		c0,1.6-0.1,3.1-0.3,4.7c-0.1,0.8-0.2,1.5-0.4,2.3c-0.2,0.8-0.4,1.5-0.8,2.2L99.5,79L99,78.7c-0.1,0-0.1-0.1-0.2-0.1l-0.1,0.1
		l-0.3-0.2c-0.2-0.2-0.4-0.3-0.5-0.5c-0.1-0.2-0.2-0.4-0.3-0.5c0-0.1-0.1-0.1-0.1-0.2c-0.1-0.1-0.1-0.2-0.2-0.3
		c-0.2-0.6-0.4-1.2-0.5-1.8c-0.1-0.4-0.2-0.7-0.2-1.1c-0.3-1.5-0.5-3-0.6-4.6c-0.1-1.6-0.2-3.1-0.2-4.7c0-0.8,0.1-1.6,0.1-2.3
		l-3.6,0.1c-0.6,4.6,0.1,9.9,0.5,11.7c1.7,8,8.7,9,11.4,0.3C105.1,72.1,107,63.4,105.1,62.2z"/>
</g>
</svg>
