<svg id="Layer_1" data-name="Layer 1" xmlns="http://www.w3.org/2000/svg" viewBox="0 0 160 145"><defs><style>.cls-1{fill:#fff;}</style></defs><title>meow</title><path class="cls-1" d="M19.63,98.19s0,.13,0,.2,0,.19,0,.27,0,.13,0,.12v.13l0,0,0,0A.64.64,0,0,0,20,99l.25-.05.49-.15c.18-.07.36-.17.54-.22a1.87,1.87,0,0,1,.52-.06,1,1,0,0,0,.27-.06,1.25,1.25,0,0,0,.27-.17,1.22,1.22,0,0,1,.48-.28c.16,0,.32,0,.48-.06a1.65,1.65,0,0,0,.48-.17,4,4,0,0,1,.43-.2,3.6,3.6,0,0,0,.41-.21,2.66,2.66,0,0,1,.36-.18l.33-.09a1,1,0,0,0,.31-.13l.25-.2a1.62,1.62,0,0,0,.35-.43l0,0h0s0,0,0-.12l0-.07s0-.08,0-.13v-.23c0-.08,0-.12,0-.13a.55.55,0,0,0,0,.07s0,.06,0,.07v0s0,0,0,0l0,0v0h0a.15.15,0,0,0-.09,0h0a.43.43,0,0,0,.12-.13v0a.09.09,0,0,0,0,0c0-.17-.14-.28-.4-.32l-.09-.12a1.07,1.07,0,0,0-.29-.26.79.79,0,0,0-.34-.09,2.8,2.8,0,0,1-.35,0,2.63,2.63,0,0,0-.41,0h-.3a3.62,3.62,0,0,0-.47.09l-.29.08-.15,0-.16,0a2.93,2.93,0,0,0-.36,0,1.61,1.61,0,0,0-.4.16l-.41.23a2.17,2.17,0,0,1-.41.18,2.18,2.18,0,0,0-.46.2l-.46.32a5.12,5.12,0,0,0-.47.39,2.53,2.53,0,0,0-.24.26,1.26,1.26,0,0,0-.13.19l0,.08,0,.07a1.31,1.31,0,0,0,0,.21c0,.06,0,.11,0,.25s0,.17,0,.27c0-.24,0,.3,0,.38h0Zm2.8-.79-.13.11a.92.92,0,0,1-.24.15.91.91,0,0,1-.25,0l-.37,0ZM21,97.88l-.24.08-.11,0Z"/><path class="cls-1" d="M19.53,84.5v0l0,0h0l.09,0h0a.52.52,0,0,0-.11.23v0c0,.08.13.14.36.18L20,85a1.19,1.19,0,0,0,.26.27.85.85,0,0,0,.31.12,1.74,1.74,0,0,1,.32.08l.37.1.27,0a3.66,3.66,0,0,0,.43,0h.41l.15,0a3.19,3.19,0,0,0,.33.06,1.16,1.16,0,0,0,.36,0l.37-.09a1.21,1.21,0,0,1,.38,0,1.59,1.59,0,0,0,.42,0l.42-.11.43-.14.22-.1.11-.08,0,0a.27.27,0,0,0,0-.07.86.86,0,0,0,0-.14V84.4h0v-.11c0-.07,0-.15,0-.23s0-.11,0-.17,0-.1,0-.14v-.1c0-.07,0-.13,0-.16v-.1l0-.1v-.06l0-.06,0-.06,0-.06a.54.54,0,0,0-.12-.13l-.11-.07-.22-.1a2.39,2.39,0,0,0-.45-.09h-.49a2,2,0,0,1-.47-.13.72.72,0,0,0-.25,0,.73.73,0,0,0-.25.08.79.79,0,0,1-.44.13c-.14,0-.29-.06-.44-.08a1.09,1.09,0,0,0-.43.06,3.5,3.5,0,0,1-.39.1,2,2,0,0,0-.38.13,2.15,2.15,0,0,1-.33.12l-.3,0a.73.73,0,0,0-.28.11,1.68,1.68,0,0,0-.23.19,1.45,1.45,0,0,0-.32.47v0h-.05V84l0,.09c0,.06,0,.12,0,.19s0,.09,0,.13a.71.71,0,0,0,0,.1S19.52,84.53,19.53,84.5Zm5.14-1.05.11,0-.31-.06Zm-1.43-.16a.55.55,0,0,1,.22-.07.72.72,0,0,1,.23,0l.33.11a7.56,7.56,0,0,0-.9,0Z"/><path class="cls-1" d="M20.5,73.9c0,.07,0,.13,0,.19l0,.1v0a.25.25,0,0,0,0,.07l0,0a.79.79,0,0,0,.24.13l.23.07.46.1c.17,0,.34,0,.5,0a2.11,2.11,0,0,1,.49.2.88.88,0,0,0,.26.08.75.75,0,0,0,.25,0,.72.72,0,0,1,.46,0c.15,0,.3.13.45.19a1.24,1.24,0,0,0,.45.06,2.57,2.57,0,0,1,.41,0,2.38,2.38,0,0,0,.39,0,1.64,1.64,0,0,1,.34,0c.11,0,.21.05.31.08a.73.73,0,0,0,.29,0l.24-.07a.73.73,0,0,0,.33-.25l0,0,0,0h0v-.05h0l0-.08a1,1,0,0,0,0-.12v-.16a.38.38,0,0,0,0-.05h0v0s0,0,0,0l0,0h0a.23.23,0,0,0-.08-.07h0a.21.21,0,0,0,.1-.06h0v0c0-.18-.12-.37-.36-.55l-.08-.16a2.22,2.22,0,0,0-.27-.41,1.35,1.35,0,0,0-.32-.26c-.11-.07-.22-.12-.33-.2l-.38-.23-.28-.14a3.47,3.47,0,0,0-.45-.14l-.28-.07-.14,0L23.79,72a3.14,3.14,0,0,0-.34-.13,1.17,1.17,0,0,0-.38,0l-.38,0a1.49,1.49,0,0,1-.39,0,1.49,1.49,0,0,0-.43,0l-.44.09A2.39,2.39,0,0,0,21,72a1.12,1.12,0,0,0-.23.15.62.62,0,0,0-.12.13l0,.06,0,0a.88.88,0,0,0,0,.11,2,2,0,0,0,0,.22v0l0,.25h0v.15c0,.15,0,.33,0,.48S20.5,73.89,20.5,73.9Zm2.62.22-.12,0a.53.53,0,0,1-.23,0,.87.87,0,0,1-.24-.08l-.35-.16Zm-1.38-.27-.23,0-.1,0Z"/><path class="cls-1" d="M140.37,95.28c0-.1,0-.23,0-.27s0-.19,0-.25a1.28,1.28,0,0,0,0-.21l0-.07,0-.08a1.36,1.36,0,0,0-.13-.19,2.7,2.7,0,0,0-.24-.26,5.08,5.08,0,0,0-.47-.39l-.46-.32a2.14,2.14,0,0,0-.46-.2,2.19,2.19,0,0,1-.41-.18l-.41-.23a1.6,1.6,0,0,0-.4-.16,3.09,3.09,0,0,0-.36,0l-.16,0-.15,0-.29-.08a3.57,3.57,0,0,0-.47-.09h-.3a2.74,2.74,0,0,0-.41,0,2.77,2.77,0,0,1-.35,0,.79.79,0,0,0-.34.09,1.06,1.06,0,0,0-.29.26l-.09.12c-.26,0-.4.15-.4.32a.1.1,0,0,0,0,0v0a.44.44,0,0,0,.12.13h0a.14.14,0,0,0-.09,0h0l0,0s0,0,0,0v0s0-.05,0-.07a.41.41,0,0,0,0-.07s0,.05,0,.13v.23a1.3,1.3,0,0,0,0,.13l0,.07c0,.16,0,.1,0,.12h0l0,0a1.6,1.6,0,0,0,.35.42l.25.2a1,1,0,0,0,.31.13l.33.09a2.65,2.65,0,0,1,.36.18,3.48,3.48,0,0,0,.41.21,4.13,4.13,0,0,1,.43.2,1.66,1.66,0,0,0,.48.18c.16,0,.32,0,.48.05a1.23,1.23,0,0,1,.48.28,1.3,1.3,0,0,0,.27.17,1,1,0,0,0,.27.06,1.9,1.9,0,0,1,.52.06c.17.06.35.15.54.22l.49.15.25.05a.68.68,0,0,0,.25,0l0,0,0,0v-.13s0,0,0-.12,0-.17,0-.27,0-.19,0-.2h0C140.37,95.58,140.37,95,140.37,95.28Zm-6.72-2v0h0Zm4.53,1.92a1,1,0,0,1-.25,0,.93.93,0,0,1-.24-.15l-.13-.11,1,.33Zm1.08.24-.24-.08.35.09Z"/><path class="cls-1" d="M133.65,93.19v0h0Z"/><path class="cls-1" d="M140.47,81.77c0-.08,0-.14,0-.19l0-.09s0,0,0-.06v-.06h-.05v0a1.45,1.45,0,0,0-.32-.47,1.71,1.71,0,0,0-.23-.19.74.74,0,0,0-.28-.11l-.3,0a2.34,2.34,0,0,1-.33-.12,2,2,0,0,0-.38-.13,3.28,3.28,0,0,1-.39-.1,1.08,1.08,0,0,0-.43-.06c-.15,0-.29.07-.44.08a.79.79,0,0,1-.44-.13.73.73,0,0,0-.25-.08.72.72,0,0,0-.25,0,2,2,0,0,1-.47.13h-.49a2.38,2.38,0,0,0-.45.09l-.22.1-.11.07a.58.58,0,0,0-.12.13l0,.07,0,.06,0,.06v.06l0,.1v.1s0,.09,0,.16v.25c0,.06,0,.08,0,.17s0,.15,0,.23,0,.07,0,.11h0V82s0,.09,0,.13,0,.08,0,.11v.06a.8.8,0,0,0,0,.14.29.29,0,0,0,0,.07l0,0a.52.52,0,0,0,.12.08l.22.1.43.14.42.11a1.56,1.56,0,0,0,.42,0,1.24,1.24,0,0,1,.38,0l.37.09a1.18,1.18,0,0,0,.36,0,3,3,0,0,0,.33-.06l.15,0H138a3.84,3.84,0,0,0,.43,0l.27,0,.37-.1a1.91,1.91,0,0,1,.32-.08.82.82,0,0,0,.31-.12,1.18,1.18,0,0,0,.26-.27l.08-.12c.23,0,.37-.09.36-.18v0a.52.52,0,0,0-.12-.23h0l.09,0h0l0,0v0s0,0,0,0a.76.76,0,0,0,0-.1S140.47,81.81,140.47,81.77ZM135.22,81l.11,0,.2,0Zm.76-.12.33-.11a.69.69,0,0,1,.23,0,.54.54,0,0,1,.22.07l.12.06A7.57,7.57,0,0,0,136,80.84Z"/><path class="cls-1" d="M133.84,72.73a.75.75,0,0,0,.29,0c.1,0,.2-.06.31-.08a1.69,1.69,0,0,1,.34,0,2.22,2.22,0,0,0,.39,0,2.65,2.65,0,0,1,.41,0,1.27,1.27,0,0,0,.45-.06c.15-.06.31-.14.45-.19a.73.73,0,0,1,.46,0,.74.74,0,0,0,.25,0,.93.93,0,0,0,.26-.08,2.13,2.13,0,0,1,.49-.2c.16,0,.33,0,.5,0l.46-.1.23-.07a.75.75,0,0,0,.23-.13l0,0a.28.28,0,0,0,0-.07v0l0-.1c0-.05,0-.12,0-.19s0-.07,0-.25,0-.33,0-.48,0-.14,0-.15h0l0-.25v0a2,2,0,0,0,0-.22.74.74,0,0,0,0-.11l0,0,0-.06a.63.63,0,0,0-.12-.13,1.1,1.1,0,0,0-.23-.15,2.39,2.39,0,0,0-.45-.16l-.44-.09a1.44,1.44,0,0,0-.43,0,1.56,1.56,0,0,1-.39,0l-.38,0a1.14,1.14,0,0,0-.38,0,3.05,3.05,0,0,0-.34.13l-.15.06-.14,0-.28.07a3.42,3.42,0,0,0-.44.14l-.28.14-.38.23c-.11.08-.22.13-.33.2a1.32,1.32,0,0,0-.32.26,2.18,2.18,0,0,0-.27.4l-.08.16c-.25.18-.38.37-.36.55a.08.08,0,0,0,0,0h0a.21.21,0,0,0,.1.06h0l-.08.07h0l0,0s0,0,0,0v0h0s0,0,0,.05v.16a.84.84,0,0,0,0,.12l0,.08h0v.05h0l0,0,0,0a.75.75,0,0,0,.33.25Zm5.67-2.24Zm-.93.74-.1,0-.23,0Zm-.78.18-.35.16a.87.87,0,0,1-.24.08.55.55,0,0,1-.23,0l-.12,0Z"/><path class="cls-1" d="M31.85,96.87c.59.09,1,.17,1.27.69,0,0,.09,0,.23.09s.45.13.73-.26a3.26,3.26,0,0,0,.32-.95c.54-3.18,4.13-7.57,5.58-10.54a13.15,13.15,0,0,0,1.54-2.11c3.72-5.51.91.56-.09,5.34A2.61,2.61,0,0,1,40.7,91a22.31,22.31,0,0,0-1.36,2c-.32.52-.27.47,0,.69a3.84,3.84,0,0,0,1.41.47A3.77,3.77,0,0,0,43.15,94a1.59,1.59,0,0,0,1.23-.9s.09,0,.09.09a10.57,10.57,0,0,0,.64-.86h.09c-.14.17-.09.34-.09.6a7,7,0,0,0,1.54-1.51c.86-1.33,3.81-5.29,4.31-6.62a1.36,1.36,0,0,1,.41-.52.32.32,0,0,1,.23-.26,2,2,0,0,0,1-1.12,1.32,1.32,0,0,0,.14-.39.21.21,0,0,1,.14,0s0,.09.09.13c3.09-4.09,2.9-3.61,2.22.17h.14c.27-.65.54-1.29.86-1.94l0,0v.22a1.92,1.92,0,0,0-.41,1.42c0,.09,0,.26-.14.39-.36.43,0,.86-.41,1.29a.13.13,0,0,0,0,.17,8.8,8.8,0,0,1-.45,2.32,5.83,5.83,0,0,1-.27.95s0,0-.18.09c0-.22.09-.43.09-.6-.27.6-.41,1.2-.59,1.72a10.34,10.34,0,0,1-.32,1.12,32.44,32.44,0,0,1-.86,4.39.77.77,0,0,0,.5,1.2c.18,0,.32.09.36.17s.36.22.68.17a4.45,4.45,0,0,1,.55-.09c.59,0,.63-.09.91-.69.18-.17.41-.3.5-.47a1.43,1.43,0,0,0,.5-.86c-.23-.43,0-.86,0-1.2-.14-.56.41-1.16.18-1.59,0,0,0-.09,0-.13a14.75,14.75,0,0,0,.73-2.58c.09-.39.14-.69-.18-.69-.23-.56.54-1.08.68-1.68-.18.09-.18.13-.23.13.09-.34.18-.69.32-1.08a1.48,1.48,0,0,1,0-.26,1.53,1.53,0,0,0,.32-1.46c-.09-.13,0-.3,0-.43.14-.3.59-.6.27-.86,0-.09,0-.13,0-.17a2.8,2.8,0,0,0,.59-1.68c.14-.65.18-1.29.27-1.85s.14-1.2.23-1.81a13.92,13.92,0,0,1,1.36-3.57,1.73,1.73,0,0,1,.14-.34c0-.56,0-1.16-.64-1.29,0,0-.09,0-.18-.09a3,3,0,0,0-.77-.9,2.34,2.34,0,0,0-1.23-.47c-.45-.09-.91.39-1.41.69a16.4,16.4,0,0,0-3.63,3.36c-.64.9-1.41,1.68-2,2.54a3.45,3.45,0,0,0-.91,1.25c-1.82,2.28-4.08,4.86-1.91-.34.18-.39.23-.82.45-1.29.45-1,.18-.13.23-1.12,0-.09,0-.17,0-.22a1.13,1.13,0,0,0,.23-.95c0-.09,0-.39,0-.56s-.5-.39-1-.3a1.9,1.9,0,0,1-1.32-.17,1.34,1.34,0,0,0-.91-.17,4.23,4.23,0,0,0-2.4,1.63c-.23.3-.45.6-.68.86-.41.56-1,1.08-1.36,1.64-.54.77-4.45,6.24-3.4,1.46a17.82,17.82,0,0,0,.63-2.58c0-.26,0-.52-.14-.69s-.54-.39-.77-.6-.41,0-.54.34a8.14,8.14,0,0,0-.36.95c-.18.34-.23.69-.36,1a9.63,9.63,0,0,0-.82,3,4.83,4.83,0,0,1-.18.86c-.41,1.33-.73,2.67-1.09,4l-.54,2.07c-.18.65-1.32,3.18-1.45,3.83a11.8,11.8,0,0,0-.36,1.64A15.27,15.27,0,0,1,31,96.13c0,.09-.09.3,0,.34A2.61,2.61,0,0,0,31.85,96.87Z"/><path class="cls-1" d="M61.16,93.08a3.32,3.32,0,0,1,.36.69,5.58,5.58,0,0,0,2.77,2,7.27,7.27,0,0,0,2.9.3.94.94,0,0,1,.68,0c.23.13.5-.13.73-.09.59-.09,1.13-.09,1.72-.17a13.57,13.57,0,0,0,1.72-.22,8.44,8.44,0,0,0,1.45-.21,12.68,12.68,0,0,0,2.63-1.12,4.6,4.6,0,0,0,1.36-1.08,1.43,1.43,0,0,1,.59-.26,3.49,3.49,0,0,0-.73-1.46c-.18-.34-.27-.34-.64-.09a7.1,7.1,0,0,1-2.27.77l-2.72.26c-1.27.21-2.63.3-3.9.47a16.9,16.9,0,0,1-2.95-.09,2.85,2.85,0,0,1-1.41-.56,2.23,2.23,0,0,1-.32-1.85c1-3.05,7.4-7.1,9.85-8.17a3.15,3.15,0,0,0,1-.69,3.08,3.08,0,0,1,1.09-.9v-.09a.67.67,0,0,0-.5-.56,3.92,3.92,0,0,0-1.72,0,13.38,13.38,0,0,1-3.22,0c-7.08-.39,5.31-4.13,5.85-3a7.63,7.63,0,0,1,1.68.17,2.47,2.47,0,0,0,2.32-.82A1.53,1.53,0,0,0,80,74.8a6.9,6.9,0,0,1-.23-.77c-.14-.56-.27-1-.41-1.63A1.93,1.93,0,0,0,78.45,71a6.57,6.57,0,0,0-1.59-.39,16.77,16.77,0,0,0-6.35.65,10.06,10.06,0,0,0-3.58,2,4.76,4.76,0,0,0-1.63,2.67,4.22,4.22,0,0,0,.77,3.44,4.41,4.41,0,0,0,1,1c2.72.86-2.45,2.84-3.63,3.83A8.21,8.21,0,0,0,60.76,88,5.57,5.57,0,0,0,61.16,93.08Z"/><path class="cls-1" d="M80.45,88.56a9.78,9.78,0,0,0,.86,4.3,8.22,8.22,0,0,0,3.36,3.7,4.26,4.26,0,0,0,2.09.69,7.25,7.25,0,0,1,1,.13,1.72,1.72,0,0,0,1.36-.13,6,6,0,0,0,.82-.26,6.24,6.24,0,0,0,2.95-1.59c.86-.77,1.54-1.51,2.31-2.24.14-.22.41-.47.45-.69a9.44,9.44,0,0,0,1.45-2.62,13.88,13.88,0,0,0,.82-2.15,18.33,18.33,0,0,0,.86-3.44c0-.95.41-1.94.54-2.93,0-.47,0-.95,0-1.42.09-.13,0-.39.14-.52a7.35,7.35,0,0,0,.77-2.62,9.13,9.13,0,0,0-.36-3.36,8.11,8.11,0,0,0-1.27-2.88,20.93,20.93,0,0,0-1.68-1.72,2.62,2.62,0,0,0-1.63-.56,7.72,7.72,0,0,0-4.45,1.29c-.5.39-1,.69-1.45,1a.51.51,0,0,1-.68.22,1.9,1.9,0,0,0-1.59.47,9.07,9.07,0,0,0-1.59,2.19q-.54,1-1.09,2.06a6.23,6.23,0,0,0-.68,1.33l-2.31,5.68a12.45,12.45,0,0,0-1,5.64C80.45,88.31,80.4,88.43,80.45,88.56Z"/><path class="cls-1" d="M105.95,95.92a9.35,9.35,0,0,0,3.27-1.51c.27-.17.5-.43.82-.65,3.58-4.22,3.22-3.23,3.4.77a1.93,1.93,0,0,0,.45.77,5,5,0,0,0,1.91,1.16,2.63,2.63,0,0,0,1.18.13,1.35,1.35,0,0,1,.41,0,2.47,2.47,0,0,0,2.18-1c.91-1,1.81-2.11,2.59-3.14s1.23-1.81,1.82-2.71c.27-.47.54-.9.86-1.38a3.94,3.94,0,0,0,.27-.65,2.21,2.21,0,0,1,.68-1,1.4,1.4,0,0,0,.55-.86c.09-.34.09-.77.63-1a.48.48,0,0,0,.14-.26,11.57,11.57,0,0,0,1-2.84c0-.09.14-.17.23-.3.09.3.14.52.23.82a9.52,9.52,0,0,1,.68-1.81,2,2,0,0,1,.14-.3c.09-.47.32-.95.45-1.42a4.3,4.3,0,0,0,.09-1.08,3.72,3.72,0,0,0,0-.73,2.69,2.69,0,0,0,0-.86c0-.22-.18-.34,0-.65,0-.09,0-.17,0-.26s0-.26,0-.43,0-.34.14-.52c.09-.34-.18-.56-.14-.86a1.05,1.05,0,0,0-.27-.73.44.44,0,0,1-.14-.47.65.65,0,0,0-.23-.86c-.32-.17-.36-.43-.45-.73,0-.13,0-.3-.18-.34a1.9,1.9,0,0,1-.68-.65,2.34,2.34,0,0,1-.41-.73.58.58,0,0,0-.36-.52,2.38,2.38,0,0,1-.32-.13,2.26,2.26,0,0,0-1.13-.52c-.59-.22-1.18-.34-1.77-.56a5.3,5.3,0,0,0-.59.22,4,4,0,0,0-.23.43.61.61,0,0,0,0,.39,6.94,6.94,0,0,0,.36.86.56.56,0,0,0,.73.43.63.63,0,0,1,.68.26,1.92,1.92,0,0,1,.14.73c0,.69,0,1.42.09,2.19a28.76,28.76,0,0,1-.45,4.73,23.56,23.56,0,0,1-1.13,4c-.32.95-.77,2-1.18,3-.27.6-.54,1.12-.82,1.72-1.63,3.61-6.85,11.87-4.67,3.1a21,21,0,0,1,1-3.74A29.67,29.67,0,0,0,119,82.2a3.92,3.92,0,0,1,.54-1.2,8.1,8.1,0,0,0,.73-1.89c0-.09.09-.22,0-.26s0-.26,0-.47.14-.47,0-.6a.8.8,0,0,1-.27-.69c0-.47-.41-.56-.82-.65a8.58,8.58,0,0,0-1.13-.3,3.44,3.44,0,0,0-1.5-.09,1.61,1.61,0,0,0-.86.43A4.49,4.49,0,0,0,114.8,78a15.33,15.33,0,0,1-1.18,3c-.5,1.2-1.13,2.37-1.77,3.57-.23.47-.55.95-.77,1.46a1.19,1.19,0,0,1-.32.34,1.55,1.55,0,0,0-.59.6c-2.59,4.86-4.45,5.42-3.45-.77a8.06,8.06,0,0,0,0-1c0-.56,0-1.12.14-1.63.18-1,.32-2.07.54-3.05.23-1.16.45-2.32.73-3.48a3.67,3.67,0,0,0,0-2.11.83.83,0,0,1-.14-.47c0-.34-.27-.52-.68-.47a7.36,7.36,0,0,0-1.36.17.45.45,0,0,0,0,.22,10.55,10.55,0,0,1-.36,2.84,32.73,32.73,0,0,1-.82,3.53c-.82,2.24-1.41,4.47-2.09,6.71-.32,1.2-.77,2.45-1.13,3.74a8.63,8.63,0,0,0-.14,3.87,1,1,0,0,0,.45.64,2.22,2.22,0,0,0,1.54.34c.77,0,1.5,0,2.22-.09Z"/><path class="cls-1" d="M82.63,59.61a1.47,1.47,0,0,0,0,.32l.07.31a1.62,1.62,0,0,1,0,.33,2.06,2.06,0,0,0,0,.37l.08.36c0,.12.06.24.1.36a1.83,1.83,0,0,0,.07.18.44.44,0,0,0,.05.09l0,0,0,0h.4l.13,0,.1,0,.08,0,.06,0,.09,0,.06,0,.06,0,0,0,0,0,0,0,0,0a.58.58,0,0,0,.07-.12l0-.11a1.85,1.85,0,0,0,0-.21,3.55,3.55,0,0,0,0-.41l0-.43a2.75,2.75,0,0,1,.06-.44,1,1,0,0,0,0-.22.77.77,0,0,0-.06-.21.89.89,0,0,1-.1-.37c0-.13,0-.26,0-.4a1.36,1.36,0,0,0-.05-.38c0-.12-.06-.22-.08-.33a2.22,2.22,0,0,0-.09-.31,2.49,2.49,0,0,1-.09-.28l0-.26a.72.72,0,0,0-.07-.23,1.19,1.19,0,0,0-.12-.18.73.73,0,0,0-.29-.22h0v0H83.2v0h0l0,.07h0a.23.23,0,0,0-.14-.07h0s-.08.13-.09.34l-.06.09a1.22,1.22,0,0,0-.15.27,1.1,1.1,0,0,0-.06.29,2.48,2.48,0,0,1,0,.29c0,.11,0,.22,0,.34l0,.25c0,.11,0,.23,0,.38v.49C82.65,59.4,82.63,59.5,82.63,59.61Zm1.41,0a.6.6,0,0,1,.05.18,1,1,0,0,1,0,.21c0,.1,0,.2-.05.31,0-.25,0-.51,0-.8Zm0,1.1c0,.06,0,.12,0,.18l0,.1C84,61,84,60.86,84,60.76Z"/><path class="cls-1" d="M117.78,62.37a.76.76,0,0,0-.06-.21.89.89,0,0,1-.1-.37c0-.13,0-.26,0-.4a1.36,1.36,0,0,0-.05-.38c0-.12-.06-.22-.08-.33a2.2,2.2,0,0,0-.09-.32,2.48,2.48,0,0,1-.09-.27l0-.26a.73.73,0,0,0-.07-.23,1.19,1.19,0,0,0-.12-.18.72.72,0,0,0-.29-.22h0v0h-.35v0h0l0,.07h0a.23.23,0,0,0-.14-.07h0s-.08.13-.09.34l-.06.09a1.21,1.21,0,0,0-.15.27,1.11,1.11,0,0,0-.06.29,2.53,2.53,0,0,1,0,.29c0,.11,0,.22,0,.34l0,.25c0,.11,0,.23,0,.38V62c0,.09,0,.19,0,.3a1.47,1.47,0,0,0,0,.32l.07.31a1.64,1.64,0,0,1,0,.33,2.05,2.05,0,0,0,0,.37l.08.36c0,.12.06.24.1.36a1.74,1.74,0,0,0,.07.18.42.42,0,0,0,.05.09l0,0,0,0h.4l.13,0,.1,0,.08,0,.06,0,.09,0,.06,0,.06,0,0,0,0,0,0,0,0,0a.56.56,0,0,0,.07-.12l0-.11a1.93,1.93,0,0,0,0-.21,3.56,3.56,0,0,0,0-.41l0-.43a2.75,2.75,0,0,1,.06-.44A1,1,0,0,0,117.78,62.37Zm-.52,1.23,0,.11c0-.09,0-.18,0-.29C117.26,63.48,117.26,63.54,117.25,63.6Zm.07-.89c0,.1,0,.2-.05.31,0-.25,0-.51,0-.8l0,.09a.6.6,0,0,1,.05.18A1,1,0,0,1,117.32,62.71Z"/><path class="cls-1" d="M127.06,104.61c0-.13,0-.27.06-.41a1.43,1.43,0,0,0,0-.4c0-.12,0-.24-.06-.35a2.6,2.6,0,0,0-.07-.34,2.36,2.36,0,0,1-.07-.29l0-.27a.82.82,0,0,0-.06-.25,1.36,1.36,0,0,0-.12-.19.76.76,0,0,0-.29-.25h0a.08.08,0,0,0,0,0H126v0h0v.08h0a.24.24,0,0,0-.14-.08h0c-.05,0-.09.13-.11.35l-.07.08a1.3,1.3,0,0,0-.17.27,1.18,1.18,0,0,0-.08.3,2.75,2.75,0,0,1-.05.3c0,.11,0,.23-.07.35l0,.26c0,.11,0,.24,0,.4v.38l0,.14c0,.09,0,.2,0,.31a1.51,1.51,0,0,0,0,.33l.05.33a1.73,1.73,0,0,1,0,.35,2.1,2.1,0,0,0,0,.38l.06.38c0,.13,0,.26.08.39a1.76,1.76,0,0,0,.06.19.47.47,0,0,0,0,.1l0,0,0,0,.09,0H126l.14,0,.1,0,.09,0,.06,0,.1,0,.06,0,.06,0,0,0,0,0,0,0,0,0a.56.56,0,0,0,.08-.12l0-.11a1.7,1.7,0,0,0,.06-.22,3.56,3.56,0,0,0,.07-.42v-.45a2.82,2.82,0,0,1,.09-.45,1.09,1.09,0,0,0,0-.23.84.84,0,0,0,0-.22A.92.92,0,0,1,127.06,104.61Zm-.51,1.86,0,.11c0-.09,0-.19,0-.3C126.56,106.34,126.56,106.41,126.55,106.47Zm.13-.93c0,.1-.05.21-.07.32,0-.26,0-.54,0-.83l0,.1a.61.61,0,0,1,0,.2A1,1,0,0,1,126.68,105.54Z"/><path id="_Path_" data-name="&lt;Path&gt;" class="cls-1" d="M113.08,39.87a7.19,7.19,0,0,1-1.84,1.86c-1,.67-2.41-.06-3.29-.68a10.06,10.06,0,0,1-4.08-6.11,3.56,3.56,0,0,1,0-1.89,2.37,2.37,0,0,1,1.92-1.44c2-.32,3.11,1.16,4,2.67-.06-.1.5-1,.57-1.08a6.09,6.09,0,0,1,.72-1.08,2.39,2.39,0,0,1,3.21-.59,3.07,3.07,0,0,1,1,2.92,12.09,12.09,0,0,1-1.45,4.19A9.8,9.8,0,0,1,113.08,39.87Z"/><path id="_Path_2" data-name="&lt;Path&gt;" class="cls-1" d="M102.35,51.21a4.53,4.53,0,0,1-1.16,1.17c-.64.42-1.51,0-2.07-.43a6.33,6.33,0,0,1-2.57-3.85,2.24,2.24,0,0,1,0-1.19A1.49,1.49,0,0,1,97.77,46c1.24-.2,2,.73,2.51,1.68,0-.06.31-.6.36-.68a3.84,3.84,0,0,1,.45-.68,1.5,1.5,0,0,1,2-.37,1.94,1.94,0,0,1,.62,1.84,7.62,7.62,0,0,1-.91,2.64A6.18,6.18,0,0,1,102.35,51.21Z"/></svg>